<?xml version="1.0" encoding="utf-8"?>
<svg xmlns="http://www.w3.org/2000/svg" xmlns:xlink="http://www.w3.org/1999/xlink" width="600" height="400" viewBox="0 0 2400 1600">
<defs>
  <clipPath id="clip9800">
    <rect x="0" y="0" width="2400" height="1600"/>
  </clipPath>
</defs>
<polygon clip-path="url(#clip9800)" points="
0,1600 2400,1600 2400,0 0,0 
  " fill="#ffffff" fill-rule="evenodd" fill-opacity="1"/>
<defs>
  <clipPath id="clip9801">
    <rect x="480" y="0" width="1681" height="1600"/>
  </clipPath>
</defs>
<polygon clip-path="url(#clip9800)" points="
188.156,1503.47 2321.26,1503.47 2321.26,47.2441 188.156,47.2441 
  " fill="#ffffff" fill-rule="evenodd" fill-opacity="1"/>
<defs>
  <clipPath id="clip9802">
    <rect x="188" y="47" width="2134" height="1457"/>
  </clipPath>
</defs>
<polyline clip-path="url(#clip9802)" style="stroke:#000000; stroke-width:2; stroke-opacity:0.1; fill:none" points="
  416.224,1503.47 416.224,47.2441 
  "/>
<polyline clip-path="url(#clip9802)" style="stroke:#000000; stroke-width:2; stroke-opacity:0.1; fill:none" points="
  835.466,1503.47 835.466,47.2441 
  "/>
<polyline clip-path="url(#clip9802)" style="stroke:#000000; stroke-width:2; stroke-opacity:0.1; fill:none" points="
  1254.71,1503.47 1254.71,47.2441 
  "/>
<polyline clip-path="url(#clip9802)" style="stroke:#000000; stroke-width:2; stroke-opacity:0.1; fill:none" points="
  1673.95,1503.47 1673.95,47.2441 
  "/>
<polyline clip-path="url(#clip9802)" style="stroke:#000000; stroke-width:2; stroke-opacity:0.1; fill:none" points="
  2093.19,1503.47 2093.19,47.2441 
  "/>
<polyline clip-path="url(#clip9802)" style="stroke:#000000; stroke-width:2; stroke-opacity:0.1; fill:none" points="
  188.156,1462.26 2321.26,1462.26 
  "/>
<polyline clip-path="url(#clip9802)" style="stroke:#000000; stroke-width:2; stroke-opacity:0.1; fill:none" points="
  188.156,1118.81 2321.26,1118.81 
  "/>
<polyline clip-path="url(#clip9802)" style="stroke:#000000; stroke-width:2; stroke-opacity:0.1; fill:none" points="
  188.156,775.359 2321.26,775.359 
  "/>
<polyline clip-path="url(#clip9802)" style="stroke:#000000; stroke-width:2; stroke-opacity:0.1; fill:none" points="
  188.156,431.909 2321.26,431.909 
  "/>
<polyline clip-path="url(#clip9802)" style="stroke:#000000; stroke-width:2; stroke-opacity:0.1; fill:none" points="
  188.156,88.4582 2321.26,88.4582 
  "/>
<polyline clip-path="url(#clip9800)" style="stroke:#000000; stroke-width:4; stroke-opacity:1; fill:none" points="
  188.156,1503.47 2321.26,1503.47 
  "/>
<polyline clip-path="url(#clip9800)" style="stroke:#000000; stroke-width:4; stroke-opacity:1; fill:none" points="
  188.156,1503.47 188.156,47.2441 
  "/>
<polyline clip-path="url(#clip9800)" style="stroke:#000000; stroke-width:4; stroke-opacity:1; fill:none" points="
  416.224,1503.47 416.224,1481.63 
  "/>
<polyline clip-path="url(#clip9800)" style="stroke:#000000; stroke-width:4; stroke-opacity:1; fill:none" points="
  835.466,1503.47 835.466,1481.63 
  "/>
<polyline clip-path="url(#clip9800)" style="stroke:#000000; stroke-width:4; stroke-opacity:1; fill:none" points="
  1254.71,1503.47 1254.71,1481.63 
  "/>
<polyline clip-path="url(#clip9800)" style="stroke:#000000; stroke-width:4; stroke-opacity:1; fill:none" points="
  1673.95,1503.47 1673.95,1481.63 
  "/>
<polyline clip-path="url(#clip9800)" style="stroke:#000000; stroke-width:4; stroke-opacity:1; fill:none" points="
  2093.19,1503.47 2093.19,1481.63 
  "/>
<polyline clip-path="url(#clip9800)" style="stroke:#000000; stroke-width:4; stroke-opacity:1; fill:none" points="
  188.156,1462.26 220.153,1462.26 
  "/>
<polyline clip-path="url(#clip9800)" style="stroke:#000000; stroke-width:4; stroke-opacity:1; fill:none" points="
  188.156,1118.81 220.153,1118.81 
  "/>
<polyline clip-path="url(#clip9800)" style="stroke:#000000; stroke-width:4; stroke-opacity:1; fill:none" points="
  188.156,775.359 220.153,775.359 
  "/>
<polyline clip-path="url(#clip9800)" style="stroke:#000000; stroke-width:4; stroke-opacity:1; fill:none" points="
  188.156,431.909 220.153,431.909 
  "/>
<polyline clip-path="url(#clip9800)" style="stroke:#000000; stroke-width:4; stroke-opacity:1; fill:none" points="
  188.156,88.4582 220.153,88.4582 
  "/>
<g clip-path="url(#clip9800)">
<text style="fill:#000000; fill-opacity:1; font-family:Arial,Helvetica Neue,Helvetica,sans-serif; font-size:48px; text-anchor:middle;" transform="rotate(0, 416.224, 1557.47)" x="416.224" y="1557.47">0.0</text>
</g>
<g clip-path="url(#clip9800)">
<text style="fill:#000000; fill-opacity:1; font-family:Arial,Helvetica Neue,Helvetica,sans-serif; font-size:48px; text-anchor:middle;" transform="rotate(0, 835.466, 1557.47)" x="835.466" y="1557.47">2.5</text>
</g>
<g clip-path="url(#clip9800)">
<text style="fill:#000000; fill-opacity:1; font-family:Arial,Helvetica Neue,Helvetica,sans-serif; font-size:48px; text-anchor:middle;" transform="rotate(0, 1254.71, 1557.47)" x="1254.71" y="1557.47">5.0</text>
</g>
<g clip-path="url(#clip9800)">
<text style="fill:#000000; fill-opacity:1; font-family:Arial,Helvetica Neue,Helvetica,sans-serif; font-size:48px; text-anchor:middle;" transform="rotate(0, 1673.95, 1557.47)" x="1673.95" y="1557.47">7.5</text>
</g>
<g clip-path="url(#clip9800)">
<text style="fill:#000000; fill-opacity:1; font-family:Arial,Helvetica Neue,Helvetica,sans-serif; font-size:48px; text-anchor:middle;" transform="rotate(0, 2093.19, 1557.47)" x="2093.19" y="1557.47">10.0</text>
</g>
<g clip-path="url(#clip9800)">
<text style="fill:#000000; fill-opacity:1; font-family:Arial,Helvetica Neue,Helvetica,sans-serif; font-size:48px; text-anchor:end;" transform="rotate(0, 164.156, 1479.76)" x="164.156" y="1479.76">0.00</text>
</g>
<g clip-path="url(#clip9800)">
<text style="fill:#000000; fill-opacity:1; font-family:Arial,Helvetica Neue,Helvetica,sans-serif; font-size:48px; text-anchor:end;" transform="rotate(0, 164.156, 1136.31)" x="164.156" y="1136.31">0.25</text>
</g>
<g clip-path="url(#clip9800)">
<text style="fill:#000000; fill-opacity:1; font-family:Arial,Helvetica Neue,Helvetica,sans-serif; font-size:48px; text-anchor:end;" transform="rotate(0, 164.156, 792.859)" x="164.156" y="792.859">0.50</text>
</g>
<g clip-path="url(#clip9800)">
<text style="fill:#000000; fill-opacity:1; font-family:Arial,Helvetica Neue,Helvetica,sans-serif; font-size:48px; text-anchor:end;" transform="rotate(0, 164.156, 449.409)" x="164.156" y="449.409">0.75</text>
</g>
<g clip-path="url(#clip9800)">
<text style="fill:#000000; fill-opacity:1; font-family:Arial,Helvetica Neue,Helvetica,sans-serif; font-size:48px; text-anchor:end;" transform="rotate(0, 164.156, 105.958)" x="164.156" y="105.958">1.00</text>
</g>
<polyline clip-path="url(#clip9802)" style="stroke:#009af9; stroke-width:4; stroke-opacity:1; fill:none" points="
  248.527,1462.26 252.56,1462.26 256.593,1462.26 260.626,1462.26 264.658,1462.26 268.691,1462.26 272.724,1462.26 276.757,1462.26 280.79,1462.26 284.822,1462.26 
  288.855,1462.26 292.888,1462.26 296.921,1462.26 300.953,1462.26 304.986,1462.26 309.019,1462.26 313.052,1462.26 317.085,1462.26 321.117,1462.26 325.15,1462.26 
  329.183,1462.26 333.216,1462.26 337.249,1462.26 341.281,1462.26 345.314,1462.26 349.347,1462.26 353.38,1462.26 357.413,1462.26 361.445,1462.26 365.478,1462.26 
  369.511,1462.26 373.544,1462.26 377.576,1462.26 381.609,1462.26 385.642,1462.26 389.675,1462.26 393.708,1462.26 397.74,1462.26 401.773,1462.26 405.806,1462.26 
  409.839,1462.26 413.872,1462.26 417.904,88.4582 421.937,88.4582 425.97,88.4582 430.003,88.4582 434.036,88.4582 438.068,88.4582 442.101,88.4582 446.134,88.4582 
  450.167,88.4582 454.199,88.4582 458.232,88.4582 462.265,88.4582 466.298,88.4582 470.331,88.4582 474.363,88.4582 478.396,88.4582 482.429,88.4582 486.462,88.4582 
  490.495,88.4582 494.527,88.4582 498.56,88.4582 502.593,88.4582 506.626,88.4582 510.659,88.4582 514.691,88.4582 518.724,88.4582 522.757,88.4582 526.79,88.4582 
  530.822,88.4582 534.855,88.4582 538.888,88.4582 542.921,88.4582 546.954,88.4582 550.986,88.4582 555.019,88.4582 559.052,88.4582 563.085,88.4582 567.118,88.4582 
  571.15,88.4582 575.183,88.4582 579.216,88.4582 583.249,88.4582 587.282,1462.26 591.314,1462.26 595.347,1462.26 599.38,1462.26 603.413,1462.26 607.445,1462.26 
  611.478,1462.26 615.511,1462.26 619.544,1462.26 623.577,1462.26 627.609,1462.26 631.642,1462.26 635.675,1462.26 639.708,1462.26 643.741,1462.26 647.773,1462.26 
  651.806,1462.26 655.839,1462.26 659.872,1462.26 663.905,1462.26 667.937,1462.26 671.97,1462.26 676.003,1462.26 680.036,1462.26 684.068,1462.26 688.101,1462.26 
  692.134,1462.26 696.167,1462.26 700.2,1462.26 704.232,1462.26 708.265,1462.26 712.298,1462.26 716.331,1462.26 720.364,1462.26 724.396,1462.26 728.429,1462.26 
  732.462,1462.26 736.495,1462.26 740.528,1462.26 744.56,1462.26 748.593,1462.26 752.626,1462.26 756.659,1462.26 760.691,1462.26 764.724,1462.26 768.757,1462.26 
  772.79,1462.26 776.823,1462.26 780.855,1462.26 784.888,1462.26 788.921,1462.26 792.954,1462.26 796.987,1462.26 801.019,1462.26 805.052,1462.26 809.085,1462.26 
  813.118,1462.26 817.15,1462.26 821.183,1462.26 825.216,1462.26 829.249,1462.26 833.282,1462.26 837.314,1462.26 841.347,1462.26 845.38,1462.26 849.413,1462.26 
  853.446,1462.26 857.478,1462.26 861.511,1462.26 865.544,1462.26 869.577,1462.26 873.61,1462.26 877.642,1462.26 881.675,1462.26 885.708,1462.26 889.741,1462.26 
  893.773,1462.26 897.806,1462.26 901.839,1462.26 905.872,1462.26 909.905,1462.26 913.937,1462.26 917.97,1462.26 922.003,1462.26 926.036,1462.26 930.069,1462.26 
  934.101,1462.26 938.134,1462.26 942.167,1462.26 946.2,1462.26 950.233,1462.26 954.265,1462.26 958.298,1462.26 962.331,1462.26 966.364,1462.26 970.396,1462.26 
  974.429,1462.26 978.462,1462.26 982.495,1462.26 986.528,1462.26 990.56,1462.26 994.593,1462.26 998.626,1462.26 1002.66,1462.26 1006.69,1462.26 1010.72,1462.26 
  1014.76,1462.26 1018.79,1462.26 1022.82,1462.26 1026.86,1462.26 1030.89,1462.26 1034.92,1462.26 1038.95,1462.26 1042.99,1462.26 1047.02,1462.26 1051.05,1462.26 
  1055.09,1462.26 1059.12,1462.26 1063.15,1462.26 1067.18,1462.26 1071.22,1462.26 1075.25,1462.26 1079.28,1462.26 1083.31,1462.26 1087.35,88.4582 1091.38,88.4582 
  1095.41,88.4582 1099.45,88.4582 1103.48,88.4582 1107.51,88.4582 1111.54,88.4582 1115.58,88.4582 1119.61,88.4582 1123.64,88.4582 1127.68,88.4582 1131.71,88.4582 
  1135.74,88.4582 1139.77,88.4582 1143.81,88.4582 1147.84,88.4582 1151.87,88.4582 1155.9,88.4582 1159.94,88.4582 1163.97,88.4582 1168,88.4582 1172.04,88.4582 
  1176.07,88.4582 1180.1,88.4582 1184.13,88.4582 1188.17,88.4582 1192.2,88.4582 1196.23,88.4582 1200.27,88.4582 1204.3,88.4582 1208.33,88.4582 1212.36,88.4582 
  1216.4,88.4582 1220.43,88.4582 1224.46,88.4582 1228.49,88.4582 1232.53,88.4582 1236.56,88.4582 1240.59,88.4582 1244.63,88.4582 1248.66,88.4582 1252.69,88.4582 
  1256.72,1462.26 1260.76,1462.26 1264.79,1462.26 1268.82,1462.26 1272.86,1462.26 1276.89,1462.26 1280.92,1462.26 1284.95,1462.26 1288.99,1462.26 1293.02,1462.26 
  1297.05,1462.26 1301.09,1462.26 1305.12,1462.26 1309.15,1462.26 1313.18,1462.26 1317.22,1462.26 1321.25,1462.26 1325.28,1462.26 1329.31,1462.26 1333.35,1462.26 
  1337.38,1462.26 1341.41,1462.26 1345.45,1462.26 1349.48,1462.26 1353.51,1462.26 1357.54,1462.26 1361.58,1462.26 1365.61,1462.26 1369.64,1462.26 1373.68,1462.26 
  1377.71,1462.26 1381.74,1462.26 1385.77,1462.26 1389.81,1462.26 1393.84,1462.26 1397.87,1462.26 1401.9,1462.26 1405.94,1462.26 1409.97,1462.26 1414,1462.26 
  1418.04,1462.26 1422.07,1462.26 1426.1,1462.26 1430.13,1462.26 1434.17,1462.26 1438.2,1462.26 1442.23,1462.26 1446.27,1462.26 1450.3,1462.26 1454.33,1462.26 
  1458.36,1462.26 1462.4,1462.26 1466.43,1462.26 1470.46,1462.26 1474.5,1462.26 1478.53,1462.26 1482.56,1462.26 1486.59,1462.26 1490.63,1462.26 1494.66,1462.26 
  1498.69,1462.26 1502.72,1462.26 1506.76,1462.26 1510.79,1462.26 1514.82,1462.26 1518.86,1462.26 1522.89,1462.26 1526.92,1462.26 1530.95,1462.26 1534.99,1462.26 
  1539.02,1462.26 1543.05,1462.26 1547.09,1462.26 1551.12,1462.26 1555.15,1462.26 1559.18,1462.26 1563.22,1462.26 1567.25,1462.26 1571.28,1462.26 1575.31,1462.26 
  1579.35,1462.26 1583.38,1462.26 1587.41,1462.26 1591.45,1462.26 1595.48,1462.26 1599.51,1462.26 1603.54,1462.26 1607.58,1462.26 1611.61,1462.26 1615.64,1462.26 
  1619.68,1462.26 1623.71,1462.26 1627.74,1462.26 1631.77,1462.26 1635.81,1462.26 1639.84,1462.26 1643.87,1462.26 1647.91,1462.26 1651.94,1462.26 1655.97,1462.26 
  1660,1462.26 1664.04,1462.26 1668.07,1462.26 1672.1,1462.26 1676.13,1462.26 1680.17,1462.26 1684.2,1462.26 1688.23,1462.26 1692.27,1462.26 1696.3,1462.26 
  1700.33,1462.26 1704.36,1462.26 1708.4,1462.26 1712.43,1462.26 1716.46,1462.26 1720.5,1462.26 1724.53,1462.26 1728.56,1462.26 1732.59,1462.26 1736.63,1462.26 
  1740.66,1462.26 1744.69,1462.26 1748.72,1462.26 1752.76,1462.26 1756.79,1462.26 1760.82,88.4582 1764.86,88.4582 1768.89,88.4582 1772.92,88.4582 1776.95,88.4582 
  1780.99,88.4582 1785.02,88.4582 1789.05,88.4582 1793.09,88.4582 1797.12,88.4582 1801.15,88.4582 1805.18,88.4582 1809.22,88.4582 1813.25,88.4582 1817.28,88.4582 
  1821.31,88.4582 1825.35,88.4582 1829.38,88.4582 1833.41,88.4582 1837.45,88.4582 1841.48,88.4582 1845.51,88.4582 1849.54,88.4582 1853.58,88.4582 1857.61,88.4582 
  1861.64,88.4582 1865.68,88.4582 1869.71,88.4582 1873.74,88.4582 1877.77,88.4582 1881.81,88.4582 1885.84,88.4582 1889.87,88.4582 1893.91,88.4582 1897.94,88.4582 
  1901.97,88.4582 1906,88.4582 1910.04,88.4582 1914.07,88.4582 1918.1,88.4582 1922.13,88.4582 1926.17,1462.26 1930.2,1462.26 1934.23,1462.26 1938.27,1462.26 
  1942.3,1462.26 1946.33,1462.26 1950.36,1462.26 1954.4,1462.26 1958.43,1462.26 1962.46,1462.26 1966.5,1462.26 1970.53,1462.26 1974.56,1462.26 1978.59,1462.26 
  1982.63,1462.26 1986.66,1462.26 1990.69,1462.26 1994.72,1462.26 1998.76,1462.26 2002.79,1462.26 2006.82,1462.26 2010.86,1462.26 2014.89,1462.26 2018.92,1462.26 
  2022.95,1462.26 2026.99,1462.26 2031.02,1462.26 2035.05,1462.26 2039.09,1462.26 2043.12,1462.26 2047.15,1462.26 2051.18,1462.26 2055.22,1462.26 2059.25,1462.26 
  2063.28,1462.26 2067.32,1462.26 2071.35,1462.26 2075.38,1462.26 2079.41,1462.26 2083.45,1462.26 2087.48,1462.26 2091.51,1462.26 2095.54,1462.26 2099.58,1462.26 
  2103.61,1462.26 2107.64,1462.26 2111.68,1462.26 2115.71,1462.26 2119.74,1462.26 2123.77,1462.26 2127.81,1462.26 2131.84,1462.26 2135.87,1462.26 2139.91,1462.26 
  2143.94,1462.26 2147.97,1462.26 2152,1462.26 2156.04,1462.26 2160.07,1462.26 2164.1,1462.26 2168.13,1462.26 2172.17,1462.26 2176.2,1462.26 2180.23,1462.26 
  2184.27,1462.26 2188.3,1462.26 2192.33,1462.26 2196.36,1462.26 2200.4,1462.26 2204.43,1462.26 2208.46,1462.26 2212.5,1462.26 2216.53,1462.26 2220.56,1462.26 
  2224.59,1462.26 2228.63,1462.26 2232.66,1462.26 2236.69,1462.26 2240.73,1462.26 2244.76,1462.26 2248.79,1462.26 2252.82,1462.26 2256.86,1462.26 2260.89,1462.26 
  
  "/>
<polyline clip-path="url(#clip9802)" style="stroke:#e26f46; stroke-width:4; stroke-opacity:1; fill:none" points="
  248.527,1462.26 252.56,1462.26 256.593,1462.26 260.626,1462.26 264.658,1462.26 268.691,1462.26 272.724,1462.26 276.757,1462.26 280.79,1462.26 284.822,1462.26 
  288.855,1462.26 292.888,1462.26 296.921,1462.26 300.953,1462.26 304.986,1462.26 309.019,1462.26 313.052,1462.26 317.085,1462.26 321.117,1462.26 325.15,1462.26 
  329.183,1462.26 333.216,1462.26 337.249,1462.26 341.281,1462.26 345.314,1462.26 349.347,1462.26 353.38,1462.26 357.413,1462.26 361.445,1462.26 365.478,1462.26 
  369.511,1462.26 373.544,1462.26 377.576,1462.26 381.609,1462.26 385.642,1462.26 389.675,1462.26 393.708,1462.26 397.74,1462.26 401.773,1462.26 405.806,1462.26 
  409.839,1462.26 413.872,1462.26 417.904,1448.5 421.937,1415.46 425.97,1382.42 430.003,1349.38 434.036,1316.35 438.068,1283.31 442.101,1250.27 446.134,1217.23 
  450.167,1184.2 454.199,1151.16 458.232,1118.12 462.265,1085.08 466.298,1052.05 470.331,1019.01 474.363,985.972 478.396,952.935 482.429,919.898 486.462,886.86 
  490.495,853.823 494.527,820.786 498.56,787.748 502.593,754.711 506.626,721.674 510.659,688.636 514.691,655.599 518.724,622.562 522.757,589.524 526.79,556.487 
  530.822,523.45 534.855,490.412 538.888,457.375 542.921,424.338 546.954,391.3 550.986,358.263 555.019,325.226 559.052,292.188 563.085,259.151 567.118,226.114 
  571.15,193.076 575.183,160.039 579.216,127.002 583.249,93.9644 587.282,115.989 591.314,149.027 595.347,182.064 599.38,215.101 603.413,248.139 607.445,281.176 
  611.478,314.213 615.511,347.251 619.544,380.288 623.577,413.325 627.609,446.363 631.642,479.4 635.675,512.437 639.708,545.475 643.741,578.512 647.773,611.549 
  651.806,644.587 655.839,677.624 659.872,710.661 663.905,743.699 667.937,776.736 671.97,809.773 676.003,842.811 680.036,875.848 684.068,908.885 688.101,941.923 
  692.134,974.96 696.167,1008 700.2,1041.03 704.232,1074.07 708.265,1107.11 712.298,1140.15 716.331,1173.18 720.364,1206.22 724.396,1239.26 728.429,1272.3 
  732.462,1305.33 736.495,1338.37 740.528,1371.41 744.56,1404.45 748.593,1437.48 752.626,1462.26 756.659,1462.26 760.691,1462.26 764.724,1462.26 768.757,1462.26 
  772.79,1462.26 776.823,1462.26 780.855,1462.26 784.888,1462.26 788.921,1462.26 792.954,1462.26 796.987,1462.26 801.019,1462.26 805.052,1462.26 809.085,1462.26 
  813.118,1462.26 817.15,1462.26 821.183,1462.26 825.216,1462.26 829.249,1462.26 833.282,1462.26 837.314,1462.26 841.347,1462.26 845.38,1462.26 849.413,1462.26 
  853.446,1462.26 857.478,1462.26 861.511,1462.26 865.544,1462.26 869.577,1462.26 873.61,1462.26 877.642,1462.26 881.675,1462.26 885.708,1462.26 889.741,1462.26 
  893.773,1462.26 897.806,1462.26 901.839,1462.26 905.872,1462.26 909.905,1462.26 913.937,1462.26 917.97,1462.26 922.003,1462.26 926.036,1462.26 930.069,1462.26 
  934.101,1462.26 938.134,1462.26 942.167,1462.26 946.2,1462.26 950.233,1462.26 954.265,1462.26 958.298,1462.26 962.331,1462.26 966.364,1462.26 970.396,1462.26 
  974.429,1462.26 978.462,1462.26 982.495,1462.26 986.528,1462.26 990.56,1462.26 994.593,1462.26 998.626,1462.26 1002.66,1462.26 1006.69,1462.26 1010.72,1462.26 
  1014.76,1462.26 1018.79,1462.26 1022.82,1462.26 1026.86,1462.26 1030.89,1462.26 1034.92,1462.26 1038.95,1462.26 1042.99,1462.26 1047.02,1462.26 1051.05,1462.26 
  1055.09,1462.26 1059.12,1462.26 1063.15,1462.26 1067.18,1462.26 1071.22,1462.26 1075.25,1462.26 1079.28,1462.26 1083.31,1462.26 1087.35,1459.51 1091.38,1426.47 
  1095.41,1393.43 1099.45,1360.4 1103.48,1327.36 1107.51,1294.32 1111.54,1261.28 1115.58,1228.25 1119.61,1195.21 1123.64,1162.17 1127.68,1129.13 1131.71,1096.1 
  1135.74,1063.06 1139.77,1030.02 1143.81,996.985 1147.84,963.948 1151.87,930.91 1155.9,897.873 1159.94,864.836 1163.97,831.798 1168,798.761 1172.04,765.724 
  1176.07,732.686 1180.1,699.649 1184.13,666.612 1188.17,633.574 1192.2,600.537 1196.23,567.5 1200.27,534.462 1204.3,501.425 1208.33,468.388 1212.36,435.35 
  1216.4,402.313 1220.43,369.276 1224.46,336.238 1228.49,303.201 1232.53,270.164 1236.56,237.126 1240.59,204.089 1244.63,171.052 1248.66,138.014 1252.69,104.977 
  1256.72,104.977 1260.76,138.014 1264.79,171.052 1268.82,204.089 1272.86,237.126 1276.89,270.164 1280.92,303.201 1284.95,336.238 1288.99,369.276 1293.02,402.313 
  1297.05,435.35 1301.09,468.388 1305.12,501.425 1309.15,534.462 1313.18,567.5 1317.22,600.537 1321.25,633.574 1325.28,666.612 1329.31,699.649 1333.35,732.686 
  1337.38,765.724 1341.41,798.761 1345.45,831.798 1349.48,864.836 1353.51,897.873 1357.54,930.91 1361.58,963.948 1365.61,996.985 1369.64,1030.02 1373.68,1063.06 
  1377.71,1096.1 1381.74,1129.13 1385.77,1162.17 1389.81,1195.21 1393.84,1228.25 1397.87,1261.28 1401.9,1294.32 1405.94,1327.36 1409.97,1360.4 1414,1393.43 
  1418.04,1426.47 1422.07,1459.51 1426.1,1462.26 1430.13,1462.26 1434.17,1462.26 1438.2,1462.26 1442.23,1462.26 1446.27,1462.26 1450.3,1462.26 1454.33,1462.26 
  1458.36,1462.26 1462.4,1462.26 1466.43,1462.26 1470.46,1462.26 1474.5,1462.26 1478.53,1462.26 1482.56,1462.26 1486.59,1462.26 1490.63,1462.26 1494.66,1462.26 
  1498.69,1462.26 1502.72,1462.26 1506.76,1462.26 1510.79,1462.26 1514.82,1462.26 1518.86,1462.26 1522.89,1462.26 1526.92,1462.26 1530.95,1462.26 1534.99,1462.26 
  1539.02,1462.26 1543.05,1462.26 1547.09,1462.26 1551.12,1462.26 1555.15,1462.26 1559.18,1462.26 1563.22,1462.26 1567.25,1462.26 1571.28,1462.26 1575.31,1462.26 
  1579.35,1462.26 1583.38,1462.26 1587.41,1462.26 1591.45,1462.26 1595.48,1462.26 1599.51,1462.26 1603.54,1462.26 1607.58,1462.26 1611.61,1462.26 1615.64,1462.26 
  1619.68,1462.26 1623.71,1462.26 1627.74,1462.26 1631.77,1462.26 1635.81,1462.26 1639.84,1462.26 1643.87,1462.26 1647.91,1462.26 1651.94,1462.26 1655.97,1462.26 
  1660,1462.26 1664.04,1462.26 1668.07,1462.26 1672.1,1462.26 1676.13,1462.26 1680.17,1462.26 1684.2,1462.26 1688.23,1462.26 1692.27,1462.26 1696.3,1462.26 
  1700.33,1462.26 1704.36,1462.26 1708.4,1462.26 1712.43,1462.26 1716.46,1462.26 1720.5,1462.26 1724.53,1462.26 1728.56,1462.26 1732.59,1462.26 1736.63,1462.26 
  1740.66,1462.26 1744.69,1462.26 1748.72,1462.26 1752.76,1462.26 1756.79,1462.26 1760.82,1437.48 1764.86,1404.45 1768.89,1371.41 1772.92,1338.37 1776.95,1305.33 
  1780.99,1272.3 1785.02,1239.26 1789.05,1206.22 1793.09,1173.18 1797.12,1140.15 1801.15,1107.11 1805.18,1074.07 1809.22,1041.03 1813.25,1008 1817.28,974.96 
  1821.31,941.923 1825.35,908.885 1829.38,875.848 1833.41,842.811 1837.45,809.773 1841.48,776.736 1845.51,743.699 1849.54,710.661 1853.58,677.624 1857.61,644.587 
  1861.64,611.549 1865.68,578.512 1869.71,545.475 1873.74,512.437 1877.77,479.4 1881.81,446.363 1885.84,413.325 1889.87,380.288 1893.91,347.251 1897.94,314.213 
  1901.97,281.176 1906,248.139 1910.04,215.101 1914.07,182.064 1918.1,149.027 1922.13,115.989 1926.17,93.9644 1930.2,127.002 1934.23,160.039 1938.27,193.076 
  1942.3,226.114 1946.33,259.151 1950.36,292.188 1954.4,325.226 1958.43,358.263 1962.46,391.3 1966.5,424.338 1970.53,457.375 1974.56,490.412 1978.59,523.45 
  1982.63,556.487 1986.66,589.524 1990.69,622.562 1994.72,655.599 1998.76,688.636 2002.79,721.674 2006.82,754.711 2010.86,787.748 2014.89,820.786 2018.92,853.823 
  2022.95,886.86 2026.99,919.898 2031.02,952.935 2035.05,985.972 2039.09,1019.01 2043.12,1052.05 2047.15,1085.08 2051.18,1118.12 2055.22,1151.16 2059.25,1184.2 
  2063.28,1217.23 2067.32,1250.27 2071.35,1283.31 2075.38,1316.35 2079.41,1349.38 2083.45,1382.42 2087.48,1415.46 2091.51,1448.5 2095.54,1462.26 2099.58,1462.26 
  2103.61,1462.26 2107.64,1462.26 2111.68,1462.26 2115.71,1462.26 2119.74,1462.26 2123.77,1462.26 2127.81,1462.26 2131.84,1462.26 2135.87,1462.26 2139.91,1462.26 
  2143.94,1462.26 2147.97,1462.26 2152,1462.26 2156.04,1462.26 2160.07,1462.26 2164.1,1462.26 2168.13,1462.26 2172.17,1462.26 2176.2,1462.26 2180.23,1462.26 
  2184.27,1462.26 2188.3,1462.26 2192.33,1462.26 2196.36,1462.26 2200.4,1462.26 2204.43,1462.26 2208.46,1462.26 2212.5,1462.26 2216.53,1462.26 2220.56,1462.26 
  2224.59,1462.26 2228.63,1462.26 2232.66,1462.26 2236.69,1462.26 2240.73,1462.26 2244.76,1462.26 2248.79,1462.26 2252.82,1462.26 2256.86,1462.26 2260.89,1462.26 
  
  "/>
<polyline clip-path="url(#clip9802)" style="stroke:#3da44d; stroke-width:4; stroke-opacity:1; fill:none" points="
  248.527,1462.26 252.56,1462.26 256.593,1462.26 260.626,1462.26 264.658,1462.26 268.691,1462.26 272.724,1462.26 276.757,1462.26 280.79,1462.26 284.822,1462.26 
  288.855,1462.26 292.888,1462.26 296.921,1462.26 300.953,1462.26 304.986,1462.26 309.019,1462.26 313.052,1462.26 317.085,1462.26 321.117,1462.26 325.15,1462.26 
  329.183,1462.26 333.216,1462.26 337.249,1462.26 341.281,1462.26 345.314,1462.26 349.347,1462.26 353.38,1462.26 357.413,1462.26 361.445,1462.26 365.478,1462.26 
  369.511,1462.26 373.544,1462.26 377.576,1462.26 381.609,1462.26 385.642,1462.26 389.675,1462.26 393.708,1462.26 397.74,1462.26 401.773,1462.26 405.806,1462.26 
  409.839,1462.26 413.872,1462.26 417.904,1462.19 421.937,1461.46 425.97,1459.94 430.003,1457.62 434.036,1454.51 438.068,1450.61 442.101,1445.9 446.134,1440.41 
  450.167,1434.12 454.199,1427.04 458.232,1419.16 462.265,1410.48 466.298,1401.02 470.331,1390.75 474.363,1379.7 478.396,1367.85 482.429,1355.2 486.462,1341.76 
  490.495,1327.53 494.527,1312.5 498.56,1296.67 502.593,1280.06 506.626,1262.64 510.659,1244.44 514.691,1225.44 518.724,1205.64 522.757,1185.05 526.79,1163.66 
  530.822,1141.48 534.855,1118.51 538.888,1094.74 542.921,1070.18 546.954,1044.82 550.986,1018.67 555.019,991.724 559.052,963.983 563.085,935.448 567.118,906.118 
  571.15,875.994 575.183,845.075 579.216,813.362 583.249,780.855 587.282,748.38 591.314,717.461 595.347,688.132 599.38,660.391 603.413,634.239 607.445,609.676 
  611.478,586.702 615.511,565.317 619.544,545.522 623.577,527.315 627.609,510.697 631.642,495.668 635.675,482.228 639.708,470.376 643.741,460.114 647.773,451.441 
  651.806,444.357 655.839,438.862 659.872,434.956 663.905,432.638 667.937,431.91 671.97,432.771 676.003,435.221 680.036,439.259 684.068,444.887 688.101,452.103 
  692.134,460.909 696.167,471.303 700.2,483.287 704.232,496.859 708.265,512.021 712.298,528.771 716.331,547.11 720.364,567.039 724.396,588.556 728.429,611.662 
  732.462,636.358 736.495,662.642 740.528,690.515 744.56,719.977 748.593,751.028 752.626,783.594 756.659,816.035 760.691,847.682 764.724,878.535 768.757,908.593 
  772.79,937.856 776.823,966.325 780.855,994 784.888,1020.88 788.921,1046.97 792.954,1072.26 796.987,1096.75 801.019,1120.46 805.052,1143.36 809.085,1165.48 
  813.118,1186.8 817.15,1207.32 821.183,1227.05 825.216,1245.98 829.249,1264.12 833.282,1281.47 837.314,1298.02 841.347,1313.78 845.38,1328.74 849.413,1342.91 
  853.446,1356.29 857.478,1368.86 861.511,1380.65 865.544,1391.64 869.577,1401.84 873.61,1411.24 877.642,1419.84 881.675,1427.66 885.708,1434.67 889.741,1440.9 
  893.773,1446.33 897.806,1450.96 901.839,1454.8 905.872,1457.85 909.905,1460.1 913.937,1461.55 917.97,1462.22 922.003,1462.26 926.036,1462.26 930.069,1462.26 
  934.101,1462.26 938.134,1462.26 942.167,1462.26 946.2,1462.26 950.233,1462.26 954.265,1462.26 958.298,1462.26 962.331,1462.26 966.364,1462.26 970.396,1462.26 
  974.429,1462.26 978.462,1462.26 982.495,1462.26 986.528,1462.26 990.56,1462.26 994.593,1462.26 998.626,1462.26 1002.66,1462.26 1006.69,1462.26 1010.72,1462.26 
  1014.76,1462.26 1018.79,1462.26 1022.82,1462.26 1026.86,1462.26 1030.89,1462.26 1034.92,1462.26 1038.95,1462.26 1042.99,1462.26 1047.02,1462.26 1051.05,1462.26 
  1055.09,1462.26 1059.12,1462.26 1063.15,1462.26 1067.18,1462.26 1071.22,1462.26 1075.25,1462.26 1079.28,1462.26 1083.31,1462.26 1087.35,1462.26 1091.38,1461.79 
  1095.41,1460.54 1099.45,1458.48 1103.48,1455.64 1107.51,1452 1111.54,1447.56 1115.58,1442.33 1119.61,1436.3 1123.64,1429.49 1127.68,1421.87 1131.71,1413.46 
  1135.74,1404.26 1139.77,1394.26 1143.81,1383.47 1147.84,1371.89 1151.87,1359.5 1155.9,1346.33 1159.94,1332.36 1163.97,1317.6 1168,1302.04 1172.04,1285.68 
  1176.07,1268.54 1180.1,1250.59 1184.13,1231.86 1188.17,1212.33 1192.2,1192 1196.23,1170.88 1200.27,1148.97 1204.3,1126.26 1208.33,1102.75 1212.36,1078.46 
  1216.4,1053.36 1220.43,1027.48 1224.46,1000.79 1228.49,973.319 1232.53,945.048 1236.56,915.983 1240.59,886.124 1244.63,855.47 1248.66,824.022 1252.69,791.779 
  1256.72,759.039 1260.76,727.591 1264.79,697.732 1268.82,669.461 1272.86,642.78 1276.89,617.687 1280.92,594.184 1284.95,572.269 1288.99,551.944 1293.02,533.207 
  1297.05,516.059 1301.09,500.501 1305.12,486.531 1309.15,474.15 1313.18,463.359 1317.22,454.156 1321.25,446.542 1325.28,440.517 1329.31,436.081 1333.35,433.234 
  1337.38,431.976 1341.41,432.307 1345.45,434.227 1349.48,437.736 1353.51,442.834 1357.54,449.521 1361.58,457.797 1365.61,467.662 1369.64,479.116 1373.68,492.159 
  1377.71,506.79 1381.74,523.011 1385.77,540.821 1389.81,560.219 1393.84,581.207 1397.87,603.784 1401.9,627.949 1405.94,653.704 1409.97,681.047 1414,709.98 
  1418.04,740.501 1422.07,772.612 1426.1,805.31 1430.13,837.222 1434.17,868.339 1438.2,898.662 1442.23,928.19 1446.27,956.924 1450.3,984.863 1454.33,1012.01 
  1458.36,1038.36 1462.4,1063.91 1466.43,1088.68 1470.46,1112.64 1474.5,1135.82 1478.53,1158.19 1482.56,1179.78 1486.59,1200.57 1490.63,1220.56 1494.66,1239.76 
  1498.69,1258.17 1502.72,1275.78 1506.76,1292.59 1510.79,1308.62 1514.82,1323.84 1518.86,1338.28 1522.89,1351.92 1526.92,1364.76 1530.95,1376.81 1534.99,1388.06 
  1539.02,1398.53 1543.05,1408.19 1547.09,1417.06 1551.12,1425.14 1555.15,1432.42 1559.18,1438.91 1563.22,1444.61 1567.25,1449.5 1571.28,1453.61 1575.31,1456.92 
  1579.35,1459.44 1583.38,1461.16 1587.41,1462.08 1591.45,1462.26 1595.48,1462.26 1599.51,1462.26 1603.54,1462.26 1607.58,1462.26 1611.61,1462.26 1615.64,1462.26 
  1619.68,1462.26 1623.71,1462.26 1627.74,1462.26 1631.77,1462.26 1635.81,1462.26 1639.84,1462.26 1643.87,1462.26 1647.91,1462.26 1651.94,1462.26 1655.97,1462.26 
  1660,1462.26 1664.04,1462.26 1668.07,1462.26 1672.1,1462.26 1676.13,1462.26 1680.17,1462.26 1684.2,1462.26 1688.23,1462.26 1692.27,1462.26 1696.3,1462.26 
  1700.33,1462.26 1704.36,1462.26 1708.4,1462.26 1712.43,1462.26 1716.46,1462.26 1720.5,1462.26 1724.53,1462.26 1728.56,1462.26 1732.59,1462.26 1736.63,1462.26 
  1740.66,1462.26 1744.69,1462.26 1748.72,1462.26 1752.76,1462.26 1756.79,1462.26 1760.82,1462.04 1764.86,1461.04 1768.89,1459.26 1772.92,1456.67 1776.95,1453.3 
  1780.99,1449.13 1785.02,1444.16 1789.05,1438.4 1793.09,1431.85 1797.12,1424.5 1801.15,1416.35 1805.18,1407.42 1809.22,1397.68 1813.25,1387.16 1817.28,1375.84 
  1821.31,1363.72 1825.35,1350.81 1829.38,1337.1 1833.41,1322.61 1837.45,1307.31 1841.48,1291.22 1845.51,1274.34 1849.54,1256.66 1853.58,1238.19 1857.61,1218.92 
  1861.64,1198.86 1865.68,1178.01 1869.71,1156.36 1873.74,1133.91 1877.77,1110.68 1881.81,1086.64 1885.84,1061.82 1889.87,1036.19 1893.91,1009.78 1897.94,982.566 
  1901.97,954.56 1906,925.76 1910.04,896.165 1914.07,865.776 1918.1,834.593 1922.13,802.615 1926.17,769.875 1930.2,737.897 1934.23,707.508 1938.27,678.708 
  1942.3,651.497 1946.33,625.875 1950.36,601.842 1954.4,579.397 1958.43,558.542 1962.46,539.276 1966.5,521.599 1970.53,505.51 1974.56,491.011 1978.59,478.101 
  1982.63,466.779 1986.66,457.047 1990.69,448.903 1994.72,442.349 1998.76,437.383 2002.79,434.007 2006.82,432.219 2010.86,432.021 2014.89,433.411 2018.92,436.39 
  2022.95,440.958 2026.99,447.116 2031.02,454.862 2035.05,464.197 2039.09,475.121 2043.12,487.634 2047.15,501.737 2051.18,517.428 2055.22,534.708 2059.25,553.577 
  2063.28,574.035 2067.32,596.082 2071.35,619.718 2075.38,644.942 2079.41,671.756 2083.45,700.159 2087.48,730.151 2091.51,761.732 2095.54,794.496 2099.58,826.673 
  2103.61,858.055 2107.64,888.642 2111.68,918.436 2115.71,947.434 2119.74,975.639 2123.77,1003.05 2127.81,1029.66 2131.84,1055.48 2135.87,1080.51 2139.91,1104.74 
  2143.94,1128.18 2147.97,1150.82 2152,1172.67 2156.04,1193.72 2160.07,1213.98 2164.1,1233.45 2168.13,1252.12 2172.17,1270 2176.2,1287.08 2180.23,1303.36 
  2184.27,1318.86 2188.3,1333.55 2192.33,1347.46 2196.36,1360.57 2200.4,1372.88 2204.43,1384.4 2208.46,1395.13 2212.5,1405.06 2216.53,1414.19 2220.56,1422.54 
  2224.59,1430.08 2228.63,1436.84 2232.66,1442.8 2236.69,1447.96 2240.73,1452.33 2244.76,1455.9 2248.79,1458.69 2252.82,1460.67 2256.86,1461.86 2260.89,1462.26 
  
  "/>
<polyline clip-path="url(#clip9802)" style="stroke:#c271d2; stroke-width:4; stroke-opacity:1; fill:none" points="
  248.527,1233.29 252.56,1249.42 256.593,1264.77 260.626,1279.36 264.658,1293.22 268.691,1306.35 272.724,1318.79 276.757,1330.55 280.79,1341.65 284.822,1352.11 
  288.855,1361.94 292.888,1371.17 296.921,1379.82 300.953,1387.9 304.986,1395.43 309.019,1402.44 313.052,1408.94 317.085,1414.95 321.117,1420.49 325.15,1425.58 
  329.183,1430.24 333.216,1434.49 337.249,1438.35 341.281,1441.83 345.314,1444.95 349.347,1447.74 353.38,1450.21 357.413,1452.38 361.445,1454.28 365.478,1455.92 
  369.511,1457.31 373.544,1458.49 377.576,1459.46 381.609,1460.25 385.642,1460.87 389.675,1461.35 393.708,1461.71 397.74,1461.95 401.773,1462.11 405.806,1462.21 
  409.839,1462.25 413.872,1462.26 417.904,1462.26 421.937,1462.25 425.97,1462.22 430.003,1462.13 434.036,1461.99 438.068,1461.75 442.101,1461.42 446.134,1460.96 
  450.167,1460.36 454.199,1459.6 458.232,1458.66 462.265,1457.52 466.298,1456.16 470.331,1454.57 474.363,1452.72 478.396,1450.59 482.429,1448.17 486.462,1445.44 
  490.495,1442.37 494.527,1438.95 498.56,1435.16 502.593,1430.98 506.626,1426.39 510.659,1421.37 514.691,1415.91 518.724,1409.98 522.757,1403.56 526.79,1396.64 
  530.822,1389.19 534.855,1381.2 538.888,1372.65 542.921,1363.52 546.954,1353.79 550.986,1343.44 555.019,1332.45 559.052,1320.8 563.085,1308.48 567.118,1295.46 
  571.15,1281.72 575.183,1267.25 579.216,1252.03 583.249,1236.04 587.282,1219.26 591.314,1201.73 595.347,1183.52 599.38,1164.67 603.413,1145.25 607.445,1125.31 
  611.478,1104.92 615.511,1084.11 619.544,1062.97 623.577,1041.53 627.609,1019.87 631.642,998.027 635.675,976.071 639.708,954.057 643.741,932.041 647.773,910.08 
  651.806,888.233 655.839,866.556 659.872,845.107 663.905,823.942 667.937,803.12 671.97,782.698 676.003,762.733 680.036,743.281 684.068,724.402 688.101,706.151 
  692.134,688.587 696.167,671.766 700.2,655.746 704.232,640.584 708.265,626.337 712.298,613.064 716.331,600.82 720.364,589.664 724.396,579.653 728.429,570.844 
  732.462,563.294 736.495,557.061 740.528,552.202 744.56,548.774 748.593,546.835 752.626,546.442 756.659,547.615 760.691,550.306 764.724,554.456 768.757,560.009 
  772.79,566.908 776.823,575.095 780.855,584.512 784.888,595.103 788.921,606.81 792.954,619.575 796.987,633.343 801.019,648.054 805.052,663.652 809.085,680.08 
  813.118,697.28 817.15,715.194 821.183,733.767 825.216,752.939 829.249,772.655 833.282,792.856 837.314,813.485 841.347,834.485 845.38,855.799 849.413,877.37 
  853.446,899.139 857.478,921.05 861.511,943.045 865.544,965.068 869.577,987.06 873.61,1008.96 877.642,1030.72 881.675,1052.28 885.708,1073.58 889.741,1094.56 
  893.773,1115.17 897.806,1135.34 901.839,1155.03 905.872,1174.17 909.905,1192.71 913.937,1210.59 917.97,1227.74 922.003,1244.13 926.036,1259.74 930.069,1274.58 
  934.101,1288.68 938.134,1302.05 942.167,1314.72 946.2,1326.71 950.233,1338.02 954.265,1348.69 958.298,1358.73 962.331,1368.16 966.364,1377 970.396,1385.27 
  974.429,1392.98 978.462,1400.16 982.495,1406.83 986.528,1413 990.56,1418.7 994.593,1423.94 998.626,1428.74 1002.66,1433.12 1006.69,1437.1 1010.72,1440.71 
  1014.76,1443.95 1018.79,1446.85 1022.82,1449.42 1026.86,1451.69 1030.89,1453.68 1034.92,1455.4 1038.95,1456.87 1042.99,1458.12 1047.02,1459.16 1051.05,1460 
  1055.09,1460.68 1059.12,1461.21 1063.15,1461.6 1067.18,1461.88 1071.22,1462.07 1075.25,1462.18 1079.28,1462.24 1083.31,1462.26 1087.35,1462.26 1091.38,1462.26 
  1095.41,1462.23 1099.45,1462.17 1103.48,1462.04 1107.51,1461.84 1111.54,1461.54 1115.58,1461.13 1119.61,1460.58 1123.64,1459.87 1127.68,1459 1131.71,1457.93 
  1135.74,1456.64 1139.77,1455.13 1143.81,1453.37 1147.84,1451.33 1151.87,1449.01 1155.9,1446.38 1159.94,1443.43 1163.97,1440.13 1168,1436.47 1172.04,1432.42 
  1176.07,1427.97 1180.1,1423.09 1184.13,1417.78 1188.17,1412.01 1192.2,1405.75 1196.23,1399 1200.27,1391.73 1204.3,1383.93 1208.33,1375.57 1212.36,1366.63 
  1216.4,1357.1 1220.43,1346.96 1224.46,1336.18 1228.49,1324.76 1232.53,1312.66 1236.56,1299.87 1240.59,1286.38 1244.63,1272.16 1248.66,1257.19 1252.69,1241.45 
  1256.72,1224.94 1260.76,1207.65 1264.79,1189.66 1268.82,1171.02 1272.86,1151.79 1276.89,1132.01 1280.92,1111.76 1284.95,1091.09 1288.99,1070.05 1293.02,1048.71 
  1297.05,1027.11 1301.09,1005.32 1305.12,983.399 1309.15,961.398 1313.18,939.376 1317.22,917.391 1321.25,895.499 1325.28,873.759 1329.31,852.228 1333.35,830.962 
  1337.38,810.019 1341.41,789.457 1345.45,769.333 1349.48,749.704 1353.51,730.628 1357.54,712.161 1361.58,694.362 1365.61,677.287 1369.64,660.993 1373.68,645.539 
  1377.71,630.981 1381.74,617.377 1385.77,604.784 1389.81,593.259 1393.84,582.859 1397.87,573.643 1401.9,565.667 1405.94,558.989 1409.97,553.665 1414,549.754 
  1418.04,547.313 1422.07,546.398 1426.1,547.053 1430.13,549.244 1434.17,552.914 1438.2,558.006 1442.23,564.463 1446.27,572.226 1450.3,581.24 1454.33,591.446 
  1458.36,602.787 1462.4,615.206 1466.43,628.646 1470.46,643.049 1474.5,658.358 1478.53,674.515 1482.56,691.464 1486.59,709.147 1490.63,727.506 1494.66,746.485 
  1498.69,766.026 1502.72,786.071 1506.76,806.564 1510.79,827.447 1514.82,848.663 1518.86,870.154 1522.89,891.864 1526.92,913.734 1530.95,935.708 1534.99,957.727 
  1539.02,979.736 1543.05,1001.68 1547.09,1023.49 1551.12,1045.12 1555.15,1066.51 1559.18,1087.61 1563.22,1108.34 1567.25,1128.67 1571.28,1148.53 1575.31,1167.86 
  1579.35,1186.6 1583.38,1204.7 1587.41,1222.11 1591.45,1238.76 1595.48,1254.62 1599.51,1269.71 1603.54,1284.06 1607.58,1297.67 1611.61,1310.58 1615.64,1322.79 
  1619.68,1334.32 1623.71,1345.21 1627.74,1355.45 1631.77,1365.08 1635.81,1374.12 1639.84,1382.57 1643.87,1390.47 1647.91,1397.83 1651.94,1404.66 1655.97,1411 
  1660,1416.85 1664.04,1422.24 1668.07,1427.19 1672.1,1431.7 1676.13,1435.82 1680.17,1439.55 1684.2,1442.91 1688.23,1445.92 1692.27,1448.6 1696.3,1450.97 
  1700.33,1453.05 1704.36,1454.85 1708.4,1456.41 1712.43,1457.73 1716.46,1458.83 1720.5,1459.74 1724.53,1460.47 1728.56,1461.05 1732.59,1461.48 1736.63,1461.8 
  1740.66,1462.02 1744.69,1462.15 1748.72,1462.22 1752.76,1462.25 1756.79,1462.26 1760.82,1462.26 1764.86,1462.24 1768.89,1462.19 1772.92,1462.09 1776.95,1461.92 
  1780.99,1461.66 1785.02,1461.28 1789.05,1460.78 1793.09,1460.13 1797.12,1459.31 1801.15,1458.3 1805.18,1457.09 1809.22,1455.66 1813.25,1453.98 1817.28,1452.04 
  1821.31,1449.82 1825.35,1447.3 1829.38,1444.45 1833.41,1441.27 1837.45,1437.73 1841.48,1433.81 1845.51,1429.5 1849.54,1424.77 1853.58,1419.6 1857.61,1413.98 
  1861.64,1407.89 1865.68,1401.31 1869.71,1394.21 1873.74,1386.59 1877.77,1378.42 1881.81,1369.67 1885.84,1360.34 1889.87,1350.41 1893.91,1339.85 1897.94,1328.64 
  1901.97,1316.77 1906,1304.21 1910.04,1290.96 1914.07,1276.98 1918.1,1262.26 1922.13,1246.79 1926.17,1230.53 1930.2,1213.5 1934.23,1195.74 1938.27,1177.3 
  1942.3,1158.26 1946.33,1138.66 1950.36,1118.56 1954.4,1098.02 1958.43,1077.1 1962.46,1055.85 1966.5,1034.33 1970.53,1012.6 1974.56,990.718 1978.59,968.737 
  1982.63,946.715 1986.66,924.711 1990.69,902.782 1994.72,880.985 1998.76,859.378 2002.79,838.017 2006.82,816.961 2010.86,796.266 2014.89,775.989 2018.92,756.189 
  2022.95,736.922 2026.99,718.246 2031.02,700.217 2035.05,682.894 2039.09,666.334 2043.12,650.594 2047.15,635.73 2051.18,621.802 2055.22,608.865 2059.25,596.978 
  2063.28,586.197 2067.32,576.58 2071.35,568.185 2075.38,561.067 2079.41,555.286 2083.45,550.898 2087.48,547.96 2091.51,546.53 2095.54,546.661 2099.58,548.346 
  2103.61,551.53 2107.64,556.154 2111.68,562.162 2115.71,569.497 2119.74,578.1 2123.77,587.915 2127.81,598.884 2131.84,610.95 2135.87,624.056 2139.91,638.144 
  2143.94,653.158 2147.97,669.039 2152,685.73 2156.04,703.175 2160.07,721.315 2164.1,740.094 2168.13,759.453 2172.17,779.337 2176.2,799.687 2180.23,820.447 
  2184.27,841.558 2188.3,862.964 2192.33,884.607 2196.36,906.43 2200.4,928.375 2204.43,950.386 2208.46,972.405 2212.5,994.374 2216.53,1016.24 2220.56,1037.94 
  2224.59,1059.41 2228.63,1080.61 2232.66,1101.47 2236.69,1121.94 2240.73,1141.96 2244.76,1161.47 2248.79,1180.42 2252.82,1198.74 2256.86,1216.39 2260.89,1233.29 
  
  "/>
<polyline clip-path="url(#clip9802)" style="stroke:#ac8d18; stroke-width:4; stroke-opacity:1; fill:none" points="
  248.527,832.601 252.56,849.309 256.593,866.358 260.626,883.693 264.658,901.262 268.691,919.014 272.724,936.899 276.757,954.871 280.79,972.885 284.822,990.896 
  288.855,1008.86 292.888,1026.75 296.921,1044.51 300.953,1062.11 304.986,1079.52 309.019,1096.71 313.052,1113.64 317.085,1130.28 321.117,1146.62 325.15,1162.61 
  329.183,1178.25 333.216,1193.51 337.249,1208.36 341.281,1222.8 345.314,1236.8 349.347,1250.35 353.38,1263.45 357.413,1276.07 361.445,1288.21 365.478,1299.86 
  369.511,1311.02 373.544,1321.68 377.576,1331.85 381.609,1341.53 385.642,1350.71 389.675,1359.4 393.708,1367.6 397.74,1375.34 401.773,1382.6 405.806,1389.42 
  409.839,1395.79 413.872,1401.74 417.904,1407.28 421.937,1412.43 425.97,1417.21 430.003,1421.63 434.036,1425.72 438.068,1429.49 442.101,1432.95 446.134,1436.11 
  450.167,1439 454.199,1441.61 458.232,1443.97 462.265,1446.08 466.298,1447.95 470.331,1449.59 474.363,1451.01 478.396,1452.2 482.429,1453.19 486.462,1453.97 
  490.495,1454.54 494.527,1454.92 498.56,1455.09 502.593,1455.07 506.626,1454.84 510.659,1454.42 514.691,1453.79 518.724,1452.96 522.757,1451.92 526.79,1450.67 
  530.822,1449.2 534.855,1447.51 538.888,1445.58 542.921,1443.41 546.954,1440.99 550.986,1438.3 555.019,1435.35 559.052,1432.11 563.085,1428.58 567.118,1424.73 
  571.15,1420.56 575.183,1416.05 579.216,1411.18 583.249,1405.93 587.282,1400.29 591.314,1394.24 595.347,1387.76 599.38,1380.83 603.413,1373.45 607.445,1365.6 
  611.478,1357.27 615.511,1348.46 619.544,1339.15 623.577,1329.36 627.609,1319.06 631.642,1308.27 635.675,1296.99 639.708,1285.22 643.741,1272.96 647.773,1260.22 
  651.806,1247.01 655.839,1233.34 659.872,1219.23 663.905,1204.69 667.937,1189.73 671.97,1174.38 676.003,1158.65 680.036,1142.56 684.068,1126.15 688.101,1109.43 
  692.134,1092.43 696.167,1075.19 700.2,1057.73 704.232,1040.08 708.265,1022.29 712.298,1004.38 716.331,986.396 720.364,968.38 724.396,950.373 728.429,932.418 
  732.462,914.561 736.495,896.851 740.528,879.335 744.56,862.067 748.593,845.098 752.626,828.484 756.659,812.282 760.691,796.546 764.724,781.329 768.757,766.68 
  772.79,752.648 776.823,739.275 780.855,726.604 784.888,714.673 788.921,703.518 792.954,693.172 796.987,683.666 801.019,675.027 805.052,667.281 809.085,660.449 
  813.118,654.551 817.15,649.604 821.183,645.621 825.216,642.613 829.249,640.59 833.282,639.556 837.314,639.515 841.347,640.466 845.38,642.407 849.413,645.333 
  853.446,649.235 857.478,654.102 861.511,659.922 865.544,666.676 869.577,674.347 873.61,682.913 877.642,692.347 881.675,702.624 885.708,713.713 889.741,725.581 
  893.773,738.192 897.806,751.508 901.839,765.487 905.872,780.085 909.905,795.257 913.937,810.952 917.97,827.117 922.003,843.699 926.036,860.64 930.069,877.886 
  934.101,895.383 938.134,913.079 942.167,930.926 946.2,948.874 950.233,966.879 954.265,984.895 958.298,1002.88 962.331,1020.8 966.364,1038.6 970.396,1056.26 
  974.429,1073.74 978.462,1091 982.495,1108.02 986.528,1124.77 990.56,1141.21 994.593,1157.32 998.626,1173.08 1002.66,1188.47 1006.69,1203.46 1010.72,1218.04 
  1014.76,1232.18 1018.79,1245.89 1022.82,1259.13 1026.86,1271.91 1030.89,1284.21 1034.92,1296.03 1038.95,1307.35 1042.99,1318.18 1047.02,1328.52 1051.05,1338.36 
  1055.09,1347.7 1059.12,1356.55 1063.15,1364.92 1067.18,1372.81 1071.22,1380.23 1075.25,1387.2 1079.28,1393.71 1083.31,1399.8 1087.35,1405.48 1091.38,1410.75 
  1095.41,1415.66 1099.45,1420.2 1103.48,1424.4 1107.51,1428.27 1111.54,1431.83 1115.58,1435.09 1119.61,1438.07 1123.64,1440.77 1127.68,1443.21 1131.71,1445.41 
  1135.74,1447.35 1139.77,1449.07 1143.81,1450.56 1147.84,1451.83 1151.87,1452.89 1155.9,1453.73 1159.94,1454.37 1163.97,1454.82 1168,1455.06 1172.04,1455.1 
  1176.07,1454.94 1180.1,1454.58 1184.13,1454.02 1188.17,1453.26 1192.2,1452.29 1196.23,1451.11 1200.27,1449.72 1204.3,1448.1 1208.33,1446.25 1212.36,1444.16 
  1216.4,1441.82 1220.43,1439.23 1224.46,1436.37 1228.49,1433.22 1232.53,1429.79 1236.56,1426.05 1240.59,1421.99 1244.63,1417.59 1248.66,1412.84 1252.69,1407.72 
  1256.72,1402.22 1260.76,1396.3 1264.79,1389.97 1268.82,1383.19 1272.86,1375.96 1276.89,1368.27 1280.92,1360.1 1284.95,1351.45 1288.99,1342.31 1293.02,1332.68 
  1297.05,1322.55 1301.09,1311.93 1305.12,1300.81 1309.15,1289.2 1313.18,1277.1 1317.22,1264.52 1321.25,1251.46 1325.28,1237.95 1329.31,1223.98 1333.35,1209.58 
  1337.38,1194.76 1341.41,1179.54 1345.45,1163.93 1349.48,1147.96 1353.51,1131.66 1357.54,1115.04 1361.58,1098.13 1365.61,1080.96 1369.64,1063.57 1373.68,1045.98 
  1377.71,1028.23 1381.74,1010.36 1385.77,992.395 1389.81,974.386 1393.84,956.372 1397.87,938.394 1401.9,920.5 1405.94,902.735 1409.97,885.149 1414,867.792 
  1418.04,850.717 1422.07,833.979 1426.1,817.633 1430.13,801.736 1434.17,786.34 1438.2,771.497 1442.23,757.254 1446.27,743.657 1450.3,730.747 1454.33,718.565 
  1458.36,707.148 1462.4,696.529 1466.43,686.74 1470.46,677.809 1474.5,669.762 1478.53,662.623 1482.56,656.412 1486.59,651.146 1490.63,646.84 1494.66,643.507 
  1498.69,641.154 1502.72,639.79 1506.76,639.418 1510.79,640.038 1514.82,641.65 1518.86,644.248 1522.89,647.826 1526.92,652.373 1530.95,657.877 1534.99,664.322 
  1539.02,671.69 1543.05,679.96 1547.09,689.107 1551.12,699.107 1555.15,709.929 1559.18,721.541 1563.22,733.908 1567.25,746.993 1571.28,760.756 1575.31,775.153 
  1579.35,790.139 1583.38,805.665 1587.41,821.68 1591.45,838.129 1595.48,854.957 1599.51,872.107 1603.54,889.526 1607.58,907.161 1611.61,924.963 1615.64,942.883 
  1619.68,960.874 1623.71,978.891 1627.74,996.892 1631.77,1014.84 1635.81,1032.68 1639.84,1050.39 1643.87,1067.94 1647.91,1085.28 1651.94,1102.38 1655.97,1119.22 
  1660,1135.76 1664.04,1151.99 1668.07,1167.87 1672.1,1183.38 1676.13,1198.51 1680.17,1213.22 1684.2,1227.52 1688.23,1241.37 1692.27,1254.77 1696.3,1267.71 
  1700.33,1280.17 1704.36,1292.14 1708.4,1303.63 1712.43,1314.63 1716.46,1325.13 1720.5,1335.13 1724.53,1344.64 1728.56,1353.66 1732.59,1362.19 1736.63,1370.23 
  1740.66,1377.81 1744.69,1384.92 1748.72,1391.59 1752.76,1397.82 1756.79,1403.63 1760.82,1409.04 1764.86,1414.06 1768.89,1418.72 1772.92,1423.03 1776.95,1427.01 
  1780.99,1430.68 1785.02,1434.04 1789.05,1437.11 1793.09,1439.9 1797.12,1442.43 1801.15,1444.7 1805.18,1446.73 1809.22,1448.52 1813.25,1450.09 1817.28,1451.43 
  1821.31,1452.56 1825.35,1453.47 1829.38,1454.18 1833.41,1454.69 1837.45,1455 1841.48,1455.11 1845.51,1455.01 1849.54,1454.72 1853.58,1454.23 1857.61,1453.54 
  1861.64,1452.64 1865.68,1451.53 1869.71,1450.21 1873.74,1448.66 1877.77,1446.89 1881.81,1444.88 1885.84,1442.63 1889.87,1440.12 1893.91,1437.35 1897.94,1434.3 
  1901.97,1430.97 1906,1427.33 1910.04,1423.38 1914.07,1419.1 1918.1,1414.47 1922.13,1409.47 1926.17,1404.1 1930.2,1398.32 1934.23,1392.13 1938.27,1385.5 
  1942.3,1378.42 1946.33,1370.88 1950.36,1362.87 1954.4,1354.39 1958.43,1345.41 1962.46,1335.94 1966.5,1325.98 1970.53,1315.52 1974.56,1304.57 1978.59,1293.12 
  1982.63,1281.18 1986.66,1268.76 1990.69,1255.87 1994.72,1242.5 1998.76,1228.69 2002.79,1214.43 2006.82,1199.75 2010.86,1184.66 2014.89,1169.17 2018.92,1153.32 
  2022.95,1137.13 2026.99,1120.61 2031.02,1103.79 2035.05,1086.71 2039.09,1069.39 2043.12,1051.86 2047.15,1034.16 2051.18,1016.33 2055.22,998.39 2059.25,980.392 
  2063.28,962.375 2067.32,944.38 2071.35,926.453 2075.38,908.639 2079.41,890.988 2083.45,873.549 2087.48,856.374 2091.51,839.518 2095.54,823.035 2099.58,806.982 
  2103.61,791.413 2107.64,776.38 2111.68,761.932 2115.71,748.115 2119.74,734.972 2123.77,722.543 2127.81,710.867 2131.84,699.978 2135.87,689.909 2139.91,680.689 
  2143.94,672.345 2147.97,664.901 2152,658.378 2156.04,652.796 2160.07,648.168 2164.1,644.509 2168.13,641.829 2172.17,640.135 2176.2,639.432 2180.23,639.721 
  2184.27,641.003 2188.3,643.273 2192.33,646.525 2196.36,650.751 2200.4,655.937 2204.43,662.07 2208.46,669.133 2212.5,677.104 2216.53,685.962 2220.56,695.681 
  2224.59,706.232 2228.63,717.584 2232.66,729.704 2236.69,742.554 2240.73,756.096 2244.76,770.286 2248.79,785.081 2252.82,800.433 2256.86,816.291 2260.89,832.601 
  
  "/>
<polyline clip-path="url(#clip9802)" style="stroke:#00a9ad; stroke-width:4; stroke-opacity:1; fill:none" points="
  248.527,706.669 252.56,707.066 256.593,708.256 260.626,710.235 264.658,712.997 268.691,716.531 272.724,720.828 276.757,725.874 280.79,731.652 284.822,738.147 
  288.855,745.337 292.888,753.202 296.921,761.719 300.953,770.864 304.986,780.611 309.019,790.933 313.052,801.801 317.085,813.186 321.117,825.058 325.15,837.384 
  329.183,850.134 333.216,863.275 337.249,876.772 341.281,890.593 345.314,904.703 349.347,919.069 353.38,933.655 357.413,948.427 361.445,963.352 365.478,978.394 
  369.511,993.521 373.544,1008.7 377.576,1023.9 381.609,1039.08 385.642,1054.22 389.675,1069.28 393.708,1084.24 397.74,1099.07 401.773,1113.74 405.806,1128.22 
  409.839,1142.49 413.872,1156.53 417.904,1170.32 421.937,1183.83 425.97,1197.05 430.003,1209.97 434.036,1222.57 438.068,1234.84 442.101,1246.76 446.134,1258.33 
  450.167,1269.55 454.199,1280.39 458.232,1290.86 462.265,1300.96 466.298,1310.67 470.331,1320.01 474.363,1328.96 478.396,1337.53 482.429,1345.72 486.462,1353.52 
  490.495,1360.96 494.527,1368.01 498.56,1374.7 502.593,1381.02 506.626,1386.98 510.659,1392.59 514.691,1397.84 518.724,1402.75 522.757,1407.32 526.79,1411.56 
  530.822,1415.48 534.855,1419.07 538.888,1422.35 542.921,1425.33 546.954,1428 550.986,1430.38 555.019,1432.47 559.052,1434.28 563.085,1435.8 567.118,1437.05 
  571.15,1438.03 575.183,1438.74 579.216,1439.18 583.249,1439.36 587.282,1439.27 591.314,1438.92 595.347,1438.3 599.38,1437.41 603.413,1436.25 607.445,1434.82 
  611.478,1433.11 615.511,1431.11 619.544,1428.83 623.577,1426.25 627.609,1423.38 631.642,1420.2 635.675,1416.71 639.708,1412.9 643.741,1408.77 647.773,1404.31 
  651.806,1399.52 655.839,1394.38 659.872,1388.89 663.905,1383.05 667.937,1376.85 671.97,1370.28 676.003,1363.35 680.036,1356.04 684.068,1348.36 688.101,1340.3 
  692.134,1331.86 696.167,1323.03 700.2,1313.83 704.232,1304.24 708.265,1294.27 712.298,1283.92 716.331,1273.2 720.364,1262.11 724.396,1250.66 728.429,1238.85 
  732.462,1226.7 736.495,1214.21 740.528,1201.4 744.56,1188.27 748.593,1174.85 752.626,1161.15 756.659,1147.2 760.691,1133 764.724,1118.58 768.757,1103.98 
  772.79,1089.2 776.823,1074.28 780.855,1059.25 784.888,1044.13 788.921,1028.96 792.954,1013.76 796.987,998.577 801.019,983.429 805.052,968.354 809.085,953.387 
  813.118,938.56 817.15,923.908 821.183,909.465 825.216,895.266 829.249,881.345 833.282,867.736 837.314,854.473 841.347,841.589 845.38,829.118 849.413,817.091 
  853.446,805.54 857.478,794.496 861.511,783.989 865.544,774.048 869.577,764.699 873.61,755.97 877.642,747.885 881.675,740.467 885.708,733.739 889.741,727.719 
  893.773,722.428 897.806,717.88 901.839,714.09 905.872,711.069 909.905,708.829 913.937,707.375 917.97,706.713 922.003,706.846 926.036,707.772 930.069,709.488 
  934.101,711.99 938.134,715.268 942.167,719.312 946.2,724.11 950.233,729.646 954.265,735.904 958.298,742.864 962.331,750.507 966.364,758.809 970.396,767.748 
  974.429,777.297 978.462,787.43 982.495,798.119 986.528,809.336 990.56,821.048 994.593,833.227 998.626,845.839 1002.66,858.853 1006.69,872.235 1010.72,885.952 
  1014.76,899.97 1018.79,914.254 1022.82,928.77 1026.86,943.484 1030.89,958.362 1034.92,973.369 1038.95,988.472 1042.99,1003.64 1047.02,1018.83 1051.05,1034.02 
  1055.09,1049.18 1059.12,1064.27 1063.15,1079.27 1067.18,1094.14 1071.22,1108.87 1075.25,1123.41 1079.28,1137.76 1083.31,1151.88 1087.35,1165.75 1091.38,1179.36 
  1095.41,1192.68 1099.45,1205.7 1103.48,1218.41 1107.51,1230.79 1111.54,1242.83 1115.58,1254.52 1119.61,1265.85 1123.64,1276.82 1127.68,1287.41 1131.71,1297.63 
  1135.74,1307.48 1139.77,1316.94 1143.81,1326.02 1147.84,1334.71 1151.87,1343.03 1155.9,1350.96 1159.94,1358.52 1163.97,1365.7 1168,1372.51 1172.04,1378.95 
  1176.07,1385.04 1180.1,1390.76 1184.13,1396.13 1188.17,1401.15 1192.2,1405.84 1196.23,1410.19 1200.27,1414.21 1204.3,1417.91 1208.33,1421.29 1212.36,1424.37 
  1216.4,1427.14 1220.43,1429.62 1224.46,1431.81 1228.49,1433.71 1232.53,1435.33 1236.56,1436.67 1240.59,1437.74 1244.63,1438.53 1248.66,1439.07 1252.69,1439.33 
  1256.72,1439.33 1260.76,1439.07 1264.79,1438.53 1268.82,1437.74 1272.86,1436.67 1276.89,1435.33 1280.92,1433.71 1284.95,1431.81 1288.99,1429.62 1293.02,1427.14 
  1297.05,1424.37 1301.09,1421.29 1305.12,1417.91 1309.15,1414.21 1313.18,1410.19 1317.22,1405.84 1321.25,1401.15 1325.28,1396.13 1329.31,1390.76 1333.35,1385.04 
  1337.38,1378.95 1341.41,1372.51 1345.45,1365.7 1349.48,1358.52 1353.51,1350.96 1357.54,1343.03 1361.58,1334.71 1365.61,1326.02 1369.64,1316.94 1373.68,1307.48 
  1377.71,1297.63 1381.74,1287.41 1385.77,1276.82 1389.81,1265.85 1393.84,1254.52 1397.87,1242.83 1401.9,1230.79 1405.94,1218.41 1409.97,1205.7 1414,1192.68 
  1418.04,1179.36 1422.07,1165.75 1426.1,1151.88 1430.13,1137.76 1434.17,1123.41 1438.2,1108.87 1442.23,1094.14 1446.27,1079.27 1450.3,1064.27 1454.33,1049.18 
  1458.36,1034.02 1462.4,1018.83 1466.43,1003.64 1470.46,988.472 1474.5,973.369 1478.53,958.362 1482.56,943.484 1486.59,928.77 1490.63,914.254 1494.66,899.97 
  1498.69,885.952 1502.72,872.235 1506.76,858.853 1510.79,845.839 1514.82,833.227 1518.86,821.048 1522.89,809.336 1526.92,798.119 1530.95,787.43 1534.99,777.297 
  1539.02,767.748 1543.05,758.809 1547.09,750.507 1551.12,742.864 1555.15,735.904 1559.18,729.646 1563.22,724.11 1567.25,719.312 1571.28,715.268 1575.31,711.99 
  1579.35,709.488 1583.38,707.772 1587.41,706.846 1591.45,706.713 1595.48,707.375 1599.51,708.829 1603.54,711.069 1607.58,714.09 1611.61,717.88 1615.64,722.428 
  1619.68,727.719 1623.71,733.739 1627.74,740.467 1631.77,747.885 1635.81,755.97 1639.84,764.699 1643.87,774.048 1647.91,783.989 1651.94,794.496 1655.97,805.54 
  1660,817.091 1664.04,829.118 1668.07,841.589 1672.1,854.473 1676.13,867.736 1680.17,881.345 1684.2,895.266 1688.23,909.465 1692.27,923.908 1696.3,938.56 
  1700.33,953.387 1704.36,968.354 1708.4,983.429 1712.43,998.577 1716.46,1013.76 1720.5,1028.96 1724.53,1044.13 1728.56,1059.25 1732.59,1074.28 1736.63,1089.2 
  1740.66,1103.98 1744.69,1118.58 1748.72,1133 1752.76,1147.2 1756.79,1161.15 1760.82,1174.85 1764.86,1188.27 1768.89,1201.4 1772.92,1214.21 1776.95,1226.7 
  1780.99,1238.85 1785.02,1250.66 1789.05,1262.11 1793.09,1273.2 1797.12,1283.92 1801.15,1294.27 1805.18,1304.24 1809.22,1313.83 1813.25,1323.03 1817.28,1331.86 
  1821.31,1340.3 1825.35,1348.36 1829.38,1356.04 1833.41,1363.35 1837.45,1370.28 1841.48,1376.85 1845.51,1383.05 1849.54,1388.89 1853.58,1394.38 1857.61,1399.52 
  1861.64,1404.31 1865.68,1408.77 1869.71,1412.9 1873.74,1416.71 1877.77,1420.2 1881.81,1423.38 1885.84,1426.25 1889.87,1428.83 1893.91,1431.11 1897.94,1433.11 
  1901.97,1434.82 1906,1436.25 1910.04,1437.41 1914.07,1438.3 1918.1,1438.92 1922.13,1439.27 1926.17,1439.36 1930.2,1439.18 1934.23,1438.74 1938.27,1438.03 
  1942.3,1437.05 1946.33,1435.8 1950.36,1434.28 1954.4,1432.47 1958.43,1430.38 1962.46,1428 1966.5,1425.33 1970.53,1422.35 1974.56,1419.07 1978.59,1415.48 
  1982.63,1411.56 1986.66,1407.32 1990.69,1402.75 1994.72,1397.84 1998.76,1392.59 2002.79,1386.98 2006.82,1381.02 2010.86,1374.7 2014.89,1368.01 2018.92,1360.96 
  2022.95,1353.52 2026.99,1345.72 2031.02,1337.53 2035.05,1328.96 2039.09,1320.01 2043.12,1310.67 2047.15,1300.96 2051.18,1290.86 2055.22,1280.39 2059.25,1269.55 
  2063.28,1258.33 2067.32,1246.76 2071.35,1234.84 2075.38,1222.57 2079.41,1209.97 2083.45,1197.05 2087.48,1183.83 2091.51,1170.32 2095.54,1156.53 2099.58,1142.49 
  2103.61,1128.22 2107.64,1113.74 2111.68,1099.07 2115.71,1084.24 2119.74,1069.28 2123.77,1054.22 2127.81,1039.08 2131.84,1023.9 2135.87,1008.7 2139.91,993.521 
  2143.94,978.394 2147.97,963.352 2152,948.427 2156.04,933.655 2160.07,919.069 2164.1,904.703 2168.13,890.593 2172.17,876.772 2176.2,863.275 2180.23,850.134 
  2184.27,837.384 2188.3,825.058 2192.33,813.186 2196.36,801.801 2200.4,790.933 2204.43,780.611 2208.46,770.864 2212.5,761.719 2216.53,753.202 2220.56,745.337 
  2224.59,738.147 2228.63,731.652 2232.66,725.874 2236.69,720.828 2240.73,716.531 2244.76,712.997 2248.79,710.235 2252.82,708.256 2256.86,707.066 2260.89,706.669 
  
  "/>
<polyline clip-path="url(#clip9802)" style="stroke:#ed5d92; stroke-width:4; stroke-opacity:1; fill:none" points="
  248.527,886.027 252.56,875.184 256.593,864.698 260.626,854.592 264.658,844.891 268.691,835.619 272.724,826.796 276.757,818.446 280.79,810.588 284.822,803.241 
  288.855,796.424 292.888,790.153 296.921,784.445 300.953,779.312 304.986,774.769 309.019,770.827 313.052,767.495 317.085,764.781 321.117,762.693 325.15,761.236 
  329.183,760.414 333.216,760.228 337.249,760.679 341.281,761.766 345.314,763.487 349.347,765.836 353.38,768.808 357.413,772.396 361.445,776.59 365.478,781.38 
  369.511,786.754 373.544,792.698 377.576,799.199 381.609,806.239 385.642,813.801 389.675,821.866 393.708,830.416 397.74,839.429 401.773,848.883 405.806,858.755 
  409.839,869.022 413.872,879.66 417.904,890.644 421.937,901.948 425.97,913.546 430.003,925.413 434.036,937.522 438.068,949.847 442.101,962.36 446.134,975.037 
  450.167,987.849 454.199,1000.77 458.232,1013.78 462.265,1026.85 466.298,1039.95 470.331,1053.06 474.363,1066.16 478.396,1079.23 482.429,1092.23 486.462,1105.15 
  490.495,1117.98 494.527,1130.68 498.56,1143.24 502.593,1155.64 506.626,1167.87 510.659,1179.9 514.691,1191.72 518.724,1203.33 522.757,1214.69 526.79,1225.81 
  530.822,1236.66 534.855,1247.25 538.888,1257.55 542.921,1267.57 546.954,1277.28 550.986,1286.7 555.019,1295.8 559.052,1304.59 563.085,1313.05 567.118,1321.19 
  571.15,1329.01 575.183,1336.5 579.216,1343.66 583.249,1350.49 587.282,1356.98 591.314,1363.15 595.347,1368.99 599.38,1374.49 603.413,1379.67 607.445,1384.52 
  611.478,1389.05 615.511,1393.25 619.544,1397.13 623.577,1400.69 627.609,1403.94 631.642,1406.86 635.675,1409.48 639.708,1411.78 643.741,1413.76 647.773,1415.44 
  651.806,1416.81 655.839,1417.87 659.872,1418.62 663.905,1419.07 667.937,1419.21 671.97,1419.04 676.003,1418.57 680.036,1417.79 684.068,1416.71 688.101,1415.31 
  692.134,1413.61 696.167,1411.6 700.2,1409.27 704.232,1406.63 708.265,1403.68 712.298,1400.41 716.331,1396.82 720.364,1392.91 724.396,1388.68 728.429,1384.13 
  732.462,1379.25 736.495,1374.05 740.528,1368.51 744.56,1362.65 748.593,1356.46 752.626,1349.93 756.659,1343.08 760.691,1335.89 764.724,1328.37 768.757,1320.53 
  772.79,1312.36 776.823,1303.87 780.855,1295.05 784.888,1285.92 788.921,1276.49 792.954,1266.74 796.987,1256.71 801.019,1246.38 805.052,1235.77 809.085,1224.89 
  813.118,1213.75 817.15,1202.37 821.183,1190.75 825.216,1178.9 829.249,1166.85 833.282,1154.61 837.314,1142.2 841.347,1129.62 845.38,1116.91 849.413,1104.08 
  853.446,1091.15 857.478,1078.14 861.511,1065.07 865.544,1051.97 869.577,1038.86 873.61,1025.76 877.642,1012.69 881.675,999.692 885.708,986.777 889.741,973.975 
  893.773,961.311 897.806,948.812 901.839,936.505 905.872,924.415 909.905,912.569 913.937,900.994 917.97,889.716 922.003,878.76 926.036,868.152 930.069,857.917 
  934.101,848.078 938.134,838.66 942.167,829.686 946.2,821.176 950.233,813.151 954.265,805.632 958.298,798.636 962.331,792.182 966.364,786.284 970.396,780.958 
  974.429,776.218 978.462,772.074 982.495,768.537 986.528,765.616 990.56,763.319 994.593,761.652 998.626,760.617 1002.66,760.219 1006.69,760.458 1010.72,761.334 
  1014.76,762.843 1018.79,764.983 1022.82,767.749 1026.86,771.132 1030.89,775.125 1034.92,779.718 1038.95,784.899 1042.99,790.654 1047.02,796.971 1051.05,803.833 
  1055.09,811.223 1059.12,819.123 1063.15,827.514 1067.18,836.374 1071.22,845.684 1075.25,855.419 1079.28,865.557 1083.31,876.074 1087.35,886.946 1091.38,898.146 
  1095.41,909.649 1099.45,921.43 1103.48,933.461 1107.51,945.716 1111.54,958.17 1115.58,970.795 1119.61,983.565 1123.64,996.454 1127.68,1009.44 1131.71,1022.49 
  1135.74,1035.58 1139.77,1048.69 1143.81,1061.8 1147.84,1074.88 1151.87,1087.9 1155.9,1100.86 1159.94,1113.71 1163.97,1126.46 1168,1139.07 1172.04,1151.52 
  1176.07,1163.81 1180.1,1175.91 1184.13,1187.81 1188.17,1199.48 1192.2,1210.93 1196.23,1222.13 1200.27,1233.07 1204.3,1243.75 1208.33,1254.15 1212.36,1264.26 
  1216.4,1274.08 1220.43,1283.59 1224.46,1292.8 1228.49,1301.69 1232.53,1310.27 1236.56,1318.52 1240.59,1326.44 1244.63,1334.04 1248.66,1341.31 1252.69,1348.25 
  1256.72,1354.86 1260.76,1361.13 1264.79,1367.08 1268.82,1372.69 1272.86,1377.98 1276.89,1382.94 1280.92,1387.58 1284.95,1391.89 1288.99,1395.88 1293.02,1399.54 
  1297.05,1402.89 1301.09,1405.92 1305.12,1408.64 1309.15,1411.04 1313.18,1413.13 1317.22,1414.92 1321.25,1416.39 1325.28,1417.55 1329.31,1418.41 1333.35,1418.95 
  1337.38,1419.2 1341.41,1419.13 1345.45,1418.76 1349.48,1418.09 1353.51,1417.1 1357.54,1415.81 1361.58,1414.21 1365.61,1412.3 1369.64,1410.08 1373.68,1407.55 
  1377.71,1404.7 1381.74,1401.53 1385.77,1398.05 1389.81,1394.25 1393.84,1390.13 1397.87,1385.69 1401.9,1380.92 1405.94,1375.82 1409.97,1370.39 1414,1364.64 
  1418.04,1358.56 1422.07,1352.14 1426.1,1345.4 1430.13,1338.32 1434.17,1330.91 1438.2,1323.18 1442.23,1315.12 1446.27,1306.73 1450.3,1298.03 1454.33,1289 
  1458.36,1279.67 1462.4,1270.02 1466.43,1260.08 1470.46,1249.85 1474.5,1239.34 1478.53,1228.55 1482.56,1217.49 1486.59,1206.19 1490.63,1194.64 1494.66,1182.87 
  1498.69,1170.89 1502.72,1158.71 1506.76,1146.35 1510.79,1133.83 1514.82,1121.16 1518.86,1108.37 1522.89,1095.47 1526.92,1082.48 1530.95,1069.43 1534.99,1056.34 
  1539.02,1043.23 1543.05,1030.12 1547.09,1017.04 1551.12,1004.02 1555.15,991.071 1559.18,978.228 1563.22,965.515 1567.25,952.959 1571.28,940.584 1575.31,928.419 
  1579.35,916.489 1583.38,904.821 1587.41,893.441 1591.45,882.375 1595.48,871.648 1599.51,861.286 1603.54,851.312 1607.58,841.752 1611.61,832.627 1615.64,823.959 
  1619.68,815.771 1623.71,808.081 1627.74,800.909 1631.77,794.272 1635.81,788.187 1639.84,782.669 1643.87,777.732 1647.91,773.388 1651.94,769.648 1655.97,766.521 
  1660,764.015 1664.04,762.137 1668.07,760.892 1672.1,760.281 1676.13,760.308 1680.17,760.971 1684.2,762.27 1688.23,764.2 1692.27,766.758 1696.3,769.936 
  1700.33,773.727 1704.36,778.121 1708.4,783.107 1712.43,788.673 1716.46,794.804 1720.5,801.486 1724.53,808.702 1728.56,816.434 1732.59,824.664 1736.63,833.37 
  1740.66,842.532 1744.69,852.128 1748.72,862.135 1752.76,872.528 1756.79,883.284 1760.82,894.377 1764.86,905.783 1768.89,917.474 1772.92,929.424 1776.95,941.608 
  1780.99,953.998 1785.02,966.569 1789.05,979.294 1793.09,992.146 1797.12,1005.1 1801.15,1018.13 1805.18,1031.21 1809.22,1044.32 1813.25,1057.43 1817.28,1070.52 
  1821.31,1083.57 1825.35,1096.55 1829.38,1109.44 1833.41,1122.22 1837.45,1134.88 1841.48,1147.39 1845.51,1159.74 1849.54,1171.9 1853.58,1183.86 1857.61,1195.62 
  1861.64,1207.14 1865.68,1218.42 1869.71,1229.46 1873.74,1240.22 1877.77,1250.72 1881.81,1260.92 1885.84,1270.84 1889.87,1280.46 1893.91,1289.77 1897.94,1298.76 
  1901.97,1307.44 1906,1315.8 1910.04,1323.84 1914.07,1331.54 1918.1,1338.92 1922.13,1345.97 1926.17,1352.69 1930.2,1359.08 1934.23,1365.13 1938.27,1370.86 
  1942.3,1376.26 1946.33,1381.33 1950.36,1386.07 1954.4,1390.49 1958.43,1394.58 1962.46,1398.36 1966.5,1401.81 1970.53,1404.95 1974.56,1407.77 1978.59,1410.28 
  1982.63,1412.47 1986.66,1414.36 1990.69,1415.93 1994.72,1417.2 1998.76,1418.15 2002.79,1418.81 2006.82,1419.15 2010.86,1419.19 2014.89,1418.92 2018.92,1418.35 
  2022.95,1417.46 2026.99,1416.28 2031.02,1414.78 2035.05,1412.97 2039.09,1410.86 2043.12,1408.43 2047.15,1405.68 2051.18,1402.62 2055.22,1399.25 2059.25,1395.56 
  2063.28,1391.54 2067.32,1387.2 2071.35,1382.54 2075.38,1377.55 2079.41,1372.24 2083.45,1366.6 2087.48,1360.62 2091.51,1354.32 2095.54,1347.68 2099.58,1340.72 
  2103.61,1333.42 2107.64,1325.79 2111.68,1317.84 2115.71,1309.56 2119.74,1300.96 2123.77,1292.04 2127.81,1282.81 2131.84,1273.27 2135.87,1263.43 2139.91,1253.29 
  2143.94,1242.87 2147.97,1232.17 2152,1221.21 2156.04,1209.98 2160.07,1198.52 2164.1,1186.82 2168.13,1174.91 2172.17,1162.79 2176.2,1150.49 2180.23,1138.02 
  2184.27,1125.4 2188.3,1112.65 2192.33,1099.78 2196.36,1086.82 2200.4,1073.79 2204.43,1060.71 2208.46,1047.6 2212.5,1034.49 2216.53,1021.4 2220.56,1008.35 
  2224.59,995.376 2228.63,982.496 2232.66,969.737 2236.69,957.125 2240.73,944.687 2244.76,932.449 2248.79,920.438 2252.82,908.68 2256.86,897.201 2260.89,886.027 
  
  "/>
</svg>
