<?xml version="1.0" encoding="utf-8"?>
<svg xmlns="http://www.w3.org/2000/svg" xmlns:xlink="http://www.w3.org/1999/xlink" width="600" height="400" viewBox="0 0 2400 1600">
<defs>
  <clipPath id="clip2300">
    <rect x="0" y="0" width="2000" height="2000"/>
  </clipPath>
</defs>
<defs>
  <clipPath id="clip2301">
    <rect x="0" y="0" width="2400" height="1600"/>
  </clipPath>
</defs>
<polygon clip-path="url(#clip2301)" points="
0,1600 2400,1600 2400,0 0,0 
  " fill="#ffffff" fill-rule="evenodd" fill-opacity="1"/>
<defs>
  <clipPath id="clip2302">
    <rect x="480" y="0" width="1681" height="1600"/>
  </clipPath>
</defs>
<polygon clip-path="url(#clip2301)" points="
188.156,1503.47 2321.26,1503.47 2321.26,47.2441 188.156,47.2441 
  " fill="#ffffff" fill-rule="evenodd" fill-opacity="1"/>
<defs>
  <clipPath id="clip2303">
    <rect x="188" y="47" width="2134" height="1457"/>
  </clipPath>
</defs>
<polyline clip-path="url(#clip2303)" style="stroke:#000000; stroke-width:2; stroke-opacity:0.1; fill:none" points="
  248.527,1503.47 248.527,47.2441 
  "/>
<polyline clip-path="url(#clip2303)" style="stroke:#000000; stroke-width:2; stroke-opacity:0.1; fill:none" points="
  751.618,1503.47 751.618,47.2441 
  "/>
<polyline clip-path="url(#clip2303)" style="stroke:#000000; stroke-width:2; stroke-opacity:0.1; fill:none" points="
  1254.71,1503.47 1254.71,47.2441 
  "/>
<polyline clip-path="url(#clip2303)" style="stroke:#000000; stroke-width:2; stroke-opacity:0.1; fill:none" points="
  1757.8,1503.47 1757.8,47.2441 
  "/>
<polyline clip-path="url(#clip2303)" style="stroke:#000000; stroke-width:2; stroke-opacity:0.1; fill:none" points="
  2260.89,1503.47 2260.89,47.2441 
  "/>
<polyline clip-path="url(#clip2303)" style="stroke:#000000; stroke-width:2; stroke-opacity:0.1; fill:none" points="
  188.156,1462.26 2321.26,1462.26 
  "/>
<polyline clip-path="url(#clip2303)" style="stroke:#000000; stroke-width:2; stroke-opacity:0.1; fill:none" points="
  188.156,1118.81 2321.26,1118.81 
  "/>
<polyline clip-path="url(#clip2303)" style="stroke:#000000; stroke-width:2; stroke-opacity:0.1; fill:none" points="
  188.156,775.359 2321.26,775.359 
  "/>
<polyline clip-path="url(#clip2303)" style="stroke:#000000; stroke-width:2; stroke-opacity:0.1; fill:none" points="
  188.156,431.909 2321.26,431.909 
  "/>
<polyline clip-path="url(#clip2303)" style="stroke:#000000; stroke-width:2; stroke-opacity:0.1; fill:none" points="
  188.156,88.4582 2321.26,88.4582 
  "/>
<polyline clip-path="url(#clip2301)" style="stroke:#000000; stroke-width:4; stroke-opacity:1; fill:none" points="
  188.156,1503.47 2321.26,1503.47 
  "/>
<polyline clip-path="url(#clip2301)" style="stroke:#000000; stroke-width:4; stroke-opacity:1; fill:none" points="
  188.156,1503.47 188.156,47.2441 
  "/>
<polyline clip-path="url(#clip2301)" style="stroke:#000000; stroke-width:4; stroke-opacity:1; fill:none" points="
  248.527,1503.47 248.527,1481.63 
  "/>
<polyline clip-path="url(#clip2301)" style="stroke:#000000; stroke-width:4; stroke-opacity:1; fill:none" points="
  751.618,1503.47 751.618,1481.63 
  "/>
<polyline clip-path="url(#clip2301)" style="stroke:#000000; stroke-width:4; stroke-opacity:1; fill:none" points="
  1254.71,1503.47 1254.71,1481.63 
  "/>
<polyline clip-path="url(#clip2301)" style="stroke:#000000; stroke-width:4; stroke-opacity:1; fill:none" points="
  1757.8,1503.47 1757.8,1481.63 
  "/>
<polyline clip-path="url(#clip2301)" style="stroke:#000000; stroke-width:4; stroke-opacity:1; fill:none" points="
  2260.89,1503.47 2260.89,1481.63 
  "/>
<polyline clip-path="url(#clip2301)" style="stroke:#000000; stroke-width:4; stroke-opacity:1; fill:none" points="
  188.156,1462.26 220.153,1462.26 
  "/>
<polyline clip-path="url(#clip2301)" style="stroke:#000000; stroke-width:4; stroke-opacity:1; fill:none" points="
  188.156,1118.81 220.153,1118.81 
  "/>
<polyline clip-path="url(#clip2301)" style="stroke:#000000; stroke-width:4; stroke-opacity:1; fill:none" points="
  188.156,775.359 220.153,775.359 
  "/>
<polyline clip-path="url(#clip2301)" style="stroke:#000000; stroke-width:4; stroke-opacity:1; fill:none" points="
  188.156,431.909 220.153,431.909 
  "/>
<polyline clip-path="url(#clip2301)" style="stroke:#000000; stroke-width:4; stroke-opacity:1; fill:none" points="
  188.156,88.4582 220.153,88.4582 
  "/>
<g clip-path="url(#clip2301)">
<text style="fill:#000000; fill-opacity:1; font-family:Arial,Helvetica Neue,Helvetica,sans-serif; font-size:48px; text-anchor:middle;" transform="rotate(0, 248.527, 1557.47)" x="248.527" y="1557.47">-4</text>
</g>
<g clip-path="url(#clip2301)">
<text style="fill:#000000; fill-opacity:1; font-family:Arial,Helvetica Neue,Helvetica,sans-serif; font-size:48px; text-anchor:middle;" transform="rotate(0, 751.618, 1557.47)" x="751.618" y="1557.47">-2</text>
</g>
<g clip-path="url(#clip2301)">
<text style="fill:#000000; fill-opacity:1; font-family:Arial,Helvetica Neue,Helvetica,sans-serif; font-size:48px; text-anchor:middle;" transform="rotate(0, 1254.71, 1557.47)" x="1254.71" y="1557.47">0</text>
</g>
<g clip-path="url(#clip2301)">
<text style="fill:#000000; fill-opacity:1; font-family:Arial,Helvetica Neue,Helvetica,sans-serif; font-size:48px; text-anchor:middle;" transform="rotate(0, 1757.8, 1557.47)" x="1757.8" y="1557.47">2</text>
</g>
<g clip-path="url(#clip2301)">
<text style="fill:#000000; fill-opacity:1; font-family:Arial,Helvetica Neue,Helvetica,sans-serif; font-size:48px; text-anchor:middle;" transform="rotate(0, 2260.89, 1557.47)" x="2260.89" y="1557.47">4</text>
</g>
<g clip-path="url(#clip2301)">
<text style="fill:#000000; fill-opacity:1; font-family:Arial,Helvetica Neue,Helvetica,sans-serif; font-size:48px; text-anchor:end;" transform="rotate(0, 164.156, 1479.76)" x="164.156" y="1479.76">0.00</text>
</g>
<g clip-path="url(#clip2301)">
<text style="fill:#000000; fill-opacity:1; font-family:Arial,Helvetica Neue,Helvetica,sans-serif; font-size:48px; text-anchor:end;" transform="rotate(0, 164.156, 1136.31)" x="164.156" y="1136.31">0.25</text>
</g>
<g clip-path="url(#clip2301)">
<text style="fill:#000000; fill-opacity:1; font-family:Arial,Helvetica Neue,Helvetica,sans-serif; font-size:48px; text-anchor:end;" transform="rotate(0, 164.156, 792.859)" x="164.156" y="792.859">0.50</text>
</g>
<g clip-path="url(#clip2301)">
<text style="fill:#000000; fill-opacity:1; font-family:Arial,Helvetica Neue,Helvetica,sans-serif; font-size:48px; text-anchor:end;" transform="rotate(0, 164.156, 449.409)" x="164.156" y="449.409">0.75</text>
</g>
<g clip-path="url(#clip2301)">
<text style="fill:#000000; fill-opacity:1; font-family:Arial,Helvetica Neue,Helvetica,sans-serif; font-size:48px; text-anchor:end;" transform="rotate(0, 164.156, 105.958)" x="164.156" y="105.958">1.00</text>
</g>
<polyline clip-path="url(#clip2303)" style="stroke:#009af9; stroke-width:4; stroke-opacity:1; fill:none" points="
  248.527,88.4582 252.56,88.4582 256.593,88.4582 260.626,88.4582 264.658,88.4582 268.691,88.4582 272.724,88.4582 276.757,88.4582 280.79,88.4582 284.822,88.4582 
  288.855,88.4582 292.888,88.4582 296.921,88.4582 300.953,88.4582 304.986,88.4582 309.019,88.4582 313.052,88.4582 317.085,88.4582 321.117,88.4582 325.15,88.4582 
  329.183,88.4582 333.216,88.4582 337.249,88.4582 341.281,88.4582 345.314,88.4582 349.347,88.4582 353.38,88.4582 357.413,88.4582 361.445,88.4582 365.478,88.4582 
  369.511,88.4582 373.544,88.4582 377.576,1462.26 381.609,1462.26 385.642,1462.26 389.675,1462.26 393.708,1462.26 397.74,1462.26 401.773,1462.26 405.806,1462.26 
  409.839,1462.26 413.872,1462.26 417.904,1462.26 421.937,1462.26 425.97,1462.26 430.003,1462.26 434.036,1462.26 438.068,1462.26 442.101,1462.26 446.134,1462.26 
  450.167,1462.26 454.199,1462.26 458.232,1462.26 462.265,1462.26 466.298,1462.26 470.331,1462.26 474.363,1462.26 478.396,1462.26 482.429,1462.26 486.462,1462.26 
  490.495,1462.26 494.527,1462.26 498.56,1462.26 502.593,1462.26 506.626,1462.26 510.659,1462.26 514.691,1462.26 518.724,1462.26 522.757,1462.26 526.79,1462.26 
  530.822,1462.26 534.855,1462.26 538.888,1462.26 542.921,1462.26 546.954,1462.26 550.986,1462.26 555.019,1462.26 559.052,1462.26 563.085,1462.26 567.118,1462.26 
  571.15,1462.26 575.183,1462.26 579.216,1462.26 583.249,1462.26 587.282,1462.26 591.314,1462.26 595.347,1462.26 599.38,1462.26 603.413,1462.26 607.445,1462.26 
  611.478,1462.26 615.511,1462.26 619.544,1462.26 623.577,1462.26 627.609,1462.26 631.642,1462.26 635.675,1462.26 639.708,1462.26 643.741,1462.26 647.773,1462.26 
  651.806,1462.26 655.839,1462.26 659.872,1462.26 663.905,1462.26 667.937,1462.26 671.97,1462.26 676.003,1462.26 680.036,1462.26 684.068,1462.26 688.101,1462.26 
  692.134,1462.26 696.167,1462.26 700.2,1462.26 704.232,1462.26 708.265,1462.26 712.298,1462.26 716.331,1462.26 720.364,1462.26 724.396,1462.26 728.429,1462.26 
  732.462,1462.26 736.495,1462.26 740.528,1462.26 744.56,1462.26 748.593,1462.26 752.626,1462.26 756.659,1462.26 760.691,1462.26 764.724,1462.26 768.757,1462.26 
  772.79,1462.26 776.823,1462.26 780.855,1462.26 784.888,1462.26 788.921,1462.26 792.954,1462.26 796.987,1462.26 801.019,1462.26 805.052,1462.26 809.085,1462.26 
  813.118,1462.26 817.15,1462.26 821.183,1462.26 825.216,1462.26 829.249,1462.26 833.282,1462.26 837.314,1462.26 841.347,1462.26 845.38,1462.26 849.413,1462.26 
  853.446,1462.26 857.478,1462.26 861.511,1462.26 865.544,1462.26 869.577,1462.26 873.61,1462.26 877.642,1462.26 881.675,1462.26 885.708,1462.26 889.741,1462.26 
  893.773,1462.26 897.806,1462.26 901.839,1462.26 905.872,1462.26 909.905,1462.26 913.937,1462.26 917.97,1462.26 922.003,1462.26 926.036,1462.26 930.069,1462.26 
  934.101,1462.26 938.134,1462.26 942.167,1462.26 946.2,1462.26 950.233,1462.26 954.265,1462.26 958.298,1462.26 962.331,1462.26 966.364,1462.26 970.396,1462.26 
  974.429,1462.26 978.462,1462.26 982.495,1462.26 986.528,1462.26 990.56,1462.26 994.593,1462.26 998.626,1462.26 1002.66,1462.26 1006.69,1462.26 1010.72,1462.26 
  1014.76,1462.26 1018.79,1462.26 1022.82,1462.26 1026.86,1462.26 1030.89,1462.26 1034.92,1462.26 1038.95,1462.26 1042.99,1462.26 1047.02,1462.26 1051.05,1462.26 
  1055.09,1462.26 1059.12,1462.26 1063.15,1462.26 1067.18,1462.26 1071.22,1462.26 1075.25,1462.26 1079.28,1462.26 1083.31,1462.26 1087.35,1462.26 1091.38,1462.26 
  1095.41,1462.26 1099.45,1462.26 1103.48,1462.26 1107.51,1462.26 1111.54,1462.26 1115.58,1462.26 1119.61,1462.26 1123.64,1462.26 1127.68,1462.26 1131.71,88.4582 
  1135.74,88.4582 1139.77,88.4582 1143.81,88.4582 1147.84,88.4582 1151.87,88.4582 1155.9,88.4582 1159.94,88.4582 1163.97,88.4582 1168,88.4582 1172.04,88.4582 
  1176.07,88.4582 1180.1,88.4582 1184.13,88.4582 1188.17,88.4582 1192.2,88.4582 1196.23,88.4582 1200.27,88.4582 1204.3,88.4582 1208.33,88.4582 1212.36,88.4582 
  1216.4,88.4582 1220.43,88.4582 1224.46,88.4582 1228.49,88.4582 1232.53,88.4582 1236.56,88.4582 1240.59,88.4582 1244.63,88.4582 1248.66,88.4582 1252.69,88.4582 
  1256.72,88.4582 1260.76,88.4582 1264.79,88.4582 1268.82,88.4582 1272.86,88.4582 1276.89,88.4582 1280.92,88.4582 1284.95,88.4582 1288.99,88.4582 1293.02,88.4582 
  1297.05,88.4582 1301.09,88.4582 1305.12,88.4582 1309.15,88.4582 1313.18,88.4582 1317.22,88.4582 1321.25,88.4582 1325.28,88.4582 1329.31,88.4582 1333.35,88.4582 
  1337.38,88.4582 1341.41,88.4582 1345.45,88.4582 1349.48,88.4582 1353.51,88.4582 1357.54,88.4582 1361.58,88.4582 1365.61,88.4582 1369.64,88.4582 1373.68,88.4582 
  1377.71,88.4582 1381.74,1462.26 1385.77,1462.26 1389.81,1462.26 1393.84,1462.26 1397.87,1462.26 1401.9,1462.26 1405.94,1462.26 1409.97,1462.26 1414,1462.26 
  1418.04,1462.26 1422.07,1462.26 1426.1,1462.26 1430.13,1462.26 1434.17,1462.26 1438.2,1462.26 1442.23,1462.26 1446.27,1462.26 1450.3,1462.26 1454.33,1462.26 
  1458.36,1462.26 1462.4,1462.26 1466.43,1462.26 1470.46,1462.26 1474.5,1462.26 1478.53,1462.26 1482.56,1462.26 1486.59,1462.26 1490.63,1462.26 1494.66,1462.26 
  1498.69,1462.26 1502.72,1462.26 1506.76,1462.26 1510.79,1462.26 1514.82,1462.26 1518.86,1462.26 1522.89,1462.26 1526.92,1462.26 1530.95,1462.26 1534.99,1462.26 
  1539.02,1462.26 1543.05,1462.26 1547.09,1462.26 1551.12,1462.26 1555.15,1462.26 1559.18,1462.26 1563.22,1462.26 1567.25,1462.26 1571.28,1462.26 1575.31,1462.26 
  1579.35,1462.26 1583.38,1462.26 1587.41,1462.26 1591.45,1462.26 1595.48,1462.26 1599.51,1462.26 1603.54,1462.26 1607.58,1462.26 1611.61,1462.26 1615.64,1462.26 
  1619.68,1462.26 1623.71,1462.26 1627.74,1462.26 1631.77,1462.26 1635.81,1462.26 1639.84,1462.26 1643.87,1462.26 1647.91,1462.26 1651.94,1462.26 1655.97,1462.26 
  1660,1462.26 1664.04,1462.26 1668.07,1462.26 1672.1,1462.26 1676.13,1462.26 1680.17,1462.26 1684.2,1462.26 1688.23,1462.26 1692.27,1462.26 1696.3,1462.26 
  1700.33,1462.26 1704.36,1462.26 1708.4,1462.26 1712.43,1462.26 1716.46,1462.26 1720.5,1462.26 1724.53,1462.26 1728.56,1462.26 1732.59,1462.26 1736.63,1462.26 
  1740.66,1462.26 1744.69,1462.26 1748.72,1462.26 1752.76,1462.26 1756.79,1462.26 1760.82,1462.26 1764.86,1462.26 1768.89,1462.26 1772.92,1462.26 1776.95,1462.26 
  1780.99,1462.26 1785.02,1462.26 1789.05,1462.26 1793.09,1462.26 1797.12,1462.26 1801.15,1462.26 1805.18,1462.26 1809.22,1462.26 1813.25,1462.26 1817.28,1462.26 
  1821.31,1462.26 1825.35,1462.26 1829.38,1462.26 1833.41,1462.26 1837.45,1462.26 1841.48,1462.26 1845.51,1462.26 1849.54,1462.26 1853.58,1462.26 1857.61,1462.26 
  1861.64,1462.26 1865.68,1462.26 1869.71,1462.26 1873.74,1462.26 1877.77,1462.26 1881.81,1462.26 1885.84,1462.26 1889.87,1462.26 1893.91,1462.26 1897.94,1462.26 
  1901.97,1462.26 1906,1462.26 1910.04,1462.26 1914.07,1462.26 1918.1,1462.26 1922.13,1462.26 1926.17,1462.26 1930.2,1462.26 1934.23,1462.26 1938.27,1462.26 
  1942.3,1462.26 1946.33,1462.26 1950.36,1462.26 1954.4,1462.26 1958.43,1462.26 1962.46,1462.26 1966.5,1462.26 1970.53,1462.26 1974.56,1462.26 1978.59,1462.26 
  1982.63,1462.26 1986.66,1462.26 1990.69,1462.26 1994.72,1462.26 1998.76,1462.26 2002.79,1462.26 2006.82,1462.26 2010.86,1462.26 2014.89,1462.26 2018.92,1462.26 
  2022.95,1462.26 2026.99,1462.26 2031.02,1462.26 2035.05,1462.26 2039.09,1462.26 2043.12,1462.26 2047.15,1462.26 2051.18,1462.26 2055.22,1462.26 2059.25,1462.26 
  2063.28,1462.26 2067.32,1462.26 2071.35,1462.26 2075.38,1462.26 2079.41,1462.26 2083.45,1462.26 2087.48,1462.26 2091.51,1462.26 2095.54,1462.26 2099.58,1462.26 
  2103.61,1462.26 2107.64,1462.26 2111.68,1462.26 2115.71,1462.26 2119.74,1462.26 2123.77,1462.26 2127.81,1462.26 2131.84,1462.26 2135.87,88.4582 2139.91,88.4582 
  2143.94,88.4582 2147.97,88.4582 2152,88.4582 2156.04,88.4582 2160.07,88.4582 2164.1,88.4582 2168.13,88.4582 2172.17,88.4582 2176.2,88.4582 2180.23,88.4582 
  2184.27,88.4582 2188.3,88.4582 2192.33,88.4582 2196.36,88.4582 2200.4,88.4582 2204.43,88.4582 2208.46,88.4582 2212.5,88.4582 2216.53,88.4582 2220.56,88.4582 
  2224.59,88.4582 2228.63,88.4582 2232.66,88.4582 2236.69,88.4582 2240.73,88.4582 2244.76,88.4582 2248.79,88.4582 2252.82,88.4582 2256.86,88.4582 2260.89,88.4582 
  
  "/>
<polyline clip-path="url(#clip2303)" style="stroke:#e26f46; stroke-width:4; stroke-opacity:1; fill:none" points="
  248.527,88.4582 252.56,110.483 256.593,132.508 260.626,154.533 264.658,176.558 268.691,198.583 272.724,220.608 276.757,242.632 280.79,264.657 284.822,286.682 
  288.855,308.707 292.888,330.732 296.921,352.757 300.953,374.782 304.986,396.807 309.019,418.832 313.052,440.856 317.085,462.881 321.117,484.906 325.15,506.931 
  329.183,528.956 333.216,550.981 337.249,573.006 341.281,595.031 345.314,617.056 349.347,639.08 353.38,661.105 357.413,683.13 361.445,705.155 365.478,727.18 
  369.511,749.205 373.544,771.23 377.576,793.255 381.609,815.28 385.642,837.304 389.675,859.329 393.708,881.354 397.74,903.379 401.773,925.404 405.806,947.429 
  409.839,969.454 413.872,991.479 417.904,1013.5 421.937,1035.53 425.97,1057.55 430.003,1079.58 434.036,1101.6 438.068,1123.63 442.101,1145.65 446.134,1167.68 
  450.167,1189.7 454.199,1211.73 458.232,1233.75 462.265,1255.78 466.298,1277.8 470.331,1299.83 474.363,1321.85 478.396,1343.88 482.429,1365.9 486.462,1387.93 
  490.495,1409.95 494.527,1431.98 498.56,1454 502.593,1462.26 506.626,1462.26 510.659,1462.26 514.691,1462.26 518.724,1462.26 522.757,1462.26 526.79,1462.26 
  530.822,1462.26 534.855,1462.26 538.888,1462.26 542.921,1462.26 546.954,1462.26 550.986,1462.26 555.019,1462.26 559.052,1462.26 563.085,1462.26 567.118,1462.26 
  571.15,1462.26 575.183,1462.26 579.216,1462.26 583.249,1462.26 587.282,1462.26 591.314,1462.26 595.347,1462.26 599.38,1462.26 603.413,1462.26 607.445,1462.26 
  611.478,1462.26 615.511,1462.26 619.544,1462.26 623.577,1462.26 627.609,1462.26 631.642,1462.26 635.675,1462.26 639.708,1462.26 643.741,1462.26 647.773,1462.26 
  651.806,1462.26 655.839,1462.26 659.872,1462.26 663.905,1462.26 667.937,1462.26 671.97,1462.26 676.003,1462.26 680.036,1462.26 684.068,1462.26 688.101,1462.26 
  692.134,1462.26 696.167,1462.26 700.2,1462.26 704.232,1462.26 708.265,1462.26 712.298,1462.26 716.331,1462.26 720.364,1462.26 724.396,1462.26 728.429,1462.26 
  732.462,1462.26 736.495,1462.26 740.528,1462.26 744.56,1462.26 748.593,1462.26 752.626,1462.26 756.659,1462.26 760.691,1462.26 764.724,1462.26 768.757,1462.26 
  772.79,1462.26 776.823,1462.26 780.855,1462.26 784.888,1462.26 788.921,1462.26 792.954,1462.26 796.987,1462.26 801.019,1462.26 805.052,1462.26 809.085,1462.26 
  813.118,1462.26 817.15,1462.26 821.183,1462.26 825.216,1462.26 829.249,1462.26 833.282,1462.26 837.314,1462.26 841.347,1462.26 845.38,1462.26 849.413,1462.26 
  853.446,1462.26 857.478,1462.26 861.511,1462.26 865.544,1462.26 869.577,1462.26 873.61,1462.26 877.642,1462.26 881.675,1462.26 885.708,1462.26 889.741,1462.26 
  893.773,1462.26 897.806,1462.26 901.839,1462.26 905.872,1462.26 909.905,1462.26 913.937,1462.26 917.97,1462.26 922.003,1462.26 926.036,1462.26 930.069,1462.26 
  934.101,1462.26 938.134,1462.26 942.167,1462.26 946.2,1462.26 950.233,1462.26 954.265,1462.26 958.298,1462.26 962.331,1462.26 966.364,1462.26 970.396,1462.26 
  974.429,1462.26 978.462,1462.26 982.495,1462.26 986.528,1462.26 990.56,1462.26 994.593,1462.26 998.626,1462.26 1002.66,1462.26 1006.69,1442.99 1010.72,1420.96 
  1014.76,1398.94 1018.79,1376.91 1022.82,1354.89 1026.86,1332.86 1030.89,1310.84 1034.92,1288.81 1038.95,1266.79 1042.99,1244.76 1047.02,1222.74 1051.05,1200.72 
  1055.09,1178.69 1059.12,1156.67 1063.15,1134.64 1067.18,1112.62 1071.22,1090.59 1075.25,1068.57 1079.28,1046.54 1083.31,1024.52 1087.35,1002.49 1091.38,980.466 
  1095.41,958.441 1099.45,936.416 1103.48,914.392 1107.51,892.367 1111.54,870.342 1115.58,848.317 1119.61,826.292 1123.64,804.267 1127.68,782.242 1131.71,760.217 
  1135.74,738.192 1139.77,716.168 1143.81,694.143 1147.84,672.118 1151.87,650.093 1155.9,628.068 1159.94,606.043 1163.97,584.018 1168,561.993 1172.04,539.968 
  1176.07,517.944 1180.1,495.919 1184.13,473.894 1188.17,451.869 1192.2,429.844 1196.23,407.819 1200.27,385.794 1204.3,363.769 1208.33,341.744 1212.36,319.72 
  1216.4,297.695 1220.43,275.67 1224.46,253.645 1228.49,231.62 1232.53,209.595 1236.56,187.57 1240.59,165.545 1244.63,143.52 1248.66,121.496 1252.69,99.4706 
  1256.72,99.4706 1260.76,121.496 1264.79,143.52 1268.82,165.545 1272.86,187.57 1276.89,209.595 1280.92,231.62 1284.95,253.645 1288.99,275.67 1293.02,297.695 
  1297.05,319.72 1301.09,341.744 1305.12,363.769 1309.15,385.794 1313.18,407.819 1317.22,429.844 1321.25,451.869 1325.28,473.894 1329.31,495.919 1333.35,517.944 
  1337.38,539.968 1341.41,561.993 1345.45,584.018 1349.48,606.043 1353.51,628.068 1357.54,650.093 1361.58,672.118 1365.61,694.143 1369.64,716.168 1373.68,738.192 
  1377.71,760.217 1381.74,782.242 1385.77,804.267 1389.81,826.292 1393.84,848.317 1397.87,870.342 1401.9,892.367 1405.94,914.392 1409.97,936.416 1414,958.441 
  1418.04,980.466 1422.07,1002.49 1426.1,1024.52 1430.13,1046.54 1434.17,1068.57 1438.2,1090.59 1442.23,1112.62 1446.27,1134.64 1450.3,1156.67 1454.33,1178.69 
  1458.36,1200.72 1462.4,1222.74 1466.43,1244.76 1470.46,1266.79 1474.5,1288.81 1478.53,1310.84 1482.56,1332.86 1486.59,1354.89 1490.63,1376.91 1494.66,1398.94 
  1498.69,1420.96 1502.72,1442.99 1506.76,1462.26 1510.79,1462.26 1514.82,1462.26 1518.86,1462.26 1522.89,1462.26 1526.92,1462.26 1530.95,1462.26 1534.99,1462.26 
  1539.02,1462.26 1543.05,1462.26 1547.09,1462.26 1551.12,1462.26 1555.15,1462.26 1559.18,1462.26 1563.22,1462.26 1567.25,1462.26 1571.28,1462.26 1575.31,1462.26 
  1579.35,1462.26 1583.38,1462.26 1587.41,1462.26 1591.45,1462.26 1595.48,1462.26 1599.51,1462.26 1603.54,1462.26 1607.58,1462.26 1611.61,1462.26 1615.64,1462.26 
  1619.68,1462.26 1623.71,1462.26 1627.74,1462.26 1631.77,1462.26 1635.81,1462.26 1639.84,1462.26 1643.87,1462.26 1647.91,1462.26 1651.94,1462.26 1655.97,1462.26 
  1660,1462.26 1664.04,1462.26 1668.07,1462.26 1672.1,1462.26 1676.13,1462.26 1680.17,1462.26 1684.2,1462.26 1688.23,1462.26 1692.27,1462.26 1696.3,1462.26 
  1700.33,1462.26 1704.36,1462.26 1708.4,1462.26 1712.43,1462.26 1716.46,1462.26 1720.5,1462.26 1724.53,1462.26 1728.56,1462.26 1732.59,1462.26 1736.63,1462.26 
  1740.66,1462.26 1744.69,1462.26 1748.72,1462.26 1752.76,1462.26 1756.79,1462.26 1760.82,1462.26 1764.86,1462.26 1768.89,1462.26 1772.92,1462.26 1776.95,1462.26 
  1780.99,1462.26 1785.02,1462.26 1789.05,1462.26 1793.09,1462.26 1797.12,1462.26 1801.15,1462.26 1805.18,1462.26 1809.22,1462.26 1813.25,1462.26 1817.28,1462.26 
  1821.31,1462.26 1825.35,1462.26 1829.38,1462.26 1833.41,1462.26 1837.45,1462.26 1841.48,1462.26 1845.51,1462.26 1849.54,1462.26 1853.58,1462.26 1857.61,1462.26 
  1861.64,1462.26 1865.68,1462.26 1869.71,1462.26 1873.74,1462.26 1877.77,1462.26 1881.81,1462.26 1885.84,1462.26 1889.87,1462.26 1893.91,1462.26 1897.94,1462.26 
  1901.97,1462.26 1906,1462.26 1910.04,1462.26 1914.07,1462.26 1918.1,1462.26 1922.13,1462.26 1926.17,1462.26 1930.2,1462.26 1934.23,1462.26 1938.27,1462.26 
  1942.3,1462.26 1946.33,1462.26 1950.36,1462.26 1954.4,1462.26 1958.43,1462.26 1962.46,1462.26 1966.5,1462.26 1970.53,1462.26 1974.56,1462.26 1978.59,1462.26 
  1982.63,1462.26 1986.66,1462.26 1990.69,1462.26 1994.72,1462.26 1998.76,1462.26 2002.79,1462.26 2006.82,1462.26 2010.86,1454 2014.89,1431.98 2018.92,1409.95 
  2022.95,1387.93 2026.99,1365.9 2031.02,1343.88 2035.05,1321.85 2039.09,1299.83 2043.12,1277.8 2047.15,1255.78 2051.18,1233.75 2055.22,1211.73 2059.25,1189.7 
  2063.28,1167.68 2067.32,1145.65 2071.35,1123.63 2075.38,1101.6 2079.41,1079.58 2083.45,1057.55 2087.48,1035.53 2091.51,1013.5 2095.54,991.479 2099.58,969.454 
  2103.61,947.429 2107.64,925.404 2111.68,903.379 2115.71,881.354 2119.74,859.329 2123.77,837.304 2127.81,815.28 2131.84,793.255 2135.87,771.23 2139.91,749.205 
  2143.94,727.18 2147.97,705.155 2152,683.13 2156.04,661.105 2160.07,639.08 2164.1,617.056 2168.13,595.031 2172.17,573.006 2176.2,550.981 2180.23,528.956 
  2184.27,506.931 2188.3,484.906 2192.33,462.881 2196.36,440.856 2200.4,418.832 2204.43,396.807 2208.46,374.782 2212.5,352.757 2216.53,330.732 2220.56,308.707 
  2224.59,286.682 2228.63,264.657 2232.66,242.632 2236.69,220.608 2240.73,198.583 2244.76,176.558 2248.79,154.533 2252.82,132.508 2256.86,110.483 2260.89,88.4582 
  
  "/>
<polyline clip-path="url(#clip2303)" style="stroke:#3da44d; stroke-width:4; stroke-opacity:1; fill:none" points="
  248.527,431.909 252.56,432.262 256.593,433.321 260.626,435.087 264.658,437.558 268.691,440.736 272.724,444.621 276.757,449.211 280.79,454.507 284.822,460.51 
  288.855,467.219 292.888,474.634 296.921,482.756 300.953,491.583 304.986,501.117 309.019,511.357 313.052,522.304 317.085,533.956 321.117,546.315 325.15,559.379 
  329.183,573.151 333.216,587.628 337.249,602.811 341.281,618.701 345.314,635.297 349.347,652.599 353.38,670.607 357.413,689.322 361.445,708.743 365.478,728.87 
  369.511,749.703 373.544,771.242 377.576,793.138 381.609,814.7 385.642,835.908 389.675,856.763 393.708,877.265 397.74,897.414 401.773,917.21 405.806,936.653 
  409.839,955.743 413.872,974.479 417.904,992.863 421.937,1010.89 425.97,1028.57 430.003,1045.89 434.036,1062.87 438.068,1079.48 442.101,1095.75 446.134,1111.66 
  450.167,1127.22 454.199,1142.42 458.232,1157.28 462.265,1171.78 466.298,1185.92 470.331,1199.72 474.363,1213.16 478.396,1226.24 482.429,1238.98 486.462,1251.36 
  490.495,1263.38 494.527,1275.06 498.56,1286.38 502.593,1297.35 506.626,1307.96 510.659,1318.23 514.691,1328.14 518.724,1337.69 522.757,1346.89 526.79,1355.74 
  530.822,1364.24 534.855,1372.38 538.888,1380.17 542.921,1387.61 546.954,1394.7 550.986,1401.43 555.019,1407.8 559.052,1413.83 563.085,1419.5 567.118,1424.82 
  571.15,1429.79 575.183,1434.4 579.216,1438.66 583.249,1442.56 587.282,1446.12 591.314,1449.32 595.347,1452.16 599.38,1454.66 603.413,1456.8 607.445,1458.59 
  611.478,1460.02 615.511,1461.1 619.544,1461.83 623.577,1462.2 627.609,1462.26 631.642,1462.26 635.675,1462.26 639.708,1462.26 643.741,1462.26 647.773,1462.26 
  651.806,1462.26 655.839,1462.26 659.872,1462.26 663.905,1462.26 667.937,1462.26 671.97,1462.26 676.003,1462.26 680.036,1462.26 684.068,1462.26 688.101,1462.26 
  692.134,1462.26 696.167,1462.26 700.2,1462.26 704.232,1462.26 708.265,1462.26 712.298,1462.26 716.331,1462.26 720.364,1462.26 724.396,1462.26 728.429,1462.26 
  732.462,1462.26 736.495,1462.26 740.528,1462.26 744.56,1462.26 748.593,1462.26 752.626,1462.26 756.659,1462.26 760.691,1462.26 764.724,1462.26 768.757,1462.26 
  772.79,1462.26 776.823,1462.26 780.855,1462.26 784.888,1462.26 788.921,1462.26 792.954,1462.26 796.987,1462.26 801.019,1462.26 805.052,1462.26 809.085,1462.26 
  813.118,1462.26 817.15,1462.26 821.183,1462.26 825.216,1462.26 829.249,1462.26 833.282,1462.26 837.314,1462.26 841.347,1462.26 845.38,1462.26 849.413,1462.26 
  853.446,1462.26 857.478,1462.26 861.511,1462.26 865.544,1462.26 869.577,1462.26 873.61,1462.26 877.642,1462.26 881.675,1462.06 885.708,1461.51 889.741,1460.6 
  893.773,1459.35 897.806,1457.74 901.839,1455.77 905.872,1453.45 909.905,1450.78 913.937,1447.76 917.97,1444.38 922.003,1440.65 926.036,1436.57 930.069,1432.14 
  934.101,1427.35 938.134,1422.2 942.167,1416.71 946.2,1410.86 950.233,1404.66 954.265,1398.11 958.298,1391.2 962.331,1383.94 966.364,1376.32 970.396,1368.36 
  974.429,1360.04 978.462,1351.36 982.495,1342.34 986.528,1332.96 990.56,1323.23 994.593,1313.14 998.626,1302.7 1002.66,1291.91 1006.69,1280.76 1010.72,1269.27 
  1014.76,1257.42 1018.79,1245.21 1022.82,1232.65 1026.86,1219.74 1030.89,1206.48 1034.92,1192.86 1038.95,1178.89 1042.99,1164.57 1047.02,1149.89 1051.05,1134.87 
  1055.09,1119.48 1059.12,1103.75 1063.15,1087.66 1067.18,1071.22 1071.22,1054.42 1075.25,1037.28 1079.28,1019.78 1083.31,1001.92 1087.35,983.715 1091.38,965.155 
  1095.41,946.242 1099.45,926.976 1103.48,907.356 1107.51,887.384 1111.54,867.058 1115.58,846.38 1119.61,825.348 1123.64,803.963 1127.68,782.225 1131.71,760.384 
  1135.74,739.198 1139.77,718.718 1143.81,698.944 1147.84,679.876 1151.87,661.515 1155.9,643.86 1159.94,626.911 1163.97,610.668 1168,595.131 1172.04,580.301 
  1176.07,566.177 1180.1,552.759 1184.13,540.047 1188.17,528.041 1192.2,516.742 1196.23,506.149 1200.27,496.262 1204.3,487.081 1208.33,478.607 1212.36,470.839 
  1216.4,463.776 1220.43,457.421 1224.46,451.771 1228.49,446.827 1232.53,442.59 1236.56,439.059 1240.59,436.234 1244.63,434.116 1248.66,432.703 1252.69,431.997 
  1256.72,431.997 1260.76,432.703 1264.79,434.116 1268.82,436.234 1272.86,439.059 1276.89,442.59 1280.92,446.827 1284.95,451.771 1288.99,457.421 1293.02,463.776 
  1297.05,470.839 1301.09,478.607 1305.12,487.081 1309.15,496.262 1313.18,506.149 1317.22,516.742 1321.25,528.041 1325.28,540.047 1329.31,552.759 1333.35,566.177 
  1337.38,580.301 1341.41,595.131 1345.45,610.668 1349.48,626.911 1353.51,643.86 1357.54,661.515 1361.58,679.876 1365.61,698.944 1369.64,718.718 1373.68,739.198 
  1377.71,760.384 1381.74,782.225 1385.77,803.963 1389.81,825.348 1393.84,846.38 1397.87,867.058 1401.9,887.384 1405.94,907.356 1409.97,926.976 1414,946.242 
  1418.04,965.155 1422.07,983.715 1426.1,1001.92 1430.13,1019.78 1434.17,1037.28 1438.2,1054.42 1442.23,1071.22 1446.27,1087.66 1450.3,1103.75 1454.33,1119.48 
  1458.36,1134.87 1462.4,1149.89 1466.43,1164.57 1470.46,1178.89 1474.5,1192.86 1478.53,1206.48 1482.56,1219.74 1486.59,1232.65 1490.63,1245.21 1494.66,1257.42 
  1498.69,1269.27 1502.72,1280.76 1506.76,1291.91 1510.79,1302.7 1514.82,1313.14 1518.86,1323.23 1522.89,1332.96 1526.92,1342.34 1530.95,1351.36 1534.99,1360.04 
  1539.02,1368.36 1543.05,1376.32 1547.09,1383.94 1551.12,1391.2 1555.15,1398.11 1559.18,1404.66 1563.22,1410.86 1567.25,1416.71 1571.28,1422.2 1575.31,1427.35 
  1579.35,1432.14 1583.38,1436.57 1587.41,1440.65 1591.45,1444.38 1595.48,1447.76 1599.51,1450.78 1603.54,1453.45 1607.58,1455.77 1611.61,1457.74 1615.64,1459.35 
  1619.68,1460.6 1623.71,1461.51 1627.74,1462.06 1631.77,1462.26 1635.81,1462.26 1639.84,1462.26 1643.87,1462.26 1647.91,1462.26 1651.94,1462.26 1655.97,1462.26 
  1660,1462.26 1664.04,1462.26 1668.07,1462.26 1672.1,1462.26 1676.13,1462.26 1680.17,1462.26 1684.2,1462.26 1688.23,1462.26 1692.27,1462.26 1696.3,1462.26 
  1700.33,1462.26 1704.36,1462.26 1708.4,1462.26 1712.43,1462.26 1716.46,1462.26 1720.5,1462.26 1724.53,1462.26 1728.56,1462.26 1732.59,1462.26 1736.63,1462.26 
  1740.66,1462.26 1744.69,1462.26 1748.72,1462.26 1752.76,1462.26 1756.79,1462.26 1760.82,1462.26 1764.86,1462.26 1768.89,1462.26 1772.92,1462.26 1776.95,1462.26 
  1780.99,1462.26 1785.02,1462.26 1789.05,1462.26 1793.09,1462.26 1797.12,1462.26 1801.15,1462.26 1805.18,1462.26 1809.22,1462.26 1813.25,1462.26 1817.28,1462.26 
  1821.31,1462.26 1825.35,1462.26 1829.38,1462.26 1833.41,1462.26 1837.45,1462.26 1841.48,1462.26 1845.51,1462.26 1849.54,1462.26 1853.58,1462.26 1857.61,1462.26 
  1861.64,1462.26 1865.68,1462.26 1869.71,1462.26 1873.74,1462.26 1877.77,1462.26 1881.81,1462.26 1885.84,1462.2 1889.87,1461.83 1893.91,1461.1 1897.94,1460.02 
  1901.97,1458.59 1906,1456.8 1910.04,1454.66 1914.07,1452.16 1918.1,1449.32 1922.13,1446.12 1926.17,1442.56 1930.2,1438.66 1934.23,1434.4 1938.27,1429.79 
  1942.3,1424.82 1946.33,1419.5 1950.36,1413.83 1954.4,1407.8 1958.43,1401.43 1962.46,1394.7 1966.5,1387.61 1970.53,1380.17 1974.56,1372.38 1978.59,1364.24 
  1982.63,1355.74 1986.66,1346.89 1990.69,1337.69 1994.72,1328.14 1998.76,1318.23 2002.79,1307.96 2006.82,1297.35 2010.86,1286.38 2014.89,1275.06 2018.92,1263.38 
  2022.95,1251.36 2026.99,1238.98 2031.02,1226.24 2035.05,1213.16 2039.09,1199.72 2043.12,1185.92 2047.15,1171.78 2051.18,1157.28 2055.22,1142.42 2059.25,1127.22 
  2063.28,1111.66 2067.32,1095.75 2071.35,1079.48 2075.38,1062.87 2079.41,1045.89 2083.45,1028.57 2087.48,1010.89 2091.51,992.863 2095.54,974.479 2099.58,955.743 
  2103.61,936.653 2107.64,917.21 2111.68,897.414 2115.71,877.265 2119.74,856.763 2123.77,835.908 2127.81,814.7 2131.84,793.138 2135.87,771.242 2139.91,749.703 
  2143.94,728.87 2147.97,708.743 2152,689.322 2156.04,670.607 2160.07,652.599 2164.1,635.297 2168.13,618.701 2172.17,602.811 2176.2,587.628 2180.23,573.151 
  2184.27,559.379 2188.3,546.315 2192.33,533.956 2196.36,522.304 2200.4,511.357 2204.43,501.117 2208.46,491.583 2212.5,482.756 2216.53,474.634 2220.56,467.219 
  2224.59,460.51 2228.63,454.507 2232.66,449.211 2236.69,444.621 2240.73,440.736 2244.76,437.558 2248.79,435.087 2252.82,433.321 2256.86,432.262 2260.89,431.909 
  
  "/>
<polyline clip-path="url(#clip2303)" style="stroke:#c271d2; stroke-width:4; stroke-opacity:1; fill:none" points="
  248.527,546.392 252.56,546.743 256.593,547.782 260.626,549.494 264.658,551.861 268.691,554.866 272.724,558.493 276.757,562.724 280.79,567.542 284.822,572.93 
  288.855,578.872 292.888,585.351 296.921,592.348 300.953,599.848 304.986,607.834 309.019,616.288 313.052,625.193 317.085,634.533 321.117,644.291 325.15,654.449 
  329.183,664.99 333.216,675.898 337.249,687.156 341.281,698.746 345.314,710.652 349.347,722.856 353.38,735.342 357.413,748.093 361.445,761.091 365.478,774.32 
  369.511,787.763 373.544,801.402 377.576,815.222 381.609,829.204 385.642,843.331 389.675,857.588 393.708,871.956 397.74,886.419 401.773,900.96 405.806,915.562 
  409.839,930.208 413.872,944.88 417.904,959.563 421.937,974.238 425.97,988.89 430.003,1003.5 434.036,1018.05 438.068,1032.53 442.101,1046.91 446.134,1061.19 
  450.167,1075.34 454.199,1089.35 458.232,1103.2 462.265,1116.87 466.298,1130.34 470.331,1143.61 474.363,1156.65 478.396,1169.44 482.429,1181.97 486.462,1194.22 
  490.495,1206.18 494.527,1217.83 498.56,1229.14 502.593,1240.11 506.626,1250.73 510.659,1261 514.691,1270.94 518.724,1280.54 522.757,1289.82 526.79,1298.78 
  530.822,1307.42 534.855,1315.75 538.888,1323.77 542.921,1331.5 546.954,1338.94 550.986,1346.08 555.019,1352.95 559.052,1359.54 563.085,1365.86 567.118,1371.91 
  571.15,1377.71 575.183,1383.25 579.216,1388.55 583.249,1393.6 587.282,1398.42 591.314,1403 595.347,1407.36 599.38,1411.5 603.413,1415.43 607.445,1419.15 
  611.478,1422.67 615.511,1425.99 619.544,1429.12 623.577,1432.06 627.609,1434.83 631.642,1437.42 635.675,1439.84 639.708,1442.1 643.741,1444.2 647.773,1446.15 
  651.806,1447.96 655.839,1449.62 659.872,1451.15 663.905,1452.55 667.937,1453.83 671.97,1454.99 676.003,1456.04 680.036,1456.98 684.068,1457.83 688.101,1458.57 
  692.134,1459.23 696.167,1459.81 700.2,1460.31 704.232,1460.73 708.265,1461.09 712.298,1461.39 716.331,1461.63 720.364,1461.82 724.396,1461.97 728.429,1462.08 
  732.462,1462.16 736.495,1462.21 740.528,1462.24 744.56,1462.26 748.593,1462.26 752.626,1462.26 756.659,1462.26 760.691,1462.25 764.724,1462.23 768.757,1462.19 
  772.79,1462.12 776.823,1462.03 780.855,1461.9 784.888,1461.73 788.921,1461.51 792.954,1461.24 796.987,1460.92 801.019,1460.53 805.052,1460.07 809.085,1459.53 
  813.118,1458.91 817.15,1458.21 821.183,1457.42 825.216,1456.53 829.249,1455.53 833.282,1454.43 837.314,1453.21 841.347,1451.87 845.38,1450.4 849.413,1448.81 
  853.446,1447.07 857.478,1445.19 861.511,1443.17 865.544,1440.99 869.577,1438.65 873.61,1436.14 877.642,1433.47 881.675,1430.61 885.708,1427.58 889.741,1424.35 
  893.773,1420.94 897.806,1417.32 901.839,1413.49 905.872,1409.46 909.905,1405.21 913.937,1400.74 917.97,1396.04 922.003,1391.1 926.036,1385.93 930.069,1380.51 
  934.101,1374.84 938.134,1368.92 942.167,1362.73 946.2,1356.28 950.233,1349.55 954.265,1342.55 958.298,1335.26 962.331,1327.67 966.364,1319.8 970.396,1311.62 
  974.429,1303.14 978.462,1294.34 982.495,1285.22 986.528,1275.78 990.56,1266.01 994.593,1255.91 998.626,1245.46 1002.66,1234.67 1006.69,1223.52 1010.72,1212.04 
  1014.76,1200.24 1018.79,1188.13 1022.82,1175.74 1026.86,1163.08 1030.89,1150.16 1034.92,1137 1038.95,1123.63 1042.99,1110.05 1047.02,1096.29 1051.05,1082.36 
  1055.09,1068.28 1059.12,1054.07 1063.15,1039.73 1067.18,1025.3 1071.22,1010.78 1075.25,996.201 1079.28,981.568 1083.31,966.902 1087.35,952.221 1091.38,937.542 
  1095.41,922.88 1099.45,908.255 1103.48,893.681 1107.51,879.177 1111.54,864.759 1115.58,850.444 1119.61,836.25 1123.64,822.193 1127.68,808.291 1131.71,794.559 
  1135.74,781.016 1139.77,767.678 1143.81,754.562 1147.84,741.685 1151.87,729.065 1155.9,716.718 1159.94,704.66 1163.97,692.91 1168,681.484 1172.04,670.399 
  1176.07,659.673 1180.1,649.321 1184.13,639.361 1188.17,629.81 1192.2,620.685 1196.23,612.003 1200.27,603.782 1204.3,596.037 1208.33,588.786 1212.36,582.045 
  1216.4,575.833 1220.43,570.166 1224.46,565.06 1228.49,560.534 1232.53,556.603 1236.56,553.285 1240.59,550.597 1244.63,548.555 1248.66,547.177 1252.69,546.48 
  1256.72,546.48 1260.76,547.177 1264.79,548.555 1268.82,550.597 1272.86,553.285 1276.89,556.603 1280.92,560.534 1284.95,565.06 1288.99,570.166 1293.02,575.833 
  1297.05,582.045 1301.09,588.786 1305.12,596.037 1309.15,603.782 1313.18,612.003 1317.22,620.685 1321.25,629.81 1325.28,639.361 1329.31,649.321 1333.35,659.673 
  1337.38,670.399 1341.41,681.484 1345.45,692.91 1349.48,704.66 1353.51,716.718 1357.54,729.065 1361.58,741.685 1365.61,754.562 1369.64,767.678 1373.68,781.016 
  1377.71,794.559 1381.74,808.291 1385.77,822.193 1389.81,836.25 1393.84,850.444 1397.87,864.759 1401.9,879.177 1405.94,893.681 1409.97,908.255 1414,922.88 
  1418.04,937.542 1422.07,952.221 1426.1,966.902 1430.13,981.568 1434.17,996.201 1438.2,1010.78 1442.23,1025.3 1446.27,1039.73 1450.3,1054.07 1454.33,1068.28 
  1458.36,1082.36 1462.4,1096.29 1466.43,1110.05 1470.46,1123.63 1474.5,1137 1478.53,1150.16 1482.56,1163.08 1486.59,1175.74 1490.63,1188.13 1494.66,1200.24 
  1498.69,1212.04 1502.72,1223.52 1506.76,1234.67 1510.79,1245.46 1514.82,1255.91 1518.86,1266.01 1522.89,1275.78 1526.92,1285.22 1530.95,1294.34 1534.99,1303.14 
  1539.02,1311.62 1543.05,1319.8 1547.09,1327.67 1551.12,1335.26 1555.15,1342.55 1559.18,1349.55 1563.22,1356.28 1567.25,1362.73 1571.28,1368.92 1575.31,1374.84 
  1579.35,1380.51 1583.38,1385.93 1587.41,1391.1 1591.45,1396.04 1595.48,1400.74 1599.51,1405.21 1603.54,1409.46 1607.58,1413.49 1611.61,1417.32 1615.64,1420.94 
  1619.68,1424.35 1623.71,1427.58 1627.74,1430.61 1631.77,1433.47 1635.81,1436.14 1639.84,1438.65 1643.87,1440.99 1647.91,1443.17 1651.94,1445.19 1655.97,1447.07 
  1660,1448.81 1664.04,1450.4 1668.07,1451.87 1672.1,1453.21 1676.13,1454.43 1680.17,1455.53 1684.2,1456.53 1688.23,1457.42 1692.27,1458.21 1696.3,1458.91 
  1700.33,1459.53 1704.36,1460.07 1708.4,1460.53 1712.43,1460.92 1716.46,1461.24 1720.5,1461.51 1724.53,1461.73 1728.56,1461.9 1732.59,1462.03 1736.63,1462.12 
  1740.66,1462.19 1744.69,1462.23 1748.72,1462.25 1752.76,1462.26 1756.79,1462.26 1760.82,1462.26 1764.86,1462.26 1768.89,1462.24 1772.92,1462.21 1776.95,1462.16 
  1780.99,1462.08 1785.02,1461.97 1789.05,1461.82 1793.09,1461.63 1797.12,1461.39 1801.15,1461.09 1805.18,1460.73 1809.22,1460.31 1813.25,1459.81 1817.28,1459.23 
  1821.31,1458.57 1825.35,1457.83 1829.38,1456.98 1833.41,1456.04 1837.45,1454.99 1841.48,1453.83 1845.51,1452.55 1849.54,1451.15 1853.58,1449.62 1857.61,1447.96 
  1861.64,1446.15 1865.68,1444.2 1869.71,1442.1 1873.74,1439.84 1877.77,1437.42 1881.81,1434.83 1885.84,1432.06 1889.87,1429.12 1893.91,1425.99 1897.94,1422.67 
  1901.97,1419.15 1906,1415.43 1910.04,1411.5 1914.07,1407.36 1918.1,1403 1922.13,1398.42 1926.17,1393.6 1930.2,1388.55 1934.23,1383.25 1938.27,1377.71 
  1942.3,1371.91 1946.33,1365.86 1950.36,1359.54 1954.4,1352.95 1958.43,1346.08 1962.46,1338.94 1966.5,1331.5 1970.53,1323.77 1974.56,1315.75 1978.59,1307.42 
  1982.63,1298.78 1986.66,1289.82 1990.69,1280.54 1994.72,1270.94 1998.76,1261 2002.79,1250.73 2006.82,1240.11 2010.86,1229.14 2014.89,1217.83 2018.92,1206.18 
  2022.95,1194.22 2026.99,1181.97 2031.02,1169.44 2035.05,1156.65 2039.09,1143.61 2043.12,1130.34 2047.15,1116.87 2051.18,1103.2 2055.22,1089.35 2059.25,1075.34 
  2063.28,1061.19 2067.32,1046.91 2071.35,1032.53 2075.38,1018.05 2079.41,1003.5 2083.45,988.89 2087.48,974.238 2091.51,959.563 2095.54,944.88 2099.58,930.208 
  2103.61,915.562 2107.64,900.96 2111.68,886.419 2115.71,871.956 2119.74,857.588 2123.77,843.331 2127.81,829.204 2131.84,815.222 2135.87,801.402 2139.91,787.763 
  2143.94,774.32 2147.97,761.091 2152,748.093 2156.04,735.342 2160.07,722.856 2164.1,710.652 2168.13,698.746 2172.17,687.156 2176.2,675.898 2180.23,664.99 
  2184.27,654.449 2188.3,644.291 2192.33,634.533 2196.36,625.193 2200.4,616.288 2204.43,607.834 2208.46,599.848 2212.5,592.348 2216.53,585.351 2220.56,578.872 
  2224.59,572.93 2228.63,567.542 2232.66,562.724 2236.69,558.493 2240.73,554.866 2244.76,551.861 2248.79,549.494 2252.82,547.782 2256.86,546.743 2260.89,546.392 
  
  "/>
<polyline clip-path="url(#clip2303)" style="stroke:#ac8d18; stroke-width:4; stroke-opacity:1; fill:none" points="
  248.527,639.41 252.56,639.631 256.593,640.293 260.626,641.395 264.658,642.935 268.691,644.913 272.724,647.326 276.757,650.17 280.79,653.441 284.822,657.137 
  288.855,661.252 292.888,665.782 296.921,670.719 300.953,676.059 304.986,681.794 309.019,687.917 313.052,694.42 317.085,701.295 321.117,708.532 325.15,716.122 
  329.183,724.056 333.216,732.322 337.249,740.909 341.281,749.806 345.314,759 349.347,768.479 353.38,778.228 357.413,788.235 361.445,798.485 365.478,808.963 
  369.511,819.653 373.544,830.539 377.576,841.606 381.609,852.835 385.642,864.21 389.675,875.716 393.708,887.336 397.74,899.055 401.773,910.858 405.806,922.731 
  409.839,934.658 413.872,946.626 417.904,958.622 421.937,970.632 425.97,982.644 430.003,994.644 434.036,1006.62 438.068,1018.56 442.101,1030.46 446.134,1042.29 
  450.167,1054.06 454.199,1065.75 458.232,1077.36 462.265,1088.86 466.298,1100.26 470.331,1111.54 474.363,1122.69 478.396,1133.71 482.429,1144.59 486.462,1155.33 
  490.495,1165.9 494.527,1176.32 498.56,1186.56 502.593,1196.64 506.626,1206.53 510.659,1216.24 514.691,1225.75 518.724,1235.08 522.757,1244.2 526.79,1253.12 
  530.822,1261.84 534.855,1270.34 538.888,1278.63 542.921,1286.71 546.954,1294.58 550.986,1302.22 555.019,1309.65 559.052,1316.86 563.085,1323.84 567.118,1330.61 
  571.15,1337.15 575.183,1343.48 579.216,1349.59 583.249,1355.47 587.282,1361.15 591.314,1366.6 595.347,1371.85 599.38,1376.89 603.413,1381.72 607.445,1386.35 
  611.478,1390.78 615.511,1395.02 619.544,1399.06 623.577,1402.93 627.609,1406.61 631.642,1410.12 635.675,1413.46 639.708,1416.63 643.741,1419.65 647.773,1422.51 
  651.806,1425.23 655.839,1427.8 659.872,1430.24 663.905,1432.53 667.937,1434.7 671.97,1436.74 676.003,1438.65 680.036,1440.45 684.068,1442.13 688.101,1443.69 
  692.134,1445.14 696.167,1446.49 700.2,1447.73 704.232,1448.87 708.265,1449.9 712.298,1450.84 716.331,1451.68 720.364,1452.43 724.396,1453.08 728.429,1453.64 
  732.462,1454.11 736.495,1454.48 740.528,1454.77 744.56,1454.97 748.593,1455.08 752.626,1455.1 756.659,1455.04 760.691,1454.88 764.724,1454.64 768.757,1454.31 
  772.79,1453.88 776.823,1453.37 780.855,1452.76 784.888,1452.07 788.921,1451.27 792.954,1450.38 796.987,1449.4 801.019,1448.31 805.052,1447.12 809.085,1445.83 
  813.118,1444.43 817.15,1442.92 821.183,1441.3 825.216,1439.57 829.249,1437.71 833.282,1435.73 837.314,1433.63 841.347,1431.4 845.38,1429.04 849.413,1426.53 
  853.446,1423.89 857.478,1421.1 861.511,1418.16 865.544,1415.06 869.577,1411.81 873.61,1408.38 877.642,1404.79 881.675,1401.02 885.708,1397.06 889.741,1392.92 
  893.773,1388.59 897.806,1384.06 901.839,1379.33 905.872,1374.4 909.905,1369.25 913.937,1363.9 917.97,1358.34 922.003,1352.56 926.036,1346.56 930.069,1340.34 
  934.101,1333.91 938.134,1327.25 942.167,1320.38 946.2,1313.28 950.233,1305.96 954.265,1298.43 958.298,1290.67 962.331,1282.7 966.364,1274.51 970.396,1266.11 
  974.429,1257.5 978.462,1248.69 982.495,1239.66 986.528,1230.44 990.56,1221.02 994.593,1211.41 998.626,1201.61 1002.66,1191.62 1006.69,1181.46 1010.72,1171.13 
  1014.76,1160.63 1018.79,1149.98 1022.82,1139.17 1026.86,1128.22 1030.89,1117.13 1034.92,1105.91 1038.95,1094.57 1042.99,1083.12 1047.02,1071.57 1051.05,1059.92 
  1055.09,1048.19 1059.12,1036.38 1063.15,1024.52 1067.18,1012.6 1071.22,1000.64 1075.25,988.646 1079.28,976.639 1083.31,964.626 1087.35,952.622 1091.38,940.638 
  1095.41,928.688 1099.45,916.787 1103.48,904.947 1107.51,893.184 1111.54,881.512 1115.58,869.947 1119.61,858.505 1123.64,847.201 1127.68,836.051 1131.71,825.073 
  1135.74,814.282 1139.77,803.697 1143.81,793.331 1147.84,783.201 1151.87,773.32 1155.9,763.705 1159.94,754.367 1163.97,745.32 1168,736.576 1172.04,728.148 
  1176.07,720.047 1180.1,712.284 1184.13,704.869 1188.17,697.811 1192.2,691.121 1196.23,684.807 1200.27,678.877 1204.3,673.339 1208.33,668.2 1212.36,663.466 
  1216.4,659.143 1220.43,655.237 1224.46,651.752 1228.49,648.694 1232.53,646.065 1236.56,643.87 1240.59,642.11 1244.63,640.789 1248.66,639.907 1252.69,639.465 
  1256.72,639.465 1260.76,639.907 1264.79,640.789 1268.82,642.11 1272.86,643.87 1276.89,646.065 1280.92,648.694 1284.95,651.752 1288.99,655.237 1293.02,659.143 
  1297.05,663.466 1301.09,668.2 1305.12,673.339 1309.15,678.877 1313.18,684.807 1317.22,691.121 1321.25,697.811 1325.28,704.869 1329.31,712.284 1333.35,720.047 
  1337.38,728.148 1341.41,736.576 1345.45,745.32 1349.48,754.367 1353.51,763.705 1357.54,773.32 1361.58,783.201 1365.61,793.331 1369.64,803.697 1373.68,814.282 
  1377.71,825.073 1381.74,836.051 1385.77,847.201 1389.81,858.505 1393.84,869.947 1397.87,881.512 1401.9,893.184 1405.94,904.947 1409.97,916.787 1414,928.688 
  1418.04,940.638 1422.07,952.622 1426.1,964.626 1430.13,976.639 1434.17,988.646 1438.2,1000.64 1442.23,1012.6 1446.27,1024.52 1450.3,1036.38 1454.33,1048.19 
  1458.36,1059.92 1462.4,1071.57 1466.43,1083.12 1470.46,1094.57 1474.5,1105.91 1478.53,1117.13 1482.56,1128.22 1486.59,1139.17 1490.63,1149.98 1494.66,1160.63 
  1498.69,1171.13 1502.72,1181.46 1506.76,1191.62 1510.79,1201.61 1514.82,1211.41 1518.86,1221.02 1522.89,1230.44 1526.92,1239.66 1530.95,1248.69 1534.99,1257.5 
  1539.02,1266.11 1543.05,1274.51 1547.09,1282.7 1551.12,1290.67 1555.15,1298.43 1559.18,1305.96 1563.22,1313.28 1567.25,1320.38 1571.28,1327.25 1575.31,1333.91 
  1579.35,1340.34 1583.38,1346.56 1587.41,1352.56 1591.45,1358.34 1595.48,1363.9 1599.51,1369.25 1603.54,1374.4 1607.58,1379.33 1611.61,1384.06 1615.64,1388.59 
  1619.68,1392.92 1623.71,1397.06 1627.74,1401.02 1631.77,1404.79 1635.81,1408.38 1639.84,1411.81 1643.87,1415.06 1647.91,1418.16 1651.94,1421.1 1655.97,1423.89 
  1660,1426.53 1664.04,1429.04 1668.07,1431.4 1672.1,1433.63 1676.13,1435.73 1680.17,1437.71 1684.2,1439.57 1688.23,1441.3 1692.27,1442.92 1696.3,1444.43 
  1700.33,1445.83 1704.36,1447.12 1708.4,1448.31 1712.43,1449.4 1716.46,1450.38 1720.5,1451.27 1724.53,1452.07 1728.56,1452.76 1732.59,1453.37 1736.63,1453.88 
  1740.66,1454.31 1744.69,1454.64 1748.72,1454.88 1752.76,1455.04 1756.79,1455.1 1760.82,1455.08 1764.86,1454.97 1768.89,1454.77 1772.92,1454.48 1776.95,1454.11 
  1780.99,1453.64 1785.02,1453.08 1789.05,1452.43 1793.09,1451.68 1797.12,1450.84 1801.15,1449.9 1805.18,1448.87 1809.22,1447.73 1813.25,1446.49 1817.28,1445.14 
  1821.31,1443.69 1825.35,1442.13 1829.38,1440.45 1833.41,1438.65 1837.45,1436.74 1841.48,1434.7 1845.51,1432.53 1849.54,1430.24 1853.58,1427.8 1857.61,1425.23 
  1861.64,1422.51 1865.68,1419.65 1869.71,1416.63 1873.74,1413.46 1877.77,1410.12 1881.81,1406.61 1885.84,1402.93 1889.87,1399.06 1893.91,1395.02 1897.94,1390.78 
  1901.97,1386.35 1906,1381.72 1910.04,1376.89 1914.07,1371.85 1918.1,1366.6 1922.13,1361.15 1926.17,1355.47 1930.2,1349.59 1934.23,1343.48 1938.27,1337.15 
  1942.3,1330.61 1946.33,1323.84 1950.36,1316.86 1954.4,1309.65 1958.43,1302.22 1962.46,1294.58 1966.5,1286.71 1970.53,1278.63 1974.56,1270.34 1978.59,1261.84 
  1982.63,1253.12 1986.66,1244.2 1990.69,1235.08 1994.72,1225.75 1998.76,1216.24 2002.79,1206.53 2006.82,1196.64 2010.86,1186.56 2014.89,1176.32 2018.92,1165.9 
  2022.95,1155.33 2026.99,1144.59 2031.02,1133.71 2035.05,1122.69 2039.09,1111.54 2043.12,1100.26 2047.15,1088.86 2051.18,1077.36 2055.22,1065.75 2059.25,1054.06 
  2063.28,1042.29 2067.32,1030.46 2071.35,1018.56 2075.38,1006.62 2079.41,994.644 2083.45,982.644 2087.48,970.632 2091.51,958.622 2095.54,946.626 2099.58,934.658 
  2103.61,922.731 2107.64,910.858 2111.68,899.055 2115.71,887.336 2119.74,875.716 2123.77,864.21 2127.81,852.835 2131.84,841.606 2135.87,830.539 2139.91,819.653 
  2143.94,808.963 2147.97,798.485 2152,788.235 2156.04,778.228 2160.07,768.479 2164.1,759 2168.13,749.806 2172.17,740.909 2176.2,732.322 2180.23,724.056 
  2184.27,716.122 2188.3,708.532 2192.33,701.295 2196.36,694.42 2200.4,687.917 2204.43,681.794 2208.46,676.059 2212.5,670.719 2216.53,665.782 2220.56,661.252 
  2224.59,657.137 2228.63,653.441 2232.66,650.17 2236.69,647.326 2240.73,644.913 2244.76,642.935 2248.79,641.395 2252.82,640.293 2256.86,639.631 2260.89,639.41 
  
  "/>
<polyline clip-path="url(#clip2303)" style="stroke:#00a9ad; stroke-width:4; stroke-opacity:1; fill:none" points="
  248.527,706.669 252.56,706.846 256.593,707.375 260.626,708.256 264.658,709.488 268.691,711.069 272.724,712.997 276.757,715.268 280.79,717.88 284.822,720.828 
  288.855,724.11 292.888,727.719 296.921,731.652 300.953,735.904 304.986,740.467 309.019,745.337 313.052,750.507 317.085,755.97 321.117,761.719 325.15,767.748 
  329.183,774.048 333.216,780.611 337.249,787.43 341.281,794.496 345.314,801.801 349.347,809.336 353.38,817.091 357.413,825.058 361.445,833.227 365.478,841.589 
  369.511,850.134 373.544,858.853 377.576,867.736 381.609,876.772 385.642,885.952 389.675,895.266 393.708,904.703 397.74,914.254 401.773,923.908 405.806,933.655 
  409.839,943.484 413.872,953.387 417.904,963.352 421.937,973.369 425.97,983.429 430.003,993.521 434.036,1003.64 438.068,1013.76 442.101,1023.9 446.134,1034.02 
  450.167,1044.13 454.199,1054.22 458.232,1064.27 462.265,1074.28 466.298,1084.24 470.331,1094.14 474.363,1103.98 478.396,1113.74 482.429,1123.41 486.462,1133 
  490.495,1142.49 494.527,1151.88 498.56,1161.15 502.593,1170.32 506.626,1179.36 510.659,1188.27 514.691,1197.05 518.724,1205.7 522.757,1214.21 526.79,1222.57 
  530.822,1230.79 534.855,1238.85 538.888,1246.76 542.921,1254.52 546.954,1262.11 550.986,1269.55 555.019,1276.82 559.052,1283.92 563.085,1290.86 567.118,1297.63 
  571.15,1304.24 575.183,1310.67 579.216,1316.94 583.249,1323.03 587.282,1328.96 591.314,1334.71 595.347,1340.3 599.38,1345.72 603.413,1350.96 607.445,1356.04 
  611.478,1360.96 615.511,1365.7 619.544,1370.28 623.577,1374.7 627.609,1378.95 631.642,1383.05 635.675,1386.98 639.708,1390.76 643.741,1394.38 647.773,1397.84 
  651.806,1401.15 655.839,1404.31 659.872,1407.32 663.905,1410.19 667.937,1412.9 671.97,1415.48 676.003,1417.91 680.036,1420.2 684.068,1422.35 688.101,1424.37 
  692.134,1426.25 696.167,1428 700.2,1429.62 704.232,1431.11 708.265,1432.47 712.298,1433.71 716.331,1434.82 720.364,1435.8 724.396,1436.67 728.429,1437.41 
  732.462,1438.03 736.495,1438.53 740.528,1438.92 744.56,1439.18 748.593,1439.33 752.626,1439.36 756.659,1439.27 760.691,1439.07 764.724,1438.74 768.757,1438.3 
  772.79,1437.74 776.823,1437.05 780.855,1436.25 784.888,1435.33 788.921,1434.28 792.954,1433.11 796.987,1431.81 801.019,1430.38 805.052,1428.83 809.085,1427.14 
  813.118,1425.33 817.15,1423.38 821.183,1421.29 825.216,1419.07 829.249,1416.71 833.282,1414.21 837.314,1411.56 841.347,1408.77 845.38,1405.84 849.413,1402.75 
  853.446,1399.52 857.478,1396.13 861.511,1392.59 865.544,1388.89 869.577,1385.04 873.61,1381.02 877.642,1376.85 881.675,1372.51 885.708,1368.01 889.741,1363.35 
  893.773,1358.52 897.806,1353.52 901.839,1348.36 905.872,1343.03 909.905,1337.53 913.937,1331.86 917.97,1326.02 922.003,1320.01 926.036,1313.83 930.069,1307.48 
  934.101,1300.96 938.134,1294.27 942.167,1287.41 946.2,1280.39 950.233,1273.2 954.265,1265.85 958.298,1258.33 962.331,1250.66 966.364,1242.83 970.396,1234.84 
  974.429,1226.7 978.462,1218.41 982.495,1209.97 986.528,1201.4 990.56,1192.68 994.593,1183.83 998.626,1174.85 1002.66,1165.75 1006.69,1156.53 1010.72,1147.2 
  1014.76,1137.76 1018.79,1128.22 1022.82,1118.58 1026.86,1108.87 1030.89,1099.07 1034.92,1089.2 1038.95,1079.27 1042.99,1069.28 1047.02,1059.25 1051.05,1049.18 
  1055.09,1039.08 1059.12,1028.96 1063.15,1018.83 1067.18,1008.7 1071.22,998.577 1075.25,988.472 1079.28,978.394 1083.31,968.354 1087.35,958.362 1091.38,948.427 
  1095.41,938.56 1099.45,928.77 1103.48,919.069 1107.51,909.465 1111.54,899.97 1115.58,890.593 1119.61,881.345 1123.64,872.235 1127.68,863.275 1131.71,854.473 
  1135.74,845.839 1139.77,837.384 1143.81,829.118 1147.84,821.048 1151.87,813.186 1155.9,805.54 1159.94,798.119 1163.97,790.933 1168,783.989 1172.04,777.297 
  1176.07,770.864 1180.1,764.699 1184.13,758.809 1188.17,753.202 1192.2,747.885 1196.23,742.864 1200.27,738.147 1204.3,733.739 1208.33,729.646 1212.36,725.874 
  1216.4,722.428 1220.43,719.312 1224.46,716.531 1228.49,714.09 1232.53,711.99 1236.56,710.235 1240.59,708.829 1244.63,707.772 1248.66,707.066 1252.69,706.713 
  1256.72,706.713 1260.76,707.066 1264.79,707.772 1268.82,708.829 1272.86,710.235 1276.89,711.99 1280.92,714.09 1284.95,716.531 1288.99,719.312 1293.02,722.428 
  1297.05,725.874 1301.09,729.646 1305.12,733.739 1309.15,738.147 1313.18,742.864 1317.22,747.885 1321.25,753.202 1325.28,758.809 1329.31,764.699 1333.35,770.864 
  1337.38,777.297 1341.41,783.989 1345.45,790.933 1349.48,798.119 1353.51,805.54 1357.54,813.186 1361.58,821.048 1365.61,829.118 1369.64,837.384 1373.68,845.839 
  1377.71,854.473 1381.74,863.275 1385.77,872.235 1389.81,881.345 1393.84,890.593 1397.87,899.97 1401.9,909.465 1405.94,919.069 1409.97,928.77 1414,938.56 
  1418.04,948.427 1422.07,958.362 1426.1,968.354 1430.13,978.394 1434.17,988.472 1438.2,998.577 1442.23,1008.7 1446.27,1018.83 1450.3,1028.96 1454.33,1039.08 
  1458.36,1049.18 1462.4,1059.25 1466.43,1069.28 1470.46,1079.27 1474.5,1089.2 1478.53,1099.07 1482.56,1108.87 1486.59,1118.58 1490.63,1128.22 1494.66,1137.76 
  1498.69,1147.2 1502.72,1156.53 1506.76,1165.75 1510.79,1174.85 1514.82,1183.83 1518.86,1192.68 1522.89,1201.4 1526.92,1209.97 1530.95,1218.41 1534.99,1226.7 
  1539.02,1234.84 1543.05,1242.83 1547.09,1250.66 1551.12,1258.33 1555.15,1265.85 1559.18,1273.2 1563.22,1280.39 1567.25,1287.41 1571.28,1294.27 1575.31,1300.96 
  1579.35,1307.48 1583.38,1313.83 1587.41,1320.01 1591.45,1326.02 1595.48,1331.86 1599.51,1337.53 1603.54,1343.03 1607.58,1348.36 1611.61,1353.52 1615.64,1358.52 
  1619.68,1363.35 1623.71,1368.01 1627.74,1372.51 1631.77,1376.85 1635.81,1381.02 1639.84,1385.04 1643.87,1388.89 1647.91,1392.59 1651.94,1396.13 1655.97,1399.52 
  1660,1402.75 1664.04,1405.84 1668.07,1408.77 1672.1,1411.56 1676.13,1414.21 1680.17,1416.71 1684.2,1419.07 1688.23,1421.29 1692.27,1423.38 1696.3,1425.33 
  1700.33,1427.14 1704.36,1428.83 1708.4,1430.38 1712.43,1431.81 1716.46,1433.11 1720.5,1434.28 1724.53,1435.33 1728.56,1436.25 1732.59,1437.05 1736.63,1437.74 
  1740.66,1438.3 1744.69,1438.74 1748.72,1439.07 1752.76,1439.27 1756.79,1439.36 1760.82,1439.33 1764.86,1439.18 1768.89,1438.92 1772.92,1438.53 1776.95,1438.03 
  1780.99,1437.41 1785.02,1436.67 1789.05,1435.8 1793.09,1434.82 1797.12,1433.71 1801.15,1432.47 1805.18,1431.11 1809.22,1429.62 1813.25,1428 1817.28,1426.25 
  1821.31,1424.37 1825.35,1422.35 1829.38,1420.2 1833.41,1417.91 1837.45,1415.48 1841.48,1412.9 1845.51,1410.19 1849.54,1407.32 1853.58,1404.31 1857.61,1401.15 
  1861.64,1397.84 1865.68,1394.38 1869.71,1390.76 1873.74,1386.98 1877.77,1383.05 1881.81,1378.95 1885.84,1374.7 1889.87,1370.28 1893.91,1365.7 1897.94,1360.96 
  1901.97,1356.04 1906,1350.96 1910.04,1345.72 1914.07,1340.3 1918.1,1334.71 1922.13,1328.96 1926.17,1323.03 1930.2,1316.94 1934.23,1310.67 1938.27,1304.24 
  1942.3,1297.63 1946.33,1290.86 1950.36,1283.92 1954.4,1276.82 1958.43,1269.55 1962.46,1262.11 1966.5,1254.52 1970.53,1246.76 1974.56,1238.85 1978.59,1230.79 
  1982.63,1222.57 1986.66,1214.21 1990.69,1205.7 1994.72,1197.05 1998.76,1188.27 2002.79,1179.36 2006.82,1170.32 2010.86,1161.15 2014.89,1151.88 2018.92,1142.49 
  2022.95,1133 2026.99,1123.41 2031.02,1113.74 2035.05,1103.98 2039.09,1094.14 2043.12,1084.24 2047.15,1074.28 2051.18,1064.27 2055.22,1054.22 2059.25,1044.13 
  2063.28,1034.02 2067.32,1023.9 2071.35,1013.76 2075.38,1003.64 2079.41,993.521 2083.45,983.429 2087.48,973.369 2091.51,963.352 2095.54,953.387 2099.58,943.484 
  2103.61,933.655 2107.64,923.908 2111.68,914.254 2115.71,904.703 2119.74,895.266 2123.77,885.952 2127.81,876.772 2131.84,867.736 2135.87,858.853 2139.91,850.134 
  2143.94,841.589 2147.97,833.227 2152,825.058 2156.04,817.091 2160.07,809.336 2164.1,801.801 2168.13,794.496 2172.17,787.43 2176.2,780.611 2180.23,774.048 
  2184.27,767.748 2188.3,761.719 2192.33,755.97 2196.36,750.507 2200.4,745.337 2204.43,740.467 2208.46,735.904 2212.5,731.652 2216.53,727.719 2220.56,724.11 
  2224.59,720.828 2228.63,717.88 2232.66,715.268 2236.69,712.997 2240.73,711.069 2244.76,709.488 2248.79,708.256 2252.82,707.375 2256.86,706.846 2260.89,706.669 
  
  "/>
<polyline clip-path="url(#clip2303)" style="stroke:#ed5d92; stroke-width:4; stroke-opacity:1; fill:none" points="
  248.527,760.214 252.56,760.356 256.593,760.78 260.626,761.488 264.658,762.477 268.691,763.746 272.724,765.295 276.757,767.121 280.79,769.223 284.822,771.598 
  288.855,774.243 292.888,777.156 296.921,780.333 300.953,783.771 304.986,787.466 309.019,791.414 313.052,795.61 317.085,800.05 321.117,804.728 325.15,809.641 
  329.183,814.782 333.216,820.146 337.249,825.726 341.281,831.518 345.314,837.514 349.347,843.708 353.38,850.094 357.413,856.665 361.445,863.413 365.478,870.332 
  369.511,877.414 373.544,884.653 377.576,892.04 381.609,899.568 385.642,907.229 389.675,915.016 393.708,922.92 397.74,930.935 401.773,939.052 405.806,947.263 
  409.839,955.56 413.872,963.937 417.904,972.384 421.937,980.894 425.97,989.459 430.003,998.073 434.036,1006.73 438.068,1015.41 442.101,1024.12 446.134,1032.85 
  450.167,1041.59 454.199,1050.33 458.232,1059.07 462.265,1067.8 466.298,1076.51 470.331,1085.19 474.363,1093.85 478.396,1102.47 482.429,1111.04 486.462,1119.57 
  490.495,1128.04 494.527,1136.45 498.56,1144.8 502.593,1153.07 506.626,1161.27 510.659,1169.38 514.691,1177.41 518.724,1185.34 522.757,1193.19 526.79,1200.93 
  530.822,1208.56 534.855,1216.09 538.888,1223.51 542.921,1230.82 546.954,1238 550.986,1245.07 555.019,1252.01 559.052,1258.82 563.085,1265.51 567.118,1272.06 
  571.15,1278.48 575.183,1284.76 579.216,1290.91 583.249,1296.91 587.282,1302.78 591.314,1308.51 595.347,1314.09 599.38,1319.53 603.413,1324.82 607.445,1329.97 
  611.478,1334.97 615.511,1339.82 619.544,1344.53 623.577,1349.09 627.609,1353.51 631.642,1357.77 635.675,1361.89 639.708,1365.87 643.741,1369.69 647.773,1373.37 
  651.806,1376.91 655.839,1380.3 659.872,1383.54 663.905,1386.64 667.937,1389.59 671.97,1392.4 676.003,1395.07 680.036,1397.6 684.068,1399.98 688.101,1402.22 
  692.134,1404.32 696.167,1406.28 700.2,1408.1 704.232,1409.78 708.265,1411.32 712.298,1412.72 716.331,1413.99 720.364,1415.12 724.396,1416.11 728.429,1416.96 
  732.462,1417.67 736.495,1418.25 740.528,1418.7 744.56,1419 748.593,1419.17 752.626,1419.21 756.659,1419.1 760.691,1418.87 764.724,1418.49 768.757,1417.98 
  772.79,1417.33 776.823,1416.55 780.855,1415.63 784.888,1414.57 788.921,1413.37 792.954,1412.04 796.987,1410.57 801.019,1408.96 805.052,1407.21 809.085,1405.32 
  813.118,1403.29 817.15,1401.12 821.183,1398.8 825.216,1396.35 829.249,1393.75 833.282,1391.02 837.314,1388.13 841.347,1385.11 845.38,1381.94 849.413,1378.62 
  853.446,1375.16 857.478,1371.55 861.511,1367.8 865.544,1363.9 869.577,1359.85 873.61,1355.66 877.642,1351.32 881.675,1346.83 885.708,1342.2 889.741,1337.41 
  893.773,1332.49 897.806,1327.41 901.839,1322.19 905.872,1316.82 909.905,1311.31 913.937,1305.66 917.97,1299.87 922.003,1293.93 926.036,1287.85 930.069,1281.64 
  934.101,1275.28 938.134,1268.8 942.167,1262.18 946.2,1255.43 950.233,1248.55 954.265,1241.55 958.298,1234.42 962.331,1227.18 966.364,1219.82 970.396,1212.34 
  974.429,1204.76 978.462,1197.07 982.495,1189.28 986.528,1181.39 990.56,1173.41 994.593,1165.33 998.626,1157.18 1002.66,1148.94 1006.69,1140.63 1010.72,1132.26 
  1014.76,1123.81 1018.79,1115.31 1022.82,1106.76 1026.86,1098.16 1030.89,1089.53 1034.92,1080.85 1038.95,1072.16 1042.99,1063.44 1047.02,1054.7 1051.05,1045.96 
  1055.09,1037.22 1059.12,1028.48 1063.15,1019.76 1067.18,1011.06 1071.22,1002.39 1075.25,993.76 1079.28,985.17 1083.31,976.631 1087.35,968.152 1091.38,959.739 
  1095.41,951.401 1099.45,943.146 1103.48,934.981 1107.51,926.914 1111.54,918.954 1115.58,911.107 1119.61,903.382 1123.64,895.787 1127.68,888.328 1131.71,881.015 
  1135.74,873.853 1139.77,866.852 1143.81,860.017 1147.84,853.357 1151.87,846.878 1155.9,840.587 1159.94,834.491 1163.97,828.596 1168,822.909 1172.04,817.436 
  1176.07,812.183 1180.1,807.156 1184.13,802.359 1188.17,797.799 1192.2,793.481 1196.23,789.409 1200.27,785.587 1204.3,782.02 1208.33,778.712 1212.36,775.667 
  1216.4,772.887 1220.43,770.377 1224.46,768.138 1228.49,766.174 1232.53,764.486 1236.56,763.076 1240.59,761.947 1244.63,761.099 1248.66,760.533 1252.69,760.25 
  1256.72,760.25 1260.76,760.533 1264.79,761.099 1268.82,761.947 1272.86,763.076 1276.89,764.486 1280.92,766.174 1284.95,768.138 1288.99,770.377 1293.02,772.887 
  1297.05,775.667 1301.09,778.712 1305.12,782.02 1309.15,785.587 1313.18,789.409 1317.22,793.481 1321.25,797.799 1325.28,802.359 1329.31,807.156 1333.35,812.183 
  1337.38,817.436 1341.41,822.909 1345.45,828.596 1349.48,834.491 1353.51,840.587 1357.54,846.878 1361.58,853.357 1365.61,860.017 1369.64,866.852 1373.68,873.853 
  1377.71,881.015 1381.74,888.328 1385.77,895.787 1389.81,903.382 1393.84,911.107 1397.87,918.954 1401.9,926.914 1405.94,934.981 1409.97,943.146 1414,951.401 
  1418.04,959.739 1422.07,968.152 1426.1,976.631 1430.13,985.17 1434.17,993.76 1438.2,1002.39 1442.23,1011.06 1446.27,1019.76 1450.3,1028.48 1454.33,1037.22 
  1458.36,1045.96 1462.4,1054.7 1466.43,1063.44 1470.46,1072.16 1474.5,1080.85 1478.53,1089.53 1482.56,1098.16 1486.59,1106.76 1490.63,1115.31 1494.66,1123.81 
  1498.69,1132.26 1502.72,1140.63 1506.76,1148.94 1510.79,1157.18 1514.82,1165.33 1518.86,1173.41 1522.89,1181.39 1526.92,1189.28 1530.95,1197.07 1534.99,1204.76 
  1539.02,1212.34 1543.05,1219.82 1547.09,1227.18 1551.12,1234.42 1555.15,1241.55 1559.18,1248.55 1563.22,1255.43 1567.25,1262.18 1571.28,1268.8 1575.31,1275.28 
  1579.35,1281.64 1583.38,1287.85 1587.41,1293.93 1591.45,1299.87 1595.48,1305.66 1599.51,1311.31 1603.54,1316.82 1607.58,1322.19 1611.61,1327.41 1615.64,1332.49 
  1619.68,1337.41 1623.71,1342.2 1627.74,1346.83 1631.77,1351.32 1635.81,1355.66 1639.84,1359.85 1643.87,1363.9 1647.91,1367.8 1651.94,1371.55 1655.97,1375.16 
  1660,1378.62 1664.04,1381.94 1668.07,1385.11 1672.1,1388.13 1676.13,1391.02 1680.17,1393.75 1684.2,1396.35 1688.23,1398.8 1692.27,1401.12 1696.3,1403.29 
  1700.33,1405.32 1704.36,1407.21 1708.4,1408.96 1712.43,1410.57 1716.46,1412.04 1720.5,1413.37 1724.53,1414.57 1728.56,1415.63 1732.59,1416.55 1736.63,1417.33 
  1740.66,1417.98 1744.69,1418.49 1748.72,1418.87 1752.76,1419.1 1756.79,1419.21 1760.82,1419.17 1764.86,1419 1768.89,1418.7 1772.92,1418.25 1776.95,1417.67 
  1780.99,1416.96 1785.02,1416.11 1789.05,1415.12 1793.09,1413.99 1797.12,1412.72 1801.15,1411.32 1805.18,1409.78 1809.22,1408.1 1813.25,1406.28 1817.28,1404.32 
  1821.31,1402.22 1825.35,1399.98 1829.38,1397.6 1833.41,1395.07 1837.45,1392.4 1841.48,1389.59 1845.51,1386.64 1849.54,1383.54 1853.58,1380.3 1857.61,1376.91 
  1861.64,1373.37 1865.68,1369.69 1869.71,1365.87 1873.74,1361.89 1877.77,1357.77 1881.81,1353.51 1885.84,1349.09 1889.87,1344.53 1893.91,1339.82 1897.94,1334.97 
  1901.97,1329.97 1906,1324.82 1910.04,1319.53 1914.07,1314.09 1918.1,1308.51 1922.13,1302.78 1926.17,1296.91 1930.2,1290.91 1934.23,1284.76 1938.27,1278.48 
  1942.3,1272.06 1946.33,1265.51 1950.36,1258.82 1954.4,1252.01 1958.43,1245.07 1962.46,1238 1966.5,1230.82 1970.53,1223.51 1974.56,1216.09 1978.59,1208.56 
  1982.63,1200.93 1986.66,1193.19 1990.69,1185.34 1994.72,1177.41 1998.76,1169.38 2002.79,1161.27 2006.82,1153.07 2010.86,1144.8 2014.89,1136.45 2018.92,1128.04 
  2022.95,1119.57 2026.99,1111.04 2031.02,1102.47 2035.05,1093.85 2039.09,1085.19 2043.12,1076.51 2047.15,1067.8 2051.18,1059.07 2055.22,1050.33 2059.25,1041.59 
  2063.28,1032.85 2067.32,1024.12 2071.35,1015.41 2075.38,1006.73 2079.41,998.073 2083.45,989.459 2087.48,980.894 2091.51,972.384 2095.54,963.937 2099.58,955.56 
  2103.61,947.263 2107.64,939.052 2111.68,930.935 2115.71,922.92 2119.74,915.016 2123.77,907.229 2127.81,899.568 2131.84,892.04 2135.87,884.653 2139.91,877.414 
  2143.94,870.332 2147.97,863.413 2152,856.665 2156.04,850.094 2160.07,843.708 2164.1,837.514 2168.13,831.518 2172.17,825.726 2176.2,820.146 2180.23,814.782 
  2184.27,809.641 2188.3,804.728 2192.33,800.05 2196.36,795.61 2200.4,791.414 2204.43,787.466 2208.46,783.771 2212.5,780.333 2216.53,777.156 2220.56,774.243 
  2224.59,771.598 2228.63,769.223 2232.66,767.121 2236.69,765.295 2240.73,763.746 2244.76,762.477 2248.79,761.488 2252.82,760.78 2256.86,760.356 2260.89,760.214 
  
  "/>
</svg>
