<?xml version="1.0" encoding="utf-8"?>
<svg xmlns="http://www.w3.org/2000/svg" xmlns:xlink="http://www.w3.org/1999/xlink" width="600" height="400" viewBox="0 0 600 400">
<defs>
  <clipPath id="clip9200">
    <rect x="0" y="0" width="600" height="400"/>
  </clipPath>
</defs>
<polygon clip-path="url(#clip9200)" points="
0,400 600,400 600,0 0,0 
  " fill="#ffffff" fill-opacity="1"/>
<defs>
  <clipPath id="clip9201">
    <rect x="120" y="0" width="421" height="400"/>
  </clipPath>
</defs>
<polygon clip-path="url(#clip9200)" points="
47.0391,375.869 580.315,375.869 580.315,11.811 47.0391,11.811 
  " fill="#ffffff" fill-opacity="1"/>
<defs>
  <clipPath id="clip9202">
    <rect x="47" y="11" width="534" height="365"/>
  </clipPath>
</defs>
<polyline clip-path="url(#clip9202)" style="stroke:#000000; stroke-width:0.5; stroke-opacity:0.1; fill:none" points="
  104.056,375.869 104.056,11.811 
  "/>
<polyline clip-path="url(#clip9202)" style="stroke:#000000; stroke-width:0.5; stroke-opacity:0.1; fill:none" points="
  208.867,375.869 208.867,11.811 
  "/>
<polyline clip-path="url(#clip9202)" style="stroke:#000000; stroke-width:0.5; stroke-opacity:0.1; fill:none" points="
  313.677,375.869 313.677,11.811 
  "/>
<polyline clip-path="url(#clip9202)" style="stroke:#000000; stroke-width:0.5; stroke-opacity:0.1; fill:none" points="
  418.488,375.869 418.488,11.811 
  "/>
<polyline clip-path="url(#clip9202)" style="stroke:#000000; stroke-width:0.5; stroke-opacity:0.1; fill:none" points="
  523.298,375.869 523.298,11.811 
  "/>
<polyline clip-path="url(#clip9202)" style="stroke:#000000; stroke-width:0.5; stroke-opacity:0.1; fill:none" points="
  47.0391,365.565 580.315,365.565 
  "/>
<polyline clip-path="url(#clip9202)" style="stroke:#000000; stroke-width:0.5; stroke-opacity:0.1; fill:none" points="
  47.0391,279.703 580.315,279.703 
  "/>
<polyline clip-path="url(#clip9202)" style="stroke:#000000; stroke-width:0.5; stroke-opacity:0.1; fill:none" points="
  47.0391,193.84 580.315,193.84 
  "/>
<polyline clip-path="url(#clip9202)" style="stroke:#000000; stroke-width:0.5; stroke-opacity:0.1; fill:none" points="
  47.0391,107.977 580.315,107.977 
  "/>
<polyline clip-path="url(#clip9202)" style="stroke:#000000; stroke-width:0.5; stroke-opacity:0.1; fill:none" points="
  47.0391,22.1145 580.315,22.1145 
  "/>
<polyline clip-path="url(#clip9200)" style="stroke:#000000; stroke-width:1; stroke-opacity:1; fill:none" points="
  47.0391,375.869 580.315,375.869 
  "/>
<polyline clip-path="url(#clip9200)" style="stroke:#000000; stroke-width:1; stroke-opacity:1; fill:none" points="
  47.0391,375.869 47.0391,11.811 
  "/>
<polyline clip-path="url(#clip9200)" style="stroke:#000000; stroke-width:1; stroke-opacity:1; fill:none" points="
  104.056,375.869 104.056,370.408 
  "/>
<polyline clip-path="url(#clip9200)" style="stroke:#000000; stroke-width:1; stroke-opacity:1; fill:none" points="
  208.867,375.869 208.867,370.408 
  "/>
<polyline clip-path="url(#clip9200)" style="stroke:#000000; stroke-width:1; stroke-opacity:1; fill:none" points="
  313.677,375.869 313.677,370.408 
  "/>
<polyline clip-path="url(#clip9200)" style="stroke:#000000; stroke-width:1; stroke-opacity:1; fill:none" points="
  418.488,375.869 418.488,370.408 
  "/>
<polyline clip-path="url(#clip9200)" style="stroke:#000000; stroke-width:1; stroke-opacity:1; fill:none" points="
  523.298,375.869 523.298,370.408 
  "/>
<polyline clip-path="url(#clip9200)" style="stroke:#000000; stroke-width:1; stroke-opacity:1; fill:none" points="
  47.0391,365.565 55.0382,365.565 
  "/>
<polyline clip-path="url(#clip9200)" style="stroke:#000000; stroke-width:1; stroke-opacity:1; fill:none" points="
  47.0391,279.703 55.0382,279.703 
  "/>
<polyline clip-path="url(#clip9200)" style="stroke:#000000; stroke-width:1; stroke-opacity:1; fill:none" points="
  47.0391,193.84 55.0382,193.84 
  "/>
<polyline clip-path="url(#clip9200)" style="stroke:#000000; stroke-width:1; stroke-opacity:1; fill:none" points="
  47.0391,107.977 55.0382,107.977 
  "/>
<polyline clip-path="url(#clip9200)" style="stroke:#000000; stroke-width:1; stroke-opacity:1; fill:none" points="
  47.0391,22.1145 55.0382,22.1145 
  "/>
<g clip-path="url(#clip9200)">
<text style="fill:#000000; fill-opacity:1; font-family:Arial,Helvetica Neue,Helvetica,sans-serif; font-size:12; text-anchor:middle;" transform="rotate(0, 104.056, 389.669)" x="104.056" y="389.669">0.0</text>
</g>
<g clip-path="url(#clip9200)">
<text style="fill:#000000; fill-opacity:1; font-family:Arial,Helvetica Neue,Helvetica,sans-serif; font-size:12; text-anchor:middle;" transform="rotate(0, 208.867, 389.669)" x="208.867" y="389.669">2.5</text>
</g>
<g clip-path="url(#clip9200)">
<text style="fill:#000000; fill-opacity:1; font-family:Arial,Helvetica Neue,Helvetica,sans-serif; font-size:12; text-anchor:middle;" transform="rotate(0, 313.677, 389.669)" x="313.677" y="389.669">5.0</text>
</g>
<g clip-path="url(#clip9200)">
<text style="fill:#000000; fill-opacity:1; font-family:Arial,Helvetica Neue,Helvetica,sans-serif; font-size:12; text-anchor:middle;" transform="rotate(0, 418.488, 389.669)" x="418.488" y="389.669">7.5</text>
</g>
<g clip-path="url(#clip9200)">
<text style="fill:#000000; fill-opacity:1; font-family:Arial,Helvetica Neue,Helvetica,sans-serif; font-size:12; text-anchor:middle;" transform="rotate(0, 523.298, 389.669)" x="523.298" y="389.669">10.0</text>
</g>
<g clip-path="url(#clip9200)">
<text style="fill:#000000; fill-opacity:1; font-family:Arial,Helvetica Neue,Helvetica,sans-serif; font-size:12; text-anchor:end;" transform="rotate(0, 41.0391, 370.065)" x="41.0391" y="370.065">0.00</text>
</g>
<g clip-path="url(#clip9200)">
<text style="fill:#000000; fill-opacity:1; font-family:Arial,Helvetica Neue,Helvetica,sans-serif; font-size:12; text-anchor:end;" transform="rotate(0, 41.0391, 284.203)" x="41.0391" y="284.203">0.25</text>
</g>
<g clip-path="url(#clip9200)">
<text style="fill:#000000; fill-opacity:1; font-family:Arial,Helvetica Neue,Helvetica,sans-serif; font-size:12; text-anchor:end;" transform="rotate(0, 41.0391, 198.34)" x="41.0391" y="198.34">0.50</text>
</g>
<g clip-path="url(#clip9200)">
<text style="fill:#000000; fill-opacity:1; font-family:Arial,Helvetica Neue,Helvetica,sans-serif; font-size:12; text-anchor:end;" transform="rotate(0, 41.0391, 112.477)" x="41.0391" y="112.477">0.75</text>
</g>
<g clip-path="url(#clip9200)">
<text style="fill:#000000; fill-opacity:1; font-family:Arial,Helvetica Neue,Helvetica,sans-serif; font-size:12; text-anchor:end;" transform="rotate(0, 41.0391, 26.6145)" x="41.0391" y="26.6145">1.00</text>
</g>
<polyline clip-path="url(#clip9202)" style="stroke:#009af9; stroke-width:1; stroke-opacity:1; fill:none" points="
  62.1318,365.565 63.14,365.565 64.1482,365.565 65.1564,365.565 66.1646,365.565 67.1728,365.565 68.181,365.565 69.1892,365.565 70.1974,365.565 71.2056,365.565 
  72.2138,365.565 73.222,365.565 74.2302,365.565 75.2384,365.565 76.2466,365.565 77.2548,365.565 78.263,365.565 79.2712,365.565 80.2794,365.565 81.2876,365.565 
  82.2958,365.565 83.304,365.565 84.3121,365.565 85.3203,365.565 86.3285,365.565 87.3367,365.565 88.3449,365.565 89.3531,365.565 90.3613,365.565 91.3695,365.565 
  92.3777,365.565 93.3859,365.565 94.3941,365.565 95.4023,365.565 96.4105,365.565 97.4187,365.565 98.4269,365.565 99.4351,365.565 100.443,365.565 101.452,365.565 
  102.46,365.565 103.468,365.565 104.476,22.1145 105.484,22.1145 106.492,22.1145 107.501,22.1145 108.509,22.1145 109.517,22.1145 110.525,22.1145 111.533,22.1145 
  112.542,22.1145 113.55,22.1145 114.558,22.1145 115.566,22.1145 116.574,22.1145 117.583,22.1145 118.591,22.1145 119.599,22.1145 120.607,22.1145 121.615,22.1145 
  122.624,22.1145 123.632,22.1145 124.64,22.1145 125.648,22.1145 126.656,22.1145 127.665,22.1145 128.673,22.1145 129.681,22.1145 130.689,22.1145 131.697,22.1145 
  132.706,22.1145 133.714,22.1145 134.722,22.1145 135.73,22.1145 136.738,22.1145 137.747,22.1145 138.755,22.1145 139.763,22.1145 140.771,22.1145 141.779,22.1145 
  142.788,22.1145 143.796,22.1145 144.804,22.1145 145.812,22.1145 146.82,365.565 147.829,365.565 148.837,365.565 149.845,365.565 150.853,365.565 151.861,365.565 
  152.87,365.565 153.878,365.565 154.886,365.565 155.894,365.565 156.902,365.565 157.911,365.565 158.919,365.565 159.927,365.565 160.935,365.565 161.943,365.565 
  162.952,365.565 163.96,365.565 164.968,365.565 165.976,365.565 166.984,365.565 167.993,365.565 169.001,365.565 170.009,365.565 171.017,365.565 172.025,365.565 
  173.034,365.565 174.042,365.565 175.05,365.565 176.058,365.565 177.066,365.565 178.074,365.565 179.083,365.565 180.091,365.565 181.099,365.565 182.107,365.565 
  183.115,365.565 184.124,365.565 185.132,365.565 186.14,365.565 187.148,365.565 188.156,365.565 189.165,365.565 190.173,365.565 191.181,365.565 192.189,365.565 
  193.197,365.565 194.206,365.565 195.214,365.565 196.222,365.565 197.23,365.565 198.238,365.565 199.247,365.565 200.255,365.565 201.263,365.565 202.271,365.565 
  203.279,365.565 204.288,365.565 205.296,365.565 206.304,365.565 207.312,365.565 208.32,365.565 209.329,365.565 210.337,365.565 211.345,365.565 212.353,365.565 
  213.361,365.565 214.37,365.565 215.378,365.565 216.386,365.565 217.394,365.565 218.402,365.565 219.411,365.565 220.419,365.565 221.427,365.565 222.435,365.565 
  223.443,365.565 224.452,365.565 225.46,365.565 226.468,365.565 227.476,365.565 228.484,365.565 229.493,365.565 230.501,365.565 231.509,365.565 232.517,365.565 
  233.525,365.565 234.534,365.565 235.542,365.565 236.55,365.565 237.558,365.565 238.566,365.565 239.575,365.565 240.583,365.565 241.591,365.565 242.599,365.565 
  243.607,365.565 244.616,365.565 245.624,365.565 246.632,365.565 247.64,365.565 248.648,365.565 249.657,365.565 250.665,365.565 251.673,365.565 252.681,365.565 
  253.689,365.565 254.697,365.565 255.706,365.565 256.714,365.565 257.722,365.565 258.73,365.565 259.738,365.565 260.747,365.565 261.755,365.565 262.763,365.565 
  263.771,365.565 264.779,365.565 265.788,365.565 266.796,365.565 267.804,365.565 268.812,365.565 269.82,365.565 270.829,365.565 271.837,365.565 272.845,365.565 
  273.853,365.565 274.861,365.565 275.87,365.565 276.878,365.565 277.886,365.565 278.894,365.565 279.902,365.565 280.911,365.565 281.919,365.565 282.927,365.565 
  283.935,365.565 284.943,365.565 285.952,365.565 286.96,365.565 287.968,365.565 288.976,365.565 289.984,365.565 290.993,365.565 292.001,365.565 293.009,365.565 
  294.017,365.565 295.025,365.565 296.034,365.565 297.042,365.565 298.05,365.565 299.058,365.565 300.066,365.565 301.075,365.565 302.083,365.565 303.091,365.565 
  304.099,365.565 305.107,365.565 306.116,365.565 307.124,365.565 308.132,365.565 309.14,365.565 310.148,365.565 311.157,365.565 312.165,365.565 313.173,365.565 
  314.181,365.565 315.189,365.565 316.198,365.565 317.206,365.565 318.214,365.565 319.222,365.565 320.23,365.565 321.239,365.565 322.247,365.565 323.255,365.565 
  324.263,365.565 325.271,365.565 326.279,365.565 327.288,365.565 328.296,365.565 329.304,365.565 330.312,365.565 331.32,365.565 332.329,365.565 333.337,365.565 
  334.345,365.565 335.353,365.565 336.361,365.565 337.37,365.565 338.378,365.565 339.386,365.565 340.394,365.565 341.402,365.565 342.411,365.565 343.419,365.565 
  344.427,365.565 345.435,365.565 346.443,365.565 347.452,365.565 348.46,365.565 349.468,365.565 350.476,365.565 351.484,365.565 352.493,365.565 353.501,365.565 
  354.509,365.565 355.517,365.565 356.525,365.565 357.534,365.565 358.542,365.565 359.55,365.565 360.558,365.565 361.566,365.565 362.575,365.565 363.583,365.565 
  364.591,365.565 365.599,365.565 366.607,365.565 367.616,365.565 368.624,365.565 369.632,365.565 370.64,365.565 371.648,365.565 372.657,365.565 373.665,365.565 
  374.673,365.565 375.681,365.565 376.689,365.565 377.698,365.565 378.706,365.565 379.714,365.565 380.722,365.565 381.73,365.565 382.739,365.565 383.747,365.565 
  384.755,365.565 385.763,365.565 386.771,365.565 387.78,365.565 388.788,365.565 389.796,365.565 390.804,365.565 391.812,365.565 392.821,365.565 393.829,365.565 
  394.837,365.565 395.845,365.565 396.853,365.565 397.861,365.565 398.87,365.565 399.878,365.565 400.886,365.565 401.894,365.565 402.902,365.565 403.911,365.565 
  404.919,365.565 405.927,365.565 406.935,365.565 407.943,365.565 408.952,365.565 409.96,365.565 410.968,365.565 411.976,365.565 412.984,365.565 413.993,365.565 
  415.001,365.565 416.009,365.565 417.017,365.565 418.025,365.565 419.034,365.565 420.042,365.565 421.05,365.565 422.058,365.565 423.066,365.565 424.075,365.565 
  425.083,365.565 426.091,365.565 427.099,365.565 428.107,365.565 429.116,365.565 430.124,365.565 431.132,365.565 432.14,365.565 433.148,365.565 434.157,365.565 
  435.165,365.565 436.173,365.565 437.181,365.565 438.189,365.565 439.198,365.565 440.206,365.565 441.214,365.565 442.222,365.565 443.23,365.565 444.239,365.565 
  445.247,365.565 446.255,365.565 447.263,365.565 448.271,365.565 449.28,365.565 450.288,365.565 451.296,365.565 452.304,365.565 453.312,365.565 454.321,365.565 
  455.329,365.565 456.337,365.565 457.345,365.565 458.353,365.565 459.362,365.565 460.37,365.565 461.378,365.565 462.386,365.565 463.394,365.565 464.403,365.565 
  465.411,365.565 466.419,365.565 467.427,365.565 468.435,365.565 469.444,365.565 470.452,365.565 471.46,365.565 472.468,365.565 473.476,365.565 474.484,365.565 
  475.493,365.565 476.501,365.565 477.509,365.565 478.517,365.565 479.525,365.565 480.534,365.565 481.542,365.565 482.55,365.565 483.558,365.565 484.566,365.565 
  485.575,365.565 486.583,365.565 487.591,365.565 488.599,365.565 489.607,365.565 490.616,365.565 491.624,365.565 492.632,365.565 493.64,365.565 494.648,365.565 
  495.657,365.565 496.665,365.565 497.673,365.565 498.681,365.565 499.689,365.565 500.698,365.565 501.706,365.565 502.714,365.565 503.722,365.565 504.73,365.565 
  505.739,365.565 506.747,365.565 507.755,365.565 508.763,365.565 509.771,365.565 510.78,365.565 511.788,365.565 512.796,365.565 513.804,365.565 514.812,365.565 
  515.821,365.565 516.829,365.565 517.837,365.565 518.845,365.565 519.853,365.565 520.862,365.565 521.87,365.565 522.878,365.565 523.886,365.565 524.894,365.565 
  525.903,365.565 526.911,365.565 527.919,365.565 528.927,365.565 529.935,365.565 530.944,365.565 531.952,365.565 532.96,365.565 533.968,365.565 534.976,365.565 
  535.985,365.565 536.993,365.565 538.001,365.565 539.009,365.565 540.017,365.565 541.026,365.565 542.034,365.565 543.042,365.565 544.05,365.565 545.058,365.565 
  546.066,365.565 547.075,365.565 548.083,365.565 549.091,365.565 550.099,365.565 551.107,365.565 552.116,365.565 553.124,365.565 554.132,365.565 555.14,365.565 
  556.148,365.565 557.157,365.565 558.165,365.565 559.173,365.565 560.181,365.565 561.189,365.565 562.198,365.565 563.206,365.565 564.214,365.565 565.222,365.565 
  
  "/>
<polyline clip-path="url(#clip9202)" style="stroke:#e26f46; stroke-width:1; stroke-opacity:1; fill:none" points="
  62.1318,365.565 63.14,365.565 64.1482,365.565 65.1564,365.565 66.1646,365.565 67.1728,365.565 68.181,365.565 69.1892,365.565 70.1974,365.565 71.2056,365.565 
  72.2138,365.565 73.222,365.565 74.2302,365.565 75.2384,365.565 76.2466,365.565 77.2548,365.565 78.263,365.565 79.2712,365.565 80.2794,365.565 81.2876,365.565 
  82.2958,365.565 83.304,365.565 84.3121,365.565 85.3203,365.565 86.3285,365.565 87.3367,365.565 88.3449,365.565 89.3531,365.565 90.3613,365.565 91.3695,365.565 
  92.3777,365.565 93.3859,365.565 94.3941,365.565 95.4023,365.565 96.4105,365.565 97.4187,365.565 98.4269,365.565 99.4351,365.565 100.443,365.565 101.452,365.565 
  102.46,365.565 103.468,365.565 104.476,362.124 105.484,353.864 106.492,345.605 107.501,337.346 108.509,329.086 109.517,320.827 110.525,312.568 111.533,304.308 
  112.542,296.049 113.55,287.79 114.558,279.53 115.566,271.271 116.574,263.012 117.583,254.752 118.591,246.493 119.599,238.234 120.607,229.974 121.615,221.715 
  122.624,213.456 123.632,205.196 124.64,196.937 125.648,188.678 126.656,180.418 127.665,172.159 128.673,163.9 129.681,155.64 130.689,147.381 131.697,139.122 
  132.706,130.862 133.714,122.603 134.722,114.344 135.73,106.084 136.738,97.8251 137.747,89.5658 138.755,81.3064 139.763,73.0471 140.771,64.7878 141.779,56.5284 
  142.788,48.2691 143.796,40.0098 144.804,31.7504 145.812,23.4911 146.82,28.9973 147.829,37.2567 148.837,45.516 149.845,53.7753 150.853,62.0347 151.861,70.294 
  152.87,78.5533 153.878,86.8127 154.886,95.072 155.894,103.331 156.902,111.591 157.911,119.85 158.919,128.109 159.927,136.369 160.935,144.628 161.943,152.887 
  162.952,161.147 163.96,169.406 164.968,177.665 165.976,185.925 166.984,194.184 167.993,202.443 169.001,210.703 170.009,218.962 171.017,227.221 172.025,235.481 
  173.034,243.74 174.042,251.999 175.05,260.259 176.058,268.518 177.066,276.777 178.074,285.037 179.083,293.296 180.091,301.555 181.099,309.815 182.107,318.074 
  183.115,326.333 184.124,334.593 185.132,342.852 186.14,351.111 187.148,359.371 188.156,365.565 189.165,365.565 190.173,365.565 191.181,365.565 192.189,365.565 
  193.197,365.565 194.206,365.565 195.214,365.565 196.222,365.565 197.23,365.565 198.238,365.565 199.247,365.565 200.255,365.565 201.263,365.565 202.271,365.565 
  203.279,365.565 204.288,365.565 205.296,365.565 206.304,365.565 207.312,365.565 208.32,365.565 209.329,365.565 210.337,365.565 211.345,365.565 212.353,365.565 
  213.361,365.565 214.37,365.565 215.378,365.565 216.386,365.565 217.394,365.565 218.402,365.565 219.411,365.565 220.419,365.565 221.427,365.565 222.435,365.565 
  223.443,365.565 224.452,365.565 225.46,365.565 226.468,365.565 227.476,365.565 228.484,365.565 229.493,365.565 230.501,365.565 231.509,365.565 232.517,365.565 
  233.525,365.565 234.534,365.565 235.542,365.565 236.55,365.565 237.558,365.565 238.566,365.565 239.575,365.565 240.583,365.565 241.591,365.565 242.599,365.565 
  243.607,365.565 244.616,365.565 245.624,365.565 246.632,365.565 247.64,365.565 248.648,365.565 249.657,365.565 250.665,365.565 251.673,365.565 252.681,365.565 
  253.689,365.565 254.697,365.565 255.706,365.565 256.714,365.565 257.722,365.565 258.73,365.565 259.738,365.565 260.747,365.565 261.755,365.565 262.763,365.565 
  263.771,365.565 264.779,365.565 265.788,365.565 266.796,365.565 267.804,365.565 268.812,365.565 269.82,365.565 270.829,365.565 271.837,365.565 272.845,365.565 
  273.853,365.565 274.861,365.565 275.87,365.565 276.878,365.565 277.886,365.565 278.894,365.565 279.902,365.565 280.911,365.565 281.919,365.565 282.927,365.565 
  283.935,365.565 284.943,365.565 285.952,365.565 286.96,365.565 287.968,365.565 288.976,365.565 289.984,365.565 290.993,365.565 292.001,365.565 293.009,365.565 
  294.017,365.565 295.025,365.565 296.034,365.565 297.042,365.565 298.05,365.565 299.058,365.565 300.066,365.565 301.075,365.565 302.083,365.565 303.091,365.565 
  304.099,365.565 305.107,365.565 306.116,365.565 307.124,365.565 308.132,365.565 309.14,365.565 310.148,365.565 311.157,365.565 312.165,365.565 313.173,365.565 
  314.181,365.565 315.189,365.565 316.198,365.565 317.206,365.565 318.214,365.565 319.222,365.565 320.23,365.565 321.239,365.565 322.247,365.565 323.255,365.565 
  324.263,365.565 325.271,365.565 326.279,365.565 327.288,365.565 328.296,365.565 329.304,365.565 330.312,365.565 331.32,365.565 332.329,365.565 333.337,365.565 
  334.345,365.565 335.353,365.565 336.361,365.565 337.37,365.565 338.378,365.565 339.386,365.565 340.394,365.565 341.402,365.565 342.411,365.565 343.419,365.565 
  344.427,365.565 345.435,365.565 346.443,365.565 347.452,365.565 348.46,365.565 349.468,365.565 350.476,365.565 351.484,365.565 352.493,365.565 353.501,365.565 
  354.509,365.565 355.517,365.565 356.525,365.565 357.534,365.565 358.542,365.565 359.55,365.565 360.558,365.565 361.566,365.565 362.575,365.565 363.583,365.565 
  364.591,365.565 365.599,365.565 366.607,365.565 367.616,365.565 368.624,365.565 369.632,365.565 370.64,365.565 371.648,365.565 372.657,365.565 373.665,365.565 
  374.673,365.565 375.681,365.565 376.689,365.565 377.698,365.565 378.706,365.565 379.714,365.565 380.722,365.565 381.73,365.565 382.739,365.565 383.747,365.565 
  384.755,365.565 385.763,365.565 386.771,365.565 387.78,365.565 388.788,365.565 389.796,365.565 390.804,365.565 391.812,365.565 392.821,365.565 393.829,365.565 
  394.837,365.565 395.845,365.565 396.853,365.565 397.861,365.565 398.87,365.565 399.878,365.565 400.886,365.565 401.894,365.565 402.902,365.565 403.911,365.565 
  404.919,365.565 405.927,365.565 406.935,365.565 407.943,365.565 408.952,365.565 409.96,365.565 410.968,365.565 411.976,365.565 412.984,365.565 413.993,365.565 
  415.001,365.565 416.009,365.565 417.017,365.565 418.025,365.565 419.034,365.565 420.042,365.565 421.05,365.565 422.058,365.565 423.066,365.565 424.075,365.565 
  425.083,365.565 426.091,365.565 427.099,365.565 428.107,365.565 429.116,365.565 430.124,365.565 431.132,365.565 432.14,365.565 433.148,365.565 434.157,365.565 
  435.165,365.565 436.173,365.565 437.181,365.565 438.189,365.565 439.198,365.565 440.206,365.565 441.214,365.565 442.222,365.565 443.23,365.565 444.239,365.565 
  445.247,365.565 446.255,365.565 447.263,365.565 448.271,365.565 449.28,365.565 450.288,365.565 451.296,365.565 452.304,365.565 453.312,365.565 454.321,365.565 
  455.329,365.565 456.337,365.565 457.345,365.565 458.353,365.565 459.362,365.565 460.37,365.565 461.378,365.565 462.386,365.565 463.394,365.565 464.403,365.565 
  465.411,365.565 466.419,365.565 467.427,365.565 468.435,365.565 469.444,365.565 470.452,365.565 471.46,365.565 472.468,365.565 473.476,365.565 474.484,365.565 
  475.493,365.565 476.501,365.565 477.509,365.565 478.517,365.565 479.525,365.565 480.534,365.565 481.542,365.565 482.55,365.565 483.558,365.565 484.566,365.565 
  485.575,365.565 486.583,365.565 487.591,365.565 488.599,365.565 489.607,365.565 490.616,365.565 491.624,365.565 492.632,365.565 493.64,365.565 494.648,365.565 
  495.657,365.565 496.665,365.565 497.673,365.565 498.681,365.565 499.689,365.565 500.698,365.565 501.706,365.565 502.714,365.565 503.722,365.565 504.73,365.565 
  505.739,365.565 506.747,365.565 507.755,365.565 508.763,365.565 509.771,365.565 510.78,365.565 511.788,365.565 512.796,365.565 513.804,365.565 514.812,365.565 
  515.821,365.565 516.829,365.565 517.837,365.565 518.845,365.565 519.853,365.565 520.862,365.565 521.87,365.565 522.878,365.565 523.886,365.565 524.894,365.565 
  525.903,365.565 526.911,365.565 527.919,365.565 528.927,365.565 529.935,365.565 530.944,365.565 531.952,365.565 532.96,365.565 533.968,365.565 534.976,365.565 
  535.985,365.565 536.993,365.565 538.001,365.565 539.009,365.565 540.017,365.565 541.026,365.565 542.034,365.565 543.042,365.565 544.05,365.565 545.058,365.565 
  546.066,365.565 547.075,365.565 548.083,365.565 549.091,365.565 550.099,365.565 551.107,365.565 552.116,365.565 553.124,365.565 554.132,365.565 555.14,365.565 
  556.148,365.565 557.157,365.565 558.165,365.565 559.173,365.565 560.181,365.565 561.189,365.565 562.198,365.565 563.206,365.565 564.214,365.565 565.222,365.565 
  
  "/>
<polyline clip-path="url(#clip9202)" style="stroke:#3da44d; stroke-width:1; stroke-opacity:1; fill:none" points="
  62.1318,365.565 63.14,365.565 64.1482,365.565 65.1564,365.565 66.1646,365.565 67.1728,365.565 68.181,365.565 69.1892,365.565 70.1974,365.565 71.2056,365.565 
  72.2138,365.565 73.222,365.565 74.2302,365.565 75.2384,365.565 76.2466,365.565 77.2548,365.565 78.263,365.565 79.2712,365.565 80.2794,365.565 81.2876,365.565 
  82.2958,365.565 83.304,365.565 84.3121,365.565 85.3203,365.565 86.3285,365.565 87.3367,365.565 88.3449,365.565 89.3531,365.565 90.3613,365.565 91.3695,365.565 
  92.3777,365.565 93.3859,365.565 94.3941,365.565 95.4023,365.565 96.4105,365.565 97.4187,365.565 98.4269,365.565 99.4351,365.565 100.443,365.565 101.452,365.565 
  102.46,365.565 103.468,365.565 104.476,365.548 105.484,365.366 106.492,364.985 107.501,364.406 108.509,363.628 109.517,362.651 110.525,361.476 111.533,360.102 
  112.542,358.53 113.55,356.759 114.558,354.789 115.566,352.621 116.574,350.254 117.583,347.689 118.591,344.924 119.599,341.962 120.607,338.8 121.615,335.44 
  122.624,331.882 123.632,328.124 124.64,324.168 125.648,320.014 126.656,315.661 127.665,311.109 128.673,306.359 129.681,301.41 130.689,296.262 131.697,290.916 
  132.706,285.371 133.714,279.628 134.722,273.686 135.73,267.545 136.738,261.206 137.747,254.668 138.755,247.931 139.763,240.996 140.771,233.862 141.779,226.53 
  142.788,218.999 143.796,211.269 144.804,203.341 145.812,195.214 146.82,187.095 147.829,179.365 148.837,172.033 149.845,165.098 150.853,158.56 151.861,152.419 
  152.87,146.676 153.878,141.329 154.886,136.38 155.894,131.829 156.902,127.674 157.911,123.917 158.919,120.557 159.927,117.594 160.935,115.029 161.943,112.86 
  162.952,111.089 163.96,109.715 164.968,108.739 165.976,108.16 166.984,107.978 167.993,108.193 169.001,108.805 170.009,109.815 171.017,111.222 172.025,113.026 
  173.034,115.227 174.042,117.826 175.05,120.822 176.058,124.215 177.066,128.005 178.074,132.193 179.083,136.778 180.091,141.76 181.099,147.139 182.107,152.916 
  183.115,159.089 184.124,165.66 185.132,172.629 186.14,179.994 187.148,187.757 188.156,195.898 189.165,204.009 190.173,211.921 191.181,219.634 192.189,227.148 
  193.197,234.464 194.206,241.581 195.214,248.5 196.222,255.22 197.23,261.741 198.238,268.064 199.247,274.188 200.255,280.114 201.263,285.841 202.271,291.369 
  203.279,296.699 204.288,301.83 205.296,306.762 206.304,311.496 207.312,316.031 208.32,320.368 209.329,324.506 210.337,328.445 211.345,332.186 212.353,335.728 
  213.361,339.071 214.37,342.216 215.378,345.162 216.386,347.91 217.394,350.459 218.402,352.809 219.411,354.961 220.419,356.914 221.427,358.669 222.435,360.224 
  223.443,361.582 224.452,362.74 225.46,363.7 226.468,364.462 227.476,365.024 228.484,365.389 229.493,365.554 230.501,365.565 231.509,365.565 232.517,365.565 
  233.525,365.565 234.534,365.565 235.542,365.565 236.55,365.565 237.558,365.565 238.566,365.565 239.575,365.565 240.583,365.565 241.591,365.565 242.599,365.565 
  243.607,365.565 244.616,365.565 245.624,365.565 246.632,365.565 247.64,365.565 248.648,365.565 249.657,365.565 250.665,365.565 251.673,365.565 252.681,365.565 
  253.689,365.565 254.697,365.565 255.706,365.565 256.714,365.565 257.722,365.565 258.73,365.565 259.738,365.565 260.747,365.565 261.755,365.565 262.763,365.565 
  263.771,365.565 264.779,365.565 265.788,365.565 266.796,365.565 267.804,365.565 268.812,365.565 269.82,365.565 270.829,365.565 271.837,365.565 272.845,365.565 
  273.853,365.565 274.861,365.565 275.87,365.565 276.878,365.565 277.886,365.565 278.894,365.565 279.902,365.565 280.911,365.565 281.919,365.565 282.927,365.565 
  283.935,365.565 284.943,365.565 285.952,365.565 286.96,365.565 287.968,365.565 288.976,365.565 289.984,365.565 290.993,365.565 292.001,365.565 293.009,365.565 
  294.017,365.565 295.025,365.565 296.034,365.565 297.042,365.565 298.05,365.565 299.058,365.565 300.066,365.565 301.075,365.565 302.083,365.565 303.091,365.565 
  304.099,365.565 305.107,365.565 306.116,365.565 307.124,365.565 308.132,365.565 309.14,365.565 310.148,365.565 311.157,365.565 312.165,365.565 313.173,365.565 
  314.181,365.565 315.189,365.565 316.198,365.565 317.206,365.565 318.214,365.565 319.222,365.565 320.23,365.565 321.239,365.565 322.247,365.565 323.255,365.565 
  324.263,365.565 325.271,365.565 326.279,365.565 327.288,365.565 328.296,365.565 329.304,365.565 330.312,365.565 331.32,365.565 332.329,365.565 333.337,365.565 
  334.345,365.565 335.353,365.565 336.361,365.565 337.37,365.565 338.378,365.565 339.386,365.565 340.394,365.565 341.402,365.565 342.411,365.565 343.419,365.565 
  344.427,365.565 345.435,365.565 346.443,365.565 347.452,365.565 348.46,365.565 349.468,365.565 350.476,365.565 351.484,365.565 352.493,365.565 353.501,365.565 
  354.509,365.565 355.517,365.565 356.525,365.565 357.534,365.565 358.542,365.565 359.55,365.565 360.558,365.565 361.566,365.565 362.575,365.565 363.583,365.565 
  364.591,365.565 365.599,365.565 366.607,365.565 367.616,365.565 368.624,365.565 369.632,365.565 370.64,365.565 371.648,365.565 372.657,365.565 373.665,365.565 
  374.673,365.565 375.681,365.565 376.689,365.565 377.698,365.565 378.706,365.565 379.714,365.565 380.722,365.565 381.73,365.565 382.739,365.565 383.747,365.565 
  384.755,365.565 385.763,365.565 386.771,365.565 387.78,365.565 388.788,365.565 389.796,365.565 390.804,365.565 391.812,365.565 392.821,365.565 393.829,365.565 
  394.837,365.565 395.845,365.565 396.853,365.565 397.861,365.565 398.87,365.565 399.878,365.565 400.886,365.565 401.894,365.565 402.902,365.565 403.911,365.565 
  404.919,365.565 405.927,365.565 406.935,365.565 407.943,365.565 408.952,365.565 409.96,365.565 410.968,365.565 411.976,365.565 412.984,365.565 413.993,365.565 
  415.001,365.565 416.009,365.565 417.017,365.565 418.025,365.565 419.034,365.565 420.042,365.565 421.05,365.565 422.058,365.565 423.066,365.565 424.075,365.565 
  425.083,365.565 426.091,365.565 427.099,365.565 428.107,365.565 429.116,365.565 430.124,365.565 431.132,365.565 432.14,365.565 433.148,365.565 434.157,365.565 
  435.165,365.565 436.173,365.565 437.181,365.565 438.189,365.565 439.198,365.565 440.206,365.565 441.214,365.565 442.222,365.565 443.23,365.565 444.239,365.565 
  445.247,365.565 446.255,365.565 447.263,365.565 448.271,365.565 449.28,365.565 450.288,365.565 451.296,365.565 452.304,365.565 453.312,365.565 454.321,365.565 
  455.329,365.565 456.337,365.565 457.345,365.565 458.353,365.565 459.362,365.565 460.37,365.565 461.378,365.565 462.386,365.565 463.394,365.565 464.403,365.565 
  465.411,365.565 466.419,365.565 467.427,365.565 468.435,365.565 469.444,365.565 470.452,365.565 471.46,365.565 472.468,365.565 473.476,365.565 474.484,365.565 
  475.493,365.565 476.501,365.565 477.509,365.565 478.517,365.565 479.525,365.565 480.534,365.565 481.542,365.565 482.55,365.565 483.558,365.565 484.566,365.565 
  485.575,365.565 486.583,365.565 487.591,365.565 488.599,365.565 489.607,365.565 490.616,365.565 491.624,365.565 492.632,365.565 493.64,365.565 494.648,365.565 
  495.657,365.565 496.665,365.565 497.673,365.565 498.681,365.565 499.689,365.565 500.698,365.565 501.706,365.565 502.714,365.565 503.722,365.565 504.73,365.565 
  505.739,365.565 506.747,365.565 507.755,365.565 508.763,365.565 509.771,365.565 510.78,365.565 511.788,365.565 512.796,365.565 513.804,365.565 514.812,365.565 
  515.821,365.565 516.829,365.565 517.837,365.565 518.845,365.565 519.853,365.565 520.862,365.565 521.87,365.565 522.878,365.565 523.886,365.565 524.894,365.565 
  525.903,365.565 526.911,365.565 527.919,365.565 528.927,365.565 529.935,365.565 530.944,365.565 531.952,365.565 532.96,365.565 533.968,365.565 534.976,365.565 
  535.985,365.565 536.993,365.565 538.001,365.565 539.009,365.565 540.017,365.565 541.026,365.565 542.034,365.565 543.042,365.565 544.05,365.565 545.058,365.565 
  546.066,365.565 547.075,365.565 548.083,365.565 549.091,365.565 550.099,365.565 551.107,365.565 552.116,365.565 553.124,365.565 554.132,365.565 555.14,365.565 
  556.148,365.565 557.157,365.565 558.165,365.565 559.173,365.565 560.181,365.565 561.189,365.565 562.198,365.565 563.206,365.565 564.214,365.565 565.222,365.565 
  
  "/>
<polyline clip-path="url(#clip9202)" style="stroke:#c271d2; stroke-width:1; stroke-opacity:1; fill:none" points="
  62.1318,365.565 63.14,365.565 64.1482,365.565 65.1564,365.565 66.1646,365.565 67.1728,365.565 68.181,365.565 69.1892,365.565 70.1974,365.565 71.2056,365.565 
  72.2138,365.565 73.222,365.565 74.2302,365.565 75.2384,365.565 76.2466,365.565 77.2548,365.565 78.263,365.565 79.2712,365.565 80.2794,365.565 81.2876,365.565 
  82.2958,365.565 83.304,365.565 84.3121,365.565 85.3203,365.565 86.3285,365.565 87.3367,365.565 88.3449,365.565 89.3531,365.565 90.3613,365.565 91.3695,365.565 
  92.3777,365.565 93.3859,365.565 94.3941,365.565 95.4023,365.565 96.4105,365.565 97.4187,365.565 98.4269,365.565 99.4351,365.565 100.443,365.565 101.452,365.565 
  102.46,365.565 103.468,365.565 104.476,365.565 105.484,365.563 106.492,365.554 107.501,365.533 108.509,365.497 109.517,365.439 110.525,365.355 111.533,365.24 
  112.542,365.091 113.55,364.9 114.558,364.665 115.566,364.381 116.574,364.041 117.583,363.643 118.591,363.18 119.599,362.648 120.607,362.043 121.615,361.359 
  122.624,360.593 123.632,359.738 124.64,358.79 125.648,357.745 126.656,356.598 127.665,355.343 128.673,353.977 129.681,352.494 130.689,350.89 131.697,349.159 
  132.706,347.298 133.714,345.301 134.722,343.163 135.73,340.88 136.738,338.447 137.747,335.859 138.755,333.112 139.763,330.2 140.771,327.119 141.779,323.864 
  142.788,320.43 143.796,316.813 144.804,313.007 145.812,309.009 146.82,304.814 147.829,300.433 148.837,295.88 149.845,291.168 150.853,286.313 151.861,281.328 
  152.87,276.229 153.878,271.028 154.886,265.742 155.894,260.383 156.902,254.967 157.911,249.507 158.919,244.018 159.927,238.514 160.935,233.01 161.943,227.52 
  162.952,222.058 163.96,216.639 164.968,211.277 165.976,205.986 166.984,200.78 167.993,195.674 169.001,190.683 170.009,185.82 171.017,181.1 172.025,176.538 
  173.034,172.147 174.042,167.941 175.05,163.936 176.058,160.146 177.066,156.584 178.074,153.266 179.083,150.205 180.091,147.416 181.099,144.913 182.107,142.711 
  183.115,140.824 184.124,139.265 185.132,138.05 186.14,137.194 187.148,136.709 188.156,136.61 189.165,136.904 190.173,137.576 191.181,138.614 192.189,140.002 
  193.197,141.727 194.206,143.774 195.214,146.128 196.222,148.776 197.23,151.702 198.238,154.894 199.247,158.336 200.255,162.013 201.263,165.913 202.271,170.02 
  203.279,174.32 204.288,178.799 205.296,183.442 206.304,188.235 207.312,193.164 208.32,198.214 209.329,203.371 210.337,208.621 211.345,213.95 212.353,219.342 
  213.361,224.785 214.37,230.262 215.378,235.761 216.386,241.267 217.394,246.765 218.402,252.241 219.411,257.681 220.419,263.07 221.427,268.395 222.435,273.64 
  223.443,278.792 224.452,283.836 225.46,288.758 226.468,293.543 227.476,298.177 228.484,302.646 229.493,306.936 230.501,311.033 231.509,314.934 232.517,318.645 
  233.525,322.17 234.534,325.513 235.542,328.681 236.55,331.677 237.558,334.506 238.566,337.173 239.575,339.683 240.583,342.04 241.591,344.25 242.599,346.317 
  243.607,348.245 244.616,350.041 245.624,351.707 246.632,353.25 247.64,354.674 248.648,355.984 249.657,357.184 250.665,358.28 251.673,359.276 252.681,360.176 
  253.689,360.987 254.697,361.711 255.706,362.355 256.714,362.923 257.722,363.42 258.73,363.85 259.738,364.218 260.747,364.529 261.755,364.789 262.763,365.001 
  263.771,365.17 264.779,365.302 265.788,365.4 266.796,365.471 267.804,365.517 268.812,365.545 269.82,365.56 270.829,365.565 271.837,365.565 272.845,365.565 
  273.853,365.565 274.861,365.565 275.87,365.565 276.878,365.565 277.886,365.565 278.894,365.565 279.902,365.565 280.911,365.565 281.919,365.565 282.927,365.565 
  283.935,365.565 284.943,365.565 285.952,365.565 286.96,365.565 287.968,365.565 288.976,365.565 289.984,365.565 290.993,365.565 292.001,365.565 293.009,365.565 
  294.017,365.565 295.025,365.565 296.034,365.565 297.042,365.565 298.05,365.565 299.058,365.565 300.066,365.565 301.075,365.565 302.083,365.565 303.091,365.565 
  304.099,365.565 305.107,365.565 306.116,365.565 307.124,365.565 308.132,365.565 309.14,365.565 310.148,365.565 311.157,365.565 312.165,365.565 313.173,365.565 
  314.181,365.565 315.189,365.565 316.198,365.565 317.206,365.565 318.214,365.565 319.222,365.565 320.23,365.565 321.239,365.565 322.247,365.565 323.255,365.565 
  324.263,365.565 325.271,365.565 326.279,365.565 327.288,365.565 328.296,365.565 329.304,365.565 330.312,365.565 331.32,365.565 332.329,365.565 333.337,365.565 
  334.345,365.565 335.353,365.565 336.361,365.565 337.37,365.565 338.378,365.565 339.386,365.565 340.394,365.565 341.402,365.565 342.411,365.565 343.419,365.565 
  344.427,365.565 345.435,365.565 346.443,365.565 347.452,365.565 348.46,365.565 349.468,365.565 350.476,365.565 351.484,365.565 352.493,365.565 353.501,365.565 
  354.509,365.565 355.517,365.565 356.525,365.565 357.534,365.565 358.542,365.565 359.55,365.565 360.558,365.565 361.566,365.565 362.575,365.565 363.583,365.565 
  364.591,365.565 365.599,365.565 366.607,365.565 367.616,365.565 368.624,365.565 369.632,365.565 370.64,365.565 371.648,365.565 372.657,365.565 373.665,365.565 
  374.673,365.565 375.681,365.565 376.689,365.565 377.698,365.565 378.706,365.565 379.714,365.565 380.722,365.565 381.73,365.565 382.739,365.565 383.747,365.565 
  384.755,365.565 385.763,365.565 386.771,365.565 387.78,365.565 388.788,365.565 389.796,365.565 390.804,365.565 391.812,365.565 392.821,365.565 393.829,365.565 
  394.837,365.565 395.845,365.565 396.853,365.565 397.861,365.565 398.87,365.565 399.878,365.565 400.886,365.565 401.894,365.565 402.902,365.565 403.911,365.565 
  404.919,365.565 405.927,365.565 406.935,365.565 407.943,365.565 408.952,365.565 409.96,365.565 410.968,365.565 411.976,365.565 412.984,365.565 413.993,365.565 
  415.001,365.565 416.009,365.565 417.017,365.565 418.025,365.565 419.034,365.565 420.042,365.565 421.05,365.565 422.058,365.565 423.066,365.565 424.075,365.565 
  425.083,365.565 426.091,365.565 427.099,365.565 428.107,365.565 429.116,365.565 430.124,365.565 431.132,365.565 432.14,365.565 433.148,365.565 434.157,365.565 
  435.165,365.565 436.173,365.565 437.181,365.565 438.189,365.565 439.198,365.565 440.206,365.565 441.214,365.565 442.222,365.565 443.23,365.565 444.239,365.565 
  445.247,365.565 446.255,365.565 447.263,365.565 448.271,365.565 449.28,365.565 450.288,365.565 451.296,365.565 452.304,365.565 453.312,365.565 454.321,365.565 
  455.329,365.565 456.337,365.565 457.345,365.565 458.353,365.565 459.362,365.565 460.37,365.565 461.378,365.565 462.386,365.565 463.394,365.565 464.403,365.565 
  465.411,365.565 466.419,365.565 467.427,365.565 468.435,365.565 469.444,365.565 470.452,365.565 471.46,365.565 472.468,365.565 473.476,365.565 474.484,365.565 
  475.493,365.565 476.501,365.565 477.509,365.565 478.517,365.565 479.525,365.565 480.534,365.565 481.542,365.565 482.55,365.565 483.558,365.565 484.566,365.565 
  485.575,365.565 486.583,365.565 487.591,365.565 488.599,365.565 489.607,365.565 490.616,365.565 491.624,365.565 492.632,365.565 493.64,365.565 494.648,365.565 
  495.657,365.565 496.665,365.565 497.673,365.565 498.681,365.565 499.689,365.565 500.698,365.565 501.706,365.565 502.714,365.565 503.722,365.565 504.73,365.565 
  505.739,365.565 506.747,365.565 507.755,365.565 508.763,365.565 509.771,365.565 510.78,365.565 511.788,365.565 512.796,365.565 513.804,365.565 514.812,365.565 
  515.821,365.565 516.829,365.565 517.837,365.565 518.845,365.565 519.853,365.565 520.862,365.565 521.87,365.565 522.878,365.565 523.886,365.565 524.894,365.565 
  525.903,365.565 526.911,365.565 527.919,365.565 528.927,365.565 529.935,365.565 530.944,365.565 531.952,365.565 532.96,365.565 533.968,365.565 534.976,365.565 
  535.985,365.565 536.993,365.565 538.001,365.565 539.009,365.565 540.017,365.565 541.026,365.565 542.034,365.565 543.042,365.565 544.05,365.565 545.058,365.565 
  546.066,365.565 547.075,365.565 548.083,365.565 549.091,365.565 550.099,365.565 551.107,365.565 552.116,365.565 553.124,365.565 554.132,365.565 555.14,365.565 
  556.148,365.565 557.157,365.565 558.165,365.565 559.173,365.565 560.181,365.565 561.189,365.565 562.198,365.565 563.206,365.565 564.214,365.565 565.222,365.565 
  
  "/>
<polyline clip-path="url(#clip9202)" style="stroke:#ac8d18; stroke-width:1; stroke-opacity:1; fill:none" points="
  62.1318,365.565 63.14,365.565 64.1482,365.565 65.1564,365.565 66.1646,365.565 67.1728,365.565 68.181,365.565 69.1892,365.565 70.1974,365.565 71.2056,365.565 
  72.2138,365.565 73.222,365.565 74.2302,365.565 75.2384,365.565 76.2466,365.565 77.2548,365.565 78.263,365.565 79.2712,365.565 80.2794,365.565 81.2876,365.565 
  82.2958,365.565 83.304,365.565 84.3121,365.565 85.3203,365.565 86.3285,365.565 87.3367,365.565 88.3449,365.565 89.3531,365.565 90.3613,365.565 91.3695,365.565 
  92.3777,365.565 93.3859,365.565 94.3941,365.565 95.4023,365.565 96.4105,365.565 97.4187,365.565 98.4269,365.565 99.4351,365.565 100.443,365.565 101.452,365.565 
  102.46,365.565 103.468,365.565 104.476,365.565 105.484,365.565 106.492,365.565 107.501,365.565 108.509,365.563 109.517,365.561 110.525,365.557 111.533,365.551 
  112.542,365.541 113.55,365.528 114.558,365.509 115.566,365.484 116.574,365.451 117.583,365.41 118.591,365.358 119.599,365.295 120.607,365.218 121.615,365.125 
  122.624,365.015 123.632,364.885 124.64,364.734 125.648,364.558 126.656,364.357 127.665,364.126 128.673,363.864 129.681,363.568 130.689,363.234 131.697,362.861 
  132.706,362.444 133.714,361.981 134.722,361.469 135.73,360.903 136.738,360.28 137.747,359.597 138.755,358.85 139.763,358.035 140.771,357.148 141.779,356.184 
  142.788,355.141 143.796,354.012 144.804,352.794 145.812,351.483 146.82,350.073 147.829,348.559 148.837,346.939 149.845,345.208 150.853,343.362 151.861,341.399 
  152.87,339.317 153.878,337.114 154.886,334.789 155.894,332.339 156.902,329.766 157.911,327.069 158.919,324.248 159.927,321.304 160.935,318.239 161.943,315.054 
  162.952,311.752 163.96,308.336 164.968,304.808 165.976,301.172 166.984,297.433 167.993,293.594 169.001,289.662 170.009,285.641 171.017,281.537 172.025,277.357 
  173.034,273.108 174.042,268.797 175.05,264.432 176.058,260.02 177.066,255.571 178.074,251.094 179.083,246.599 180.091,242.095 181.099,237.593 182.107,233.105 
  183.115,228.64 184.124,224.213 185.132,219.834 186.14,215.517 187.148,211.274 188.156,207.121 189.165,203.07 190.173,199.136 191.181,195.332 192.189,191.67 
  193.197,188.162 194.206,184.819 195.214,181.651 196.222,178.668 197.23,175.879 198.238,173.293 199.247,170.916 200.255,168.757 201.263,166.82 202.271,165.112 
  203.279,163.638 204.288,162.401 205.296,161.405 206.304,160.653 207.312,160.147 208.32,159.889 209.329,159.879 210.337,160.116 211.345,160.602 212.353,161.333 
  213.361,162.309 214.37,163.526 215.378,164.98 216.386,166.669 217.394,168.587 218.402,170.728 219.411,173.087 220.419,175.656 221.427,178.428 222.435,181.395 
  223.443,184.548 224.452,187.877 225.46,191.372 226.468,195.021 227.476,198.814 228.484,202.738 229.493,206.779 230.501,210.925 231.509,215.16 232.517,219.472 
  233.525,223.846 234.534,228.27 235.542,232.731 236.55,237.219 237.558,241.72 238.566,246.224 239.575,250.72 240.583,255.199 241.591,259.651 242.599,264.066 
  243.607,268.435 244.616,272.751 245.624,277.006 246.632,281.192 247.64,285.302 248.648,289.33 249.657,293.27 250.665,297.117 251.673,300.864 252.681,304.509 
  253.689,308.046 254.697,311.472 255.706,314.784 256.714,317.978 257.722,321.053 258.73,324.007 259.738,326.838 260.747,329.546 261.755,332.13 262.763,334.589 
  263.771,336.925 264.779,339.138 265.788,341.23 266.796,343.203 267.804,345.058 268.812,346.799 269.82,348.429 270.829,349.951 271.837,351.369 272.845,352.689 
  273.853,353.914 274.861,355.05 275.87,356.101 276.878,357.07 277.886,357.964 278.894,358.785 279.902,359.537 280.911,360.226 281.919,360.853 282.927,361.423 
  283.935,361.941 284.943,362.408 285.952,362.828 286.96,363.205 287.968,363.542 288.976,363.841 289.984,364.106 290.993,364.339 292.001,364.543 293.009,364.72 
  294.017,364.873 295.025,365.005 296.034,365.116 297.042,365.21 298.05,365.289 299.058,365.354 300.066,365.406 301.075,365.448 302.083,365.481 303.091,365.507 
  304.099,365.526 305.107,365.54 306.116,365.55 307.124,365.557 308.132,365.561 309.14,365.563 310.148,365.564 311.157,365.565 312.165,365.565 313.173,365.565 
  314.181,365.565 315.189,365.565 316.198,365.565 317.206,365.565 318.214,365.565 319.222,365.565 320.23,365.565 321.239,365.565 322.247,365.565 323.255,365.565 
  324.263,365.565 325.271,365.565 326.279,365.565 327.288,365.565 328.296,365.565 329.304,365.565 330.312,365.565 331.32,365.565 332.329,365.565 333.337,365.565 
  334.345,365.565 335.353,365.565 336.361,365.565 337.37,365.565 338.378,365.565 339.386,365.565 340.394,365.565 341.402,365.565 342.411,365.565 343.419,365.565 
  344.427,365.565 345.435,365.565 346.443,365.565 347.452,365.565 348.46,365.565 349.468,365.565 350.476,365.565 351.484,365.565 352.493,365.565 353.501,365.565 
  354.509,365.565 355.517,365.565 356.525,365.565 357.534,365.565 358.542,365.565 359.55,365.565 360.558,365.565 361.566,365.565 362.575,365.565 363.583,365.565 
  364.591,365.565 365.599,365.565 366.607,365.565 367.616,365.565 368.624,365.565 369.632,365.565 370.64,365.565 371.648,365.565 372.657,365.565 373.665,365.565 
  374.673,365.565 375.681,365.565 376.689,365.565 377.698,365.565 378.706,365.565 379.714,365.565 380.722,365.565 381.73,365.565 382.739,365.565 383.747,365.565 
  384.755,365.565 385.763,365.565 386.771,365.565 387.78,365.565 388.788,365.565 389.796,365.565 390.804,365.565 391.812,365.565 392.821,365.565 393.829,365.565 
  394.837,365.565 395.845,365.565 396.853,365.565 397.861,365.565 398.87,365.565 399.878,365.565 400.886,365.565 401.894,365.565 402.902,365.565 403.911,365.565 
  404.919,365.565 405.927,365.565 406.935,365.565 407.943,365.565 408.952,365.565 409.96,365.565 410.968,365.565 411.976,365.565 412.984,365.565 413.993,365.565 
  415.001,365.565 416.009,365.565 417.017,365.565 418.025,365.565 419.034,365.565 420.042,365.565 421.05,365.565 422.058,365.565 423.066,365.565 424.075,365.565 
  425.083,365.565 426.091,365.565 427.099,365.565 428.107,365.565 429.116,365.565 430.124,365.565 431.132,365.565 432.14,365.565 433.148,365.565 434.157,365.565 
  435.165,365.565 436.173,365.565 437.181,365.565 438.189,365.565 439.198,365.565 440.206,365.565 441.214,365.565 442.222,365.565 443.23,365.565 444.239,365.565 
  445.247,365.565 446.255,365.565 447.263,365.565 448.271,365.565 449.28,365.565 450.288,365.565 451.296,365.565 452.304,365.565 453.312,365.565 454.321,365.565 
  455.329,365.565 456.337,365.565 457.345,365.565 458.353,365.565 459.362,365.565 460.37,365.565 461.378,365.565 462.386,365.565 463.394,365.565 464.403,365.565 
  465.411,365.565 466.419,365.565 467.427,365.565 468.435,365.565 469.444,365.565 470.452,365.565 471.46,365.565 472.468,365.565 473.476,365.565 474.484,365.565 
  475.493,365.565 476.501,365.565 477.509,365.565 478.517,365.565 479.525,365.565 480.534,365.565 481.542,365.565 482.55,365.565 483.558,365.565 484.566,365.565 
  485.575,365.565 486.583,365.565 487.591,365.565 488.599,365.565 489.607,365.565 490.616,365.565 491.624,365.565 492.632,365.565 493.64,365.565 494.648,365.565 
  495.657,365.565 496.665,365.565 497.673,365.565 498.681,365.565 499.689,365.565 500.698,365.565 501.706,365.565 502.714,365.565 503.722,365.565 504.73,365.565 
  505.739,365.565 506.747,365.565 507.755,365.565 508.763,365.565 509.771,365.565 510.78,365.565 511.788,365.565 512.796,365.565 513.804,365.565 514.812,365.565 
  515.821,365.565 516.829,365.565 517.837,365.565 518.845,365.565 519.853,365.565 520.862,365.565 521.87,365.565 522.878,365.565 523.886,365.565 524.894,365.565 
  525.903,365.565 526.911,365.565 527.919,365.565 528.927,365.565 529.935,365.565 530.944,365.565 531.952,365.565 532.96,365.565 533.968,365.565 534.976,365.565 
  535.985,365.565 536.993,365.565 538.001,365.565 539.009,365.565 540.017,365.565 541.026,365.565 542.034,365.565 543.042,365.565 544.05,365.565 545.058,365.565 
  546.066,365.565 547.075,365.565 548.083,365.565 549.091,365.565 550.099,365.565 551.107,365.565 552.116,365.565 553.124,365.565 554.132,365.565 555.14,365.565 
  556.148,365.565 557.157,365.565 558.165,365.565 559.173,365.565 560.181,365.565 561.189,365.565 562.198,365.565 563.206,365.565 564.214,365.565 565.222,365.565 
  
  "/>
<polyline clip-path="url(#clip9202)" style="stroke:#00a9ad; stroke-width:1; stroke-opacity:1; fill:none" points="
  62.1318,365.565 63.14,365.565 64.1482,365.565 65.1564,365.565 66.1646,365.565 67.1728,365.565 68.181,365.565 69.1892,365.565 70.1974,365.565 71.2056,365.565 
  72.2138,365.565 73.222,365.565 74.2302,365.565 75.2384,365.565 76.2466,365.565 77.2548,365.565 78.263,365.565 79.2712,365.565 80.2794,365.565 81.2876,365.565 
  82.2958,365.565 83.304,365.565 84.3121,365.565 85.3203,365.565 86.3285,365.565 87.3367,365.565 88.3449,365.565 89.3531,365.565 90.3613,365.565 91.3695,365.565 
  92.3777,365.565 93.3859,365.565 94.3941,365.565 95.4023,365.565 96.4105,365.565 97.4187,365.565 98.4269,365.565 99.4351,365.565 100.443,365.565 101.452,365.565 
  102.46,365.565 103.468,365.565 104.476,365.565 105.484,365.565 106.492,365.565 107.501,365.565 108.509,365.565 109.517,365.565 110.525,365.565 111.533,365.565 
  112.542,365.564 113.55,365.563 114.558,365.562 115.566,365.561 116.574,365.558 117.583,365.555 118.591,365.551 119.599,365.545 120.607,365.538 121.615,365.528 
  122.624,365.516 123.632,365.502 124.64,365.484 125.648,365.461 126.656,365.435 127.665,365.403 128.673,365.365 129.681,365.321 130.689,365.269 131.697,365.209 
  132.706,365.139 133.714,365.058 134.722,364.966 135.73,364.861 136.738,364.741 137.747,364.606 138.755,364.454 139.763,364.282 140.771,364.091 141.779,363.877 
  142.788,363.639 143.796,363.375 144.804,363.083 145.812,362.76 146.82,362.405 147.829,362.014 148.837,361.586 149.845,361.117 150.853,360.606 151.861,360.049 
  152.87,359.443 153.878,358.786 154.886,358.074 155.894,357.306 156.902,356.478 157.911,355.586 158.919,354.63 159.927,353.604 160.935,352.508 161.943,351.339 
  162.952,350.093 163.96,348.768 164.968,347.363 165.976,345.874 166.984,344.301 167.993,342.64 169.001,340.891 170.009,339.051 171.017,337.121 172.025,335.097 
  173.034,332.98 174.042,330.77 175.05,328.464 176.058,326.065 177.066,323.57 178.074,320.983 179.083,318.302 180.091,315.529 181.099,312.665 182.107,309.713 
  183.115,306.675 184.124,303.552 185.132,300.349 186.14,297.068 187.148,293.713 188.156,290.288 189.165,286.799 190.173,283.25 191.181,279.646 192.189,275.994 
  193.197,272.3 194.206,268.57 195.214,264.812 196.222,261.033 197.23,257.24 198.238,253.441 199.247,249.644 200.255,245.857 201.263,242.089 202.271,238.347 
  203.279,234.64 204.288,230.977 205.296,227.366 206.304,223.816 207.312,220.336 208.32,216.934 209.329,213.618 210.337,210.397 211.345,207.279 212.353,204.273 
  213.361,201.385 214.37,198.624 215.378,195.997 216.386,193.512 217.394,191.175 218.402,188.993 219.411,186.971 220.419,185.117 221.427,183.435 222.435,181.93 
  223.443,180.607 224.452,179.47 225.46,178.522 226.468,177.767 227.476,177.207 228.484,176.844 229.493,176.678 230.501,176.711 231.509,176.943 232.517,177.372 
  233.525,177.997 234.534,178.817 235.542,179.828 236.55,181.027 237.558,182.411 238.566,183.976 239.575,185.716 240.583,187.627 241.591,189.702 242.599,191.937 
  243.607,194.324 244.616,196.858 245.624,199.53 246.632,202.334 247.64,205.262 248.648,208.307 249.657,211.46 250.665,214.713 251.673,218.059 252.681,221.488 
  253.689,224.992 254.697,228.563 255.706,232.193 256.714,235.871 257.722,239.591 258.73,243.342 259.738,247.118 260.747,250.909 261.755,254.708 262.763,258.506 
  263.771,262.295 264.779,266.068 265.788,269.817 266.796,273.536 267.804,277.216 268.812,280.853 269.82,284.439 270.829,287.969 271.837,291.437 272.845,294.839 
  273.853,298.17 274.861,301.425 275.87,304.602 276.878,307.697 277.886,310.707 278.894,313.63 279.902,316.463 280.911,319.205 281.919,321.856 282.927,324.412 
  283.935,326.875 284.943,329.243 285.952,331.517 286.96,333.696 287.968,335.782 288.976,337.774 289.984,339.675 290.993,341.484 292.001,343.203 293.009,344.835 
  294.017,346.38 295.025,347.84 296.034,349.218 297.042,350.517 298.05,351.737 299.058,352.882 300.066,353.954 301.075,354.956 302.083,355.891 303.091,356.761 
  304.099,357.569 305.107,358.318 306.116,359.011 307.124,359.65 308.132,360.24 309.14,360.781 310.148,361.278 311.157,361.733 312.165,362.148 313.173,362.527 
  314.181,362.871 315.189,363.183 316.198,363.466 317.206,363.721 318.214,363.951 319.222,364.157 320.23,364.342 321.239,364.506 322.247,364.653 323.255,364.783 
  324.263,364.897 325.271,364.998 326.279,365.086 327.288,365.163 328.296,365.23 329.304,365.287 330.312,365.337 331.32,365.379 332.329,365.414 333.337,365.444 
  334.345,365.469 335.353,365.49 336.361,365.507 337.37,365.521 338.378,365.532 339.386,365.54 340.394,365.547 341.402,365.552 342.411,365.556 343.419,365.559 
  344.427,365.561 345.435,365.563 346.443,365.564 347.452,365.564 348.46,365.565 349.468,365.565 350.476,365.565 351.484,365.565 352.493,365.565 353.501,365.565 
  354.509,365.565 355.517,365.565 356.525,365.565 357.534,365.565 358.542,365.565 359.55,365.565 360.558,365.565 361.566,365.565 362.575,365.565 363.583,365.565 
  364.591,365.565 365.599,365.565 366.607,365.565 367.616,365.565 368.624,365.565 369.632,365.565 370.64,365.565 371.648,365.565 372.657,365.565 373.665,365.565 
  374.673,365.565 375.681,365.565 376.689,365.565 377.698,365.565 378.706,365.565 379.714,365.565 380.722,365.565 381.73,365.565 382.739,365.565 383.747,365.565 
  384.755,365.565 385.763,365.565 386.771,365.565 387.78,365.565 388.788,365.565 389.796,365.565 390.804,365.565 391.812,365.565 392.821,365.565 393.829,365.565 
  394.837,365.565 395.845,365.565 396.853,365.565 397.861,365.565 398.87,365.565 399.878,365.565 400.886,365.565 401.894,365.565 402.902,365.565 403.911,365.565 
  404.919,365.565 405.927,365.565 406.935,365.565 407.943,365.565 408.952,365.565 409.96,365.565 410.968,365.565 411.976,365.565 412.984,365.565 413.993,365.565 
  415.001,365.565 416.009,365.565 417.017,365.565 418.025,365.565 419.034,365.565 420.042,365.565 421.05,365.565 422.058,365.565 423.066,365.565 424.075,365.565 
  425.083,365.565 426.091,365.565 427.099,365.565 428.107,365.565 429.116,365.565 430.124,365.565 431.132,365.565 432.14,365.565 433.148,365.565 434.157,365.565 
  435.165,365.565 436.173,365.565 437.181,365.565 438.189,365.565 439.198,365.565 440.206,365.565 441.214,365.565 442.222,365.565 443.23,365.565 444.239,365.565 
  445.247,365.565 446.255,365.565 447.263,365.565 448.271,365.565 449.28,365.565 450.288,365.565 451.296,365.565 452.304,365.565 453.312,365.565 454.321,365.565 
  455.329,365.565 456.337,365.565 457.345,365.565 458.353,365.565 459.362,365.565 460.37,365.565 461.378,365.565 462.386,365.565 463.394,365.565 464.403,365.565 
  465.411,365.565 466.419,365.565 467.427,365.565 468.435,365.565 469.444,365.565 470.452,365.565 471.46,365.565 472.468,365.565 473.476,365.565 474.484,365.565 
  475.493,365.565 476.501,365.565 477.509,365.565 478.517,365.565 479.525,365.565 480.534,365.565 481.542,365.565 482.55,365.565 483.558,365.565 484.566,365.565 
  485.575,365.565 486.583,365.565 487.591,365.565 488.599,365.565 489.607,365.565 490.616,365.565 491.624,365.565 492.632,365.565 493.64,365.565 494.648,365.565 
  495.657,365.565 496.665,365.565 497.673,365.565 498.681,365.565 499.689,365.565 500.698,365.565 501.706,365.565 502.714,365.565 503.722,365.565 504.73,365.565 
  505.739,365.565 506.747,365.565 507.755,365.565 508.763,365.565 509.771,365.565 510.78,365.565 511.788,365.565 512.796,365.565 513.804,365.565 514.812,365.565 
  515.821,365.565 516.829,365.565 517.837,365.565 518.845,365.565 519.853,365.565 520.862,365.565 521.87,365.565 522.878,365.565 523.886,365.565 524.894,365.565 
  525.903,365.565 526.911,365.565 527.919,365.565 528.927,365.565 529.935,365.565 530.944,365.565 531.952,365.565 532.96,365.565 533.968,365.565 534.976,365.565 
  535.985,365.565 536.993,365.565 538.001,365.565 539.009,365.565 540.017,365.565 541.026,365.565 542.034,365.565 543.042,365.565 544.05,365.565 545.058,365.565 
  546.066,365.565 547.075,365.565 548.083,365.565 549.091,365.565 550.099,365.565 551.107,365.565 552.116,365.565 553.124,365.565 554.132,365.565 555.14,365.565 
  556.148,365.565 557.157,365.565 558.165,365.565 559.173,365.565 560.181,365.565 561.189,365.565 562.198,365.565 563.206,365.565 564.214,365.565 565.222,365.565 
  
  "/>
<polyline clip-path="url(#clip9202)" style="stroke:#ed5d92; stroke-width:1; stroke-opacity:1; fill:none" points="
  62.1318,365.565 63.14,365.565 64.1482,365.565 65.1564,365.565 66.1646,365.565 67.1728,365.565 68.181,365.565 69.1892,365.565 70.1974,365.565 71.2056,365.565 
  72.2138,365.565 73.222,365.565 74.2302,365.565 75.2384,365.565 76.2466,365.565 77.2548,365.565 78.263,365.565 79.2712,365.565 80.2794,365.565 81.2876,365.565 
  82.2958,365.565 83.304,365.565 84.3121,365.565 85.3203,365.565 86.3285,365.565 87.3367,365.565 88.3449,365.565 89.3531,365.565 90.3613,365.565 91.3695,365.565 
  92.3777,365.565 93.3859,365.565 94.3941,365.565 95.4023,365.565 96.4105,365.565 97.4187,365.565 98.4269,365.565 99.4351,365.565 100.443,365.565 101.452,365.565 
  102.46,365.565 103.468,365.565 104.476,365.565 105.484,365.565 106.492,365.565 107.501,365.565 108.509,365.565 109.517,365.565 110.525,365.565 111.533,365.565 
  112.542,365.565 113.55,365.565 114.558,365.565 115.566,365.565 116.574,365.565 117.583,365.565 118.591,365.564 119.599,365.564 120.607,365.563 121.615,365.563 
  122.624,365.562 123.632,365.56 124.64,365.558 125.648,365.556 126.656,365.553 127.665,365.55 128.673,365.546 129.681,365.54 130.689,365.534 131.697,365.526 
  132.706,365.517 133.714,365.505 134.722,365.492 135.73,365.476 136.738,365.458 137.747,365.437 138.755,365.412 139.763,365.383 140.771,365.35 141.779,365.312 
  142.788,365.269 143.796,365.219 144.804,365.163 145.812,365.1 146.82,365.028 147.829,364.947 148.837,364.857 149.845,364.755 150.853,364.642 151.861,364.517 
  152.87,364.377 153.878,364.222 154.886,364.05 155.894,363.861 156.902,363.653 157.911,363.424 158.919,363.172 159.927,362.898 160.935,362.597 161.943,362.27 
  162.952,361.913 163.96,361.527 164.968,361.107 165.976,360.653 166.984,360.163 167.993,359.634 169.001,359.065 170.009,358.453 171.017,357.797 172.025,357.095 
  173.034,356.344 174.042,355.543 175.05,354.688 176.058,353.78 177.066,352.814 178.074,351.79 179.083,350.705 180.091,349.558 181.099,348.347 182.107,347.07 
  183.115,345.726 184.124,344.313 185.132,342.829 186.14,341.273 187.148,339.645 188.156,337.943 189.165,336.166 190.173,334.314 191.181,332.386 192.189,330.382 
  193.197,328.302 194.206,326.146 195.214,323.914 196.222,321.608 197.23,319.227 198.238,316.773 199.247,314.248 200.255,311.653 201.263,308.99 202.271,306.261 
  203.279,303.469 204.288,300.616 205.296,297.706 206.304,294.741 207.312,291.725 208.32,288.662 209.329,285.556 210.337,282.411 211.345,279.231 212.353,276.022 
  213.361,272.789 214.37,269.536 215.378,266.269 216.386,262.993 217.394,259.715 218.402,256.44 219.411,253.174 220.419,249.923 221.427,246.694 222.435,243.494 
  223.443,240.328 224.452,237.203 225.46,234.126 226.468,231.104 227.476,228.142 228.484,225.249 229.493,222.429 230.501,219.69 231.509,217.038 232.517,214.479 
  233.525,212.02 234.534,209.665 235.542,207.421 236.55,205.294 237.558,203.288 238.566,201.408 239.575,199.659 240.583,198.045 241.591,196.571 242.599,195.24 
  243.607,194.054 244.616,193.018 245.624,192.134 246.632,191.404 247.64,190.83 248.648,190.413 249.657,190.154 250.665,190.055 251.673,190.115 252.681,190.333 
  253.689,190.711 254.697,191.246 255.706,191.937 256.714,192.783 257.722,193.781 258.73,194.929 259.738,196.225 260.747,197.664 261.755,199.243 262.763,200.958 
  263.771,202.806 264.779,204.781 265.788,206.878 266.796,209.094 267.804,211.421 268.812,213.855 269.82,216.389 270.829,219.019 271.837,221.736 272.845,224.536 
  273.853,227.412 274.861,230.357 275.87,233.365 276.878,236.429 277.886,239.542 278.894,242.699 279.902,245.891 280.911,249.114 281.919,252.359 282.927,255.622 
  283.935,258.895 284.943,262.174 285.952,265.45 286.96,268.72 287.968,271.977 288.976,275.216 289.984,278.432 290.993,281.619 292.001,284.773 293.009,287.889 
  294.017,290.963 295.025,293.991 296.034,296.969 297.042,299.894 298.05,302.761 299.058,305.569 300.066,308.314 301.075,310.994 302.083,313.606 303.091,316.149 
  304.099,318.62 305.107,321.019 306.116,323.345 307.124,325.595 308.132,327.77 309.14,329.869 310.148,331.892 311.157,333.839 312.165,335.71 313.173,337.506 
  314.181,339.226 315.189,340.873 316.198,342.447 317.206,343.948 318.214,345.379 319.222,346.741 320.23,348.034 321.239,349.262 322.247,350.425 323.255,351.525 
  324.263,352.564 325.271,353.544 326.279,354.466 327.288,355.334 328.296,356.149 329.304,356.912 330.312,357.626 331.32,358.294 332.329,358.916 333.337,359.496 
  334.345,360.034 335.353,360.534 336.361,360.997 337.37,361.425 338.378,361.82 339.386,362.183 340.394,362.518 341.402,362.825 342.411,363.106 343.419,363.363 
  344.427,363.597 345.435,363.811 346.443,364.005 347.452,364.18 348.46,364.339 349.468,364.483 350.476,364.612 351.484,364.728 352.493,364.832 353.501,364.926 
  354.509,365.009 355.517,365.082 356.525,365.148 357.534,365.206 358.542,365.257 359.55,365.302 360.558,365.341 361.566,365.375 362.575,365.405 363.583,365.431 
  364.591,365.453 365.599,365.472 366.607,365.488 367.616,365.502 368.624,365.514 369.632,365.524 370.64,365.532 371.648,365.539 372.657,365.544 373.665,365.549 
  374.673,365.553 375.681,365.556 376.689,365.558 377.698,365.56 378.706,365.561 379.714,365.562 380.722,365.563 381.73,365.564 382.739,365.564 383.747,365.565 
  384.755,365.565 385.763,365.565 386.771,365.565 387.78,365.565 388.788,365.565 389.796,365.565 390.804,365.565 391.812,365.565 392.821,365.565 393.829,365.565 
  394.837,365.565 395.845,365.565 396.853,365.565 397.861,365.565 398.87,365.565 399.878,365.565 400.886,365.565 401.894,365.565 402.902,365.565 403.911,365.565 
  404.919,365.565 405.927,365.565 406.935,365.565 407.943,365.565 408.952,365.565 409.96,365.565 410.968,365.565 411.976,365.565 412.984,365.565 413.993,365.565 
  415.001,365.565 416.009,365.565 417.017,365.565 418.025,365.565 419.034,365.565 420.042,365.565 421.05,365.565 422.058,365.565 423.066,365.565 424.075,365.565 
  425.083,365.565 426.091,365.565 427.099,365.565 428.107,365.565 429.116,365.565 430.124,365.565 431.132,365.565 432.14,365.565 433.148,365.565 434.157,365.565 
  435.165,365.565 436.173,365.565 437.181,365.565 438.189,365.565 439.198,365.565 440.206,365.565 441.214,365.565 442.222,365.565 443.23,365.565 444.239,365.565 
  445.247,365.565 446.255,365.565 447.263,365.565 448.271,365.565 449.28,365.565 450.288,365.565 451.296,365.565 452.304,365.565 453.312,365.565 454.321,365.565 
  455.329,365.565 456.337,365.565 457.345,365.565 458.353,365.565 459.362,365.565 460.37,365.565 461.378,365.565 462.386,365.565 463.394,365.565 464.403,365.565 
  465.411,365.565 466.419,365.565 467.427,365.565 468.435,365.565 469.444,365.565 470.452,365.565 471.46,365.565 472.468,365.565 473.476,365.565 474.484,365.565 
  475.493,365.565 476.501,365.565 477.509,365.565 478.517,365.565 479.525,365.565 480.534,365.565 481.542,365.565 482.55,365.565 483.558,365.565 484.566,365.565 
  485.575,365.565 486.583,365.565 487.591,365.565 488.599,365.565 489.607,365.565 490.616,365.565 491.624,365.565 492.632,365.565 493.64,365.565 494.648,365.565 
  495.657,365.565 496.665,365.565 497.673,365.565 498.681,365.565 499.689,365.565 500.698,365.565 501.706,365.565 502.714,365.565 503.722,365.565 504.73,365.565 
  505.739,365.565 506.747,365.565 507.755,365.565 508.763,365.565 509.771,365.565 510.78,365.565 511.788,365.565 512.796,365.565 513.804,365.565 514.812,365.565 
  515.821,365.565 516.829,365.565 517.837,365.565 518.845,365.565 519.853,365.565 520.862,365.565 521.87,365.565 522.878,365.565 523.886,365.565 524.894,365.565 
  525.903,365.565 526.911,365.565 527.919,365.565 528.927,365.565 529.935,365.565 530.944,365.565 531.952,365.565 532.96,365.565 533.968,365.565 534.976,365.565 
  535.985,365.565 536.993,365.565 538.001,365.565 539.009,365.565 540.017,365.565 541.026,365.565 542.034,365.565 543.042,365.565 544.05,365.565 545.058,365.565 
  546.066,365.565 547.075,365.565 548.083,365.565 549.091,365.565 550.099,365.565 551.107,365.565 552.116,365.565 553.124,365.565 554.132,365.565 555.14,365.565 
  556.148,365.565 557.157,365.565 558.165,365.565 559.173,365.565 560.181,365.565 561.189,365.565 562.198,365.565 563.206,365.565 564.214,365.565 565.222,365.565 
  
  "/>
<polyline clip-path="url(#clip9202)" style="stroke:#c68125; stroke-width:1; stroke-opacity:1; fill:none" points="
  62.1318,365.565 63.14,365.565 64.1482,365.565 65.1564,365.565 66.1646,365.565 67.1728,365.565 68.181,365.565 69.1892,365.565 70.1974,365.565 71.2056,365.565 
  72.2138,365.565 73.222,365.565 74.2302,365.565 75.2384,365.565 76.2466,365.565 77.2548,365.565 78.263,365.565 79.2712,365.565 80.2794,365.565 81.2876,365.565 
  82.2958,365.565 83.304,365.565 84.3121,365.565 85.3203,365.565 86.3285,365.565 87.3367,365.565 88.3449,365.565 89.3531,365.565 90.3613,365.565 91.3695,365.565 
  92.3777,365.565 93.3859,365.565 94.3941,365.565 95.4023,365.565 96.4105,365.565 97.4187,365.565 98.4269,365.565 99.4351,365.565 100.443,365.565 101.452,365.565 
  102.46,365.565 103.468,365.565 104.476,365.565 105.484,365.565 106.492,365.565 107.501,365.565 108.509,365.565 109.517,365.565 110.525,365.565 111.533,365.565 
  112.542,365.565 113.55,365.565 114.558,365.565 115.566,365.565 116.574,365.565 117.583,365.565 118.591,365.565 119.599,365.565 120.607,365.565 121.615,365.565 
  122.624,365.565 123.632,365.565 124.64,365.565 125.648,365.565 126.656,365.564 127.665,365.564 128.673,365.564 129.681,365.563 130.689,365.562 131.697,365.561 
  132.706,365.56 133.714,365.559 134.722,365.558 135.73,365.556 136.738,365.553 137.747,365.55 138.755,365.547 139.763,365.543 140.771,365.538 141.779,365.533 
  142.788,365.526 143.796,365.518 144.804,365.509 145.812,365.499 146.82,365.487 147.829,365.473 148.837,365.457 149.845,365.439 150.853,365.418 151.861,365.394 
  152.87,365.367 153.878,365.337 154.886,365.303 155.894,365.264 156.902,365.221 157.911,365.172 158.919,365.117 159.927,365.057 160.935,364.989 161.943,364.914 
  162.952,364.83 163.96,364.738 164.968,364.636 165.976,364.523 166.984,364.4 167.993,364.264 169.001,364.115 170.009,363.951 171.017,363.773 172.025,363.578 
  173.034,363.367 174.042,363.136 175.05,362.886 176.058,362.615 177.066,362.322 178.074,362.005 179.083,361.664 180.091,361.296 181.099,360.9 182.107,360.475 
  183.115,360.019 184.124,359.531 185.132,359.01 186.14,358.453 187.148,357.859 188.156,357.226 189.165,356.553 190.173,355.839 191.181,355.081 192.189,354.279 
  193.197,353.43 194.206,352.533 195.214,351.586 196.222,350.589 197.23,349.54 198.238,348.436 199.247,347.278 200.255,346.064 201.263,344.793 202.271,343.463 
  203.279,342.075 204.288,340.626 205.296,339.116 206.304,337.545 207.312,335.912 208.32,334.217 209.329,332.459 210.337,330.639 211.345,328.756 212.353,326.811 
  213.361,324.805 214.37,322.737 215.378,320.608 216.386,318.421 217.394,316.174 218.402,313.871 219.411,311.512 220.419,309.099 221.427,306.635 222.435,304.12 
  223.443,301.558 224.452,298.951 225.46,296.301 226.468,293.612 227.476,290.887 228.484,288.128 229.493,285.34 230.501,282.526 231.509,279.689 232.517,276.834 
  233.525,273.965 234.534,271.086 235.542,268.202 236.55,265.316 237.558,262.435 238.566,259.562 239.575,256.703 240.583,253.862 241.591,251.044 242.599,248.255 
  243.607,245.5 244.616,242.783 245.624,240.111 246.632,237.487 247.64,234.918 248.648,232.408 249.657,229.962 250.665,227.585 251.673,225.283 252.681,223.059 
  253.689,220.919 254.697,218.867 255.706,216.908 256.714,215.045 257.722,213.283 258.73,211.626 259.738,210.076 260.747,208.639 261.755,207.316 262.763,206.111 
  263.771,205.027 264.779,204.065 265.788,203.229 266.796,202.52 267.804,201.94 268.812,201.489 269.82,201.17 270.829,200.983 271.837,200.927 272.845,201.005 
  273.853,201.214 274.861,201.555 275.87,202.027 276.878,202.629 277.886,203.36 278.894,204.217 279.902,205.199 280.911,206.304 281.919,207.528 282.927,208.87 
  283.935,210.327 284.943,211.894 285.952,213.57 286.96,215.349 287.968,217.228 288.976,219.203 289.984,221.27 290.993,223.424 292.001,225.661 293.009,227.976 
  294.017,230.365 295.025,232.822 296.034,235.342 297.042,237.921 298.05,240.553 299.058,243.233 300.066,245.957 301.075,248.718 302.083,251.512 303.091,254.334 
  304.099,257.178 305.107,260.04 306.116,262.915 307.124,265.797 308.132,268.683 309.14,271.566 310.148,274.444 311.157,277.311 312.165,280.163 313.173,282.996 
  314.181,285.807 315.189,288.59 316.198,291.344 317.206,294.063 318.214,296.746 319.222,299.389 320.23,301.988 321.239,304.543 322.247,307.049 323.255,309.505 
  324.263,311.909 325.271,314.259 326.279,316.553 327.288,318.789 328.296,320.967 329.304,323.086 330.312,325.143 331.32,327.14 332.329,329.074 333.337,330.947 
  334.345,332.756 335.353,334.504 336.361,336.188 337.37,337.811 338.378,339.372 339.386,340.871 340.394,342.31 341.402,343.689 342.411,345.009 343.419,346.271 
  344.427,347.475 345.435,348.624 346.443,349.718 347.452,350.759 348.46,351.748 349.468,352.686 350.476,353.574 351.484,354.415 352.493,355.21 353.501,355.961 
  354.509,356.668 355.517,357.334 356.525,357.96 357.534,358.548 358.542,359.099 359.55,359.615 360.558,360.097 361.566,360.548 362.575,360.968 363.583,361.359 
  364.591,361.722 365.599,362.06 366.607,362.372 367.616,362.662 368.624,362.929 369.632,363.176 370.64,363.403 371.648,363.612 372.657,363.804 373.665,363.98 
  374.673,364.14 375.681,364.287 376.689,364.421 377.698,364.543 378.706,364.654 379.714,364.754 380.722,364.845 381.73,364.927 382.739,365.001 383.747,365.067 
  384.755,365.127 385.763,365.18 386.771,365.228 387.78,365.271 388.788,365.309 389.796,365.342 390.804,365.372 391.812,365.399 392.821,365.422 393.829,365.442 
  394.837,365.46 395.845,365.475 396.853,365.489 397.861,365.501 398.87,365.511 399.878,365.52 400.886,365.527 401.894,365.534 402.902,365.539 403.911,365.544 
  404.919,365.548 405.927,365.551 406.935,365.554 407.943,365.556 408.952,365.558 409.96,365.559 410.968,365.561 411.976,365.562 412.984,365.562 413.993,365.563 
  415.001,365.564 416.009,365.564 417.017,365.564 418.025,365.565 419.034,365.565 420.042,365.565 421.05,365.565 422.058,365.565 423.066,365.565 424.075,365.565 
  425.083,365.565 426.091,365.565 427.099,365.565 428.107,365.565 429.116,365.565 430.124,365.565 431.132,365.565 432.14,365.565 433.148,365.565 434.157,365.565 
  435.165,365.565 436.173,365.565 437.181,365.565 438.189,365.565 439.198,365.565 440.206,365.565 441.214,365.565 442.222,365.565 443.23,365.565 444.239,365.565 
  445.247,365.565 446.255,365.565 447.263,365.565 448.271,365.565 449.28,365.565 450.288,365.565 451.296,365.565 452.304,365.565 453.312,365.565 454.321,365.565 
  455.329,365.565 456.337,365.565 457.345,365.565 458.353,365.565 459.362,365.565 460.37,365.565 461.378,365.565 462.386,365.565 463.394,365.565 464.403,365.565 
  465.411,365.565 466.419,365.565 467.427,365.565 468.435,365.565 469.444,365.565 470.452,365.565 471.46,365.565 472.468,365.565 473.476,365.565 474.484,365.565 
  475.493,365.565 476.501,365.565 477.509,365.565 478.517,365.565 479.525,365.565 480.534,365.565 481.542,365.565 482.55,365.565 483.558,365.565 484.566,365.565 
  485.575,365.565 486.583,365.565 487.591,365.565 488.599,365.565 489.607,365.565 490.616,365.565 491.624,365.565 492.632,365.565 493.64,365.565 494.648,365.565 
  495.657,365.565 496.665,365.565 497.673,365.565 498.681,365.565 499.689,365.565 500.698,365.565 501.706,365.565 502.714,365.565 503.722,365.565 504.73,365.565 
  505.739,365.565 506.747,365.565 507.755,365.565 508.763,365.565 509.771,365.565 510.78,365.565 511.788,365.565 512.796,365.565 513.804,365.565 514.812,365.565 
  515.821,365.565 516.829,365.565 517.837,365.565 518.845,365.565 519.853,365.565 520.862,365.565 521.87,365.565 522.878,365.565 523.886,365.565 524.894,365.565 
  525.903,365.565 526.911,365.565 527.919,365.565 528.927,365.565 529.935,365.565 530.944,365.565 531.952,365.565 532.96,365.565 533.968,365.565 534.976,365.565 
  535.985,365.565 536.993,365.565 538.001,365.565 539.009,365.565 540.017,365.565 541.026,365.565 542.034,365.565 543.042,365.565 544.05,365.565 545.058,365.565 
  546.066,365.565 547.075,365.565 548.083,365.565 549.091,365.565 550.099,365.565 551.107,365.565 552.116,365.565 553.124,365.565 554.132,365.565 555.14,365.565 
  556.148,365.565 557.157,365.565 558.165,365.565 559.173,365.565 560.181,365.565 561.189,365.565 562.198,365.565 563.206,365.565 564.214,365.565 565.222,365.565 
  
  "/>
<polyline clip-path="url(#clip9202)" style="stroke:#00a98d; stroke-width:1; stroke-opacity:1; fill:none" points="
  62.1318,365.565 63.14,365.565 64.1482,365.565 65.1564,365.565 66.1646,365.565 67.1728,365.565 68.181,365.565 69.1892,365.565 70.1974,365.565 71.2056,365.565 
  72.2138,365.565 73.222,365.565 74.2302,365.565 75.2384,365.565 76.2466,365.565 77.2548,365.565 78.263,365.565 79.2712,365.565 80.2794,365.565 81.2876,365.565 
  82.2958,365.565 83.304,365.565 84.3121,365.565 85.3203,365.565 86.3285,365.565 87.3367,365.565 88.3449,365.565 89.3531,365.565 90.3613,365.565 91.3695,365.565 
  92.3777,365.565 93.3859,365.565 94.3941,365.565 95.4023,365.565 96.4105,365.565 97.4187,365.565 98.4269,365.565 99.4351,365.565 100.443,365.565 101.452,365.565 
  102.46,365.565 103.468,365.565 104.476,365.565 105.484,365.565 106.492,365.565 107.501,365.565 108.509,365.565 109.517,365.565 110.525,365.565 111.533,365.565 
  112.542,365.565 113.55,365.565 114.558,365.565 115.566,365.565 116.574,365.565 117.583,365.565 118.591,365.565 119.599,365.565 120.607,365.565 121.615,365.565 
  122.624,365.565 123.632,365.565 124.64,365.565 125.648,365.565 126.656,365.565 127.665,365.565 128.673,365.565 129.681,365.565 130.689,365.565 131.697,365.565 
  132.706,365.565 133.714,365.565 134.722,365.564 135.73,365.564 136.738,365.564 137.747,365.564 138.755,365.563 139.763,365.563 140.771,365.562 141.779,365.562 
  142.788,365.561 143.796,365.56 144.804,365.558 145.812,365.557 146.82,365.555 147.829,365.553 148.837,365.551 149.845,365.548 150.853,365.545 151.861,365.541 
  152.87,365.536 153.878,365.531 154.886,365.525 155.894,365.519 156.902,365.511 157.911,365.502 158.919,365.492 159.927,365.48 160.935,365.467 161.943,365.453 
  162.952,365.436 163.96,365.417 164.968,365.396 165.976,365.372 166.984,365.346 167.993,365.316 169.001,365.283 170.009,365.247 171.017,365.206 172.025,365.16 
  173.034,365.11 174.042,365.055 175.05,364.993 176.058,364.926 177.066,364.852 178.074,364.77 179.083,364.681 180.091,364.583 181.099,364.476 182.107,364.359 
  183.115,364.232 184.124,364.094 185.132,363.943 186.14,363.78 187.148,363.603 188.156,363.412 189.165,363.205 190.173,362.982 191.181,362.742 192.189,362.483 
  193.197,362.205 194.206,361.907 195.214,361.587 196.222,361.244 197.23,360.878 198.238,360.486 199.247,360.069 200.255,359.624 201.263,359.15 202.271,358.647 
  203.279,358.113 204.288,357.546 205.296,356.946 206.304,356.311 207.312,355.639 208.32,354.931 209.329,354.184 210.337,353.397 211.345,352.569 212.353,351.699 
  213.361,350.786 214.37,349.828 215.378,348.825 216.386,347.776 217.394,346.679 218.402,345.534 219.411,344.34 220.419,343.097 221.427,341.802 222.435,340.457 
  223.443,339.06 224.452,337.611 225.46,336.11 226.468,334.556 227.476,332.95 228.484,331.291 229.493,329.579 230.501,327.815 231.509,326 232.517,324.133 
  233.525,322.215 234.534,320.247 235.542,318.231 236.55,316.166 237.558,314.055 238.566,311.899 239.575,309.698 240.583,307.456 241.591,305.173 242.599,302.852 
  243.607,300.495 244.616,298.104 245.624,295.681 246.632,293.229 247.64,290.751 248.648,288.25 249.657,285.728 250.665,283.188 251.673,280.635 252.681,278.071 
  253.689,275.499 254.697,272.924 255.706,270.349 256.714,267.777 257.722,265.213 258.73,262.66 259.738,260.122 260.747,257.604 261.755,255.109 262.763,252.642 
  263.771,250.207 264.779,247.807 265.788,245.447 266.796,243.131 267.804,240.863 268.812,238.647 269.82,236.488 270.829,234.389 271.837,232.354 272.845,230.386 
  273.853,228.491 274.861,226.67 275.87,224.929 276.878,223.269 277.886,221.695 278.894,220.209 279.902,218.815 280.911,217.515 281.919,216.312 282.927,215.208 
  283.935,214.205 284.943,213.306 285.952,212.512 286.96,211.826 287.968,211.247 288.976,210.778 289.984,210.42 290.993,210.173 292.001,210.037 293.009,210.014 
  294.017,210.103 295.025,210.303 296.034,210.615 297.042,211.038 298.05,211.571 299.058,212.213 300.066,212.962 301.075,213.818 302.083,214.778 303.091,215.84 
  304.099,217.002 305.107,218.262 306.116,219.617 307.124,221.065 308.132,222.603 309.14,224.227 310.148,225.935 311.157,227.723 312.165,229.588 313.173,231.525 
  314.181,233.533 315.189,235.606 316.198,237.741 317.206,239.933 318.214,242.18 319.222,244.476 320.23,246.818 321.239,249.202 322.247,251.623 323.255,254.078 
  324.263,256.562 325.271,259.071 326.279,261.601 327.288,264.147 328.296,266.707 329.304,269.277 330.312,271.851 331.32,274.427 332.329,277 333.337,279.568 
  334.345,282.126 335.353,284.672 336.361,287.201 337.37,289.711 338.378,292.2 339.386,294.663 340.394,297.098 341.402,299.502 342.411,301.874 343.419,304.211 
  344.427,306.51 345.435,308.769 346.443,310.987 347.452,313.162 348.46,315.292 349.468,317.376 350.476,319.413 351.484,321.401 352.493,323.34 353.501,325.228 
  354.509,327.065 355.517,328.85 356.525,330.584 357.534,332.265 358.542,333.893 359.55,335.469 360.558,336.992 361.566,338.463 362.575,339.881 363.583,341.248 
  364.591,342.564 365.599,343.828 366.607,345.043 367.616,346.208 368.624,347.325 369.632,348.394 370.64,349.416 371.648,350.392 372.657,351.324 373.665,352.212 
  374.673,353.057 375.681,353.861 376.689,354.624 377.698,355.349 378.706,356.035 379.714,356.685 380.722,357.3 381.73,357.881 382.739,358.428 383.747,358.944 
  384.755,359.43 385.763,359.887 386.771,360.316 387.78,360.718 388.788,361.094 389.796,361.447 390.804,361.776 391.812,362.083 392.821,362.37 393.829,362.636 
  394.837,362.884 395.845,363.114 396.853,363.328 397.861,363.525 398.87,363.708 399.878,363.877 400.886,364.032 401.894,364.176 402.902,364.307 403.911,364.428 
  404.919,364.539 405.927,364.641 406.935,364.734 407.943,364.819 408.952,364.896 409.96,364.966 410.968,365.03 411.976,365.088 412.984,365.14 413.993,365.187 
  415.001,365.23 416.009,365.268 417.017,365.303 418.025,365.334 419.034,365.362 420.042,365.387 421.05,365.409 422.058,365.428 423.066,365.446 424.075,365.461 
  425.083,365.475 426.091,365.487 427.099,365.498 428.107,365.507 429.116,365.516 430.124,365.523 431.132,365.529 432.14,365.534 433.148,365.539 434.157,365.543 
  435.165,365.547 436.173,365.55 437.181,365.552 438.189,365.554 439.198,365.556 440.206,365.558 441.214,365.559 442.222,365.56 443.23,365.561 444.239,365.562 
  445.247,365.563 446.255,365.563 447.263,365.564 448.271,365.564 449.28,365.564 450.288,365.564 451.296,365.565 452.304,365.565 453.312,365.565 454.321,365.565 
  455.329,365.565 456.337,365.565 457.345,365.565 458.353,365.565 459.362,365.565 460.37,365.565 461.378,365.565 462.386,365.565 463.394,365.565 464.403,365.565 
  465.411,365.565 466.419,365.565 467.427,365.565 468.435,365.565 469.444,365.565 470.452,365.565 471.46,365.565 472.468,365.565 473.476,365.565 474.484,365.565 
  475.493,365.565 476.501,365.565 477.509,365.565 478.517,365.565 479.525,365.565 480.534,365.565 481.542,365.565 482.55,365.565 483.558,365.565 484.566,365.565 
  485.575,365.565 486.583,365.565 487.591,365.565 488.599,365.565 489.607,365.565 490.616,365.565 491.624,365.565 492.632,365.565 493.64,365.565 494.648,365.565 
  495.657,365.565 496.665,365.565 497.673,365.565 498.681,365.565 499.689,365.565 500.698,365.565 501.706,365.565 502.714,365.565 503.722,365.565 504.73,365.565 
  505.739,365.565 506.747,365.565 507.755,365.565 508.763,365.565 509.771,365.565 510.78,365.565 511.788,365.565 512.796,365.565 513.804,365.565 514.812,365.565 
  515.821,365.565 516.829,365.565 517.837,365.565 518.845,365.565 519.853,365.565 520.862,365.565 521.87,365.565 522.878,365.565 523.886,365.565 524.894,365.565 
  525.903,365.565 526.911,365.565 527.919,365.565 528.927,365.565 529.935,365.565 530.944,365.565 531.952,365.565 532.96,365.565 533.968,365.565 534.976,365.565 
  535.985,365.565 536.993,365.565 538.001,365.565 539.009,365.565 540.017,365.565 541.026,365.565 542.034,365.565 543.042,365.565 544.05,365.565 545.058,365.565 
  546.066,365.565 547.075,365.565 548.083,365.565 549.091,365.565 550.099,365.565 551.107,365.565 552.116,365.565 553.124,365.565 554.132,365.565 555.14,365.565 
  556.148,365.565 557.157,365.565 558.165,365.565 559.173,365.565 560.181,365.565 561.189,365.565 562.198,365.565 563.206,365.565 564.214,365.565 565.222,365.565 
  
  "/>
<polyline clip-path="url(#clip9202)" style="stroke:#8e971d; stroke-width:1; stroke-opacity:1; fill:none" points="
  62.1318,365.565 63.14,365.565 64.1482,365.565 65.1564,365.565 66.1646,365.565 67.1728,365.565 68.181,365.565 69.1892,365.565 70.1974,365.565 71.2056,365.565 
  72.2138,365.565 73.222,365.565 74.2302,365.565 75.2384,365.565 76.2466,365.565 77.2548,365.565 78.263,365.565 79.2712,365.565 80.2794,365.565 81.2876,365.565 
  82.2958,365.565 83.304,365.565 84.3121,365.565 85.3203,365.565 86.3285,365.565 87.3367,365.565 88.3449,365.565 89.3531,365.565 90.3613,365.565 91.3695,365.565 
  92.3777,365.565 93.3859,365.565 94.3941,365.565 95.4023,365.565 96.4105,365.565 97.4187,365.565 98.4269,365.565 99.4351,365.565 100.443,365.565 101.452,365.565 
  102.46,365.565 103.468,365.565 104.476,365.565 105.484,365.565 106.492,365.565 107.501,365.565 108.509,365.565 109.517,365.565 110.525,365.565 111.533,365.565 
  112.542,365.565 113.55,365.565 114.558,365.565 115.566,365.565 116.574,365.565 117.583,365.565 118.591,365.565 119.599,365.565 120.607,365.565 121.615,365.565 
  122.624,365.565 123.632,365.565 124.64,365.565 125.648,365.565 126.656,365.565 127.665,365.565 128.673,365.565 129.681,365.565 130.689,365.565 131.697,365.565 
  132.706,365.565 133.714,365.565 134.722,365.565 135.73,365.565 136.738,365.565 137.747,365.565 138.755,365.565 139.763,365.565 140.771,365.565 141.779,365.565 
  142.788,365.565 143.796,365.565 144.804,365.564 145.812,365.564 146.82,365.564 147.829,365.564 148.837,365.563 149.845,365.563 150.853,365.563 151.861,365.562 
  152.87,365.561 153.878,365.561 154.886,365.56 155.894,365.559 156.902,365.558 157.911,365.556 158.919,365.555 159.927,365.553 160.935,365.55 161.943,365.548 
  162.952,365.545 163.96,365.542 164.968,365.538 165.976,365.534 166.984,365.529 167.993,365.523 169.001,365.517 170.009,365.509 171.017,365.501 172.025,365.492 
  173.034,365.482 174.042,365.47 175.05,365.457 176.058,365.443 177.066,365.426 178.074,365.408 179.083,365.388 180.091,365.366 181.099,365.341 182.107,365.313 
  183.115,365.283 184.124,365.249 185.132,365.212 186.14,365.171 187.148,365.127 188.156,365.077 189.165,365.023 190.173,364.964 191.181,364.9 192.189,364.829 
  193.197,364.752 194.206,364.668 195.214,364.577 196.222,364.478 197.23,364.371 198.238,364.255 199.247,364.129 200.255,363.993 201.263,363.846 202.271,363.688 
  203.279,363.517 204.288,363.334 205.296,363.137 206.304,362.926 207.312,362.699 208.32,362.457 209.329,362.197 210.337,361.92 211.345,361.624 212.353,361.309 
  213.361,360.973 214.37,360.616 215.378,360.237 216.386,359.834 217.394,359.406 218.402,358.954 219.411,358.475 220.419,357.969 221.427,357.434 222.435,356.87 
  223.443,356.275 224.452,355.649 225.46,354.991 226.468,354.299 227.476,353.573 228.484,352.811 229.493,352.013 230.501,351.178 231.509,350.305 232.517,349.393 
  233.525,348.441 234.534,347.449 235.542,346.415 236.55,345.339 237.558,344.221 238.566,343.06 239.575,341.855 240.583,340.606 241.591,339.312 242.599,337.974 
  243.607,336.591 244.616,335.163 245.624,333.69 246.632,332.171 247.64,330.608 248.648,329 249.657,327.348 250.665,325.652 251.673,323.912 252.681,322.13 
  253.689,320.306 254.697,318.441 255.706,316.536 256.714,314.592 257.722,312.61 258.73,310.591 259.738,308.538 260.747,306.452 261.755,304.333 262.763,302.185 
  263.771,300.009 264.779,297.807 265.788,295.581 266.796,293.334 267.804,291.068 268.812,288.785 269.82,286.488 270.829,284.179 271.837,281.862 272.845,279.539 
  273.853,277.213 274.861,274.887 275.87,272.565 276.878,270.248 277.886,267.942 278.894,265.648 279.902,263.37 280.911,261.111 281.919,258.875 282.927,256.665 
  283.935,254.485 284.943,252.338 285.952,250.226 286.96,248.155 287.968,246.126 288.976,244.144 289.984,242.211 290.993,240.331 292.001,238.507 293.009,236.743 
  294.017,235.04 295.025,233.403 296.034,231.833 297.042,230.335 298.05,228.909 299.058,227.56 300.066,226.289 301.075,225.099 302.083,223.992 303.091,222.969 
  304.099,222.034 305.107,221.187 306.116,220.43 307.124,219.764 308.132,219.191 309.14,218.712 310.148,218.328 311.157,218.039 312.165,217.846 313.173,217.75 
  314.181,217.75 315.189,217.846 316.198,218.039 317.206,218.328 318.214,218.712 319.222,219.191 320.23,219.764 321.239,220.43 322.247,221.187 323.255,222.034 
  324.263,222.969 325.271,223.992 326.279,225.099 327.288,226.289 328.296,227.56 329.304,228.909 330.312,230.335 331.32,231.833 332.329,233.403 333.337,235.04 
  334.345,236.743 335.353,238.507 336.361,240.331 337.37,242.211 338.378,244.144 339.386,246.126 340.394,248.155 341.402,250.226 342.411,252.338 343.419,254.485 
  344.427,256.665 345.435,258.875 346.443,261.111 347.452,263.37 348.46,265.648 349.468,267.942 350.476,270.248 351.484,272.565 352.493,274.887 353.501,277.213 
  354.509,279.539 355.517,281.862 356.525,284.179 357.534,286.488 358.542,288.785 359.55,291.068 360.558,293.334 361.566,295.581 362.575,297.807 363.583,300.009 
  364.591,302.185 365.599,304.333 366.607,306.452 367.616,308.538 368.624,310.591 369.632,312.61 370.64,314.592 371.648,316.536 372.657,318.441 373.665,320.306 
  374.673,322.13 375.681,323.912 376.689,325.652 377.698,327.348 378.706,329 379.714,330.608 380.722,332.171 381.73,333.69 382.739,335.163 383.747,336.591 
  384.755,337.974 385.763,339.312 386.771,340.606 387.78,341.855 388.788,343.06 389.796,344.221 390.804,345.339 391.812,346.415 392.821,347.449 393.829,348.441 
  394.837,349.393 395.845,350.305 396.853,351.178 397.861,352.013 398.87,352.811 399.878,353.573 400.886,354.299 401.894,354.991 402.902,355.649 403.911,356.275 
  404.919,356.87 405.927,357.434 406.935,357.969 407.943,358.475 408.952,358.954 409.96,359.406 410.968,359.834 411.976,360.237 412.984,360.616 413.993,360.973 
  415.001,361.309 416.009,361.624 417.017,361.92 418.025,362.197 419.034,362.457 420.042,362.699 421.05,362.926 422.058,363.137 423.066,363.334 424.075,363.517 
  425.083,363.688 426.091,363.846 427.099,363.993 428.107,364.129 429.116,364.255 430.124,364.371 431.132,364.478 432.14,364.577 433.148,364.668 434.157,364.752 
  435.165,364.829 436.173,364.9 437.181,364.964 438.189,365.023 439.198,365.077 440.206,365.127 441.214,365.171 442.222,365.212 443.23,365.249 444.239,365.283 
  445.247,365.313 446.255,365.341 447.263,365.366 448.271,365.388 449.28,365.408 450.288,365.426 451.296,365.443 452.304,365.457 453.312,365.47 454.321,365.482 
  455.329,365.492 456.337,365.501 457.345,365.509 458.353,365.517 459.362,365.523 460.37,365.529 461.378,365.534 462.386,365.538 463.394,365.542 464.403,365.545 
  465.411,365.548 466.419,365.55 467.427,365.553 468.435,365.555 469.444,365.556 470.452,365.558 471.46,365.559 472.468,365.56 473.476,365.561 474.484,365.561 
  475.493,365.562 476.501,365.563 477.509,365.563 478.517,365.563 479.525,365.564 480.534,365.564 481.542,365.564 482.55,365.564 483.558,365.565 484.566,365.565 
  485.575,365.565 486.583,365.565 487.591,365.565 488.599,365.565 489.607,365.565 490.616,365.565 491.624,365.565 492.632,365.565 493.64,365.565 494.648,365.565 
  495.657,365.565 496.665,365.565 497.673,365.565 498.681,365.565 499.689,365.565 500.698,365.565 501.706,365.565 502.714,365.565 503.722,365.565 504.73,365.565 
  505.739,365.565 506.747,365.565 507.755,365.565 508.763,365.565 509.771,365.565 510.78,365.565 511.788,365.565 512.796,365.565 513.804,365.565 514.812,365.565 
  515.821,365.565 516.829,365.565 517.837,365.565 518.845,365.565 519.853,365.565 520.862,365.565 521.87,365.565 522.878,365.565 523.886,365.565 524.894,365.565 
  525.903,365.565 526.911,365.565 527.919,365.565 528.927,365.565 529.935,365.565 530.944,365.565 531.952,365.565 532.96,365.565 533.968,365.565 534.976,365.565 
  535.985,365.565 536.993,365.565 538.001,365.565 539.009,365.565 540.017,365.565 541.026,365.565 542.034,365.565 543.042,365.565 544.05,365.565 545.058,365.565 
  546.066,365.565 547.075,365.565 548.083,365.565 549.091,365.565 550.099,365.565 551.107,365.565 552.116,365.565 553.124,365.565 554.132,365.565 555.14,365.565 
  556.148,365.565 557.157,365.565 558.165,365.565 559.173,365.565 560.181,365.565 561.189,365.565 562.198,365.565 563.206,365.565 564.214,365.565 565.222,365.565 
  
  "/>
<polyline clip-path="url(#clip9202)" style="stroke:#00a8cb; stroke-width:1; stroke-opacity:1; fill:none" points="
  62.1318,365.565 63.14,365.565 64.1482,365.565 65.1564,365.565 66.1646,365.565 67.1728,365.565 68.181,365.565 69.1892,365.565 70.1974,365.565 71.2056,365.565 
  72.2138,365.565 73.222,365.565 74.2302,365.565 75.2384,365.565 76.2466,365.565 77.2548,365.565 78.263,365.565 79.2712,365.565 80.2794,365.565 81.2876,365.565 
  82.2958,365.565 83.304,365.565 84.3121,365.565 85.3203,365.565 86.3285,365.565 87.3367,365.565 88.3449,365.565 89.3531,365.565 90.3613,365.565 91.3695,365.565 
  92.3777,365.565 93.3859,365.565 94.3941,365.565 95.4023,365.565 96.4105,365.565 97.4187,365.565 98.4269,365.565 99.4351,365.565 100.443,365.565 101.452,365.565 
  102.46,365.565 103.468,365.565 104.476,365.565 105.484,365.565 106.492,365.565 107.501,365.565 108.509,365.565 109.517,365.565 110.525,365.565 111.533,365.565 
  112.542,365.565 113.55,365.565 114.558,365.565 115.566,365.565 116.574,365.565 117.583,365.565 118.591,365.565 119.599,365.565 120.607,365.565 121.615,365.565 
  122.624,365.565 123.632,365.565 124.64,365.565 125.648,365.565 126.656,365.565 127.665,365.565 128.673,365.565 129.681,365.565 130.689,365.565 131.697,365.565 
  132.706,365.565 133.714,365.565 134.722,365.565 135.73,365.565 136.738,365.565 137.747,365.565 138.755,365.565 139.763,365.565 140.771,365.565 141.779,365.565 
  142.788,365.565 143.796,365.565 144.804,365.565 145.812,365.565 146.82,365.565 147.829,365.565 148.837,365.565 149.845,365.565 150.853,365.565 151.861,365.565 
  152.87,365.565 153.878,365.565 154.886,365.565 155.894,365.564 156.902,365.564 157.911,365.564 158.919,365.564 159.927,365.563 160.935,365.563 161.943,365.563 
  162.952,365.562 163.96,365.562 164.968,365.561 165.976,365.56 166.984,365.56 167.993,365.559 169.001,365.558 170.009,365.556 171.017,365.555 172.025,365.553 
  173.034,365.551 174.042,365.549 175.05,365.547 176.058,365.544 177.066,365.541 178.074,365.537 179.083,365.533 180.091,365.529 181.099,365.524 182.107,365.518 
  183.115,365.512 184.124,365.504 185.132,365.496 186.14,365.487 187.148,365.478 188.156,365.466 189.165,365.454 190.173,365.44 191.181,365.425 192.189,365.408 
  193.197,365.39 194.206,365.369 195.214,365.347 196.222,365.322 197.23,365.295 198.238,365.265 199.247,365.232 200.255,365.196 201.263,365.157 202.271,365.114 
  203.279,365.067 204.288,365.016 205.296,364.96 206.304,364.9 207.312,364.835 208.32,364.764 209.329,364.687 210.337,364.603 211.345,364.513 212.353,364.416 
  213.361,364.311 214.37,364.198 215.378,364.077 216.386,363.946 217.394,363.806 218.402,363.655 219.411,363.494 220.419,363.321 221.427,363.136 222.435,362.939 
  223.443,362.728 224.452,362.503 225.46,362.263 226.468,362.008 227.476,361.737 228.484,361.449 229.493,361.143 230.501,360.819 231.509,360.476 232.517,360.112 
  233.525,359.728 234.534,359.322 235.542,358.893 236.55,358.441 237.558,357.965 238.566,357.464 239.575,356.936 240.583,356.383 241.591,355.801 242.599,355.191 
  243.607,354.552 244.616,353.883 245.624,353.184 246.632,352.452 247.64,351.688 248.648,350.892 249.657,350.061 250.665,349.196 251.673,348.296 252.681,347.36 
  253.689,346.388 254.697,345.379 255.706,344.332 256.714,343.248 257.722,342.126 258.73,340.965 259.738,339.766 260.747,338.528 261.755,337.25 262.763,335.934 
  263.771,334.578 264.779,333.183 265.788,331.749 266.796,330.276 267.804,328.765 268.812,327.215 269.82,325.628 270.829,324.004 271.837,322.343 272.845,320.647 
  273.853,318.915 274.861,317.15 275.87,315.351 276.878,313.52 277.886,311.659 278.894,309.768 279.902,307.849 280.911,305.903 281.919,303.932 282.927,301.937 
  283.935,299.921 284.943,297.884 285.952,295.83 286.96,293.76 287.968,291.675 288.976,289.579 289.984,287.473 290.993,285.36 292.001,283.242 293.009,281.122 
  294.017,279.002 295.025,276.884 296.034,274.771 297.042,272.667 298.05,270.573 299.058,268.492 300.066,266.427 301.075,264.381 302.083,262.357 303.091,260.357 
  304.099,258.385 305.107,256.443 306.116,254.534 307.124,252.66 308.132,250.826 309.14,249.032 310.148,247.283 311.157,245.58 312.165,243.927 313.173,242.326 
  314.181,240.779 315.189,239.29 316.198,237.86 317.206,236.491 318.214,235.187 319.222,233.948 320.23,232.778 321.239,231.678 322.247,230.649 323.255,229.695 
  324.263,228.815 325.271,228.013 326.279,227.288 327.288,226.643 328.296,226.078 329.304,225.595 330.312,225.194 331.32,224.876 332.329,224.641 333.337,224.49 
  334.345,224.423 335.353,224.441 336.361,224.543 337.37,224.729 338.378,224.998 339.386,225.351 340.394,225.786 341.402,226.304 342.411,226.902 343.419,227.581 
  344.427,228.338 345.435,229.173 346.443,230.083 347.452,231.069 348.46,232.127 349.468,233.257 350.476,234.456 351.484,235.722 352.493,237.054 353.501,238.448 
  354.509,239.903 355.517,241.417 356.525,242.987 357.534,244.61 358.542,246.284 359.55,248.006 360.558,249.774 361.566,251.585 362.575,253.437 363.583,255.325 
  364.591,257.248 365.599,259.203 366.607,261.188 367.616,263.198 368.624,265.231 369.632,267.285 370.64,269.357 371.648,271.444 372.657,273.542 373.665,275.651 
  374.673,277.766 375.681,279.885 376.689,282.006 377.698,284.125 378.706,286.241 379.714,288.352 380.722,290.454 381.73,292.545 382.739,294.624 383.747,296.688 
  384.755,298.735 385.763,300.763 386.771,302.771 387.78,304.756 388.788,306.717 389.796,308.652 390.804,310.559 391.812,312.438 392.821,314.287 393.829,316.105 
  394.837,317.89 395.845,319.641 396.853,321.358 397.861,323.04 398.87,324.685 399.878,326.294 400.886,327.866 401.894,329.399 402.902,330.894 403.911,332.351 
  404.919,333.769 405.927,335.147 406.935,336.487 407.943,337.787 408.952,339.048 409.96,340.27 410.968,341.454 411.976,342.598 412.984,343.704 413.993,344.773 
  415.001,345.803 416.009,346.797 417.017,347.754 418.025,348.675 419.034,349.561 420.042,350.411 421.05,351.228 422.058,352.011 423.066,352.761 424.075,353.479 
  425.083,354.166 426.091,354.822 427.099,355.449 428.107,356.047 429.116,356.617 430.124,357.159 431.132,357.676 432.14,358.166 433.148,358.632 434.157,359.074 
  435.165,359.493 436.173,359.89 437.181,360.266 438.189,360.621 439.198,360.956 440.206,361.273 441.214,361.571 442.222,361.852 443.23,362.116 444.239,362.365 
  445.247,362.598 446.255,362.817 447.263,363.023 448.271,363.215 449.28,363.394 450.288,363.562 451.296,363.719 452.304,363.865 453.312,364.002 454.321,364.128 
  455.329,364.246 456.337,364.356 457.345,364.457 458.353,364.552 459.362,364.639 460.37,364.719 461.378,364.794 462.386,364.863 463.394,364.926 464.403,364.984 
  465.411,365.038 466.419,365.087 467.427,365.132 468.435,365.173 469.444,365.211 470.452,365.246 471.46,365.278 472.468,365.306 473.476,365.333 474.484,365.356 
  475.493,365.378 476.501,365.398 477.509,365.416 478.517,365.432 479.525,365.446 480.534,365.459 481.542,365.471 482.55,365.482 483.558,365.491 484.566,365.5 
  485.575,365.508 486.583,365.514 487.591,365.521 488.599,365.526 489.607,365.531 490.616,365.535 491.624,365.539 492.632,365.542 493.64,365.545 494.648,365.548 
  495.657,365.55 496.665,365.552 497.673,365.554 498.681,365.556 499.689,365.557 500.698,365.558 501.706,365.559 502.714,365.56 503.722,365.561 504.73,365.561 
  505.739,365.562 506.747,365.563 507.755,365.563 508.763,365.563 509.771,365.564 510.78,365.564 511.788,365.564 512.796,365.564 513.804,365.564 514.812,365.565 
  515.821,365.565 516.829,365.565 517.837,365.565 518.845,365.565 519.853,365.565 520.862,365.565 521.87,365.565 522.878,365.565 523.886,365.565 524.894,365.565 
  525.903,365.565 526.911,365.565 527.919,365.565 528.927,365.565 529.935,365.565 530.944,365.565 531.952,365.565 532.96,365.565 533.968,365.565 534.976,365.565 
  535.985,365.565 536.993,365.565 538.001,365.565 539.009,365.565 540.017,365.565 541.026,365.565 542.034,365.565 543.042,365.565 544.05,365.565 545.058,365.565 
  546.066,365.565 547.075,365.565 548.083,365.565 549.091,365.565 550.099,365.565 551.107,365.565 552.116,365.565 553.124,365.565 554.132,365.565 555.14,365.565 
  556.148,365.565 557.157,365.565 558.165,365.565 559.173,365.565 560.181,365.565 561.189,365.565 562.198,365.565 563.206,365.565 564.214,365.565 565.222,365.565 
  
  "/>
</svg>
