<?xml version="1.0" encoding="utf-8"?>
<svg xmlns="http://www.w3.org/2000/svg" xmlns:xlink="http://www.w3.org/1999/xlink" width="600" height="400" viewBox="0 0 600 400">
<defs>
  <clipPath id="clip9600">
    <rect x="0" y="0" width="600" height="400"/>
  </clipPath>
</defs>
<polygon clip-path="url(#clip9600)" points="
0,400 600,400 600,0 0,0 
  " fill="#ffffff" fill-opacity="1"/>
<defs>
  <clipPath id="clip9601">
    <rect x="120" y="0" width="421" height="400"/>
  </clipPath>
</defs>
<polygon clip-path="url(#clip9600)" points="
47.0391,375.869 580.315,375.869 580.315,11.811 47.0391,11.811 
  " fill="#ffffff" fill-opacity="1"/>
<defs>
  <clipPath id="clip9602">
    <rect x="47" y="11" width="534" height="365"/>
  </clipPath>
</defs>
<polyline clip-path="url(#clip9602)" style="stroke:#000000; stroke-width:0.5; stroke-opacity:0.1; fill:none" points="
  62.1318,375.869 62.1318,11.811 
  "/>
<polyline clip-path="url(#clip9602)" style="stroke:#000000; stroke-width:0.5; stroke-opacity:0.1; fill:none" points="
  187.904,375.869 187.904,11.811 
  "/>
<polyline clip-path="url(#clip9602)" style="stroke:#000000; stroke-width:0.5; stroke-opacity:0.1; fill:none" points="
  313.677,375.869 313.677,11.811 
  "/>
<polyline clip-path="url(#clip9602)" style="stroke:#000000; stroke-width:0.5; stroke-opacity:0.1; fill:none" points="
  439.45,375.869 439.45,11.811 
  "/>
<polyline clip-path="url(#clip9602)" style="stroke:#000000; stroke-width:0.5; stroke-opacity:0.1; fill:none" points="
  565.222,375.869 565.222,11.811 
  "/>
<polyline clip-path="url(#clip9602)" style="stroke:#000000; stroke-width:0.5; stroke-opacity:0.1; fill:none" points="
  47.0391,365.565 580.315,365.565 
  "/>
<polyline clip-path="url(#clip9602)" style="stroke:#000000; stroke-width:0.5; stroke-opacity:0.1; fill:none" points="
  47.0391,279.703 580.315,279.703 
  "/>
<polyline clip-path="url(#clip9602)" style="stroke:#000000; stroke-width:0.5; stroke-opacity:0.1; fill:none" points="
  47.0391,193.84 580.315,193.84 
  "/>
<polyline clip-path="url(#clip9602)" style="stroke:#000000; stroke-width:0.5; stroke-opacity:0.1; fill:none" points="
  47.0391,107.977 580.315,107.977 
  "/>
<polyline clip-path="url(#clip9602)" style="stroke:#000000; stroke-width:0.5; stroke-opacity:0.1; fill:none" points="
  47.0391,22.1145 580.315,22.1145 
  "/>
<polyline clip-path="url(#clip9600)" style="stroke:#000000; stroke-width:1; stroke-opacity:1; fill:none" points="
  47.0391,375.869 580.315,375.869 
  "/>
<polyline clip-path="url(#clip9600)" style="stroke:#000000; stroke-width:1; stroke-opacity:1; fill:none" points="
  47.0391,375.869 47.0391,11.811 
  "/>
<polyline clip-path="url(#clip9600)" style="stroke:#000000; stroke-width:1; stroke-opacity:1; fill:none" points="
  62.1318,375.869 62.1318,370.408 
  "/>
<polyline clip-path="url(#clip9600)" style="stroke:#000000; stroke-width:1; stroke-opacity:1; fill:none" points="
  187.904,375.869 187.904,370.408 
  "/>
<polyline clip-path="url(#clip9600)" style="stroke:#000000; stroke-width:1; stroke-opacity:1; fill:none" points="
  313.677,375.869 313.677,370.408 
  "/>
<polyline clip-path="url(#clip9600)" style="stroke:#000000; stroke-width:1; stroke-opacity:1; fill:none" points="
  439.45,375.869 439.45,370.408 
  "/>
<polyline clip-path="url(#clip9600)" style="stroke:#000000; stroke-width:1; stroke-opacity:1; fill:none" points="
  565.222,375.869 565.222,370.408 
  "/>
<polyline clip-path="url(#clip9600)" style="stroke:#000000; stroke-width:1; stroke-opacity:1; fill:none" points="
  47.0391,365.565 55.0382,365.565 
  "/>
<polyline clip-path="url(#clip9600)" style="stroke:#000000; stroke-width:1; stroke-opacity:1; fill:none" points="
  47.0391,279.703 55.0382,279.703 
  "/>
<polyline clip-path="url(#clip9600)" style="stroke:#000000; stroke-width:1; stroke-opacity:1; fill:none" points="
  47.0391,193.84 55.0382,193.84 
  "/>
<polyline clip-path="url(#clip9600)" style="stroke:#000000; stroke-width:1; stroke-opacity:1; fill:none" points="
  47.0391,107.977 55.0382,107.977 
  "/>
<polyline clip-path="url(#clip9600)" style="stroke:#000000; stroke-width:1; stroke-opacity:1; fill:none" points="
  47.0391,22.1145 55.0382,22.1145 
  "/>
<g clip-path="url(#clip9600)">
<text style="fill:#000000; fill-opacity:1; font-family:Arial,Helvetica Neue,Helvetica,sans-serif; font-size:12; text-anchor:middle;" transform="rotate(0, 62.1318, 389.669)" x="62.1318" y="389.669">-4</text>
</g>
<g clip-path="url(#clip9600)">
<text style="fill:#000000; fill-opacity:1; font-family:Arial,Helvetica Neue,Helvetica,sans-serif; font-size:12; text-anchor:middle;" transform="rotate(0, 187.904, 389.669)" x="187.904" y="389.669">-2</text>
</g>
<g clip-path="url(#clip9600)">
<text style="fill:#000000; fill-opacity:1; font-family:Arial,Helvetica Neue,Helvetica,sans-serif; font-size:12; text-anchor:middle;" transform="rotate(0, 313.677, 389.669)" x="313.677" y="389.669">0</text>
</g>
<g clip-path="url(#clip9600)">
<text style="fill:#000000; fill-opacity:1; font-family:Arial,Helvetica Neue,Helvetica,sans-serif; font-size:12; text-anchor:middle;" transform="rotate(0, 439.45, 389.669)" x="439.45" y="389.669">2</text>
</g>
<g clip-path="url(#clip9600)">
<text style="fill:#000000; fill-opacity:1; font-family:Arial,Helvetica Neue,Helvetica,sans-serif; font-size:12; text-anchor:middle;" transform="rotate(0, 565.222, 389.669)" x="565.222" y="389.669">4</text>
</g>
<g clip-path="url(#clip9600)">
<text style="fill:#000000; fill-opacity:1; font-family:Arial,Helvetica Neue,Helvetica,sans-serif; font-size:12; text-anchor:end;" transform="rotate(0, 41.0391, 370.065)" x="41.0391" y="370.065">0.00</text>
</g>
<g clip-path="url(#clip9600)">
<text style="fill:#000000; fill-opacity:1; font-family:Arial,Helvetica Neue,Helvetica,sans-serif; font-size:12; text-anchor:end;" transform="rotate(0, 41.0391, 284.203)" x="41.0391" y="284.203">0.25</text>
</g>
<g clip-path="url(#clip9600)">
<text style="fill:#000000; fill-opacity:1; font-family:Arial,Helvetica Neue,Helvetica,sans-serif; font-size:12; text-anchor:end;" transform="rotate(0, 41.0391, 198.34)" x="41.0391" y="198.34">0.50</text>
</g>
<g clip-path="url(#clip9600)">
<text style="fill:#000000; fill-opacity:1; font-family:Arial,Helvetica Neue,Helvetica,sans-serif; font-size:12; text-anchor:end;" transform="rotate(0, 41.0391, 112.477)" x="41.0391" y="112.477">0.75</text>
</g>
<g clip-path="url(#clip9600)">
<text style="fill:#000000; fill-opacity:1; font-family:Arial,Helvetica Neue,Helvetica,sans-serif; font-size:12; text-anchor:end;" transform="rotate(0, 41.0391, 26.6145)" x="41.0391" y="26.6145">1.00</text>
</g>
<polyline clip-path="url(#clip9602)" style="stroke:#009af9; stroke-width:1; stroke-opacity:1; fill:none" points="
  62.1318,22.1145 63.14,22.1145 64.1482,22.1145 65.1564,22.1145 66.1646,22.1145 67.1728,22.1145 68.181,22.1145 69.1892,22.1145 70.1974,22.1145 71.2056,22.1145 
  72.2138,22.1145 73.222,22.1145 74.2302,22.1145 75.2384,22.1145 76.2466,22.1145 77.2548,22.1145 78.263,22.1145 79.2712,22.1145 80.2794,22.1145 81.2876,22.1145 
  82.2958,22.1145 83.304,22.1145 84.3121,22.1145 85.3203,22.1145 86.3285,22.1145 87.3367,22.1145 88.3449,22.1145 89.3531,22.1145 90.3613,22.1145 91.3695,22.1145 
  92.3777,22.1145 93.3859,22.1145 94.3941,365.565 95.4023,365.565 96.4105,365.565 97.4187,365.565 98.4269,365.565 99.4351,365.565 100.443,365.565 101.452,365.565 
  102.46,365.565 103.468,365.565 104.476,365.565 105.484,365.565 106.492,365.565 107.501,365.565 108.509,365.565 109.517,365.565 110.525,365.565 111.533,365.565 
  112.542,365.565 113.55,365.565 114.558,365.565 115.566,365.565 116.574,365.565 117.583,365.565 118.591,365.565 119.599,365.565 120.607,365.565 121.615,365.565 
  122.624,365.565 123.632,365.565 124.64,365.565 125.648,365.565 126.656,365.565 127.665,365.565 128.673,365.565 129.681,365.565 130.689,365.565 131.697,365.565 
  132.706,365.565 133.714,365.565 134.722,365.565 135.73,365.565 136.738,365.565 137.747,365.565 138.755,365.565 139.763,365.565 140.771,365.565 141.779,365.565 
  142.788,365.565 143.796,365.565 144.804,365.565 145.812,365.565 146.82,365.565 147.829,365.565 148.837,365.565 149.845,365.565 150.853,365.565 151.861,365.565 
  152.87,365.565 153.878,365.565 154.886,365.565 155.894,365.565 156.902,365.565 157.911,365.565 158.919,365.565 159.927,365.565 160.935,365.565 161.943,365.565 
  162.952,365.565 163.96,365.565 164.968,365.565 165.976,365.565 166.984,365.565 167.993,365.565 169.001,365.565 170.009,365.565 171.017,365.565 172.025,365.565 
  173.034,365.565 174.042,365.565 175.05,365.565 176.058,365.565 177.066,365.565 178.074,365.565 179.083,365.565 180.091,365.565 181.099,365.565 182.107,365.565 
  183.115,365.565 184.124,365.565 185.132,365.565 186.14,365.565 187.148,365.565 188.156,365.565 189.165,365.565 190.173,365.565 191.181,365.565 192.189,365.565 
  193.197,365.565 194.206,365.565 195.214,365.565 196.222,365.565 197.23,365.565 198.238,365.565 199.247,365.565 200.255,365.565 201.263,365.565 202.271,365.565 
  203.279,365.565 204.288,365.565 205.296,365.565 206.304,365.565 207.312,365.565 208.32,365.565 209.329,365.565 210.337,365.565 211.345,365.565 212.353,365.565 
  213.361,365.565 214.37,365.565 215.378,365.565 216.386,365.565 217.394,365.565 218.402,365.565 219.411,365.565 220.419,365.565 221.427,365.565 222.435,365.565 
  223.443,365.565 224.452,365.565 225.46,365.565 226.468,365.565 227.476,365.565 228.484,365.565 229.493,365.565 230.501,365.565 231.509,365.565 232.517,365.565 
  233.525,365.565 234.534,365.565 235.542,365.565 236.55,365.565 237.558,365.565 238.566,365.565 239.575,365.565 240.583,365.565 241.591,365.565 242.599,365.565 
  243.607,365.565 244.616,365.565 245.624,365.565 246.632,365.565 247.64,365.565 248.648,365.565 249.657,365.565 250.665,365.565 251.673,365.565 252.681,365.565 
  253.689,365.565 254.697,365.565 255.706,365.565 256.714,365.565 257.722,365.565 258.73,365.565 259.738,365.565 260.747,365.565 261.755,365.565 262.763,365.565 
  263.771,365.565 264.779,365.565 265.788,365.565 266.796,365.565 267.804,365.565 268.812,365.565 269.82,365.565 270.829,365.565 271.837,365.565 272.845,365.565 
  273.853,365.565 274.861,365.565 275.87,365.565 276.878,365.565 277.886,365.565 278.894,365.565 279.902,365.565 280.911,365.565 281.919,365.565 282.927,22.1145 
  283.935,22.1145 284.943,22.1145 285.952,22.1145 286.96,22.1145 287.968,22.1145 288.976,22.1145 289.984,22.1145 290.993,22.1145 292.001,22.1145 293.009,22.1145 
  294.017,22.1145 295.025,22.1145 296.034,22.1145 297.042,22.1145 298.05,22.1145 299.058,22.1145 300.066,22.1145 301.075,22.1145 302.083,22.1145 303.091,22.1145 
  304.099,22.1145 305.107,22.1145 306.116,22.1145 307.124,22.1145 308.132,22.1145 309.14,22.1145 310.148,22.1145 311.157,22.1145 312.165,22.1145 313.173,22.1145 
  314.181,22.1145 315.189,22.1145 316.198,22.1145 317.206,22.1145 318.214,22.1145 319.222,22.1145 320.23,22.1145 321.239,22.1145 322.247,22.1145 323.255,22.1145 
  324.263,22.1145 325.271,22.1145 326.279,22.1145 327.288,22.1145 328.296,22.1145 329.304,22.1145 330.312,22.1145 331.32,22.1145 332.329,22.1145 333.337,22.1145 
  334.345,22.1145 335.353,22.1145 336.361,22.1145 337.37,22.1145 338.378,22.1145 339.386,22.1145 340.394,22.1145 341.402,22.1145 342.411,22.1145 343.419,22.1145 
  344.427,22.1145 345.435,365.565 346.443,365.565 347.452,365.565 348.46,365.565 349.468,365.565 350.476,365.565 351.484,365.565 352.493,365.565 353.501,365.565 
  354.509,365.565 355.517,365.565 356.525,365.565 357.534,365.565 358.542,365.565 359.55,365.565 360.558,365.565 361.566,365.565 362.575,365.565 363.583,365.565 
  364.591,365.565 365.599,365.565 366.607,365.565 367.616,365.565 368.624,365.565 369.632,365.565 370.64,365.565 371.648,365.565 372.657,365.565 373.665,365.565 
  374.673,365.565 375.681,365.565 376.689,365.565 377.698,365.565 378.706,365.565 379.714,365.565 380.722,365.565 381.73,365.565 382.739,365.565 383.747,365.565 
  384.755,365.565 385.763,365.565 386.771,365.565 387.78,365.565 388.788,365.565 389.796,365.565 390.804,365.565 391.812,365.565 392.821,365.565 393.829,365.565 
  394.837,365.565 395.845,365.565 396.853,365.565 397.861,365.565 398.87,365.565 399.878,365.565 400.886,365.565 401.894,365.565 402.902,365.565 403.911,365.565 
  404.919,365.565 405.927,365.565 406.935,365.565 407.943,365.565 408.952,365.565 409.96,365.565 410.968,365.565 411.976,365.565 412.984,365.565 413.993,365.565 
  415.001,365.565 416.009,365.565 417.017,365.565 418.025,365.565 419.034,365.565 420.042,365.565 421.05,365.565 422.058,365.565 423.066,365.565 424.075,365.565 
  425.083,365.565 426.091,365.565 427.099,365.565 428.107,365.565 429.116,365.565 430.124,365.565 431.132,365.565 432.14,365.565 433.148,365.565 434.157,365.565 
  435.165,365.565 436.173,365.565 437.181,365.565 438.189,365.565 439.198,365.565 440.206,365.565 441.214,365.565 442.222,365.565 443.23,365.565 444.239,365.565 
  445.247,365.565 446.255,365.565 447.263,365.565 448.271,365.565 449.28,365.565 450.288,365.565 451.296,365.565 452.304,365.565 453.312,365.565 454.321,365.565 
  455.329,365.565 456.337,365.565 457.345,365.565 458.353,365.565 459.362,365.565 460.37,365.565 461.378,365.565 462.386,365.565 463.394,365.565 464.403,365.565 
  465.411,365.565 466.419,365.565 467.427,365.565 468.435,365.565 469.444,365.565 470.452,365.565 471.46,365.565 472.468,365.565 473.476,365.565 474.484,365.565 
  475.493,365.565 476.501,365.565 477.509,365.565 478.517,365.565 479.525,365.565 480.534,365.565 481.542,365.565 482.55,365.565 483.558,365.565 484.566,365.565 
  485.575,365.565 486.583,365.565 487.591,365.565 488.599,365.565 489.607,365.565 490.616,365.565 491.624,365.565 492.632,365.565 493.64,365.565 494.648,365.565 
  495.657,365.565 496.665,365.565 497.673,365.565 498.681,365.565 499.689,365.565 500.698,365.565 501.706,365.565 502.714,365.565 503.722,365.565 504.73,365.565 
  505.739,365.565 506.747,365.565 507.755,365.565 508.763,365.565 509.771,365.565 510.78,365.565 511.788,365.565 512.796,365.565 513.804,365.565 514.812,365.565 
  515.821,365.565 516.829,365.565 517.837,365.565 518.845,365.565 519.853,365.565 520.862,365.565 521.87,365.565 522.878,365.565 523.886,365.565 524.894,365.565 
  525.903,365.565 526.911,365.565 527.919,365.565 528.927,365.565 529.935,365.565 530.944,365.565 531.952,365.565 532.96,365.565 533.968,22.1145 534.976,22.1145 
  535.985,22.1145 536.993,22.1145 538.001,22.1145 539.009,22.1145 540.017,22.1145 541.026,22.1145 542.034,22.1145 543.042,22.1145 544.05,22.1145 545.058,22.1145 
  546.066,22.1145 547.075,22.1145 548.083,22.1145 549.091,22.1145 550.099,22.1145 551.107,22.1145 552.116,22.1145 553.124,22.1145 554.132,22.1145 555.14,22.1145 
  556.148,22.1145 557.157,22.1145 558.165,22.1145 559.173,22.1145 560.181,22.1145 561.189,22.1145 562.198,22.1145 563.206,22.1145 564.214,22.1145 565.222,22.1145 
  
  "/>
<polyline clip-path="url(#clip9602)" style="stroke:#e26f46; stroke-width:1; stroke-opacity:1; fill:none" points="
  62.1318,22.1145 63.14,27.6208 64.1482,33.127 65.1564,38.6332 66.1646,44.1394 67.1728,49.6457 68.181,55.1519 69.1892,60.6581 70.1974,66.1643 71.2056,71.6705 
  72.2138,77.1768 73.222,82.683 74.2302,88.1892 75.2384,93.6954 76.2466,99.2017 77.2548,104.708 78.263,110.214 79.2712,115.72 80.2794,121.227 81.2876,126.733 
  82.2958,132.239 83.304,137.745 84.3121,143.251 85.3203,148.758 86.3285,154.264 87.3367,159.77 88.3449,165.276 89.3531,170.783 90.3613,176.289 91.3695,181.795 
  92.3777,187.301 93.3859,192.807 94.3941,198.314 95.4023,203.82 96.4105,209.326 97.4187,214.832 98.4269,220.339 99.4351,225.845 100.443,231.351 101.452,236.857 
  102.46,242.363 103.468,247.87 104.476,253.376 105.484,258.882 106.492,264.388 107.501,269.895 108.509,275.401 109.517,280.907 110.525,286.413 111.533,291.919 
  112.542,297.426 113.55,302.932 114.558,308.438 115.566,313.944 116.574,319.451 117.583,324.957 118.591,330.463 119.599,335.969 120.607,341.475 121.615,346.982 
  122.624,352.488 123.632,357.994 124.64,363.5 125.648,365.565 126.656,365.565 127.665,365.565 128.673,365.565 129.681,365.565 130.689,365.565 131.697,365.565 
  132.706,365.565 133.714,365.565 134.722,365.565 135.73,365.565 136.738,365.565 137.747,365.565 138.755,365.565 139.763,365.565 140.771,365.565 141.779,365.565 
  142.788,365.565 143.796,365.565 144.804,365.565 145.812,365.565 146.82,365.565 147.829,365.565 148.837,365.565 149.845,365.565 150.853,365.565 151.861,365.565 
  152.87,365.565 153.878,365.565 154.886,365.565 155.894,365.565 156.902,365.565 157.911,365.565 158.919,365.565 159.927,365.565 160.935,365.565 161.943,365.565 
  162.952,365.565 163.96,365.565 164.968,365.565 165.976,365.565 166.984,365.565 167.993,365.565 169.001,365.565 170.009,365.565 171.017,365.565 172.025,365.565 
  173.034,365.565 174.042,365.565 175.05,365.565 176.058,365.565 177.066,365.565 178.074,365.565 179.083,365.565 180.091,365.565 181.099,365.565 182.107,365.565 
  183.115,365.565 184.124,365.565 185.132,365.565 186.14,365.565 187.148,365.565 188.156,365.565 189.165,365.565 190.173,365.565 191.181,365.565 192.189,365.565 
  193.197,365.565 194.206,365.565 195.214,365.565 196.222,365.565 197.23,365.565 198.238,365.565 199.247,365.565 200.255,365.565 201.263,365.565 202.271,365.565 
  203.279,365.565 204.288,365.565 205.296,365.565 206.304,365.565 207.312,365.565 208.32,365.565 209.329,365.565 210.337,365.565 211.345,365.565 212.353,365.565 
  213.361,365.565 214.37,365.565 215.378,365.565 216.386,365.565 217.394,365.565 218.402,365.565 219.411,365.565 220.419,365.565 221.427,365.565 222.435,365.565 
  223.443,365.565 224.452,365.565 225.46,365.565 226.468,365.565 227.476,365.565 228.484,365.565 229.493,365.565 230.501,365.565 231.509,365.565 232.517,365.565 
  233.525,365.565 234.534,365.565 235.542,365.565 236.55,365.565 237.558,365.565 238.566,365.565 239.575,365.565 240.583,365.565 241.591,365.565 242.599,365.565 
  243.607,365.565 244.616,365.565 245.624,365.565 246.632,365.565 247.64,365.565 248.648,365.565 249.657,365.565 250.665,365.565 251.673,360.747 252.681,355.241 
  253.689,349.735 254.697,344.229 255.706,338.722 256.714,333.216 257.722,327.71 258.73,322.204 259.738,316.697 260.747,311.191 261.755,305.685 262.763,300.179 
  263.771,294.673 264.779,289.166 265.788,283.66 266.796,278.154 267.804,272.648 268.812,267.141 269.82,261.635 270.829,256.129 271.837,250.623 272.845,245.117 
  273.853,239.61 274.861,234.104 275.87,228.598 276.878,223.092 277.886,217.585 278.894,212.079 279.902,206.573 280.911,201.067 281.919,195.561 282.927,190.054 
  283.935,184.548 284.943,179.042 285.952,173.536 286.96,168.029 287.968,162.523 288.976,157.017 289.984,151.511 290.993,146.005 292.001,140.498 293.009,134.992 
  294.017,129.486 295.025,123.98 296.034,118.473 297.042,112.967 298.05,107.461 299.058,101.955 300.066,96.4485 301.075,90.9423 302.083,85.4361 303.091,79.9299 
  304.099,74.4237 305.107,68.9174 306.116,63.4112 307.124,57.905 308.132,52.3988 309.14,46.8925 310.148,41.3863 311.157,35.8801 312.165,30.3739 313.173,24.8677 
  314.181,24.8677 315.189,30.3739 316.198,35.8801 317.206,41.3863 318.214,46.8925 319.222,52.3988 320.23,57.905 321.239,63.4112 322.247,68.9174 323.255,74.4237 
  324.263,79.9299 325.271,85.4361 326.279,90.9423 327.288,96.4485 328.296,101.955 329.304,107.461 330.312,112.967 331.32,118.473 332.329,123.98 333.337,129.486 
  334.345,134.992 335.353,140.498 336.361,146.005 337.37,151.511 338.378,157.017 339.386,162.523 340.394,168.029 341.402,173.536 342.411,179.042 343.419,184.548 
  344.427,190.054 345.435,195.561 346.443,201.067 347.452,206.573 348.46,212.079 349.468,217.585 350.476,223.092 351.484,228.598 352.493,234.104 353.501,239.61 
  354.509,245.117 355.517,250.623 356.525,256.129 357.534,261.635 358.542,267.141 359.55,272.648 360.558,278.154 361.566,283.66 362.575,289.166 363.583,294.673 
  364.591,300.179 365.599,305.685 366.607,311.191 367.616,316.697 368.624,322.204 369.632,327.71 370.64,333.216 371.648,338.722 372.657,344.229 373.665,349.735 
  374.673,355.241 375.681,360.747 376.689,365.565 377.698,365.565 378.706,365.565 379.714,365.565 380.722,365.565 381.73,365.565 382.739,365.565 383.747,365.565 
  384.755,365.565 385.763,365.565 386.771,365.565 387.78,365.565 388.788,365.565 389.796,365.565 390.804,365.565 391.812,365.565 392.821,365.565 393.829,365.565 
  394.837,365.565 395.845,365.565 396.853,365.565 397.861,365.565 398.87,365.565 399.878,365.565 400.886,365.565 401.894,365.565 402.902,365.565 403.911,365.565 
  404.919,365.565 405.927,365.565 406.935,365.565 407.943,365.565 408.952,365.565 409.96,365.565 410.968,365.565 411.976,365.565 412.984,365.565 413.993,365.565 
  415.001,365.565 416.009,365.565 417.017,365.565 418.025,365.565 419.034,365.565 420.042,365.565 421.05,365.565 422.058,365.565 423.066,365.565 424.075,365.565 
  425.083,365.565 426.091,365.565 427.099,365.565 428.107,365.565 429.116,365.565 430.124,365.565 431.132,365.565 432.14,365.565 433.148,365.565 434.157,365.565 
  435.165,365.565 436.173,365.565 437.181,365.565 438.189,365.565 439.198,365.565 440.206,365.565 441.214,365.565 442.222,365.565 443.23,365.565 444.239,365.565 
  445.247,365.565 446.255,365.565 447.263,365.565 448.271,365.565 449.28,365.565 450.288,365.565 451.296,365.565 452.304,365.565 453.312,365.565 454.321,365.565 
  455.329,365.565 456.337,365.565 457.345,365.565 458.353,365.565 459.362,365.565 460.37,365.565 461.378,365.565 462.386,365.565 463.394,365.565 464.403,365.565 
  465.411,365.565 466.419,365.565 467.427,365.565 468.435,365.565 469.444,365.565 470.452,365.565 471.46,365.565 472.468,365.565 473.476,365.565 474.484,365.565 
  475.493,365.565 476.501,365.565 477.509,365.565 478.517,365.565 479.525,365.565 480.534,365.565 481.542,365.565 482.55,365.565 483.558,365.565 484.566,365.565 
  485.575,365.565 486.583,365.565 487.591,365.565 488.599,365.565 489.607,365.565 490.616,365.565 491.624,365.565 492.632,365.565 493.64,365.565 494.648,365.565 
  495.657,365.565 496.665,365.565 497.673,365.565 498.681,365.565 499.689,365.565 500.698,365.565 501.706,365.565 502.714,363.5 503.722,357.994 504.73,352.488 
  505.739,346.982 506.747,341.475 507.755,335.969 508.763,330.463 509.771,324.957 510.78,319.451 511.788,313.944 512.796,308.438 513.804,302.932 514.812,297.426 
  515.821,291.919 516.829,286.413 517.837,280.907 518.845,275.401 519.853,269.895 520.862,264.388 521.87,258.882 522.878,253.376 523.886,247.87 524.894,242.363 
  525.903,236.857 526.911,231.351 527.919,225.845 528.927,220.339 529.935,214.832 530.944,209.326 531.952,203.82 532.96,198.314 533.968,192.807 534.976,187.301 
  535.985,181.795 536.993,176.289 538.001,170.783 539.009,165.276 540.017,159.77 541.026,154.264 542.034,148.758 543.042,143.251 544.05,137.745 545.058,132.239 
  546.066,126.733 547.075,121.227 548.083,115.72 549.091,110.214 550.099,104.708 551.107,99.2017 552.116,93.6954 553.124,88.1892 554.132,82.683 555.14,77.1768 
  556.148,71.6705 557.157,66.1643 558.165,60.6581 559.173,55.1519 560.181,49.6457 561.189,44.1394 562.198,38.6332 563.206,33.127 564.214,27.6208 565.222,22.1145 
  
  "/>
<polyline clip-path="url(#clip9602)" style="stroke:#3da44d; stroke-width:1; stroke-opacity:1; fill:none" points="
  62.1318,107.977 63.14,108.065 64.1482,108.33 65.1564,108.772 66.1646,109.39 67.1728,110.184 68.181,111.155 69.1892,112.303 70.1974,113.627 71.2056,115.128 
  72.2138,116.805 73.222,118.659 74.2302,120.689 75.2384,122.896 76.2466,125.279 77.2548,127.839 78.263,130.576 79.2712,133.489 80.2794,136.579 81.2876,139.845 
  82.2958,143.288 83.304,146.907 84.3121,150.703 85.3203,154.675 86.3285,158.824 87.3367,163.15 88.3449,167.652 89.3531,172.33 90.3613,177.186 91.3695,182.217 
  92.3777,187.426 93.3859,192.811 94.3941,198.285 95.4023,203.675 96.4105,208.977 97.4187,214.191 98.4269,219.316 99.4351,224.354 100.443,229.303 101.452,234.163 
  102.46,238.936 103.468,243.62 104.476,248.216 105.484,252.723 106.492,257.143 107.501,261.474 108.509,265.716 109.517,269.871 110.525,273.937 111.533,277.915 
  112.542,281.805 113.55,285.606 114.558,289.319 115.566,292.944 116.574,296.481 117.583,299.929 118.591,303.289 119.599,306.561 120.607,309.744 121.615,312.839 
  122.624,315.846 123.632,318.765 124.64,321.595 125.648,324.337 126.656,326.991 127.665,329.557 128.673,332.034 129.681,334.423 130.689,336.724 131.697,338.936 
  132.706,341.06 133.714,343.096 134.722,345.044 135.73,346.903 136.738,348.674 137.747,350.357 138.755,351.951 139.763,353.457 140.771,354.875 141.779,356.205 
  142.788,357.446 143.796,358.599 144.804,359.664 145.812,360.641 146.82,361.529 147.829,362.329 148.837,363.041 149.845,363.664 150.853,364.199 151.861,364.646 
  152.87,365.005 153.878,365.275 154.886,365.457 155.894,365.551 156.902,365.565 157.911,365.565 158.919,365.565 159.927,365.565 160.935,365.565 161.943,365.565 
  162.952,365.565 163.96,365.565 164.968,365.565 165.976,365.565 166.984,365.565 167.993,365.565 169.001,365.565 170.009,365.565 171.017,365.565 172.025,365.565 
  173.034,365.565 174.042,365.565 175.05,365.565 176.058,365.565 177.066,365.565 178.074,365.565 179.083,365.565 180.091,365.565 181.099,365.565 182.107,365.565 
  183.115,365.565 184.124,365.565 185.132,365.565 186.14,365.565 187.148,365.565 188.156,365.565 189.165,365.565 190.173,365.565 191.181,365.565 192.189,365.565 
  193.197,365.565 194.206,365.565 195.214,365.565 196.222,365.565 197.23,365.565 198.238,365.565 199.247,365.565 200.255,365.565 201.263,365.565 202.271,365.565 
  203.279,365.565 204.288,365.565 205.296,365.565 206.304,365.565 207.312,365.565 208.32,365.565 209.329,365.565 210.337,365.565 211.345,365.565 212.353,365.565 
  213.361,365.565 214.37,365.565 215.378,365.565 216.386,365.565 217.394,365.565 218.402,365.565 219.411,365.565 220.419,365.515 221.427,365.377 222.435,365.151 
  223.443,364.837 224.452,364.434 225.46,363.943 226.468,363.364 227.476,362.696 228.484,361.94 229.493,361.096 230.501,360.164 231.509,359.143 232.517,358.034 
  233.525,356.837 234.534,355.551 235.542,354.177 236.55,352.715 237.558,351.165 238.566,349.526 239.575,347.799 240.583,345.984 241.591,344.081 242.599,342.089 
  243.607,340.009 244.616,337.841 245.624,335.584 246.632,333.239 247.64,330.806 248.648,328.285 249.657,325.675 250.665,322.977 251.673,320.191 252.681,317.317 
  253.689,314.354 254.697,311.303 255.706,308.163 256.714,304.936 257.722,301.62 258.73,298.216 259.738,294.723 260.747,291.143 261.755,287.474 262.763,283.716 
  263.771,279.871 264.779,275.937 265.788,271.915 266.796,267.805 267.804,263.606 268.812,259.319 269.82,254.944 270.829,250.481 271.837,245.929 272.845,241.289 
  273.853,236.56 274.861,231.744 275.87,226.839 276.878,221.846 277.886,216.765 278.894,211.595 279.902,206.337 280.911,200.991 281.919,195.556 282.927,190.096 
  283.935,184.799 284.943,179.679 285.952,174.736 286.96,169.969 287.968,165.379 288.976,160.965 289.984,156.728 290.993,152.667 292.001,148.783 293.009,145.075 
  294.017,141.544 295.025,138.19 296.034,135.012 297.042,132.01 298.05,129.186 299.058,126.537 300.066,124.066 301.075,121.77 302.083,119.652 303.091,117.71 
  304.099,115.944 305.107,114.355 306.116,112.943 307.124,111.707 308.132,110.648 309.14,109.765 310.148,109.059 311.157,108.529 312.165,108.176 313.173,107.999 
  314.181,107.999 315.189,108.176 316.198,108.529 317.206,109.059 318.214,109.765 319.222,110.648 320.23,111.707 321.239,112.943 322.247,114.355 323.255,115.944 
  324.263,117.71 325.271,119.652 326.279,121.77 327.288,124.066 328.296,126.537 329.304,129.186 330.312,132.01 331.32,135.012 332.329,138.19 333.337,141.544 
  334.345,145.075 335.353,148.783 336.361,152.667 337.37,156.728 338.378,160.965 339.386,165.379 340.394,169.969 341.402,174.736 342.411,179.679 343.419,184.799 
  344.427,190.096 345.435,195.556 346.443,200.991 347.452,206.337 348.46,211.595 349.468,216.765 350.476,221.846 351.484,226.839 352.493,231.744 353.501,236.56 
  354.509,241.289 355.517,245.929 356.525,250.481 357.534,254.944 358.542,259.319 359.55,263.606 360.558,267.805 361.566,271.915 362.575,275.937 363.583,279.871 
  364.591,283.716 365.599,287.474 366.607,291.143 367.616,294.723 368.624,298.216 369.632,301.62 370.64,304.936 371.648,308.163 372.657,311.303 373.665,314.354 
  374.673,317.317 375.681,320.191 376.689,322.977 377.698,325.675 378.706,328.285 379.714,330.806 380.722,333.239 381.73,335.584 382.739,337.841 383.747,340.009 
  384.755,342.089 385.763,344.081 386.771,345.984 387.78,347.799 388.788,349.526 389.796,351.165 390.804,352.715 391.812,354.177 392.821,355.551 393.829,356.837 
  394.837,358.034 395.845,359.143 396.853,360.164 397.861,361.096 398.87,361.94 399.878,362.696 400.886,363.364 401.894,363.943 402.902,364.434 403.911,364.837 
  404.919,365.151 405.927,365.377 406.935,365.515 407.943,365.565 408.952,365.565 409.96,365.565 410.968,365.565 411.976,365.565 412.984,365.565 413.993,365.565 
  415.001,365.565 416.009,365.565 417.017,365.565 418.025,365.565 419.034,365.565 420.042,365.565 421.05,365.565 422.058,365.565 423.066,365.565 424.075,365.565 
  425.083,365.565 426.091,365.565 427.099,365.565 428.107,365.565 429.116,365.565 430.124,365.565 431.132,365.565 432.14,365.565 433.148,365.565 434.157,365.565 
  435.165,365.565 436.173,365.565 437.181,365.565 438.189,365.565 439.198,365.565 440.206,365.565 441.214,365.565 442.222,365.565 443.23,365.565 444.239,365.565 
  445.247,365.565 446.255,365.565 447.263,365.565 448.271,365.565 449.28,365.565 450.288,365.565 451.296,365.565 452.304,365.565 453.312,365.565 454.321,365.565 
  455.329,365.565 456.337,365.565 457.345,365.565 458.353,365.565 459.362,365.565 460.37,365.565 461.378,365.565 462.386,365.565 463.394,365.565 464.403,365.565 
  465.411,365.565 466.419,365.565 467.427,365.565 468.435,365.565 469.444,365.565 470.452,365.565 471.46,365.551 472.468,365.457 473.476,365.275 474.484,365.005 
  475.493,364.646 476.501,364.199 477.509,363.664 478.517,363.041 479.525,362.329 480.534,361.529 481.542,360.641 482.55,359.664 483.558,358.599 484.566,357.446 
  485.575,356.205 486.583,354.875 487.591,353.457 488.599,351.951 489.607,350.357 490.616,348.674 491.624,346.903 492.632,345.044 493.64,343.096 494.648,341.06 
  495.657,338.936 496.665,336.724 497.673,334.423 498.681,332.034 499.689,329.557 500.698,326.991 501.706,324.337 502.714,321.595 503.722,318.765 504.73,315.846 
  505.739,312.839 506.747,309.744 507.755,306.561 508.763,303.289 509.771,299.929 510.78,296.481 511.788,292.944 512.796,289.319 513.804,285.606 514.812,281.805 
  515.821,277.915 516.829,273.937 517.837,269.871 518.845,265.716 519.853,261.474 520.862,257.143 521.87,252.723 522.878,248.216 523.886,243.62 524.894,238.936 
  525.903,234.163 526.911,229.303 527.919,224.354 528.927,219.316 529.935,214.191 530.944,208.977 531.952,203.675 532.96,198.285 533.968,192.811 534.976,187.426 
  535.985,182.217 536.993,177.186 538.001,172.33 539.009,167.652 540.017,163.15 541.026,158.824 542.034,154.675 543.042,150.703 544.05,146.907 545.058,143.288 
  546.066,139.845 547.075,136.579 548.083,133.489 549.091,130.576 550.099,127.839 551.107,125.279 552.116,122.896 553.124,120.689 554.132,118.659 555.14,116.805 
  556.148,115.128 557.157,113.627 558.165,112.303 559.173,111.155 560.181,110.184 561.189,109.39 562.198,108.772 563.206,108.33 564.214,108.065 565.222,107.977 
  
  "/>
<polyline clip-path="url(#clip9602)" style="stroke:#c271d2; stroke-width:1; stroke-opacity:1; fill:none" points="
  62.1318,136.598 63.14,136.686 64.1482,136.946 65.1564,137.373 66.1646,137.965 67.1728,138.717 68.181,139.623 69.1892,140.681 70.1974,141.885 71.2056,143.233 
  72.2138,144.718 73.222,146.338 74.2302,148.087 75.2384,149.962 76.2466,151.958 77.2548,154.072 78.263,156.298 79.2712,158.633 80.2794,161.073 81.2876,163.612 
  82.2958,166.248 83.304,168.975 84.3121,171.789 85.3203,174.686 86.3285,177.663 87.3367,180.714 88.3449,183.836 89.3531,187.023 90.3613,190.273 91.3695,193.58 
  92.3777,196.941 93.3859,200.351 94.3941,203.805 95.4023,207.301 96.4105,210.833 97.4187,214.397 98.4269,217.989 99.4351,221.605 100.443,225.24 101.452,228.89 
  102.46,232.552 103.468,236.22 104.476,239.891 105.484,243.56 106.492,247.222 107.501,250.875 108.509,254.513 109.517,258.132 110.525,261.729 111.533,265.298 
  112.542,268.835 113.55,272.337 114.558,275.799 115.566,279.217 116.574,282.586 117.583,285.902 118.591,289.162 119.599,292.36 120.607,295.493 121.615,298.556 
  122.624,301.545 123.632,304.456 124.64,307.285 125.648,310.027 126.656,312.682 127.665,315.25 128.673,317.735 129.681,320.136 130.689,322.455 131.697,324.694 
  132.706,326.854 133.714,328.937 134.722,330.943 135.73,332.875 136.738,334.734 137.747,336.521 138.755,338.237 139.763,339.885 140.771,341.465 141.779,342.978 
  142.788,344.427 143.796,345.813 144.804,347.137 145.812,348.4 146.82,349.604 147.829,350.75 148.837,351.841 149.845,352.876 150.853,353.858 151.861,354.788 
  152.87,355.667 153.878,356.497 154.886,357.28 155.894,358.016 156.902,358.707 157.911,359.354 158.919,359.96 159.927,360.525 160.935,361.05 161.943,361.538 
  162.952,361.989 163.96,362.405 164.968,362.788 165.976,363.138 166.984,363.458 167.993,363.748 169.001,364.01 170.009,364.246 171.017,364.457 172.025,364.644 
  173.034,364.808 174.042,364.952 175.05,365.076 176.058,365.183 177.066,365.272 178.074,365.347 179.083,365.407 180.091,365.455 181.099,365.493 182.107,365.52 
  183.115,365.54 184.124,365.553 185.132,365.56 186.14,365.564 187.148,365.565 188.156,365.565 189.165,365.565 190.173,365.562 191.181,365.557 192.189,365.547 
  193.197,365.531 194.206,365.508 195.214,365.475 196.222,365.433 197.23,365.378 198.238,365.311 199.247,365.229 200.255,365.132 201.263,365.016 202.271,364.883 
  203.279,364.729 204.288,364.553 205.296,364.354 206.304,364.131 207.312,363.883 208.32,363.607 209.329,363.302 210.337,362.967 211.345,362.601 212.353,362.201 
  213.361,361.768 214.37,361.299 215.378,360.792 216.386,360.247 217.394,359.662 218.402,359.036 219.411,358.367 220.419,357.653 221.427,356.894 222.435,356.088 
  223.443,355.234 224.452,354.329 225.46,353.374 226.468,352.365 227.476,351.303 228.484,350.184 229.493,349.009 230.501,347.776 231.509,346.482 232.517,345.128 
  233.525,343.711 234.534,342.23 235.542,340.683 236.55,339.07 237.558,337.388 238.566,335.636 239.575,333.814 240.583,331.919 241.591,329.95 242.599,327.905 
  243.607,325.784 244.616,323.585 245.624,321.306 246.632,318.945 247.64,316.503 248.648,313.977 249.657,311.365 250.665,308.667 251.673,305.881 252.681,303.011 
  253.689,300.06 254.697,297.034 255.706,293.935 256.714,290.769 257.722,287.539 258.73,284.251 259.738,280.908 260.747,277.514 261.755,274.073 262.763,270.591 
  263.771,267.071 264.779,263.517 265.788,259.934 266.796,256.325 267.804,252.696 268.812,249.05 269.82,245.392 270.829,241.726 271.837,238.055 272.845,234.385 
  273.853,230.72 274.861,227.064 275.87,223.42 276.878,219.794 277.886,216.19 278.894,212.611 279.902,209.063 280.911,205.548 281.919,202.073 282.927,198.64 
  283.935,195.254 284.943,191.919 285.952,188.641 286.96,185.421 287.968,182.266 288.976,179.179 289.984,176.165 290.993,173.228 292.001,170.371 293.009,167.6 
  294.017,164.918 295.025,162.33 296.034,159.84 297.042,157.453 298.05,155.171 299.058,153.001 300.066,150.945 301.075,149.009 302.083,147.196 303.091,145.511 
  304.099,143.958 305.107,142.541 306.116,141.265 307.124,140.133 308.132,139.151 309.14,138.321 310.148,137.649 311.157,137.139 312.165,136.794 313.173,136.62 
  314.181,136.62 315.189,136.794 316.198,137.139 317.206,137.649 318.214,138.321 319.222,139.151 320.23,140.133 321.239,141.265 322.247,142.541 323.255,143.958 
  324.263,145.511 325.271,147.196 326.279,149.009 327.288,150.945 328.296,153.001 329.304,155.171 330.312,157.453 331.32,159.84 332.329,162.33 333.337,164.918 
  334.345,167.6 335.353,170.371 336.361,173.228 337.37,176.165 338.378,179.179 339.386,182.266 340.394,185.421 341.402,188.641 342.411,191.919 343.419,195.254 
  344.427,198.64 345.435,202.073 346.443,205.548 347.452,209.063 348.46,212.611 349.468,216.19 350.476,219.794 351.484,223.42 352.493,227.064 353.501,230.72 
  354.509,234.385 355.517,238.055 356.525,241.726 357.534,245.392 358.542,249.05 359.55,252.696 360.558,256.325 361.566,259.934 362.575,263.517 363.583,267.071 
  364.591,270.591 365.599,274.073 366.607,277.514 367.616,280.908 368.624,284.251 369.632,287.539 370.64,290.769 371.648,293.935 372.657,297.034 373.665,300.06 
  374.673,303.011 375.681,305.881 376.689,308.667 377.698,311.365 378.706,313.977 379.714,316.503 380.722,318.945 381.73,321.306 382.739,323.585 383.747,325.784 
  384.755,327.905 385.763,329.95 386.771,331.919 387.78,333.814 388.788,335.636 389.796,337.388 390.804,339.07 391.812,340.683 392.821,342.23 393.829,343.711 
  394.837,345.128 395.845,346.482 396.853,347.776 397.861,349.009 398.87,350.184 399.878,351.303 400.886,352.365 401.894,353.374 402.902,354.329 403.911,355.234 
  404.919,356.088 405.927,356.894 406.935,357.653 407.943,358.367 408.952,359.036 409.96,359.662 410.968,360.247 411.976,360.792 412.984,361.299 413.993,361.768 
  415.001,362.201 416.009,362.601 417.017,362.967 418.025,363.302 419.034,363.607 420.042,363.883 421.05,364.131 422.058,364.354 423.066,364.553 424.075,364.729 
  425.083,364.883 426.091,365.016 427.099,365.132 428.107,365.229 429.116,365.311 430.124,365.378 431.132,365.433 432.14,365.475 433.148,365.508 434.157,365.531 
  435.165,365.547 436.173,365.557 437.181,365.562 438.189,365.565 439.198,365.565 440.206,365.565 441.214,365.564 442.222,365.56 443.23,365.553 444.239,365.54 
  445.247,365.52 446.255,365.493 447.263,365.455 448.271,365.407 449.28,365.347 450.288,365.272 451.296,365.183 452.304,365.076 453.312,364.952 454.321,364.808 
  455.329,364.644 456.337,364.457 457.345,364.246 458.353,364.01 459.362,363.748 460.37,363.458 461.378,363.138 462.386,362.788 463.394,362.405 464.403,361.989 
  465.411,361.538 466.419,361.05 467.427,360.525 468.435,359.96 469.444,359.354 470.452,358.707 471.46,358.016 472.468,357.28 473.476,356.497 474.484,355.667 
  475.493,354.788 476.501,353.858 477.509,352.876 478.517,351.841 479.525,350.75 480.534,349.604 481.542,348.4 482.55,347.137 483.558,345.813 484.566,344.427 
  485.575,342.978 486.583,341.465 487.591,339.885 488.599,338.237 489.607,336.521 490.616,334.734 491.624,332.875 492.632,330.943 493.64,328.937 494.648,326.854 
  495.657,324.694 496.665,322.455 497.673,320.136 498.681,317.735 499.689,315.25 500.698,312.682 501.706,310.027 502.714,307.285 503.722,304.456 504.73,301.545 
  505.739,298.556 506.747,295.493 507.755,292.36 508.763,289.162 509.771,285.902 510.78,282.586 511.788,279.217 512.796,275.799 513.804,272.337 514.812,268.835 
  515.821,265.298 516.829,261.729 517.837,258.132 518.845,254.513 519.853,250.875 520.862,247.222 521.87,243.56 522.878,239.891 523.886,236.22 524.894,232.552 
  525.903,228.89 526.911,225.24 527.919,221.605 528.927,217.989 529.935,214.397 530.944,210.833 531.952,207.301 532.96,203.805 533.968,200.351 534.976,196.941 
  535.985,193.58 536.993,190.273 538.001,187.023 539.009,183.836 540.017,180.714 541.026,177.663 542.034,174.686 543.042,171.789 544.05,168.975 545.058,166.248 
  546.066,163.612 547.075,161.073 548.083,158.633 549.091,156.298 550.099,154.072 551.107,151.958 552.116,149.962 553.124,148.087 554.132,146.338 555.14,144.718 
  556.148,143.233 557.157,141.885 558.165,140.681 559.173,139.623 560.181,138.717 561.189,137.965 562.198,137.373 563.206,136.946 564.214,136.686 565.222,136.598 
  
  "/>
<polyline clip-path="url(#clip9602)" style="stroke:#ac8d18; stroke-width:1; stroke-opacity:1; fill:none" points="
  62.1318,159.853 63.14,159.908 64.1482,160.073 65.1564,160.349 66.1646,160.734 67.1728,161.228 68.181,161.831 69.1892,162.542 70.1974,163.36 71.2056,164.284 
  72.2138,165.313 73.222,166.445 74.2302,167.68 75.2384,169.015 76.2466,170.448 77.2548,171.979 78.263,173.605 79.2712,175.324 80.2794,177.133 81.2876,179.031 
  82.2958,181.014 83.304,183.08 84.3121,185.227 85.3203,187.451 86.3285,189.75 87.3367,192.12 88.3449,194.557 89.3531,197.059 90.3613,199.621 91.3695,202.241 
  92.3777,204.913 93.3859,207.635 94.3941,210.401 95.4023,213.209 96.4105,216.052 97.4187,218.929 98.4269,221.834 99.4351,224.764 100.443,227.715 101.452,230.683 
  102.46,233.664 103.468,236.657 104.476,239.656 105.484,242.658 106.492,245.661 107.501,248.661 108.509,251.655 109.517,254.641 110.525,257.614 111.533,260.574 
  112.542,263.516 113.55,266.439 114.558,269.339 115.566,272.215 116.574,275.064 117.583,277.884 118.591,280.673 119.599,283.428 120.607,286.148 121.615,288.831 
  122.624,291.476 123.632,294.079 124.64,296.641 125.648,299.159 126.656,301.632 127.665,304.059 128.673,306.438 129.681,308.769 130.689,311.05 131.697,313.28 
  132.706,315.459 133.714,317.585 134.722,319.659 135.73,321.679 136.738,323.644 137.747,325.556 138.755,327.413 139.763,329.214 140.771,330.961 141.779,332.652 
  142.788,334.288 143.796,335.87 144.804,337.396 145.812,338.868 146.82,340.287 147.829,341.651 148.837,342.963 149.845,344.222 150.853,345.43 151.861,346.588 
  152.87,347.695 153.878,348.754 154.886,349.766 155.894,350.731 156.902,351.652 157.911,352.529 158.919,353.364 159.927,354.158 160.935,354.912 161.943,355.629 
  162.952,356.308 163.96,356.951 164.968,357.559 165.976,358.133 166.984,358.675 167.993,359.185 169.001,359.663 170.009,360.112 171.017,360.532 172.025,360.923 
  173.034,361.286 174.042,361.623 175.05,361.933 176.058,362.217 177.066,362.476 178.074,362.71 179.083,362.92 180.091,363.107 181.099,363.27 182.107,363.409 
  183.115,363.526 184.124,363.621 185.132,363.693 186.14,363.743 187.148,363.77 188.156,363.776 189.165,363.759 190.173,363.72 191.181,363.66 192.189,363.576 
  193.197,363.471 194.206,363.342 195.214,363.191 196.222,363.017 197.23,362.818 198.238,362.596 199.247,362.35 200.255,362.078 201.263,361.781 202.271,361.458 
  203.279,361.108 204.288,360.731 205.296,360.325 206.304,359.891 207.312,359.428 208.32,358.934 209.329,358.408 210.337,357.85 211.345,357.259 212.353,356.634 
  213.361,355.973 214.37,355.275 215.378,354.54 216.386,353.766 217.394,352.952 218.402,352.096 219.411,351.197 220.419,350.254 221.427,349.266 222.435,348.231 
  223.443,347.148 224.452,346.015 225.46,344.833 226.468,343.599 227.476,342.314 228.484,340.975 229.493,339.584 230.501,338.139 231.509,336.64 232.517,335.086 
  233.525,333.477 234.534,331.813 235.542,330.094 236.55,328.32 237.558,326.491 238.566,324.607 239.575,322.668 240.583,320.675 241.591,318.629 242.599,316.529 
  243.607,314.376 244.616,312.171 245.624,309.916 246.632,307.61 247.64,305.255 248.648,302.852 249.657,300.401 250.665,297.906 251.673,295.366 252.681,292.783 
  253.689,290.158 254.697,287.494 255.706,284.793 256.714,282.055 257.722,279.282 258.73,276.478 259.738,273.643 260.747,270.78 261.755,267.892 262.763,264.98 
  263.771,262.047 264.779,259.096 265.788,256.129 266.796,253.149 267.804,250.159 268.812,247.162 269.82,244.16 270.829,241.157 271.837,238.155 272.845,235.159 
  273.853,232.172 274.861,229.197 275.87,226.237 276.878,223.296 277.886,220.378 278.894,217.487 279.902,214.626 280.911,211.8 281.919,209.013 282.927,206.268 
  283.935,203.571 284.943,200.924 285.952,198.333 286.96,195.8 287.968,193.33 288.976,190.926 289.984,188.592 290.993,186.33 292.001,184.144 293.009,182.037 
  294.017,180.012 295.025,178.071 296.034,176.217 297.042,174.453 298.05,172.78 299.058,171.202 300.066,169.719 301.075,168.335 302.083,167.05 303.091,165.866 
  304.099,164.786 305.107,163.809 306.116,162.938 307.124,162.173 308.132,161.516 309.14,160.967 310.148,160.528 311.157,160.197 312.165,159.977 313.173,159.866 
  314.181,159.866 315.189,159.977 316.198,160.197 317.206,160.528 318.214,160.967 319.222,161.516 320.23,162.173 321.239,162.938 322.247,163.809 323.255,164.786 
  324.263,165.866 325.271,167.05 326.279,168.335 327.288,169.719 328.296,171.202 329.304,172.78 330.312,174.453 331.32,176.217 332.329,178.071 333.337,180.012 
  334.345,182.037 335.353,184.144 336.361,186.33 337.37,188.592 338.378,190.926 339.386,193.33 340.394,195.8 341.402,198.333 342.411,200.924 343.419,203.571 
  344.427,206.268 345.435,209.013 346.443,211.8 347.452,214.626 348.46,217.487 349.468,220.378 350.476,223.296 351.484,226.237 352.493,229.197 353.501,232.172 
  354.509,235.159 355.517,238.155 356.525,241.157 357.534,244.16 358.542,247.162 359.55,250.159 360.558,253.149 361.566,256.129 362.575,259.096 363.583,262.047 
  364.591,264.98 365.599,267.892 366.607,270.78 367.616,273.643 368.624,276.478 369.632,279.282 370.64,282.055 371.648,284.793 372.657,287.494 373.665,290.158 
  374.673,292.783 375.681,295.366 376.689,297.906 377.698,300.401 378.706,302.852 379.714,305.255 380.722,307.61 381.73,309.916 382.739,312.171 383.747,314.376 
  384.755,316.529 385.763,318.629 386.771,320.675 387.78,322.668 388.788,324.607 389.796,326.491 390.804,328.32 391.812,330.094 392.821,331.813 393.829,333.477 
  394.837,335.086 395.845,336.64 396.853,338.139 397.861,339.584 398.87,340.975 399.878,342.314 400.886,343.599 401.894,344.833 402.902,346.015 403.911,347.148 
  404.919,348.231 405.927,349.266 406.935,350.254 407.943,351.197 408.952,352.096 409.96,352.952 410.968,353.766 411.976,354.54 412.984,355.275 413.993,355.973 
  415.001,356.634 416.009,357.259 417.017,357.85 418.025,358.408 419.034,358.934 420.042,359.428 421.05,359.891 422.058,360.325 423.066,360.731 424.075,361.108 
  425.083,361.458 426.091,361.781 427.099,362.078 428.107,362.35 429.116,362.596 430.124,362.818 431.132,363.017 432.14,363.191 433.148,363.342 434.157,363.471 
  435.165,363.576 436.173,363.66 437.181,363.72 438.189,363.759 439.198,363.776 440.206,363.77 441.214,363.743 442.222,363.693 443.23,363.621 444.239,363.526 
  445.247,363.409 446.255,363.27 447.263,363.107 448.271,362.92 449.28,362.71 450.288,362.476 451.296,362.217 452.304,361.933 453.312,361.623 454.321,361.286 
  455.329,360.923 456.337,360.532 457.345,360.112 458.353,359.663 459.362,359.185 460.37,358.675 461.378,358.133 462.386,357.559 463.394,356.951 464.403,356.308 
  465.411,355.629 466.419,354.912 467.427,354.158 468.435,353.364 469.444,352.529 470.452,351.652 471.46,350.731 472.468,349.766 473.476,348.754 474.484,347.695 
  475.493,346.588 476.501,345.43 477.509,344.222 478.517,342.963 479.525,341.651 480.534,340.287 481.542,338.868 482.55,337.396 483.558,335.87 484.566,334.288 
  485.575,332.652 486.583,330.961 487.591,329.214 488.599,327.413 489.607,325.556 490.616,323.644 491.624,321.679 492.632,319.659 493.64,317.585 494.648,315.459 
  495.657,313.28 496.665,311.05 497.673,308.769 498.681,306.438 499.689,304.059 500.698,301.632 501.706,299.159 502.714,296.641 503.722,294.079 504.73,291.476 
  505.739,288.831 506.747,286.148 507.755,283.428 508.763,280.673 509.771,277.884 510.78,275.064 511.788,272.215 512.796,269.339 513.804,266.439 514.812,263.516 
  515.821,260.574 516.829,257.614 517.837,254.641 518.845,251.655 519.853,248.661 520.862,245.661 521.87,242.658 522.878,239.656 523.886,236.657 524.894,233.664 
  525.903,230.683 526.911,227.715 527.919,224.764 528.927,221.834 529.935,218.929 530.944,216.052 531.952,213.209 532.96,210.401 533.968,207.635 534.976,204.913 
  535.985,202.241 536.993,199.621 538.001,197.059 539.009,194.557 540.017,192.12 541.026,189.75 542.034,187.451 543.042,185.227 544.05,183.08 545.058,181.014 
  546.066,179.031 547.075,177.133 548.083,175.324 549.091,173.605 550.099,171.979 551.107,170.448 552.116,169.015 553.124,167.68 554.132,166.445 555.14,165.313 
  556.148,164.284 557.157,163.36 558.165,162.542 559.173,161.831 560.181,161.228 561.189,160.734 562.198,160.349 563.206,160.073 564.214,159.908 565.222,159.853 
  
  "/>
<polyline clip-path="url(#clip9602)" style="stroke:#00a9ad; stroke-width:1; stroke-opacity:1; fill:none" points="
  62.1318,176.667 63.14,176.711 64.1482,176.844 65.1564,177.064 66.1646,177.372 67.1728,177.767 68.181,178.249 69.1892,178.817 70.1974,179.47 71.2056,180.207 
  72.2138,181.027 73.222,181.93 74.2302,182.913 75.2384,183.976 76.2466,185.117 77.2548,186.334 78.263,187.627 79.2712,188.993 80.2794,190.43 81.2876,191.937 
  82.2958,193.512 83.304,195.153 84.3121,196.858 85.3203,198.624 86.3285,200.45 87.3367,202.334 88.3449,204.273 89.3531,206.264 90.3613,208.307 91.3695,210.397 
  92.3777,212.534 93.3859,214.713 94.3941,216.934 95.4023,219.193 96.4105,221.488 97.4187,223.816 98.4269,226.176 99.4351,228.563 100.443,230.977 101.452,233.414 
  102.46,235.871 103.468,238.347 104.476,240.838 105.484,243.342 106.492,245.857 107.501,248.38 108.509,250.909 109.517,253.441 110.525,255.974 111.533,258.506 
  112.542,261.033 113.55,263.555 114.558,266.068 115.566,268.57 116.574,271.06 117.583,273.536 118.591,275.994 119.599,278.434 120.607,280.853 121.615,283.25 
  122.624,285.622 123.632,287.969 124.64,290.288 125.648,292.579 126.656,294.839 127.665,297.068 128.673,299.264 129.681,301.425 130.689,303.552 131.697,305.643 
  132.706,307.697 133.714,309.713 134.722,311.691 135.73,313.629 136.738,315.528 137.747,317.386 138.755,319.204 139.763,320.98 140.771,322.715 141.779,324.408 
  142.788,326.059 143.796,327.668 144.804,329.234 145.812,330.758 146.82,332.24 147.829,333.678 148.837,335.075 149.845,336.429 150.853,337.741 151.861,339.011 
  152.87,340.239 153.878,341.426 154.886,342.571 155.894,343.675 156.902,344.739 157.911,345.762 158.919,346.745 159.927,347.689 160.935,348.594 161.943,349.46 
  162.952,350.288 163.96,351.078 164.968,351.831 165.976,352.546 166.984,353.226 167.993,353.869 169.001,354.477 170.009,355.05 171.017,355.588 172.025,356.093 
  173.034,356.563 174.042,357.001 175.05,357.405 176.058,357.778 177.066,358.118 178.074,358.427 179.083,358.704 180.091,358.951 181.099,359.167 182.107,359.353 
  183.115,359.508 184.124,359.634 185.132,359.73 186.14,359.796 187.148,359.833 188.156,359.84 189.165,359.818 190.173,359.766 191.181,359.685 192.189,359.575 
  193.197,359.434 194.206,359.264 195.214,359.063 196.222,358.832 197.23,358.57 198.238,358.276 199.247,357.952 200.255,357.596 201.263,357.207 202.271,356.786 
  203.279,356.332 204.288,355.845 205.296,355.323 206.304,354.768 207.312,354.177 208.32,353.552 209.329,352.891 210.337,352.193 211.345,351.459 212.353,350.688 
  213.361,349.879 214.37,349.032 215.378,348.147 216.386,347.222 217.394,346.259 218.402,345.255 219.411,344.212 220.419,343.128 221.427,342.003 222.435,340.837 
  223.443,339.63 224.452,338.381 225.46,337.09 226.468,335.757 227.476,334.382 228.484,332.964 229.493,331.504 230.501,330.002 231.509,328.457 232.517,326.869 
  233.525,325.239 234.534,323.567 235.542,321.853 236.55,320.097 237.558,318.3 238.566,316.462 239.575,314.584 240.583,312.665 241.591,310.707 242.599,308.71 
  243.607,306.675 244.616,304.602 245.624,302.493 246.632,300.349 247.64,298.17 248.648,295.958 249.657,293.713 250.665,291.437 251.673,289.132 252.681,286.799 
  253.689,284.439 254.697,282.054 255.706,279.646 256.714,277.216 257.722,274.767 258.73,272.3 259.738,269.817 260.747,267.321 261.755,264.812 262.763,262.295 
  263.771,259.77 264.779,257.24 265.788,254.708 266.796,252.175 267.804,249.644 268.812,247.118 269.82,244.599 270.829,242.089 271.837,239.591 272.845,237.107 
  273.853,234.64 274.861,232.193 275.87,229.767 276.878,227.366 277.886,224.992 278.894,222.648 279.902,220.336 280.911,218.059 281.919,215.819 282.927,213.618 
  283.935,211.46 284.943,209.346 285.952,207.279 286.96,205.262 287.968,203.297 288.976,201.385 289.984,199.53 290.993,197.733 292.001,195.997 293.009,194.324 
  294.017,192.716 295.025,191.175 296.034,189.702 297.042,188.301 298.05,186.971 299.058,185.716 300.066,184.537 301.075,183.435 302.083,182.411 303.091,181.468 
  304.099,180.607 305.107,179.828 306.116,179.133 307.124,178.522 308.132,177.997 309.14,177.559 310.148,177.207 311.157,176.943 312.165,176.767 313.173,176.678 
  314.181,176.678 315.189,176.767 316.198,176.943 317.206,177.207 318.214,177.559 319.222,177.997 320.23,178.522 321.239,179.133 322.247,179.828 323.255,180.607 
  324.263,181.468 325.271,182.411 326.279,183.435 327.288,184.537 328.296,185.716 329.304,186.971 330.312,188.301 331.32,189.702 332.329,191.175 333.337,192.716 
  334.345,194.324 335.353,195.997 336.361,197.733 337.37,199.53 338.378,201.385 339.386,203.297 340.394,205.262 341.402,207.279 342.411,209.346 343.419,211.46 
  344.427,213.618 345.435,215.819 346.443,218.059 347.452,220.336 348.46,222.648 349.468,224.992 350.476,227.366 351.484,229.767 352.493,232.193 353.501,234.64 
  354.509,237.107 355.517,239.591 356.525,242.089 357.534,244.599 358.542,247.118 359.55,249.644 360.558,252.175 361.566,254.708 362.575,257.24 363.583,259.77 
  364.591,262.295 365.599,264.812 366.607,267.321 367.616,269.817 368.624,272.3 369.632,274.767 370.64,277.216 371.648,279.646 372.657,282.054 373.665,284.439 
  374.673,286.799 375.681,289.132 376.689,291.437 377.698,293.713 378.706,295.958 379.714,298.17 380.722,300.349 381.73,302.493 382.739,304.602 383.747,306.675 
  384.755,308.71 385.763,310.707 386.771,312.665 387.78,314.584 388.788,316.462 389.796,318.3 390.804,320.097 391.812,321.853 392.821,323.567 393.829,325.239 
  394.837,326.869 395.845,328.457 396.853,330.002 397.861,331.504 398.87,332.964 399.878,334.382 400.886,335.757 401.894,337.09 402.902,338.381 403.911,339.63 
  404.919,340.837 405.927,342.003 406.935,343.128 407.943,344.212 408.952,345.255 409.96,346.259 410.968,347.222 411.976,348.147 412.984,349.032 413.993,349.879 
  415.001,350.688 416.009,351.459 417.017,352.193 418.025,352.891 419.034,353.552 420.042,354.177 421.05,354.768 422.058,355.323 423.066,355.845 424.075,356.332 
  425.083,356.786 426.091,357.207 427.099,357.596 428.107,357.952 429.116,358.276 430.124,358.57 431.132,358.832 432.14,359.063 433.148,359.264 434.157,359.434 
  435.165,359.575 436.173,359.685 437.181,359.766 438.189,359.818 439.198,359.84 440.206,359.833 441.214,359.796 442.222,359.73 443.23,359.634 444.239,359.508 
  445.247,359.353 446.255,359.167 447.263,358.951 448.271,358.704 449.28,358.427 450.288,358.118 451.296,357.778 452.304,357.405 453.312,357.001 454.321,356.563 
  455.329,356.093 456.337,355.588 457.345,355.05 458.353,354.477 459.362,353.869 460.37,353.226 461.378,352.546 462.386,351.831 463.394,351.078 464.403,350.288 
  465.411,349.46 466.419,348.594 467.427,347.689 468.435,346.745 469.444,345.762 470.452,344.739 471.46,343.675 472.468,342.571 473.476,341.426 474.484,340.239 
  475.493,339.011 476.501,337.741 477.509,336.429 478.517,335.075 479.525,333.678 480.534,332.24 481.542,330.758 482.55,329.234 483.558,327.668 484.566,326.059 
  485.575,324.408 486.583,322.715 487.591,320.98 488.599,319.204 489.607,317.386 490.616,315.528 491.624,313.629 492.632,311.691 493.64,309.713 494.648,307.697 
  495.657,305.643 496.665,303.552 497.673,301.425 498.681,299.264 499.689,297.068 500.698,294.839 501.706,292.579 502.714,290.288 503.722,287.969 504.73,285.622 
  505.739,283.25 506.747,280.853 507.755,278.434 508.763,275.994 509.771,273.536 510.78,271.06 511.788,268.57 512.796,266.068 513.804,263.555 514.812,261.033 
  515.821,258.506 516.829,255.974 517.837,253.441 518.845,250.909 519.853,248.38 520.862,245.857 521.87,243.342 522.878,240.838 523.886,238.347 524.894,235.871 
  525.903,233.414 526.911,230.977 527.919,228.563 528.927,226.176 529.935,223.816 530.944,221.488 531.952,219.193 532.96,216.934 533.968,214.713 534.976,212.534 
  535.985,210.397 536.993,208.307 538.001,206.264 539.009,204.273 540.017,202.334 541.026,200.45 542.034,198.624 543.042,196.858 544.05,195.153 545.058,193.512 
  546.066,191.937 547.075,190.43 548.083,188.993 549.091,187.627 550.099,186.334 551.107,185.117 552.116,183.976 553.124,182.913 554.132,181.93 555.14,181.027 
  556.148,180.207 557.157,179.47 558.165,178.817 559.173,178.249 560.181,177.767 561.189,177.372 562.198,177.064 563.206,176.844 564.214,176.711 565.222,176.667 
  
  "/>
<polyline clip-path="url(#clip9602)" style="stroke:#ed5d92; stroke-width:1; stroke-opacity:1; fill:none" points="
  62.1318,190.054 63.14,190.089 64.1482,190.195 65.1564,190.372 66.1646,190.619 67.1728,190.937 68.181,191.324 69.1892,191.78 70.1974,192.306 71.2056,192.9 
  72.2138,193.561 73.222,194.289 74.2302,195.083 75.2384,195.943 76.2466,196.867 77.2548,197.853 78.263,198.902 79.2712,200.012 80.2794,201.182 81.2876,202.41 
  82.2958,203.695 83.304,205.036 84.3121,206.432 85.3203,207.879 86.3285,209.378 87.3367,210.927 88.3449,212.524 89.3531,214.166 90.3613,215.853 91.3695,217.583 
  92.3777,219.354 93.3859,221.163 94.3941,223.01 95.4023,224.892 96.4105,226.807 97.4187,228.754 98.4269,230.73 99.4351,232.734 100.443,234.763 101.452,236.816 
  102.46,238.89 103.468,240.984 104.476,243.096 105.484,245.223 106.492,247.365 107.501,249.518 108.509,251.681 109.517,253.853 110.525,256.031 111.533,258.213 
  112.542,260.397 113.55,262.583 114.558,264.768 115.566,266.949 116.574,269.127 117.583,271.299 118.591,273.462 119.599,275.617 120.607,277.761 121.615,279.893 
  122.624,282.01 123.632,284.113 124.64,286.199 125.648,288.267 126.656,290.316 127.665,292.345 128.673,294.352 129.681,296.336 130.689,298.296 131.697,300.232 
  132.706,302.141 133.714,304.024 134.722,305.878 135.73,307.704 136.738,309.5 137.747,311.267 138.755,313.002 139.763,314.705 140.771,316.376 141.779,318.015 
  142.788,319.619 143.796,321.19 144.804,322.727 145.812,324.229 146.82,325.695 147.829,327.126 148.837,328.522 149.845,329.881 150.853,331.205 151.861,332.491 
  152.87,333.742 153.878,334.956 154.886,336.133 155.894,337.273 156.902,338.377 157.911,339.443 158.919,340.473 159.927,341.467 160.935,342.423 161.943,343.343 
  162.952,344.227 163.96,345.074 164.968,345.885 165.976,346.66 166.984,347.398 167.993,348.101 169.001,348.768 170.009,349.399 171.017,349.995 172.025,350.555 
  173.034,351.08 174.042,351.57 175.05,352.025 176.058,352.445 177.066,352.83 178.074,353.181 179.083,353.497 180.091,353.779 181.099,354.026 182.107,354.24 
  183.115,354.418 184.124,354.563 185.132,354.674 186.14,354.75 187.148,354.793 188.156,354.801 189.165,354.776 190.173,354.716 191.181,354.623 192.189,354.495 
  193.197,354.333 194.206,354.137 195.214,353.907 196.222,353.643 197.23,353.344 198.238,353.01 199.247,352.642 200.255,352.239 201.263,351.802 202.271,351.329 
  203.279,350.822 204.288,350.279 205.296,349.701 206.304,349.088 207.312,348.439 208.32,347.754 209.329,347.033 210.337,346.277 211.345,345.484 212.353,344.655 
  213.361,343.79 214.37,342.888 215.378,341.95 216.386,340.975 217.394,339.963 218.402,338.915 219.411,337.829 220.419,336.707 221.427,335.549 222.435,334.353 
  223.443,333.121 224.452,331.853 225.46,330.547 226.468,329.206 227.476,327.829 228.484,326.415 229.493,324.966 230.501,323.482 231.509,321.963 232.517,320.409 
  233.525,318.821 234.534,317.2 235.542,315.545 236.55,313.857 237.558,312.138 238.566,310.387 239.575,308.606 240.583,306.795 241.591,304.954 242.599,303.086 
  243.607,301.19 244.616,299.267 245.624,297.319 246.632,295.347 247.64,293.351 248.648,291.333 249.657,289.294 250.665,287.236 251.673,285.158 252.681,283.064 
  253.689,280.953 254.697,278.828 255.706,276.691 256.714,274.541 257.722,272.382 258.73,270.214 259.738,268.039 260.747,265.859 261.755,263.675 262.763,261.49 
  263.771,259.305 264.779,257.121 265.788,254.941 266.796,252.766 267.804,250.599 268.812,248.44 269.82,246.293 270.829,244.158 271.837,242.038 272.845,239.935 
  273.853,237.85 274.861,235.786 275.87,233.745 276.878,231.729 277.886,229.738 278.894,227.777 279.902,225.846 280.911,223.947 281.919,222.082 282.927,220.254 
  283.935,218.463 284.943,216.713 285.952,215.004 286.96,213.339 287.968,211.719 288.976,210.147 289.984,208.623 290.993,207.149 292.001,205.727 293.009,204.359 
  294.017,203.046 295.025,201.789 296.034,200.59 297.042,199.45 298.05,198.37 299.058,197.352 300.066,196.397 301.075,195.505 302.083,194.678 303.091,193.917 
  304.099,193.222 305.107,192.594 306.116,192.034 307.124,191.543 308.132,191.121 309.14,190.769 310.148,190.487 311.157,190.275 312.165,190.133 313.173,190.062 
  314.181,190.062 315.189,190.133 316.198,190.275 317.206,190.487 318.214,190.769 319.222,191.121 320.23,191.543 321.239,192.034 322.247,192.594 323.255,193.222 
  324.263,193.917 325.271,194.678 326.279,195.505 327.288,196.397 328.296,197.352 329.304,198.37 330.312,199.45 331.32,200.59 332.329,201.789 333.337,203.046 
  334.345,204.359 335.353,205.727 336.361,207.149 337.37,208.623 338.378,210.147 339.386,211.719 340.394,213.339 341.402,215.004 342.411,216.713 343.419,218.463 
  344.427,220.254 345.435,222.082 346.443,223.947 347.452,225.846 348.46,227.777 349.468,229.738 350.476,231.729 351.484,233.745 352.493,235.786 353.501,237.85 
  354.509,239.935 355.517,242.038 356.525,244.158 357.534,246.293 358.542,248.44 359.55,250.599 360.558,252.766 361.566,254.941 362.575,257.121 363.583,259.305 
  364.591,261.49 365.599,263.675 366.607,265.859 367.616,268.039 368.624,270.214 369.632,272.382 370.64,274.541 371.648,276.691 372.657,278.828 373.665,280.953 
  374.673,283.064 375.681,285.158 376.689,287.236 377.698,289.294 378.706,291.333 379.714,293.351 380.722,295.347 381.73,297.319 382.739,299.267 383.747,301.19 
  384.755,303.086 385.763,304.954 386.771,306.795 387.78,308.606 388.788,310.387 389.796,312.138 390.804,313.857 391.812,315.545 392.821,317.2 393.829,318.821 
  394.837,320.409 395.845,321.963 396.853,323.482 397.861,324.966 398.87,326.415 399.878,327.829 400.886,329.206 401.894,330.547 402.902,331.853 403.911,333.121 
  404.919,334.353 405.927,335.549 406.935,336.707 407.943,337.829 408.952,338.915 409.96,339.963 410.968,340.975 411.976,341.95 412.984,342.888 413.993,343.79 
  415.001,344.655 416.009,345.484 417.017,346.277 418.025,347.033 419.034,347.754 420.042,348.439 421.05,349.088 422.058,349.701 423.066,350.279 424.075,350.822 
  425.083,351.329 426.091,351.802 427.099,352.239 428.107,352.642 429.116,353.01 430.124,353.344 431.132,353.643 432.14,353.907 433.148,354.137 434.157,354.333 
  435.165,354.495 436.173,354.623 437.181,354.716 438.189,354.776 439.198,354.801 440.206,354.793 441.214,354.75 442.222,354.674 443.23,354.563 444.239,354.418 
  445.247,354.24 446.255,354.026 447.263,353.779 448.271,353.497 449.28,353.181 450.288,352.83 451.296,352.445 452.304,352.025 453.312,351.57 454.321,351.08 
  455.329,350.555 456.337,349.995 457.345,349.399 458.353,348.768 459.362,348.101 460.37,347.398 461.378,346.66 462.386,345.885 463.394,345.074 464.403,344.227 
  465.411,343.343 466.419,342.423 467.427,341.467 468.435,340.473 469.444,339.443 470.452,338.377 471.46,337.273 472.468,336.133 473.476,334.956 474.484,333.742 
  475.493,332.491 476.501,331.205 477.509,329.881 478.517,328.522 479.525,327.126 480.534,325.695 481.542,324.229 482.55,322.727 483.558,321.19 484.566,319.619 
  485.575,318.015 486.583,316.376 487.591,314.705 488.599,313.002 489.607,311.267 490.616,309.5 491.624,307.704 492.632,305.878 493.64,304.024 494.648,302.141 
  495.657,300.232 496.665,298.296 497.673,296.336 498.681,294.352 499.689,292.345 500.698,290.316 501.706,288.267 502.714,286.199 503.722,284.113 504.73,282.01 
  505.739,279.893 506.747,277.761 507.755,275.617 508.763,273.462 509.771,271.299 510.78,269.127 511.788,266.949 512.796,264.768 513.804,262.583 514.812,260.397 
  515.821,258.213 516.829,256.031 517.837,253.853 518.845,251.681 519.853,249.518 520.862,247.365 521.87,245.223 522.878,243.096 523.886,240.984 524.894,238.89 
  525.903,236.816 526.911,234.763 527.919,232.734 528.927,230.73 529.935,228.754 530.944,226.807 531.952,224.892 532.96,223.01 533.968,221.163 534.976,219.354 
  535.985,217.583 536.993,215.853 538.001,214.166 539.009,212.524 540.017,210.927 541.026,209.378 542.034,207.879 543.042,206.432 544.05,205.036 545.058,203.695 
  546.066,202.41 547.075,201.182 548.083,200.012 549.091,198.902 550.099,197.853 551.107,196.867 552.116,195.943 553.124,195.083 554.132,194.289 555.14,193.561 
  556.148,192.9 557.157,192.306 558.165,191.78 559.173,191.324 560.181,190.937 561.189,190.619 562.198,190.372 563.206,190.195 564.214,190.089 565.222,190.054 
  
  "/>
</svg>
