<?xml version="1.0" encoding="utf-8"?>
<svg xmlns="http://www.w3.org/2000/svg" xmlns:xlink="http://www.w3.org/1999/xlink" width="600" height="400" viewBox="0 0 600 400">
<defs>
  <clipPath id="clip9400">
    <rect x="0" y="0" width="600" height="400"/>
  </clipPath>
</defs>
<polygon clip-path="url(#clip9400)" points="
0,400 600,400 600,0 0,0 
  " fill="#ffffff" fill-opacity="1"/>
<defs>
  <clipPath id="clip9401">
    <rect x="120" y="0" width="421" height="400"/>
  </clipPath>
</defs>
<polygon clip-path="url(#clip9400)" points="
47.0391,375.869 580.315,375.869 580.315,11.811 47.0391,11.811 
  " fill="#ffffff" fill-opacity="1"/>
<defs>
  <clipPath id="clip9402">
    <rect x="47" y="11" width="534" height="365"/>
  </clipPath>
</defs>
<polyline clip-path="url(#clip9402)" style="stroke:#000000; stroke-width:0.5; stroke-opacity:0.1; fill:none" points="
  104.056,375.869 104.056,11.811 
  "/>
<polyline clip-path="url(#clip9402)" style="stroke:#000000; stroke-width:0.5; stroke-opacity:0.1; fill:none" points="
  208.867,375.869 208.867,11.811 
  "/>
<polyline clip-path="url(#clip9402)" style="stroke:#000000; stroke-width:0.5; stroke-opacity:0.1; fill:none" points="
  313.677,375.869 313.677,11.811 
  "/>
<polyline clip-path="url(#clip9402)" style="stroke:#000000; stroke-width:0.5; stroke-opacity:0.1; fill:none" points="
  418.488,375.869 418.488,11.811 
  "/>
<polyline clip-path="url(#clip9402)" style="stroke:#000000; stroke-width:0.5; stroke-opacity:0.1; fill:none" points="
  523.298,375.869 523.298,11.811 
  "/>
<polyline clip-path="url(#clip9402)" style="stroke:#000000; stroke-width:0.5; stroke-opacity:0.1; fill:none" points="
  47.0391,365.565 580.315,365.565 
  "/>
<polyline clip-path="url(#clip9402)" style="stroke:#000000; stroke-width:0.5; stroke-opacity:0.1; fill:none" points="
  47.0391,279.703 580.315,279.703 
  "/>
<polyline clip-path="url(#clip9402)" style="stroke:#000000; stroke-width:0.5; stroke-opacity:0.1; fill:none" points="
  47.0391,193.84 580.315,193.84 
  "/>
<polyline clip-path="url(#clip9402)" style="stroke:#000000; stroke-width:0.5; stroke-opacity:0.1; fill:none" points="
  47.0391,107.977 580.315,107.977 
  "/>
<polyline clip-path="url(#clip9402)" style="stroke:#000000; stroke-width:0.5; stroke-opacity:0.1; fill:none" points="
  47.0391,22.1145 580.315,22.1145 
  "/>
<polyline clip-path="url(#clip9400)" style="stroke:#000000; stroke-width:1; stroke-opacity:1; fill:none" points="
  47.0391,375.869 580.315,375.869 
  "/>
<polyline clip-path="url(#clip9400)" style="stroke:#000000; stroke-width:1; stroke-opacity:1; fill:none" points="
  47.0391,375.869 47.0391,11.811 
  "/>
<polyline clip-path="url(#clip9400)" style="stroke:#000000; stroke-width:1; stroke-opacity:1; fill:none" points="
  104.056,375.869 104.056,370.408 
  "/>
<polyline clip-path="url(#clip9400)" style="stroke:#000000; stroke-width:1; stroke-opacity:1; fill:none" points="
  208.867,375.869 208.867,370.408 
  "/>
<polyline clip-path="url(#clip9400)" style="stroke:#000000; stroke-width:1; stroke-opacity:1; fill:none" points="
  313.677,375.869 313.677,370.408 
  "/>
<polyline clip-path="url(#clip9400)" style="stroke:#000000; stroke-width:1; stroke-opacity:1; fill:none" points="
  418.488,375.869 418.488,370.408 
  "/>
<polyline clip-path="url(#clip9400)" style="stroke:#000000; stroke-width:1; stroke-opacity:1; fill:none" points="
  523.298,375.869 523.298,370.408 
  "/>
<polyline clip-path="url(#clip9400)" style="stroke:#000000; stroke-width:1; stroke-opacity:1; fill:none" points="
  47.0391,365.565 55.0382,365.565 
  "/>
<polyline clip-path="url(#clip9400)" style="stroke:#000000; stroke-width:1; stroke-opacity:1; fill:none" points="
  47.0391,279.703 55.0382,279.703 
  "/>
<polyline clip-path="url(#clip9400)" style="stroke:#000000; stroke-width:1; stroke-opacity:1; fill:none" points="
  47.0391,193.84 55.0382,193.84 
  "/>
<polyline clip-path="url(#clip9400)" style="stroke:#000000; stroke-width:1; stroke-opacity:1; fill:none" points="
  47.0391,107.977 55.0382,107.977 
  "/>
<polyline clip-path="url(#clip9400)" style="stroke:#000000; stroke-width:1; stroke-opacity:1; fill:none" points="
  47.0391,22.1145 55.0382,22.1145 
  "/>
<g clip-path="url(#clip9400)">
<text style="fill:#000000; fill-opacity:1; font-family:Arial,Helvetica Neue,Helvetica,sans-serif; font-size:12; text-anchor:middle;" transform="rotate(0, 104.056, 389.669)" x="104.056" y="389.669">0.0</text>
</g>
<g clip-path="url(#clip9400)">
<text style="fill:#000000; fill-opacity:1; font-family:Arial,Helvetica Neue,Helvetica,sans-serif; font-size:12; text-anchor:middle;" transform="rotate(0, 208.867, 389.669)" x="208.867" y="389.669">2.5</text>
</g>
<g clip-path="url(#clip9400)">
<text style="fill:#000000; fill-opacity:1; font-family:Arial,Helvetica Neue,Helvetica,sans-serif; font-size:12; text-anchor:middle;" transform="rotate(0, 313.677, 389.669)" x="313.677" y="389.669">5.0</text>
</g>
<g clip-path="url(#clip9400)">
<text style="fill:#000000; fill-opacity:1; font-family:Arial,Helvetica Neue,Helvetica,sans-serif; font-size:12; text-anchor:middle;" transform="rotate(0, 418.488, 389.669)" x="418.488" y="389.669">7.5</text>
</g>
<g clip-path="url(#clip9400)">
<text style="fill:#000000; fill-opacity:1; font-family:Arial,Helvetica Neue,Helvetica,sans-serif; font-size:12; text-anchor:middle;" transform="rotate(0, 523.298, 389.669)" x="523.298" y="389.669">10.0</text>
</g>
<g clip-path="url(#clip9400)">
<text style="fill:#000000; fill-opacity:1; font-family:Arial,Helvetica Neue,Helvetica,sans-serif; font-size:12; text-anchor:end;" transform="rotate(0, 41.0391, 370.065)" x="41.0391" y="370.065">0.00</text>
</g>
<g clip-path="url(#clip9400)">
<text style="fill:#000000; fill-opacity:1; font-family:Arial,Helvetica Neue,Helvetica,sans-serif; font-size:12; text-anchor:end;" transform="rotate(0, 41.0391, 284.203)" x="41.0391" y="284.203">0.25</text>
</g>
<g clip-path="url(#clip9400)">
<text style="fill:#000000; fill-opacity:1; font-family:Arial,Helvetica Neue,Helvetica,sans-serif; font-size:12; text-anchor:end;" transform="rotate(0, 41.0391, 198.34)" x="41.0391" y="198.34">0.50</text>
</g>
<g clip-path="url(#clip9400)">
<text style="fill:#000000; fill-opacity:1; font-family:Arial,Helvetica Neue,Helvetica,sans-serif; font-size:12; text-anchor:end;" transform="rotate(0, 41.0391, 112.477)" x="41.0391" y="112.477">0.75</text>
</g>
<g clip-path="url(#clip9400)">
<text style="fill:#000000; fill-opacity:1; font-family:Arial,Helvetica Neue,Helvetica,sans-serif; font-size:12; text-anchor:end;" transform="rotate(0, 41.0391, 26.6145)" x="41.0391" y="26.6145">1.00</text>
</g>
<polyline clip-path="url(#clip9402)" style="stroke:#009af9; stroke-width:1; stroke-opacity:1; fill:none" points="
  62.1318,365.565 63.14,365.565 64.1482,365.565 65.1564,365.565 66.1646,365.565 67.1728,365.565 68.181,365.565 69.1892,365.565 70.1974,365.565 71.2056,365.565 
  72.2138,365.565 73.222,365.565 74.2302,365.565 75.2384,365.565 76.2466,365.565 77.2548,365.565 78.263,365.565 79.2712,365.565 80.2794,365.565 81.2876,365.565 
  82.2958,365.565 83.304,365.565 84.3121,365.565 85.3203,365.565 86.3285,365.565 87.3367,365.565 88.3449,365.565 89.3531,365.565 90.3613,365.565 91.3695,365.565 
  92.3777,365.565 93.3859,365.565 94.3941,365.565 95.4023,365.565 96.4105,365.565 97.4187,365.565 98.4269,365.565 99.4351,365.565 100.443,365.565 101.452,365.565 
  102.46,365.565 103.468,365.565 104.476,22.1145 105.484,22.1145 106.492,22.1145 107.501,22.1145 108.509,22.1145 109.517,22.1145 110.525,22.1145 111.533,22.1145 
  112.542,22.1145 113.55,22.1145 114.558,22.1145 115.566,22.1145 116.574,22.1145 117.583,22.1145 118.591,22.1145 119.599,22.1145 120.607,22.1145 121.615,22.1145 
  122.624,22.1145 123.632,22.1145 124.64,22.1145 125.648,22.1145 126.656,22.1145 127.665,22.1145 128.673,22.1145 129.681,22.1145 130.689,22.1145 131.697,22.1145 
  132.706,22.1145 133.714,22.1145 134.722,22.1145 135.73,22.1145 136.738,22.1145 137.747,22.1145 138.755,22.1145 139.763,22.1145 140.771,22.1145 141.779,22.1145 
  142.788,22.1145 143.796,22.1145 144.804,22.1145 145.812,22.1145 146.82,365.565 147.829,365.565 148.837,365.565 149.845,365.565 150.853,365.565 151.861,365.565 
  152.87,365.565 153.878,365.565 154.886,365.565 155.894,365.565 156.902,365.565 157.911,365.565 158.919,365.565 159.927,365.565 160.935,365.565 161.943,365.565 
  162.952,365.565 163.96,365.565 164.968,365.565 165.976,365.565 166.984,365.565 167.993,365.565 169.001,365.565 170.009,365.565 171.017,365.565 172.025,365.565 
  173.034,365.565 174.042,365.565 175.05,365.565 176.058,365.565 177.066,365.565 178.074,365.565 179.083,365.565 180.091,365.565 181.099,365.565 182.107,365.565 
  183.115,365.565 184.124,365.565 185.132,365.565 186.14,365.565 187.148,365.565 188.156,365.565 189.165,365.565 190.173,365.565 191.181,365.565 192.189,365.565 
  193.197,365.565 194.206,365.565 195.214,365.565 196.222,365.565 197.23,365.565 198.238,365.565 199.247,365.565 200.255,365.565 201.263,365.565 202.271,365.565 
  203.279,365.565 204.288,365.565 205.296,365.565 206.304,365.565 207.312,365.565 208.32,365.565 209.329,365.565 210.337,365.565 211.345,365.565 212.353,365.565 
  213.361,365.565 214.37,365.565 215.378,365.565 216.386,365.565 217.394,365.565 218.402,365.565 219.411,365.565 220.419,365.565 221.427,365.565 222.435,365.565 
  223.443,365.565 224.452,365.565 225.46,365.565 226.468,365.565 227.476,365.565 228.484,365.565 229.493,365.565 230.501,365.565 231.509,365.565 232.517,365.565 
  233.525,365.565 234.534,365.565 235.542,365.565 236.55,365.565 237.558,365.565 238.566,365.565 239.575,365.565 240.583,365.565 241.591,365.565 242.599,365.565 
  243.607,365.565 244.616,365.565 245.624,365.565 246.632,365.565 247.64,365.565 248.648,365.565 249.657,365.565 250.665,365.565 251.673,365.565 252.681,365.565 
  253.689,365.565 254.697,365.565 255.706,365.565 256.714,365.565 257.722,365.565 258.73,365.565 259.738,365.565 260.747,365.565 261.755,365.565 262.763,365.565 
  263.771,365.565 264.779,365.565 265.788,365.565 266.796,365.565 267.804,365.565 268.812,365.565 269.82,365.565 270.829,365.565 271.837,22.1145 272.845,22.1145 
  273.853,22.1145 274.861,22.1145 275.87,22.1145 276.878,22.1145 277.886,22.1145 278.894,22.1145 279.902,22.1145 280.911,22.1145 281.919,22.1145 282.927,22.1145 
  283.935,22.1145 284.943,22.1145 285.952,22.1145 286.96,22.1145 287.968,22.1145 288.976,22.1145 289.984,22.1145 290.993,22.1145 292.001,22.1145 293.009,22.1145 
  294.017,22.1145 295.025,22.1145 296.034,22.1145 297.042,22.1145 298.05,22.1145 299.058,22.1145 300.066,22.1145 301.075,22.1145 302.083,22.1145 303.091,22.1145 
  304.099,22.1145 305.107,22.1145 306.116,22.1145 307.124,22.1145 308.132,22.1145 309.14,22.1145 310.148,22.1145 311.157,22.1145 312.165,22.1145 313.173,22.1145 
  314.181,365.565 315.189,365.565 316.198,365.565 317.206,365.565 318.214,365.565 319.222,365.565 320.23,365.565 321.239,365.565 322.247,365.565 323.255,365.565 
  324.263,365.565 325.271,365.565 326.279,365.565 327.288,365.565 328.296,365.565 329.304,365.565 330.312,365.565 331.32,365.565 332.329,365.565 333.337,365.565 
  334.345,365.565 335.353,365.565 336.361,365.565 337.37,365.565 338.378,365.565 339.386,365.565 340.394,365.565 341.402,365.565 342.411,365.565 343.419,365.565 
  344.427,365.565 345.435,365.565 346.443,365.565 347.452,365.565 348.46,365.565 349.468,365.565 350.476,365.565 351.484,365.565 352.493,365.565 353.501,365.565 
  354.509,365.565 355.517,365.565 356.525,365.565 357.534,365.565 358.542,365.565 359.55,365.565 360.558,365.565 361.566,365.565 362.575,365.565 363.583,365.565 
  364.591,365.565 365.599,365.565 366.607,365.565 367.616,365.565 368.624,365.565 369.632,365.565 370.64,365.565 371.648,365.565 372.657,365.565 373.665,365.565 
  374.673,365.565 375.681,365.565 376.689,365.565 377.698,365.565 378.706,365.565 379.714,365.565 380.722,365.565 381.73,365.565 382.739,365.565 383.747,365.565 
  384.755,365.565 385.763,365.565 386.771,365.565 387.78,365.565 388.788,365.565 389.796,365.565 390.804,365.565 391.812,365.565 392.821,365.565 393.829,365.565 
  394.837,365.565 395.845,365.565 396.853,365.565 397.861,365.565 398.87,365.565 399.878,365.565 400.886,365.565 401.894,365.565 402.902,365.565 403.911,365.565 
  404.919,365.565 405.927,365.565 406.935,365.565 407.943,365.565 408.952,365.565 409.96,365.565 410.968,365.565 411.976,365.565 412.984,365.565 413.993,365.565 
  415.001,365.565 416.009,365.565 417.017,365.565 418.025,365.565 419.034,365.565 420.042,365.565 421.05,365.565 422.058,365.565 423.066,365.565 424.075,365.565 
  425.083,365.565 426.091,365.565 427.099,365.565 428.107,365.565 429.116,365.565 430.124,365.565 431.132,365.565 432.14,365.565 433.148,365.565 434.157,365.565 
  435.165,365.565 436.173,365.565 437.181,365.565 438.189,365.565 439.198,365.565 440.206,22.1145 441.214,22.1145 442.222,22.1145 443.23,22.1145 444.239,22.1145 
  445.247,22.1145 446.255,22.1145 447.263,22.1145 448.271,22.1145 449.28,22.1145 450.288,22.1145 451.296,22.1145 452.304,22.1145 453.312,22.1145 454.321,22.1145 
  455.329,22.1145 456.337,22.1145 457.345,22.1145 458.353,22.1145 459.362,22.1145 460.37,22.1145 461.378,22.1145 462.386,22.1145 463.394,22.1145 464.403,22.1145 
  465.411,22.1145 466.419,22.1145 467.427,22.1145 468.435,22.1145 469.444,22.1145 470.452,22.1145 471.46,22.1145 472.468,22.1145 473.476,22.1145 474.484,22.1145 
  475.493,22.1145 476.501,22.1145 477.509,22.1145 478.517,22.1145 479.525,22.1145 480.534,22.1145 481.542,365.565 482.55,365.565 483.558,365.565 484.566,365.565 
  485.575,365.565 486.583,365.565 487.591,365.565 488.599,365.565 489.607,365.565 490.616,365.565 491.624,365.565 492.632,365.565 493.64,365.565 494.648,365.565 
  495.657,365.565 496.665,365.565 497.673,365.565 498.681,365.565 499.689,365.565 500.698,365.565 501.706,365.565 502.714,365.565 503.722,365.565 504.73,365.565 
  505.739,365.565 506.747,365.565 507.755,365.565 508.763,365.565 509.771,365.565 510.78,365.565 511.788,365.565 512.796,365.565 513.804,365.565 514.812,365.565 
  515.821,365.565 516.829,365.565 517.837,365.565 518.845,365.565 519.853,365.565 520.862,365.565 521.87,365.565 522.878,365.565 523.886,365.565 524.894,365.565 
  525.903,365.565 526.911,365.565 527.919,365.565 528.927,365.565 529.935,365.565 530.944,365.565 531.952,365.565 532.96,365.565 533.968,365.565 534.976,365.565 
  535.985,365.565 536.993,365.565 538.001,365.565 539.009,365.565 540.017,365.565 541.026,365.565 542.034,365.565 543.042,365.565 544.05,365.565 545.058,365.565 
  546.066,365.565 547.075,365.565 548.083,365.565 549.091,365.565 550.099,365.565 551.107,365.565 552.116,365.565 553.124,365.565 554.132,365.565 555.14,365.565 
  556.148,365.565 557.157,365.565 558.165,365.565 559.173,365.565 560.181,365.565 561.189,365.565 562.198,365.565 563.206,365.565 564.214,365.565 565.222,365.565 
  
  "/>
<polyline clip-path="url(#clip9402)" style="stroke:#e26f46; stroke-width:1; stroke-opacity:1; fill:none" points="
  62.1318,365.565 63.14,365.565 64.1482,365.565 65.1564,365.565 66.1646,365.565 67.1728,365.565 68.181,365.565 69.1892,365.565 70.1974,365.565 71.2056,365.565 
  72.2138,365.565 73.222,365.565 74.2302,365.565 75.2384,365.565 76.2466,365.565 77.2548,365.565 78.263,365.565 79.2712,365.565 80.2794,365.565 81.2876,365.565 
  82.2958,365.565 83.304,365.565 84.3121,365.565 85.3203,365.565 86.3285,365.565 87.3367,365.565 88.3449,365.565 89.3531,365.565 90.3613,365.565 91.3695,365.565 
  92.3777,365.565 93.3859,365.565 94.3941,365.565 95.4023,365.565 96.4105,365.565 97.4187,365.565 98.4269,365.565 99.4351,365.565 100.443,365.565 101.452,365.565 
  102.46,365.565 103.468,365.565 104.476,362.124 105.484,353.864 106.492,345.605 107.501,337.346 108.509,329.086 109.517,320.827 110.525,312.568 111.533,304.308 
  112.542,296.049 113.55,287.79 114.558,279.53 115.566,271.271 116.574,263.012 117.583,254.752 118.591,246.493 119.599,238.234 120.607,229.974 121.615,221.715 
  122.624,213.456 123.632,205.196 124.64,196.937 125.648,188.678 126.656,180.418 127.665,172.159 128.673,163.9 129.681,155.64 130.689,147.381 131.697,139.122 
  132.706,130.862 133.714,122.603 134.722,114.344 135.73,106.084 136.738,97.8251 137.747,89.5658 138.755,81.3064 139.763,73.0471 140.771,64.7878 141.779,56.5284 
  142.788,48.2691 143.796,40.0098 144.804,31.7504 145.812,23.4911 146.82,28.9973 147.829,37.2567 148.837,45.516 149.845,53.7753 150.853,62.0347 151.861,70.294 
  152.87,78.5533 153.878,86.8127 154.886,95.072 155.894,103.331 156.902,111.591 157.911,119.85 158.919,128.109 159.927,136.369 160.935,144.628 161.943,152.887 
  162.952,161.147 163.96,169.406 164.968,177.665 165.976,185.925 166.984,194.184 167.993,202.443 169.001,210.703 170.009,218.962 171.017,227.221 172.025,235.481 
  173.034,243.74 174.042,251.999 175.05,260.259 176.058,268.518 177.066,276.777 178.074,285.037 179.083,293.296 180.091,301.555 181.099,309.815 182.107,318.074 
  183.115,326.333 184.124,334.593 185.132,342.852 186.14,351.111 187.148,359.371 188.156,365.565 189.165,365.565 190.173,365.565 191.181,365.565 192.189,365.565 
  193.197,365.565 194.206,365.565 195.214,365.565 196.222,365.565 197.23,365.565 198.238,365.565 199.247,365.565 200.255,365.565 201.263,365.565 202.271,365.565 
  203.279,365.565 204.288,365.565 205.296,365.565 206.304,365.565 207.312,365.565 208.32,365.565 209.329,365.565 210.337,365.565 211.345,365.565 212.353,365.565 
  213.361,365.565 214.37,365.565 215.378,365.565 216.386,365.565 217.394,365.565 218.402,365.565 219.411,365.565 220.419,365.565 221.427,365.565 222.435,365.565 
  223.443,365.565 224.452,365.565 225.46,365.565 226.468,365.565 227.476,365.565 228.484,365.565 229.493,365.565 230.501,365.565 231.509,365.565 232.517,365.565 
  233.525,365.565 234.534,365.565 235.542,365.565 236.55,365.565 237.558,365.565 238.566,365.565 239.575,365.565 240.583,365.565 241.591,365.565 242.599,365.565 
  243.607,365.565 244.616,365.565 245.624,365.565 246.632,365.565 247.64,365.565 248.648,365.565 249.657,365.565 250.665,365.565 251.673,365.565 252.681,365.565 
  253.689,365.565 254.697,365.565 255.706,365.565 256.714,365.565 257.722,365.565 258.73,365.565 259.738,365.565 260.747,365.565 261.755,365.565 262.763,365.565 
  263.771,365.565 264.779,365.565 265.788,365.565 266.796,365.565 267.804,365.565 268.812,365.565 269.82,365.565 270.829,365.565 271.837,364.877 272.845,356.618 
  273.853,348.358 274.861,340.099 275.87,331.84 276.878,323.58 277.886,315.321 278.894,307.062 279.902,298.802 280.911,290.543 281.919,282.284 282.927,274.024 
  283.935,265.765 284.943,257.506 285.952,249.246 286.96,240.987 287.968,232.728 288.976,224.468 289.984,216.209 290.993,207.95 292.001,199.69 293.009,191.431 
  294.017,183.172 295.025,174.912 296.034,166.653 297.042,158.394 298.05,150.134 299.058,141.875 300.066,133.616 301.075,125.356 302.083,117.097 303.091,108.838 
  304.099,100.578 305.107,92.3189 306.116,84.0595 307.124,75.8002 308.132,67.5409 309.14,59.2815 310.148,51.0222 311.157,42.7629 312.165,34.5035 313.173,26.2442 
  314.181,26.2442 315.189,34.5035 316.198,42.7629 317.206,51.0222 318.214,59.2815 319.222,67.5409 320.23,75.8002 321.239,84.0595 322.247,92.3189 323.255,100.578 
  324.263,108.838 325.271,117.097 326.279,125.356 327.288,133.616 328.296,141.875 329.304,150.134 330.312,158.394 331.32,166.653 332.329,174.912 333.337,183.172 
  334.345,191.431 335.353,199.69 336.361,207.95 337.37,216.209 338.378,224.468 339.386,232.728 340.394,240.987 341.402,249.246 342.411,257.506 343.419,265.765 
  344.427,274.024 345.435,282.284 346.443,290.543 347.452,298.802 348.46,307.062 349.468,315.321 350.476,323.58 351.484,331.84 352.493,340.099 353.501,348.358 
  354.509,356.618 355.517,364.877 356.525,365.565 357.534,365.565 358.542,365.565 359.55,365.565 360.558,365.565 361.566,365.565 362.575,365.565 363.583,365.565 
  364.591,365.565 365.599,365.565 366.607,365.565 367.616,365.565 368.624,365.565 369.632,365.565 370.64,365.565 371.648,365.565 372.657,365.565 373.665,365.565 
  374.673,365.565 375.681,365.565 376.689,365.565 377.698,365.565 378.706,365.565 379.714,365.565 380.722,365.565 381.73,365.565 382.739,365.565 383.747,365.565 
  384.755,365.565 385.763,365.565 386.771,365.565 387.78,365.565 388.788,365.565 389.796,365.565 390.804,365.565 391.812,365.565 392.821,365.565 393.829,365.565 
  394.837,365.565 395.845,365.565 396.853,365.565 397.861,365.565 398.87,365.565 399.878,365.565 400.886,365.565 401.894,365.565 402.902,365.565 403.911,365.565 
  404.919,365.565 405.927,365.565 406.935,365.565 407.943,365.565 408.952,365.565 409.96,365.565 410.968,365.565 411.976,365.565 412.984,365.565 413.993,365.565 
  415.001,365.565 416.009,365.565 417.017,365.565 418.025,365.565 419.034,365.565 420.042,365.565 421.05,365.565 422.058,365.565 423.066,365.565 424.075,365.565 
  425.083,365.565 426.091,365.565 427.099,365.565 428.107,365.565 429.116,365.565 430.124,365.565 431.132,365.565 432.14,365.565 433.148,365.565 434.157,365.565 
  435.165,365.565 436.173,365.565 437.181,365.565 438.189,365.565 439.198,365.565 440.206,359.371 441.214,351.111 442.222,342.852 443.23,334.593 444.239,326.333 
  445.247,318.074 446.255,309.815 447.263,301.555 448.271,293.296 449.28,285.037 450.288,276.777 451.296,268.518 452.304,260.259 453.312,251.999 454.321,243.74 
  455.329,235.481 456.337,227.221 457.345,218.962 458.353,210.703 459.362,202.443 460.37,194.184 461.378,185.925 462.386,177.665 463.394,169.406 464.403,161.147 
  465.411,152.887 466.419,144.628 467.427,136.369 468.435,128.109 469.444,119.85 470.452,111.591 471.46,103.331 472.468,95.072 473.476,86.8127 474.484,78.5533 
  475.493,70.294 476.501,62.0347 477.509,53.7753 478.517,45.516 479.525,37.2567 480.534,28.9973 481.542,23.4911 482.55,31.7504 483.558,40.0098 484.566,48.2691 
  485.575,56.5284 486.583,64.7878 487.591,73.0471 488.599,81.3064 489.607,89.5658 490.616,97.8251 491.624,106.084 492.632,114.344 493.64,122.603 494.648,130.862 
  495.657,139.122 496.665,147.381 497.673,155.64 498.681,163.9 499.689,172.159 500.698,180.418 501.706,188.678 502.714,196.937 503.722,205.196 504.73,213.456 
  505.739,221.715 506.747,229.974 507.755,238.234 508.763,246.493 509.771,254.752 510.78,263.012 511.788,271.271 512.796,279.53 513.804,287.79 514.812,296.049 
  515.821,304.308 516.829,312.568 517.837,320.827 518.845,329.086 519.853,337.346 520.862,345.605 521.87,353.864 522.878,362.124 523.886,365.565 524.894,365.565 
  525.903,365.565 526.911,365.565 527.919,365.565 528.927,365.565 529.935,365.565 530.944,365.565 531.952,365.565 532.96,365.565 533.968,365.565 534.976,365.565 
  535.985,365.565 536.993,365.565 538.001,365.565 539.009,365.565 540.017,365.565 541.026,365.565 542.034,365.565 543.042,365.565 544.05,365.565 545.058,365.565 
  546.066,365.565 547.075,365.565 548.083,365.565 549.091,365.565 550.099,365.565 551.107,365.565 552.116,365.565 553.124,365.565 554.132,365.565 555.14,365.565 
  556.148,365.565 557.157,365.565 558.165,365.565 559.173,365.565 560.181,365.565 561.189,365.565 562.198,365.565 563.206,365.565 564.214,365.565 565.222,365.565 
  
  "/>
<polyline clip-path="url(#clip9402)" style="stroke:#3da44d; stroke-width:1; stroke-opacity:1; fill:none" points="
  62.1318,365.565 63.14,365.565 64.1482,365.565 65.1564,365.565 66.1646,365.565 67.1728,365.565 68.181,365.565 69.1892,365.565 70.1974,365.565 71.2056,365.565 
  72.2138,365.565 73.222,365.565 74.2302,365.565 75.2384,365.565 76.2466,365.565 77.2548,365.565 78.263,365.565 79.2712,365.565 80.2794,365.565 81.2876,365.565 
  82.2958,365.565 83.304,365.565 84.3121,365.565 85.3203,365.565 86.3285,365.565 87.3367,365.565 88.3449,365.565 89.3531,365.565 90.3613,365.565 91.3695,365.565 
  92.3777,365.565 93.3859,365.565 94.3941,365.565 95.4023,365.565 96.4105,365.565 97.4187,365.565 98.4269,365.565 99.4351,365.565 100.443,365.565 101.452,365.565 
  102.46,365.565 103.468,365.565 104.476,365.548 105.484,365.366 106.492,364.985 107.501,364.406 108.509,363.628 109.517,362.651 110.525,361.476 111.533,360.102 
  112.542,358.53 113.55,356.759 114.558,354.789 115.566,352.621 116.574,350.254 117.583,347.689 118.591,344.924 119.599,341.962 120.607,338.8 121.615,335.44 
  122.624,331.882 123.632,328.124 124.64,324.168 125.648,320.014 126.656,315.661 127.665,311.109 128.673,306.359 129.681,301.41 130.689,296.262 131.697,290.916 
  132.706,285.371 133.714,279.628 134.722,273.686 135.73,267.545 136.738,261.206 137.747,254.668 138.755,247.931 139.763,240.996 140.771,233.862 141.779,226.53 
  142.788,218.999 143.796,211.269 144.804,203.341 145.812,195.214 146.82,187.095 147.829,179.365 148.837,172.033 149.845,165.098 150.853,158.56 151.861,152.419 
  152.87,146.676 153.878,141.329 154.886,136.38 155.894,131.829 156.902,127.674 157.911,123.917 158.919,120.557 159.927,117.594 160.935,115.029 161.943,112.86 
  162.952,111.089 163.96,109.715 164.968,108.739 165.976,108.16 166.984,107.978 167.993,108.193 169.001,108.805 170.009,109.815 171.017,111.222 172.025,113.026 
  173.034,115.227 174.042,117.826 175.05,120.822 176.058,124.215 177.066,128.005 178.074,132.193 179.083,136.778 180.091,141.76 181.099,147.139 182.107,152.916 
  183.115,159.089 184.124,165.66 185.132,172.629 186.14,179.994 187.148,187.757 188.156,195.898 189.165,204.009 190.173,211.921 191.181,219.634 192.189,227.148 
  193.197,234.464 194.206,241.581 195.214,248.5 196.222,255.22 197.23,261.741 198.238,268.064 199.247,274.188 200.255,280.114 201.263,285.841 202.271,291.369 
  203.279,296.699 204.288,301.83 205.296,306.762 206.304,311.496 207.312,316.031 208.32,320.368 209.329,324.506 210.337,328.445 211.345,332.186 212.353,335.728 
  213.361,339.071 214.37,342.216 215.378,345.162 216.386,347.91 217.394,350.459 218.402,352.809 219.411,354.961 220.419,356.914 221.427,358.669 222.435,360.224 
  223.443,361.582 224.452,362.74 225.46,363.7 226.468,364.462 227.476,365.024 228.484,365.389 229.493,365.554 230.501,365.565 231.509,365.565 232.517,365.565 
  233.525,365.565 234.534,365.565 235.542,365.565 236.55,365.565 237.558,365.565 238.566,365.565 239.575,365.565 240.583,365.565 241.591,365.565 242.599,365.565 
  243.607,365.565 244.616,365.565 245.624,365.565 246.632,365.565 247.64,365.565 248.648,365.565 249.657,365.565 250.665,365.565 251.673,365.565 252.681,365.565 
  253.689,365.565 254.697,365.565 255.706,365.565 256.714,365.565 257.722,365.565 258.73,365.565 259.738,365.565 260.747,365.565 261.755,365.565 262.763,365.565 
  263.771,365.565 264.779,365.565 265.788,365.565 266.796,365.565 267.804,365.565 268.812,365.565 269.82,365.565 270.829,365.565 271.837,365.564 272.845,365.449 
  273.853,365.134 274.861,364.621 275.87,363.909 276.878,362.999 277.886,361.89 278.894,360.582 279.902,359.076 280.911,357.371 281.919,355.468 282.927,353.366 
  283.935,351.065 284.943,348.566 285.952,345.868 286.96,342.971 287.968,339.876 288.976,336.582 289.984,333.09 290.993,329.399 292.001,325.509 293.009,321.421 
  294.017,317.134 295.025,312.648 296.034,307.964 297.042,303.082 298.05,298 299.058,292.72 300.066,287.241 301.075,281.564 302.083,275.688 303.091,269.614 
  304.099,263.341 305.107,256.869 306.116,250.199 307.124,243.33 308.132,236.262 309.14,228.996 310.148,221.531 311.157,213.867 312.165,206.005 313.173,197.945 
  314.181,189.76 315.189,181.898 316.198,174.433 317.206,167.365 318.214,160.695 319.222,154.422 320.23,148.546 321.239,143.067 322.247,137.986 323.255,133.302 
  324.263,129.015 325.271,125.125 326.279,121.633 327.288,118.538 328.296,115.84 329.304,113.539 330.312,111.635 331.32,110.129 332.329,109.02 333.337,108.309 
  334.345,107.994 335.353,108.077 336.361,108.557 337.37,109.434 338.378,110.709 339.386,112.38 340.394,114.449 341.402,116.915 342.411,119.779 343.419,123.04 
  344.427,126.698 345.435,130.753 346.443,135.205 347.452,140.055 348.46,145.302 349.468,150.946 350.476,156.987 351.484,163.426 352.493,170.262 353.501,177.495 
  354.509,185.125 355.517,193.153 356.525,201.327 357.534,209.305 358.542,217.085 359.55,224.665 360.558,232.048 361.566,239.231 362.575,246.216 363.583,253.002 
  364.591,259.59 365.599,265.979 366.607,272.169 367.616,278.161 368.624,283.954 369.632,289.548 370.64,294.944 371.648,300.142 372.657,305.14 373.665,309.94 
  374.673,314.542 375.681,318.944 376.689,323.148 377.698,327.154 378.706,330.961 379.714,334.569 380.722,337.979 381.73,341.19 382.739,344.202 383.747,347.016 
  384.755,349.631 385.763,352.048 386.771,354.266 387.78,356.285 388.788,358.106 389.796,359.728 390.804,361.151 391.812,362.376 392.821,363.402 393.829,364.23 
  394.837,364.859 395.845,365.289 396.853,365.521 397.861,365.565 398.87,365.565 399.878,365.565 400.886,365.565 401.894,365.565 402.902,365.565 403.911,365.565 
  404.919,365.565 405.927,365.565 406.935,365.565 407.943,365.565 408.952,365.565 409.96,365.565 410.968,365.565 411.976,365.565 412.984,365.565 413.993,365.565 
  415.001,365.565 416.009,365.565 417.017,365.565 418.025,365.565 419.034,365.565 420.042,365.565 421.05,365.565 422.058,365.565 423.066,365.565 424.075,365.565 
  425.083,365.565 426.091,365.565 427.099,365.565 428.107,365.565 429.116,365.565 430.124,365.565 431.132,365.565 432.14,365.565 433.148,365.565 434.157,365.565 
  435.165,365.565 436.173,365.565 437.181,365.565 438.189,365.565 439.198,365.565 440.206,365.509 441.214,365.261 442.222,364.814 443.23,364.169 444.239,363.324 
  445.247,362.282 446.255,361.04 447.263,359.6 448.271,357.962 449.28,356.124 450.288,354.089 451.296,351.854 452.304,349.421 453.312,346.789 454.321,343.959 
  455.329,340.93 456.337,337.702 457.345,334.276 458.353,330.651 459.362,326.828 460.37,322.806 461.378,318.585 462.386,314.166 463.394,309.548 464.403,304.731 
  465.411,299.716 466.419,294.502 467.427,289.09 468.435,283.479 469.444,277.669 470.452,271.661 471.46,265.454 472.468,259.048 473.476,252.444 474.484,245.641 
  475.493,238.64 476.501,231.44 477.509,224.041 478.517,216.444 479.525,208.648 480.534,200.654 481.542,192.469 482.55,184.474 483.558,176.877 484.566,169.677 
  485.575,162.874 486.583,156.469 487.591,150.46 488.599,144.849 489.607,139.636 490.616,134.819 491.624,130.4 492.632,126.378 493.64,122.753 494.648,119.525 
  495.657,116.695 496.665,114.262 497.673,112.226 498.681,110.587 499.689,109.346 500.698,108.502 501.706,108.055 502.714,108.005 503.722,108.353 504.73,109.098 
  505.739,110.24 506.747,111.779 507.755,113.715 508.763,116.049 509.771,118.78 510.78,121.909 511.788,125.434 512.796,129.357 513.804,133.677 514.812,138.394 
  515.821,143.509 516.829,149.02 517.837,154.929 518.845,161.236 519.853,167.939 520.862,175.04 521.87,182.538 522.878,190.433 523.886,198.624 524.894,206.668 
  525.903,214.514 526.911,222.161 527.919,229.609 528.927,236.859 529.935,243.91 530.944,250.762 531.952,257.416 532.96,263.871 533.968,270.128 534.976,276.186 
  535.985,282.045 536.993,287.706 538.001,293.168 539.009,298.431 540.017,303.496 541.026,308.362 542.034,313.03 543.042,317.499 544.05,321.769 545.058,325.841 
  546.066,329.714 547.075,333.389 548.083,336.864 549.091,340.142 550.099,343.22 551.107,346.1 552.116,348.782 553.124,351.264 554.132,353.549 555.14,355.634 
  556.148,357.521 557.157,359.209 558.165,360.699 559.173,361.99 560.181,363.082 561.189,363.976 562.198,364.671 563.206,365.168 564.214,365.466 565.222,365.565 
  
  "/>
<polyline clip-path="url(#clip9402)" style="stroke:#c271d2; stroke-width:1; stroke-opacity:1; fill:none" points="
  62.1318,308.323 63.14,312.355 64.1482,316.192 65.1564,319.84 66.1646,323.304 67.1728,326.588 68.181,329.698 69.1892,332.638 70.1974,335.412 71.2056,338.027 
  72.2138,340.485 73.222,342.793 74.2302,344.954 75.2384,346.975 76.2466,348.858 77.2548,350.61 78.263,352.235 79.2712,353.738 80.2794,355.123 81.2876,356.396 
  82.2958,357.561 83.304,358.623 84.3121,359.586 85.3203,360.456 86.3285,361.237 87.3367,361.935 88.3449,362.553 89.3531,363.096 90.3613,363.57 91.3695,363.979 
  92.3777,364.328 93.3859,364.621 94.3941,364.865 95.4023,365.062 96.4105,365.218 97.4187,365.338 98.4269,365.427 99.4351,365.489 100.443,365.529 101.452,365.551 
  102.46,365.562 103.468,365.565 104.476,365.565 105.484,365.563 106.492,365.554 107.501,365.533 108.509,365.497 109.517,365.439 110.525,365.355 111.533,365.24 
  112.542,365.091 113.55,364.9 114.558,364.665 115.566,364.381 116.574,364.041 117.583,363.643 118.591,363.18 119.599,362.648 120.607,362.043 121.615,361.359 
  122.624,360.593 123.632,359.738 124.64,358.79 125.648,357.745 126.656,356.598 127.665,355.343 128.673,353.977 129.681,352.494 130.689,350.89 131.697,349.159 
  132.706,347.298 133.714,345.301 134.722,343.163 135.73,340.88 136.738,338.447 137.747,335.859 138.755,333.112 139.763,330.2 140.771,327.119 141.779,323.864 
  142.788,320.43 143.796,316.813 144.804,313.007 145.812,309.009 146.82,304.814 147.829,300.433 148.837,295.88 149.845,291.168 150.853,286.313 151.861,281.328 
  152.87,276.229 153.878,271.028 154.886,265.742 155.894,260.383 156.902,254.967 157.911,249.507 158.919,244.018 159.927,238.514 160.935,233.01 161.943,227.52 
  162.952,222.058 163.96,216.639 164.968,211.277 165.976,205.986 166.984,200.78 167.993,195.674 169.001,190.683 170.009,185.82 171.017,181.1 172.025,176.538 
  173.034,172.147 174.042,167.941 175.05,163.936 176.058,160.146 177.066,156.584 178.074,153.266 179.083,150.205 180.091,147.416 181.099,144.913 182.107,142.711 
  183.115,140.824 184.124,139.265 185.132,138.05 186.14,137.194 187.148,136.709 188.156,136.61 189.165,136.904 190.173,137.576 191.181,138.614 192.189,140.002 
  193.197,141.727 194.206,143.774 195.214,146.128 196.222,148.776 197.23,151.702 198.238,154.894 199.247,158.336 200.255,162.013 201.263,165.913 202.271,170.02 
  203.279,174.32 204.288,178.799 205.296,183.442 206.304,188.235 207.312,193.164 208.32,198.214 209.329,203.371 210.337,208.621 211.345,213.95 212.353,219.342 
  213.361,224.785 214.37,230.262 215.378,235.761 216.386,241.267 217.394,246.765 218.402,252.241 219.411,257.681 220.419,263.07 221.427,268.395 222.435,273.64 
  223.443,278.792 224.452,283.836 225.46,288.758 226.468,293.543 227.476,298.177 228.484,302.646 229.493,306.936 230.501,311.033 231.509,314.934 232.517,318.645 
  233.525,322.17 234.534,325.513 235.542,328.681 236.55,331.677 237.558,334.506 238.566,337.173 239.575,339.683 240.583,342.04 241.591,344.25 242.599,346.317 
  243.607,348.245 244.616,350.041 245.624,351.707 246.632,353.25 247.64,354.674 248.648,355.984 249.657,357.184 250.665,358.28 251.673,359.276 252.681,360.176 
  253.689,360.987 254.697,361.711 255.706,362.355 256.714,362.923 257.722,363.42 258.73,363.85 259.738,364.218 260.747,364.529 261.755,364.789 262.763,365.001 
  263.771,365.17 264.779,365.302 265.788,365.4 266.796,365.471 267.804,365.517 268.812,365.545 269.82,365.56 270.829,365.565 271.837,365.565 272.845,365.564 
  273.853,365.558 274.861,365.542 275.87,365.511 276.878,365.461 277.886,365.386 278.894,365.282 279.902,365.145 280.911,364.969 281.919,364.749 282.927,364.481 
  283.935,364.161 284.943,363.782 285.952,363.341 286.96,362.833 287.968,362.253 288.976,361.596 289.984,360.858 290.993,360.033 292.001,359.117 293.009,358.105 
  294.017,356.992 295.025,355.774 296.034,354.445 297.042,353.002 298.05,351.438 299.058,349.75 300.066,347.933 301.075,345.982 302.083,343.891 303.091,341.657 
  304.099,339.275 305.107,336.739 306.116,334.046 307.124,331.189 308.132,328.165 309.14,324.968 310.148,321.595 311.157,318.039 312.165,314.297 313.173,310.363 
  314.181,306.234 315.189,301.914 316.198,297.416 317.206,292.755 318.214,287.946 319.222,283.003 320.23,277.941 321.239,272.772 322.247,267.513 323.255,262.176 
  324.263,256.778 325.271,251.331 326.279,245.85 327.288,240.349 328.296,234.844 329.304,229.348 330.312,223.875 331.32,218.44 332.329,213.057 333.337,207.74 
  334.345,202.505 335.353,197.364 336.361,192.333 337.37,187.426 338.378,182.657 339.386,178.04 340.394,173.59 341.402,169.322 342.411,165.248 343.419,161.385 
  344.427,157.745 345.435,154.344 346.443,151.196 347.452,148.315 348.46,145.715 349.468,143.411 350.476,141.417 351.484,139.747 352.493,138.416 353.501,137.439 
  354.509,136.828 355.517,136.599 356.525,136.763 357.534,137.311 358.542,138.228 359.55,139.501 360.558,141.116 361.566,143.057 362.575,145.31 363.583,147.861 
  364.591,150.697 365.599,153.802 366.607,157.161 367.616,160.762 368.624,164.589 369.632,168.629 370.64,172.866 371.648,177.287 372.657,181.877 373.665,186.621 
  374.673,191.506 375.681,196.518 376.689,201.641 377.698,206.862 378.706,212.166 379.714,217.539 380.722,222.966 381.73,228.433 382.739,233.927 383.747,239.432 
  384.755,244.934 385.763,250.419 386.771,255.873 387.78,261.281 388.788,266.628 389.796,271.902 390.804,277.086 391.812,282.168 392.821,287.132 393.829,291.964 
  394.837,296.65 395.845,301.176 396.853,305.527 397.861,309.689 398.87,313.655 399.878,317.429 400.886,321.015 401.894,324.419 402.902,327.644 403.911,330.697 
  404.919,333.581 405.927,336.301 406.935,338.863 407.943,341.271 408.952,343.529 409.96,345.643 410.968,347.617 411.976,349.457 412.984,351.166 413.993,352.75 
  415.001,354.213 416.009,355.56 417.017,356.796 418.025,357.926 419.034,358.955 420.042,359.886 421.05,360.726 422.058,361.479 423.066,362.149 424.075,362.742 
  425.083,363.262 426.091,363.713 427.099,364.102 428.107,364.432 429.116,364.708 430.124,364.935 431.132,365.118 432.14,365.262 433.148,365.371 434.157,365.45 
  435.165,365.504 436.173,365.538 437.181,365.556 438.189,365.564 439.198,365.565 440.206,365.565 441.214,365.561 442.222,365.549 443.23,365.523 444.239,365.48 
  445.247,365.414 446.255,365.32 447.263,365.195 448.271,365.032 449.28,364.827 450.288,364.576 451.296,364.274 452.304,363.915 453.312,363.496 454.321,363.011 
  455.329,362.455 456.337,361.824 457.345,361.113 458.353,360.318 459.362,359.432 460.37,358.453 461.378,357.374 462.386,356.192 463.394,354.901 464.403,353.496 
  465.411,351.973 466.419,350.327 467.427,348.554 468.435,346.647 469.444,344.604 470.452,342.418 471.46,340.086 472.468,337.602 473.476,334.961 474.484,332.16 
  475.493,329.192 476.501,326.053 477.509,322.739 478.517,319.245 479.525,315.566 480.534,311.696 481.542,307.632 482.55,303.374 483.558,298.934 484.566,294.326 
  485.575,289.565 486.583,284.665 487.591,279.641 488.599,274.506 489.607,269.275 490.616,263.963 491.624,258.583 492.632,253.151 493.64,247.68 494.648,242.184 
  495.657,236.679 496.665,231.178 497.673,225.696 498.681,220.246 499.689,214.845 500.698,209.504 501.706,204.24 502.714,199.066 503.722,193.997 504.73,189.047 
  505.739,184.23 506.747,179.561 507.755,175.054 508.763,170.724 509.771,166.583 510.78,162.648 511.788,158.933 512.796,155.45 513.804,152.216 514.812,149.245 
  515.821,146.549 516.829,144.145 517.837,142.046 518.845,140.267 519.853,138.821 520.862,137.724 521.87,136.99 522.878,136.632 523.886,136.665 524.894,137.087 
  525.903,137.882 526.911,139.039 527.919,140.541 528.927,142.374 529.935,144.525 530.944,146.979 531.952,149.721 532.96,152.738 533.968,156.014 534.976,159.536 
  535.985,163.289 536.993,167.26 538.001,171.433 539.009,175.794 540.017,180.329 541.026,185.023 542.034,189.863 543.042,194.834 544.05,199.922 545.058,205.112 
  546.066,210.389 547.075,215.741 548.083,221.152 549.091,226.607 550.099,232.094 551.107,237.596 552.116,243.101 553.124,248.594 554.132,254.059 555.14,259.484 
  556.148,264.853 557.157,270.153 558.165,275.369 559.173,280.486 560.181,285.491 561.189,290.369 562.198,295.105 563.206,299.686 564.214,304.097 565.222,308.323 
  
  "/>
<polyline clip-path="url(#clip9402)" style="stroke:#ac8d18; stroke-width:1; stroke-opacity:1; fill:none" points="
  62.1318,208.15 63.14,212.327 64.1482,216.589 65.1564,220.923 66.1646,225.316 67.1728,229.753 68.181,234.225 69.1892,238.718 70.1974,243.221 71.2056,247.724 
  72.2138,252.216 73.222,256.686 74.2302,261.127 75.2384,265.528 76.2466,269.88 77.2548,274.177 78.263,278.409 79.2712,282.571 80.2794,286.654 81.2876,290.654 
  82.2958,294.563 83.304,298.377 84.3121,302.091 85.3203,305.7 86.3285,309.2 87.3367,312.589 88.3449,315.861 89.3531,319.016 90.3613,322.051 91.3695,324.964 
  92.3777,327.755 93.3859,330.421 94.3941,332.963 95.4023,335.381 96.4105,337.676 97.4187,339.849 98.4269,341.901 99.4351,343.834 100.443,345.651 101.452,347.354 
  102.46,348.948 103.468,350.435 104.476,351.82 105.484,353.107 106.492,354.302 107.501,355.409 108.509,356.431 109.517,357.372 110.525,358.237 111.533,359.029 
  112.542,359.75 113.55,360.404 114.558,360.993 115.566,361.52 116.574,361.988 117.583,362.398 118.591,362.752 119.599,363.051 120.607,363.298 121.615,363.492 
  122.624,363.636 123.632,363.729 124.64,363.773 125.648,363.767 126.656,363.711 127.665,363.605 128.673,363.448 129.681,363.241 130.689,362.981 131.697,362.668 
  132.706,362.301 133.714,361.876 134.722,361.394 135.73,360.852 136.738,360.246 137.747,359.576 138.755,358.837 139.763,358.028 140.771,357.144 141.779,356.183 
  142.788,355.14 143.796,354.012 144.804,352.794 145.812,351.483 146.82,350.073 147.829,348.559 148.837,346.939 149.845,345.208 150.853,343.362 151.861,341.399 
  152.87,339.317 153.878,337.114 154.886,334.789 155.894,332.339 156.902,329.766 157.911,327.069 158.919,324.248 159.927,321.304 160.935,318.239 161.943,315.054 
  162.952,311.752 163.96,308.336 164.968,304.808 165.976,301.172 166.984,297.433 167.993,293.594 169.001,289.662 170.009,285.641 171.017,281.537 172.025,277.357 
  173.034,273.108 174.042,268.797 175.05,264.432 176.058,260.02 177.066,255.571 178.074,251.094 179.083,246.599 180.091,242.095 181.099,237.593 182.107,233.105 
  183.115,228.64 184.124,224.213 185.132,219.834 186.14,215.517 187.148,211.274 188.156,207.121 189.165,203.07 190.173,199.136 191.181,195.332 192.189,191.67 
  193.197,188.162 194.206,184.819 195.214,181.651 196.222,178.668 197.23,175.879 198.238,173.293 199.247,170.916 200.255,168.757 201.263,166.82 202.271,165.112 
  203.279,163.638 204.288,162.401 205.296,161.405 206.304,160.653 207.312,160.147 208.32,159.889 209.329,159.879 210.337,160.116 211.345,160.602 212.353,161.333 
  213.361,162.309 214.37,163.526 215.378,164.98 216.386,166.669 217.394,168.587 218.402,170.728 219.411,173.087 220.419,175.656 221.427,178.428 222.435,181.395 
  223.443,184.548 224.452,187.877 225.46,191.372 226.468,195.021 227.476,198.814 228.484,202.738 229.493,206.779 230.501,210.925 231.509,215.16 232.517,219.472 
  233.525,223.846 234.534,228.27 235.542,232.731 236.55,237.219 237.558,241.72 238.566,246.224 239.575,250.72 240.583,255.199 241.591,259.651 242.599,264.066 
  243.607,268.435 244.616,272.751 245.624,277.006 246.632,281.192 247.64,285.302 248.648,289.33 249.657,293.27 250.665,297.117 251.673,300.864 252.681,304.509 
  253.689,308.046 254.697,311.472 255.706,314.784 256.714,317.978 257.722,321.053 258.73,324.007 259.738,326.838 260.747,329.546 261.755,332.13 262.763,334.589 
  263.771,336.925 264.779,339.138 265.788,341.23 266.796,343.203 267.804,345.058 268.812,346.799 269.82,348.429 270.829,349.951 271.837,351.369 272.845,352.689 
  273.853,353.914 274.861,355.05 275.87,356.099 276.878,357.067 277.886,357.957 278.894,358.773 279.902,359.517 280.911,360.193 281.919,360.804 282.927,361.351 
  283.935,361.839 284.943,362.267 285.952,362.64 286.96,362.957 287.968,363.221 288.976,363.433 289.984,363.594 290.993,363.704 292.001,363.764 293.009,363.774 
  294.017,363.735 295.025,363.646 296.034,363.506 297.042,363.316 298.05,363.074 299.058,362.779 300.066,362.429 301.075,362.024 302.083,361.562 303.091,361.039 
  304.099,360.455 305.107,359.807 306.116,359.091 307.124,358.306 308.132,357.447 309.14,356.512 310.148,355.497 311.157,354.398 312.165,353.21 313.173,351.931 
  314.181,350.554 315.189,349.076 316.198,347.491 317.206,345.797 318.214,343.99 319.222,342.067 320.23,340.025 321.239,337.862 322.247,335.577 323.255,333.169 
  324.263,330.638 325.271,327.982 326.279,325.202 327.288,322.299 328.296,319.274 329.304,316.129 330.312,312.866 331.32,309.487 332.329,305.996 333.337,302.396 
  334.345,298.69 335.353,294.885 336.361,290.983 337.37,286.991 338.378,282.914 339.386,278.759 340.394,274.532 341.402,270.24 342.411,265.892 343.419,261.495 
  344.427,257.058 345.435,252.589 346.443,248.099 347.452,243.597 348.46,239.093 349.468,234.599 350.476,230.125 351.484,225.684 352.493,221.287 353.501,216.948 
  354.509,212.679 355.517,208.495 356.525,204.408 357.534,200.434 358.542,196.585 359.55,192.874 360.558,189.314 361.566,185.914 362.575,182.687 363.583,179.641 
  364.591,176.787 365.599,174.132 366.607,171.685 367.616,169.452 368.624,167.441 369.632,165.656 370.64,164.103 371.648,162.787 372.657,161.71 373.665,160.877 
  374.673,160.289 375.681,159.948 376.689,159.854 377.698,160.01 378.706,160.413 379.714,161.062 380.722,161.957 381.73,163.093 382.739,164.469 383.747,166.081 
  384.755,167.922 385.763,169.99 386.771,172.277 387.78,174.777 388.788,177.482 389.796,180.385 390.804,183.477 391.812,186.748 392.821,190.189 393.829,193.788 
  394.837,197.535 395.845,201.416 396.853,205.42 397.861,209.532 398.87,213.739 399.878,218.027 400.886,222.381 401.894,226.79 402.902,231.241 403.911,235.721 
  404.919,240.218 405.927,244.723 406.935,249.223 407.943,253.709 408.952,258.17 409.96,262.599 410.968,266.984 411.976,271.319 412.984,275.595 413.993,279.805 
  415.001,283.941 416.009,287.997 417.017,291.967 418.025,295.845 419.034,299.626 420.042,303.306 421.05,306.879 422.058,310.342 423.066,313.693 424.075,316.926 
  425.083,320.042 426.091,323.036 427.099,325.908 428.107,328.657 429.116,331.282 430.124,333.783 431.132,336.16 432.14,338.414 433.148,340.546 434.157,342.559 
  435.165,344.453 436.173,346.231 437.181,347.898 438.189,349.455 439.198,350.907 440.206,352.26 441.214,353.516 442.222,354.681 443.23,355.759 444.239,356.753 
  445.247,357.669 446.255,358.509 447.263,359.277 448.271,359.975 449.28,360.607 450.288,361.176 451.296,361.683 452.304,362.131 453.312,362.522 454.321,362.857 
  455.329,363.139 456.337,363.368 457.345,363.546 458.353,363.673 459.362,363.749 460.37,363.776 461.378,363.754 462.386,363.681 463.394,363.558 464.403,363.385 
  465.411,363.16 466.419,362.883 467.427,362.552 468.435,362.165 469.444,361.722 470.452,361.22 471.46,360.657 472.468,360.03 473.476,359.337 474.484,358.576 
  475.493,357.742 476.501,356.833 477.509,355.845 478.517,354.774 479.525,353.616 480.534,352.368 481.542,351.024 482.55,349.58 483.558,348.031 484.566,346.374 
  485.575,344.605 486.583,342.721 487.591,340.719 488.599,338.597 489.607,336.353 490.616,333.986 491.624,331.495 492.632,328.881 493.64,326.142 494.648,323.28 
  495.657,320.296 496.665,317.191 497.673,313.966 498.681,310.626 499.689,307.172 500.698,303.608 501.706,299.937 502.714,296.164 503.722,292.294 504.73,288.331 
  505.739,284.282 506.747,280.152 507.755,275.948 508.763,271.678 509.771,267.347 510.78,262.966 511.788,258.541 512.796,254.082 513.804,249.597 514.812,245.098 
  515.821,240.594 516.829,236.095 517.837,231.613 518.845,227.16 519.853,222.747 520.862,218.387 521.87,214.094 522.878,209.879 523.886,205.759 524.894,201.745 
  525.903,197.853 526.911,194.095 527.919,190.483 528.927,187.029 529.935,183.743 530.944,180.636 531.952,177.717 532.96,174.994 533.968,172.477 534.976,170.172 
  535.985,168.086 536.993,166.225 538.001,164.595 539.009,163.199 540.017,162.042 541.026,161.127 542.034,160.457 543.042,160.034 544.05,159.858 545.058,159.93 
  546.066,160.251 547.075,160.818 548.083,161.631 549.091,162.688 550.099,163.984 551.107,165.518 552.116,167.283 553.124,169.276 554.132,171.491 555.14,173.92 
  556.148,176.558 557.157,179.396 558.165,182.426 559.173,185.639 560.181,189.024 561.189,192.572 562.198,196.27 563.206,200.108 564.214,204.073 565.222,208.15 
  
  "/>
<polyline clip-path="url(#clip9402)" style="stroke:#00a9ad; stroke-width:1; stroke-opacity:1; fill:none" points="
  62.1318,176.667 63.14,176.767 64.1482,177.064 65.1564,177.559 66.1646,178.249 67.1728,179.133 68.181,180.207 69.1892,181.468 70.1974,182.913 71.2056,184.537 
  72.2138,186.334 73.222,188.301 74.2302,190.43 75.2384,192.716 76.2466,195.153 77.2548,197.733 78.263,200.45 79.2712,203.297 80.2794,206.264 81.2876,209.346 
  82.2958,212.534 83.304,215.819 84.3121,219.193 85.3203,222.648 86.3285,226.176 87.3367,229.767 88.3449,233.414 89.3531,237.107 90.3613,240.838 91.3695,244.599 
  92.3777,248.38 93.3859,252.175 94.3941,255.974 95.4023,259.77 96.4105,263.555 97.4187,267.321 98.4269,271.06 99.4351,274.767 100.443,278.434 101.452,282.054 
  102.46,285.622 103.468,289.132 104.476,292.579 105.484,295.958 106.492,299.264 107.501,302.493 108.509,305.643 109.517,308.71 110.525,311.691 111.533,314.584 
  112.542,317.386 113.55,320.097 114.558,322.715 115.566,325.239 116.574,327.668 117.583,330.002 118.591,332.24 119.599,334.382 120.607,336.429 121.615,338.381 
  122.624,340.239 123.632,342.003 124.64,343.675 125.648,345.255 126.656,346.745 127.665,348.147 128.673,349.46 129.681,350.688 130.689,351.831 131.697,352.891 
  132.706,353.869 133.714,354.768 134.722,355.588 135.73,356.332 136.738,357.001 137.747,357.596 138.755,358.118 139.763,358.57 140.771,358.951 141.779,359.264 
  142.788,359.508 143.796,359.685 144.804,359.796 145.812,359.84 146.82,359.818 147.829,359.73 148.837,359.575 149.845,359.353 150.853,359.063 151.861,358.704 
  152.87,358.276 153.878,357.778 154.886,357.207 155.894,356.563 156.902,355.845 157.911,355.05 158.919,354.177 159.927,353.226 160.935,352.193 161.943,351.078 
  162.952,349.879 163.96,348.594 164.968,347.222 165.976,345.762 166.984,344.212 167.993,342.571 169.001,340.837 170.009,339.011 171.017,337.09 172.025,335.075 
  173.034,332.964 174.042,330.758 175.05,328.457 176.058,326.059 177.066,323.567 178.074,320.98 179.083,318.3 180.091,315.528 181.099,312.665 182.107,309.713 
  183.115,306.675 184.124,303.552 185.132,300.349 186.14,297.068 187.148,293.713 188.156,290.288 189.165,286.799 190.173,283.25 191.181,279.646 192.189,275.994 
  193.197,272.3 194.206,268.57 195.214,264.812 196.222,261.033 197.23,257.24 198.238,253.441 199.247,249.644 200.255,245.857 201.263,242.089 202.271,238.347 
  203.279,234.64 204.288,230.977 205.296,227.366 206.304,223.816 207.312,220.336 208.32,216.934 209.329,213.618 210.337,210.397 211.345,207.279 212.353,204.273 
  213.361,201.385 214.37,198.624 215.378,195.997 216.386,193.512 217.394,191.175 218.402,188.993 219.411,186.971 220.419,185.117 221.427,183.435 222.435,181.93 
  223.443,180.607 224.452,179.47 225.46,178.522 226.468,177.767 227.476,177.207 228.484,176.844 229.493,176.678 230.501,176.711 231.509,176.943 232.517,177.372 
  233.525,177.997 234.534,178.817 235.542,179.828 236.55,181.027 237.558,182.411 238.566,183.976 239.575,185.716 240.583,187.627 241.591,189.702 242.599,191.937 
  243.607,194.324 244.616,196.858 245.624,199.53 246.632,202.334 247.64,205.262 248.648,208.307 249.657,211.46 250.665,214.713 251.673,218.059 252.681,221.488 
  253.689,224.992 254.697,228.563 255.706,232.193 256.714,235.871 257.722,239.591 258.73,243.342 259.738,247.118 260.747,250.909 261.755,254.708 262.763,258.506 
  263.771,262.295 264.779,266.068 265.788,269.817 266.796,273.536 267.804,277.216 268.812,280.853 269.82,284.439 270.829,287.969 271.837,291.437 272.845,294.839 
  273.853,298.17 274.861,301.425 275.87,304.602 276.878,307.697 277.886,310.707 278.894,313.629 279.902,316.462 280.911,319.204 281.919,321.853 282.927,324.408 
  283.935,326.869 284.943,329.234 285.952,331.504 286.96,333.678 287.968,335.757 288.976,337.741 289.984,339.63 290.993,341.426 292.001,343.128 293.009,344.739 
  294.017,346.259 295.025,347.689 296.034,349.032 297.042,350.288 298.05,351.459 299.058,352.546 300.066,353.552 301.075,354.477 302.083,355.323 303.091,356.093 
  304.099,356.786 305.107,357.405 306.116,357.952 307.124,358.427 308.132,358.832 309.14,359.167 310.148,359.434 311.157,359.634 312.165,359.766 313.173,359.833 
  314.181,359.833 315.189,359.766 316.198,359.634 317.206,359.434 318.214,359.167 319.222,358.832 320.23,358.427 321.239,357.952 322.247,357.405 323.255,356.786 
  324.263,356.093 325.271,355.323 326.279,354.477 327.288,353.552 328.296,352.546 329.304,351.459 330.312,350.288 331.32,349.032 332.329,347.689 333.337,346.259 
  334.345,344.739 335.353,343.128 336.361,341.426 337.37,339.63 338.378,337.741 339.386,335.757 340.394,333.678 341.402,331.504 342.411,329.234 343.419,326.869 
  344.427,324.408 345.435,321.853 346.443,319.204 347.452,316.462 348.46,313.629 349.468,310.707 350.476,307.697 351.484,304.602 352.493,301.425 353.501,298.17 
  354.509,294.839 355.517,291.437 356.525,287.969 357.534,284.439 358.542,280.853 359.55,277.216 360.558,273.536 361.566,269.817 362.575,266.068 363.583,262.295 
  364.591,258.506 365.599,254.708 366.607,250.909 367.616,247.118 368.624,243.342 369.632,239.591 370.64,235.871 371.648,232.193 372.657,228.563 373.665,224.992 
  374.673,221.488 375.681,218.059 376.689,214.713 377.698,211.46 378.706,208.307 379.714,205.262 380.722,202.334 381.73,199.53 382.739,196.858 383.747,194.324 
  384.755,191.937 385.763,189.702 386.771,187.627 387.78,185.716 388.788,183.976 389.796,182.411 390.804,181.027 391.812,179.828 392.821,178.817 393.829,177.997 
  394.837,177.372 395.845,176.943 396.853,176.711 397.861,176.678 398.87,176.844 399.878,177.207 400.886,177.767 401.894,178.522 402.902,179.47 403.911,180.607 
  404.919,181.93 405.927,183.435 406.935,185.117 407.943,186.971 408.952,188.993 409.96,191.175 410.968,193.512 411.976,195.997 412.984,198.624 413.993,201.385 
  415.001,204.273 416.009,207.279 417.017,210.397 418.025,213.618 419.034,216.934 420.042,220.336 421.05,223.816 422.058,227.366 423.066,230.977 424.075,234.64 
  425.083,238.347 426.091,242.089 427.099,245.857 428.107,249.644 429.116,253.441 430.124,257.24 431.132,261.033 432.14,264.812 433.148,268.57 434.157,272.3 
  435.165,275.994 436.173,279.646 437.181,283.25 438.189,286.799 439.198,290.288 440.206,293.713 441.214,297.068 442.222,300.349 443.23,303.552 444.239,306.675 
  445.247,309.713 446.255,312.665 447.263,315.528 448.271,318.3 449.28,320.98 450.288,323.567 451.296,326.059 452.304,328.457 453.312,330.758 454.321,332.964 
  455.329,335.075 456.337,337.09 457.345,339.011 458.353,340.837 459.362,342.571 460.37,344.212 461.378,345.762 462.386,347.222 463.394,348.594 464.403,349.879 
  465.411,351.078 466.419,352.193 467.427,353.226 468.435,354.177 469.444,355.05 470.452,355.845 471.46,356.563 472.468,357.207 473.476,357.778 474.484,358.276 
  475.493,358.704 476.501,359.063 477.509,359.353 478.517,359.575 479.525,359.73 480.534,359.818 481.542,359.84 482.55,359.796 483.558,359.685 484.566,359.508 
  485.575,359.264 486.583,358.951 487.591,358.57 488.599,358.118 489.607,357.596 490.616,357.001 491.624,356.332 492.632,355.588 493.64,354.768 494.648,353.869 
  495.657,352.891 496.665,351.831 497.673,350.688 498.681,349.46 499.689,348.147 500.698,346.745 501.706,345.255 502.714,343.675 503.722,342.003 504.73,340.239 
  505.739,338.381 506.747,336.429 507.755,334.382 508.763,332.24 509.771,330.002 510.78,327.668 511.788,325.239 512.796,322.715 513.804,320.097 514.812,317.386 
  515.821,314.584 516.829,311.691 517.837,308.71 518.845,305.643 519.853,302.493 520.862,299.264 521.87,295.958 522.878,292.579 523.886,289.132 524.894,285.622 
  525.903,282.054 526.911,278.434 527.919,274.767 528.927,271.06 529.935,267.321 530.944,263.555 531.952,259.77 532.96,255.974 533.968,252.175 534.976,248.38 
  535.985,244.599 536.993,240.838 538.001,237.107 539.009,233.414 540.017,229.767 541.026,226.176 542.034,222.648 543.042,219.193 544.05,215.819 545.058,212.534 
  546.066,209.346 547.075,206.264 548.083,203.297 549.091,200.45 550.099,197.733 551.107,195.153 552.116,192.716 553.124,190.43 554.132,188.301 555.14,186.334 
  556.148,184.537 557.157,182.913 558.165,181.468 559.173,180.207 560.181,179.133 561.189,178.249 562.198,177.559 563.206,177.064 564.214,176.767 565.222,176.667 
  
  "/>
<polyline clip-path="url(#clip9402)" style="stroke:#ed5d92; stroke-width:1; stroke-opacity:1; fill:none" points="
  62.1318,221.507 63.14,218.796 64.1482,216.174 65.1564,213.648 66.1646,211.223 67.1728,208.905 68.181,206.699 69.1892,204.611 70.1974,202.647 71.2056,200.81 
  72.2138,199.106 73.222,197.538 74.2302,196.111 75.2384,194.828 76.2466,193.692 77.2548,192.707 78.263,191.874 79.2712,191.195 80.2794,190.673 81.2876,190.309 
  82.2958,190.103 83.304,190.057 84.3121,190.17 85.3203,190.442 86.3285,190.872 87.3367,191.459 88.3449,192.202 89.3531,193.099 90.3613,194.147 91.3695,195.345 
  92.3777,196.688 93.3859,198.175 94.3941,199.8 95.4023,201.56 96.4105,203.45 97.4187,205.467 98.4269,207.604 99.4351,209.857 100.443,212.221 101.452,214.689 
  102.46,217.256 103.468,219.915 104.476,222.661 105.484,225.487 106.492,228.387 107.501,231.353 108.509,234.381 109.517,237.462 110.525,240.59 111.533,243.759 
  112.542,246.962 113.55,250.193 114.558,253.445 115.566,256.712 116.574,259.988 117.583,263.266 118.591,266.541 119.599,269.806 120.607,273.057 121.615,276.288 
  122.624,279.494 123.632,282.669 124.64,285.809 125.648,288.91 126.656,291.966 127.665,294.975 128.673,297.931 129.681,300.831 130.689,303.673 131.697,306.452 
  132.706,309.166 133.714,311.812 134.722,314.388 135.73,316.892 136.738,319.321 137.747,321.674 138.755,323.95 139.763,326.146 140.771,328.263 141.779,330.299 
  142.788,332.253 143.796,334.125 144.804,335.915 145.812,337.622 146.82,339.246 147.829,340.788 148.837,342.247 149.845,343.623 150.853,344.918 151.861,346.131 
  152.87,347.262 153.878,348.313 154.886,349.283 155.894,350.174 156.902,350.984 157.911,351.716 158.919,352.369 159.927,352.944 160.935,353.441 161.943,353.86 
  162.952,354.202 163.96,354.467 164.968,354.656 165.976,354.767 166.984,354.802 167.993,354.761 169.001,354.643 170.009,354.448 171.017,354.177 172.025,353.828 
  173.034,353.402 174.042,352.899 175.05,352.318 176.058,351.658 177.066,350.92 178.074,350.102 179.083,349.205 180.091,348.229 181.099,347.171 182.107,346.033 
  183.115,344.813 184.124,343.512 185.132,342.128 186.14,340.662 187.148,339.114 188.156,337.483 189.165,335.769 190.173,333.972 191.181,332.093 192.189,330.132 
  193.197,328.09 194.206,325.966 195.214,323.763 196.222,321.481 197.23,319.121 198.238,316.686 199.247,314.176 200.255,311.594 201.263,308.942 202.271,306.223 
  203.279,303.438 204.288,300.592 205.296,297.686 206.304,294.726 207.312,291.713 208.32,288.653 209.329,285.549 210.337,282.406 211.345,279.228 212.353,276.02 
  213.361,272.787 214.37,269.535 215.378,266.268 216.386,262.993 217.394,259.714 218.402,256.439 219.411,253.174 220.419,249.923 221.427,246.694 222.435,243.494 
  223.443,240.328 224.452,237.203 225.46,234.126 226.468,231.104 227.476,228.142 228.484,225.249 229.493,222.429 230.501,219.69 231.509,217.038 232.517,214.479 
  233.525,212.02 234.534,209.665 235.542,207.421 236.55,205.294 237.558,203.288 238.566,201.408 239.575,199.659 240.583,198.045 241.591,196.571 242.599,195.24 
  243.607,194.054 244.616,193.018 245.624,192.134 246.632,191.404 247.64,190.83 248.648,190.413 249.657,190.154 250.665,190.055 251.673,190.115 252.681,190.333 
  253.689,190.711 254.697,191.246 255.706,191.937 256.714,192.783 257.722,193.781 258.73,194.929 259.738,196.225 260.747,197.664 261.755,199.243 262.763,200.958 
  263.771,202.806 264.779,204.781 265.788,206.878 266.796,209.094 267.804,211.421 268.812,213.855 269.82,216.389 270.829,219.019 271.837,221.736 272.845,224.536 
  273.853,227.412 274.861,230.357 275.87,233.365 276.878,236.429 277.886,239.542 278.894,242.699 279.902,245.891 280.911,249.114 281.919,252.359 282.927,255.622 
  283.935,258.895 284.943,262.173 285.952,265.45 286.96,268.719 287.968,271.976 288.976,275.214 289.984,278.429 290.993,281.614 292.001,284.767 293.009,287.881 
  294.017,290.953 295.025,293.977 296.034,296.951 297.042,299.871 298.05,302.732 299.058,305.533 300.066,308.269 301.075,310.938 302.083,313.537 303.091,316.065 
  304.099,318.52 305.107,320.898 306.116,323.2 307.124,325.423 308.132,327.566 309.14,329.629 310.148,331.611 311.157,333.51 312.165,335.327 313.173,337.062 
  314.181,338.714 315.189,340.283 316.198,341.77 317.206,343.174 318.214,344.495 319.222,345.736 320.23,346.894 321.239,347.972 322.247,348.969 323.255,349.886 
  324.263,350.723 325.271,351.481 326.279,352.16 327.288,352.761 328.296,353.284 329.304,353.729 330.312,354.097 331.32,354.388 332.329,354.601 333.337,354.739 
  334.345,354.799 335.353,354.783 336.361,354.691 337.37,354.522 338.378,354.276 339.386,353.953 340.394,353.553 341.402,353.075 342.411,352.52 343.419,351.887 
  344.427,351.175 345.435,350.384 346.443,349.513 347.452,348.563 348.46,347.533 349.468,346.421 350.476,345.229 351.484,343.955 352.493,342.599 353.501,341.16 
  354.509,339.639 355.517,338.036 356.525,336.349 357.534,334.58 358.542,332.729 359.55,330.795 360.558,328.78 361.566,326.683 362.575,324.506 363.583,322.25 
  364.591,319.917 365.599,317.506 366.607,315.021 367.616,312.463 368.624,309.834 369.632,307.137 370.64,304.373 371.648,301.547 372.657,298.661 373.665,295.719 
  374.673,292.723 375.681,289.678 376.689,286.588 377.698,283.458 378.706,280.291 379.714,277.092 380.722,273.867 381.73,270.621 382.739,267.358 383.747,264.085 
  384.755,260.807 385.763,257.53 386.771,254.261 387.78,251.004 388.788,247.768 389.796,244.557 390.804,241.379 391.812,238.24 392.821,235.146 393.829,232.105 
  394.837,229.122 395.845,226.205 396.853,223.36 397.861,220.594 398.87,217.912 399.878,215.321 400.886,212.828 401.894,210.438 402.902,208.157 403.911,205.99 
  404.919,203.943 405.927,202.02 406.935,200.227 407.943,198.568 408.952,197.047 409.96,195.667 410.968,194.433 411.976,193.347 412.984,192.412 413.993,191.63 
  415.001,191.004 416.009,190.534 417.017,190.223 418.025,190.07 419.034,190.077 420.042,190.243 421.05,190.567 422.058,191.05 423.066,191.689 424.075,192.484 
  425.083,193.432 426.091,194.53 427.099,195.777 428.107,197.168 429.116,198.701 430.124,200.372 431.132,202.176 432.14,204.109 433.148,206.166 434.157,208.342 
  435.165,210.633 436.173,213.032 437.181,215.534 438.189,218.132 439.198,220.821 440.206,223.594 441.214,226.446 442.222,229.368 443.23,232.356 444.239,235.402 
  445.247,238.5 446.255,241.642 447.263,244.823 448.271,248.037 449.28,251.275 450.288,254.533 451.296,257.803 452.304,261.08 453.312,264.358 454.321,267.63 
  455.329,270.892 456.337,274.137 457.345,277.36 458.353,280.556 459.362,283.72 460.37,286.848 461.378,289.934 462.386,292.975 463.394,295.966 464.403,298.904 
  465.411,301.785 466.419,304.606 467.427,307.364 468.435,310.056 469.444,312.679 470.452,315.231 471.46,317.71 472.468,320.114 473.476,322.441 474.484,324.691 
  475.493,326.861 476.501,328.951 477.509,330.959 478.517,332.886 479.525,334.731 480.534,336.493 481.542,338.172 482.55,339.769 483.558,341.283 484.566,342.715 
  485.575,344.064 486.583,345.331 487.591,346.517 488.599,347.622 489.607,348.645 490.616,349.589 491.624,350.453 492.632,351.237 493.64,351.942 494.648,352.569 
  495.657,353.118 496.665,353.589 497.673,353.983 498.681,354.299 499.689,354.539 500.698,354.701 501.706,354.788 502.714,354.797 503.722,354.73 504.73,354.587 
  505.739,354.366 506.747,354.069 507.755,353.695 508.763,353.243 509.771,352.714 510.78,352.106 511.788,351.421 512.796,350.656 513.804,349.812 514.812,348.889 
  515.821,347.885 516.829,346.801 517.837,345.635 518.845,344.388 519.853,343.06 520.862,341.649 521.87,340.155 522.878,338.579 523.886,336.921 524.894,335.179 
  525.903,333.355 526.911,331.449 527.919,329.46 528.927,327.391 529.935,325.241 530.944,323.011 531.952,320.703 532.96,318.318 533.968,315.858 534.976,313.324 
  535.985,310.718 536.993,308.043 538.001,305.302 539.009,302.496 540.017,299.63 541.026,296.706 542.034,293.727 543.042,290.698 544.05,287.623 545.058,284.506 
  546.066,281.35 547.075,278.162 548.083,274.945 549.091,271.705 550.099,268.447 551.107,265.177 552.116,261.9 553.124,258.622 554.132,255.349 555.14,252.088 
  556.148,248.844 557.157,245.624 558.165,242.434 559.173,239.281 560.181,236.172 561.189,233.112 562.198,230.109 563.206,227.17 564.214,224.3 565.222,221.507 
  
  "/>
</svg>
