<?xml version="1.0" encoding="utf-8"?>
<svg xmlns="http://www.w3.org/2000/svg" xmlns:xlink="http://www.w3.org/1999/xlink" width="600" height="400" viewBox="0 0 2400 1600">
<defs>
  <clipPath id="clip5000">
    <rect x="0" y="0" width="2400" height="1600"/>
  </clipPath>
</defs>
<polygon clip-path="url(#clip5000)" points="
0,1600 2400,1600 2400,0 0,0 
  " fill="#ffffff" fill-rule="evenodd" fill-opacity="1"/>
<defs>
  <clipPath id="clip5001">
    <rect x="480" y="0" width="1681" height="1600"/>
  </clipPath>
</defs>
<polygon clip-path="url(#clip5000)" points="
189.504,1503.47 2321.26,1503.47 2321.26,47.2441 189.504,47.2441 
  " fill="#ffffff" fill-rule="evenodd" fill-opacity="1"/>
<defs>
  <clipPath id="clip5002">
    <rect x="189" y="47" width="2133" height="1457"/>
  </clipPath>
</defs>
<polyline clip-path="url(#clip5002)" style="stroke:#000000; stroke-width:2; stroke-opacity:0.1; fill:none" points="
  417.428,1503.47 417.428,47.2441 
  "/>
<polyline clip-path="url(#clip5002)" style="stroke:#000000; stroke-width:2; stroke-opacity:0.1; fill:none" points="
  836.405,1503.47 836.405,47.2441 
  "/>
<polyline clip-path="url(#clip5002)" style="stroke:#000000; stroke-width:2; stroke-opacity:0.1; fill:none" points="
  1255.38,1503.47 1255.38,47.2441 
  "/>
<polyline clip-path="url(#clip5002)" style="stroke:#000000; stroke-width:2; stroke-opacity:0.1; fill:none" points="
  1674.36,1503.47 1674.36,47.2441 
  "/>
<polyline clip-path="url(#clip5002)" style="stroke:#000000; stroke-width:2; stroke-opacity:0.1; fill:none" points="
  2093.34,1503.47 2093.34,47.2441 
  "/>
<polyline clip-path="url(#clip5002)" style="stroke:#000000; stroke-width:2; stroke-opacity:0.1; fill:none" points="
  189.504,1256.19 2321.26,1256.19 
  "/>
<polyline clip-path="url(#clip5002)" style="stroke:#000000; stroke-width:2; stroke-opacity:0.1; fill:none" points="
  189.504,912.74 2321.26,912.74 
  "/>
<polyline clip-path="url(#clip5002)" style="stroke:#000000; stroke-width:2; stroke-opacity:0.1; fill:none" points="
  189.504,569.289 2321.26,569.289 
  "/>
<polyline clip-path="url(#clip5002)" style="stroke:#000000; stroke-width:2; stroke-opacity:0.1; fill:none" points="
  189.504,225.838 2321.26,225.838 
  "/>
<polyline clip-path="url(#clip5000)" style="stroke:#000000; stroke-width:4; stroke-opacity:1; fill:none" points="
  189.504,1503.47 2321.26,1503.47 
  "/>
<polyline clip-path="url(#clip5000)" style="stroke:#000000; stroke-width:4; stroke-opacity:1; fill:none" points="
  189.504,1503.47 189.504,47.2441 
  "/>
<polyline clip-path="url(#clip5000)" style="stroke:#000000; stroke-width:4; stroke-opacity:1; fill:none" points="
  417.428,1503.47 417.428,1481.63 
  "/>
<polyline clip-path="url(#clip5000)" style="stroke:#000000; stroke-width:4; stroke-opacity:1; fill:none" points="
  836.405,1503.47 836.405,1481.63 
  "/>
<polyline clip-path="url(#clip5000)" style="stroke:#000000; stroke-width:4; stroke-opacity:1; fill:none" points="
  1255.38,1503.47 1255.38,1481.63 
  "/>
<polyline clip-path="url(#clip5000)" style="stroke:#000000; stroke-width:4; stroke-opacity:1; fill:none" points="
  1674.36,1503.47 1674.36,1481.63 
  "/>
<polyline clip-path="url(#clip5000)" style="stroke:#000000; stroke-width:4; stroke-opacity:1; fill:none" points="
  2093.34,1503.47 2093.34,1481.63 
  "/>
<polyline clip-path="url(#clip5000)" style="stroke:#000000; stroke-width:4; stroke-opacity:1; fill:none" points="
  189.504,1256.19 221.48,1256.19 
  "/>
<polyline clip-path="url(#clip5000)" style="stroke:#000000; stroke-width:4; stroke-opacity:1; fill:none" points="
  189.504,912.74 221.48,912.74 
  "/>
<polyline clip-path="url(#clip5000)" style="stroke:#000000; stroke-width:4; stroke-opacity:1; fill:none" points="
  189.504,569.289 221.48,569.289 
  "/>
<polyline clip-path="url(#clip5000)" style="stroke:#000000; stroke-width:4; stroke-opacity:1; fill:none" points="
  189.504,225.838 221.48,225.838 
  "/>
<g clip-path="url(#clip5000)">
<text style="fill:#000000; fill-opacity:1; font-family:Arial,Helvetica Neue,Helvetica,sans-serif; font-size:48px; text-anchor:middle;" transform="rotate(0, 417.428, 1557.47)" x="417.428" y="1557.47">0.0</text>
</g>
<g clip-path="url(#clip5000)">
<text style="fill:#000000; fill-opacity:1; font-family:Arial,Helvetica Neue,Helvetica,sans-serif; font-size:48px; text-anchor:middle;" transform="rotate(0, 836.405, 1557.47)" x="836.405" y="1557.47">2.5</text>
</g>
<g clip-path="url(#clip5000)">
<text style="fill:#000000; fill-opacity:1; font-family:Arial,Helvetica Neue,Helvetica,sans-serif; font-size:48px; text-anchor:middle;" transform="rotate(0, 1255.38, 1557.47)" x="1255.38" y="1557.47">5.0</text>
</g>
<g clip-path="url(#clip5000)">
<text style="fill:#000000; fill-opacity:1; font-family:Arial,Helvetica Neue,Helvetica,sans-serif; font-size:48px; text-anchor:middle;" transform="rotate(0, 1674.36, 1557.47)" x="1674.36" y="1557.47">7.5</text>
</g>
<g clip-path="url(#clip5000)">
<text style="fill:#000000; fill-opacity:1; font-family:Arial,Helvetica Neue,Helvetica,sans-serif; font-size:48px; text-anchor:middle;" transform="rotate(0, 2093.34, 1557.47)" x="2093.34" y="1557.47">10.0</text>
</g>
<g clip-path="url(#clip5000)">
<text style="fill:#000000; fill-opacity:1; font-family:Arial,Helvetica Neue,Helvetica,sans-serif; font-size:48px; text-anchor:end;" transform="rotate(0, 165.504, 1273.69)" x="165.504" y="1273.69">-2.5</text>
</g>
<g clip-path="url(#clip5000)">
<text style="fill:#000000; fill-opacity:1; font-family:Arial,Helvetica Neue,Helvetica,sans-serif; font-size:48px; text-anchor:end;" transform="rotate(0, 165.504, 930.24)" x="165.504" y="930.24">0.0</text>
</g>
<g clip-path="url(#clip5000)">
<text style="fill:#000000; fill-opacity:1; font-family:Arial,Helvetica Neue,Helvetica,sans-serif; font-size:48px; text-anchor:end;" transform="rotate(0, 165.504, 586.789)" x="165.504" y="586.789">2.5</text>
</g>
<g clip-path="url(#clip5000)">
<text style="fill:#000000; fill-opacity:1; font-family:Arial,Helvetica Neue,Helvetica,sans-serif; font-size:48px; text-anchor:end;" transform="rotate(0, 165.504, 243.338)" x="165.504" y="243.338">5.0</text>
</g>
<polyline clip-path="url(#clip5002)" style="stroke:#009af9; stroke-width:4; stroke-opacity:1; fill:none" points="
  249.837,912.74 253.867,912.74 257.897,912.74 261.928,912.74 265.958,912.74 269.988,912.74 274.018,912.74 278.049,912.74 282.079,912.74 286.109,912.74 
  290.139,912.74 294.169,912.74 298.2,912.74 302.23,912.74 306.26,912.74 310.29,912.74 314.321,912.74 318.351,912.74 322.381,912.74 326.411,912.74 
  330.442,912.74 334.472,912.74 338.502,912.74 342.532,912.74 346.563,912.74 350.593,912.74 354.623,912.74 358.653,912.74 362.684,912.74 366.714,912.74 
  370.744,912.74 374.774,912.74 378.805,912.74 382.835,912.74 386.865,912.74 390.895,912.74 394.926,912.74 398.956,912.74 402.986,912.74 407.016,912.74 
  411.046,912.74 415.077,912.74 419.107,912.74 423.137,912.74 427.167,912.74 431.198,912.739 435.228,912.739 439.258,912.738 443.288,912.736 447.319,912.734 
  451.349,912.73 455.379,912.725 459.409,912.717 463.44,912.707 467.47,912.694 471.5,912.678 475.53,912.657 479.561,912.632 483.591,912.601 487.621,912.564 
  491.651,912.519 495.682,912.468 499.712,912.407 503.742,912.337 507.772,912.256 511.803,912.164 515.833,912.059 519.863,911.941 523.893,911.807 527.923,911.658 
  531.954,911.491 535.984,911.306 540.014,911.101 544.044,910.875 548.075,910.626 552.105,910.352 556.135,910.054 560.165,909.728 564.196,909.373 568.226,908.987 
  572.256,908.57 576.286,908.118 580.317,907.631 584.347,907.107 588.377,906.543 592.407,905.937 596.438,905.289 600.468,904.597 604.498,903.858 608.528,903.073 
  612.559,902.241 616.589,901.359 620.619,900.429 624.649,899.449 628.679,898.42 632.71,897.341 636.74,896.213 640.77,895.035 644.8,893.809 648.831,892.535 
  652.861,891.214 656.891,889.848 660.921,888.437 664.952,886.982 668.982,885.487 673.012,883.951 677.042,882.378 681.073,880.77 685.103,879.128 689.133,877.457 
  693.163,875.757 697.194,874.032 701.224,872.286 705.254,870.522 709.284,868.742 713.315,866.951 717.345,865.153 721.375,863.352 725.405,861.551 729.436,859.755 
  733.466,857.97 737.496,856.199 741.526,854.447 745.556,852.72 749.587,851.023 753.617,849.362 757.647,847.742 761.677,846.168 765.708,844.646 769.738,843.182 
  773.768,841.778 777.798,840.441 781.829,839.174 785.859,837.981 789.889,836.865 793.919,835.831 797.95,834.88 801.98,834.016 806.01,833.242 810.04,832.558 
  814.071,831.969 818.101,831.474 822.131,831.076 826.161,830.775 830.192,830.573 834.222,830.469 838.252,830.465 842.282,830.56 846.313,830.754 850.343,831.047 
  854.373,831.437 858.403,831.924 862.433,832.506 866.464,833.181 870.494,833.948 874.524,834.805 878.554,835.748 882.585,836.776 886.615,837.885 890.645,839.072 
  894.675,840.333 898.706,841.664 902.736,843.062 906.766,844.522 910.796,846.039 914.827,847.609 918.857,849.225 922.887,850.884 926.917,852.578 930.948,854.302 
  934.978,856.052 939.008,857.822 943.038,859.606 947.069,861.401 951.099,863.201 955.129,865.003 959.159,866.802 963.19,868.593 967.22,870.374 971.25,872.14 
  975.28,873.888 979.31,875.614 983.341,877.316 987.371,878.99 991.401,880.634 995.431,882.246 999.462,883.822 1003.49,885.36 1007.52,886.859 1011.55,888.317 
  1015.58,889.732 1019.61,891.102 1023.64,892.427 1027.67,893.705 1031.7,894.935 1035.73,896.116 1039.76,897.249 1043.79,898.332 1047.82,899.365 1051.85,900.349 
  1055.89,901.284 1059.92,902.169 1063.95,903.006 1067.98,903.795 1072.01,904.537 1076.04,905.233 1080.07,905.885 1084.1,906.494 1088.13,907.061 1092.16,907.589 
  1096.19,908.079 1100.22,908.534 1104.25,908.954 1108.28,909.342 1112.31,909.699 1116.34,910.028 1120.37,910.329 1124.4,910.604 1128.43,910.855 1132.46,911.083 
  1136.49,911.29 1140.52,911.477 1144.55,911.645 1148.58,911.796 1152.61,911.93 1156.64,912.05 1160.67,912.156 1164.7,912.249 1168.73,912.331 1172.76,912.402 
  1176.79,912.463 1180.82,912.515 1184.85,912.56 1188.88,912.598 1192.91,912.629 1196.94,912.655 1200.97,912.676 1205,912.693 1209.03,912.706 1213.06,912.716 
  1217.09,912.724 1221.12,912.73 1225.16,912.734 1229.19,912.736 1233.22,912.738 1237.25,912.739 1241.28,912.739 1245.31,912.74 1249.34,912.74 1253.37,912.74 
  1257.4,912.74 1261.43,912.74 1265.46,912.74 1269.49,912.74 1273.52,912.74 1277.55,912.74 1281.58,912.74 1285.61,912.74 1289.64,912.74 1293.67,912.74 
  1297.7,912.74 1301.73,912.74 1305.76,912.74 1309.79,912.74 1313.82,912.74 1317.85,912.74 1321.88,912.74 1325.91,912.74 1329.94,912.74 1333.97,912.74 
  1338,912.74 1342.03,912.74 1346.06,912.74 1350.09,912.74 1354.12,912.74 1358.15,912.74 1362.18,912.74 1366.21,912.74 1370.24,912.74 1374.27,912.74 
  1378.3,912.74 1382.33,912.74 1386.36,912.74 1390.4,912.74 1394.43,912.74 1398.46,912.74 1402.49,912.74 1406.52,912.74 1410.55,912.74 1414.58,912.74 
  1418.61,912.74 1422.64,912.74 1426.67,912.74 1430.7,912.74 1434.73,912.74 1438.76,912.74 1442.79,912.74 1446.82,912.74 1450.85,912.74 1454.88,912.74 
  1458.91,912.74 1462.94,912.74 1466.97,912.74 1471,912.74 1475.03,912.74 1479.06,912.74 1483.09,912.74 1487.12,912.74 1491.15,912.74 1495.18,912.74 
  1499.21,912.74 1503.24,912.74 1507.27,912.74 1511.3,912.74 1515.33,912.74 1519.36,912.74 1523.39,912.74 1527.42,912.74 1531.45,912.74 1535.48,912.74 
  1539.51,912.74 1543.54,912.74 1547.57,912.74 1551.6,912.74 1555.63,912.74 1559.67,912.74 1563.7,912.74 1567.73,912.74 1571.76,912.74 1575.79,912.74 
  1579.82,912.74 1583.85,912.74 1587.88,912.74 1591.91,912.74 1595.94,912.74 1599.97,912.74 1604,912.74 1608.03,912.74 1612.06,912.74 1616.09,912.74 
  1620.12,912.74 1624.15,912.74 1628.18,912.74 1632.21,912.74 1636.24,912.74 1640.27,912.74 1644.3,912.74 1648.33,912.74 1652.36,912.74 1656.39,912.74 
  1660.42,912.74 1664.45,912.74 1668.48,912.74 1672.51,912.74 1676.54,912.74 1680.57,912.74 1684.6,912.74 1688.63,912.74 1692.66,912.74 1696.69,912.74 
  1700.72,912.74 1704.75,912.74 1708.78,912.74 1712.81,912.74 1716.84,912.74 1720.87,912.74 1724.91,912.74 1728.94,912.74 1732.97,912.74 1737,912.74 
  1741.03,912.74 1745.06,912.74 1749.09,912.74 1753.12,912.74 1757.15,912.74 1761.18,912.74 1765.21,912.74 1769.24,912.74 1773.27,912.74 1777.3,912.74 
  1781.33,912.74 1785.36,912.74 1789.39,912.74 1793.42,912.74 1797.45,912.74 1801.48,912.74 1805.51,912.74 1809.54,912.74 1813.57,912.74 1817.6,912.74 
  1821.63,912.74 1825.66,912.74 1829.69,912.74 1833.72,912.74 1837.75,912.74 1841.78,912.74 1845.81,912.74 1849.84,912.74 1853.87,912.74 1857.9,912.74 
  1861.93,912.74 1865.96,912.74 1869.99,912.74 1874.02,912.74 1878.05,912.74 1882.08,912.74 1886.11,912.74 1890.14,912.74 1894.18,912.74 1898.21,912.74 
  1902.24,912.74 1906.27,912.74 1910.3,912.74 1914.33,912.74 1918.36,912.74 1922.39,912.74 1926.42,912.74 1930.45,912.74 1934.48,912.74 1938.51,912.74 
  1942.54,912.74 1946.57,912.74 1950.6,912.74 1954.63,912.74 1958.66,912.74 1962.69,912.74 1966.72,912.74 1970.75,912.74 1974.78,912.74 1978.81,912.74 
  1982.84,912.74 1986.87,912.74 1990.9,912.74 1994.93,912.74 1998.96,912.74 2002.99,912.74 2007.02,912.74 2011.05,912.74 2015.08,912.74 2019.11,912.74 
  2023.14,912.74 2027.17,912.74 2031.2,912.74 2035.23,912.74 2039.26,912.74 2043.29,912.74 2047.32,912.74 2051.35,912.74 2055.38,912.74 2059.42,912.74 
  2063.45,912.74 2067.48,912.74 2071.51,912.74 2075.54,912.74 2079.57,912.74 2083.6,912.74 2087.63,912.74 2091.66,912.74 2095.69,912.74 2099.72,912.74 
  2103.75,912.74 2107.78,912.74 2111.81,912.74 2115.84,912.74 2119.87,912.74 2123.9,912.74 2127.93,912.74 2131.96,912.74 2135.99,912.74 2140.02,912.74 
  2144.05,912.74 2148.08,912.74 2152.11,912.74 2156.14,912.74 2160.17,912.74 2164.2,912.74 2168.23,912.74 2172.26,912.74 2176.29,912.74 2180.32,912.74 
  2184.35,912.74 2188.38,912.74 2192.41,912.74 2196.44,912.74 2200.47,912.74 2204.5,912.74 2208.53,912.74 2212.56,912.74 2216.59,912.74 2220.62,912.74 
  2224.65,912.74 2228.69,912.74 2232.72,912.74 2236.75,912.74 2240.78,912.74 2244.81,912.74 2248.84,912.74 2252.87,912.74 2256.9,912.74 2260.93,912.74 
  
  "/>
<polyline clip-path="url(#clip5002)" style="stroke:#e26f46; stroke-width:4; stroke-opacity:1; fill:none" points="
  249.837,912.74 253.867,912.74 257.897,912.74 261.928,912.74 265.958,912.74 269.988,912.74 274.018,912.74 278.049,912.74 282.079,912.74 286.109,912.74 
  290.139,912.74 294.169,912.74 298.2,912.74 302.23,912.74 306.26,912.74 310.29,912.74 314.321,912.74 318.351,912.74 322.381,912.74 326.411,912.74 
  330.442,912.74 334.472,912.74 338.502,912.74 342.532,912.74 346.563,912.74 350.593,912.74 354.623,912.74 358.653,912.74 362.684,912.74 366.714,912.74 
  370.744,912.74 374.774,912.74 378.805,912.74 382.835,912.74 386.865,912.74 390.895,912.74 394.926,912.74 398.956,912.74 402.986,912.74 407.016,912.74 
  411.046,912.74 415.077,912.74 419.107,912.74 423.137,912.739 427.167,912.735 431.198,912.727 435.228,912.712 439.258,912.689 443.288,912.656 447.319,912.61 
  451.349,912.55 455.379,912.474 459.409,912.38 463.44,912.266 467.47,912.13 471.5,911.971 475.53,911.786 479.561,911.573 483.591,911.331 487.621,911.057 
  491.651,910.751 495.682,910.409 499.712,910.03 503.742,909.612 507.772,909.153 511.803,908.651 515.833,908.104 519.863,907.511 523.893,906.87 527.923,906.177 
  531.954,905.433 535.984,904.634 540.014,903.779 544.044,902.866 548.075,901.892 552.105,900.857 556.135,899.758 560.165,898.594 564.196,897.361 568.226,896.059 
  572.256,894.686 576.286,893.239 580.317,891.717 584.347,890.117 588.377,888.44 592.407,886.689 596.438,884.873 600.468,882.999 604.498,881.075 608.528,879.108 
  612.559,877.107 616.589,875.078 620.619,873.03 624.649,870.97 628.679,868.905 632.71,866.844 636.74,864.794 640.77,862.762 644.8,860.757 648.831,858.786 
  652.861,856.856 656.891,854.975 660.921,853.151 664.952,851.392 668.982,849.705 673.012,848.098 677.042,846.578 681.073,845.153 685.103,843.83 689.133,842.619 
  693.163,841.525 697.194,840.556 701.224,839.721 705.254,839.027 709.284,838.482 713.315,838.092 717.345,837.867 721.375,837.812 725.405,837.938 729.436,838.249 
  733.466,838.755 737.496,839.464 741.526,840.382 745.556,841.517 749.587,842.877 753.617,844.47 757.647,846.297 761.677,848.348 765.708,850.611 769.738,853.076 
  773.768,855.73 777.798,858.562 781.829,861.562 785.859,864.716 789.889,868.014 793.919,871.444 797.95,874.995 801.98,878.656 806.01,882.415 810.04,886.26 
  814.071,890.18 818.101,894.163 822.131,898.199 826.161,902.275 830.192,906.38 834.222,910.503 838.252,914.632 842.282,918.756 846.313,922.863 850.343,926.942 
  854.373,930.982 858.403,934.97 862.433,938.896 866.464,942.747 870.494,946.514 874.524,950.183 878.554,953.744 882.585,957.184 886.615,960.494 890.645,963.661 
  894.675,966.673 898.706,969.52 902.736,972.189 906.766,974.67 910.796,976.951 914.827,979.02 918.857,980.866 922.887,982.478 926.917,983.858 930.948,985.011 
  934.978,985.947 939.008,986.673 943.038,987.195 947.069,987.523 951.099,987.663 955.129,987.624 959.159,987.412 963.19,987.036 967.22,986.503 971.25,985.821 
  975.28,984.998 979.31,984.04 983.341,982.957 987.371,981.754 991.401,980.441 995.431,979.024 999.462,977.512 1003.49,975.911 1007.52,974.231 1011.55,972.477 
  1015.58,970.658 1019.61,968.782 1023.64,966.856 1027.67,964.888 1031.7,962.885 1035.73,960.856 1039.76,958.807 1043.79,956.746 1047.82,954.682 1051.85,952.621 
  1055.89,950.571 1059.92,948.541 1063.95,946.537 1067.98,944.567 1072.01,942.639 1076.04,940.761 1080.07,938.939 1084.1,937.183 1088.13,935.499 1092.16,933.893 
  1096.19,932.365 1100.22,930.911 1104.25,929.532 1108.28,928.224 1112.31,926.986 1116.34,925.816 1120.37,924.711 1124.4,923.671 1128.43,922.692 1132.46,921.774 
  1136.49,920.915 1140.52,920.111 1144.55,919.362 1148.58,918.666 1152.61,918.02 1156.64,917.423 1160.67,916.872 1164.7,916.367 1168.73,915.904 1172.76,915.483 
  1176.79,915.101 1180.82,914.756 1184.85,914.446 1188.88,914.17 1192.91,913.925 1196.94,913.71 1200.97,913.523 1205,913.362 1209.03,913.224 1213.06,913.108 
  1217.09,913.013 1221.12,912.935 1225.16,912.874 1229.19,912.827 1233.22,912.793 1237.25,912.769 1241.28,912.753 1245.31,912.745 1249.34,912.741 1253.37,912.74 
  1257.4,912.74 1261.43,912.74 1265.46,912.74 1269.49,912.74 1273.52,912.74 1277.55,912.74 1281.58,912.74 1285.61,912.74 1289.64,912.74 1293.67,912.74 
  1297.7,912.74 1301.73,912.74 1305.76,912.74 1309.79,912.74 1313.82,912.74 1317.85,912.74 1321.88,912.74 1325.91,912.74 1329.94,912.74 1333.97,912.74 
  1338,912.74 1342.03,912.74 1346.06,912.74 1350.09,912.74 1354.12,912.74 1358.15,912.74 1362.18,912.74 1366.21,912.74 1370.24,912.74 1374.27,912.74 
  1378.3,912.74 1382.33,912.74 1386.36,912.74 1390.4,912.74 1394.43,912.74 1398.46,912.74 1402.49,912.74 1406.52,912.74 1410.55,912.74 1414.58,912.74 
  1418.61,912.74 1422.64,912.74 1426.67,912.74 1430.7,912.74 1434.73,912.74 1438.76,912.74 1442.79,912.74 1446.82,912.74 1450.85,912.74 1454.88,912.74 
  1458.91,912.74 1462.94,912.74 1466.97,912.74 1471,912.74 1475.03,912.74 1479.06,912.74 1483.09,912.74 1487.12,912.74 1491.15,912.74 1495.18,912.74 
  1499.21,912.74 1503.24,912.74 1507.27,912.74 1511.3,912.74 1515.33,912.74 1519.36,912.74 1523.39,912.74 1527.42,912.74 1531.45,912.74 1535.48,912.74 
  1539.51,912.74 1543.54,912.74 1547.57,912.74 1551.6,912.74 1555.63,912.74 1559.67,912.74 1563.7,912.74 1567.73,912.74 1571.76,912.74 1575.79,912.74 
  1579.82,912.74 1583.85,912.74 1587.88,912.74 1591.91,912.74 1595.94,912.74 1599.97,912.74 1604,912.74 1608.03,912.74 1612.06,912.74 1616.09,912.74 
  1620.12,912.74 1624.15,912.74 1628.18,912.74 1632.21,912.74 1636.24,912.74 1640.27,912.74 1644.3,912.74 1648.33,912.74 1652.36,912.74 1656.39,912.74 
  1660.42,912.74 1664.45,912.74 1668.48,912.74 1672.51,912.74 1676.54,912.74 1680.57,912.74 1684.6,912.74 1688.63,912.74 1692.66,912.74 1696.69,912.74 
  1700.72,912.74 1704.75,912.74 1708.78,912.74 1712.81,912.74 1716.84,912.74 1720.87,912.74 1724.91,912.74 1728.94,912.74 1732.97,912.74 1737,912.74 
  1741.03,912.74 1745.06,912.74 1749.09,912.74 1753.12,912.74 1757.15,912.74 1761.18,912.74 1765.21,912.74 1769.24,912.74 1773.27,912.74 1777.3,912.74 
  1781.33,912.74 1785.36,912.74 1789.39,912.74 1793.42,912.74 1797.45,912.74 1801.48,912.74 1805.51,912.74 1809.54,912.74 1813.57,912.74 1817.6,912.74 
  1821.63,912.74 1825.66,912.74 1829.69,912.74 1833.72,912.74 1837.75,912.74 1841.78,912.74 1845.81,912.74 1849.84,912.74 1853.87,912.74 1857.9,912.74 
  1861.93,912.74 1865.96,912.74 1869.99,912.74 1874.02,912.74 1878.05,912.74 1882.08,912.74 1886.11,912.74 1890.14,912.74 1894.18,912.74 1898.21,912.74 
  1902.24,912.74 1906.27,912.74 1910.3,912.74 1914.33,912.74 1918.36,912.74 1922.39,912.74 1926.42,912.74 1930.45,912.74 1934.48,912.74 1938.51,912.74 
  1942.54,912.74 1946.57,912.74 1950.6,912.74 1954.63,912.74 1958.66,912.74 1962.69,912.74 1966.72,912.74 1970.75,912.74 1974.78,912.74 1978.81,912.74 
  1982.84,912.74 1986.87,912.74 1990.9,912.74 1994.93,912.74 1998.96,912.74 2002.99,912.74 2007.02,912.74 2011.05,912.74 2015.08,912.74 2019.11,912.74 
  2023.14,912.74 2027.17,912.74 2031.2,912.74 2035.23,912.74 2039.26,912.74 2043.29,912.74 2047.32,912.74 2051.35,912.74 2055.38,912.74 2059.42,912.74 
  2063.45,912.74 2067.48,912.74 2071.51,912.74 2075.54,912.74 2079.57,912.74 2083.6,912.74 2087.63,912.74 2091.66,912.74 2095.69,912.74 2099.72,912.74 
  2103.75,912.74 2107.78,912.74 2111.81,912.74 2115.84,912.74 2119.87,912.74 2123.9,912.74 2127.93,912.74 2131.96,912.74 2135.99,912.74 2140.02,912.74 
  2144.05,912.74 2148.08,912.74 2152.11,912.74 2156.14,912.74 2160.17,912.74 2164.2,912.74 2168.23,912.74 2172.26,912.74 2176.29,912.74 2180.32,912.74 
  2184.35,912.74 2188.38,912.74 2192.41,912.74 2196.44,912.74 2200.47,912.74 2204.5,912.74 2208.53,912.74 2212.56,912.74 2216.59,912.74 2220.62,912.74 
  2224.65,912.74 2228.69,912.74 2232.72,912.74 2236.75,912.74 2240.78,912.74 2244.81,912.74 2248.84,912.74 2252.87,912.74 2256.9,912.74 2260.93,912.74 
  
  "/>
<polyline clip-path="url(#clip5002)" style="stroke:#3da44d; stroke-width:4; stroke-opacity:1; fill:none" points="
  249.837,912.74 253.867,912.74 257.897,912.74 261.928,912.74 265.958,912.74 269.988,912.74 274.018,912.74 278.049,912.74 282.079,912.74 286.109,912.74 
  290.139,912.74 294.169,912.74 298.2,912.74 302.23,912.74 306.26,912.74 310.29,912.74 314.321,912.74 318.351,912.74 322.381,912.74 326.411,912.74 
  330.442,912.74 334.472,912.74 338.502,912.74 342.532,912.74 346.563,912.74 350.593,912.74 354.623,912.74 358.653,912.74 362.684,912.74 366.714,912.74 
  370.744,912.74 374.774,912.74 378.805,912.74 382.835,912.74 386.865,912.74 390.895,912.74 394.926,912.74 398.956,912.74 402.986,912.74 407.016,912.74 
  411.046,912.74 415.077,912.74 419.107,912.733 423.137,912.66 427.167,912.508 431.198,912.276 435.228,911.965 439.258,911.574 443.288,911.104 447.319,910.555 
  451.349,909.926 455.379,909.217 459.409,908.429 463.44,907.562 467.47,906.615 471.5,905.589 475.53,904.483 479.561,903.298 483.591,902.034 487.621,900.69 
  491.651,899.266 495.682,897.763 499.712,896.181 503.742,894.519 507.772,892.778 511.803,890.957 515.833,889.057 519.863,887.078 523.893,885.018 527.923,882.88 
  531.954,880.662 535.984,878.365 540.014,875.988 544.044,873.532 548.075,870.996 552.105,868.381 556.135,865.686 560.165,862.912 564.196,860.058 568.226,857.125 
  572.256,854.113 576.286,851.021 580.317,847.85 584.347,844.599 588.377,841.407 592.407,838.527 596.438,835.965 600.468,833.72 604.498,831.794 608.528,830.185 
  612.559,828.894 616.589,827.92 620.619,827.265 624.649,826.927 628.679,826.907 632.71,827.205 636.74,827.821 640.77,828.755 644.8,830.006 648.831,831.575 
  652.861,833.462 656.891,835.667 660.921,838.189 664.952,841.029 668.982,844.187 673.012,847.663 677.042,851.457 681.073,855.568 685.103,859.998 689.133,864.745 
  693.163,869.81 697.194,875.192 701.224,880.893 705.254,886.911 709.284,893.247 713.315,899.901 717.345,906.872 721.375,914.162 725.405,921.769 729.436,929.694 
  733.466,937.937 737.496,946.497 741.526,955.376 745.556,964.572 749.587,974.086 753.617,983.893 757.647,993.446 761.677,1002.52 765.708,1011.12 769.738,1019.25 
  773.768,1026.89 777.798,1034.06 781.829,1040.76 785.859,1046.97 789.889,1052.71 793.919,1057.98 797.95,1062.77 801.98,1067.08 806.01,1070.91 810.04,1074.27 
  814.071,1077.15 818.101,1079.55 822.131,1081.48 826.161,1082.93 830.192,1083.9 834.222,1084.4 838.252,1084.41 842.282,1083.96 846.313,1083.02 850.343,1081.61 
  854.373,1079.73 858.403,1077.36 862.433,1074.52 866.464,1071.21 870.494,1067.41 874.524,1063.14 878.554,1058.4 882.585,1053.17 886.615,1047.47 890.645,1041.29 
  894.675,1034.64 898.706,1027.51 902.736,1019.9 906.766,1011.82 910.796,1003.26 914.827,994.221 918.857,984.707 922.887,974.893 926.917,965.352 930.948,956.13 
  934.978,947.225 939.008,938.638 943.038,930.369 947.069,922.417 951.099,914.784 955.129,907.468 959.159,900.47 963.19,893.789 967.22,887.427 971.25,881.382 
  975.28,875.655 979.31,870.246 983.341,865.155 987.371,860.381 991.401,855.925 995.431,851.787 999.462,847.967 1003.49,844.465 1007.52,841.28 1011.55,838.414 
  1015.58,835.865 1019.61,833.634 1023.64,831.72 1027.67,830.125 1031.7,828.847 1035.73,827.887 1039.76,827.245 1043.79,826.92 1047.82,826.913 1051.85,827.225 
  1055.89,827.854 1059.92,828.8 1063.95,830.065 1067.98,831.647 1072.01,833.547 1076.04,835.765 1080.07,838.301 1084.1,841.155 1088.13,844.325 1092.16,847.582 
  1096.19,850.76 1100.22,853.858 1104.25,856.877 1108.28,859.817 1112.31,862.677 1116.34,865.458 1120.37,868.159 1124.4,870.781 1128.43,873.323 1132.46,875.786 
  1136.49,878.17 1140.52,880.474 1144.55,882.698 1148.58,884.843 1152.61,886.909 1156.64,888.895 1160.67,890.802 1164.7,892.629 1168.73,894.377 1172.76,896.046 
  1176.79,897.635 1180.82,899.144 1184.85,900.574 1188.88,901.925 1192.91,903.196 1196.94,904.388 1200.97,905.5 1205,906.533 1209.03,907.486 1213.06,908.36 
  1217.09,909.155 1221.12,909.87 1225.16,910.505 1229.19,911.061 1233.22,911.538 1237.25,911.935 1241.28,912.253 1245.31,912.491 1249.34,912.65 1253.37,912.73 
  1257.4,912.74 1261.43,912.74 1265.46,912.74 1269.49,912.74 1273.52,912.74 1277.55,912.74 1281.58,912.74 1285.61,912.74 1289.64,912.74 1293.67,912.74 
  1297.7,912.74 1301.73,912.74 1305.76,912.74 1309.79,912.74 1313.82,912.74 1317.85,912.74 1321.88,912.74 1325.91,912.74 1329.94,912.74 1333.97,912.74 
  1338,912.74 1342.03,912.74 1346.06,912.74 1350.09,912.74 1354.12,912.74 1358.15,912.74 1362.18,912.74 1366.21,912.74 1370.24,912.74 1374.27,912.74 
  1378.3,912.74 1382.33,912.74 1386.36,912.74 1390.4,912.74 1394.43,912.74 1398.46,912.74 1402.49,912.74 1406.52,912.74 1410.55,912.74 1414.58,912.74 
  1418.61,912.74 1422.64,912.74 1426.67,912.74 1430.7,912.74 1434.73,912.74 1438.76,912.74 1442.79,912.74 1446.82,912.74 1450.85,912.74 1454.88,912.74 
  1458.91,912.74 1462.94,912.74 1466.97,912.74 1471,912.74 1475.03,912.74 1479.06,912.74 1483.09,912.74 1487.12,912.74 1491.15,912.74 1495.18,912.74 
  1499.21,912.74 1503.24,912.74 1507.27,912.74 1511.3,912.74 1515.33,912.74 1519.36,912.74 1523.39,912.74 1527.42,912.74 1531.45,912.74 1535.48,912.74 
  1539.51,912.74 1543.54,912.74 1547.57,912.74 1551.6,912.74 1555.63,912.74 1559.67,912.74 1563.7,912.74 1567.73,912.74 1571.76,912.74 1575.79,912.74 
  1579.82,912.74 1583.85,912.74 1587.88,912.74 1591.91,912.74 1595.94,912.74 1599.97,912.74 1604,912.74 1608.03,912.74 1612.06,912.74 1616.09,912.74 
  1620.12,912.74 1624.15,912.74 1628.18,912.74 1632.21,912.74 1636.24,912.74 1640.27,912.74 1644.3,912.74 1648.33,912.74 1652.36,912.74 1656.39,912.74 
  1660.42,912.74 1664.45,912.74 1668.48,912.74 1672.51,912.74 1676.54,912.74 1680.57,912.74 1684.6,912.74 1688.63,912.74 1692.66,912.74 1696.69,912.74 
  1700.72,912.74 1704.75,912.74 1708.78,912.74 1712.81,912.74 1716.84,912.74 1720.87,912.74 1724.91,912.74 1728.94,912.74 1732.97,912.74 1737,912.74 
  1741.03,912.74 1745.06,912.74 1749.09,912.74 1753.12,912.74 1757.15,912.74 1761.18,912.74 1765.21,912.74 1769.24,912.74 1773.27,912.74 1777.3,912.74 
  1781.33,912.74 1785.36,912.74 1789.39,912.74 1793.42,912.74 1797.45,912.74 1801.48,912.74 1805.51,912.74 1809.54,912.74 1813.57,912.74 1817.6,912.74 
  1821.63,912.74 1825.66,912.74 1829.69,912.74 1833.72,912.74 1837.75,912.74 1841.78,912.74 1845.81,912.74 1849.84,912.74 1853.87,912.74 1857.9,912.74 
  1861.93,912.74 1865.96,912.74 1869.99,912.74 1874.02,912.74 1878.05,912.74 1882.08,912.74 1886.11,912.74 1890.14,912.74 1894.18,912.74 1898.21,912.74 
  1902.24,912.74 1906.27,912.74 1910.3,912.74 1914.33,912.74 1918.36,912.74 1922.39,912.74 1926.42,912.74 1930.45,912.74 1934.48,912.74 1938.51,912.74 
  1942.54,912.74 1946.57,912.74 1950.6,912.74 1954.63,912.74 1958.66,912.74 1962.69,912.74 1966.72,912.74 1970.75,912.74 1974.78,912.74 1978.81,912.74 
  1982.84,912.74 1986.87,912.74 1990.9,912.74 1994.93,912.74 1998.96,912.74 2002.99,912.74 2007.02,912.74 2011.05,912.74 2015.08,912.74 2019.11,912.74 
  2023.14,912.74 2027.17,912.74 2031.2,912.74 2035.23,912.74 2039.26,912.74 2043.29,912.74 2047.32,912.74 2051.35,912.74 2055.38,912.74 2059.42,912.74 
  2063.45,912.74 2067.48,912.74 2071.51,912.74 2075.54,912.74 2079.57,912.74 2083.6,912.74 2087.63,912.74 2091.66,912.74 2095.69,912.74 2099.72,912.74 
  2103.75,912.74 2107.78,912.74 2111.81,912.74 2115.84,912.74 2119.87,912.74 2123.9,912.74 2127.93,912.74 2131.96,912.74 2135.99,912.74 2140.02,912.74 
  2144.05,912.74 2148.08,912.74 2152.11,912.74 2156.14,912.74 2160.17,912.74 2164.2,912.74 2168.23,912.74 2172.26,912.74 2176.29,912.74 2180.32,912.74 
  2184.35,912.74 2188.38,912.74 2192.41,912.74 2196.44,912.74 2200.47,912.74 2204.5,912.74 2208.53,912.74 2212.56,912.74 2216.59,912.74 2220.62,912.74 
  2224.65,912.74 2228.69,912.74 2232.72,912.74 2236.75,912.74 2240.78,912.74 2244.81,912.74 2248.84,912.74 2252.87,912.74 2256.9,912.74 2260.93,912.74 
  
  "/>
<polyline clip-path="url(#clip5002)" style="stroke:#c271d2; stroke-width:4; stroke-opacity:1; fill:none" points="
  249.837,912.74 253.867,912.74 257.897,912.74 261.928,912.74 265.958,912.74 269.988,912.74 274.018,912.74 278.049,912.74 282.079,912.74 286.109,912.74 
  290.139,912.74 294.169,912.74 298.2,912.74 302.23,912.74 306.26,912.74 310.29,912.74 314.321,912.74 318.351,912.74 322.381,912.74 326.411,912.74 
  330.442,912.74 334.472,912.74 338.502,912.74 342.532,912.74 346.563,912.74 350.593,912.74 354.623,912.74 358.653,912.74 362.684,912.74 366.714,912.74 
  370.744,912.74 374.774,912.74 378.805,912.74 382.835,912.74 386.865,912.74 390.895,912.74 394.926,912.74 398.956,912.74 402.986,912.74 407.016,912.74 
  411.046,912.74 415.077,912.74 419.107,911.363 423.137,908.059 427.167,904.756 431.198,901.452 435.228,898.148 439.258,894.844 443.288,891.541 447.319,888.237 
  451.349,884.933 455.379,881.63 459.409,878.326 463.44,875.022 467.47,871.718 471.5,868.415 475.53,865.111 479.561,861.807 483.591,858.503 487.621,855.2 
  491.651,851.896 495.682,848.592 499.712,845.288 503.742,841.985 507.772,838.681 511.803,835.377 515.833,832.074 519.863,828.77 523.893,825.466 527.923,822.162 
  531.954,818.859 535.984,815.555 540.014,812.251 544.044,808.947 548.075,805.644 552.105,802.34 556.135,799.036 560.165,795.732 564.196,792.429 568.226,789.125 
  572.256,785.821 576.286,782.517 580.317,779.214 584.347,775.91 588.377,786.372 592.407,799.587 596.438,812.802 600.468,826.017 604.498,839.232 608.528,852.447 
  612.559,865.661 616.589,878.876 620.619,892.091 624.649,905.306 628.679,918.521 632.71,931.736 636.74,944.951 640.77,958.166 644.8,971.381 648.831,984.596 
  652.861,997.811 656.891,1011.03 660.921,1024.24 664.952,1037.46 668.982,1050.67 673.012,1063.89 677.042,1077.1 681.073,1090.32 685.103,1103.53 689.133,1116.75 
  693.163,1129.96 697.194,1143.18 701.224,1156.39 705.254,1169.6 709.284,1182.82 713.315,1196.03 717.345,1209.25 721.375,1222.46 725.405,1235.68 729.436,1248.89 
  733.466,1262.11 737.496,1275.32 741.526,1288.54 745.556,1301.75 749.587,1314.97 753.617,1319.92 757.647,1300.1 761.677,1280.28 765.708,1260.46 769.738,1240.64 
  773.768,1220.81 777.798,1200.99 781.829,1181.17 785.859,1161.35 789.889,1141.52 793.919,1121.7 797.95,1101.88 801.98,1082.06 806.01,1062.23 810.04,1042.41 
  814.071,1022.59 818.101,1002.77 822.131,982.944 826.161,963.122 830.192,943.299 834.222,923.477 838.252,903.654 842.282,883.832 846.313,864.01 850.343,844.187 
  854.373,824.365 858.403,804.542 862.433,784.72 866.464,764.898 870.494,745.075 874.524,725.253 878.554,705.43 882.585,685.608 886.615,665.786 890.645,645.963 
  894.675,626.141 898.706,606.318 902.736,586.496 906.766,566.674 910.796,546.851 914.827,527.029 918.857,507.206 922.887,509.409 926.917,522.624 930.948,535.839 
  934.978,549.054 939.008,562.269 943.038,575.484 947.069,588.698 951.099,601.913 955.129,615.128 959.159,628.343 963.19,641.558 967.22,654.773 971.25,667.988 
  975.28,681.203 979.31,694.418 983.341,707.633 987.371,720.848 991.401,734.063 995.431,747.278 999.462,760.493 1003.49,773.708 1007.52,786.922 1011.55,800.137 
  1015.58,813.352 1019.61,826.567 1023.64,839.782 1027.67,852.997 1031.7,866.212 1035.73,879.427 1039.76,892.642 1043.79,905.857 1047.82,919.072 1051.85,932.287 
  1055.89,945.502 1059.92,958.717 1063.95,971.932 1067.98,985.146 1072.01,998.361 1076.04,1011.58 1080.07,1024.79 1084.1,1038.01 1088.13,1049.84 1092.16,1046.54 
  1096.19,1043.24 1100.22,1039.93 1104.25,1036.63 1108.28,1033.33 1112.31,1030.02 1116.34,1026.72 1120.37,1023.41 1124.4,1020.11 1128.43,1016.81 1132.46,1013.5 
  1136.49,1010.2 1140.52,1006.9 1144.55,1003.59 1148.58,1000.29 1152.61,996.985 1156.64,993.681 1160.67,990.377 1164.7,987.074 1168.73,983.77 1172.76,980.466 
  1176.79,977.162 1180.82,973.859 1184.85,970.555 1188.88,967.251 1192.91,963.948 1196.94,960.644 1200.97,957.34 1205,954.036 1209.03,950.733 1213.06,947.429 
  1217.09,944.125 1221.12,940.821 1225.16,937.518 1229.19,934.214 1233.22,930.91 1237.25,927.606 1241.28,924.303 1245.31,920.999 1249.34,917.695 1253.37,914.392 
  1257.4,912.74 1261.43,912.74 1265.46,912.74 1269.49,912.74 1273.52,912.74 1277.55,912.74 1281.58,912.74 1285.61,912.74 1289.64,912.74 1293.67,912.74 
  1297.7,912.74 1301.73,912.74 1305.76,912.74 1309.79,912.74 1313.82,912.74 1317.85,912.74 1321.88,912.74 1325.91,912.74 1329.94,912.74 1333.97,912.74 
  1338,912.74 1342.03,912.74 1346.06,912.74 1350.09,912.74 1354.12,912.74 1358.15,912.74 1362.18,912.74 1366.21,912.74 1370.24,912.74 1374.27,912.74 
  1378.3,912.74 1382.33,912.74 1386.36,912.74 1390.4,912.74 1394.43,912.74 1398.46,912.74 1402.49,912.74 1406.52,912.74 1410.55,912.74 1414.58,912.74 
  1418.61,912.74 1422.64,912.74 1426.67,912.74 1430.7,912.74 1434.73,912.74 1438.76,912.74 1442.79,912.74 1446.82,912.74 1450.85,912.74 1454.88,912.74 
  1458.91,912.74 1462.94,912.74 1466.97,912.74 1471,912.74 1475.03,912.74 1479.06,912.74 1483.09,912.74 1487.12,912.74 1491.15,912.74 1495.18,912.74 
  1499.21,912.74 1503.24,912.74 1507.27,912.74 1511.3,912.74 1515.33,912.74 1519.36,912.74 1523.39,912.74 1527.42,912.74 1531.45,912.74 1535.48,912.74 
  1539.51,912.74 1543.54,912.74 1547.57,912.74 1551.6,912.74 1555.63,912.74 1559.67,912.74 1563.7,912.74 1567.73,912.74 1571.76,912.74 1575.79,912.74 
  1579.82,912.74 1583.85,912.74 1587.88,912.74 1591.91,912.74 1595.94,912.74 1599.97,912.74 1604,912.74 1608.03,912.74 1612.06,912.74 1616.09,912.74 
  1620.12,912.74 1624.15,912.74 1628.18,912.74 1632.21,912.74 1636.24,912.74 1640.27,912.74 1644.3,912.74 1648.33,912.74 1652.36,912.74 1656.39,912.74 
  1660.42,912.74 1664.45,912.74 1668.48,912.74 1672.51,912.74 1676.54,912.74 1680.57,912.74 1684.6,912.74 1688.63,912.74 1692.66,912.74 1696.69,912.74 
  1700.72,912.74 1704.75,912.74 1708.78,912.74 1712.81,912.74 1716.84,912.74 1720.87,912.74 1724.91,912.74 1728.94,912.74 1732.97,912.74 1737,912.74 
  1741.03,912.74 1745.06,912.74 1749.09,912.74 1753.12,912.74 1757.15,912.74 1761.18,912.74 1765.21,912.74 1769.24,912.74 1773.27,912.74 1777.3,912.74 
  1781.33,912.74 1785.36,912.74 1789.39,912.74 1793.42,912.74 1797.45,912.74 1801.48,912.74 1805.51,912.74 1809.54,912.74 1813.57,912.74 1817.6,912.74 
  1821.63,912.74 1825.66,912.74 1829.69,912.74 1833.72,912.74 1837.75,912.74 1841.78,912.74 1845.81,912.74 1849.84,912.74 1853.87,912.74 1857.9,912.74 
  1861.93,912.74 1865.96,912.74 1869.99,912.74 1874.02,912.74 1878.05,912.74 1882.08,912.74 1886.11,912.74 1890.14,912.74 1894.18,912.74 1898.21,912.74 
  1902.24,912.74 1906.27,912.74 1910.3,912.74 1914.33,912.74 1918.36,912.74 1922.39,912.74 1926.42,912.74 1930.45,912.74 1934.48,912.74 1938.51,912.74 
  1942.54,912.74 1946.57,912.74 1950.6,912.74 1954.63,912.74 1958.66,912.74 1962.69,912.74 1966.72,912.74 1970.75,912.74 1974.78,912.74 1978.81,912.74 
  1982.84,912.74 1986.87,912.74 1990.9,912.74 1994.93,912.74 1998.96,912.74 2002.99,912.74 2007.02,912.74 2011.05,912.74 2015.08,912.74 2019.11,912.74 
  2023.14,912.74 2027.17,912.74 2031.2,912.74 2035.23,912.74 2039.26,912.74 2043.29,912.74 2047.32,912.74 2051.35,912.74 2055.38,912.74 2059.42,912.74 
  2063.45,912.74 2067.48,912.74 2071.51,912.74 2075.54,912.74 2079.57,912.74 2083.6,912.74 2087.63,912.74 2091.66,912.74 2095.69,912.74 2099.72,912.74 
  2103.75,912.74 2107.78,912.74 2111.81,912.74 2115.84,912.74 2119.87,912.74 2123.9,912.74 2127.93,912.74 2131.96,912.74 2135.99,912.74 2140.02,912.74 
  2144.05,912.74 2148.08,912.74 2152.11,912.74 2156.14,912.74 2160.17,912.74 2164.2,912.74 2168.23,912.74 2172.26,912.74 2176.29,912.74 2180.32,912.74 
  2184.35,912.74 2188.38,912.74 2192.41,912.74 2196.44,912.74 2200.47,912.74 2204.5,912.74 2208.53,912.74 2212.56,912.74 2216.59,912.74 2220.62,912.74 
  2224.65,912.74 2228.69,912.74 2232.72,912.74 2236.75,912.74 2240.78,912.74 2244.81,912.74 2248.84,912.74 2252.87,912.74 2256.9,912.74 2260.93,912.74 
  
  "/>
<polyline clip-path="url(#clip5002)" style="stroke:#ac8d18; stroke-width:4; stroke-opacity:1; fill:none" points="
  249.837,912.74 253.867,912.74 257.897,912.74 261.928,912.74 265.958,912.74 269.988,912.74 274.018,912.74 278.049,912.74 282.079,912.74 286.109,912.74 
  290.139,912.74 294.169,912.74 298.2,912.74 302.23,912.74 306.26,912.74 310.29,912.74 314.321,912.74 318.351,912.74 322.381,912.74 326.411,912.74 
  330.442,912.74 334.472,912.74 338.502,912.74 342.532,912.74 346.563,912.74 350.593,912.74 354.623,912.74 358.653,912.74 362.684,912.74 366.714,912.74 
  370.744,912.74 374.774,912.74 378.805,912.74 382.835,912.74 386.865,912.74 390.895,912.74 394.926,912.74 398.956,912.74 402.986,912.74 407.016,912.74 
  411.046,912.74 415.077,912.74 419.107,775.359 423.137,775.359 427.167,775.359 431.198,775.359 435.228,775.359 439.258,775.359 443.288,775.359 447.319,775.359 
  451.349,775.359 455.379,775.359 459.409,775.359 463.44,775.359 467.47,775.359 471.5,775.359 475.53,775.359 479.561,775.359 483.591,775.359 487.621,775.359 
  491.651,775.359 495.682,775.359 499.712,775.359 503.742,775.359 507.772,775.359 511.803,775.359 515.833,775.359 519.863,775.359 523.893,775.359 527.923,775.359 
  531.954,775.359 535.984,775.359 540.014,775.359 544.044,775.359 548.075,775.359 552.105,775.359 556.135,775.359 560.165,775.359 564.196,775.359 568.226,775.359 
  572.256,775.359 576.286,775.359 580.317,775.359 584.347,775.359 588.377,1462.26 592.407,1462.26 596.438,1462.26 600.468,1462.26 604.498,1462.26 608.528,1462.26 
  612.559,1462.26 616.589,1462.26 620.619,1462.26 624.649,1462.26 628.679,1462.26 632.71,1462.26 636.74,1462.26 640.77,1462.26 644.8,1462.26 648.831,1462.26 
  652.861,1462.26 656.891,1462.26 660.921,1462.26 664.952,1462.26 668.982,1462.26 673.012,1462.26 677.042,1462.26 681.073,1462.26 685.103,1462.26 689.133,1462.26 
  693.163,1462.26 697.194,1462.26 701.224,1462.26 705.254,1462.26 709.284,1462.26 713.315,1462.26 717.345,1462.26 721.375,1462.26 725.405,1462.26 729.436,1462.26 
  733.466,1462.26 737.496,1462.26 741.526,1462.26 745.556,1462.26 749.587,1462.26 753.617,88.4582 757.647,88.4582 761.677,88.4582 765.708,88.4582 769.738,88.4582 
  773.768,88.4582 777.798,88.4582 781.829,88.4582 785.859,88.4582 789.889,88.4582 793.919,88.4582 797.95,88.4582 801.98,88.4582 806.01,88.4582 810.04,88.4582 
  814.071,88.4582 818.101,88.4582 822.131,88.4582 826.161,88.4582 830.192,88.4582 834.222,88.4582 838.252,88.4582 842.282,88.4582 846.313,88.4582 850.343,88.4582 
  854.373,88.4582 858.403,88.4582 862.433,88.4582 866.464,88.4582 870.494,88.4582 874.524,88.4582 878.554,88.4582 882.585,88.4582 886.615,88.4582 890.645,88.4582 
  894.675,88.4582 898.706,88.4582 902.736,88.4582 906.766,88.4582 910.796,88.4582 914.827,88.4582 918.857,88.4582 922.887,1462.26 926.917,1462.26 930.948,1462.26 
  934.978,1462.26 939.008,1462.26 943.038,1462.26 947.069,1462.26 951.099,1462.26 955.129,1462.26 959.159,1462.26 963.19,1462.26 967.22,1462.26 971.25,1462.26 
  975.28,1462.26 979.31,1462.26 983.341,1462.26 987.371,1462.26 991.401,1462.26 995.431,1462.26 999.462,1462.26 1003.49,1462.26 1007.52,1462.26 1011.55,1462.26 
  1015.58,1462.26 1019.61,1462.26 1023.64,1462.26 1027.67,1462.26 1031.7,1462.26 1035.73,1462.26 1039.76,1462.26 1043.79,1462.26 1047.82,1462.26 1051.85,1462.26 
  1055.89,1462.26 1059.92,1462.26 1063.95,1462.26 1067.98,1462.26 1072.01,1462.26 1076.04,1462.26 1080.07,1462.26 1084.1,1462.26 1088.13,775.359 1092.16,775.359 
  1096.19,775.359 1100.22,775.359 1104.25,775.359 1108.28,775.359 1112.31,775.359 1116.34,775.359 1120.37,775.359 1124.4,775.359 1128.43,775.359 1132.46,775.359 
  1136.49,775.359 1140.52,775.359 1144.55,775.359 1148.58,775.359 1152.61,775.359 1156.64,775.359 1160.67,775.359 1164.7,775.359 1168.73,775.359 1172.76,775.359 
  1176.79,775.359 1180.82,775.359 1184.85,775.359 1188.88,775.359 1192.91,775.359 1196.94,775.359 1200.97,775.359 1205,775.359 1209.03,775.359 1213.06,775.359 
  1217.09,775.359 1221.12,775.359 1225.16,775.359 1229.19,775.359 1233.22,775.359 1237.25,775.359 1241.28,775.359 1245.31,775.359 1249.34,775.359 1253.37,775.359 
  1257.4,912.74 1261.43,912.74 1265.46,912.74 1269.49,912.74 1273.52,912.74 1277.55,912.74 1281.58,912.74 1285.61,912.74 1289.64,912.74 1293.67,912.74 
  1297.7,912.74 1301.73,912.74 1305.76,912.74 1309.79,912.74 1313.82,912.74 1317.85,912.74 1321.88,912.74 1325.91,912.74 1329.94,912.74 1333.97,912.74 
  1338,912.74 1342.03,912.74 1346.06,912.74 1350.09,912.74 1354.12,912.74 1358.15,912.74 1362.18,912.74 1366.21,912.74 1370.24,912.74 1374.27,912.74 
  1378.3,912.74 1382.33,912.74 1386.36,912.74 1390.4,912.74 1394.43,912.74 1398.46,912.74 1402.49,912.74 1406.52,912.74 1410.55,912.74 1414.58,912.74 
  1418.61,912.74 1422.64,912.74 1426.67,912.74 1430.7,912.74 1434.73,912.74 1438.76,912.74 1442.79,912.74 1446.82,912.74 1450.85,912.74 1454.88,912.74 
  1458.91,912.74 1462.94,912.74 1466.97,912.74 1471,912.74 1475.03,912.74 1479.06,912.74 1483.09,912.74 1487.12,912.74 1491.15,912.74 1495.18,912.74 
  1499.21,912.74 1503.24,912.74 1507.27,912.74 1511.3,912.74 1515.33,912.74 1519.36,912.74 1523.39,912.74 1527.42,912.74 1531.45,912.74 1535.48,912.74 
  1539.51,912.74 1543.54,912.74 1547.57,912.74 1551.6,912.74 1555.63,912.74 1559.67,912.74 1563.7,912.74 1567.73,912.74 1571.76,912.74 1575.79,912.74 
  1579.82,912.74 1583.85,912.74 1587.88,912.74 1591.91,912.74 1595.94,912.74 1599.97,912.74 1604,912.74 1608.03,912.74 1612.06,912.74 1616.09,912.74 
  1620.12,912.74 1624.15,912.74 1628.18,912.74 1632.21,912.74 1636.24,912.74 1640.27,912.74 1644.3,912.74 1648.33,912.74 1652.36,912.74 1656.39,912.74 
  1660.42,912.74 1664.45,912.74 1668.48,912.74 1672.51,912.74 1676.54,912.74 1680.57,912.74 1684.6,912.74 1688.63,912.74 1692.66,912.74 1696.69,912.74 
  1700.72,912.74 1704.75,912.74 1708.78,912.74 1712.81,912.74 1716.84,912.74 1720.87,912.74 1724.91,912.74 1728.94,912.74 1732.97,912.74 1737,912.74 
  1741.03,912.74 1745.06,912.74 1749.09,912.74 1753.12,912.74 1757.15,912.74 1761.18,912.74 1765.21,912.74 1769.24,912.74 1773.27,912.74 1777.3,912.74 
  1781.33,912.74 1785.36,912.74 1789.39,912.74 1793.42,912.74 1797.45,912.74 1801.48,912.74 1805.51,912.74 1809.54,912.74 1813.57,912.74 1817.6,912.74 
  1821.63,912.74 1825.66,912.74 1829.69,912.74 1833.72,912.74 1837.75,912.74 1841.78,912.74 1845.81,912.74 1849.84,912.74 1853.87,912.74 1857.9,912.74 
  1861.93,912.74 1865.96,912.74 1869.99,912.74 1874.02,912.74 1878.05,912.74 1882.08,912.74 1886.11,912.74 1890.14,912.74 1894.18,912.74 1898.21,912.74 
  1902.24,912.74 1906.27,912.74 1910.3,912.74 1914.33,912.74 1918.36,912.74 1922.39,912.74 1926.42,912.74 1930.45,912.74 1934.48,912.74 1938.51,912.74 
  1942.54,912.74 1946.57,912.74 1950.6,912.74 1954.63,912.74 1958.66,912.74 1962.69,912.74 1966.72,912.74 1970.75,912.74 1974.78,912.74 1978.81,912.74 
  1982.84,912.74 1986.87,912.74 1990.9,912.74 1994.93,912.74 1998.96,912.74 2002.99,912.74 2007.02,912.74 2011.05,912.74 2015.08,912.74 2019.11,912.74 
  2023.14,912.74 2027.17,912.74 2031.2,912.74 2035.23,912.74 2039.26,912.74 2043.29,912.74 2047.32,912.74 2051.35,912.74 2055.38,912.74 2059.42,912.74 
  2063.45,912.74 2067.48,912.74 2071.51,912.74 2075.54,912.74 2079.57,912.74 2083.6,912.74 2087.63,912.74 2091.66,912.74 2095.69,912.74 2099.72,912.74 
  2103.75,912.74 2107.78,912.74 2111.81,912.74 2115.84,912.74 2119.87,912.74 2123.9,912.74 2127.93,912.74 2131.96,912.74 2135.99,912.74 2140.02,912.74 
  2144.05,912.74 2148.08,912.74 2152.11,912.74 2156.14,912.74 2160.17,912.74 2164.2,912.74 2168.23,912.74 2172.26,912.74 2176.29,912.74 2180.32,912.74 
  2184.35,912.74 2188.38,912.74 2192.41,912.74 2196.44,912.74 2200.47,912.74 2204.5,912.74 2208.53,912.74 2212.56,912.74 2216.59,912.74 2220.62,912.74 
  2224.65,912.74 2228.69,912.74 2232.72,912.74 2236.75,912.74 2240.78,912.74 2244.81,912.74 2248.84,912.74 2252.87,912.74 2256.9,912.74 2260.93,912.74 
  
  "/>
</svg>
