<?xml version="1.0" encoding="utf-8"?>
<svg xmlns="http://www.w3.org/2000/svg" xmlns:xlink="http://www.w3.org/1999/xlink" width="600" height="400" viewBox="0 0 600 400">
<defs>
  <clipPath id="clip4900">
    <rect x="0" y="0" width="600" height="400"/>
  </clipPath>
</defs>
<polygon clip-path="url(#clip4900)" points="
0,400 600,400 600,0 0,0 
  " fill="#ffffff" fill-opacity="1"/>
<defs>
  <clipPath id="clip4901">
    <rect x="120" y="0" width="421" height="400"/>
  </clipPath>
</defs>
<polygon clip-path="url(#clip4900)" points="
32.4745,375.869 580.315,375.869 580.315,11.811 32.4745,11.811 
  " fill="#ffffff" fill-opacity="1"/>
<defs>
  <clipPath id="clip4902">
    <rect x="32" y="11" width="549" height="365"/>
  </clipPath>
</defs>
<polyline clip-path="url(#clip4902)" style="stroke:#000000; stroke-width:0.5; stroke-opacity:0.1; fill:none" points="
  78.1279,375.869 78.1279,11.811 
  "/>
<polyline clip-path="url(#clip4902)" style="stroke:#000000; stroke-width:0.5; stroke-opacity:0.1; fill:none" points="
  192.261,375.869 192.261,11.811 
  "/>
<polyline clip-path="url(#clip4902)" style="stroke:#000000; stroke-width:0.5; stroke-opacity:0.1; fill:none" points="
  306.395,375.869 306.395,11.811 
  "/>
<polyline clip-path="url(#clip4902)" style="stroke:#000000; stroke-width:0.5; stroke-opacity:0.1; fill:none" points="
  420.528,375.869 420.528,11.811 
  "/>
<polyline clip-path="url(#clip4902)" style="stroke:#000000; stroke-width:0.5; stroke-opacity:0.1; fill:none" points="
  534.662,375.869 534.662,11.811 
  "/>
<polyline clip-path="url(#clip4902)" style="stroke:#000000; stroke-width:0.5; stroke-opacity:0.1; fill:none" points="
  32.4745,375.869 580.315,375.869 
  "/>
<polyline clip-path="url(#clip4902)" style="stroke:#000000; stroke-width:0.5; stroke-opacity:0.1; fill:none" points="
  32.4745,303.057 580.315,303.057 
  "/>
<polyline clip-path="url(#clip4902)" style="stroke:#000000; stroke-width:0.5; stroke-opacity:0.1; fill:none" points="
  32.4745,230.246 580.315,230.246 
  "/>
<polyline clip-path="url(#clip4902)" style="stroke:#000000; stroke-width:0.5; stroke-opacity:0.1; fill:none" points="
  32.4745,157.434 580.315,157.434 
  "/>
<polyline clip-path="url(#clip4902)" style="stroke:#000000; stroke-width:0.5; stroke-opacity:0.1; fill:none" points="
  32.4745,84.6226 580.315,84.6226 
  "/>
<polyline clip-path="url(#clip4902)" style="stroke:#000000; stroke-width:0.5; stroke-opacity:0.1; fill:none" points="
  32.4745,11.811 580.315,11.811 
  "/>
<polyline clip-path="url(#clip4900)" style="stroke:#000000; stroke-width:1; stroke-opacity:1; fill:none" points="
  32.4745,375.869 580.315,375.869 
  "/>
<polyline clip-path="url(#clip4900)" style="stroke:#000000; stroke-width:1; stroke-opacity:1; fill:none" points="
  32.4745,375.869 32.4745,11.811 
  "/>
<polyline clip-path="url(#clip4900)" style="stroke:#000000; stroke-width:1; stroke-opacity:1; fill:none" points="
  78.1279,375.869 78.1279,370.408 
  "/>
<polyline clip-path="url(#clip4900)" style="stroke:#000000; stroke-width:1; stroke-opacity:1; fill:none" points="
  192.261,375.869 192.261,370.408 
  "/>
<polyline clip-path="url(#clip4900)" style="stroke:#000000; stroke-width:1; stroke-opacity:1; fill:none" points="
  306.395,375.869 306.395,370.408 
  "/>
<polyline clip-path="url(#clip4900)" style="stroke:#000000; stroke-width:1; stroke-opacity:1; fill:none" points="
  420.528,375.869 420.528,370.408 
  "/>
<polyline clip-path="url(#clip4900)" style="stroke:#000000; stroke-width:1; stroke-opacity:1; fill:none" points="
  534.662,375.869 534.662,370.408 
  "/>
<polyline clip-path="url(#clip4900)" style="stroke:#000000; stroke-width:1; stroke-opacity:1; fill:none" points="
  32.4745,375.869 40.6921,375.869 
  "/>
<polyline clip-path="url(#clip4900)" style="stroke:#000000; stroke-width:1; stroke-opacity:1; fill:none" points="
  32.4745,303.057 40.6921,303.057 
  "/>
<polyline clip-path="url(#clip4900)" style="stroke:#000000; stroke-width:1; stroke-opacity:1; fill:none" points="
  32.4745,230.246 40.6921,230.246 
  "/>
<polyline clip-path="url(#clip4900)" style="stroke:#000000; stroke-width:1; stroke-opacity:1; fill:none" points="
  32.4745,157.434 40.6921,157.434 
  "/>
<polyline clip-path="url(#clip4900)" style="stroke:#000000; stroke-width:1; stroke-opacity:1; fill:none" points="
  32.4745,84.6226 40.6921,84.6226 
  "/>
<polyline clip-path="url(#clip4900)" style="stroke:#000000; stroke-width:1; stroke-opacity:1; fill:none" points="
  32.4745,11.811 40.6921,11.811 
  "/>
<g clip-path="url(#clip4900)">
<text style="fill:#000000; fill-opacity:1; font-family:Arial,Helvetica Neue,Helvetica,sans-serif; font-size:12; text-anchor:middle;" transform="rotate(0, 78.1279, 389.669)" x="78.1279" y="389.669">0.0</text>
</g>
<g clip-path="url(#clip4900)">
<text style="fill:#000000; fill-opacity:1; font-family:Arial,Helvetica Neue,Helvetica,sans-serif; font-size:12; text-anchor:middle;" transform="rotate(0, 192.261, 389.669)" x="192.261" y="389.669">2.5</text>
</g>
<g clip-path="url(#clip4900)">
<text style="fill:#000000; fill-opacity:1; font-family:Arial,Helvetica Neue,Helvetica,sans-serif; font-size:12; text-anchor:middle;" transform="rotate(0, 306.395, 389.669)" x="306.395" y="389.669">5.0</text>
</g>
<g clip-path="url(#clip4900)">
<text style="fill:#000000; fill-opacity:1; font-family:Arial,Helvetica Neue,Helvetica,sans-serif; font-size:12; text-anchor:middle;" transform="rotate(0, 420.528, 389.669)" x="420.528" y="389.669">7.5</text>
</g>
<g clip-path="url(#clip4900)">
<text style="fill:#000000; fill-opacity:1; font-family:Arial,Helvetica Neue,Helvetica,sans-serif; font-size:12; text-anchor:middle;" transform="rotate(0, 534.662, 389.669)" x="534.662" y="389.669">10.0</text>
</g>
<g clip-path="url(#clip4900)">
<text style="fill:#000000; fill-opacity:1; font-family:Arial,Helvetica Neue,Helvetica,sans-serif; font-size:12; text-anchor:end;" transform="rotate(0, 26.4745, 380.369)" x="26.4745" y="380.369">0.0</text>
</g>
<g clip-path="url(#clip4900)">
<text style="fill:#000000; fill-opacity:1; font-family:Arial,Helvetica Neue,Helvetica,sans-serif; font-size:12; text-anchor:end;" transform="rotate(0, 26.4745, 307.557)" x="26.4745" y="307.557">0.2</text>
</g>
<g clip-path="url(#clip4900)">
<text style="fill:#000000; fill-opacity:1; font-family:Arial,Helvetica Neue,Helvetica,sans-serif; font-size:12; text-anchor:end;" transform="rotate(0, 26.4745, 234.746)" x="26.4745" y="234.746">0.4</text>
</g>
<g clip-path="url(#clip4900)">
<text style="fill:#000000; fill-opacity:1; font-family:Arial,Helvetica Neue,Helvetica,sans-serif; font-size:12; text-anchor:end;" transform="rotate(0, 26.4745, 161.934)" x="26.4745" y="161.934">0.6</text>
</g>
<g clip-path="url(#clip4900)">
<text style="fill:#000000; fill-opacity:1; font-family:Arial,Helvetica Neue,Helvetica,sans-serif; font-size:12; text-anchor:end;" transform="rotate(0, 26.4745, 89.1226)" x="26.4745" y="89.1226">0.8</text>
</g>
<g clip-path="url(#clip4900)">
<text style="fill:#000000; fill-opacity:1; font-family:Arial,Helvetica Neue,Helvetica,sans-serif; font-size:12; text-anchor:end;" transform="rotate(0, 26.4745, 16.311)" x="26.4745" y="16.311">1.0</text>
</g>
<polyline clip-path="url(#clip4902)" style="stroke:#009af9; stroke-width:1; stroke-opacity:1; fill:none" points="
  32.4745,375.869 33.5724,375.869 34.6702,375.869 35.7681,375.869 36.866,375.869 37.9639,375.869 39.0618,375.869 40.1596,375.869 41.2575,375.869 42.3554,375.869 
  43.4533,375.869 44.5511,375.869 45.649,375.869 46.7469,375.869 47.8448,375.869 48.9426,375.869 50.0405,375.869 51.1384,375.869 52.2363,375.869 53.3342,375.869 
  54.432,375.869 55.5299,375.869 56.6278,375.869 57.7257,375.869 58.8235,375.869 59.9214,375.869 61.0193,375.869 62.1172,375.869 63.215,375.869 64.3129,375.869 
  65.4108,375.869 66.5087,375.869 67.6065,375.869 68.7044,375.869 69.8023,375.869 70.9002,375.869 71.9981,375.869 73.0959,375.869 74.1938,375.869 75.2917,375.869 
  76.3896,375.869 77.4874,375.869 78.5853,11.811 79.6832,11.811 80.7811,11.811 81.8789,11.811 82.9768,11.811 84.0747,11.811 85.1726,11.811 86.2705,11.811 
  87.3683,11.811 88.4662,11.811 89.5641,11.811 90.662,11.811 91.7598,11.811 92.8577,11.811 93.9556,11.811 95.0535,11.811 96.1513,11.811 97.2492,11.811 
  98.3471,11.811 99.445,11.811 100.543,11.811 101.641,11.811 102.739,11.811 103.836,11.811 104.934,11.811 106.032,11.811 107.13,11.811 108.228,11.811 
  109.326,11.811 110.424,11.811 111.522,11.811 112.619,11.811 113.717,11.811 114.815,11.811 115.913,11.811 117.011,11.811 118.109,11.811 119.207,11.811 
  120.305,11.811 121.403,11.811 122.5,11.811 123.598,11.811 124.696,375.869 125.794,375.869 126.892,375.869 127.99,375.869 129.088,375.869 130.186,375.869 
  131.283,375.869 132.381,375.869 133.479,375.869 134.577,375.869 135.675,375.869 136.773,375.869 137.871,375.869 138.969,375.869 140.066,375.869 141.164,375.869 
  142.262,375.869 143.36,375.869 144.458,375.869 145.556,375.869 146.654,375.869 147.752,375.869 148.849,375.869 149.947,375.869 151.045,375.869 152.143,375.869 
  153.241,375.869 154.339,375.869 155.437,375.869 156.535,375.869 157.632,375.869 158.73,375.869 159.828,375.869 160.926,375.869 162.024,375.869 163.122,375.869 
  164.22,375.869 165.318,375.869 166.415,375.869 167.513,375.869 168.611,375.869 169.709,375.869 170.807,375.869 171.905,375.869 173.003,375.869 174.101,375.869 
  175.198,375.869 176.296,375.869 177.394,375.869 178.492,375.869 179.59,375.869 180.688,375.869 181.786,375.869 182.884,375.869 183.981,375.869 185.079,375.869 
  186.177,375.869 187.275,375.869 188.373,375.869 189.471,375.869 190.569,375.869 191.667,375.869 192.764,375.869 193.862,375.869 194.96,375.869 196.058,375.869 
  197.156,375.869 198.254,375.869 199.352,375.869 200.45,375.869 201.548,375.869 202.645,375.869 203.743,375.869 204.841,375.869 205.939,375.869 207.037,375.869 
  208.135,375.869 209.233,375.869 210.331,375.869 211.428,375.869 212.526,375.869 213.624,375.869 214.722,375.869 215.82,375.869 216.918,375.869 218.016,375.869 
  219.114,375.869 220.211,375.869 221.309,375.869 222.407,375.869 223.505,375.869 224.603,375.869 225.701,375.869 226.799,375.869 227.897,375.869 228.994,375.869 
  230.092,375.869 231.19,375.869 232.288,375.869 233.386,375.869 234.484,375.869 235.582,375.869 236.68,375.869 237.777,375.869 238.875,375.869 239.973,375.869 
  241.071,375.869 242.169,375.869 243.267,375.869 244.365,375.869 245.463,375.869 246.56,375.869 247.658,375.869 248.756,375.869 249.854,375.869 250.952,375.869 
  252.05,375.869 253.148,375.869 254.246,375.869 255.343,375.869 256.441,375.869 257.539,375.869 258.637,375.869 259.735,375.869 260.833,375.869 261.931,375.869 
  263.029,375.869 264.126,375.869 265.224,375.869 266.322,375.869 267.42,375.869 268.518,375.869 269.616,375.869 270.714,375.869 271.812,375.869 272.909,375.869 
  274.007,375.869 275.105,375.869 276.203,375.869 277.301,375.869 278.399,375.869 279.497,375.869 280.595,375.869 281.693,375.869 282.79,375.869 283.888,375.869 
  284.986,375.869 286.084,375.869 287.182,375.869 288.28,375.869 289.378,375.869 290.476,375.869 291.573,375.869 292.671,375.869 293.769,375.869 294.867,375.869 
  295.965,375.869 297.063,375.869 298.161,375.869 299.259,375.869 300.356,375.869 301.454,375.869 302.552,375.869 303.65,375.869 304.748,375.869 305.846,375.869 
  306.944,375.869 308.042,375.869 309.139,375.869 310.237,375.869 311.335,375.869 312.433,375.869 313.531,375.869 314.629,375.869 315.727,375.869 316.825,375.869 
  317.922,375.869 319.02,375.869 320.118,375.869 321.216,375.869 322.314,375.869 323.412,375.869 324.51,375.869 325.608,375.869 326.705,375.869 327.803,375.869 
  328.901,375.869 329.999,375.869 331.097,375.869 332.195,375.869 333.293,375.869 334.391,375.869 335.488,375.869 336.586,375.869 337.684,375.869 338.782,375.869 
  339.88,375.869 340.978,375.869 342.076,375.869 343.174,375.869 344.271,375.869 345.369,375.869 346.467,375.869 347.565,375.869 348.663,375.869 349.761,375.869 
  350.859,375.869 351.957,375.869 353.054,375.869 354.152,375.869 355.25,375.869 356.348,375.869 357.446,375.869 358.544,375.869 359.642,375.869 360.74,375.869 
  361.837,375.869 362.935,375.869 364.033,375.869 365.131,375.869 366.229,375.869 367.327,375.869 368.425,375.869 369.523,375.869 370.621,375.869 371.718,375.869 
  372.816,375.869 373.914,375.869 375.012,375.869 376.11,375.869 377.208,375.869 378.306,375.869 379.404,375.869 380.501,375.869 381.599,375.869 382.697,375.869 
  383.795,375.869 384.893,375.869 385.991,375.869 387.089,375.869 388.187,375.869 389.284,375.869 390.382,375.869 391.48,375.869 392.578,375.869 393.676,375.869 
  394.774,375.869 395.872,375.869 396.97,375.869 398.067,375.869 399.165,375.869 400.263,375.869 401.361,375.869 402.459,375.869 403.557,375.869 404.655,375.869 
  405.753,375.869 406.85,375.869 407.948,375.869 409.046,375.869 410.144,375.869 411.242,375.869 412.34,375.869 413.438,375.869 414.536,375.869 415.633,375.869 
  416.731,375.869 417.829,375.869 418.927,375.869 420.025,375.869 421.123,375.869 422.221,375.869 423.319,375.869 424.416,375.869 425.514,375.869 426.612,375.869 
  427.71,375.869 428.808,375.869 429.906,375.869 431.004,375.869 432.102,375.869 433.199,375.869 434.297,375.869 435.395,375.869 436.493,375.869 437.591,375.869 
  438.689,375.869 439.787,375.869 440.885,375.869 441.982,375.869 443.08,375.869 444.178,375.869 445.276,375.869 446.374,375.869 447.472,375.869 448.57,375.869 
  449.668,375.869 450.766,375.869 451.863,375.869 452.961,375.869 454.059,375.869 455.157,375.869 456.255,375.869 457.353,375.869 458.451,375.869 459.549,375.869 
  460.646,375.869 461.744,375.869 462.842,375.869 463.94,375.869 465.038,375.869 466.136,375.869 467.234,375.869 468.332,375.869 469.429,375.869 470.527,375.869 
  471.625,375.869 472.723,375.869 473.821,375.869 474.919,375.869 476.017,375.869 477.115,375.869 478.212,375.869 479.31,375.869 480.408,375.869 481.506,375.869 
  482.604,375.869 483.702,375.869 484.8,375.869 485.898,375.869 486.995,375.869 488.093,375.869 489.191,375.869 490.289,375.869 491.387,375.869 492.485,375.869 
  493.583,375.869 494.681,375.869 495.778,375.869 496.876,375.869 497.974,375.869 499.072,375.869 500.17,375.869 501.268,375.869 502.366,375.869 503.464,375.869 
  504.561,375.869 505.659,375.869 506.757,375.869 507.855,375.869 508.953,375.869 510.051,375.869 511.149,375.869 512.247,375.869 513.344,375.869 514.442,375.869 
  515.54,375.869 516.638,375.869 517.736,375.869 518.834,375.869 519.932,375.869 521.03,375.869 522.127,375.869 523.225,375.869 524.323,375.869 525.421,375.869 
  526.519,375.869 527.617,375.869 528.715,375.869 529.813,375.869 530.911,375.869 532.008,375.869 533.106,375.869 534.204,375.869 535.302,375.869 536.4,375.869 
  537.498,375.869 538.596,375.869 539.694,375.869 540.791,375.869 541.889,375.869 542.987,375.869 544.085,375.869 545.183,375.869 546.281,375.869 547.379,375.869 
  548.477,375.869 549.574,375.869 550.672,375.869 551.77,375.869 552.868,375.869 553.966,375.869 555.064,375.869 556.162,375.869 557.26,375.869 558.357,375.869 
  559.455,375.869 560.553,375.869 561.651,375.869 562.749,375.869 563.847,375.869 564.945,375.869 566.043,375.869 567.14,375.869 568.238,375.869 569.336,375.869 
  570.434,375.869 571.532,375.869 572.63,375.869 573.728,375.869 574.826,375.869 575.923,375.869 577.021,375.869 578.119,375.869 579.217,375.869 580.315,375.869 
  
  "/>
<polyline clip-path="url(#clip4902)" style="stroke:#e26f46; stroke-width:1; stroke-opacity:1; fill:none" points="
  32.4745,375.869 33.5724,375.869 34.6702,375.869 35.7681,375.869 36.866,375.869 37.9639,375.869 39.0618,375.869 40.1596,375.869 41.2575,375.869 42.3554,375.869 
  43.4533,375.869 44.5511,375.869 45.649,375.869 46.7469,375.869 47.8448,375.869 48.9426,375.869 50.0405,375.869 51.1384,375.869 52.2363,375.869 53.3342,375.869 
  54.432,375.869 55.5299,375.869 56.6278,375.869 57.7257,375.869 58.8235,375.869 59.9214,375.869 61.0193,375.869 62.1172,375.869 63.215,375.869 64.3129,375.869 
  65.4108,375.869 66.5087,375.869 67.6065,375.869 68.7044,375.869 69.8023,375.869 70.9002,375.869 71.9981,375.869 73.0959,375.869 74.1938,375.869 75.2917,375.869 
  76.3896,375.869 77.4874,375.869 78.5853,372.221 79.6832,363.466 80.7811,354.711 81.8789,345.956 82.9768,337.201 84.0747,328.446 85.1726,319.691 86.2705,310.937 
  87.3683,302.182 88.4662,293.427 89.5641,284.672 90.662,275.917 91.7598,267.162 92.8577,258.407 93.9556,249.652 95.0535,240.897 96.1513,232.143 97.2492,223.388 
  98.3471,214.633 99.445,205.878 100.543,197.123 101.641,188.368 102.739,179.613 103.836,170.858 104.934,162.103 106.032,153.348 107.13,144.594 108.228,135.839 
  109.326,127.084 110.424,118.329 111.522,109.574 112.619,100.819 113.717,92.0642 114.815,83.3093 115.913,74.5544 117.011,65.7995 118.109,57.0446 119.207,48.2897 
  120.305,39.5349 121.403,30.78 122.5,22.0251 123.598,13.2702 124.696,19.1068 125.794,27.8617 126.892,36.6166 127.99,45.3714 129.088,54.1263 130.186,62.8812 
  131.283,71.6361 132.381,80.391 133.479,89.1459 134.577,97.9008 135.675,106.656 136.773,115.411 137.871,124.165 138.969,132.92 140.066,141.675 141.164,150.43 
  142.262,159.185 143.36,167.94 144.458,176.695 145.556,185.45 146.654,194.205 147.752,202.96 148.849,211.714 149.947,220.469 151.045,229.224 152.143,237.979 
  153.241,246.734 154.339,255.489 155.437,264.244 156.535,272.999 157.632,281.754 158.73,290.508 159.828,299.263 160.926,308.018 162.024,316.773 163.122,325.528 
  164.22,334.283 165.318,343.038 166.415,351.793 167.513,360.548 168.611,369.303 169.709,375.869 170.807,375.869 171.905,375.869 173.003,375.869 174.101,375.869 
  175.198,375.869 176.296,375.869 177.394,375.869 178.492,375.869 179.59,375.869 180.688,375.869 181.786,375.869 182.884,375.869 183.981,375.869 185.079,375.869 
  186.177,375.869 187.275,375.869 188.373,375.869 189.471,375.869 190.569,375.869 191.667,375.869 192.764,375.869 193.862,375.869 194.96,375.869 196.058,375.869 
  197.156,375.869 198.254,375.869 199.352,375.869 200.45,375.869 201.548,375.869 202.645,375.869 203.743,375.869 204.841,375.869 205.939,375.869 207.037,375.869 
  208.135,375.869 209.233,375.869 210.331,375.869 211.428,375.869 212.526,375.869 213.624,375.869 214.722,375.869 215.82,375.869 216.918,375.869 218.016,375.869 
  219.114,375.869 220.211,375.869 221.309,375.869 222.407,375.869 223.505,375.869 224.603,375.869 225.701,375.869 226.799,375.869 227.897,375.869 228.994,375.869 
  230.092,375.869 231.19,375.869 232.288,375.869 233.386,375.869 234.484,375.869 235.582,375.869 236.68,375.869 237.777,375.869 238.875,375.869 239.973,375.869 
  241.071,375.869 242.169,375.869 243.267,375.869 244.365,375.869 245.463,375.869 246.56,375.869 247.658,375.869 248.756,375.869 249.854,375.869 250.952,375.869 
  252.05,375.869 253.148,375.869 254.246,375.869 255.343,375.869 256.441,375.869 257.539,375.869 258.637,375.869 259.735,375.869 260.833,375.869 261.931,375.869 
  263.029,375.869 264.126,375.869 265.224,375.869 266.322,375.869 267.42,375.869 268.518,375.869 269.616,375.869 270.714,375.869 271.812,375.869 272.909,375.869 
  274.007,375.869 275.105,375.869 276.203,375.869 277.301,375.869 278.399,375.869 279.497,375.869 280.595,375.869 281.693,375.869 282.79,375.869 283.888,375.869 
  284.986,375.869 286.084,375.869 287.182,375.869 288.28,375.869 289.378,375.869 290.476,375.869 291.573,375.869 292.671,375.869 293.769,375.869 294.867,375.869 
  295.965,375.869 297.063,375.869 298.161,375.869 299.259,375.869 300.356,375.869 301.454,375.869 302.552,375.869 303.65,375.869 304.748,375.869 305.846,375.869 
  306.944,375.869 308.042,375.869 309.139,375.869 310.237,375.869 311.335,375.869 312.433,375.869 313.531,375.869 314.629,375.869 315.727,375.869 316.825,375.869 
  317.922,375.869 319.02,375.869 320.118,375.869 321.216,375.869 322.314,375.869 323.412,375.869 324.51,375.869 325.608,375.869 326.705,375.869 327.803,375.869 
  328.901,375.869 329.999,375.869 331.097,375.869 332.195,375.869 333.293,375.869 334.391,375.869 335.488,375.869 336.586,375.869 337.684,375.869 338.782,375.869 
  339.88,375.869 340.978,375.869 342.076,375.869 343.174,375.869 344.271,375.869 345.369,375.869 346.467,375.869 347.565,375.869 348.663,375.869 349.761,375.869 
  350.859,375.869 351.957,375.869 353.054,375.869 354.152,375.869 355.25,375.869 356.348,375.869 357.446,375.869 358.544,375.869 359.642,375.869 360.74,375.869 
  361.837,375.869 362.935,375.869 364.033,375.869 365.131,375.869 366.229,375.869 367.327,375.869 368.425,375.869 369.523,375.869 370.621,375.869 371.718,375.869 
  372.816,375.869 373.914,375.869 375.012,375.869 376.11,375.869 377.208,375.869 378.306,375.869 379.404,375.869 380.501,375.869 381.599,375.869 382.697,375.869 
  383.795,375.869 384.893,375.869 385.991,375.869 387.089,375.869 388.187,375.869 389.284,375.869 390.382,375.869 391.48,375.869 392.578,375.869 393.676,375.869 
  394.774,375.869 395.872,375.869 396.97,375.869 398.067,375.869 399.165,375.869 400.263,375.869 401.361,375.869 402.459,375.869 403.557,375.869 404.655,375.869 
  405.753,375.869 406.85,375.869 407.948,375.869 409.046,375.869 410.144,375.869 411.242,375.869 412.34,375.869 413.438,375.869 414.536,375.869 415.633,375.869 
  416.731,375.869 417.829,375.869 418.927,375.869 420.025,375.869 421.123,375.869 422.221,375.869 423.319,375.869 424.416,375.869 425.514,375.869 426.612,375.869 
  427.71,375.869 428.808,375.869 429.906,375.869 431.004,375.869 432.102,375.869 433.199,375.869 434.297,375.869 435.395,375.869 436.493,375.869 437.591,375.869 
  438.689,375.869 439.787,375.869 440.885,375.869 441.982,375.869 443.08,375.869 444.178,375.869 445.276,375.869 446.374,375.869 447.472,375.869 448.57,375.869 
  449.668,375.869 450.766,375.869 451.863,375.869 452.961,375.869 454.059,375.869 455.157,375.869 456.255,375.869 457.353,375.869 458.451,375.869 459.549,375.869 
  460.646,375.869 461.744,375.869 462.842,375.869 463.94,375.869 465.038,375.869 466.136,375.869 467.234,375.869 468.332,375.869 469.429,375.869 470.527,375.869 
  471.625,375.869 472.723,375.869 473.821,375.869 474.919,375.869 476.017,375.869 477.115,375.869 478.212,375.869 479.31,375.869 480.408,375.869 481.506,375.869 
  482.604,375.869 483.702,375.869 484.8,375.869 485.898,375.869 486.995,375.869 488.093,375.869 489.191,375.869 490.289,375.869 491.387,375.869 492.485,375.869 
  493.583,375.869 494.681,375.869 495.778,375.869 496.876,375.869 497.974,375.869 499.072,375.869 500.17,375.869 501.268,375.869 502.366,375.869 503.464,375.869 
  504.561,375.869 505.659,375.869 506.757,375.869 507.855,375.869 508.953,375.869 510.051,375.869 511.149,375.869 512.247,375.869 513.344,375.869 514.442,375.869 
  515.54,375.869 516.638,375.869 517.736,375.869 518.834,375.869 519.932,375.869 521.03,375.869 522.127,375.869 523.225,375.869 524.323,375.869 525.421,375.869 
  526.519,375.869 527.617,375.869 528.715,375.869 529.813,375.869 530.911,375.869 532.008,375.869 533.106,375.869 534.204,375.869 535.302,375.869 536.4,375.869 
  537.498,375.869 538.596,375.869 539.694,375.869 540.791,375.869 541.889,375.869 542.987,375.869 544.085,375.869 545.183,375.869 546.281,375.869 547.379,375.869 
  548.477,375.869 549.574,375.869 550.672,375.869 551.77,375.869 552.868,375.869 553.966,375.869 555.064,375.869 556.162,375.869 557.26,375.869 558.357,375.869 
  559.455,375.869 560.553,375.869 561.651,375.869 562.749,375.869 563.847,375.869 564.945,375.869 566.043,375.869 567.14,375.869 568.238,375.869 569.336,375.869 
  570.434,375.869 571.532,375.869 572.63,375.869 573.728,375.869 574.826,375.869 575.923,375.869 577.021,375.869 578.119,375.869 579.217,375.869 580.315,375.869 
  
  "/>
<polyline clip-path="url(#clip4902)" style="stroke:#3da44d; stroke-width:1; stroke-opacity:1; fill:none" points="
  32.4745,375.869 33.5724,375.869 34.6702,375.869 35.7681,375.869 36.866,375.869 37.9639,375.869 39.0618,375.869 40.1596,375.869 41.2575,375.869 42.3554,375.869 
  43.4533,375.869 44.5511,375.869 45.649,375.869 46.7469,375.869 47.8448,375.869 48.9426,375.869 50.0405,375.869 51.1384,375.869 52.2363,375.869 53.3342,375.869 
  54.432,375.869 55.5299,375.869 56.6278,375.869 57.7257,375.869 58.8235,375.869 59.9214,375.869 61.0193,375.869 62.1172,375.869 63.215,375.869 64.3129,375.869 
  65.4108,375.869 66.5087,375.869 67.6065,375.869 68.7044,375.869 69.8023,375.869 70.9002,375.869 71.9981,375.869 73.0959,375.869 74.1938,375.869 75.2917,375.869 
  76.3896,375.869 77.4874,375.869 78.5853,375.85 79.6832,375.657 80.7811,375.254 81.8789,374.64 82.9768,373.815 84.0747,372.78 85.1726,371.534 86.2705,370.078 
  87.3683,368.411 88.4662,366.534 89.5641,364.446 90.662,362.148 91.7598,359.639 92.8577,356.919 93.9556,353.989 95.0535,350.849 96.1513,347.498 97.2492,343.936 
  98.3471,340.164 99.445,336.181 100.543,331.988 101.641,327.584 102.739,322.97 103.836,318.145 104.934,313.11 106.032,307.864 107.13,302.408 108.228,296.741 
  109.326,290.863 110.424,284.775 111.522,278.476 112.619,271.967 113.717,265.248 114.815,258.317 115.913,251.177 117.011,243.825 118.109,236.263 119.207,228.491 
  120.305,220.508 121.403,212.315 122.5,203.911 123.598,195.296 124.696,186.69 125.794,178.497 126.892,170.724 127.99,163.373 129.088,156.443 130.186,149.934 
  131.283,143.846 132.381,138.179 133.479,132.933 134.577,128.108 135.675,123.704 136.773,119.722 137.871,116.16 138.969,113.019 140.066,110.3 141.164,108.002 
  142.262,106.124 143.36,104.668 144.458,103.633 145.556,103.019 146.654,102.826 147.752,103.054 148.849,103.703 149.947,104.773 151.045,106.265 152.143,108.177 
  153.241,110.51 154.339,113.265 155.437,116.441 156.535,120.037 157.632,124.055 158.73,128.494 159.828,133.354 160.926,138.635 162.024,144.337 163.122,150.46 
  164.22,157.004 165.318,163.97 166.415,171.356 167.513,179.164 168.611,187.392 169.709,196.022 170.807,204.619 171.905,213.005 173.003,221.181 174.101,229.147 
  175.198,236.902 176.296,244.446 177.394,251.78 178.492,258.903 179.59,265.816 180.688,272.518 181.786,279.009 182.884,285.29 183.981,291.361 185.079,297.221 
  186.177,302.87 187.275,308.309 188.373,313.538 189.471,318.555 190.569,323.363 191.667,327.959 192.764,332.346 193.862,336.521 194.96,340.487 196.058,344.241 
  197.156,347.785 198.254,351.119 199.352,354.242 200.45,357.154 201.548,359.856 202.645,362.347 203.743,364.628 204.841,366.699 205.939,368.558 207.037,370.208 
  208.135,371.646 209.233,372.874 210.331,373.892 211.428,374.699 212.526,375.296 213.624,375.682 214.722,375.857 215.82,375.869 216.918,375.869 218.016,375.869 
  219.114,375.869 220.211,375.869 221.309,375.869 222.407,375.869 223.505,375.869 224.603,375.869 225.701,375.869 226.799,375.869 227.897,375.869 228.994,375.869 
  230.092,375.869 231.19,375.869 232.288,375.869 233.386,375.869 234.484,375.869 235.582,375.869 236.68,375.869 237.777,375.869 238.875,375.869 239.973,375.869 
  241.071,375.869 242.169,375.869 243.267,375.869 244.365,375.869 245.463,375.869 246.56,375.869 247.658,375.869 248.756,375.869 249.854,375.869 250.952,375.869 
  252.05,375.869 253.148,375.869 254.246,375.869 255.343,375.869 256.441,375.869 257.539,375.869 258.637,375.869 259.735,375.869 260.833,375.869 261.931,375.869 
  263.029,375.869 264.126,375.869 265.224,375.869 266.322,375.869 267.42,375.869 268.518,375.869 269.616,375.869 270.714,375.869 271.812,375.869 272.909,375.869 
  274.007,375.869 275.105,375.869 276.203,375.869 277.301,375.869 278.399,375.869 279.497,375.869 280.595,375.869 281.693,375.869 282.79,375.869 283.888,375.869 
  284.986,375.869 286.084,375.869 287.182,375.869 288.28,375.869 289.378,375.869 290.476,375.869 291.573,375.869 292.671,375.869 293.769,375.869 294.867,375.869 
  295.965,375.869 297.063,375.869 298.161,375.869 299.259,375.869 300.356,375.869 301.454,375.869 302.552,375.869 303.65,375.869 304.748,375.869 305.846,375.869 
  306.944,375.869 308.042,375.869 309.139,375.869 310.237,375.869 311.335,375.869 312.433,375.869 313.531,375.869 314.629,375.869 315.727,375.869 316.825,375.869 
  317.922,375.869 319.02,375.869 320.118,375.869 321.216,375.869 322.314,375.869 323.412,375.869 324.51,375.869 325.608,375.869 326.705,375.869 327.803,375.869 
  328.901,375.869 329.999,375.869 331.097,375.869 332.195,375.869 333.293,375.869 334.391,375.869 335.488,375.869 336.586,375.869 337.684,375.869 338.782,375.869 
  339.88,375.869 340.978,375.869 342.076,375.869 343.174,375.869 344.271,375.869 345.369,375.869 346.467,375.869 347.565,375.869 348.663,375.869 349.761,375.869 
  350.859,375.869 351.957,375.869 353.054,375.869 354.152,375.869 355.25,375.869 356.348,375.869 357.446,375.869 358.544,375.869 359.642,375.869 360.74,375.869 
  361.837,375.869 362.935,375.869 364.033,375.869 365.131,375.869 366.229,375.869 367.327,375.869 368.425,375.869 369.523,375.869 370.621,375.869 371.718,375.869 
  372.816,375.869 373.914,375.869 375.012,375.869 376.11,375.869 377.208,375.869 378.306,375.869 379.404,375.869 380.501,375.869 381.599,375.869 382.697,375.869 
  383.795,375.869 384.893,375.869 385.991,375.869 387.089,375.869 388.187,375.869 389.284,375.869 390.382,375.869 391.48,375.869 392.578,375.869 393.676,375.869 
  394.774,375.869 395.872,375.869 396.97,375.869 398.067,375.869 399.165,375.869 400.263,375.869 401.361,375.869 402.459,375.869 403.557,375.869 404.655,375.869 
  405.753,375.869 406.85,375.869 407.948,375.869 409.046,375.869 410.144,375.869 411.242,375.869 412.34,375.869 413.438,375.869 414.536,375.869 415.633,375.869 
  416.731,375.869 417.829,375.869 418.927,375.869 420.025,375.869 421.123,375.869 422.221,375.869 423.319,375.869 424.416,375.869 425.514,375.869 426.612,375.869 
  427.71,375.869 428.808,375.869 429.906,375.869 431.004,375.869 432.102,375.869 433.199,375.869 434.297,375.869 435.395,375.869 436.493,375.869 437.591,375.869 
  438.689,375.869 439.787,375.869 440.885,375.869 441.982,375.869 443.08,375.869 444.178,375.869 445.276,375.869 446.374,375.869 447.472,375.869 448.57,375.869 
  449.668,375.869 450.766,375.869 451.863,375.869 452.961,375.869 454.059,375.869 455.157,375.869 456.255,375.869 457.353,375.869 458.451,375.869 459.549,375.869 
  460.646,375.869 461.744,375.869 462.842,375.869 463.94,375.869 465.038,375.869 466.136,375.869 467.234,375.869 468.332,375.869 469.429,375.869 470.527,375.869 
  471.625,375.869 472.723,375.869 473.821,375.869 474.919,375.869 476.017,375.869 477.115,375.869 478.212,375.869 479.31,375.869 480.408,375.869 481.506,375.869 
  482.604,375.869 483.702,375.869 484.8,375.869 485.898,375.869 486.995,375.869 488.093,375.869 489.191,375.869 490.289,375.869 491.387,375.869 492.485,375.869 
  493.583,375.869 494.681,375.869 495.778,375.869 496.876,375.869 497.974,375.869 499.072,375.869 500.17,375.869 501.268,375.869 502.366,375.869 503.464,375.869 
  504.561,375.869 505.659,375.869 506.757,375.869 507.855,375.869 508.953,375.869 510.051,375.869 511.149,375.869 512.247,375.869 513.344,375.869 514.442,375.869 
  515.54,375.869 516.638,375.869 517.736,375.869 518.834,375.869 519.932,375.869 521.03,375.869 522.127,375.869 523.225,375.869 524.323,375.869 525.421,375.869 
  526.519,375.869 527.617,375.869 528.715,375.869 529.813,375.869 530.911,375.869 532.008,375.869 533.106,375.869 534.204,375.869 535.302,375.869 536.4,375.869 
  537.498,375.869 538.596,375.869 539.694,375.869 540.791,375.869 541.889,375.869 542.987,375.869 544.085,375.869 545.183,375.869 546.281,375.869 547.379,375.869 
  548.477,375.869 549.574,375.869 550.672,375.869 551.77,375.869 552.868,375.869 553.966,375.869 555.064,375.869 556.162,375.869 557.26,375.869 558.357,375.869 
  559.455,375.869 560.553,375.869 561.651,375.869 562.749,375.869 563.847,375.869 564.945,375.869 566.043,375.869 567.14,375.869 568.238,375.869 569.336,375.869 
  570.434,375.869 571.532,375.869 572.63,375.869 573.728,375.869 574.826,375.869 575.923,375.869 577.021,375.869 578.119,375.869 579.217,375.869 580.315,375.869 
  
  "/>
<polyline clip-path="url(#clip4902)" style="stroke:#c271d2; stroke-width:1; stroke-opacity:1; fill:none" points="
  32.4745,375.869 33.5724,375.869 34.6702,375.869 35.7681,375.869 36.866,375.869 37.9639,375.869 39.0618,375.869 40.1596,375.869 41.2575,375.869 42.3554,375.869 
  43.4533,375.869 44.5511,375.869 45.649,375.869 46.7469,375.869 47.8448,375.869 48.9426,375.869 50.0405,375.869 51.1384,375.869 52.2363,375.869 53.3342,375.869 
  54.432,375.869 55.5299,375.869 56.6278,375.869 57.7257,375.869 58.8235,375.869 59.9214,375.869 61.0193,375.869 62.1172,375.869 63.215,375.869 64.3129,375.869 
  65.4108,375.869 66.5087,375.869 67.6065,375.869 68.7044,375.869 69.8023,375.869 70.9002,375.869 71.9981,375.869 73.0959,375.869 74.1938,375.869 75.2917,375.869 
  76.3896,375.869 77.4874,375.869 78.5853,375.869 79.6832,375.866 80.7811,375.857 81.8789,375.835 82.9768,375.796 84.0747,375.735 85.1726,375.646 86.2705,375.524 
  87.3683,375.366 88.4662,375.164 89.5641,374.915 90.662,374.613 91.7598,374.253 92.8577,373.831 93.9556,373.34 95.0535,372.777 96.1513,372.135 97.2492,371.411 
  98.3471,370.598 99.445,369.692 100.543,368.687 101.641,367.579 102.739,366.363 103.836,365.033 104.934,363.585 106.032,362.013 107.13,360.313 108.228,358.478 
  109.326,356.505 110.424,354.388 111.522,352.122 112.619,349.702 113.717,347.123 114.815,344.38 115.913,341.468 117.011,338.381 118.109,335.115 119.207,331.665 
  120.305,328.025 121.403,324.191 122.5,320.157 123.598,315.919 124.696,311.473 125.794,306.829 126.892,302.002 127.99,297.008 129.088,291.861 130.186,286.578 
  131.283,281.172 132.381,275.66 133.479,270.056 134.577,264.376 135.675,258.634 136.773,252.847 137.871,247.028 138.969,241.195 140.066,235.36 141.164,229.541 
  142.262,223.751 143.36,218.007 144.458,212.323 145.556,206.714 146.654,201.196 147.752,195.785 148.849,190.494 149.947,185.339 151.045,180.336 152.143,175.5 
  153.241,170.845 154.339,166.388 155.437,162.142 156.535,158.124 157.632,154.349 158.73,150.832 159.828,147.587 160.926,144.631 162.024,141.978 163.122,139.643 
  164.22,137.643 165.318,135.991 166.415,134.703 167.513,133.795 168.611,133.281 169.709,133.177 170.807,133.488 171.905,134.201 173.003,135.3 174.101,136.772 
  175.198,138.6 176.296,140.77 177.394,143.265 178.492,146.072 179.59,149.174 180.688,152.557 181.786,156.205 182.884,160.104 183.981,164.237 185.079,168.591 
  186.177,173.149 187.275,177.896 188.373,182.818 189.471,187.898 190.569,193.123 191.667,198.476 192.764,203.943 193.862,209.508 194.96,215.156 196.058,220.873 
  197.156,226.641 198.254,232.448 199.352,238.277 200.45,244.113 201.548,249.941 202.645,255.745 203.743,261.512 204.841,267.224 205.939,272.868 207.037,278.428 
  208.135,283.889 209.233,289.236 210.331,294.453 211.428,299.525 212.526,304.437 213.624,309.175 214.722,313.722 215.82,318.064 216.918,322.2 218.016,326.133 
  219.114,329.869 220.211,333.414 221.309,336.771 222.407,339.947 223.505,342.946 224.603,345.773 225.701,348.433 226.799,350.932 227.897,353.274 228.994,355.465 
  230.092,357.51 231.19,359.413 232.288,361.179 233.386,362.815 234.484,364.325 235.582,365.713 236.68,366.985 237.777,368.147 238.875,369.202 239.973,370.157 
  241.071,371.015 242.169,371.784 243.267,372.466 244.365,373.068 245.463,373.594 246.56,374.05 247.658,374.441 248.756,374.771 249.854,375.046 250.952,375.27 
  252.05,375.45 253.148,375.589 254.246,375.694 255.343,375.768 256.441,375.818 257.539,375.848 258.637,375.863 259.735,375.868 260.833,375.869 261.931,375.869 
  263.029,375.869 264.126,375.869 265.224,375.869 266.322,375.869 267.42,375.869 268.518,375.869 269.616,375.869 270.714,375.869 271.812,375.869 272.909,375.869 
  274.007,375.869 275.105,375.869 276.203,375.869 277.301,375.869 278.399,375.869 279.497,375.869 280.595,375.869 281.693,375.869 282.79,375.869 283.888,375.869 
  284.986,375.869 286.084,375.869 287.182,375.869 288.28,375.869 289.378,375.869 290.476,375.869 291.573,375.869 292.671,375.869 293.769,375.869 294.867,375.869 
  295.965,375.869 297.063,375.869 298.161,375.869 299.259,375.869 300.356,375.869 301.454,375.869 302.552,375.869 303.65,375.869 304.748,375.869 305.846,375.869 
  306.944,375.869 308.042,375.869 309.139,375.869 310.237,375.869 311.335,375.869 312.433,375.869 313.531,375.869 314.629,375.869 315.727,375.869 316.825,375.869 
  317.922,375.869 319.02,375.869 320.118,375.869 321.216,375.869 322.314,375.869 323.412,375.869 324.51,375.869 325.608,375.869 326.705,375.869 327.803,375.869 
  328.901,375.869 329.999,375.869 331.097,375.869 332.195,375.869 333.293,375.869 334.391,375.869 335.488,375.869 336.586,375.869 337.684,375.869 338.782,375.869 
  339.88,375.869 340.978,375.869 342.076,375.869 343.174,375.869 344.271,375.869 345.369,375.869 346.467,375.869 347.565,375.869 348.663,375.869 349.761,375.869 
  350.859,375.869 351.957,375.869 353.054,375.869 354.152,375.869 355.25,375.869 356.348,375.869 357.446,375.869 358.544,375.869 359.642,375.869 360.74,375.869 
  361.837,375.869 362.935,375.869 364.033,375.869 365.131,375.869 366.229,375.869 367.327,375.869 368.425,375.869 369.523,375.869 370.621,375.869 371.718,375.869 
  372.816,375.869 373.914,375.869 375.012,375.869 376.11,375.869 377.208,375.869 378.306,375.869 379.404,375.869 380.501,375.869 381.599,375.869 382.697,375.869 
  383.795,375.869 384.893,375.869 385.991,375.869 387.089,375.869 388.187,375.869 389.284,375.869 390.382,375.869 391.48,375.869 392.578,375.869 393.676,375.869 
  394.774,375.869 395.872,375.869 396.97,375.869 398.067,375.869 399.165,375.869 400.263,375.869 401.361,375.869 402.459,375.869 403.557,375.869 404.655,375.869 
  405.753,375.869 406.85,375.869 407.948,375.869 409.046,375.869 410.144,375.869 411.242,375.869 412.34,375.869 413.438,375.869 414.536,375.869 415.633,375.869 
  416.731,375.869 417.829,375.869 418.927,375.869 420.025,375.869 421.123,375.869 422.221,375.869 423.319,375.869 424.416,375.869 425.514,375.869 426.612,375.869 
  427.71,375.869 428.808,375.869 429.906,375.869 431.004,375.869 432.102,375.869 433.199,375.869 434.297,375.869 435.395,375.869 436.493,375.869 437.591,375.869 
  438.689,375.869 439.787,375.869 440.885,375.869 441.982,375.869 443.08,375.869 444.178,375.869 445.276,375.869 446.374,375.869 447.472,375.869 448.57,375.869 
  449.668,375.869 450.766,375.869 451.863,375.869 452.961,375.869 454.059,375.869 455.157,375.869 456.255,375.869 457.353,375.869 458.451,375.869 459.549,375.869 
  460.646,375.869 461.744,375.869 462.842,375.869 463.94,375.869 465.038,375.869 466.136,375.869 467.234,375.869 468.332,375.869 469.429,375.869 470.527,375.869 
  471.625,375.869 472.723,375.869 473.821,375.869 474.919,375.869 476.017,375.869 477.115,375.869 478.212,375.869 479.31,375.869 480.408,375.869 481.506,375.869 
  482.604,375.869 483.702,375.869 484.8,375.869 485.898,375.869 486.995,375.869 488.093,375.869 489.191,375.869 490.289,375.869 491.387,375.869 492.485,375.869 
  493.583,375.869 494.681,375.869 495.778,375.869 496.876,375.869 497.974,375.869 499.072,375.869 500.17,375.869 501.268,375.869 502.366,375.869 503.464,375.869 
  504.561,375.869 505.659,375.869 506.757,375.869 507.855,375.869 508.953,375.869 510.051,375.869 511.149,375.869 512.247,375.869 513.344,375.869 514.442,375.869 
  515.54,375.869 516.638,375.869 517.736,375.869 518.834,375.869 519.932,375.869 521.03,375.869 522.127,375.869 523.225,375.869 524.323,375.869 525.421,375.869 
  526.519,375.869 527.617,375.869 528.715,375.869 529.813,375.869 530.911,375.869 532.008,375.869 533.106,375.869 534.204,375.869 535.302,375.869 536.4,375.869 
  537.498,375.869 538.596,375.869 539.694,375.869 540.791,375.869 541.889,375.869 542.987,375.869 544.085,375.869 545.183,375.869 546.281,375.869 547.379,375.869 
  548.477,375.869 549.574,375.869 550.672,375.869 551.77,375.869 552.868,375.869 553.966,375.869 555.064,375.869 556.162,375.869 557.26,375.869 558.357,375.869 
  559.455,375.869 560.553,375.869 561.651,375.869 562.749,375.869 563.847,375.869 564.945,375.869 566.043,375.869 567.14,375.869 568.238,375.869 569.336,375.869 
  570.434,375.869 571.532,375.869 572.63,375.869 573.728,375.869 574.826,375.869 575.923,375.869 577.021,375.869 578.119,375.869 579.217,375.869 580.315,375.869 
  
  "/>
<polyline clip-path="url(#clip4902)" style="stroke:#ac8d18; stroke-width:1; stroke-opacity:1; fill:none" points="
  32.4745,375.869 33.5724,375.869 34.6702,375.869 35.7681,375.869 36.866,375.869 37.9639,375.869 39.0618,375.869 40.1596,375.869 41.2575,375.869 42.3554,375.869 
  43.4533,375.869 44.5511,375.869 45.649,375.869 46.7469,375.869 47.8448,375.869 48.9426,375.869 50.0405,375.869 51.1384,375.869 52.2363,375.869 53.3342,375.869 
  54.432,375.869 55.5299,375.869 56.6278,375.869 57.7257,375.869 58.8235,375.869 59.9214,375.869 61.0193,375.869 62.1172,375.869 63.215,375.869 64.3129,375.869 
  65.4108,375.869 66.5087,375.869 67.6065,375.869 68.7044,375.869 69.8023,375.869 70.9002,375.869 71.9981,375.869 73.0959,375.869 74.1938,375.869 75.2917,375.869 
  76.3896,375.869 77.4874,375.869 78.5853,375.869 79.6832,375.869 80.7811,375.869 81.8789,375.868 82.9768,375.867 84.0747,375.864 85.1726,375.86 86.2705,375.853 
  87.3683,375.843 88.4662,375.829 89.5641,375.809 90.662,375.782 91.7598,375.748 92.8577,375.704 93.9556,375.65 95.0535,375.582 96.1513,375.5 97.2492,375.402 
  98.3471,375.285 99.445,375.148 100.543,374.987 101.641,374.801 102.739,374.588 103.836,374.343 104.934,374.066 106.032,373.752 107.13,373.398 108.228,373.002 
  109.326,372.561 110.424,372.07 111.522,371.526 112.619,370.926 113.717,370.267 114.815,369.543 115.913,368.751 117.011,367.887 118.109,366.946 119.207,365.925 
  120.305,364.819 121.403,363.622 122.5,362.332 123.598,360.941 124.696,359.447 125.794,357.843 126.892,356.125 127.99,354.29 129.088,352.333 130.186,350.253 
  131.283,348.046 132.381,345.711 133.479,343.245 134.577,340.649 135.675,337.922 136.773,335.062 137.871,332.072 138.969,328.952 140.066,325.703 141.164,322.327 
  142.262,318.827 143.36,315.205 144.458,311.466 145.556,307.612 146.654,303.648 147.752,299.58 148.849,295.411 149.947,291.149 151.045,286.799 152.143,282.368 
  153.241,277.864 154.339,273.294 155.437,268.667 156.535,263.991 157.632,259.275 158.73,254.53 159.828,249.764 160.926,244.99 162.024,240.218 163.122,235.46 
  164.22,230.728 165.318,226.035 166.415,221.393 167.513,216.817 168.611,212.321 169.709,207.918 170.807,203.624 171.905,199.454 173.003,195.422 174.101,191.54 
  175.198,187.821 176.296,184.278 177.394,180.92 178.492,177.758 179.59,174.802 180.688,172.06 181.786,169.541 182.884,167.252 183.981,165.199 185.079,163.389 
  186.177,161.826 187.275,160.515 188.373,159.459 189.471,158.662 190.569,158.126 191.667,157.852 192.764,157.841 193.862,158.093 194.96,158.607 196.058,159.383 
  197.156,160.417 198.254,161.707 199.352,163.249 200.45,165.039 201.548,167.072 202.645,169.341 203.743,171.842 204.841,174.565 205.939,177.504 207.037,180.649 
  208.135,183.99 209.233,187.519 210.331,191.224 211.428,195.092 212.526,199.113 213.624,203.272 214.722,207.556 215.82,211.95 216.918,216.439 218.016,221.009 
  219.114,225.646 220.211,230.336 221.309,235.065 222.407,239.821 223.505,244.592 224.603,249.367 225.701,254.133 226.799,258.881 227.897,263.599 228.994,268.279 
  230.092,272.911 231.19,277.486 232.288,281.996 233.386,286.433 234.484,290.79 235.582,295.06 236.68,299.236 237.777,303.313 238.875,307.286 239.973,311.149 
  241.071,314.898 242.169,318.53 243.267,322.04 244.365,325.426 245.463,328.686 246.56,331.817 247.658,334.818 248.756,337.688 249.854,340.427 250.952,343.034 
  252.05,345.51 253.148,347.856 254.246,350.074 255.343,352.165 256.441,354.131 257.539,355.977 258.637,357.704 259.735,359.317 260.833,360.821 261.931,362.22 
  263.029,363.519 264.126,364.723 265.224,365.836 266.322,366.864 267.42,367.811 268.518,368.682 269.616,369.479 270.714,370.209 271.812,370.874 272.909,371.479 
  274.007,372.027 275.105,372.522 276.203,372.967 277.301,373.367 278.399,373.724 279.497,374.041 280.595,374.321 281.693,374.568 282.79,374.785 283.888,374.973 
  284.986,375.135 286.084,375.274 287.182,375.393 288.28,375.493 289.378,375.576 290.476,375.644 291.573,375.7 292.671,375.745 293.769,375.78 294.867,375.807 
  295.965,375.827 297.063,375.842 298.161,375.853 299.259,375.86 300.356,375.864 301.454,375.867 302.552,375.868 303.65,375.868 304.748,375.869 305.846,375.869 
  306.944,375.869 308.042,375.869 309.139,375.869 310.237,375.869 311.335,375.869 312.433,375.869 313.531,375.869 314.629,375.869 315.727,375.869 316.825,375.869 
  317.922,375.869 319.02,375.869 320.118,375.869 321.216,375.869 322.314,375.869 323.412,375.869 324.51,375.869 325.608,375.869 326.705,375.869 327.803,375.869 
  328.901,375.869 329.999,375.869 331.097,375.869 332.195,375.869 333.293,375.869 334.391,375.869 335.488,375.869 336.586,375.869 337.684,375.869 338.782,375.869 
  339.88,375.869 340.978,375.869 342.076,375.869 343.174,375.869 344.271,375.869 345.369,375.869 346.467,375.869 347.565,375.869 348.663,375.869 349.761,375.869 
  350.859,375.869 351.957,375.869 353.054,375.869 354.152,375.869 355.25,375.869 356.348,375.869 357.446,375.869 358.544,375.869 359.642,375.869 360.74,375.869 
  361.837,375.869 362.935,375.869 364.033,375.869 365.131,375.869 366.229,375.869 367.327,375.869 368.425,375.869 369.523,375.869 370.621,375.869 371.718,375.869 
  372.816,375.869 373.914,375.869 375.012,375.869 376.11,375.869 377.208,375.869 378.306,375.869 379.404,375.869 380.501,375.869 381.599,375.869 382.697,375.869 
  383.795,375.869 384.893,375.869 385.991,375.869 387.089,375.869 388.187,375.869 389.284,375.869 390.382,375.869 391.48,375.869 392.578,375.869 393.676,375.869 
  394.774,375.869 395.872,375.869 396.97,375.869 398.067,375.869 399.165,375.869 400.263,375.869 401.361,375.869 402.459,375.869 403.557,375.869 404.655,375.869 
  405.753,375.869 406.85,375.869 407.948,375.869 409.046,375.869 410.144,375.869 411.242,375.869 412.34,375.869 413.438,375.869 414.536,375.869 415.633,375.869 
  416.731,375.869 417.829,375.869 418.927,375.869 420.025,375.869 421.123,375.869 422.221,375.869 423.319,375.869 424.416,375.869 425.514,375.869 426.612,375.869 
  427.71,375.869 428.808,375.869 429.906,375.869 431.004,375.869 432.102,375.869 433.199,375.869 434.297,375.869 435.395,375.869 436.493,375.869 437.591,375.869 
  438.689,375.869 439.787,375.869 440.885,375.869 441.982,375.869 443.08,375.869 444.178,375.869 445.276,375.869 446.374,375.869 447.472,375.869 448.57,375.869 
  449.668,375.869 450.766,375.869 451.863,375.869 452.961,375.869 454.059,375.869 455.157,375.869 456.255,375.869 457.353,375.869 458.451,375.869 459.549,375.869 
  460.646,375.869 461.744,375.869 462.842,375.869 463.94,375.869 465.038,375.869 466.136,375.869 467.234,375.869 468.332,375.869 469.429,375.869 470.527,375.869 
  471.625,375.869 472.723,375.869 473.821,375.869 474.919,375.869 476.017,375.869 477.115,375.869 478.212,375.869 479.31,375.869 480.408,375.869 481.506,375.869 
  482.604,375.869 483.702,375.869 484.8,375.869 485.898,375.869 486.995,375.869 488.093,375.869 489.191,375.869 490.289,375.869 491.387,375.869 492.485,375.869 
  493.583,375.869 494.681,375.869 495.778,375.869 496.876,375.869 497.974,375.869 499.072,375.869 500.17,375.869 501.268,375.869 502.366,375.869 503.464,375.869 
  504.561,375.869 505.659,375.869 506.757,375.869 507.855,375.869 508.953,375.869 510.051,375.869 511.149,375.869 512.247,375.869 513.344,375.869 514.442,375.869 
  515.54,375.869 516.638,375.869 517.736,375.869 518.834,375.869 519.932,375.869 521.03,375.869 522.127,375.869 523.225,375.869 524.323,375.869 525.421,375.869 
  526.519,375.869 527.617,375.869 528.715,375.869 529.813,375.869 530.911,375.869 532.008,375.869 533.106,375.869 534.204,375.869 535.302,375.869 536.4,375.869 
  537.498,375.869 538.596,375.869 539.694,375.869 540.791,375.869 541.889,375.869 542.987,375.869 544.085,375.869 545.183,375.869 546.281,375.869 547.379,375.869 
  548.477,375.869 549.574,375.869 550.672,375.869 551.77,375.869 552.868,375.869 553.966,375.869 555.064,375.869 556.162,375.869 557.26,375.869 558.357,375.869 
  559.455,375.869 560.553,375.869 561.651,375.869 562.749,375.869 563.847,375.869 564.945,375.869 566.043,375.869 567.14,375.869 568.238,375.869 569.336,375.869 
  570.434,375.869 571.532,375.869 572.63,375.869 573.728,375.869 574.826,375.869 575.923,375.869 577.021,375.869 578.119,375.869 579.217,375.869 580.315,375.869 
  
  "/>
<polyline clip-path="url(#clip4902)" style="stroke:#00a9ad; stroke-width:1; stroke-opacity:1; fill:none" points="
  32.4745,375.869 33.5724,375.869 34.6702,375.869 35.7681,375.869 36.866,375.869 37.9639,375.869 39.0618,375.869 40.1596,375.869 41.2575,375.869 42.3554,375.869 
  43.4533,375.869 44.5511,375.869 45.649,375.869 46.7469,375.869 47.8448,375.869 48.9426,375.869 50.0405,375.869 51.1384,375.869 52.2363,375.869 53.3342,375.869 
  54.432,375.869 55.5299,375.869 56.6278,375.869 57.7257,375.869 58.8235,375.869 59.9214,375.869 61.0193,375.869 62.1172,375.869 63.215,375.869 64.3129,375.869 
  65.4108,375.869 66.5087,375.869 67.6065,375.869 68.7044,375.869 69.8023,375.869 70.9002,375.869 71.9981,375.869 73.0959,375.869 74.1938,375.869 75.2917,375.869 
  76.3896,375.869 77.4874,375.869 78.5853,375.869 79.6832,375.869 80.7811,375.869 81.8789,375.869 82.9768,375.869 84.0747,375.869 85.1726,375.868 86.2705,375.868 
  87.3683,375.868 88.4662,375.867 89.5641,375.866 90.662,375.864 91.7598,375.861 92.8577,375.858 93.9556,375.853 95.0535,375.847 96.1513,375.84 97.2492,375.83 
  98.3471,375.817 99.445,375.801 100.543,375.782 101.641,375.759 102.739,375.731 103.836,375.697 104.934,375.657 106.032,375.61 107.13,375.555 108.228,375.491 
  109.326,375.417 110.424,375.331 111.522,375.233 112.619,375.122 113.717,374.995 114.815,374.852 115.913,374.69 117.011,374.509 118.109,374.306 119.207,374.079 
  120.305,373.827 121.403,373.547 122.5,373.237 123.598,372.895 124.696,372.518 125.794,372.104 126.892,371.651 127.99,371.154 129.088,370.612 130.186,370.021 
  131.283,369.379 132.381,368.682 133.479,367.928 134.577,367.114 135.675,366.236 136.773,365.291 137.871,364.277 138.969,363.19 140.066,362.028 141.164,360.788 
  142.262,359.468 143.36,358.064 144.458,356.574 145.556,354.996 146.654,353.328 147.752,351.568 148.849,349.714 149.947,347.764 151.045,345.717 152.143,343.573 
  153.241,341.329 154.339,338.985 155.437,336.542 156.535,333.998 157.632,331.354 158.73,328.611 159.828,325.769 160.926,322.83 162.024,319.795 163.122,316.666 
  164.22,313.445 165.318,310.135 166.415,306.739 167.513,303.262 168.611,299.705 169.709,296.075 170.807,292.377 171.905,288.614 173.003,284.794 174.101,280.923 
  175.198,277.008 176.296,273.054 177.394,269.071 178.492,265.065 179.59,261.044 180.688,257.017 181.786,252.992 182.884,248.978 183.981,244.984 185.079,241.017 
  186.177,237.088 187.275,233.205 188.373,229.378 189.471,225.615 190.569,221.926 191.667,218.32 192.764,214.805 193.862,211.391 194.96,208.086 196.058,204.899 
  197.156,201.838 198.254,198.911 199.352,196.127 200.45,193.492 201.548,191.015 202.645,188.702 203.743,186.559 204.841,184.593 205.939,182.81 207.037,181.215 
  208.135,179.813 209.233,178.608 210.331,177.603 211.428,176.803 212.526,176.209 213.624,175.824 214.722,175.649 215.82,175.684 216.918,175.929 218.016,176.384 
  219.114,177.047 220.211,177.916 221.309,178.987 222.407,180.259 223.505,181.726 224.603,183.384 225.701,185.229 226.799,187.254 227.897,189.454 228.994,191.823 
  230.092,194.353 231.19,197.039 232.288,199.871 233.386,202.844 234.484,205.947 235.582,209.175 236.68,212.517 237.777,215.966 238.875,219.512 239.973,223.147 
  241.071,226.862 242.169,230.647 243.267,234.494 244.365,238.393 245.463,242.336 246.56,246.312 247.658,250.315 248.756,254.333 249.854,258.36 250.952,262.386 
  252.05,266.402 253.148,270.402 254.246,274.376 255.343,278.317 256.441,282.219 257.539,286.074 258.637,289.875 259.735,293.617 260.833,297.293 261.931,300.899 
  263.029,304.43 264.126,307.881 265.224,311.248 266.322,314.528 267.42,317.719 268.518,320.817 269.616,323.82 270.714,326.727 271.812,329.536 272.909,332.247 
  274.007,334.857 275.105,337.367 276.203,339.778 277.301,342.088 278.399,344.299 279.497,346.411 280.595,348.425 281.693,350.342 282.79,352.165 283.888,353.894 
  284.986,355.532 286.084,357.08 287.182,358.541 288.28,359.917 289.378,361.211 290.476,362.424 291.573,363.561 292.671,364.623 293.769,365.614 294.867,366.536 
  295.965,367.392 297.063,368.186 298.161,368.921 299.259,369.599 300.356,370.224 301.454,370.798 302.552,371.324 303.65,371.806 304.748,372.247 305.846,372.648 
  306.944,373.013 308.042,373.344 309.139,373.644 310.237,373.914 311.335,374.158 312.433,374.376 313.531,374.572 314.629,374.746 315.727,374.902 316.825,375.039 
  317.922,375.161 319.02,375.267 320.118,375.361 321.216,375.442 322.314,375.513 323.412,375.574 324.51,375.626 325.608,375.671 326.705,375.709 327.803,375.741 
  328.901,375.767 329.999,375.789 331.097,375.807 332.195,375.821 333.293,375.833 334.391,375.842 335.488,375.85 336.586,375.855 337.684,375.859 338.782,375.862 
  339.88,375.865 340.978,375.866 342.076,375.867 343.174,375.868 344.271,375.868 345.369,375.868 346.467,375.869 347.565,375.869 348.663,375.869 349.761,375.869 
  350.859,375.869 351.957,375.869 353.054,375.869 354.152,375.869 355.25,375.869 356.348,375.869 357.446,375.869 358.544,375.869 359.642,375.869 360.74,375.869 
  361.837,375.869 362.935,375.869 364.033,375.869 365.131,375.869 366.229,375.869 367.327,375.869 368.425,375.869 369.523,375.869 370.621,375.869 371.718,375.869 
  372.816,375.869 373.914,375.869 375.012,375.869 376.11,375.869 377.208,375.869 378.306,375.869 379.404,375.869 380.501,375.869 381.599,375.869 382.697,375.869 
  383.795,375.869 384.893,375.869 385.991,375.869 387.089,375.869 388.187,375.869 389.284,375.869 390.382,375.869 391.48,375.869 392.578,375.869 393.676,375.869 
  394.774,375.869 395.872,375.869 396.97,375.869 398.067,375.869 399.165,375.869 400.263,375.869 401.361,375.869 402.459,375.869 403.557,375.869 404.655,375.869 
  405.753,375.869 406.85,375.869 407.948,375.869 409.046,375.869 410.144,375.869 411.242,375.869 412.34,375.869 413.438,375.869 414.536,375.869 415.633,375.869 
  416.731,375.869 417.829,375.869 418.927,375.869 420.025,375.869 421.123,375.869 422.221,375.869 423.319,375.869 424.416,375.869 425.514,375.869 426.612,375.869 
  427.71,375.869 428.808,375.869 429.906,375.869 431.004,375.869 432.102,375.869 433.199,375.869 434.297,375.869 435.395,375.869 436.493,375.869 437.591,375.869 
  438.689,375.869 439.787,375.869 440.885,375.869 441.982,375.869 443.08,375.869 444.178,375.869 445.276,375.869 446.374,375.869 447.472,375.869 448.57,375.869 
  449.668,375.869 450.766,375.869 451.863,375.869 452.961,375.869 454.059,375.869 455.157,375.869 456.255,375.869 457.353,375.869 458.451,375.869 459.549,375.869 
  460.646,375.869 461.744,375.869 462.842,375.869 463.94,375.869 465.038,375.869 466.136,375.869 467.234,375.869 468.332,375.869 469.429,375.869 470.527,375.869 
  471.625,375.869 472.723,375.869 473.821,375.869 474.919,375.869 476.017,375.869 477.115,375.869 478.212,375.869 479.31,375.869 480.408,375.869 481.506,375.869 
  482.604,375.869 483.702,375.869 484.8,375.869 485.898,375.869 486.995,375.869 488.093,375.869 489.191,375.869 490.289,375.869 491.387,375.869 492.485,375.869 
  493.583,375.869 494.681,375.869 495.778,375.869 496.876,375.869 497.974,375.869 499.072,375.869 500.17,375.869 501.268,375.869 502.366,375.869 503.464,375.869 
  504.561,375.869 505.659,375.869 506.757,375.869 507.855,375.869 508.953,375.869 510.051,375.869 511.149,375.869 512.247,375.869 513.344,375.869 514.442,375.869 
  515.54,375.869 516.638,375.869 517.736,375.869 518.834,375.869 519.932,375.869 521.03,375.869 522.127,375.869 523.225,375.869 524.323,375.869 525.421,375.869 
  526.519,375.869 527.617,375.869 528.715,375.869 529.813,375.869 530.911,375.869 532.008,375.869 533.106,375.869 534.204,375.869 535.302,375.869 536.4,375.869 
  537.498,375.869 538.596,375.869 539.694,375.869 540.791,375.869 541.889,375.869 542.987,375.869 544.085,375.869 545.183,375.869 546.281,375.869 547.379,375.869 
  548.477,375.869 549.574,375.869 550.672,375.869 551.77,375.869 552.868,375.869 553.966,375.869 555.064,375.869 556.162,375.869 557.26,375.869 558.357,375.869 
  559.455,375.869 560.553,375.869 561.651,375.869 562.749,375.869 563.847,375.869 564.945,375.869 566.043,375.869 567.14,375.869 568.238,375.869 569.336,375.869 
  570.434,375.869 571.532,375.869 572.63,375.869 573.728,375.869 574.826,375.869 575.923,375.869 577.021,375.869 578.119,375.869 579.217,375.869 580.315,375.869 
  
  "/>
<polyline clip-path="url(#clip4902)" style="stroke:#ed5d92; stroke-width:1; stroke-opacity:1; fill:none" points="
  32.4745,375.869 33.5724,375.869 34.6702,375.869 35.7681,375.869 36.866,375.869 37.9639,375.869 39.0618,375.869 40.1596,375.869 41.2575,375.869 42.3554,375.869 
  43.4533,375.869 44.5511,375.869 45.649,375.869 46.7469,375.869 47.8448,375.869 48.9426,375.869 50.0405,375.869 51.1384,375.869 52.2363,375.869 53.3342,375.869 
  54.432,375.869 55.5299,375.869 56.6278,375.869 57.7257,375.869 58.8235,375.869 59.9214,375.869 61.0193,375.869 62.1172,375.869 63.215,375.869 64.3129,375.869 
  65.4108,375.869 66.5087,375.869 67.6065,375.869 68.7044,375.869 69.8023,375.869 70.9002,375.869 71.9981,375.869 73.0959,375.869 74.1938,375.869 75.2917,375.869 
  76.3896,375.869 77.4874,375.869 78.5853,375.869 79.6832,375.869 80.7811,375.869 81.8789,375.869 82.9768,375.869 84.0747,375.869 85.1726,375.869 86.2705,375.869 
  87.3683,375.869 88.4662,375.869 89.5641,375.869 90.662,375.868 91.7598,375.868 92.8577,375.868 93.9556,375.868 95.0535,375.867 96.1513,375.867 97.2492,375.866 
  98.3471,375.865 99.445,375.863 100.543,375.862 101.641,375.859 102.739,375.856 103.836,375.853 104.934,375.848 106.032,375.842 107.13,375.835 108.228,375.827 
  109.326,375.817 110.424,375.805 111.522,375.791 112.619,375.775 113.717,375.755 114.815,375.733 115.913,375.706 117.011,375.676 118.109,375.641 119.207,375.6 
  120.305,375.554 121.403,375.502 122.5,375.442 123.598,375.375 124.696,375.299 125.794,375.214 126.892,375.118 127.99,375.01 129.088,374.891 130.186,374.757 
  131.283,374.609 132.381,374.445 133.479,374.263 134.577,374.062 135.675,373.841 136.773,373.599 137.871,373.332 138.969,373.041 140.066,372.723 141.164,372.376 
  142.262,371.998 143.36,371.588 144.458,371.143 145.556,370.662 146.654,370.142 147.752,369.582 148.849,368.978 149.947,368.33 151.045,367.635 152.143,366.89 
  153.241,366.094 154.339,365.245 155.437,364.339 156.535,363.376 157.632,362.353 158.73,361.267 159.828,360.117 160.926,358.902 162.024,357.618 163.122,356.264 
  164.22,354.839 165.318,353.341 166.415,351.768 167.513,350.119 168.611,348.393 169.709,346.589 170.807,344.706 171.905,342.742 173.003,340.699 174.101,338.575 
  175.198,336.37 176.296,334.084 177.394,331.719 178.492,329.274 179.59,326.75 180.688,324.149 181.786,321.473 182.884,318.722 183.981,315.899 185.079,313.006 
  186.177,310.047 187.275,307.023 188.373,303.938 189.471,300.795 190.569,297.598 191.667,294.351 192.764,291.059 193.862,287.725 194.96,284.355 196.058,280.953 
  197.156,277.526 198.254,274.078 199.352,270.615 200.45,267.142 201.548,263.667 202.645,260.196 203.743,256.734 204.841,253.288 205.939,249.866 207.037,246.473 
  208.135,243.117 209.233,239.805 210.331,236.543 211.428,233.34 212.526,230.2 213.624,227.133 214.722,224.144 215.82,221.241 216.918,218.43 218.016,215.718 
  219.114,213.11 220.211,210.615 221.309,208.236 222.407,205.981 223.505,203.855 224.603,201.862 225.701,200.008 226.799,198.298 227.897,196.735 228.994,195.324 
  230.092,194.067 231.19,192.969 232.288,192.032 233.386,191.258 234.484,190.649 235.582,190.207 236.68,189.933 237.777,189.828 238.875,189.891 239.973,190.123 
  241.071,190.523 242.169,191.09 243.267,191.823 244.365,192.72 245.463,193.778 246.56,194.995 247.658,196.368 248.756,197.893 249.854,199.567 250.952,201.385 
  252.05,203.344 253.148,205.437 254.246,207.661 255.343,210.009 256.441,212.476 257.539,215.056 258.637,217.742 259.735,220.529 260.833,223.41 261.931,226.378 
  263.029,229.427 264.126,232.548 265.224,235.737 266.322,238.984 267.42,242.285 268.518,245.63 269.616,249.014 270.714,252.43 271.812,255.87 272.909,259.329 
  274.007,262.799 275.105,266.274 276.203,269.747 277.301,273.213 278.399,276.666 279.497,280.099 280.595,283.507 281.693,286.886 282.79,290.229 283.888,293.532 
  284.986,296.791 286.084,300 287.182,303.157 288.28,306.257 289.378,309.297 290.476,312.273 291.573,315.182 292.671,318.023 293.769,320.792 294.867,323.487 
  295.965,326.107 297.063,328.65 298.161,331.115 299.259,333.5 300.356,335.806 301.454,338.031 302.552,340.175 303.65,342.239 304.748,344.222 305.846,346.126 
  306.944,347.95 308.042,349.695 309.139,351.363 310.237,352.955 311.335,354.471 312.433,355.915 313.531,357.286 314.629,358.587 315.727,359.82 316.825,360.986 
  317.922,362.087 319.02,363.126 320.118,364.104 321.216,365.024 322.314,365.887 323.412,366.696 324.51,367.454 325.608,368.161 326.705,368.821 327.803,369.435 
  328.901,370.006 329.999,370.536 331.097,371.026 332.195,371.48 333.293,371.898 334.391,372.284 335.488,372.639 336.586,372.964 337.684,373.262 338.782,373.534 
  339.88,373.783 340.978,374.009 342.076,374.215 343.174,374.401 344.271,374.569 345.369,374.722 346.467,374.859 347.565,374.982 348.663,375.092 349.761,375.191 
  350.859,375.279 351.957,375.357 353.054,375.426 354.152,375.488 355.25,375.542 356.348,375.589 357.446,375.631 358.544,375.667 359.642,375.699 360.74,375.726 
  361.837,375.75 362.935,375.77 364.033,375.787 365.131,375.802 366.229,375.814 367.327,375.825 368.425,375.834 369.523,375.841 370.621,375.847 371.718,375.851 
  372.816,375.855 373.914,375.859 375.012,375.861 376.11,375.863 377.208,375.865 378.306,375.866 379.404,375.867 380.501,375.867 381.599,375.868 382.697,375.868 
  383.795,375.868 384.893,375.868 385.991,375.869 387.089,375.869 388.187,375.869 389.284,375.869 390.382,375.869 391.48,375.869 392.578,375.869 393.676,375.869 
  394.774,375.869 395.872,375.869 396.97,375.869 398.067,375.869 399.165,375.869 400.263,375.869 401.361,375.869 402.459,375.869 403.557,375.869 404.655,375.869 
  405.753,375.869 406.85,375.869 407.948,375.869 409.046,375.869 410.144,375.869 411.242,375.869 412.34,375.869 413.438,375.869 414.536,375.869 415.633,375.869 
  416.731,375.869 417.829,375.869 418.927,375.869 420.025,375.869 421.123,375.869 422.221,375.869 423.319,375.869 424.416,375.869 425.514,375.869 426.612,375.869 
  427.71,375.869 428.808,375.869 429.906,375.869 431.004,375.869 432.102,375.869 433.199,375.869 434.297,375.869 435.395,375.869 436.493,375.869 437.591,375.869 
  438.689,375.869 439.787,375.869 440.885,375.869 441.982,375.869 443.08,375.869 444.178,375.869 445.276,375.869 446.374,375.869 447.472,375.869 448.57,375.869 
  449.668,375.869 450.766,375.869 451.863,375.869 452.961,375.869 454.059,375.869 455.157,375.869 456.255,375.869 457.353,375.869 458.451,375.869 459.549,375.869 
  460.646,375.869 461.744,375.869 462.842,375.869 463.94,375.869 465.038,375.869 466.136,375.869 467.234,375.869 468.332,375.869 469.429,375.869 470.527,375.869 
  471.625,375.869 472.723,375.869 473.821,375.869 474.919,375.869 476.017,375.869 477.115,375.869 478.212,375.869 479.31,375.869 480.408,375.869 481.506,375.869 
  482.604,375.869 483.702,375.869 484.8,375.869 485.898,375.869 486.995,375.869 488.093,375.869 489.191,375.869 490.289,375.869 491.387,375.869 492.485,375.869 
  493.583,375.869 494.681,375.869 495.778,375.869 496.876,375.869 497.974,375.869 499.072,375.869 500.17,375.869 501.268,375.869 502.366,375.869 503.464,375.869 
  504.561,375.869 505.659,375.869 506.757,375.869 507.855,375.869 508.953,375.869 510.051,375.869 511.149,375.869 512.247,375.869 513.344,375.869 514.442,375.869 
  515.54,375.869 516.638,375.869 517.736,375.869 518.834,375.869 519.932,375.869 521.03,375.869 522.127,375.869 523.225,375.869 524.323,375.869 525.421,375.869 
  526.519,375.869 527.617,375.869 528.715,375.869 529.813,375.869 530.911,375.869 532.008,375.869 533.106,375.869 534.204,375.869 535.302,375.869 536.4,375.869 
  537.498,375.869 538.596,375.869 539.694,375.869 540.791,375.869 541.889,375.869 542.987,375.869 544.085,375.869 545.183,375.869 546.281,375.869 547.379,375.869 
  548.477,375.869 549.574,375.869 550.672,375.869 551.77,375.869 552.868,375.869 553.966,375.869 555.064,375.869 556.162,375.869 557.26,375.869 558.357,375.869 
  559.455,375.869 560.553,375.869 561.651,375.869 562.749,375.869 563.847,375.869 564.945,375.869 566.043,375.869 567.14,375.869 568.238,375.869 569.336,375.869 
  570.434,375.869 571.532,375.869 572.63,375.869 573.728,375.869 574.826,375.869 575.923,375.869 577.021,375.869 578.119,375.869 579.217,375.869 580.315,375.869 
  
  "/>
<polyline clip-path="url(#clip4902)" style="stroke:#c68125; stroke-width:1; stroke-opacity:1; fill:none" points="
  32.4745,375.869 33.5724,375.869 34.6702,375.869 35.7681,375.869 36.866,375.869 37.9639,375.869 39.0618,375.869 40.1596,375.869 41.2575,375.869 42.3554,375.869 
  43.4533,375.869 44.5511,375.869 45.649,375.869 46.7469,375.869 47.8448,375.869 48.9426,375.869 50.0405,375.869 51.1384,375.869 52.2363,375.869 53.3342,375.869 
  54.432,375.869 55.5299,375.869 56.6278,375.869 57.7257,375.869 58.8235,375.869 59.9214,375.869 61.0193,375.869 62.1172,375.869 63.215,375.869 64.3129,375.869 
  65.4108,375.869 66.5087,375.869 67.6065,375.869 68.7044,375.869 69.8023,375.869 70.9002,375.869 71.9981,375.869 73.0959,375.869 74.1938,375.869 75.2917,375.869 
  76.3896,375.869 77.4874,375.869 78.5853,375.869 79.6832,375.869 80.7811,375.869 81.8789,375.869 82.9768,375.869 84.0747,375.869 85.1726,375.869 86.2705,375.869 
  87.3683,375.869 88.4662,375.869 89.5641,375.869 90.662,375.869 91.7598,375.869 92.8577,375.869 93.9556,375.869 95.0535,375.869 96.1513,375.869 97.2492,375.869 
  98.3471,375.868 99.445,375.868 100.543,375.868 101.641,375.868 102.739,375.868 103.836,375.867 104.934,375.867 106.032,375.866 107.13,375.866 108.228,375.865 
  109.326,375.864 110.424,375.862 111.522,375.861 112.619,375.859 113.717,375.856 114.815,375.853 115.913,375.849 117.011,375.845 118.109,375.84 119.207,375.834 
  120.305,375.827 121.403,375.819 122.5,375.809 123.598,375.798 124.696,375.786 125.794,375.771 126.892,375.754 127.99,375.735 129.088,375.713 130.186,375.688 
  131.283,375.659 132.381,375.627 133.479,375.591 134.577,375.55 135.675,375.503 136.773,375.452 137.871,375.394 138.969,375.33 140.066,375.258 141.164,375.178 
  142.262,375.09 143.36,374.992 144.458,374.884 145.556,374.765 146.654,374.633 147.752,374.489 148.849,374.331 149.947,374.158 151.045,373.969 152.143,373.763 
  153.241,373.538 154.339,373.294 155.437,373.029 156.535,372.742 157.632,372.431 158.73,372.095 159.828,371.733 160.926,371.343 162.024,370.924 163.122,370.473 
  164.22,369.99 165.318,369.473 166.415,368.92 167.513,368.329 168.611,367.7 169.709,367.029 170.807,366.316 171.905,365.559 173.003,364.756 174.101,363.905 
  175.198,363.005 176.296,362.054 177.394,361.051 178.492,359.994 179.59,358.882 180.688,357.712 181.786,356.485 182.884,355.198 183.981,353.85 185.079,352.441 
  186.177,350.969 187.275,349.433 188.373,347.833 189.471,346.167 190.569,344.436 191.667,342.639 192.764,340.776 193.862,338.847 194.96,336.851 196.058,334.79 
  197.156,332.662 198.254,330.47 199.352,328.214 200.45,325.895 201.548,323.514 202.645,321.073 203.743,318.572 204.841,316.015 205.939,313.402 207.037,310.737 
  208.135,308.021 209.233,305.258 210.331,302.449 211.428,299.599 212.526,296.71 213.624,293.786 214.722,290.83 215.82,287.847 216.918,284.84 218.016,281.814 
  219.114,278.772 220.211,275.721 221.309,272.663 222.407,269.605 223.505,266.551 224.603,263.505 225.701,260.474 226.799,257.463 227.897,254.477 228.994,251.52 
  230.092,248.599 231.19,245.72 232.288,242.887 233.386,240.106 234.484,237.382 235.582,234.722 236.68,232.129 237.777,229.61 238.875,227.169 239.973,224.812 
  241.071,222.544 242.169,220.369 243.267,218.292 244.365,216.317 245.463,214.45 246.56,212.693 247.658,211.051 248.756,209.527 249.854,208.125 250.952,206.847 
  252.05,205.698 253.148,204.679 254.246,203.792 255.343,203.041 256.441,202.426 257.539,201.948 258.637,201.61 259.735,201.411 260.833,201.353 261.931,201.434 
  263.029,201.656 264.126,202.018 265.224,202.519 266.322,203.157 267.42,203.931 268.518,204.839 269.616,205.88 270.714,207.051 271.812,208.35 272.909,209.772 
  274.007,211.316 275.105,212.978 276.203,214.753 277.301,216.639 278.399,218.631 279.497,220.725 280.595,222.916 281.693,225.199 282.79,227.57 283.888,230.024 
  284.986,232.556 286.084,235.16 287.182,237.832 288.28,240.566 289.378,243.356 290.476,246.197 291.573,249.084 292.671,252.011 293.769,254.972 294.867,257.963 
  295.965,260.978 297.063,264.012 298.161,267.059 299.259,270.115 300.356,273.173 301.454,276.23 302.552,279.28 303.65,282.319 304.748,285.342 305.846,288.346 
  306.944,291.325 308.042,294.275 309.139,297.194 310.237,300.077 311.335,302.92 312.433,305.721 313.531,308.477 314.629,311.185 315.727,313.842 316.825,316.445 
  317.922,318.993 319.02,321.484 320.118,323.915 321.216,326.286 322.314,328.595 323.412,330.84 324.51,333.021 325.608,335.138 326.705,337.188 327.803,339.173 
  328.901,341.091 329.999,342.943 331.097,344.729 332.195,346.449 333.293,348.104 334.391,349.693 335.488,351.218 336.586,352.68 337.684,354.079 338.782,355.417 
  339.88,356.693 340.978,357.911 342.076,359.071 343.174,360.174 344.271,361.222 345.369,362.216 346.467,363.158 347.565,364.05 348.663,364.893 349.761,365.688 
  350.859,366.438 351.957,367.144 353.054,367.807 354.152,368.43 355.25,369.015 356.348,369.562 357.446,370.073 358.544,370.55 359.642,370.996 360.74,371.41 
  361.837,371.795 362.935,372.153 364.033,372.484 365.131,372.791 366.229,373.075 367.327,373.336 368.425,373.577 369.523,373.798 370.621,374.002 371.718,374.188 
  372.816,374.358 373.914,374.514 375.012,374.656 376.11,374.785 377.208,374.903 378.306,375.009 379.404,375.105 380.501,375.192 381.599,375.27 382.697,375.341 
  383.795,375.404 384.893,375.461 385.991,375.512 387.089,375.557 388.187,375.597 389.284,375.633 390.382,375.664 391.48,375.692 392.578,375.717 393.676,375.738 
  394.774,375.757 395.872,375.774 396.97,375.788 398.067,375.8 399.165,375.811 400.263,375.82 401.361,375.828 402.459,375.835 403.557,375.841 404.655,375.846 
  405.753,375.85 406.85,375.854 407.948,375.856 409.046,375.859 410.144,375.861 411.242,375.863 412.34,375.864 413.438,375.865 414.536,375.866 415.633,375.866 
  416.731,375.867 417.829,375.867 418.927,375.868 420.025,375.868 421.123,375.868 422.221,375.868 423.319,375.868 424.416,375.869 425.514,375.869 426.612,375.869 
  427.71,375.869 428.808,375.869 429.906,375.869 431.004,375.869 432.102,375.869 433.199,375.869 434.297,375.869 435.395,375.869 436.493,375.869 437.591,375.869 
  438.689,375.869 439.787,375.869 440.885,375.869 441.982,375.869 443.08,375.869 444.178,375.869 445.276,375.869 446.374,375.869 447.472,375.869 448.57,375.869 
  449.668,375.869 450.766,375.869 451.863,375.869 452.961,375.869 454.059,375.869 455.157,375.869 456.255,375.869 457.353,375.869 458.451,375.869 459.549,375.869 
  460.646,375.869 461.744,375.869 462.842,375.869 463.94,375.869 465.038,375.869 466.136,375.869 467.234,375.869 468.332,375.869 469.429,375.869 470.527,375.869 
  471.625,375.869 472.723,375.869 473.821,375.869 474.919,375.869 476.017,375.869 477.115,375.869 478.212,375.869 479.31,375.869 480.408,375.869 481.506,375.869 
  482.604,375.869 483.702,375.869 484.8,375.869 485.898,375.869 486.995,375.869 488.093,375.869 489.191,375.869 490.289,375.869 491.387,375.869 492.485,375.869 
  493.583,375.869 494.681,375.869 495.778,375.869 496.876,375.869 497.974,375.869 499.072,375.869 500.17,375.869 501.268,375.869 502.366,375.869 503.464,375.869 
  504.561,375.869 505.659,375.869 506.757,375.869 507.855,375.869 508.953,375.869 510.051,375.869 511.149,375.869 512.247,375.869 513.344,375.869 514.442,375.869 
  515.54,375.869 516.638,375.869 517.736,375.869 518.834,375.869 519.932,375.869 521.03,375.869 522.127,375.869 523.225,375.869 524.323,375.869 525.421,375.869 
  526.519,375.869 527.617,375.869 528.715,375.869 529.813,375.869 530.911,375.869 532.008,375.869 533.106,375.869 534.204,375.869 535.302,375.869 536.4,375.869 
  537.498,375.869 538.596,375.869 539.694,375.869 540.791,375.869 541.889,375.869 542.987,375.869 544.085,375.869 545.183,375.869 546.281,375.869 547.379,375.869 
  548.477,375.869 549.574,375.869 550.672,375.869 551.77,375.869 552.868,375.869 553.966,375.869 555.064,375.869 556.162,375.869 557.26,375.869 558.357,375.869 
  559.455,375.869 560.553,375.869 561.651,375.869 562.749,375.869 563.847,375.869 564.945,375.869 566.043,375.869 567.14,375.869 568.238,375.869 569.336,375.869 
  570.434,375.869 571.532,375.869 572.63,375.869 573.728,375.869 574.826,375.869 575.923,375.869 577.021,375.869 578.119,375.869 579.217,375.869 580.315,375.869 
  
  "/>
<polyline clip-path="url(#clip4902)" style="stroke:#00a98d; stroke-width:1; stroke-opacity:1; fill:none" points="
  32.4745,375.869 33.5724,375.869 34.6702,375.869 35.7681,375.869 36.866,375.869 37.9639,375.869 39.0618,375.869 40.1596,375.869 41.2575,375.869 42.3554,375.869 
  43.4533,375.869 44.5511,375.869 45.649,375.869 46.7469,375.869 47.8448,375.869 48.9426,375.869 50.0405,375.869 51.1384,375.869 52.2363,375.869 53.3342,375.869 
  54.432,375.869 55.5299,375.869 56.6278,375.869 57.7257,375.869 58.8235,375.869 59.9214,375.869 61.0193,375.869 62.1172,375.869 63.215,375.869 64.3129,375.869 
  65.4108,375.869 66.5087,375.869 67.6065,375.869 68.7044,375.869 69.8023,375.869 70.9002,375.869 71.9981,375.869 73.0959,375.869 74.1938,375.869 75.2917,375.869 
  76.3896,375.869 77.4874,375.869 78.5853,375.869 79.6832,375.869 80.7811,375.869 81.8789,375.869 82.9768,375.869 84.0747,375.869 85.1726,375.869 86.2705,375.869 
  87.3683,375.869 88.4662,375.869 89.5641,375.869 90.662,375.869 91.7598,375.869 92.8577,375.869 93.9556,375.869 95.0535,375.869 96.1513,375.869 97.2492,375.869 
  98.3471,375.869 99.445,375.869 100.543,375.869 101.641,375.869 102.739,375.869 103.836,375.869 104.934,375.869 106.032,375.869 107.13,375.868 108.228,375.868 
  109.326,375.868 110.424,375.868 111.522,375.868 112.619,375.868 113.717,375.867 114.815,375.867 115.913,375.867 117.011,375.866 118.109,375.866 119.207,375.865 
  120.305,375.864 121.403,375.863 122.5,375.861 123.598,375.86 124.696,375.858 125.794,375.856 126.892,375.853 127.99,375.85 129.088,375.847 130.186,375.843 
  131.283,375.838 132.381,375.833 133.479,375.827 134.577,375.819 135.675,375.811 136.773,375.802 137.871,375.791 138.969,375.779 140.066,375.765 141.164,375.749 
  142.262,375.732 143.36,375.712 144.458,375.69 145.556,375.664 146.654,375.636 147.752,375.605 148.849,375.57 149.947,375.531 151.045,375.488 152.143,375.44 
  153.241,375.386 154.339,375.327 155.437,375.263 156.535,375.191 157.632,375.112 158.73,375.026 159.828,374.931 160.926,374.827 162.024,374.714 163.122,374.59 
  164.22,374.455 165.318,374.309 166.415,374.149 167.513,373.976 168.611,373.789 169.709,373.586 170.807,373.367 171.905,373.131 173.003,372.876 174.101,372.602 
  175.198,372.307 176.296,371.991 177.394,371.652 178.492,371.288 179.59,370.9 180.688,370.485 181.786,370.042 182.884,369.571 183.981,369.069 185.079,368.536 
  186.177,367.969 187.275,367.368 188.373,366.732 189.471,366.059 190.569,365.347 191.667,364.596 192.764,363.804 193.862,362.97 194.96,362.093 196.058,361.171 
  197.156,360.203 198.254,359.188 199.352,358.125 200.45,357.012 201.548,355.85 202.645,354.636 203.743,353.37 204.841,352.052 205.939,350.68 207.037,349.254 
  208.135,347.773 209.233,346.237 210.331,344.646 211.428,342.999 212.526,341.296 213.624,339.538 214.722,337.723 215.82,335.854 216.918,333.929 218.016,331.95 
  219.114,329.917 220.211,327.832 221.309,325.694 222.407,323.506 223.505,321.268 224.603,318.982 225.701,316.65 226.799,314.273 227.897,311.853 228.994,309.393 
  230.092,306.894 231.19,304.359 232.288,301.791 233.386,299.192 234.484,296.566 235.582,293.914 236.68,291.241 237.777,288.549 238.875,285.843 239.973,283.125 
  241.071,280.399 242.169,277.669 243.267,274.939 244.365,272.213 245.463,269.495 246.56,266.789 247.658,264.099 248.756,261.43 249.854,258.786 250.952,256.17 
  252.05,253.589 253.148,251.045 254.246,248.543 255.343,246.088 256.441,243.684 257.539,241.336 258.637,239.047 259.735,236.822 260.833,234.664 261.931,232.579 
  263.029,230.57 264.126,228.64 265.224,226.794 266.322,225.035 267.42,223.366 268.518,221.791 269.616,220.314 270.714,218.936 271.812,217.66 272.909,216.49 
  274.007,215.427 275.105,214.474 276.203,213.633 277.301,212.905 278.399,212.292 279.497,211.795 280.595,211.415 281.693,211.153 282.79,211.009 283.888,210.984 
  284.986,211.078 286.084,211.291 287.182,211.622 288.28,212.07 289.378,212.635 290.476,213.316 291.573,214.11 292.671,215.017 293.769,216.034 294.867,217.16 
  295.965,218.391 297.063,219.727 298.161,221.164 299.259,222.699 300.356,224.328 301.454,226.05 302.552,227.861 303.65,229.756 304.748,231.732 305.846,233.787 
  306.944,235.914 308.042,238.112 309.139,240.375 310.237,242.699 311.335,245.08 312.433,247.514 313.531,249.997 314.629,252.524 315.727,255.09 316.825,257.692 
  317.922,260.325 319.02,262.984 320.118,265.666 321.216,268.366 322.314,271.08 323.412,273.803 324.51,276.532 325.608,279.262 326.705,281.99 327.803,284.711 
  328.901,287.423 329.999,290.121 331.097,292.803 332.195,295.464 333.293,298.101 334.391,300.712 335.488,303.293 336.586,305.842 337.684,308.356 338.782,310.833 
  339.88,313.27 340.978,315.665 342.076,318.016 343.174,320.321 344.271,322.579 345.369,324.788 346.467,326.947 347.565,329.055 348.663,331.11 349.761,333.111 
  350.859,335.059 351.957,336.951 353.054,338.788 354.152,340.57 355.25,342.296 356.348,343.967 357.446,345.581 358.544,347.14 359.642,348.644 360.74,350.092 
  361.837,351.487 362.935,352.828 364.033,354.115 365.131,355.35 366.229,356.534 367.327,357.667 368.425,358.751 369.523,359.786 370.621,360.773 371.718,361.714 
  372.816,362.61 373.914,363.462 375.012,364.271 376.11,365.039 377.208,365.767 378.306,366.456 379.404,367.108 380.501,367.723 381.599,368.304 382.697,368.851 
  383.795,369.366 384.893,369.85 385.991,370.304 387.089,370.73 388.187,371.13 389.284,371.503 390.382,371.852 391.48,372.178 392.578,372.482 393.676,372.764 
  394.774,373.027 395.872,373.271 396.97,373.497 398.067,373.706 399.165,373.9 400.263,374.079 401.361,374.244 402.459,374.396 403.557,374.536 404.655,374.664 
  405.753,374.781 406.85,374.889 407.948,374.987 409.046,375.077 410.144,375.159 411.242,375.234 412.34,375.301 413.438,375.362 414.536,375.418 415.633,375.468 
  416.731,375.513 417.829,375.554 418.927,375.591 420.025,375.624 421.123,375.653 422.221,375.679 423.319,375.703 424.416,375.724 425.514,375.742 426.612,375.759 
  427.71,375.773 428.808,375.786 429.906,375.797 431.004,375.807 432.102,375.816 433.199,375.824 434.297,375.83 435.395,375.836 436.493,375.841 437.591,375.845 
  438.689,375.849 439.787,375.852 440.885,375.855 441.982,375.857 443.08,375.859 444.178,375.861 445.276,375.862 446.374,375.863 447.472,375.864 448.57,375.865 
  449.668,375.866 450.766,375.866 451.863,375.867 452.961,375.867 454.059,375.868 455.157,375.868 456.255,375.868 457.353,375.868 458.451,375.868 459.549,375.868 
  460.646,375.868 461.744,375.869 462.842,375.869 463.94,375.869 465.038,375.869 466.136,375.869 467.234,375.869 468.332,375.869 469.429,375.869 470.527,375.869 
  471.625,375.869 472.723,375.869 473.821,375.869 474.919,375.869 476.017,375.869 477.115,375.869 478.212,375.869 479.31,375.869 480.408,375.869 481.506,375.869 
  482.604,375.869 483.702,375.869 484.8,375.869 485.898,375.869 486.995,375.869 488.093,375.869 489.191,375.869 490.289,375.869 491.387,375.869 492.485,375.869 
  493.583,375.869 494.681,375.869 495.778,375.869 496.876,375.869 497.974,375.869 499.072,375.869 500.17,375.869 501.268,375.869 502.366,375.869 503.464,375.869 
  504.561,375.869 505.659,375.869 506.757,375.869 507.855,375.869 508.953,375.869 510.051,375.869 511.149,375.869 512.247,375.869 513.344,375.869 514.442,375.869 
  515.54,375.869 516.638,375.869 517.736,375.869 518.834,375.869 519.932,375.869 521.03,375.869 522.127,375.869 523.225,375.869 524.323,375.869 525.421,375.869 
  526.519,375.869 527.617,375.869 528.715,375.869 529.813,375.869 530.911,375.869 532.008,375.869 533.106,375.869 534.204,375.869 535.302,375.869 536.4,375.869 
  537.498,375.869 538.596,375.869 539.694,375.869 540.791,375.869 541.889,375.869 542.987,375.869 544.085,375.869 545.183,375.869 546.281,375.869 547.379,375.869 
  548.477,375.869 549.574,375.869 550.672,375.869 551.77,375.869 552.868,375.869 553.966,375.869 555.064,375.869 556.162,375.869 557.26,375.869 558.357,375.869 
  559.455,375.869 560.553,375.869 561.651,375.869 562.749,375.869 563.847,375.869 564.945,375.869 566.043,375.869 567.14,375.869 568.238,375.869 569.336,375.869 
  570.434,375.869 571.532,375.869 572.63,375.869 573.728,375.869 574.826,375.869 575.923,375.869 577.021,375.869 578.119,375.869 579.217,375.869 580.315,375.869 
  
  "/>
<polyline clip-path="url(#clip4902)" style="stroke:#8e971d; stroke-width:1; stroke-opacity:1; fill:none" points="
  32.4745,375.869 33.5724,375.869 34.6702,375.869 35.7681,375.869 36.866,375.869 37.9639,375.869 39.0618,375.869 40.1596,375.869 41.2575,375.869 42.3554,375.869 
  43.4533,375.869 44.5511,375.869 45.649,375.869 46.7469,375.869 47.8448,375.869 48.9426,375.869 50.0405,375.869 51.1384,375.869 52.2363,375.869 53.3342,375.869 
  54.432,375.869 55.5299,375.869 56.6278,375.869 57.7257,375.869 58.8235,375.869 59.9214,375.869 61.0193,375.869 62.1172,375.869 63.215,375.869 64.3129,375.869 
  65.4108,375.869 66.5087,375.869 67.6065,375.869 68.7044,375.869 69.8023,375.869 70.9002,375.869 71.9981,375.869 73.0959,375.869 74.1938,375.869 75.2917,375.869 
  76.3896,375.869 77.4874,375.869 78.5853,375.869 79.6832,375.869 80.7811,375.869 81.8789,375.869 82.9768,375.869 84.0747,375.869 85.1726,375.869 86.2705,375.869 
  87.3683,375.869 88.4662,375.869 89.5641,375.869 90.662,375.869 91.7598,375.869 92.8577,375.869 93.9556,375.869 95.0535,375.869 96.1513,375.869 97.2492,375.869 
  98.3471,375.869 99.445,375.869 100.543,375.869 101.641,375.869 102.739,375.869 103.836,375.869 104.934,375.869 106.032,375.869 107.13,375.869 108.228,375.869 
  109.326,375.869 110.424,375.869 111.522,375.869 112.619,375.869 113.717,375.869 114.815,375.869 115.913,375.868 117.011,375.868 118.109,375.868 119.207,375.868 
  120.305,375.868 121.403,375.868 122.5,375.868 123.598,375.868 124.696,375.867 125.794,375.867 126.892,375.867 127.99,375.866 129.088,375.866 130.186,375.865 
  131.283,375.865 132.381,375.864 133.479,375.863 134.577,375.862 135.675,375.861 136.773,375.859 137.871,375.857 138.969,375.855 140.066,375.853 141.164,375.85 
  142.262,375.847 143.36,375.844 144.458,375.84 145.556,375.835 146.654,375.83 147.752,375.824 148.849,375.817 149.947,375.81 151.045,375.801 152.143,375.791 
  153.241,375.78 154.339,375.768 155.437,375.754 156.535,375.739 157.632,375.722 158.73,375.702 159.828,375.681 160.926,375.657 162.024,375.631 163.122,375.602 
  164.22,375.569 165.318,375.534 166.415,375.495 167.513,375.451 168.611,375.404 169.709,375.352 170.807,375.294 171.905,375.232 173.003,375.163 174.101,375.088 
  175.198,375.007 176.296,374.918 177.394,374.821 178.492,374.717 179.59,374.603 180.688,374.48 181.786,374.346 182.884,374.202 183.981,374.046 185.079,373.879 
  186.177,373.698 187.275,373.504 188.373,373.295 189.471,373.071 190.569,372.831 191.667,372.574 192.764,372.299 193.862,372.005 194.96,371.692 196.058,371.357 
  197.156,371.001 198.254,370.623 199.352,370.22 200.45,369.793 201.548,369.34 202.645,368.861 203.743,368.353 204.841,367.816 205.939,367.25 207.037,366.652 
  208.135,366.021 209.233,365.358 210.331,364.66 211.428,363.927 212.526,363.157 213.624,362.35 214.722,361.504 215.82,360.619 216.918,359.693 218.016,358.726 
  219.114,357.717 220.211,356.665 221.309,355.569 222.407,354.429 223.505,353.244 224.603,352.013 225.701,350.736 226.799,349.412 227.897,348.041 228.994,346.622 
  230.092,345.156 231.19,343.642 232.288,342.081 233.386,340.471 234.484,338.814 235.582,337.11 236.68,335.359 237.777,333.561 238.875,331.717 239.973,329.828 
  241.071,327.894 242.169,325.917 243.267,323.898 244.365,321.837 245.463,319.736 246.56,317.597 247.658,315.42 248.756,313.208 249.854,310.963 250.952,308.686 
  252.05,306.379 253.148,304.045 254.246,301.686 255.343,299.304 256.441,296.901 257.539,294.482 258.637,292.047 259.735,289.6 260.833,287.143 261.931,284.681 
  263.029,282.216 264.126,279.75 265.224,277.288 266.322,274.833 267.42,272.388 268.518,269.956 269.616,267.541 270.714,265.147 271.812,262.777 272.909,260.435 
  274.007,258.124 275.105,255.847 276.203,253.61 277.301,251.414 278.399,249.263 279.497,247.162 280.595,245.113 281.693,243.121 282.79,241.188 283.888,239.317 
  284.986,237.512 286.084,235.776 287.182,234.113 288.28,232.524 289.378,231.013 290.476,229.583 291.573,228.236 292.671,226.974 293.769,225.801 294.867,224.717 
  295.965,223.725 297.063,222.827 298.161,222.025 299.259,221.32 300.356,220.712 301.454,220.205 302.552,219.797 303.65,219.491 304.748,219.287 305.846,219.185 
  306.944,219.185 308.042,219.287 309.139,219.491 310.237,219.797 311.335,220.205 312.433,220.712 313.531,221.32 314.629,222.025 315.727,222.827 316.825,223.725 
  317.922,224.717 319.02,225.801 320.118,226.974 321.216,228.236 322.314,229.583 323.412,231.013 324.51,232.524 325.608,234.113 326.705,235.776 327.803,237.512 
  328.901,239.317 329.999,241.188 331.097,243.121 332.195,245.113 333.293,247.162 334.391,249.263 335.488,251.414 336.586,253.61 337.684,255.847 338.782,258.124 
  339.88,260.435 340.978,262.777 342.076,265.147 343.174,267.541 344.271,269.956 345.369,272.388 346.467,274.833 347.565,277.288 348.663,279.75 349.761,282.216 
  350.859,284.681 351.957,287.143 353.054,289.6 354.152,292.047 355.25,294.482 356.348,296.901 357.446,299.304 358.544,301.686 359.642,304.045 360.74,306.379 
  361.837,308.686 362.935,310.963 364.033,313.208 365.131,315.42 366.229,317.597 367.327,319.736 368.425,321.837 369.523,323.898 370.621,325.917 371.718,327.894 
  372.816,329.828 373.914,331.717 375.012,333.561 376.11,335.359 377.208,337.11 378.306,338.814 379.404,340.471 380.501,342.081 381.599,343.642 382.697,345.156 
  383.795,346.622 384.893,348.041 385.991,349.412 387.089,350.736 388.187,352.013 389.284,353.244 390.382,354.429 391.48,355.569 392.578,356.665 393.676,357.717 
  394.774,358.726 395.872,359.693 396.97,360.619 398.067,361.504 399.165,362.35 400.263,363.157 401.361,363.927 402.459,364.66 403.557,365.358 404.655,366.021 
  405.753,366.652 406.85,367.25 407.948,367.816 409.046,368.353 410.144,368.861 411.242,369.34 412.34,369.793 413.438,370.22 414.536,370.623 415.633,371.001 
  416.731,371.357 417.829,371.692 418.927,372.005 420.025,372.299 421.123,372.574 422.221,372.831 423.319,373.071 424.416,373.295 425.514,373.504 426.612,373.698 
  427.71,373.879 428.808,374.046 429.906,374.202 431.004,374.346 432.102,374.48 433.199,374.603 434.297,374.717 435.395,374.821 436.493,374.918 437.591,375.007 
  438.689,375.088 439.787,375.163 440.885,375.232 441.982,375.294 443.08,375.352 444.178,375.404 445.276,375.451 446.374,375.495 447.472,375.534 448.57,375.569 
  449.668,375.602 450.766,375.631 451.863,375.657 452.961,375.681 454.059,375.702 455.157,375.722 456.255,375.739 457.353,375.754 458.451,375.768 459.549,375.78 
  460.646,375.791 461.744,375.801 462.842,375.81 463.94,375.817 465.038,375.824 466.136,375.83 467.234,375.835 468.332,375.84 469.429,375.844 470.527,375.847 
  471.625,375.85 472.723,375.853 473.821,375.855 474.919,375.857 476.017,375.859 477.115,375.861 478.212,375.862 479.31,375.863 480.408,375.864 481.506,375.865 
  482.604,375.865 483.702,375.866 484.8,375.866 485.898,375.867 486.995,375.867 488.093,375.867 489.191,375.868 490.289,375.868 491.387,375.868 492.485,375.868 
  493.583,375.868 494.681,375.868 495.778,375.868 496.876,375.868 497.974,375.869 499.072,375.869 500.17,375.869 501.268,375.869 502.366,375.869 503.464,375.869 
  504.561,375.869 505.659,375.869 506.757,375.869 507.855,375.869 508.953,375.869 510.051,375.869 511.149,375.869 512.247,375.869 513.344,375.869 514.442,375.869 
  515.54,375.869 516.638,375.869 517.736,375.869 518.834,375.869 519.932,375.869 521.03,375.869 522.127,375.869 523.225,375.869 524.323,375.869 525.421,375.869 
  526.519,375.869 527.617,375.869 528.715,375.869 529.813,375.869 530.911,375.869 532.008,375.869 533.106,375.869 534.204,375.869 535.302,375.869 536.4,375.869 
  537.498,375.869 538.596,375.869 539.694,375.869 540.791,375.869 541.889,375.869 542.987,375.869 544.085,375.869 545.183,375.869 546.281,375.869 547.379,375.869 
  548.477,375.869 549.574,375.869 550.672,375.869 551.77,375.869 552.868,375.869 553.966,375.869 555.064,375.869 556.162,375.869 557.26,375.869 558.357,375.869 
  559.455,375.869 560.553,375.869 561.651,375.869 562.749,375.869 563.847,375.869 564.945,375.869 566.043,375.869 567.14,375.869 568.238,375.869 569.336,375.869 
  570.434,375.869 571.532,375.869 572.63,375.869 573.728,375.869 574.826,375.869 575.923,375.869 577.021,375.869 578.119,375.869 579.217,375.869 580.315,375.869 
  
  "/>
<polyline clip-path="url(#clip4902)" style="stroke:#00a8cb; stroke-width:1; stroke-opacity:1; fill:none" points="
  32.4745,375.869 33.5724,375.869 34.6702,375.869 35.7681,375.869 36.866,375.869 37.9639,375.869 39.0618,375.869 40.1596,375.869 41.2575,375.869 42.3554,375.869 
  43.4533,375.869 44.5511,375.869 45.649,375.869 46.7469,375.869 47.8448,375.869 48.9426,375.869 50.0405,375.869 51.1384,375.869 52.2363,375.869 53.3342,375.869 
  54.432,375.869 55.5299,375.869 56.6278,375.869 57.7257,375.869 58.8235,375.869 59.9214,375.869 61.0193,375.869 62.1172,375.869 63.215,375.869 64.3129,375.869 
  65.4108,375.869 66.5087,375.869 67.6065,375.869 68.7044,375.869 69.8023,375.869 70.9002,375.869 71.9981,375.869 73.0959,375.869 74.1938,375.869 75.2917,375.869 
  76.3896,375.869 77.4874,375.869 78.5853,375.869 79.6832,375.869 80.7811,375.869 81.8789,375.869 82.9768,375.869 84.0747,375.869 85.1726,375.869 86.2705,375.869 
  87.3683,375.869 88.4662,375.869 89.5641,375.869 90.662,375.869 91.7598,375.869 92.8577,375.869 93.9556,375.869 95.0535,375.869 96.1513,375.869 97.2492,375.869 
  98.3471,375.869 99.445,375.869 100.543,375.869 101.641,375.869 102.739,375.869 103.836,375.869 104.934,375.869 106.032,375.869 107.13,375.869 108.228,375.869 
  109.326,375.869 110.424,375.869 111.522,375.869 112.619,375.869 113.717,375.869 114.815,375.869 115.913,375.869 117.011,375.869 118.109,375.869 119.207,375.869 
  120.305,375.869 121.403,375.869 122.5,375.869 123.598,375.869 124.696,375.869 125.794,375.869 126.892,375.868 127.99,375.868 129.088,375.868 130.186,375.868 
  131.283,375.868 132.381,375.868 133.479,375.868 134.577,375.868 135.675,375.868 136.773,375.867 137.871,375.867 138.969,375.867 140.066,375.867 141.164,375.866 
  142.262,375.866 143.36,375.865 144.458,375.864 145.556,375.864 146.654,375.863 147.752,375.862 148.849,375.861 149.947,375.859 151.045,375.858 152.143,375.856 
  153.241,375.854 154.339,375.852 155.437,375.849 156.535,375.846 157.632,375.843 158.73,375.839 159.828,375.835 160.926,375.83 162.024,375.825 163.122,375.819 
  164.22,375.812 165.318,375.804 166.415,375.796 167.513,375.786 168.611,375.776 169.709,375.764 170.807,375.751 171.905,375.736 173.003,375.72 174.101,375.702 
  175.198,375.683 176.296,375.661 177.394,375.637 178.492,375.611 179.59,375.582 180.688,375.55 181.786,375.515 182.884,375.477 183.981,375.436 185.079,375.39 
  186.177,375.341 187.275,375.286 188.373,375.228 189.471,375.164 190.569,375.094 191.667,375.019 192.764,374.937 193.862,374.849 194.96,374.754 196.058,374.651 
  197.156,374.54 198.254,374.42 199.352,374.291 200.45,374.152 201.548,374.004 202.645,373.844 203.743,373.673 204.841,373.49 205.939,373.294 207.037,373.085 
  208.135,372.861 209.233,372.623 210.331,372.369 211.428,372.098 212.526,371.811 213.624,371.506 214.722,371.181 215.82,370.838 216.918,370.474 218.016,370.088 
  219.114,369.681 220.211,369.25 221.309,368.796 222.407,368.317 223.505,367.812 224.603,367.281 225.701,366.722 226.799,366.135 227.897,365.519 228.994,364.873 
  230.092,364.195 231.19,363.486 232.288,362.744 233.386,361.969 234.484,361.159 235.582,360.315 236.68,359.434 237.777,358.517 238.875,357.563 239.973,356.571 
  241.071,355.54 242.169,354.471 243.267,353.362 244.365,352.213 245.463,351.023 246.56,349.793 247.658,348.521 248.756,347.209 249.854,345.855 250.952,344.459 
  252.05,343.022 253.148,341.543 254.246,340.023 255.343,338.462 256.441,336.86 257.539,335.218 258.637,333.536 259.735,331.814 260.833,330.054 261.931,328.255 
  263.029,326.42 264.126,324.548 265.224,322.642 266.322,320.701 267.42,318.728 268.518,316.724 269.616,314.689 270.714,312.627 271.812,310.537 272.909,308.423 
  274.007,306.286 275.105,304.127 276.203,301.949 277.301,299.755 278.399,297.545 279.497,295.323 280.595,293.091 281.693,290.851 282.79,288.606 283.888,286.359 
  284.986,284.111 286.084,281.866 287.182,279.627 288.28,277.396 289.378,275.177 290.476,272.971 291.573,270.782 292.671,268.614 293.769,266.468 294.867,264.349 
  295.965,262.258 297.063,260.199 298.161,258.175 299.259,256.19 300.356,254.245 301.454,252.344 302.552,250.489 303.65,248.685 304.748,246.932 305.846,245.235 
  306.944,243.596 308.042,242.017 309.139,240.501 310.237,239.05 311.335,237.667 312.433,236.355 313.531,235.114 314.629,233.948 315.727,232.858 316.825,231.846 
  317.922,230.914 319.02,230.063 320.118,229.295 321.216,228.611 322.314,228.013 323.412,227.5 324.51,227.075 325.608,226.738 326.705,226.489 327.803,226.329 
  328.901,226.258 329.999,226.277 331.097,226.385 332.195,226.582 333.293,226.868 334.391,227.242 335.488,227.703 336.586,228.252 337.684,228.886 338.782,229.605 
  339.88,230.408 340.978,231.293 342.076,232.258 343.174,233.303 344.271,234.425 345.369,235.622 346.467,236.893 347.565,238.235 348.663,239.646 349.761,241.125 
  350.859,242.667 351.957,244.272 353.054,245.935 354.152,247.656 355.25,249.43 356.348,251.256 357.446,253.13 358.544,255.05 359.642,257.012 360.74,259.014 
  361.837,261.053 362.935,263.125 364.033,265.228 365.131,267.359 366.229,269.515 367.327,271.692 368.425,273.888 369.523,276.1 370.621,278.325 371.718,280.559 
  372.816,282.801 373.914,285.048 375.012,287.296 376.11,289.542 377.208,291.786 378.306,294.022 379.404,296.251 380.501,298.468 381.599,300.671 382.697,302.859 
  383.795,305.029 384.893,307.179 385.991,309.307 387.089,311.411 388.187,313.489 389.284,315.54 390.382,317.563 391.48,319.554 392.578,321.514 393.676,323.44 
  394.774,325.333 395.872,327.189 396.97,329.009 398.067,330.792 399.165,332.536 400.263,334.241 401.361,335.907 402.459,337.533 403.557,339.118 404.655,340.662 
  405.753,342.164 406.85,343.626 407.948,345.046 409.046,346.424 410.144,347.761 411.242,349.056 412.34,350.31 413.438,351.524 414.536,352.696 415.633,353.829 
  416.731,354.921 417.829,355.974 418.927,356.989 420.025,357.965 421.123,358.904 422.221,359.805 423.319,360.671 424.416,361.501 425.514,362.296 426.612,363.057 
  427.71,363.785 428.808,364.481 429.906,365.146 431.004,365.779 432.102,366.383 433.199,366.958 434.297,367.506 435.395,368.026 436.493,368.52 437.591,368.988 
  438.689,369.433 439.787,369.853 440.885,370.252 441.982,370.628 443.08,370.983 444.178,371.319 445.276,371.635 446.374,371.933 447.472,372.213 448.57,372.476 
  449.668,372.724 450.766,372.956 451.863,373.173 452.961,373.377 454.059,373.568 455.157,373.746 456.255,373.912 457.353,374.067 458.451,374.211 459.549,374.346 
  460.646,374.471 461.744,374.587 462.842,374.695 463.94,374.794 465.038,374.887 466.136,374.972 467.234,375.051 468.332,375.124 469.429,375.191 470.527,375.253 
  471.625,375.31 472.723,375.362 473.821,375.41 474.919,375.453 476.017,375.494 477.115,375.53 478.212,375.564 479.31,375.594 480.408,375.622 481.506,375.647 
  482.604,375.67 483.702,375.691 484.8,375.71 485.898,375.727 486.995,375.743 488.093,375.757 489.191,375.769 490.289,375.78 491.387,375.79 492.485,375.8 
  493.583,375.808 494.681,375.815 495.778,375.821 496.876,375.827 497.974,375.832 499.072,375.837 500.17,375.841 501.268,375.844 502.366,375.848 503.464,375.85 
  504.561,375.853 505.659,375.855 506.757,375.857 507.855,375.859 508.953,375.86 510.051,375.861 511.149,375.862 512.247,375.863 513.344,375.864 514.442,375.865 
  515.54,375.865 516.638,375.866 517.736,375.866 518.834,375.867 519.932,375.867 521.03,375.867 522.127,375.868 523.225,375.868 524.323,375.868 525.421,375.868 
  526.519,375.868 527.617,375.868 528.715,375.868 529.813,375.868 530.911,375.868 532.008,375.869 533.106,375.869 534.204,375.869 535.302,375.869 536.4,375.869 
  537.498,375.869 538.596,375.869 539.694,375.869 540.791,375.869 541.889,375.869 542.987,375.869 544.085,375.869 545.183,375.869 546.281,375.869 547.379,375.869 
  548.477,375.869 549.574,375.869 550.672,375.869 551.77,375.869 552.868,375.869 553.966,375.869 555.064,375.869 556.162,375.869 557.26,375.869 558.357,375.869 
  559.455,375.869 560.553,375.869 561.651,375.869 562.749,375.869 563.847,375.869 564.945,375.869 566.043,375.869 567.14,375.869 568.238,375.869 569.336,375.869 
  570.434,375.869 571.532,375.869 572.63,375.869 573.728,375.869 574.826,375.869 575.923,375.869 577.021,375.869 578.119,375.869 579.217,375.869 580.315,375.869 
  
  "/>
</svg>
