<?xml version="1.0" encoding="utf-8"?>
<svg xmlns="http://www.w3.org/2000/svg" xmlns:xlink="http://www.w3.org/1999/xlink" width="600" height="400" viewBox="0 0 600 400">
<defs>
  <clipPath id="clip5100">
    <rect x="0" y="0" width="600" height="400"/>
  </clipPath>
</defs>
<polygon clip-path="url(#clip5100)" points="
0,400 600,400 600,0 0,0 
  " fill="#ffffff" fill-opacity="1"/>
<defs>
  <clipPath id="clip5101">
    <rect x="120" y="0" width="421" height="400"/>
  </clipPath>
</defs>
<polygon clip-path="url(#clip5100)" points="
32.4745,375.869 580.315,375.869 580.315,11.811 32.4745,11.811 
  " fill="#ffffff" fill-opacity="1"/>
<defs>
  <clipPath id="clip5102">
    <rect x="32" y="11" width="549" height="365"/>
  </clipPath>
</defs>
<polyline clip-path="url(#clip5102)" style="stroke:#000000; stroke-width:0.5; stroke-opacity:0.1; fill:none" points="
  78.1279,375.869 78.1279,11.811 
  "/>
<polyline clip-path="url(#clip5102)" style="stroke:#000000; stroke-width:0.5; stroke-opacity:0.1; fill:none" points="
  192.261,375.869 192.261,11.811 
  "/>
<polyline clip-path="url(#clip5102)" style="stroke:#000000; stroke-width:0.5; stroke-opacity:0.1; fill:none" points="
  306.395,375.869 306.395,11.811 
  "/>
<polyline clip-path="url(#clip5102)" style="stroke:#000000; stroke-width:0.5; stroke-opacity:0.1; fill:none" points="
  420.528,375.869 420.528,11.811 
  "/>
<polyline clip-path="url(#clip5102)" style="stroke:#000000; stroke-width:0.5; stroke-opacity:0.1; fill:none" points="
  534.662,375.869 534.662,11.811 
  "/>
<polyline clip-path="url(#clip5102)" style="stroke:#000000; stroke-width:0.5; stroke-opacity:0.1; fill:none" points="
  32.4745,375.869 580.315,375.869 
  "/>
<polyline clip-path="url(#clip5102)" style="stroke:#000000; stroke-width:0.5; stroke-opacity:0.1; fill:none" points="
  32.4745,303.057 580.315,303.057 
  "/>
<polyline clip-path="url(#clip5102)" style="stroke:#000000; stroke-width:0.5; stroke-opacity:0.1; fill:none" points="
  32.4745,230.246 580.315,230.246 
  "/>
<polyline clip-path="url(#clip5102)" style="stroke:#000000; stroke-width:0.5; stroke-opacity:0.1; fill:none" points="
  32.4745,157.434 580.315,157.434 
  "/>
<polyline clip-path="url(#clip5102)" style="stroke:#000000; stroke-width:0.5; stroke-opacity:0.1; fill:none" points="
  32.4745,84.6226 580.315,84.6226 
  "/>
<polyline clip-path="url(#clip5102)" style="stroke:#000000; stroke-width:0.5; stroke-opacity:0.1; fill:none" points="
  32.4745,11.811 580.315,11.811 
  "/>
<polyline clip-path="url(#clip5100)" style="stroke:#000000; stroke-width:1; stroke-opacity:1; fill:none" points="
  32.4745,375.869 580.315,375.869 
  "/>
<polyline clip-path="url(#clip5100)" style="stroke:#000000; stroke-width:1; stroke-opacity:1; fill:none" points="
  32.4745,375.869 32.4745,11.811 
  "/>
<polyline clip-path="url(#clip5100)" style="stroke:#000000; stroke-width:1; stroke-opacity:1; fill:none" points="
  78.1279,375.869 78.1279,370.408 
  "/>
<polyline clip-path="url(#clip5100)" style="stroke:#000000; stroke-width:1; stroke-opacity:1; fill:none" points="
  192.261,375.869 192.261,370.408 
  "/>
<polyline clip-path="url(#clip5100)" style="stroke:#000000; stroke-width:1; stroke-opacity:1; fill:none" points="
  306.395,375.869 306.395,370.408 
  "/>
<polyline clip-path="url(#clip5100)" style="stroke:#000000; stroke-width:1; stroke-opacity:1; fill:none" points="
  420.528,375.869 420.528,370.408 
  "/>
<polyline clip-path="url(#clip5100)" style="stroke:#000000; stroke-width:1; stroke-opacity:1; fill:none" points="
  534.662,375.869 534.662,370.408 
  "/>
<polyline clip-path="url(#clip5100)" style="stroke:#000000; stroke-width:1; stroke-opacity:1; fill:none" points="
  32.4745,375.869 40.6921,375.869 
  "/>
<polyline clip-path="url(#clip5100)" style="stroke:#000000; stroke-width:1; stroke-opacity:1; fill:none" points="
  32.4745,303.057 40.6921,303.057 
  "/>
<polyline clip-path="url(#clip5100)" style="stroke:#000000; stroke-width:1; stroke-opacity:1; fill:none" points="
  32.4745,230.246 40.6921,230.246 
  "/>
<polyline clip-path="url(#clip5100)" style="stroke:#000000; stroke-width:1; stroke-opacity:1; fill:none" points="
  32.4745,157.434 40.6921,157.434 
  "/>
<polyline clip-path="url(#clip5100)" style="stroke:#000000; stroke-width:1; stroke-opacity:1; fill:none" points="
  32.4745,84.6226 40.6921,84.6226 
  "/>
<polyline clip-path="url(#clip5100)" style="stroke:#000000; stroke-width:1; stroke-opacity:1; fill:none" points="
  32.4745,11.811 40.6921,11.811 
  "/>
<g clip-path="url(#clip5100)">
<text style="fill:#000000; fill-opacity:1; font-family:Arial,Helvetica Neue,Helvetica,sans-serif; font-size:12; text-anchor:middle;" transform="rotate(0, 78.1279, 389.669)" x="78.1279" y="389.669">0.0</text>
</g>
<g clip-path="url(#clip5100)">
<text style="fill:#000000; fill-opacity:1; font-family:Arial,Helvetica Neue,Helvetica,sans-serif; font-size:12; text-anchor:middle;" transform="rotate(0, 192.261, 389.669)" x="192.261" y="389.669">2.5</text>
</g>
<g clip-path="url(#clip5100)">
<text style="fill:#000000; fill-opacity:1; font-family:Arial,Helvetica Neue,Helvetica,sans-serif; font-size:12; text-anchor:middle;" transform="rotate(0, 306.395, 389.669)" x="306.395" y="389.669">5.0</text>
</g>
<g clip-path="url(#clip5100)">
<text style="fill:#000000; fill-opacity:1; font-family:Arial,Helvetica Neue,Helvetica,sans-serif; font-size:12; text-anchor:middle;" transform="rotate(0, 420.528, 389.669)" x="420.528" y="389.669">7.5</text>
</g>
<g clip-path="url(#clip5100)">
<text style="fill:#000000; fill-opacity:1; font-family:Arial,Helvetica Neue,Helvetica,sans-serif; font-size:12; text-anchor:middle;" transform="rotate(0, 534.662, 389.669)" x="534.662" y="389.669">10.0</text>
</g>
<g clip-path="url(#clip5100)">
<text style="fill:#000000; fill-opacity:1; font-family:Arial,Helvetica Neue,Helvetica,sans-serif; font-size:12; text-anchor:end;" transform="rotate(0, 26.4745, 380.369)" x="26.4745" y="380.369">0.0</text>
</g>
<g clip-path="url(#clip5100)">
<text style="fill:#000000; fill-opacity:1; font-family:Arial,Helvetica Neue,Helvetica,sans-serif; font-size:12; text-anchor:end;" transform="rotate(0, 26.4745, 307.557)" x="26.4745" y="307.557">0.2</text>
</g>
<g clip-path="url(#clip5100)">
<text style="fill:#000000; fill-opacity:1; font-family:Arial,Helvetica Neue,Helvetica,sans-serif; font-size:12; text-anchor:end;" transform="rotate(0, 26.4745, 234.746)" x="26.4745" y="234.746">0.4</text>
</g>
<g clip-path="url(#clip5100)">
<text style="fill:#000000; fill-opacity:1; font-family:Arial,Helvetica Neue,Helvetica,sans-serif; font-size:12; text-anchor:end;" transform="rotate(0, 26.4745, 161.934)" x="26.4745" y="161.934">0.6</text>
</g>
<g clip-path="url(#clip5100)">
<text style="fill:#000000; fill-opacity:1; font-family:Arial,Helvetica Neue,Helvetica,sans-serif; font-size:12; text-anchor:end;" transform="rotate(0, 26.4745, 89.1226)" x="26.4745" y="89.1226">0.8</text>
</g>
<g clip-path="url(#clip5100)">
<text style="fill:#000000; fill-opacity:1; font-family:Arial,Helvetica Neue,Helvetica,sans-serif; font-size:12; text-anchor:end;" transform="rotate(0, 26.4745, 16.311)" x="26.4745" y="16.311">1.0</text>
</g>
<polyline clip-path="url(#clip5102)" style="stroke:#009af9; stroke-width:1; stroke-opacity:1; fill:none" points="
  32.4745,375.869 33.5724,375.869 34.6702,375.869 35.7681,375.869 36.866,375.869 37.9639,375.869 39.0618,375.869 40.1596,375.869 41.2575,375.869 42.3554,375.869 
  43.4533,375.869 44.5511,375.869 45.649,375.869 46.7469,375.869 47.8448,375.869 48.9426,375.869 50.0405,375.869 51.1384,375.869 52.2363,375.869 53.3342,375.869 
  54.432,375.869 55.5299,375.869 56.6278,375.869 57.7257,375.869 58.8235,375.869 59.9214,375.869 61.0193,375.869 62.1172,375.869 63.215,375.869 64.3129,375.869 
  65.4108,375.869 66.5087,375.869 67.6065,375.869 68.7044,375.869 69.8023,375.869 70.9002,375.869 71.9981,375.869 73.0959,375.869 74.1938,375.869 75.2917,375.869 
  76.3896,375.869 77.4874,375.869 78.5853,11.811 79.6832,11.811 80.7811,11.811 81.8789,11.811 82.9768,11.811 84.0747,11.811 85.1726,11.811 86.2705,11.811 
  87.3683,11.811 88.4662,11.811 89.5641,11.811 90.662,11.811 91.7598,11.811 92.8577,11.811 93.9556,11.811 95.0535,11.811 96.1513,11.811 97.2492,11.811 
  98.3471,11.811 99.445,11.811 100.543,11.811 101.641,11.811 102.739,11.811 103.836,11.811 104.934,11.811 106.032,11.811 107.13,11.811 108.228,11.811 
  109.326,11.811 110.424,11.811 111.522,11.811 112.619,11.811 113.717,11.811 114.815,11.811 115.913,11.811 117.011,11.811 118.109,11.811 119.207,11.811 
  120.305,11.811 121.403,11.811 122.5,11.811 123.598,11.811 124.696,375.869 125.794,375.869 126.892,375.869 127.99,375.869 129.088,375.869 130.186,375.869 
  131.283,375.869 132.381,375.869 133.479,375.869 134.577,375.869 135.675,375.869 136.773,375.869 137.871,375.869 138.969,375.869 140.066,375.869 141.164,375.869 
  142.262,375.869 143.36,375.869 144.458,375.869 145.556,375.869 146.654,375.869 147.752,375.869 148.849,375.869 149.947,375.869 151.045,375.869 152.143,375.869 
  153.241,375.869 154.339,375.869 155.437,375.869 156.535,375.869 157.632,375.869 158.73,375.869 159.828,375.869 160.926,375.869 162.024,375.869 163.122,375.869 
  164.22,375.869 165.318,375.869 166.415,375.869 167.513,375.869 168.611,375.869 169.709,375.869 170.807,375.869 171.905,375.869 173.003,375.869 174.101,375.869 
  175.198,375.869 176.296,375.869 177.394,375.869 178.492,375.869 179.59,375.869 180.688,375.869 181.786,375.869 182.884,375.869 183.981,375.869 185.079,375.869 
  186.177,375.869 187.275,375.869 188.373,375.869 189.471,375.869 190.569,375.869 191.667,375.869 192.764,375.869 193.862,375.869 194.96,375.869 196.058,375.869 
  197.156,375.869 198.254,375.869 199.352,375.869 200.45,375.869 201.548,375.869 202.645,375.869 203.743,375.869 204.841,375.869 205.939,375.869 207.037,375.869 
  208.135,375.869 209.233,375.869 210.331,375.869 211.428,375.869 212.526,375.869 213.624,375.869 214.722,375.869 215.82,375.869 216.918,375.869 218.016,375.869 
  219.114,375.869 220.211,375.869 221.309,375.869 222.407,375.869 223.505,375.869 224.603,375.869 225.701,375.869 226.799,375.869 227.897,375.869 228.994,375.869 
  230.092,375.869 231.19,375.869 232.288,375.869 233.386,375.869 234.484,375.869 235.582,375.869 236.68,375.869 237.777,375.869 238.875,375.869 239.973,375.869 
  241.071,375.869 242.169,375.869 243.267,375.869 244.365,375.869 245.463,375.869 246.56,375.869 247.658,375.869 248.756,375.869 249.854,375.869 250.952,375.869 
  252.05,375.869 253.148,375.869 254.246,375.869 255.343,375.869 256.441,375.869 257.539,375.869 258.637,375.869 259.735,375.869 260.833,11.811 261.931,11.811 
  263.029,11.811 264.126,11.811 265.224,11.811 266.322,11.811 267.42,11.811 268.518,11.811 269.616,11.811 270.714,11.811 271.812,11.811 272.909,11.811 
  274.007,11.811 275.105,11.811 276.203,11.811 277.301,11.811 278.399,11.811 279.497,11.811 280.595,11.811 281.693,11.811 282.79,11.811 283.888,11.811 
  284.986,11.811 286.084,11.811 287.182,11.811 288.28,11.811 289.378,11.811 290.476,11.811 291.573,11.811 292.671,11.811 293.769,11.811 294.867,11.811 
  295.965,11.811 297.063,11.811 298.161,11.811 299.259,11.811 300.356,11.811 301.454,11.811 302.552,11.811 303.65,11.811 304.748,11.811 305.846,11.811 
  306.944,375.869 308.042,375.869 309.139,375.869 310.237,375.869 311.335,375.869 312.433,375.869 313.531,375.869 314.629,375.869 315.727,375.869 316.825,375.869 
  317.922,375.869 319.02,375.869 320.118,375.869 321.216,375.869 322.314,375.869 323.412,375.869 324.51,375.869 325.608,375.869 326.705,375.869 327.803,375.869 
  328.901,375.869 329.999,375.869 331.097,375.869 332.195,375.869 333.293,375.869 334.391,375.869 335.488,375.869 336.586,375.869 337.684,375.869 338.782,375.869 
  339.88,375.869 340.978,375.869 342.076,375.869 343.174,375.869 344.271,375.869 345.369,375.869 346.467,375.869 347.565,375.869 348.663,375.869 349.761,375.869 
  350.859,375.869 351.957,375.869 353.054,375.869 354.152,375.869 355.25,375.869 356.348,375.869 357.446,375.869 358.544,375.869 359.642,375.869 360.74,375.869 
  361.837,375.869 362.935,375.869 364.033,375.869 365.131,375.869 366.229,375.869 367.327,375.869 368.425,375.869 369.523,375.869 370.621,375.869 371.718,375.869 
  372.816,375.869 373.914,375.869 375.012,375.869 376.11,375.869 377.208,375.869 378.306,375.869 379.404,375.869 380.501,375.869 381.599,375.869 382.697,375.869 
  383.795,375.869 384.893,375.869 385.991,375.869 387.089,375.869 388.187,375.869 389.284,375.869 390.382,375.869 391.48,375.869 392.578,375.869 393.676,375.869 
  394.774,375.869 395.872,375.869 396.97,375.869 398.067,375.869 399.165,375.869 400.263,375.869 401.361,375.869 402.459,375.869 403.557,375.869 404.655,375.869 
  405.753,375.869 406.85,375.869 407.948,375.869 409.046,375.869 410.144,375.869 411.242,375.869 412.34,375.869 413.438,375.869 414.536,375.869 415.633,375.869 
  416.731,375.869 417.829,375.869 418.927,375.869 420.025,375.869 421.123,375.869 422.221,375.869 423.319,375.869 424.416,375.869 425.514,375.869 426.612,375.869 
  427.71,375.869 428.808,375.869 429.906,375.869 431.004,375.869 432.102,375.869 433.199,375.869 434.297,375.869 435.395,375.869 436.493,375.869 437.591,375.869 
  438.689,375.869 439.787,375.869 440.885,375.869 441.982,375.869 443.08,375.869 444.178,11.811 445.276,11.811 446.374,11.811 447.472,11.811 448.57,11.811 
  449.668,11.811 450.766,11.811 451.863,11.811 452.961,11.811 454.059,11.811 455.157,11.811 456.255,11.811 457.353,11.811 458.451,11.811 459.549,11.811 
  460.646,11.811 461.744,11.811 462.842,11.811 463.94,11.811 465.038,11.811 466.136,11.811 467.234,11.811 468.332,11.811 469.429,11.811 470.527,11.811 
  471.625,11.811 472.723,11.811 473.821,11.811 474.919,11.811 476.017,11.811 477.115,11.811 478.212,11.811 479.31,11.811 480.408,11.811 481.506,11.811 
  482.604,11.811 483.702,11.811 484.8,11.811 485.898,11.811 486.995,11.811 488.093,11.811 489.191,375.869 490.289,375.869 491.387,375.869 492.485,375.869 
  493.583,375.869 494.681,375.869 495.778,375.869 496.876,375.869 497.974,375.869 499.072,375.869 500.17,375.869 501.268,375.869 502.366,375.869 503.464,375.869 
  504.561,375.869 505.659,375.869 506.757,375.869 507.855,375.869 508.953,375.869 510.051,375.869 511.149,375.869 512.247,375.869 513.344,375.869 514.442,375.869 
  515.54,375.869 516.638,375.869 517.736,375.869 518.834,375.869 519.932,375.869 521.03,375.869 522.127,375.869 523.225,375.869 524.323,375.869 525.421,375.869 
  526.519,375.869 527.617,375.869 528.715,375.869 529.813,375.869 530.911,375.869 532.008,375.869 533.106,375.869 534.204,375.869 535.302,375.869 536.4,375.869 
  537.498,375.869 538.596,375.869 539.694,375.869 540.791,375.869 541.889,375.869 542.987,375.869 544.085,375.869 545.183,375.869 546.281,375.869 547.379,375.869 
  548.477,375.869 549.574,375.869 550.672,375.869 551.77,375.869 552.868,375.869 553.966,375.869 555.064,375.869 556.162,375.869 557.26,375.869 558.357,375.869 
  559.455,375.869 560.553,375.869 561.651,375.869 562.749,375.869 563.847,375.869 564.945,375.869 566.043,375.869 567.14,375.869 568.238,375.869 569.336,375.869 
  570.434,375.869 571.532,375.869 572.63,375.869 573.728,375.869 574.826,375.869 575.923,375.869 577.021,375.869 578.119,375.869 579.217,375.869 580.315,375.869 
  
  "/>
<polyline clip-path="url(#clip5102)" style="stroke:#e26f46; stroke-width:1; stroke-opacity:1; fill:none" points="
  32.4745,375.869 33.5724,375.869 34.6702,375.869 35.7681,375.869 36.866,375.869 37.9639,375.869 39.0618,375.869 40.1596,375.869 41.2575,375.869 42.3554,375.869 
  43.4533,375.869 44.5511,375.869 45.649,375.869 46.7469,375.869 47.8448,375.869 48.9426,375.869 50.0405,375.869 51.1384,375.869 52.2363,375.869 53.3342,375.869 
  54.432,375.869 55.5299,375.869 56.6278,375.869 57.7257,375.869 58.8235,375.869 59.9214,375.869 61.0193,375.869 62.1172,375.869 63.215,375.869 64.3129,375.869 
  65.4108,375.869 66.5087,375.869 67.6065,375.869 68.7044,375.869 69.8023,375.869 70.9002,375.869 71.9981,375.869 73.0959,375.869 74.1938,375.869 75.2917,375.869 
  76.3896,375.869 77.4874,375.869 78.5853,372.221 79.6832,363.466 80.7811,354.711 81.8789,345.956 82.9768,337.201 84.0747,328.446 85.1726,319.691 86.2705,310.937 
  87.3683,302.182 88.4662,293.427 89.5641,284.672 90.662,275.917 91.7598,267.162 92.8577,258.407 93.9556,249.652 95.0535,240.897 96.1513,232.143 97.2492,223.388 
  98.3471,214.633 99.445,205.878 100.543,197.123 101.641,188.368 102.739,179.613 103.836,170.858 104.934,162.103 106.032,153.348 107.13,144.594 108.228,135.839 
  109.326,127.084 110.424,118.329 111.522,109.574 112.619,100.819 113.717,92.0642 114.815,83.3093 115.913,74.5544 117.011,65.7995 118.109,57.0446 119.207,48.2897 
  120.305,39.5349 121.403,30.78 122.5,22.0251 123.598,13.2702 124.696,19.1068 125.794,27.8617 126.892,36.6166 127.99,45.3714 129.088,54.1263 130.186,62.8812 
  131.283,71.6361 132.381,80.391 133.479,89.1459 134.577,97.9008 135.675,106.656 136.773,115.411 137.871,124.165 138.969,132.92 140.066,141.675 141.164,150.43 
  142.262,159.185 143.36,167.94 144.458,176.695 145.556,185.45 146.654,194.205 147.752,202.96 148.849,211.714 149.947,220.469 151.045,229.224 152.143,237.979 
  153.241,246.734 154.339,255.489 155.437,264.244 156.535,272.999 157.632,281.754 158.73,290.508 159.828,299.263 160.926,308.018 162.024,316.773 163.122,325.528 
  164.22,334.283 165.318,343.038 166.415,351.793 167.513,360.548 168.611,369.303 169.709,375.869 170.807,375.869 171.905,375.869 173.003,375.869 174.101,375.869 
  175.198,375.869 176.296,375.869 177.394,375.869 178.492,375.869 179.59,375.869 180.688,375.869 181.786,375.869 182.884,375.869 183.981,375.869 185.079,375.869 
  186.177,375.869 187.275,375.869 188.373,375.869 189.471,375.869 190.569,375.869 191.667,375.869 192.764,375.869 193.862,375.869 194.96,375.869 196.058,375.869 
  197.156,375.869 198.254,375.869 199.352,375.869 200.45,375.869 201.548,375.869 202.645,375.869 203.743,375.869 204.841,375.869 205.939,375.869 207.037,375.869 
  208.135,375.869 209.233,375.869 210.331,375.869 211.428,375.869 212.526,375.869 213.624,375.869 214.722,375.869 215.82,375.869 216.918,375.869 218.016,375.869 
  219.114,375.869 220.211,375.869 221.309,375.869 222.407,375.869 223.505,375.869 224.603,375.869 225.701,375.869 226.799,375.869 227.897,375.869 228.994,375.869 
  230.092,375.869 231.19,375.869 232.288,375.869 233.386,375.869 234.484,375.869 235.582,375.869 236.68,375.869 237.777,375.869 238.875,375.869 239.973,375.869 
  241.071,375.869 242.169,375.869 243.267,375.869 244.365,375.869 245.463,375.869 246.56,375.869 247.658,375.869 248.756,375.869 249.854,375.869 250.952,375.869 
  252.05,375.869 253.148,375.869 254.246,375.869 255.343,375.869 256.441,375.869 257.539,375.869 258.637,375.869 259.735,375.869 260.833,375.139 261.931,366.384 
  263.029,357.629 264.126,348.874 265.224,340.12 266.322,331.365 267.42,322.61 268.518,313.855 269.616,305.1 270.714,296.345 271.812,287.59 272.909,278.835 
  274.007,270.08 275.105,261.325 276.203,252.571 277.301,243.816 278.399,235.061 279.497,226.306 280.595,217.551 281.693,208.796 282.79,200.041 283.888,191.286 
  284.986,182.531 286.084,173.777 287.182,165.022 288.28,156.267 289.378,147.512 290.476,138.757 291.573,130.002 292.671,121.247 293.769,112.492 294.867,103.737 
  295.965,94.9825 297.063,86.2276 298.161,77.4727 299.259,68.7178 300.356,59.9629 301.454,51.208 302.552,42.4532 303.65,33.6983 304.748,24.9434 305.846,16.1885 
  306.944,16.1885 308.042,24.9434 309.139,33.6983 310.237,42.4532 311.335,51.208 312.433,59.9629 313.531,68.7178 314.629,77.4727 315.727,86.2276 316.825,94.9825 
  317.922,103.737 319.02,112.492 320.118,121.247 321.216,130.002 322.314,138.757 323.412,147.512 324.51,156.267 325.608,165.022 326.705,173.777 327.803,182.531 
  328.901,191.286 329.999,200.041 331.097,208.796 332.195,217.551 333.293,226.306 334.391,235.061 335.488,243.816 336.586,252.571 337.684,261.325 338.782,270.08 
  339.88,278.835 340.978,287.59 342.076,296.345 343.174,305.1 344.271,313.855 345.369,322.61 346.467,331.365 347.565,340.12 348.663,348.874 349.761,357.629 
  350.859,366.384 351.957,375.139 353.054,375.869 354.152,375.869 355.25,375.869 356.348,375.869 357.446,375.869 358.544,375.869 359.642,375.869 360.74,375.869 
  361.837,375.869 362.935,375.869 364.033,375.869 365.131,375.869 366.229,375.869 367.327,375.869 368.425,375.869 369.523,375.869 370.621,375.869 371.718,375.869 
  372.816,375.869 373.914,375.869 375.012,375.869 376.11,375.869 377.208,375.869 378.306,375.869 379.404,375.869 380.501,375.869 381.599,375.869 382.697,375.869 
  383.795,375.869 384.893,375.869 385.991,375.869 387.089,375.869 388.187,375.869 389.284,375.869 390.382,375.869 391.48,375.869 392.578,375.869 393.676,375.869 
  394.774,375.869 395.872,375.869 396.97,375.869 398.067,375.869 399.165,375.869 400.263,375.869 401.361,375.869 402.459,375.869 403.557,375.869 404.655,375.869 
  405.753,375.869 406.85,375.869 407.948,375.869 409.046,375.869 410.144,375.869 411.242,375.869 412.34,375.869 413.438,375.869 414.536,375.869 415.633,375.869 
  416.731,375.869 417.829,375.869 418.927,375.869 420.025,375.869 421.123,375.869 422.221,375.869 423.319,375.869 424.416,375.869 425.514,375.869 426.612,375.869 
  427.71,375.869 428.808,375.869 429.906,375.869 431.004,375.869 432.102,375.869 433.199,375.869 434.297,375.869 435.395,375.869 436.493,375.869 437.591,375.869 
  438.689,375.869 439.787,375.869 440.885,375.869 441.982,375.869 443.08,375.869 444.178,369.303 445.276,360.548 446.374,351.793 447.472,343.038 448.57,334.283 
  449.668,325.528 450.766,316.773 451.863,308.018 452.961,299.263 454.059,290.508 455.157,281.754 456.255,272.999 457.353,264.244 458.451,255.489 459.549,246.734 
  460.646,237.979 461.744,229.224 462.842,220.469 463.94,211.714 465.038,202.96 466.136,194.205 467.234,185.45 468.332,176.695 469.429,167.94 470.527,159.185 
  471.625,150.43 472.723,141.675 473.821,132.92 474.919,124.165 476.017,115.411 477.115,106.656 478.212,97.9008 479.31,89.1459 480.408,80.391 481.506,71.6361 
  482.604,62.8812 483.702,54.1263 484.8,45.3714 485.898,36.6166 486.995,27.8617 488.093,19.1068 489.191,13.2702 490.289,22.0251 491.387,30.78 492.485,39.5349 
  493.583,48.2897 494.681,57.0446 495.778,65.7995 496.876,74.5544 497.974,83.3093 499.072,92.0642 500.17,100.819 501.268,109.574 502.366,118.329 503.464,127.084 
  504.561,135.839 505.659,144.594 506.757,153.348 507.855,162.103 508.953,170.858 510.051,179.613 511.149,188.368 512.247,197.123 513.344,205.878 514.442,214.633 
  515.54,223.388 516.638,232.143 517.736,240.897 518.834,249.652 519.932,258.407 521.03,267.162 522.127,275.917 523.225,284.672 524.323,293.427 525.421,302.182 
  526.519,310.937 527.617,319.691 528.715,328.446 529.813,337.201 530.911,345.956 532.008,354.711 533.106,363.466 534.204,372.221 535.302,375.869 536.4,375.869 
  537.498,375.869 538.596,375.869 539.694,375.869 540.791,375.869 541.889,375.869 542.987,375.869 544.085,375.869 545.183,375.869 546.281,375.869 547.379,375.869 
  548.477,375.869 549.574,375.869 550.672,375.869 551.77,375.869 552.868,375.869 553.966,375.869 555.064,375.869 556.162,375.869 557.26,375.869 558.357,375.869 
  559.455,375.869 560.553,375.869 561.651,375.869 562.749,375.869 563.847,375.869 564.945,375.869 566.043,375.869 567.14,375.869 568.238,375.869 569.336,375.869 
  570.434,375.869 571.532,375.869 572.63,375.869 573.728,375.869 574.826,375.869 575.923,375.869 577.021,375.869 578.119,375.869 579.217,375.869 580.315,375.869 
  
  "/>
<polyline clip-path="url(#clip5102)" style="stroke:#3da44d; stroke-width:1; stroke-opacity:1; fill:none" points="
  32.4745,375.869 33.5724,375.869 34.6702,375.869 35.7681,375.869 36.866,375.869 37.9639,375.869 39.0618,375.869 40.1596,375.869 41.2575,375.869 42.3554,375.869 
  43.4533,375.869 44.5511,375.869 45.649,375.869 46.7469,375.869 47.8448,375.869 48.9426,375.869 50.0405,375.869 51.1384,375.869 52.2363,375.869 53.3342,375.869 
  54.432,375.869 55.5299,375.869 56.6278,375.869 57.7257,375.869 58.8235,375.869 59.9214,375.869 61.0193,375.869 62.1172,375.869 63.215,375.869 64.3129,375.869 
  65.4108,375.869 66.5087,375.869 67.6065,375.869 68.7044,375.869 69.8023,375.869 70.9002,375.869 71.9981,375.869 73.0959,375.869 74.1938,375.869 75.2917,375.869 
  76.3896,375.869 77.4874,375.869 78.5853,375.85 79.6832,375.657 80.7811,375.254 81.8789,374.64 82.9768,373.815 84.0747,372.78 85.1726,371.534 86.2705,370.078 
  87.3683,368.411 88.4662,366.534 89.5641,364.446 90.662,362.148 91.7598,359.639 92.8577,356.919 93.9556,353.989 95.0535,350.849 96.1513,347.498 97.2492,343.936 
  98.3471,340.164 99.445,336.181 100.543,331.988 101.641,327.584 102.739,322.97 103.836,318.145 104.934,313.11 106.032,307.864 107.13,302.408 108.228,296.741 
  109.326,290.863 110.424,284.775 111.522,278.476 112.619,271.967 113.717,265.248 114.815,258.317 115.913,251.177 117.011,243.825 118.109,236.263 119.207,228.491 
  120.305,220.508 121.403,212.315 122.5,203.911 123.598,195.296 124.696,186.69 125.794,178.497 126.892,170.724 127.99,163.373 129.088,156.443 130.186,149.934 
  131.283,143.846 132.381,138.179 133.479,132.933 134.577,128.108 135.675,123.704 136.773,119.722 137.871,116.16 138.969,113.019 140.066,110.3 141.164,108.002 
  142.262,106.124 143.36,104.668 144.458,103.633 145.556,103.019 146.654,102.826 147.752,103.054 148.849,103.703 149.947,104.773 151.045,106.265 152.143,108.177 
  153.241,110.51 154.339,113.265 155.437,116.441 156.535,120.037 157.632,124.055 158.73,128.494 159.828,133.354 160.926,138.635 162.024,144.337 163.122,150.46 
  164.22,157.004 165.318,163.97 166.415,171.356 167.513,179.164 168.611,187.392 169.709,196.022 170.807,204.619 171.905,213.005 173.003,221.181 174.101,229.147 
  175.198,236.902 176.296,244.446 177.394,251.78 178.492,258.903 179.59,265.816 180.688,272.518 181.786,279.009 182.884,285.29 183.981,291.361 185.079,297.221 
  186.177,302.87 187.275,308.309 188.373,313.538 189.471,318.555 190.569,323.363 191.667,327.959 192.764,332.346 193.862,336.521 194.96,340.487 196.058,344.241 
  197.156,347.785 198.254,351.119 199.352,354.242 200.45,357.154 201.548,359.856 202.645,362.347 203.743,364.628 204.841,366.699 205.939,368.558 207.037,370.208 
  208.135,371.646 209.233,372.874 210.331,373.892 211.428,374.699 212.526,375.296 213.624,375.682 214.722,375.857 215.82,375.869 216.918,375.869 218.016,375.869 
  219.114,375.869 220.211,375.869 221.309,375.869 222.407,375.869 223.505,375.869 224.603,375.869 225.701,375.869 226.799,375.869 227.897,375.869 228.994,375.869 
  230.092,375.869 231.19,375.869 232.288,375.869 233.386,375.869 234.484,375.869 235.582,375.869 236.68,375.869 237.777,375.869 238.875,375.869 239.973,375.869 
  241.071,375.869 242.169,375.869 243.267,375.869 244.365,375.869 245.463,375.869 246.56,375.869 247.658,375.869 248.756,375.869 249.854,375.869 250.952,375.869 
  252.05,375.869 253.148,375.869 254.246,375.869 255.343,375.869 256.441,375.869 257.539,375.869 258.637,375.869 259.735,375.869 260.833,375.868 261.931,375.745 
  263.029,375.412 264.126,374.868 265.224,374.113 266.322,373.148 267.42,371.973 268.518,370.587 269.616,368.99 270.714,367.183 271.812,365.166 272.909,362.937 
  274.007,360.499 275.105,357.849 276.203,354.99 277.301,351.919 278.399,348.638 279.497,345.147 280.595,341.445 281.693,337.532 282.79,333.409 283.888,329.076 
  284.986,324.532 286.084,319.777 287.182,314.812 288.28,309.636 289.378,304.25 290.476,298.653 291.573,292.846 292.671,286.828 293.769,280.599 294.867,274.16 
  295.965,267.511 297.063,260.651 298.161,253.58 299.259,246.299 300.356,238.807 301.454,231.105 302.552,223.192 303.65,215.069 304.748,206.735 305.846,198.191 
  306.944,189.515 308.042,181.181 309.139,173.268 310.237,165.777 311.335,158.706 312.433,152.057 313.531,145.828 314.629,140.021 315.727,134.635 316.825,129.669 
  317.922,125.125 319.02,121.002 320.118,117.3 321.216,114.019 322.314,111.16 323.412,108.721 324.51,106.703 325.608,105.107 326.705,103.931 327.803,103.177 
  328.901,102.843 329.999,102.931 331.097,103.44 332.195,104.37 333.293,105.721 334.391,107.493 335.488,109.686 336.586,112.3 337.684,115.335 338.782,118.792 
  339.88,122.669 340.978,126.968 342.076,131.687 343.174,136.828 344.271,142.39 345.369,148.372 346.467,154.776 347.565,161.601 348.663,168.847 349.761,176.514 
  350.859,184.602 351.957,193.112 353.054,201.777 354.152,210.233 355.25,218.479 356.348,226.515 357.446,234.34 358.544,241.954 359.642,249.358 360.74,256.552 
  361.837,263.535 362.935,270.307 364.033,276.869 365.131,283.22 366.229,289.361 367.327,295.291 368.425,301.011 369.523,306.52 370.621,311.818 371.718,316.906 
  372.816,321.784 373.914,326.451 375.012,330.907 376.11,335.153 377.208,339.188 378.306,343.013 379.404,346.627 380.501,350.031 381.599,353.224 382.697,356.207 
  383.795,358.979 384.893,361.54 385.991,363.891 387.089,366.032 388.187,367.962 389.284,369.681 390.382,371.19 391.48,372.488 392.578,373.576 393.676,374.453 
  394.774,375.12 395.872,375.576 396.97,375.822 398.067,375.869 399.165,375.869 400.263,375.869 401.361,375.869 402.459,375.869 403.557,375.869 404.655,375.869 
  405.753,375.869 406.85,375.869 407.948,375.869 409.046,375.869 410.144,375.869 411.242,375.869 412.34,375.869 413.438,375.869 414.536,375.869 415.633,375.869 
  416.731,375.869 417.829,375.869 418.927,375.869 420.025,375.869 421.123,375.869 422.221,375.869 423.319,375.869 424.416,375.869 425.514,375.869 426.612,375.869 
  427.71,375.869 428.808,375.869 429.906,375.869 431.004,375.869 432.102,375.869 433.199,375.869 434.297,375.869 435.395,375.869 436.493,375.869 437.591,375.869 
  438.689,375.869 439.787,375.869 440.885,375.869 441.982,375.869 443.08,375.869 444.178,375.809 445.276,375.546 446.374,375.073 447.472,374.388 448.57,373.494 
  449.668,372.388 450.766,371.072 451.863,369.546 452.961,367.809 454.059,365.862 455.157,363.704 456.255,361.335 457.353,358.756 458.451,355.966 459.549,352.966 
  460.646,349.755 461.744,346.334 462.842,342.702 463.94,338.86 465.038,334.807 466.136,330.544 467.234,326.07 468.332,321.385 469.429,316.49 470.527,311.385 
  471.625,306.069 472.723,300.542 473.821,294.805 474.919,288.857 476.017,282.699 477.115,276.33 478.212,269.751 479.31,262.961 480.408,255.96 481.506,248.749 
  482.604,241.328 483.702,233.696 484.8,225.853 485.898,217.8 486.995,209.537 488.093,201.062 489.191,192.387 490.289,183.912 491.387,175.859 492.485,168.227 
  493.583,161.016 494.681,154.226 495.778,147.858 496.876,141.91 497.974,136.383 499.072,131.278 500.17,126.593 501.268,122.33 502.366,118.488 503.464,115.066 
  504.561,112.066 505.659,109.487 506.757,107.329 507.855,105.592 508.953,104.276 510.051,103.381 511.149,102.908 512.247,102.855 513.344,103.223 514.442,104.013 
  515.54,105.224 516.638,106.855 517.736,108.908 518.834,111.382 519.932,114.277 521.03,117.593 522.127,121.33 523.225,125.488 524.323,130.067 525.421,135.067 
  526.519,140.489 527.617,146.331 528.715,152.595 529.813,159.279 530.911,166.385 532.008,173.912 533.106,181.86 534.204,190.229 535.302,198.911 536.4,207.438 
  537.498,215.754 538.596,223.86 539.694,231.755 540.791,239.44 541.889,246.914 542.987,254.177 544.085,261.23 545.183,268.073 546.281,274.705 547.379,281.126 
  548.477,287.337 549.574,293.338 550.672,299.127 551.77,304.707 552.868,310.075 553.966,315.234 555.064,320.181 556.162,324.918 557.26,329.445 558.357,333.761 
  559.455,337.866 560.553,341.761 561.651,345.446 562.749,348.92 563.847,352.183 564.945,355.236 566.043,358.078 567.14,360.71 568.238,363.131 569.336,365.342 
  570.434,367.342 571.532,369.131 572.63,370.71 573.728,372.079 574.826,373.237 575.923,374.184 577.021,374.921 578.119,375.448 579.217,375.763 580.315,375.869 
  
  "/>
<polyline clip-path="url(#clip5102)" style="stroke:#c271d2; stroke-width:1; stroke-opacity:1; fill:none" points="
  32.4745,315.192 33.5724,319.465 34.6702,323.533 35.7681,327.4 36.866,331.072 37.9639,334.553 39.0618,337.85 40.1596,340.966 41.2575,343.907 42.3554,346.678 
  43.4533,349.284 44.5511,351.73 45.649,354.021 46.7469,356.163 47.8448,358.159 48.9426,360.016 50.0405,361.739 51.1384,363.332 52.2363,364.8 53.3342,366.15 
  54.432,367.384 55.5299,368.51 56.6278,369.531 57.7257,370.453 58.8235,371.281 59.9214,372.02 61.0193,372.675 62.1172,373.252 63.215,373.754 64.3129,374.187 
  65.4108,374.557 66.5087,374.868 67.6065,375.126 68.7044,375.335 69.8023,375.501 70.9002,375.628 71.9981,375.722 73.0959,375.787 74.1938,375.83 75.2917,375.854 
  76.3896,375.865 77.4874,375.869 78.5853,375.869 79.6832,375.866 80.7811,375.857 81.8789,375.835 82.9768,375.796 84.0747,375.735 85.1726,375.646 86.2705,375.524 
  87.3683,375.366 88.4662,375.164 89.5641,374.915 90.662,374.613 91.7598,374.253 92.8577,373.831 93.9556,373.34 95.0535,372.777 96.1513,372.135 97.2492,371.411 
  98.3471,370.598 99.445,369.692 100.543,368.687 101.641,367.579 102.739,366.363 103.836,365.033 104.934,363.585 106.032,362.013 107.13,360.313 108.228,358.478 
  109.326,356.505 110.424,354.388 111.522,352.122 112.619,349.702 113.717,347.123 114.815,344.38 115.913,341.468 117.011,338.381 118.109,335.115 119.207,331.665 
  120.305,328.025 121.403,324.191 122.5,320.157 123.598,315.919 124.696,311.473 125.794,306.829 126.892,302.002 127.99,297.008 129.088,291.861 130.186,286.578 
  131.283,281.172 132.381,275.66 133.479,270.056 134.577,264.376 135.675,258.634 136.773,252.847 137.871,247.028 138.969,241.195 140.066,235.36 141.164,229.541 
  142.262,223.751 143.36,218.007 144.458,212.323 145.556,206.714 146.654,201.196 147.752,195.785 148.849,190.494 149.947,185.339 151.045,180.336 152.143,175.5 
  153.241,170.845 154.339,166.388 155.437,162.142 156.535,158.124 157.632,154.349 158.73,150.832 159.828,147.587 160.926,144.631 162.024,141.978 163.122,139.643 
  164.22,137.643 165.318,135.991 166.415,134.703 167.513,133.795 168.611,133.281 169.709,133.177 170.807,133.488 171.905,134.201 173.003,135.3 174.101,136.772 
  175.198,138.6 176.296,140.77 177.394,143.265 178.492,146.072 179.59,149.174 180.688,152.557 181.786,156.205 182.884,160.104 183.981,164.237 185.079,168.591 
  186.177,173.149 187.275,177.896 188.373,182.818 189.471,187.898 190.569,193.123 191.667,198.476 192.764,203.943 193.862,209.508 194.96,215.156 196.058,220.873 
  197.156,226.641 198.254,232.448 199.352,238.277 200.45,244.113 201.548,249.941 202.645,255.745 203.743,261.512 204.841,267.224 205.939,272.868 207.037,278.428 
  208.135,283.889 209.233,289.236 210.331,294.453 211.428,299.525 212.526,304.437 213.624,309.175 214.722,313.722 215.82,318.064 216.918,322.2 218.016,326.133 
  219.114,329.869 220.211,333.414 221.309,336.771 222.407,339.947 223.505,342.946 224.603,345.773 225.701,348.433 226.799,350.932 227.897,353.274 228.994,355.465 
  230.092,357.51 231.19,359.413 232.288,361.179 233.386,362.815 234.484,364.325 235.582,365.713 236.68,366.985 237.777,368.147 238.875,369.202 239.973,370.157 
  241.071,371.015 242.169,371.784 243.267,372.466 244.365,373.068 245.463,373.594 246.56,374.05 247.658,374.441 248.756,374.771 249.854,375.046 250.952,375.27 
  252.05,375.45 253.148,375.589 254.246,375.694 255.343,375.768 256.441,375.818 257.539,375.848 258.637,375.863 259.735,375.868 260.833,375.869 261.931,375.868 
  263.029,375.861 264.126,375.844 265.224,375.811 266.322,375.758 267.42,375.679 268.518,375.569 269.616,375.423 270.714,375.236 271.812,375.004 272.909,374.72 
  274.007,374.38 275.105,373.979 276.203,373.512 277.301,372.973 278.399,372.358 279.497,371.662 280.595,370.879 281.693,370.004 282.79,369.033 283.888,367.96 
  284.986,366.781 286.084,365.49 287.182,364.081 288.28,362.551 289.378,360.894 290.476,359.105 291.573,357.179 292.671,355.11 293.769,352.895 294.867,350.527 
  295.965,348.001 297.063,345.313 298.161,342.458 299.259,339.43 300.356,336.224 301.454,332.836 302.552,329.26 303.65,325.491 304.748,321.525 305.846,317.355 
  306.944,312.978 308.042,308.398 309.139,303.63 310.237,298.69 311.335,293.593 312.433,288.353 313.531,282.987 314.629,277.508 315.727,271.933 316.825,266.277 
  317.922,260.554 319.02,254.78 320.118,248.97 321.216,243.14 322.314,237.304 323.412,231.478 324.51,225.677 325.608,219.916 326.705,214.21 327.803,208.575 
  328.901,203.025 329.999,197.576 331.097,192.243 332.195,187.041 333.293,181.986 334.391,177.092 335.488,172.375 336.586,167.851 337.684,163.533 338.782,159.437 
  339.88,155.58 340.978,151.974 342.076,148.637 343.174,145.583 344.271,142.827 345.369,140.385 346.467,138.271 347.565,136.502 348.663,135.091 349.761,134.054 
  350.859,133.407 351.957,133.165 353.054,133.339 354.152,133.919 355.25,134.892 356.348,136.241 357.446,137.952 358.544,140.01 359.642,142.398 360.74,145.103 
  361.837,148.108 362.935,151.399 364.033,154.961 365.131,158.778 366.229,162.834 367.327,167.116 368.425,171.608 369.523,176.294 370.621,181.159 371.718,186.188 
  372.816,191.366 373.914,196.679 375.012,202.109 376.11,207.643 377.208,213.265 378.306,218.961 379.404,224.714 380.501,230.509 381.599,236.332 382.697,242.167 
  383.795,248 384.893,253.814 385.991,259.595 387.089,265.327 388.187,270.996 389.284,276.585 390.382,282.081 391.48,287.467 392.578,292.729 393.676,297.851 
  394.774,302.819 395.872,307.616 396.97,312.228 398.067,316.64 399.165,320.844 400.263,324.844 401.361,328.645 402.459,332.253 403.557,335.672 404.655,338.908 
  405.753,341.965 406.85,344.849 407.948,347.565 409.046,350.117 410.144,352.511 411.242,354.751 412.34,356.844 413.438,358.794 414.536,360.605 415.633,362.284 
  416.731,363.835 417.829,365.263 418.927,366.574 420.025,367.771 421.123,368.862 422.221,369.849 423.319,370.739 424.416,371.537 425.514,372.248 426.612,372.876 
  427.71,373.427 428.808,373.906 429.906,374.317 431.004,374.667 432.102,374.96 433.199,375.201 434.297,375.395 435.395,375.547 436.493,375.663 437.591,375.747 
  438.689,375.804 439.787,375.84 440.885,375.859 441.982,375.867 443.08,375.869 444.178,375.868 445.276,375.864 446.374,375.851 447.472,375.824 448.57,375.778 
  449.668,375.708 450.766,375.609 451.863,375.476 452.961,375.303 454.059,375.087 455.157,374.82 456.255,374.5 457.353,374.12 458.451,373.675 459.549,373.161 
  460.646,372.572 461.744,371.903 462.842,371.15 463.94,370.306 465.038,369.368 466.136,368.33 467.234,367.186 468.332,365.933 469.429,364.564 470.527,363.075 
  471.625,361.461 472.723,359.716 473.821,357.836 474.919,355.816 476.017,353.65 477.115,351.333 478.212,348.861 479.31,346.228 480.408,343.429 481.506,340.459 
  482.604,337.313 483.702,333.986 484.8,330.473 485.898,326.769 486.995,322.869 488.093,318.768 489.191,314.46 490.289,309.946 491.387,305.24 492.485,300.355 
  493.583,295.309 494.681,290.115 495.778,284.789 496.876,279.346 497.974,273.801 499.072,268.17 500.17,262.468 501.268,256.709 502.366,250.91 503.464,245.085 
  504.561,239.249 505.659,233.418 506.757,227.607 507.855,221.831 508.953,216.105 510.051,210.444 511.149,204.864 512.247,199.38 513.344,194.007 514.442,188.76 
  515.54,183.654 516.638,178.705 517.736,173.927 518.834,169.337 519.932,164.948 521.03,160.777 522.127,156.838 523.225,153.147 524.323,149.719 525.421,146.569 
  526.519,143.712 527.617,141.163 528.715,138.939 529.813,137.052 530.911,135.52 532.008,134.357 533.106,133.579 534.204,133.2 535.302,133.235 536.4,133.681 
  537.498,134.525 538.596,135.75 539.694,137.343 540.791,139.286 541.889,141.566 542.987,144.167 544.085,147.074 545.183,150.271 546.281,153.744 547.379,157.478 
  548.477,161.456 549.574,165.665 550.672,170.088 551.77,174.711 552.868,179.518 553.966,184.494 555.064,189.625 556.162,194.894 557.26,200.287 558.357,205.788 
  559.455,211.382 560.553,217.055 561.651,222.79 562.749,228.573 563.847,234.389 564.945,240.222 566.043,246.057 567.14,251.879 568.238,257.672 569.336,263.423 
  570.434,269.114 571.532,274.732 572.63,280.26 573.728,285.685 574.826,290.99 575.923,296.16 577.021,301.181 578.119,306.037 579.217,310.712 580.315,315.192 
  
  "/>
<polyline clip-path="url(#clip5102)" style="stroke:#ac8d18; stroke-width:1; stroke-opacity:1; fill:none" points="
  32.4745,209.009 33.5724,213.436 34.6702,217.954 35.7681,222.548 36.866,227.204 37.9639,231.908 39.0618,236.648 40.1596,241.411 41.2575,246.184 42.3554,250.957 
  43.4533,255.718 44.5511,260.457 45.649,265.164 46.7469,269.829 47.8448,274.443 48.9426,278.997 50.0405,283.483 51.1384,287.894 52.2363,292.223 53.3342,296.462 
  54.432,300.606 55.5299,304.649 56.6278,308.586 57.7257,312.412 58.8235,316.122 59.9214,319.714 61.0193,323.183 62.1172,326.527 63.215,329.744 64.3129,332.832 
  65.4108,335.789 66.5087,338.616 67.6065,341.311 68.7044,343.874 69.8023,346.307 70.9002,348.61 71.9981,350.785 73.0959,352.834 74.1938,354.76 75.2917,356.565 
  76.3896,358.254 77.4874,359.83 78.5853,361.299 79.6832,362.663 80.7811,363.93 81.8789,365.103 82.9768,366.186 84.0747,367.184 85.1726,368.101 86.2705,368.94 
  87.3683,369.704 88.4662,370.397 89.5641,371.022 90.662,371.581 91.7598,372.077 92.8577,372.511 93.9556,372.886 95.0535,373.204 96.1513,373.465 97.2492,373.671 
  98.3471,373.824 99.445,373.923 100.543,373.969 101.641,373.962 102.739,373.903 103.836,373.791 104.934,373.625 106.032,373.405 107.13,373.13 108.228,372.798 
  109.326,372.408 110.424,371.959 111.522,371.447 112.619,370.872 113.717,370.231 114.815,369.52 115.913,368.737 117.011,367.879 118.109,366.943 119.207,365.924 
  120.305,364.818 121.403,363.622 122.5,362.332 123.598,360.941 124.696,359.447 125.794,357.843 126.892,356.125 127.99,354.29 129.088,352.333 130.186,350.253 
  131.283,348.046 132.381,345.711 133.479,343.245 134.577,340.649 135.675,337.922 136.773,335.062 137.871,332.072 138.969,328.952 140.066,325.703 141.164,322.327 
  142.262,318.827 143.36,315.205 144.458,311.466 145.556,307.612 146.654,303.648 147.752,299.58 148.849,295.411 149.947,291.149 151.045,286.799 152.143,282.368 
  153.241,277.864 154.339,273.294 155.437,268.667 156.535,263.991 157.632,259.275 158.73,254.53 159.828,249.764 160.926,244.99 162.024,240.218 163.122,235.46 
  164.22,230.728 165.318,226.035 166.415,221.393 167.513,216.817 168.611,212.321 169.709,207.918 170.807,203.624 171.905,199.454 173.003,195.422 174.101,191.54 
  175.198,187.821 176.296,184.278 177.394,180.92 178.492,177.758 179.59,174.802 180.688,172.06 181.786,169.541 182.884,167.252 183.981,165.199 185.079,163.389 
  186.177,161.826 187.275,160.515 188.373,159.459 189.471,158.662 190.569,158.126 191.667,157.852 192.764,157.841 193.862,158.093 194.96,158.607 196.058,159.383 
  197.156,160.417 198.254,161.707 199.352,163.249 200.45,165.039 201.548,167.072 202.645,169.341 203.743,171.842 204.841,174.565 205.939,177.504 207.037,180.649 
  208.135,183.99 209.233,187.519 210.331,191.224 211.428,195.092 212.526,199.113 213.624,203.272 214.722,207.556 215.82,211.95 216.918,216.439 218.016,221.009 
  219.114,225.646 220.211,230.336 221.309,235.065 222.407,239.821 223.505,244.592 224.603,249.367 225.701,254.133 226.799,258.881 227.897,263.599 228.994,268.279 
  230.092,272.911 231.19,277.486 232.288,281.996 233.386,286.433 234.484,290.79 235.582,295.06 236.68,299.236 237.777,303.313 238.875,307.286 239.973,311.149 
  241.071,314.898 242.169,318.53 243.267,322.04 244.365,325.426 245.463,328.686 246.56,331.817 247.658,334.818 248.756,337.688 249.854,340.427 250.952,343.034 
  252.05,345.51 253.148,347.856 254.246,350.074 255.343,352.165 256.441,354.131 257.539,355.977 258.637,357.704 259.735,359.317 260.833,360.821 261.931,362.22 
  263.029,363.518 264.126,364.722 265.224,365.835 266.322,366.861 267.42,367.804 268.518,368.669 269.616,369.458 270.714,370.174 271.812,370.821 272.909,371.402 
  274.007,371.918 275.105,372.373 276.203,372.768 277.301,373.104 278.399,373.384 279.497,373.609 280.595,373.779 281.693,373.896 282.79,373.959 283.888,373.97 
  284.986,373.929 286.084,373.834 287.182,373.686 288.28,373.484 289.378,373.228 290.476,372.915 291.573,372.545 292.671,372.115 293.769,371.625 294.867,371.071 
  295.965,370.452 297.063,369.765 298.161,369.006 299.259,368.174 300.356,367.264 301.454,366.273 302.552,365.197 303.65,364.031 304.748,362.773 305.846,361.416 
  306.944,359.957 308.042,358.39 309.139,356.71 310.237,354.915 311.335,352.999 312.433,350.96 313.531,348.796 314.629,346.504 315.727,344.082 316.825,341.529 
  317.922,338.845 319.02,336.03 320.118,333.083 321.216,330.006 322.314,326.8 323.412,323.466 324.51,320.007 325.608,316.426 326.705,312.725 327.803,308.909 
  328.901,304.981 329.999,300.947 331.097,296.811 332.195,292.58 333.293,288.258 334.391,283.854 335.488,279.373 336.586,274.825 337.684,270.215 338.782,265.554 
  339.88,260.851 340.978,256.114 342.076,251.354 343.174,246.582 344.271,241.808 345.369,237.044 346.467,232.302 347.565,227.594 348.663,222.934 349.761,218.335 
  350.859,213.81 351.957,209.374 353.054,205.042 354.152,200.83 355.25,196.75 356.348,192.816 357.446,189.042 358.544,185.439 359.642,182.018 360.74,178.789 
  361.837,175.764 362.935,172.95 364.033,170.356 365.131,167.989 366.229,165.857 367.327,163.965 368.425,162.319 369.523,160.923 370.621,159.782 371.718,158.899 
  372.816,158.276 373.914,157.914 375.012,157.815 376.11,157.98 377.208,158.407 378.306,159.095 379.404,160.044 380.501,161.249 381.599,162.707 382.697,164.415 
  383.795,166.367 384.893,168.559 385.991,170.983 387.089,173.633 388.187,176.501 389.284,179.578 390.382,182.855 391.48,186.323 392.578,189.97 393.676,193.785 
  394.774,197.756 395.872,201.871 396.97,206.115 398.067,210.474 399.165,214.933 400.263,219.478 401.361,224.094 402.459,228.767 403.557,233.485 404.655,238.234 
  405.753,243.001 406.85,247.776 407.948,252.546 409.046,257.301 410.144,262.03 411.242,266.724 412.34,271.373 413.438,275.968 414.536,280.5 415.633,284.962 
  416.731,289.347 417.829,293.646 418.927,297.855 420.025,301.965 421.123,305.974 422.221,309.874 423.319,313.661 424.416,317.333 425.514,320.884 426.612,324.312 
  427.71,327.614 428.808,330.788 429.906,333.832 431.004,336.746 432.102,339.529 433.199,342.18 434.297,344.699 435.395,347.089 436.493,349.349 437.591,351.482 
  438.689,353.489 439.787,355.375 440.885,357.141 441.982,358.792 443.08,360.332 444.178,361.765 445.276,363.096 446.374,364.331 447.472,365.474 448.57,366.528 
  449.668,367.499 450.766,368.389 451.863,369.203 452.961,369.943 454.059,370.613 455.157,371.216 456.255,371.753 457.353,372.228 458.451,372.643 459.549,372.998 
  460.646,373.297 461.744,373.54 462.842,373.728 463.94,373.863 465.038,373.944 466.136,373.973 467.234,373.948 468.332,373.871 469.429,373.741 470.527,373.558 
  471.625,373.319 472.723,373.025 473.821,372.675 474.919,372.265 476.017,371.795 477.115,371.263 478.212,370.666 479.31,370.002 480.408,369.267 481.506,368.46 
  482.604,367.576 483.702,366.612 484.8,365.565 485.898,364.43 486.995,363.203 488.093,361.88 489.191,360.455 490.289,358.924 491.387,357.283 492.485,355.526 
  493.583,353.651 494.681,351.654 495.778,349.531 496.876,347.282 497.974,344.903 499.072,342.395 500.17,339.755 501.268,336.983 502.366,334.08 503.464,331.046 
  504.561,327.883 505.659,324.592 506.757,321.174 507.855,317.633 508.953,313.972 510.051,310.194 511.149,306.303 512.247,302.303 513.344,298.201 514.442,294.001 
  515.54,289.708 516.638,285.331 517.736,280.875 518.834,276.348 519.932,271.758 521.03,267.113 522.127,262.423 523.225,257.696 524.323,252.943 525.421,248.174 
  526.519,243.399 527.617,238.63 528.715,233.88 529.813,229.159 530.911,224.481 532.008,219.86 533.106,215.309 534.204,210.842 535.302,206.474 536.4,202.22 
  537.498,198.094 538.596,194.11 539.694,190.282 540.791,186.62 541.889,183.137 542.987,179.843 544.085,176.749 545.183,173.864 546.281,171.195 547.379,168.752 
  548.477,166.541 549.574,164.568 550.672,162.84 551.77,161.36 552.868,160.134 553.966,159.165 555.064,158.454 556.162,158.005 557.26,157.819 558.357,157.896 
  559.455,158.235 560.553,158.837 561.651,159.699 562.749,160.819 563.847,162.193 564.945,163.818 566.043,165.69 567.14,167.802 568.238,170.15 569.336,172.725 
  570.434,175.521 571.532,178.529 572.63,181.741 573.728,185.146 574.826,188.735 575.923,192.496 577.021,196.416 578.119,200.484 579.217,204.687 580.315,209.009 
  
  "/>
<polyline clip-path="url(#clip5102)" style="stroke:#00a9ad; stroke-width:1; stroke-opacity:1; fill:none" points="
  32.4745,175.637 33.5724,175.742 34.6702,176.058 35.7681,176.582 36.866,177.314 37.9639,178.25 39.0618,179.389 40.1596,180.726 41.2575,182.258 42.3554,183.978 
  43.4533,185.884 44.5511,187.968 45.649,190.225 46.7469,192.649 47.8448,195.232 48.9426,197.967 50.0405,200.847 51.1384,203.864 52.2363,207.01 53.3342,210.276 
  54.432,213.655 55.5299,217.137 56.6278,220.714 57.7257,224.377 58.8235,228.116 59.9214,231.923 61.0193,235.788 62.1172,239.703 63.215,243.658 64.3129,247.644 
  65.4108,251.653 66.5087,255.675 67.6065,259.702 68.7044,263.726 69.8023,267.738 70.9002,271.729 71.9981,275.694 73.0959,279.623 74.1938,283.509 75.2917,287.347 
  76.3896,291.129 77.4874,294.85 78.5853,298.503 79.6832,302.085 80.7811,305.589 81.8789,309.013 82.9768,312.351 84.0747,315.602 85.1726,318.762 86.2705,321.828 
  87.3683,324.799 88.4662,327.673 89.5641,330.448 90.662,333.123 91.7598,335.698 92.8577,338.171 93.9556,340.544 95.0535,342.815 96.1513,344.984 97.2492,347.054 
  98.3471,349.023 99.445,350.893 100.543,352.665 101.641,354.34 102.739,355.92 103.836,357.405 104.934,358.797 106.032,360.099 107.13,361.31 108.228,362.434 
  109.326,363.471 110.424,364.423 111.522,365.293 112.619,366.082 113.717,366.79 114.815,367.421 115.913,367.975 117.011,368.453 118.109,368.858 119.207,369.189 
  120.305,369.448 121.403,369.636 122.5,369.753 123.598,369.8 124.696,369.777 125.794,369.683 126.892,369.519 127.99,369.283 129.088,368.976 130.186,368.596 
  131.283,368.143 132.381,367.614 133.479,367.009 134.577,366.327 135.675,365.565 136.773,364.723 137.871,363.798 138.969,362.789 140.066,361.694 141.164,360.512 
  142.262,359.241 143.36,357.879 144.458,356.425 145.556,354.877 146.654,353.234 147.752,351.495 148.849,349.657 149.947,347.721 151.045,345.685 152.143,343.549 
  153.241,341.312 154.339,338.973 155.437,336.534 156.535,333.993 157.632,331.351 158.73,328.609 159.828,325.768 160.926,322.829 162.024,319.794 163.122,316.665 
  164.22,313.445 165.318,310.135 166.415,306.739 167.513,303.262 168.611,299.705 169.709,296.075 170.807,292.377 171.905,288.614 173.003,284.794 174.101,280.923 
  175.198,277.008 176.296,273.054 177.394,269.071 178.492,265.065 179.59,261.044 180.688,257.017 181.786,252.992 182.884,248.978 183.981,244.984 185.079,241.017 
  186.177,237.088 187.275,233.205 188.373,229.378 189.471,225.615 190.569,221.926 191.667,218.32 192.764,214.805 193.862,211.391 194.96,208.086 196.058,204.899 
  197.156,201.838 198.254,198.911 199.352,196.127 200.45,193.492 201.548,191.015 202.645,188.702 203.743,186.559 204.841,184.593 205.939,182.81 207.037,181.215 
  208.135,179.813 209.233,178.608 210.331,177.603 211.428,176.803 212.526,176.209 213.624,175.824 214.722,175.649 215.82,175.684 216.918,175.929 218.016,176.384 
  219.114,177.047 220.211,177.916 221.309,178.987 222.407,180.259 223.505,181.726 224.603,183.384 225.701,185.229 226.799,187.254 227.897,189.454 228.994,191.823 
  230.092,194.353 231.19,197.039 232.288,199.871 233.386,202.844 234.484,205.947 235.582,209.175 236.68,212.517 237.777,215.966 238.875,219.512 239.973,223.147 
  241.071,226.862 242.169,230.647 243.267,234.494 244.365,238.393 245.463,242.336 246.56,246.312 247.658,250.315 248.756,254.333 249.854,258.36 250.952,262.386 
  252.05,266.402 253.148,270.402 254.246,274.376 255.343,278.317 256.441,282.219 257.539,286.074 258.637,289.875 259.735,293.617 260.833,297.293 261.931,300.899 
  263.029,304.43 264.126,307.881 265.224,311.248 266.322,314.528 267.42,317.719 268.518,320.817 269.616,323.82 270.714,326.726 271.812,329.534 272.909,332.243 
  274.007,334.851 275.105,337.358 276.203,339.764 277.301,342.069 278.399,344.272 279.497,346.375 280.595,348.378 281.693,350.281 282.79,352.085 283.888,353.793 
  284.986,355.404 286.084,356.92 287.182,358.343 288.28,359.675 289.378,360.916 290.476,362.069 291.573,363.135 292.671,364.115 293.769,365.012 294.867,365.828 
  295.965,366.563 297.063,367.219 298.161,367.799 299.259,368.302 300.356,368.731 301.454,369.087 302.552,369.37 303.65,369.581 304.748,369.722 305.846,369.792 
  306.944,369.792 308.042,369.722 309.139,369.581 310.237,369.37 311.335,369.087 312.433,368.731 313.531,368.302 314.629,367.799 315.727,367.219 316.825,366.563 
  317.922,365.828 319.02,365.012 320.118,364.115 321.216,363.135 322.314,362.069 323.412,360.916 324.51,359.675 325.608,358.343 326.705,356.92 327.803,355.404 
  328.901,353.793 329.999,352.085 331.097,350.281 332.195,348.378 333.293,346.375 334.391,344.272 335.488,342.069 336.586,339.764 337.684,337.358 338.782,334.851 
  339.88,332.243 340.978,329.534 342.076,326.726 343.174,323.82 344.271,320.817 345.369,317.719 346.467,314.528 347.565,311.248 348.663,307.881 349.761,304.43 
  350.859,300.899 351.957,297.293 353.054,293.617 354.152,289.875 355.25,286.074 356.348,282.219 357.446,278.317 358.544,274.376 359.642,270.402 360.74,266.402 
  361.837,262.386 362.935,258.36 364.033,254.333 365.131,250.315 366.229,246.312 367.327,242.336 368.425,238.393 369.523,234.494 370.621,230.647 371.718,226.862 
  372.816,223.147 373.914,219.512 375.012,215.966 376.11,212.517 377.208,209.175 378.306,205.947 379.404,202.844 380.501,199.871 381.599,197.039 382.697,194.353 
  383.795,191.823 384.893,189.454 385.991,187.254 387.089,185.229 388.187,183.384 389.284,181.726 390.382,180.259 391.48,178.987 392.578,177.916 393.676,177.047 
  394.774,176.384 395.872,175.929 396.97,175.684 398.067,175.649 399.165,175.824 400.263,176.209 401.361,176.803 402.459,177.603 403.557,178.608 404.655,179.813 
  405.753,181.215 406.85,182.81 407.948,184.593 409.046,186.559 410.144,188.702 411.242,191.015 412.34,193.492 413.438,196.127 414.536,198.911 415.633,201.838 
  416.731,204.899 417.829,208.086 418.927,211.391 420.025,214.805 421.123,218.32 422.221,221.926 423.319,225.615 424.416,229.378 425.514,233.205 426.612,237.088 
  427.71,241.017 428.808,244.984 429.906,248.978 431.004,252.992 432.102,257.017 433.199,261.044 434.297,265.065 435.395,269.071 436.493,273.054 437.591,277.008 
  438.689,280.923 439.787,284.794 440.885,288.614 441.982,292.377 443.08,296.075 444.178,299.705 445.276,303.262 446.374,306.739 447.472,310.135 448.57,313.445 
  449.668,316.665 450.766,319.794 451.863,322.829 452.961,325.768 454.059,328.609 455.157,331.351 456.255,333.993 457.353,336.534 458.451,338.973 459.549,341.312 
  460.646,343.549 461.744,345.685 462.842,347.721 463.94,349.657 465.038,351.495 466.136,353.234 467.234,354.877 468.332,356.425 469.429,357.879 470.527,359.241 
  471.625,360.512 472.723,361.694 473.821,362.789 474.919,363.798 476.017,364.723 477.115,365.565 478.212,366.327 479.31,367.009 480.408,367.614 481.506,368.143 
  482.604,368.596 483.702,368.976 484.8,369.283 485.898,369.519 486.995,369.683 488.093,369.777 489.191,369.8 490.289,369.753 491.387,369.636 492.485,369.448 
  493.583,369.189 494.681,368.858 495.778,368.453 496.876,367.975 497.974,367.421 499.072,366.79 500.17,366.082 501.268,365.293 502.366,364.423 503.464,363.471 
  504.561,362.434 505.659,361.31 506.757,360.099 507.855,358.797 508.953,357.405 510.051,355.92 511.149,354.34 512.247,352.665 513.344,350.893 514.442,349.023 
  515.54,347.054 516.638,344.984 517.736,342.815 518.834,340.544 519.932,338.171 521.03,335.698 522.127,333.123 523.225,330.448 524.323,327.673 525.421,324.799 
  526.519,321.828 527.617,318.762 528.715,315.602 529.813,312.351 530.911,309.013 532.008,305.589 533.106,302.085 534.204,298.503 535.302,294.85 536.4,291.129 
  537.498,287.347 538.596,283.509 539.694,279.623 540.791,275.694 541.889,271.729 542.987,267.738 544.085,263.726 545.183,259.702 546.281,255.675 547.379,251.653 
  548.477,247.644 549.574,243.658 550.672,239.703 551.77,235.788 552.868,231.923 553.966,228.116 555.064,224.377 556.162,220.714 557.26,217.137 558.357,213.655 
  559.455,210.276 560.553,207.01 561.651,203.864 562.749,200.847 563.847,197.967 564.945,195.232 566.043,192.649 567.14,190.225 568.238,187.968 569.336,185.884 
  570.434,183.978 571.532,182.258 572.63,180.726 573.728,179.389 574.826,178.25 575.923,177.314 577.021,176.582 578.119,176.058 579.217,175.742 580.315,175.637 
  
  "/>
<polyline clip-path="url(#clip5102)" style="stroke:#ed5d92; stroke-width:1; stroke-opacity:1; fill:none" points="
  32.4745,223.167 33.5724,220.293 34.6702,217.514 35.7681,214.836 36.866,212.266 37.9639,209.809 39.0618,207.471 40.1596,205.258 41.2575,203.175 42.3554,201.228 
  43.4533,199.422 44.5511,197.76 45.649,196.247 46.7469,194.887 47.8448,193.683 48.9426,192.639 50.0405,191.756 51.1384,191.037 52.2363,190.483 53.3342,190.097 
  54.432,189.879 55.5299,189.83 56.6278,189.95 57.7257,190.238 58.8235,190.694 59.9214,191.316 61.0193,192.104 62.1172,193.055 63.215,194.166 64.3129,195.435 
  65.4108,196.859 66.5087,198.435 67.6065,200.157 68.7044,202.023 69.8023,204.027 70.9002,206.164 71.9981,208.43 73.0959,210.818 74.1938,213.323 75.2917,215.94 
  76.3896,218.66 77.4874,221.48 78.5853,224.39 79.6832,227.386 80.7811,230.459 81.8789,233.604 82.9768,236.813 84.0747,240.079 85.1726,243.395 86.2705,246.754 
  87.3683,250.15 88.4662,253.574 89.5641,257.021 90.662,260.484 91.7598,263.956 92.8577,267.431 93.9556,270.903 95.0535,274.364 96.1513,277.81 97.2492,281.235 
  98.3471,284.633 99.445,287.999 100.543,291.328 101.641,294.614 102.739,297.854 103.836,301.043 104.934,304.176 106.032,307.251 107.13,310.263 108.228,313.209 
  109.326,316.086 110.424,318.891 111.522,321.621 112.619,324.275 113.717,326.85 114.815,329.344 115.913,331.756 117.011,334.085 118.109,336.328 119.207,338.486 
  120.305,340.558 121.403,342.542 122.5,344.439 123.598,346.249 124.696,347.971 125.794,349.605 126.892,351.151 127.99,352.61 129.088,353.983 130.186,355.268 
  131.283,356.468 132.381,357.581 133.479,358.61 134.577,359.554 135.675,360.413 136.773,361.189 137.871,361.881 138.969,362.49 140.066,363.017 141.164,363.461 
  142.262,363.824 143.36,364.105 144.458,364.305 145.556,364.423 146.654,364.46 147.752,364.416 148.849,364.291 149.947,364.085 151.045,363.797 152.143,363.427 
  153.241,362.976 154.339,362.442 155.437,361.826 156.535,361.127 157.632,360.345 158.73,359.478 159.828,358.527 160.926,357.492 162.024,356.371 163.122,355.164 
  164.22,353.872 165.318,352.492 166.415,351.026 167.513,349.472 168.611,347.83 169.709,346.101 170.807,344.285 171.905,342.38 173.003,340.388 174.101,338.31 
  175.198,336.145 176.296,333.894 177.394,331.558 178.492,329.139 179.59,326.638 180.688,324.057 181.786,321.396 182.884,318.66 183.981,315.848 185.079,312.966 
  186.177,310.014 187.275,306.997 188.373,303.917 189.471,300.779 190.569,297.586 191.667,294.342 192.764,291.052 193.862,287.72 194.96,284.351 196.058,280.951 
  197.156,277.524 198.254,274.076 199.352,270.614 200.45,267.142 201.548,263.667 202.645,260.195 203.743,256.734 204.841,253.288 205.939,249.866 207.037,246.473 
  208.135,243.117 209.233,239.805 210.331,236.543 211.428,233.34 212.526,230.2 213.624,227.133 214.722,224.144 215.82,221.241 216.918,218.43 218.016,215.718 
  219.114,213.11 220.211,210.615 221.309,208.236 222.407,205.981 223.505,203.855 224.603,201.862 225.701,200.008 226.799,198.298 227.897,196.735 228.994,195.324 
  230.092,194.067 231.19,192.969 232.288,192.032 233.386,191.258 234.484,190.649 235.582,190.207 236.68,189.933 237.777,189.828 238.875,189.891 239.973,190.123 
  241.071,190.523 242.169,191.09 243.267,191.823 244.365,192.72 245.463,193.778 246.56,194.995 247.658,196.368 248.756,197.893 249.854,199.567 250.952,201.385 
  252.05,203.344 253.148,205.437 254.246,207.661 255.343,210.009 256.441,212.476 257.539,215.056 258.637,217.742 259.735,220.529 260.833,223.41 261.931,226.378 
  263.029,229.427 264.126,232.548 265.224,235.737 266.322,238.984 267.42,242.285 268.518,245.63 269.616,249.014 270.714,252.43 271.812,255.87 272.909,259.329 
  274.007,262.799 275.105,266.273 276.203,269.746 277.301,273.212 278.399,276.664 279.497,280.096 280.595,283.504 281.693,286.881 282.79,290.223 283.888,293.524 
  284.986,296.779 286.084,299.986 287.182,303.138 288.28,306.233 289.378,309.266 290.476,312.234 291.573,315.134 292.671,317.964 293.769,320.719 294.867,323.399 
  295.965,326 297.063,328.522 298.161,330.961 299.259,333.318 300.356,335.59 301.454,337.777 302.552,339.877 303.65,341.89 304.748,343.817 305.846,345.655 
  306.944,347.406 308.042,349.07 309.139,350.645 310.237,352.134 311.335,353.535 312.433,354.849 313.531,356.077 314.629,357.22 315.727,358.277 316.825,359.248 
  317.922,360.136 319.02,360.939 320.118,361.659 321.216,362.296 322.314,362.85 323.412,363.322 324.51,363.712 325.608,364.02 326.705,364.247 327.803,364.393 
  328.901,364.457 329.999,364.44 331.097,364.342 332.195,364.163 333.293,363.902 334.391,363.56 335.488,363.136 336.586,362.629 337.684,362.041 338.782,361.369 
  339.88,360.615 340.978,359.776 342.076,358.854 343.174,357.847 344.271,356.754 345.369,355.576 346.467,354.312 347.565,352.962 348.663,351.524 349.761,349.999 
  350.859,348.387 351.957,346.687 353.054,344.9 354.152,343.025 355.25,341.062 356.348,339.012 357.446,336.876 358.544,334.654 359.642,332.346 360.74,329.955 
  361.837,327.481 362.935,324.926 364.033,322.292 365.131,319.58 366.229,316.794 367.327,313.934 368.425,311.005 369.523,308.01 370.621,304.951 371.718,301.831 
  372.816,298.656 373.914,295.429 375.012,292.153 376.11,288.835 377.208,285.478 378.306,282.087 379.404,278.669 380.501,275.228 381.599,271.769 382.697,268.3 
  383.795,264.825 384.893,261.352 385.991,257.886 387.089,254.434 388.187,251.003 389.284,247.6 390.382,244.231 391.48,240.904 392.578,237.624 393.676,234.401 
  394.774,231.239 395.872,228.147 396.97,225.131 398.067,222.199 399.165,219.356 400.263,216.61 401.361,213.967 402.459,211.434 403.557,209.016 404.655,206.719 
  405.753,204.549 406.85,202.511 407.948,200.61 409.046,198.852 410.144,197.239 411.242,195.777 412.34,194.469 413.438,193.317 414.536,192.326 415.633,191.498 
  416.731,190.834 417.829,190.336 418.927,190.006 420.025,189.844 421.123,189.851 422.221,190.027 423.319,190.371 424.416,190.883 425.514,191.56 426.612,192.403 
  427.71,193.407 428.808,194.572 429.906,195.893 431.004,197.368 432.102,198.993 433.199,200.763 434.297,202.676 435.395,204.725 436.493,206.905 437.591,209.213 
  438.689,211.641 439.787,214.184 440.885,216.835 441.982,219.59 443.08,222.44 444.178,225.38 445.276,228.402 446.374,231.5 447.472,234.667 448.57,237.896 
  449.668,241.179 450.766,244.51 451.863,247.882 452.961,251.288 454.059,254.721 455.157,258.174 456.255,261.641 457.353,265.115 458.451,268.589 459.549,272.058 
  460.646,275.515 461.744,278.955 462.842,282.371 463.94,285.759 465.038,289.113 466.136,292.428 467.234,295.699 468.332,298.923 469.429,302.093 470.527,305.208 
  471.625,308.262 472.723,311.252 473.821,314.175 474.919,317.029 476.017,319.809 477.115,322.514 478.212,325.142 479.31,327.69 480.408,330.157 481.506,332.542 
  482.604,334.842 483.702,337.057 484.8,339.186 485.898,341.229 486.995,343.184 488.093,345.052 489.191,346.832 490.289,348.525 491.387,350.13 492.485,351.647 
  493.583,353.077 494.681,354.421 495.778,355.678 496.876,356.848 497.974,357.934 499.072,358.934 500.17,359.849 501.268,360.681 502.366,361.429 503.464,362.093 
  504.561,362.675 505.659,363.174 506.757,363.591 507.855,363.927 508.953,364.181 510.051,364.353 511.149,364.444 512.247,364.455 513.344,364.384 514.442,364.231 
  515.54,363.998 516.638,363.683 517.736,363.286 518.834,362.807 519.932,362.246 521.03,361.602 522.127,360.876 523.225,360.065 524.323,359.171 525.421,358.192 
  526.519,357.128 527.617,355.978 528.715,354.743 529.813,353.421 530.911,352.013 532.008,350.517 533.106,348.934 534.204,347.264 535.302,345.505 536.4,343.66 
  537.498,341.726 538.596,339.705 539.694,337.598 540.791,335.404 541.889,333.125 542.987,330.761 544.085,328.315 545.183,325.787 546.281,323.179 547.379,320.493 
  548.477,317.731 549.574,314.895 550.672,311.989 551.77,309.016 552.868,305.977 553.966,302.877 555.064,299.72 556.162,296.51 557.26,293.25 558.357,289.946 
  559.455,286.601 560.553,283.221 561.651,279.811 562.749,276.377 563.847,272.924 564.945,269.457 566.043,265.984 567.14,262.509 568.238,259.04 569.336,255.583 
  570.434,252.144 571.532,248.731 572.63,245.35 573.728,242.008 574.826,238.712 575.923,235.469 577.021,232.286 578.119,229.17 579.217,226.128 580.315,223.167 
  
  "/>
</svg>
