<?xml version="1.0" encoding="utf-8"?>
<svg xmlns="http://www.w3.org/2000/svg" xmlns:xlink="http://www.w3.org/1999/xlink" width="600" height="400" viewBox="0 0 2400 1600">
<defs>
  <clipPath id="clip5400">
    <rect x="0" y="0" width="2400" height="1600"/>
  </clipPath>
</defs>
<polygon clip-path="url(#clip5400)" points="
0,1600 2400,1600 2400,0 0,0 
  " fill="#ffffff" fill-rule="evenodd" fill-opacity="1"/>
<defs>
  <clipPath id="clip5401">
    <rect x="480" y="0" width="1681" height="1600"/>
  </clipPath>
</defs>
<polygon clip-path="url(#clip5400)" points="
149.361,1503.47 2321.26,1503.47 2321.26,47.2441 149.361,47.2441 
  " fill="#ffffff" fill-rule="evenodd" fill-opacity="1"/>
<defs>
  <clipPath id="clip5402">
    <rect x="149" y="47" width="2173" height="1457"/>
  </clipPath>
</defs>
<polyline clip-path="url(#clip5402)" style="stroke:#000000; stroke-width:2; stroke-opacity:0.1; fill:none" points="
  466.95,1503.47 466.95,47.2441 
  "/>
<polyline clip-path="url(#clip5402)" style="stroke:#000000; stroke-width:2; stroke-opacity:0.1; fill:none" points="
  979.19,1503.47 979.19,47.2441 
  "/>
<polyline clip-path="url(#clip5402)" style="stroke:#000000; stroke-width:2; stroke-opacity:0.1; fill:none" points="
  1491.43,1503.47 1491.43,47.2441 
  "/>
<polyline clip-path="url(#clip5402)" style="stroke:#000000; stroke-width:2; stroke-opacity:0.1; fill:none" points="
  2003.67,1503.47 2003.67,47.2441 
  "/>
<polyline clip-path="url(#clip5402)" style="stroke:#000000; stroke-width:2; stroke-opacity:0.1; fill:none" points="
  149.361,1309.62 2321.26,1309.62 
  "/>
<polyline clip-path="url(#clip5402)" style="stroke:#000000; stroke-width:2; stroke-opacity:0.1; fill:none" points="
  149.361,1004.33 2321.26,1004.33 
  "/>
<polyline clip-path="url(#clip5402)" style="stroke:#000000; stroke-width:2; stroke-opacity:0.1; fill:none" points="
  149.361,699.037 2321.26,699.037 
  "/>
<polyline clip-path="url(#clip5402)" style="stroke:#000000; stroke-width:2; stroke-opacity:0.1; fill:none" points="
  149.361,393.748 2321.26,393.748 
  "/>
<polyline clip-path="url(#clip5402)" style="stroke:#000000; stroke-width:2; stroke-opacity:0.1; fill:none" points="
  149.361,88.4582 2321.26,88.4582 
  "/>
<polyline clip-path="url(#clip5400)" style="stroke:#000000; stroke-width:4; stroke-opacity:1; fill:none" points="
  149.361,1503.47 2321.26,1503.47 
  "/>
<polyline clip-path="url(#clip5400)" style="stroke:#000000; stroke-width:4; stroke-opacity:1; fill:none" points="
  149.361,1503.47 149.361,47.2441 
  "/>
<polyline clip-path="url(#clip5400)" style="stroke:#000000; stroke-width:4; stroke-opacity:1; fill:none" points="
  466.95,1503.47 466.95,1481.63 
  "/>
<polyline clip-path="url(#clip5400)" style="stroke:#000000; stroke-width:4; stroke-opacity:1; fill:none" points="
  979.19,1503.47 979.19,1481.63 
  "/>
<polyline clip-path="url(#clip5400)" style="stroke:#000000; stroke-width:4; stroke-opacity:1; fill:none" points="
  1491.43,1503.47 1491.43,1481.63 
  "/>
<polyline clip-path="url(#clip5400)" style="stroke:#000000; stroke-width:4; stroke-opacity:1; fill:none" points="
  2003.67,1503.47 2003.67,1481.63 
  "/>
<polyline clip-path="url(#clip5400)" style="stroke:#000000; stroke-width:4; stroke-opacity:1; fill:none" points="
  149.361,1309.62 181.939,1309.62 
  "/>
<polyline clip-path="url(#clip5400)" style="stroke:#000000; stroke-width:4; stroke-opacity:1; fill:none" points="
  149.361,1004.33 181.939,1004.33 
  "/>
<polyline clip-path="url(#clip5400)" style="stroke:#000000; stroke-width:4; stroke-opacity:1; fill:none" points="
  149.361,699.037 181.939,699.037 
  "/>
<polyline clip-path="url(#clip5400)" style="stroke:#000000; stroke-width:4; stroke-opacity:1; fill:none" points="
  149.361,393.748 181.939,393.748 
  "/>
<polyline clip-path="url(#clip5400)" style="stroke:#000000; stroke-width:4; stroke-opacity:1; fill:none" points="
  149.361,88.4582 181.939,88.4582 
  "/>
<g clip-path="url(#clip5400)">
<text style="fill:#000000; fill-opacity:1; font-family:Arial,Helvetica Neue,Helvetica,sans-serif; font-size:48px; text-anchor:middle;" transform="rotate(0, 466.95, 1557.47)" x="466.95" y="1557.47">0</text>
</g>
<g clip-path="url(#clip5400)">
<text style="fill:#000000; fill-opacity:1; font-family:Arial,Helvetica Neue,Helvetica,sans-serif; font-size:48px; text-anchor:middle;" transform="rotate(0, 979.19, 1557.47)" x="979.19" y="1557.47">2</text>
</g>
<g clip-path="url(#clip5400)">
<text style="fill:#000000; fill-opacity:1; font-family:Arial,Helvetica Neue,Helvetica,sans-serif; font-size:48px; text-anchor:middle;" transform="rotate(0, 1491.43, 1557.47)" x="1491.43" y="1557.47">4</text>
</g>
<g clip-path="url(#clip5400)">
<text style="fill:#000000; fill-opacity:1; font-family:Arial,Helvetica Neue,Helvetica,sans-serif; font-size:48px; text-anchor:middle;" transform="rotate(0, 2003.67, 1557.47)" x="2003.67" y="1557.47">6</text>
</g>
<g clip-path="url(#clip5400)">
<text style="fill:#000000; fill-opacity:1; font-family:Arial,Helvetica Neue,Helvetica,sans-serif; font-size:48px; text-anchor:end;" transform="rotate(0, 125.361, 1327.12)" x="125.361" y="1327.12">-2</text>
</g>
<g clip-path="url(#clip5400)">
<text style="fill:#000000; fill-opacity:1; font-family:Arial,Helvetica Neue,Helvetica,sans-serif; font-size:48px; text-anchor:end;" transform="rotate(0, 125.361, 1021.83)" x="125.361" y="1021.83">0</text>
</g>
<g clip-path="url(#clip5400)">
<text style="fill:#000000; fill-opacity:1; font-family:Arial,Helvetica Neue,Helvetica,sans-serif; font-size:48px; text-anchor:end;" transform="rotate(0, 125.361, 716.537)" x="125.361" y="716.537">2</text>
</g>
<g clip-path="url(#clip5400)">
<text style="fill:#000000; fill-opacity:1; font-family:Arial,Helvetica Neue,Helvetica,sans-serif; font-size:48px; text-anchor:end;" transform="rotate(0, 125.361, 411.248)" x="125.361" y="411.248">4</text>
</g>
<g clip-path="url(#clip5400)">
<text style="fill:#000000; fill-opacity:1; font-family:Arial,Helvetica Neue,Helvetica,sans-serif; font-size:48px; text-anchor:end;" transform="rotate(0, 125.361, 105.958)" x="125.361" y="105.958">6</text>
</g>
<polyline clip-path="url(#clip5402)" style="stroke:#009af9; stroke-width:4; stroke-opacity:1; fill:none" points="
  210.829,934.364 214.936,933.151 219.042,931.959 223.148,930.79 227.254,929.646 231.36,928.529 235.466,927.44 239.572,926.382 243.679,925.354 247.785,924.359 
  251.891,923.398 255.997,922.473 260.103,921.585 264.209,920.734 268.315,919.922 272.421,919.151 276.528,918.421 280.634,917.732 284.74,917.087 288.846,916.485 
  292.952,915.928 297.058,915.416 301.164,914.951 305.271,914.531 309.377,914.159 313.483,913.834 317.589,913.557 321.695,913.328 325.801,913.148 329.907,913.016 
  334.014,912.933 338.12,912.9 342.226,912.915 346.332,912.979 350.438,913.092 354.544,913.255 358.65,913.465 362.756,913.724 366.863,914.031 370.969,914.386 
  375.075,914.788 379.181,915.236 383.287,915.731 387.393,916.271 391.499,916.856 395.606,917.485 399.712,918.157 403.818,918.872 407.924,919.628 412.03,920.425 
  416.136,921.261 420.242,922.136 424.348,923.047 428.455,923.995 432.561,924.977 436.667,925.992 440.773,927.04 444.879,928.118 448.985,929.224 453.091,930.358 
  457.198,931.518 461.304,932.701 465.41,933.907 469.516,935.133 473.622,936.377 477.728,937.638 481.834,938.914 485.941,940.203 490.047,941.503 494.153,942.812 
  498.259,944.129 502.365,945.453 506.471,946.781 510.577,948.111 514.683,949.443 518.79,950.775 522.896,952.105 527.002,953.431 531.108,954.753 535.214,956.069 
  539.32,957.377 543.426,958.676 547.533,959.965 551.639,961.242 555.745,962.507 559.851,963.757 563.957,964.992 568.063,966.211 572.169,967.411 576.276,968.593 
  580.382,969.756 584.488,970.897 588.594,972.016 592.7,973.112 596.806,974.184 600.912,975.231 605.018,976.253 609.125,977.247 613.231,978.214 617.337,979.153 
  621.443,980.063 625.549,980.942 629.655,981.791 633.761,982.608 637.868,983.393 641.974,984.146 646.08,984.865 650.186,985.551 654.292,986.202 658.398,986.817 
  662.504,987.398 666.61,987.942 670.717,988.45 674.823,988.922 678.929,989.356 683.035,989.753 687.141,990.112 691.247,990.432 695.353,990.715 699.46,990.959 
  703.566,991.164 707.672,991.33 711.778,991.458 715.884,991.546 719.99,991.595 724.096,991.605 728.203,991.575 732.309,991.507 736.415,991.399 740.521,991.252 
  744.627,991.066 748.733,990.842 752.839,990.578 756.945,990.277 761.052,989.937 765.158,989.559 769.264,989.144 773.37,988.691 777.476,988.201 781.582,987.675 
  785.688,987.112 789.795,986.514 793.901,985.88 798.007,985.212 802.113,984.51 806.219,983.774 810.325,983.005 814.431,982.203 818.537,981.37 822.644,980.506 
  826.75,979.611 830.856,978.687 834.962,977.734 839.068,976.753 843.174,975.745 847.28,974.711 851.387,973.651 855.493,972.567 859.599,971.459 863.705,970.329 
  867.811,969.177 871.917,968.005 876.023,966.813 880.13,965.604 884.236,964.377 888.342,963.134 892.448,961.876 896.554,960.605 900.66,959.322 904.766,958.028 
  908.872,956.724 912.979,955.412 917.085,954.093 921.191,952.769 925.297,951.44 929.403,950.109 933.509,948.777 937.615,947.446 941.722,946.116 945.828,944.79 
  949.934,943.47 954.04,942.156 958.146,940.851 962.252,939.557 966.358,938.274 970.464,937.006 974.571,935.753 978.677,934.517 982.783,933.301 986.889,932.107 
  990.995,930.935 995.101,929.788 999.207,928.667 1003.31,927.575 1007.42,926.512 1011.53,925.481 1015.63,924.482 1019.74,923.517 1023.84,922.587 1027.95,921.694 
  1032.06,920.838 1036.16,920.022 1040.27,919.245 1044.37,918.51 1048.48,917.816 1052.59,917.165 1056.69,916.558 1060.8,915.995 1064.91,915.478 1069.01,915.006 
  1073.12,914.581 1077.22,914.203 1081.33,913.872 1085.44,913.589 1089.54,913.354 1093.65,913.167 1097.75,913.03 1101.86,912.941 1105.97,912.901 1110.07,912.91 
  1114.18,912.968 1118.29,913.076 1122.39,913.232 1126.5,913.436 1130.6,913.689 1134.71,913.99 1138.82,914.339 1142.92,914.735 1147.03,915.178 1151.13,915.667 
  1155.24,916.201 1159.35,916.781 1163.45,917.404 1167.56,918.071 1171.67,918.781 1175.77,919.532 1179.88,920.323 1183.98,921.155 1188.09,922.024 1192.2,922.931 
  1196.3,923.874 1200.41,924.852 1204.51,925.864 1208.62,926.907 1212.73,927.981 1216.83,929.084 1220.94,930.215 1225.04,931.371 1229.15,932.552 1233.26,933.755 
  1237.36,934.979 1241.47,936.221 1245.58,937.48 1249.68,938.754 1253.79,940.041 1257.89,941.34 1262,942.648 1266.11,943.964 1270.21,945.287 1274.32,946.614 
  1278.42,947.945 1282.53,949.277 1286.64,950.608 1290.74,951.939 1294.85,953.266 1298.96,954.588 1303.06,955.905 1307.17,957.214 1311.27,958.514 1315.38,959.805 
  1319.49,961.083 1323.59,962.35 1327.7,963.602 1331.8,964.839 1335.91,966.059 1340.02,967.262 1344.12,968.447 1348.23,969.611 1352.34,970.755 1356.44,971.877 
  1360.55,972.976 1364.65,974.051 1368.76,975.102 1372.87,976.126 1376.97,977.124 1381.08,978.095 1385.18,979.037 1389.29,979.95 1393.4,980.834 1397.5,981.686 
  1401.61,982.508 1405.71,983.297 1409.82,984.054 1413.93,984.777 1418.03,985.467 1422.14,986.122 1426.25,986.742 1430.35,987.327 1434.46,987.876 1438.56,988.389 
  1442.67,988.865 1446.78,989.304 1450.88,989.705 1454.99,990.069 1459.09,990.394 1463.2,990.682 1467.31,990.931 1471.41,991.141 1475.52,991.312 1479.63,991.444 
  1483.73,991.537 1487.84,991.591 1491.94,991.606 1496.05,991.581 1500.16,991.518 1504.26,991.415 1508.37,991.273 1512.47,991.092 1516.58,990.872 1520.69,990.613 
  1524.79,990.317 1528.9,989.981 1533.01,989.608 1537.11,989.198 1541.22,988.749 1545.32,988.264 1549.43,987.742 1553.54,987.184 1557.64,986.591 1561.75,985.962 
  1565.85,985.298 1569.96,984.6 1574.07,983.868 1578.17,983.103 1582.28,982.305 1586.38,981.476 1590.49,980.616 1594.6,979.725 1598.7,978.804 1602.81,977.855 
  1606.92,976.878 1611.02,975.873 1615.13,974.842 1619.23,973.785 1623.34,972.704 1627.45,971.599 1631.55,970.471 1635.66,969.322 1639.76,968.152 1643.87,966.963 
  1647.98,965.756 1652.08,964.531 1656.19,963.29 1660.3,962.034 1664.4,960.765 1668.51,959.483 1672.61,958.19 1676.72,956.887 1680.83,955.576 1684.93,954.258 
  1689.04,952.934 1693.14,951.606 1697.25,950.276 1701.36,948.944 1705.46,947.612 1709.57,946.282 1713.67,944.956 1717.78,943.635 1721.89,942.32 1725.99,941.014 
  1730.1,939.718 1734.21,938.434 1738.31,937.164 1742.42,935.909 1746.52,934.671 1750.63,933.452 1754.74,932.255 1758.84,931.08 1762.95,929.93 1767.05,928.806 
  1771.16,927.71 1775.27,926.643 1779.37,925.608 1783.48,924.605 1787.59,923.635 1791.69,922.701 1795.8,921.803 1799.9,920.943 1804.01,920.122 1808.12,919.34 
  1812.22,918.599 1816.33,917.9 1820.43,917.244 1824.54,916.632 1828.65,916.063 1832.75,915.54 1836.86,915.063 1840.97,914.632 1845.07,914.247 1849.18,913.911 
  1853.28,913.621 1857.39,913.381 1861.5,913.188 1865.6,913.044 1869.71,912.949 1873.81,912.903 1877.92,912.906 1882.03,912.959 1886.13,913.06 1890.24,913.209 
  1894.34,913.408 1898.45,913.655 1902.56,913.95 1906.66,914.293 1910.77,914.683 1914.88,915.12 1918.98,915.603 1923.09,916.132 1927.19,916.706 1931.3,917.324 
  1935.41,917.985 1939.51,918.69 1943.62,919.436 1947.72,920.222 1951.83,921.049 1955.94,921.913 1960.04,922.816 1964.15,923.755 1968.26,924.728 1972.36,925.736 
  1976.47,926.775 1980.57,927.845 1984.68,928.945 1988.79,930.072 1992.89,931.226 1997,932.403 2001.1,933.603 2005.21,934.825 2009.32,936.065 2013.42,937.322 
  2017.53,938.594 2021.64,939.879 2025.74,941.177 2029.85,942.484 2033.95,943.799 2038.06,945.121 2042.17,946.448 2046.27,947.778 2050.38,949.11 2054.48,950.442 
  2058.59,951.773 2062.7,953.1 2066.8,954.423 2070.91,955.741 2075.01,957.051 2079.12,958.352 2083.23,959.644 2087.33,960.924 2091.44,962.192 2095.55,963.446 
  2099.65,964.685 2103.76,965.908 2107.86,967.113 2111.97,968.3 2116.08,969.467 2120.18,970.613 2124.29,971.738 2128.39,972.84 2132.5,973.918 2136.61,974.972 
  2140.71,976 2144.82,977.001 2148.93,977.975 2153.03,978.921 2157.14,979.838 2161.24,980.725 2165.35,981.581 2169.46,982.407 2173.56,983.2 2177.67,983.961 
  2181.77,984.689 2185.88,985.383 2189.99,986.042 2194.09,986.667 2198.2,987.256 2202.31,987.81 2206.41,988.327 2210.52,988.807 2214.62,989.251 2218.73,989.657 
  2222.84,990.025 2226.94,990.356 2231.05,990.648 2235.15,990.902 2239.26,991.116 2243.37,991.293 2247.47,991.43 2251.58,991.528 2255.68,991.586 2259.79,991.606 
  
  "/>
<polyline clip-path="url(#clip5402)" style="stroke:#e26f46; stroke-width:4; stroke-opacity:1; fill:none" points="
  210.829,928.004 214.936,929.286 219.042,930.682 223.148,932.188 227.254,933.8 231.36,935.515 235.466,937.329 239.572,939.237 243.679,941.237 247.785,943.325 
  251.891,945.496 255.997,947.748 260.103,950.075 264.209,952.475 268.315,954.943 272.421,957.477 276.528,960.071 280.634,962.723 284.74,965.428 288.846,968.183 
  292.952,970.985 297.058,973.828 301.164,976.71 305.271,979.626 309.377,982.573 313.483,985.548 317.589,988.546 321.695,991.563 325.801,994.596 329.907,997.641 
  334.014,1000.69 338.12,1003.75 342.226,1006.81 346.332,1009.87 350.438,1012.92 354.544,1015.95 358.65,1018.98 362.756,1021.98 366.863,1024.97 370.969,1027.93 
  375.075,1030.85 379.181,1033.75 383.287,1036.61 387.393,1039.42 391.499,1042.2 395.606,1044.92 399.712,1047.59 403.818,1050.21 407.924,1052.77 412.03,1055.26 
  416.136,1057.69 420.242,1060.04 424.348,1062.32 428.455,1064.52 432.561,1066.64 436.667,1068.68 440.773,1070.62 444.879,1072.47 448.985,1074.22 453.091,1075.87 
  457.198,1077.42 461.304,1078.86 465.41,1080.18 469.516,1081.39 473.622,1082.48 477.728,1083.46 481.834,1084.33 485.941,1085.08 490.047,1085.73 494.153,1086.26 
  498.259,1086.7 502.365,1087.03 506.471,1087.25 510.577,1087.38 514.683,1087.41 518.79,1087.35 522.896,1087.19 527.002,1086.94 531.108,1086.6 535.214,1086.17 
  539.32,1085.66 543.426,1085.06 547.533,1084.37 551.639,1083.61 555.745,1082.77 559.851,1081.85 563.957,1080.86 568.063,1079.79 572.169,1078.65 576.276,1077.44 
  580.382,1076.17 584.488,1074.83 588.594,1073.43 592.7,1071.96 596.806,1070.43 600.912,1068.85 605.018,1067.21 609.125,1065.52 613.231,1063.77 617.337,1061.97 
  621.443,1060.13 625.549,1058.23 629.655,1056.3 633.761,1054.32 637.868,1052.3 641.974,1050.24 646.08,1048.14 650.186,1046.01 654.292,1043.84 658.398,1041.64 
  662.504,1039.41 666.61,1037.16 670.717,1034.88 674.823,1032.57 678.929,1030.24 683.035,1027.9 687.141,1025.53 691.247,1023.15 695.353,1020.75 699.46,1018.34 
  703.566,1015.92 707.672,1013.49 711.778,1011.05 715.884,1008.61 719.99,1006.16 724.096,1003.71 728.203,1001.27 732.309,998.824 736.415,996.384 740.521,993.95 
  744.627,991.524 748.733,989.108 752.839,986.704 756.945,984.314 761.052,981.939 765.158,979.581 769.264,977.243 773.37,974.926 777.476,972.633 781.582,970.364 
  785.688,968.122 789.795,965.909 793.901,963.726 798.007,961.577 802.113,959.461 806.219,957.382 810.325,955.341 814.431,953.34 818.537,951.382 822.644,949.467 
  826.75,947.597 830.856,945.776 834.962,944.004 839.068,942.283 843.174,940.616 847.28,939.004 851.387,937.449 855.493,935.953 859.599,934.518 863.705,933.145 
  867.811,931.838 871.917,930.596 876.023,929.423 880.13,928.321 884.236,927.29 888.342,926.334 892.448,925.454 896.554,924.651 900.66,923.928 904.766,923.287 
  908.872,922.729 912.979,922.257 917.085,921.872 921.191,921.576 925.297,921.371 929.403,921.259 933.509,921.242 937.615,921.322 941.722,921.5 945.828,921.779 
  949.934,922.16 954.04,922.645 958.146,923.237 962.252,923.936 966.358,924.745 970.464,925.667 974.571,926.702 978.677,927.852 982.783,929.119 986.889,930.501 
  990.995,931.993 995.101,933.593 999.207,935.295 1003.31,937.097 1007.42,938.994 1011.53,940.982 1015.63,943.059 1019.74,945.22 1023.84,947.462 1027.95,949.78 
  1032.06,952.171 1036.16,954.631 1040.27,957.157 1044.37,959.744 1048.48,962.389 1052.59,965.087 1056.69,967.836 1060.8,970.632 1064.91,973.47 1069.01,976.347 
  1073.12,979.26 1077.22,982.203 1081.33,985.175 1085.44,988.17 1089.54,991.185 1093.65,994.216 1097.75,997.26 1101.86,1000.31 1105.97,1003.37 1110.07,1006.43 
  1114.18,1009.49 1118.29,1012.54 1122.39,1015.58 1126.5,1018.6 1130.6,1021.61 1134.71,1024.6 1138.82,1027.56 1142.92,1030.49 1147.03,1033.39 1151.13,1036.25 
  1155.24,1039.07 1159.35,1041.85 1163.45,1044.58 1167.56,1047.26 1171.67,1049.89 1175.77,1052.45 1179.88,1054.95 1183.98,1057.39 1188.09,1059.75 1192.2,1062.04 
  1196.3,1064.25 1200.41,1066.38 1204.51,1068.43 1208.62,1070.38 1212.73,1072.24 1216.83,1074.01 1220.94,1075.67 1225.04,1077.23 1229.15,1078.68 1233.26,1080.02 
  1237.36,1081.25 1241.47,1082.35 1245.58,1083.34 1249.68,1084.22 1253.79,1084.99 1257.89,1085.65 1262,1086.2 1266.11,1086.65 1270.21,1086.99 1274.32,1087.23 
  1278.42,1087.37 1282.53,1087.42 1286.64,1087.36 1290.74,1087.22 1294.85,1086.98 1298.96,1086.65 1303.06,1086.23 1307.17,1085.72 1311.27,1085.14 1315.38,1084.46 
  1319.49,1083.71 1323.59,1082.88 1327.7,1081.97 1331.8,1080.98 1335.91,1079.93 1340.02,1078.8 1344.12,1077.6 1348.23,1076.33 1352.34,1075 1356.44,1073.6 
  1360.55,1072.15 1364.65,1070.63 1368.76,1069.05 1372.87,1067.42 1376.97,1065.73 1381.08,1063.99 1385.18,1062.2 1389.29,1060.36 1393.4,1058.47 1397.5,1056.54 
  1401.61,1054.57 1405.71,1052.55 1409.82,1050.5 1413.93,1048.4 1418.03,1046.27 1422.14,1044.11 1426.25,1041.92 1430.35,1039.69 1434.46,1037.44 1438.56,1035.16 
  1442.67,1032.86 1446.78,1030.54 1450.88,1028.19 1454.99,1025.83 1459.09,1023.44 1463.2,1021.05 1467.31,1018.64 1471.41,1016.22 1475.52,1013.79 1479.63,1011.35 
  1483.73,1008.91 1487.84,1006.47 1491.94,1004.02 1496.05,1001.57 1500.16,999.129 1504.26,996.689 1508.37,994.254 1512.47,991.827 1516.58,989.41 1520.69,987.004 
  1524.79,984.612 1528.9,982.235 1533.01,979.875 1537.11,977.534 1541.22,975.215 1545.32,972.918 1549.43,970.646 1553.54,968.401 1557.64,966.184 1561.75,963.997 
  1565.85,961.843 1569.96,959.724 1574.07,957.64 1578.17,955.594 1582.28,953.588 1586.38,951.624 1590.49,949.703 1594.6,947.828 1598.7,946.001 1602.81,944.223 
  1606.92,942.495 1611.02,940.821 1615.13,939.202 1619.23,937.64 1623.34,936.137 1627.45,934.694 1631.55,933.313 1635.66,931.997 1639.76,930.748 1643.87,929.566 
  1647.98,928.455 1652.08,927.415 1656.19,926.449 1660.3,925.559 1664.4,924.747 1668.51,924.014 1672.61,923.363 1676.72,922.794 1680.83,922.311 1684.93,921.915 
  1689.04,921.608 1693.14,921.392 1697.25,921.268 1701.36,921.239 1705.46,921.307 1709.57,921.472 1713.67,921.738 1717.78,922.106 1721.89,922.579 1725.99,923.157 
  1730.1,923.843 1734.21,924.638 1738.31,925.545 1742.42,926.566 1746.52,927.702 1750.63,928.955 1754.74,930.322 1758.84,931.801 1762.95,933.387 1767.05,935.077 
  1771.16,936.866 1775.27,938.751 1779.37,940.729 1783.48,942.795 1787.59,944.946 1791.69,947.177 1795.8,949.486 1799.9,951.868 1804.01,954.32 1808.12,956.838 
  1812.22,959.417 1816.33,962.055 1820.43,964.747 1824.54,967.49 1828.65,970.28 1832.75,973.113 1836.86,975.986 1840.97,978.894 1845.07,981.834 1849.18,984.802 
  1853.28,987.794 1857.39,990.807 1861.5,993.837 1865.6,996.879 1869.71,999.931 1873.81,1002.99 1877.92,1006.05 1882.03,1009.1 1886.13,1012.15 1890.24,1015.2 
  1894.34,1018.22 1898.45,1021.23 1902.56,1024.22 1906.66,1027.19 1910.77,1030.12 1914.88,1033.03 1918.98,1035.9 1923.09,1038.72 1927.19,1041.51 1931.3,1044.25 
  1935.41,1046.93 1939.51,1049.56 1943.62,1052.13 1947.72,1054.64 1951.83,1057.09 1955.94,1059.46 1960.04,1061.76 1964.15,1063.98 1968.26,1066.12 1972.36,1068.18 
  1976.47,1070.14 1980.57,1072.02 1984.68,1073.79 1988.79,1075.47 1992.89,1077.04 1997,1078.51 2001.1,1079.86 2005.21,1081.1 2009.32,1082.22 2013.42,1083.23 
  2017.53,1084.12 2021.64,1084.9 2025.74,1085.57 2029.85,1086.14 2033.95,1086.6 2038.06,1086.95 2042.17,1087.21 2046.27,1087.36 2050.38,1087.42 2054.48,1087.37 
  2058.59,1087.24 2062.7,1087.01 2066.8,1086.69 2070.91,1086.29 2075.01,1085.79 2079.12,1085.21 2083.23,1084.55 2087.33,1083.81 2091.44,1082.99 2095.55,1082.09 
  2099.65,1081.11 2103.76,1080.06 2107.86,1078.94 2111.97,1077.75 2116.08,1076.49 2120.18,1075.17 2124.29,1073.78 2128.39,1072.33 2132.5,1070.82 2136.61,1069.25 
  2140.71,1067.63 2144.82,1065.94 2148.93,1064.21 2153.03,1062.43 2157.14,1060.59 2161.24,1058.71 2165.35,1056.79 2169.46,1054.82 2173.56,1052.81 2177.67,1050.75 
  2181.77,1048.67 2185.88,1046.54 2189.99,1044.38 2194.09,1042.19 2198.2,1039.97 2202.31,1037.72 2206.41,1035.45 2210.52,1033.15 2214.62,1030.83 2218.73,1028.48 
  2222.84,1026.12 2226.94,1023.74 2231.05,1021.35 2235.15,1018.94 2239.26,1016.52 2243.37,1014.1 2247.47,1011.66 2251.58,1009.22 2255.68,1006.77 2259.79,1004.33 
  
  "/>
<polyline clip-path="url(#clip5402)" style="stroke:#3da44d; stroke-width:4; stroke-opacity:1; fill:none" points="
  210.829,1080.65 214.936,1087.87 219.042,1094.86 223.148,1101.61 227.254,1108.13 231.36,1114.41 235.466,1120.46 239.572,1126.27 243.679,1131.85 247.785,1137.19 
  251.891,1142.3 255.997,1147.16 260.103,1151.8 264.209,1156.2 268.315,1160.36 272.421,1164.29 276.528,1167.98 280.634,1171.44 284.74,1174.66 288.846,1177.65 
  292.952,1180.4 297.058,1182.92 301.164,1185.2 305.271,1187.24 309.377,1189.05 313.483,1190.63 317.589,1191.97 321.695,1193.07 325.801,1193.94 329.907,1194.57 
  334.014,1194.97 338.12,1195.13 342.226,1195.05 346.332,1194.75 350.438,1194.2 354.544,1193.42 358.65,1192.41 362.756,1191.16 366.863,1189.67 370.969,1187.95 
  375.075,1185.99 379.181,1183.8 383.287,1181.37 387.393,1178.71 391.499,1175.81 395.606,1172.68 399.712,1169.31 403.818,1165.7 407.924,1161.86 412.03,1157.79 
  416.136,1153.48 420.242,1148.93 424.348,1144.15 428.455,1139.13 432.561,1133.88 436.667,1128.39 440.773,1122.67 444.879,1116.71 448.985,1110.52 453.091,1104.09 
  457.198,1097.42 461.304,1090.52 465.41,1083.39 469.516,1076.08 473.622,1068.87 477.728,1061.78 481.834,1054.81 485.941,1047.95 490.047,1041.21 494.153,1034.59 
  498.259,1028.09 502.365,1021.71 506.471,1015.44 510.577,1009.29 514.683,1003.26 518.79,997.341 522.896,991.544 527.002,985.865 531.108,980.304 535.214,974.86 
  539.32,969.534 543.426,964.326 547.533,959.235 551.639,954.262 555.745,949.407 559.851,944.67 563.957,940.05 568.063,935.548 572.169,931.163 576.276,926.897 
  580.382,922.748 584.488,918.716 588.594,914.803 592.7,911.007 596.806,907.329 600.912,903.768 605.018,900.326 609.125,897.001 613.231,893.793 617.337,890.703 
  621.443,887.732 625.549,884.877 629.655,882.141 633.761,879.522 637.868,877.021 641.974,874.637 646.08,872.371 650.186,870.223 654.292,868.193 658.398,866.28 
  662.504,864.485 666.61,862.808 670.717,861.249 674.823,859.807 678.929,858.483 683.035,857.276 687.141,856.188 691.247,855.216 695.353,854.363 699.46,853.628 
  703.566,853.01 707.672,852.509 711.778,852.127 715.884,851.862 719.99,851.715 724.096,851.685 728.203,851.774 732.309,851.98 736.415,852.303 740.521,852.745 
  744.627,853.304 748.733,853.981 752.839,854.775 756.945,855.687 761.052,856.717 765.158,857.865 769.264,859.13 773.37,860.513 777.476,862.014 781.582,863.632 
  785.688,865.368 789.795,867.222 793.901,869.194 798.007,871.283 802.113,873.49 806.219,875.814 810.325,878.257 814.431,880.817 818.537,883.494 822.644,886.29 
  826.75,889.203 830.856,892.234 834.962,895.382 839.068,898.648 843.174,902.032 847.28,905.534 851.387,909.153 855.493,912.89 859.599,916.745 863.705,920.717 
  867.811,924.807 871.917,929.015 876.023,933.341 880.13,937.784 884.236,942.345 888.342,947.024 892.448,951.82 896.554,956.734 900.66,961.766 904.766,966.915 
  908.872,972.182 912.979,977.567 917.085,983.07 921.191,988.69 925.297,994.428 929.403,1000.28 933.509,1006.26 937.615,1012.35 941.722,1018.56 945.828,1024.88 
  949.934,1031.33 954.04,1037.89 958.146,1044.57 962.252,1051.37 966.358,1058.28 970.464,1065.31 974.571,1072.46 978.677,1079.73 982.783,1086.98 986.889,1094 
  990.995,1100.78 995.101,1107.33 999.207,1113.64 1003.31,1119.72 1007.42,1125.56 1011.53,1131.16 1015.63,1136.53 1019.74,1141.67 1023.84,1146.57 1027.95,1151.23 
  1032.06,1155.66 1036.16,1159.85 1040.27,1163.81 1044.37,1167.53 1048.48,1171.02 1052.59,1174.27 1056.69,1177.29 1060.8,1180.07 1064.91,1182.62 1069.01,1184.93 
  1073.12,1187 1077.22,1188.84 1081.33,1190.44 1085.44,1191.81 1089.54,1192.94 1093.65,1193.84 1097.75,1194.5 1101.86,1194.93 1105.97,1195.12 1110.07,1195.08 
  1114.18,1194.8 1118.29,1194.28 1122.39,1193.53 1126.5,1192.55 1130.6,1191.33 1134.71,1189.87 1138.82,1188.18 1142.92,1186.25 1147.03,1184.09 1151.13,1181.69 
  1155.24,1179.05 1159.35,1176.19 1163.45,1173.08 1167.56,1169.74 1171.67,1166.17 1175.77,1162.36 1179.88,1158.31 1183.98,1154.03 1188.09,1149.51 1192.2,1144.76 
  1196.3,1139.77 1200.41,1134.55 1204.51,1129.09 1208.62,1123.4 1212.73,1117.47 1216.83,1111.3 1220.94,1104.9 1225.04,1098.27 1229.15,1091.4 1233.26,1084.29 
  1237.36,1076.99 1241.47,1069.77 1245.58,1062.66 1249.68,1055.67 1253.79,1048.8 1257.89,1042.05 1262,1035.41 1266.11,1028.9 1270.21,1022.5 1274.32,1016.21 
  1278.42,1010.05 1282.53,1004 1286.64,998.074 1290.74,992.262 1294.85,986.569 1298.96,980.992 1303.06,975.534 1307.17,970.193 1311.27,964.97 1315.38,959.865 
  1319.49,954.877 1323.59,950.008 1327.7,945.255 1331.8,940.621 1335.91,936.104 1340.02,931.705 1344.12,927.424 1348.23,923.26 1352.34,919.214 1356.44,915.286 
  1360.55,911.475 1364.65,907.782 1368.76,904.207 1372.87,900.749 1376.97,897.41 1381.08,894.188 1385.18,891.083 1389.29,888.097 1393.4,885.228 1397.5,882.476 
  1401.61,879.843 1405.71,877.327 1409.82,874.929 1413.93,872.648 1418.03,870.486 1422.14,868.44 1426.25,866.513 1430.35,864.703 1434.46,863.011 1438.56,861.437 
  1442.67,859.981 1446.78,858.642 1450.88,857.421 1454.99,856.317 1459.09,855.331 1463.2,854.463 1467.31,853.713 1471.41,853.08 1475.52,852.565 1479.63,852.168 
  1483.73,851.889 1487.84,851.727 1491.94,851.683 1496.05,851.756 1500.16,851.948 1504.26,852.256 1508.37,852.683 1512.47,853.228 1516.58,853.89 1520.69,854.669 
  1524.79,855.567 1528.9,856.582 1533.01,857.715 1537.11,858.965 1541.22,860.334 1545.32,861.82 1549.43,863.423 1553.54,865.145 1557.64,866.984 1561.75,868.941 
  1565.85,871.015 1569.96,873.207 1574.07,875.517 1578.17,877.945 1582.28,880.49 1586.38,883.153 1590.49,885.934 1594.6,888.832 1598.7,891.848 1602.81,894.982 
  1606.92,898.234 1611.02,901.603 1615.13,905.09 1619.23,908.694 1623.34,912.417 1627.45,916.257 1631.55,920.214 1635.66,924.29 1639.76,928.483 1643.87,932.794 
  1647.98,937.222 1652.08,941.768 1656.19,946.432 1660.3,951.214 1664.4,956.113 1668.51,961.13 1672.61,966.265 1676.72,971.518 1680.83,976.888 1684.93,982.375 
  1689.04,987.981 1693.14,993.704 1697.25,999.545 1701.36,1005.5 1705.46,1011.58 1709.57,1017.77 1713.67,1024.09 1717.78,1030.52 1721.89,1037.06 1725.99,1043.73 
  1730.1,1050.51 1734.21,1057.41 1738.31,1064.43 1742.42,1071.56 1746.52,1078.82 1750.63,1086.09 1754.74,1093.14 1758.84,1099.95 1762.95,1106.52 1767.05,1112.87 
  1771.16,1118.97 1775.27,1124.84 1779.37,1130.48 1783.48,1135.88 1787.59,1141.04 1791.69,1145.97 1795.8,1150.66 1799.9,1155.12 1804.01,1159.34 1808.12,1163.33 
  1812.22,1167.08 1816.33,1170.6 1820.43,1173.88 1824.54,1176.92 1828.65,1179.74 1832.75,1182.31 1836.86,1184.65 1840.97,1186.75 1845.07,1188.62 1849.18,1190.25 
  1853.28,1191.65 1857.39,1192.81 1861.5,1193.74 1865.6,1194.43 1869.71,1194.89 1873.81,1195.11 1877.92,1195.1 1882.03,1194.85 1886.13,1194.36 1890.24,1193.64 
  1894.34,1192.68 1898.45,1191.49 1902.56,1190.06 1906.66,1188.4 1910.77,1186.5 1914.88,1184.37 1918.98,1182 1923.09,1179.4 1927.19,1176.56 1931.3,1173.48 
  1935.41,1170.17 1939.51,1166.63 1943.62,1162.84 1947.72,1158.83 1951.83,1154.58 1955.94,1150.09 1960.04,1145.37 1964.15,1140.41 1968.26,1135.21 1972.36,1129.79 
  1976.47,1124.12 1980.57,1118.22 1984.68,1112.09 1988.79,1105.72 1992.89,1099.11 1997,1092.27 2001.1,1085.19 2005.21,1077.9 2009.32,1070.67 2013.42,1063.54 
  2017.53,1056.54 2021.64,1049.66 2025.74,1042.89 2029.85,1036.24 2033.95,1029.71 2038.06,1023.29 2042.17,1016.99 2046.27,1010.81 2050.38,1004.75 2054.48,998.809 
  2058.59,992.982 2062.7,987.274 2066.8,981.683 2070.91,976.21 2075.01,970.855 2079.12,965.617 2083.23,960.497 2087.33,955.494 2091.44,950.61 2095.55,945.843 
  2099.65,941.194 2103.76,936.662 2107.86,932.248 2111.97,927.952 2116.08,923.774 2120.18,919.713 2124.29,915.77 2128.39,911.945 2132.5,908.237 2136.61,904.647 
  2140.71,901.175 2144.82,897.821 2148.93,894.584 2153.03,891.465 2157.14,888.463 2161.24,885.58 2165.35,882.814 2169.46,880.166 2173.56,877.635 2177.67,875.222 
  2181.77,872.927 2185.88,870.749 2189.99,868.69 2194.09,866.748 2198.2,864.923 2202.31,863.217 2206.41,861.628 2210.52,860.156 2214.62,858.803 2218.73,857.567 
  2222.84,856.449 2226.94,855.448 2231.05,854.565 2235.15,853.8 2239.26,853.153 2243.37,852.623 2247.47,852.211 2251.58,851.917 2255.68,851.741 2259.79,851.682 
  
  "/>
<polyline clip-path="url(#clip5402)" style="stroke:#c271d2; stroke-width:4; stroke-opacity:1; fill:none" points="
  210.829,1462.26 214.936,1447.58 219.042,1432.89 223.148,1418.21 227.254,1403.53 231.36,1388.84 235.466,1374.16 239.572,1359.48 243.679,1344.79 247.785,1330.11 
  251.891,1315.43 255.997,1300.74 260.103,1286.06 264.209,1271.38 268.315,1256.7 272.421,1242.01 276.528,1227.33 280.634,1212.65 284.74,1197.96 288.846,1183.28 
  292.952,1168.6 297.058,1153.91 301.164,1139.23 305.271,1124.55 309.377,1109.86 313.483,1095.18 317.589,1080.5 321.695,1065.81 325.801,1051.13 329.907,1036.45 
  334.014,1021.76 338.12,1007.08 342.226,992.396 346.332,977.713 350.438,963.03 354.544,948.347 358.65,933.663 362.756,918.98 366.863,904.297 370.969,889.614 
  375.075,874.93 379.181,860.247 383.287,845.564 387.393,830.88 391.499,816.197 395.606,801.514 399.712,786.831 403.818,772.147 407.924,757.464 412.03,742.781 
  416.136,728.098 420.242,713.414 424.348,698.731 428.455,684.048 432.561,669.365 436.667,654.681 440.773,639.998 444.879,625.315 448.985,610.632 453.091,595.948 
  457.198,581.265 461.304,566.582 465.41,551.899 469.516,550.981 473.622,558.322 477.728,565.664 481.834,573.006 485.941,580.347 490.047,587.689 494.153,595.031 
  498.259,602.372 502.365,609.714 506.471,617.056 510.577,624.397 514.683,631.739 518.79,639.08 522.896,646.422 527.002,653.764 531.108,661.105 535.214,668.447 
  539.32,675.789 543.426,683.13 547.533,690.472 551.639,697.813 555.745,705.155 559.851,712.497 563.957,719.838 568.063,727.18 572.169,734.522 576.276,741.863 
  580.382,749.205 584.488,756.546 588.594,763.888 592.7,771.23 596.806,778.571 600.912,785.913 605.018,793.255 609.125,800.596 613.231,807.938 617.337,815.28 
  621.443,822.621 625.549,829.963 629.655,837.304 633.761,844.646 637.868,851.988 641.974,859.329 646.08,866.671 650.186,874.013 654.292,881.354 658.398,888.696 
  662.504,896.037 666.61,903.379 670.717,910.721 674.823,918.062 678.929,925.404 683.035,932.746 687.141,940.087 691.247,947.429 695.353,954.77 699.46,962.112 
  703.566,969.454 707.672,976.795 711.778,984.137 715.884,991.479 719.99,998.82 724.096,1006.16 728.203,1013.5 732.309,1020.85 736.415,1028.19 740.521,1035.53 
  744.627,1042.87 748.733,1050.21 752.839,1057.55 756.945,1064.89 761.052,1072.24 765.158,1079.58 769.264,1086.92 773.37,1094.26 777.476,1101.6 781.582,1108.94 
  785.688,1116.29 789.795,1123.63 793.901,1130.97 798.007,1138.31 802.113,1145.65 806.219,1152.99 810.325,1160.34 814.431,1167.68 818.537,1175.02 822.644,1182.36 
  826.75,1189.7 830.856,1197.04 834.962,1204.39 839.068,1211.73 843.174,1219.07 847.28,1226.41 851.387,1233.75 855.493,1241.09 859.599,1248.44 863.705,1255.78 
  867.811,1263.12 871.917,1270.46 876.023,1277.8 880.13,1285.14 884.236,1292.49 888.342,1299.83 892.448,1307.17 896.554,1314.51 900.66,1321.85 904.766,1329.19 
  908.872,1336.54 912.979,1343.88 917.085,1351.22 921.191,1358.56 925.297,1365.9 929.403,1373.24 933.509,1380.59 937.615,1387.93 941.722,1395.27 945.828,1402.61 
  949.934,1409.95 954.04,1417.29 958.146,1424.63 962.252,1431.98 966.358,1439.32 970.464,1446.66 974.571,1454 978.677,1461.34 982.783,1449.41 986.889,1434.73 
  990.995,1420.05 995.101,1405.36 999.207,1390.68 1003.31,1376 1007.42,1361.31 1011.53,1346.63 1015.63,1331.95 1019.74,1317.26 1023.84,1302.58 1027.95,1287.9 
  1032.06,1273.21 1036.16,1258.53 1040.27,1243.85 1044.37,1229.16 1048.48,1214.48 1052.59,1199.8 1056.69,1185.11 1060.8,1170.43 1064.91,1155.75 1069.01,1141.06 
  1073.12,1126.38 1077.22,1111.7 1081.33,1097.01 1085.44,1082.33 1089.54,1067.65 1093.65,1052.96 1097.75,1038.28 1101.86,1023.6 1105.97,1008.92 1110.07,994.232 
  1114.18,979.548 1118.29,964.865 1122.39,950.182 1126.5,935.499 1130.6,920.815 1134.71,906.132 1138.82,891.449 1142.92,876.766 1147.03,862.082 1151.13,847.399 
  1155.24,832.716 1159.35,818.033 1163.45,803.349 1167.56,788.666 1171.67,773.983 1175.77,759.3 1179.88,744.616 1183.98,729.933 1188.09,715.25 1192.2,700.567 
  1196.3,685.883 1200.41,671.2 1204.51,656.517 1208.62,641.834 1212.73,627.15 1216.83,612.467 1220.94,597.784 1225.04,583.1 1229.15,568.417 1233.26,553.734 
  1237.36,550.063 1241.47,557.405 1245.58,564.746 1249.68,572.088 1253.79,579.43 1257.89,586.771 1262,594.113 1266.11,601.455 1270.21,608.796 1274.32,616.138 
  1278.42,623.479 1282.53,630.821 1286.64,638.163 1290.74,645.504 1294.85,652.846 1298.96,660.188 1303.06,667.529 1307.17,674.871 1311.27,682.212 1315.38,689.554 
  1319.49,696.896 1323.59,704.237 1327.7,711.579 1331.8,718.921 1335.91,726.262 1340.02,733.604 1344.12,740.946 1348.23,748.287 1352.34,755.629 1356.44,762.97 
  1360.55,770.312 1364.65,777.654 1368.76,784.995 1372.87,792.337 1376.97,799.679 1381.08,807.02 1385.18,814.362 1389.29,821.703 1393.4,829.045 1397.5,836.387 
  1401.61,843.728 1405.71,851.07 1409.82,858.412 1413.93,865.753 1418.03,873.095 1422.14,880.436 1426.25,887.778 1430.35,895.12 1434.46,902.461 1438.56,909.803 
  1442.67,917.145 1446.78,924.486 1450.88,931.828 1454.99,939.17 1459.09,946.511 1463.2,953.853 1467.31,961.194 1471.41,968.536 1475.52,975.878 1479.63,983.219 
  1483.73,990.561 1487.84,997.903 1491.94,1005.24 1496.05,1012.59 1500.16,1019.93 1504.26,1027.27 1508.37,1034.61 1512.47,1041.95 1516.58,1049.29 1520.69,1056.64 
  1524.79,1063.98 1528.9,1071.32 1533.01,1078.66 1537.11,1086 1541.22,1093.34 1545.32,1100.69 1549.43,1108.03 1553.54,1115.37 1557.64,1122.71 1561.75,1130.05 
  1565.85,1137.39 1569.96,1144.74 1574.07,1152.08 1578.17,1159.42 1582.28,1166.76 1586.38,1174.1 1590.49,1181.44 1594.6,1188.78 1598.7,1196.13 1602.81,1203.47 
  1606.92,1210.81 1611.02,1218.15 1615.13,1225.49 1619.23,1232.83 1623.34,1240.18 1627.45,1247.52 1631.55,1254.86 1635.66,1262.2 1639.76,1269.54 1643.87,1276.88 
  1647.98,1284.23 1652.08,1291.57 1656.19,1298.91 1660.3,1306.25 1664.4,1313.59 1668.51,1320.93 1672.61,1328.28 1676.72,1335.62 1680.83,1342.96 1684.93,1350.3 
  1689.04,1357.64 1693.14,1364.98 1697.25,1372.33 1701.36,1379.67 1705.46,1387.01 1709.57,1394.35 1713.67,1401.69 1717.78,1409.03 1721.89,1416.38 1725.99,1423.72 
  1730.1,1431.06 1734.21,1438.4 1738.31,1445.74 1742.42,1453.08 1746.52,1460.43 1750.63,1451.25 1754.74,1436.56 1758.84,1421.88 1762.95,1407.2 1767.05,1392.52 
  1771.16,1377.83 1775.27,1363.15 1779.37,1348.47 1783.48,1333.78 1787.59,1319.1 1791.69,1304.42 1795.8,1289.73 1799.9,1275.05 1804.01,1260.37 1808.12,1245.68 
  1812.22,1231 1816.33,1216.32 1820.43,1201.63 1824.54,1186.95 1828.65,1172.27 1832.75,1157.58 1836.86,1142.9 1840.97,1128.22 1845.07,1113.53 1849.18,1098.85 
  1853.28,1084.17 1857.39,1069.48 1861.5,1054.8 1865.6,1040.12 1869.71,1025.43 1873.81,1010.75 1877.92,996.067 1882.03,981.384 1886.13,966.701 1890.24,952.017 
  1894.34,937.334 1898.45,922.651 1902.56,907.968 1906.66,893.284 1910.77,878.601 1914.88,863.918 1918.98,849.235 1923.09,834.551 1927.19,819.868 1931.3,805.185 
  1935.41,790.502 1939.51,775.818 1943.62,761.135 1947.72,746.452 1951.83,731.768 1955.94,717.085 1960.04,702.402 1964.15,687.719 1968.26,673.035 1972.36,658.352 
  1976.47,643.669 1980.57,628.986 1984.68,614.302 1988.79,599.619 1992.89,584.936 1997,570.253 2001.1,555.569 2005.21,549.145 2009.32,556.487 2013.42,563.829 
  2017.53,571.17 2021.64,578.512 2025.74,585.854 2029.85,593.195 2033.95,600.537 2038.06,607.878 2042.17,615.22 2046.27,622.562 2050.38,629.903 2054.48,637.245 
  2058.59,644.587 2062.7,651.928 2066.8,659.27 2070.91,666.612 2075.01,673.953 2079.12,681.295 2083.23,688.636 2087.33,695.978 2091.44,703.32 2095.55,710.661 
  2099.65,718.003 2103.76,725.345 2107.86,732.686 2111.97,740.028 2116.08,747.369 2120.18,754.711 2124.29,762.053 2128.39,769.394 2132.5,776.736 2136.61,784.078 
  2140.71,791.419 2144.82,798.761 2148.93,806.102 2153.03,813.444 2157.14,820.786 2161.24,828.127 2165.35,835.469 2169.46,842.811 2173.56,850.152 2177.67,857.494 
  2181.77,864.836 2185.88,872.177 2189.99,879.519 2194.09,886.86 2198.2,894.202 2202.31,901.544 2206.41,908.885 2210.52,916.227 2214.62,923.569 2218.73,930.91 
  2222.84,938.252 2226.94,945.593 2231.05,952.935 2235.15,960.277 2239.26,967.618 2243.37,974.96 2247.47,982.302 2251.58,989.643 2255.68,996.985 2259.79,1004.33 
  
  "/>
<polyline clip-path="url(#clip5402)" style="stroke:#ac8d18; stroke-width:4; stroke-opacity:1; fill:none" points="
  210.829,88.4582 214.936,88.4582 219.042,88.4582 223.148,88.4582 227.254,88.4582 231.36,88.4582 235.466,88.4582 239.572,88.4582 243.679,88.4582 247.785,88.4582 
  251.891,88.4582 255.997,88.4582 260.103,88.4582 264.209,88.4582 268.315,88.4582 272.421,88.4582 276.528,88.4582 280.634,88.4582 284.74,88.4582 288.846,88.4582 
  292.952,88.4582 297.058,88.4582 301.164,88.4582 305.271,88.4582 309.377,88.4582 313.483,88.4582 317.589,88.4582 321.695,88.4582 325.801,88.4582 329.907,88.4582 
  334.014,88.4582 338.12,88.4582 342.226,88.4582 346.332,88.4582 350.438,88.4582 354.544,88.4582 358.65,88.4582 362.756,88.4582 366.863,88.4582 370.969,88.4582 
  375.075,88.4582 379.181,88.4582 383.287,88.4582 387.393,88.4582 391.499,88.4582 395.606,88.4582 399.712,88.4582 403.818,88.4582 407.924,88.4582 412.03,88.4582 
  416.136,88.4582 420.242,88.4582 424.348,88.4582 428.455,88.4582 432.561,88.4582 436.667,88.4582 440.773,88.4582 444.879,88.4582 448.985,88.4582 453.091,88.4582 
  457.198,88.4582 461.304,88.4582 465.41,88.4582 469.516,1462.26 473.622,1462.26 477.728,1462.26 481.834,1462.26 485.941,1462.26 490.047,1462.26 494.153,1462.26 
  498.259,1462.26 502.365,1462.26 506.471,1462.26 510.577,1462.26 514.683,1462.26 518.79,1462.26 522.896,1462.26 527.002,1462.26 531.108,1462.26 535.214,1462.26 
  539.32,1462.26 543.426,1462.26 547.533,1462.26 551.639,1462.26 555.745,1462.26 559.851,1462.26 563.957,1462.26 568.063,1462.26 572.169,1462.26 576.276,1462.26 
  580.382,1462.26 584.488,1462.26 588.594,1462.26 592.7,1462.26 596.806,1462.26 600.912,1462.26 605.018,1462.26 609.125,1462.26 613.231,1462.26 617.337,1462.26 
  621.443,1462.26 625.549,1462.26 629.655,1462.26 633.761,1462.26 637.868,1462.26 641.974,1462.26 646.08,1462.26 650.186,1462.26 654.292,1462.26 658.398,1462.26 
  662.504,1462.26 666.61,1462.26 670.717,1462.26 674.823,1462.26 678.929,1462.26 683.035,1462.26 687.141,1462.26 691.247,1462.26 695.353,1462.26 699.46,1462.26 
  703.566,1462.26 707.672,1462.26 711.778,1462.26 715.884,1462.26 719.99,1462.26 724.096,1462.26 728.203,1462.26 732.309,1462.26 736.415,1462.26 740.521,1462.26 
  744.627,1462.26 748.733,1462.26 752.839,1462.26 756.945,1462.26 761.052,1462.26 765.158,1462.26 769.264,1462.26 773.37,1462.26 777.476,1462.26 781.582,1462.26 
  785.688,1462.26 789.795,1462.26 793.901,1462.26 798.007,1462.26 802.113,1462.26 806.219,1462.26 810.325,1462.26 814.431,1462.26 818.537,1462.26 822.644,1462.26 
  826.75,1462.26 830.856,1462.26 834.962,1462.26 839.068,1462.26 843.174,1462.26 847.28,1462.26 851.387,1462.26 855.493,1462.26 859.599,1462.26 863.705,1462.26 
  867.811,1462.26 871.917,1462.26 876.023,1462.26 880.13,1462.26 884.236,1462.26 888.342,1462.26 892.448,1462.26 896.554,1462.26 900.66,1462.26 904.766,1462.26 
  908.872,1462.26 912.979,1462.26 917.085,1462.26 921.191,1462.26 925.297,1462.26 929.403,1462.26 933.509,1462.26 937.615,1462.26 941.722,1462.26 945.828,1462.26 
  949.934,1462.26 954.04,1462.26 958.146,1462.26 962.252,1462.26 966.358,1462.26 970.464,1462.26 974.571,1462.26 978.677,1462.26 982.783,88.4582 986.889,88.4582 
  990.995,88.4582 995.101,88.4582 999.207,88.4582 1003.31,88.4582 1007.42,88.4582 1011.53,88.4582 1015.63,88.4582 1019.74,88.4582 1023.84,88.4582 1027.95,88.4582 
  1032.06,88.4582 1036.16,88.4582 1040.27,88.4582 1044.37,88.4582 1048.48,88.4582 1052.59,88.4582 1056.69,88.4582 1060.8,88.4582 1064.91,88.4582 1069.01,88.4582 
  1073.12,88.4582 1077.22,88.4582 1081.33,88.4582 1085.44,88.4582 1089.54,88.4582 1093.65,88.4582 1097.75,88.4582 1101.86,88.4582 1105.97,88.4582 1110.07,88.4582 
  1114.18,88.4582 1118.29,88.4582 1122.39,88.4582 1126.5,88.4582 1130.6,88.4582 1134.71,88.4582 1138.82,88.4582 1142.92,88.4582 1147.03,88.4582 1151.13,88.4582 
  1155.24,88.4582 1159.35,88.4582 1163.45,88.4582 1167.56,88.4582 1171.67,88.4582 1175.77,88.4582 1179.88,88.4582 1183.98,88.4582 1188.09,88.4582 1192.2,88.4582 
  1196.3,88.4582 1200.41,88.4582 1204.51,88.4582 1208.62,88.4582 1212.73,88.4582 1216.83,88.4582 1220.94,88.4582 1225.04,88.4582 1229.15,88.4582 1233.26,88.4582 
  1237.36,1462.26 1241.47,1462.26 1245.58,1462.26 1249.68,1462.26 1253.79,1462.26 1257.89,1462.26 1262,1462.26 1266.11,1462.26 1270.21,1462.26 1274.32,1462.26 
  1278.42,1462.26 1282.53,1462.26 1286.64,1462.26 1290.74,1462.26 1294.85,1462.26 1298.96,1462.26 1303.06,1462.26 1307.17,1462.26 1311.27,1462.26 1315.38,1462.26 
  1319.49,1462.26 1323.59,1462.26 1327.7,1462.26 1331.8,1462.26 1335.91,1462.26 1340.02,1462.26 1344.12,1462.26 1348.23,1462.26 1352.34,1462.26 1356.44,1462.26 
  1360.55,1462.26 1364.65,1462.26 1368.76,1462.26 1372.87,1462.26 1376.97,1462.26 1381.08,1462.26 1385.18,1462.26 1389.29,1462.26 1393.4,1462.26 1397.5,1462.26 
  1401.61,1462.26 1405.71,1462.26 1409.82,1462.26 1413.93,1462.26 1418.03,1462.26 1422.14,1462.26 1426.25,1462.26 1430.35,1462.26 1434.46,1462.26 1438.56,1462.26 
  1442.67,1462.26 1446.78,1462.26 1450.88,1462.26 1454.99,1462.26 1459.09,1462.26 1463.2,1462.26 1467.31,1462.26 1471.41,1462.26 1475.52,1462.26 1479.63,1462.26 
  1483.73,1462.26 1487.84,1462.26 1491.94,1462.26 1496.05,1462.26 1500.16,1462.26 1504.26,1462.26 1508.37,1462.26 1512.47,1462.26 1516.58,1462.26 1520.69,1462.26 
  1524.79,1462.26 1528.9,1462.26 1533.01,1462.26 1537.11,1462.26 1541.22,1462.26 1545.32,1462.26 1549.43,1462.26 1553.54,1462.26 1557.64,1462.26 1561.75,1462.26 
  1565.85,1462.26 1569.96,1462.26 1574.07,1462.26 1578.17,1462.26 1582.28,1462.26 1586.38,1462.26 1590.49,1462.26 1594.6,1462.26 1598.7,1462.26 1602.81,1462.26 
  1606.92,1462.26 1611.02,1462.26 1615.13,1462.26 1619.23,1462.26 1623.34,1462.26 1627.45,1462.26 1631.55,1462.26 1635.66,1462.26 1639.76,1462.26 1643.87,1462.26 
  1647.98,1462.26 1652.08,1462.26 1656.19,1462.26 1660.3,1462.26 1664.4,1462.26 1668.51,1462.26 1672.61,1462.26 1676.72,1462.26 1680.83,1462.26 1684.93,1462.26 
  1689.04,1462.26 1693.14,1462.26 1697.25,1462.26 1701.36,1462.26 1705.46,1462.26 1709.57,1462.26 1713.67,1462.26 1717.78,1462.26 1721.89,1462.26 1725.99,1462.26 
  1730.1,1462.26 1734.21,1462.26 1738.31,1462.26 1742.42,1462.26 1746.52,1462.26 1750.63,88.4582 1754.74,88.4582 1758.84,88.4582 1762.95,88.4582 1767.05,88.4582 
  1771.16,88.4582 1775.27,88.4582 1779.37,88.4582 1783.48,88.4582 1787.59,88.4582 1791.69,88.4582 1795.8,88.4582 1799.9,88.4582 1804.01,88.4582 1808.12,88.4582 
  1812.22,88.4582 1816.33,88.4582 1820.43,88.4582 1824.54,88.4582 1828.65,88.4582 1832.75,88.4582 1836.86,88.4582 1840.97,88.4582 1845.07,88.4582 1849.18,88.4582 
  1853.28,88.4582 1857.39,88.4582 1861.5,88.4582 1865.6,88.4582 1869.71,88.4582 1873.81,88.4582 1877.92,88.4582 1882.03,88.4582 1886.13,88.4582 1890.24,88.4582 
  1894.34,88.4582 1898.45,88.4582 1902.56,88.4582 1906.66,88.4582 1910.77,88.4582 1914.88,88.4582 1918.98,88.4582 1923.09,88.4582 1927.19,88.4582 1931.3,88.4582 
  1935.41,88.4582 1939.51,88.4582 1943.62,88.4582 1947.72,88.4582 1951.83,88.4582 1955.94,88.4582 1960.04,88.4582 1964.15,88.4582 1968.26,88.4582 1972.36,88.4582 
  1976.47,88.4582 1980.57,88.4582 1984.68,88.4582 1988.79,88.4582 1992.89,88.4582 1997,88.4582 2001.1,88.4582 2005.21,1462.26 2009.32,1462.26 2013.42,1462.26 
  2017.53,1462.26 2021.64,1462.26 2025.74,1462.26 2029.85,1462.26 2033.95,1462.26 2038.06,1462.26 2042.17,1462.26 2046.27,1462.26 2050.38,1462.26 2054.48,1462.26 
  2058.59,1462.26 2062.7,1462.26 2066.8,1462.26 2070.91,1462.26 2075.01,1462.26 2079.12,1462.26 2083.23,1462.26 2087.33,1462.26 2091.44,1462.26 2095.55,1462.26 
  2099.65,1462.26 2103.76,1462.26 2107.86,1462.26 2111.97,1462.26 2116.08,1462.26 2120.18,1462.26 2124.29,1462.26 2128.39,1462.26 2132.5,1462.26 2136.61,1462.26 
  2140.71,1462.26 2144.82,1462.26 2148.93,1462.26 2153.03,1462.26 2157.14,1462.26 2161.24,1462.26 2165.35,1462.26 2169.46,1462.26 2173.56,1462.26 2177.67,1462.26 
  2181.77,1462.26 2185.88,1462.26 2189.99,1462.26 2194.09,1462.26 2198.2,1462.26 2202.31,1462.26 2206.41,1462.26 2210.52,1462.26 2214.62,1462.26 2218.73,1462.26 
  2222.84,1462.26 2226.94,1462.26 2231.05,1462.26 2235.15,1462.26 2239.26,1462.26 2243.37,1462.26 2247.47,1462.26 2251.58,1462.26 2255.68,1462.26 2259.79,1462.26 
  
  "/>
</svg>
