<?xml version="1.0" encoding="utf-8"?>
<svg xmlns="http://www.w3.org/2000/svg" xmlns:xlink="http://www.w3.org/1999/xlink" width="600" height="400" viewBox="0 0 600 400">
<defs>
  <clipPath id="clip5300">
    <rect x="0" y="0" width="600" height="400"/>
  </clipPath>
</defs>
<polygon clip-path="url(#clip5300)" points="
0,400 600,400 600,0 0,0 
  " fill="#ffffff" fill-opacity="1"/>
<defs>
  <clipPath id="clip5301">
    <rect x="120" y="0" width="421" height="400"/>
  </clipPath>
</defs>
<polygon clip-path="url(#clip5300)" points="
32.4745,375.869 580.315,375.869 580.315,11.811 32.4745,11.811 
  " fill="#ffffff" fill-opacity="1"/>
<defs>
  <clipPath id="clip5302">
    <rect x="32" y="11" width="549" height="365"/>
  </clipPath>
</defs>
<polyline clip-path="url(#clip5302)" style="stroke:#000000; stroke-width:0.5; stroke-opacity:0.1; fill:none" points="
  32.4745,375.869 32.4745,11.811 
  "/>
<polyline clip-path="url(#clip5302)" style="stroke:#000000; stroke-width:0.5; stroke-opacity:0.1; fill:none" points="
  169.435,375.869 169.435,11.811 
  "/>
<polyline clip-path="url(#clip5302)" style="stroke:#000000; stroke-width:0.5; stroke-opacity:0.1; fill:none" points="
  306.395,375.869 306.395,11.811 
  "/>
<polyline clip-path="url(#clip5302)" style="stroke:#000000; stroke-width:0.5; stroke-opacity:0.1; fill:none" points="
  443.355,375.869 443.355,11.811 
  "/>
<polyline clip-path="url(#clip5302)" style="stroke:#000000; stroke-width:0.5; stroke-opacity:0.1; fill:none" points="
  580.315,375.869 580.315,11.811 
  "/>
<polyline clip-path="url(#clip5302)" style="stroke:#000000; stroke-width:0.5; stroke-opacity:0.1; fill:none" points="
  32.4745,375.869 580.315,375.869 
  "/>
<polyline clip-path="url(#clip5302)" style="stroke:#000000; stroke-width:0.5; stroke-opacity:0.1; fill:none" points="
  32.4745,303.057 580.315,303.057 
  "/>
<polyline clip-path="url(#clip5302)" style="stroke:#000000; stroke-width:0.5; stroke-opacity:0.1; fill:none" points="
  32.4745,230.246 580.315,230.246 
  "/>
<polyline clip-path="url(#clip5302)" style="stroke:#000000; stroke-width:0.5; stroke-opacity:0.1; fill:none" points="
  32.4745,157.434 580.315,157.434 
  "/>
<polyline clip-path="url(#clip5302)" style="stroke:#000000; stroke-width:0.5; stroke-opacity:0.1; fill:none" points="
  32.4745,84.6226 580.315,84.6226 
  "/>
<polyline clip-path="url(#clip5302)" style="stroke:#000000; stroke-width:0.5; stroke-opacity:0.1; fill:none" points="
  32.4745,11.811 580.315,11.811 
  "/>
<polyline clip-path="url(#clip5300)" style="stroke:#000000; stroke-width:1; stroke-opacity:1; fill:none" points="
  32.4745,375.869 580.315,375.869 
  "/>
<polyline clip-path="url(#clip5300)" style="stroke:#000000; stroke-width:1; stroke-opacity:1; fill:none" points="
  32.4745,375.869 32.4745,11.811 
  "/>
<polyline clip-path="url(#clip5300)" style="stroke:#000000; stroke-width:1; stroke-opacity:1; fill:none" points="
  32.4745,375.869 32.4745,370.408 
  "/>
<polyline clip-path="url(#clip5300)" style="stroke:#000000; stroke-width:1; stroke-opacity:1; fill:none" points="
  169.435,375.869 169.435,370.408 
  "/>
<polyline clip-path="url(#clip5300)" style="stroke:#000000; stroke-width:1; stroke-opacity:1; fill:none" points="
  306.395,375.869 306.395,370.408 
  "/>
<polyline clip-path="url(#clip5300)" style="stroke:#000000; stroke-width:1; stroke-opacity:1; fill:none" points="
  443.355,375.869 443.355,370.408 
  "/>
<polyline clip-path="url(#clip5300)" style="stroke:#000000; stroke-width:1; stroke-opacity:1; fill:none" points="
  580.315,375.869 580.315,370.408 
  "/>
<polyline clip-path="url(#clip5300)" style="stroke:#000000; stroke-width:1; stroke-opacity:1; fill:none" points="
  32.4745,375.869 40.6921,375.869 
  "/>
<polyline clip-path="url(#clip5300)" style="stroke:#000000; stroke-width:1; stroke-opacity:1; fill:none" points="
  32.4745,303.057 40.6921,303.057 
  "/>
<polyline clip-path="url(#clip5300)" style="stroke:#000000; stroke-width:1; stroke-opacity:1; fill:none" points="
  32.4745,230.246 40.6921,230.246 
  "/>
<polyline clip-path="url(#clip5300)" style="stroke:#000000; stroke-width:1; stroke-opacity:1; fill:none" points="
  32.4745,157.434 40.6921,157.434 
  "/>
<polyline clip-path="url(#clip5300)" style="stroke:#000000; stroke-width:1; stroke-opacity:1; fill:none" points="
  32.4745,84.6226 40.6921,84.6226 
  "/>
<polyline clip-path="url(#clip5300)" style="stroke:#000000; stroke-width:1; stroke-opacity:1; fill:none" points="
  32.4745,11.811 40.6921,11.811 
  "/>
<g clip-path="url(#clip5300)">
<text style="fill:#000000; fill-opacity:1; font-family:Arial,Helvetica Neue,Helvetica,sans-serif; font-size:12; text-anchor:middle;" transform="rotate(0, 32.4745, 389.669)" x="32.4745" y="389.669">-4</text>
</g>
<g clip-path="url(#clip5300)">
<text style="fill:#000000; fill-opacity:1; font-family:Arial,Helvetica Neue,Helvetica,sans-serif; font-size:12; text-anchor:middle;" transform="rotate(0, 169.435, 389.669)" x="169.435" y="389.669">-2</text>
</g>
<g clip-path="url(#clip5300)">
<text style="fill:#000000; fill-opacity:1; font-family:Arial,Helvetica Neue,Helvetica,sans-serif; font-size:12; text-anchor:middle;" transform="rotate(0, 306.395, 389.669)" x="306.395" y="389.669">0</text>
</g>
<g clip-path="url(#clip5300)">
<text style="fill:#000000; fill-opacity:1; font-family:Arial,Helvetica Neue,Helvetica,sans-serif; font-size:12; text-anchor:middle;" transform="rotate(0, 443.355, 389.669)" x="443.355" y="389.669">2</text>
</g>
<g clip-path="url(#clip5300)">
<text style="fill:#000000; fill-opacity:1; font-family:Arial,Helvetica Neue,Helvetica,sans-serif; font-size:12; text-anchor:middle;" transform="rotate(0, 580.315, 389.669)" x="580.315" y="389.669">4</text>
</g>
<g clip-path="url(#clip5300)">
<text style="fill:#000000; fill-opacity:1; font-family:Arial,Helvetica Neue,Helvetica,sans-serif; font-size:12; text-anchor:end;" transform="rotate(0, 26.4745, 380.369)" x="26.4745" y="380.369">0.0</text>
</g>
<g clip-path="url(#clip5300)">
<text style="fill:#000000; fill-opacity:1; font-family:Arial,Helvetica Neue,Helvetica,sans-serif; font-size:12; text-anchor:end;" transform="rotate(0, 26.4745, 307.557)" x="26.4745" y="307.557">0.2</text>
</g>
<g clip-path="url(#clip5300)">
<text style="fill:#000000; fill-opacity:1; font-family:Arial,Helvetica Neue,Helvetica,sans-serif; font-size:12; text-anchor:end;" transform="rotate(0, 26.4745, 234.746)" x="26.4745" y="234.746">0.4</text>
</g>
<g clip-path="url(#clip5300)">
<text style="fill:#000000; fill-opacity:1; font-family:Arial,Helvetica Neue,Helvetica,sans-serif; font-size:12; text-anchor:end;" transform="rotate(0, 26.4745, 161.934)" x="26.4745" y="161.934">0.6</text>
</g>
<g clip-path="url(#clip5300)">
<text style="fill:#000000; fill-opacity:1; font-family:Arial,Helvetica Neue,Helvetica,sans-serif; font-size:12; text-anchor:end;" transform="rotate(0, 26.4745, 89.1226)" x="26.4745" y="89.1226">0.8</text>
</g>
<g clip-path="url(#clip5300)">
<text style="fill:#000000; fill-opacity:1; font-family:Arial,Helvetica Neue,Helvetica,sans-serif; font-size:12; text-anchor:end;" transform="rotate(0, 26.4745, 16.311)" x="26.4745" y="16.311">1.0</text>
</g>
<polyline clip-path="url(#clip5302)" style="stroke:#009af9; stroke-width:1; stroke-opacity:1; fill:none" points="
  32.4745,11.811 33.5724,11.811 34.6702,11.811 35.7681,11.811 36.866,11.811 37.9639,11.811 39.0618,11.811 40.1596,11.811 41.2575,11.811 42.3554,11.811 
  43.4533,11.811 44.5511,11.811 45.649,11.811 46.7469,11.811 47.8448,11.811 48.9426,11.811 50.0405,11.811 51.1384,11.811 52.2363,11.811 53.3342,11.811 
  54.432,11.811 55.5299,11.811 56.6278,11.811 57.7257,11.811 58.8235,11.811 59.9214,11.811 61.0193,11.811 62.1172,11.811 63.215,11.811 64.3129,11.811 
  65.4108,11.811 66.5087,11.811 67.6065,375.869 68.7044,375.869 69.8023,375.869 70.9002,375.869 71.9981,375.869 73.0959,375.869 74.1938,375.869 75.2917,375.869 
  76.3896,375.869 77.4874,375.869 78.5853,375.869 79.6832,375.869 80.7811,375.869 81.8789,375.869 82.9768,375.869 84.0747,375.869 85.1726,375.869 86.2705,375.869 
  87.3683,375.869 88.4662,375.869 89.5641,375.869 90.662,375.869 91.7598,375.869 92.8577,375.869 93.9556,375.869 95.0535,375.869 96.1513,375.869 97.2492,375.869 
  98.3471,375.869 99.445,375.869 100.543,375.869 101.641,375.869 102.739,375.869 103.836,375.869 104.934,375.869 106.032,375.869 107.13,375.869 108.228,375.869 
  109.326,375.869 110.424,375.869 111.522,375.869 112.619,375.869 113.717,375.869 114.815,375.869 115.913,375.869 117.011,375.869 118.109,375.869 119.207,375.869 
  120.305,375.869 121.403,375.869 122.5,375.869 123.598,375.869 124.696,375.869 125.794,375.869 126.892,375.869 127.99,375.869 129.088,375.869 130.186,375.869 
  131.283,375.869 132.381,375.869 133.479,375.869 134.577,375.869 135.675,375.869 136.773,375.869 137.871,375.869 138.969,375.869 140.066,375.869 141.164,375.869 
  142.262,375.869 143.36,375.869 144.458,375.869 145.556,375.869 146.654,375.869 147.752,375.869 148.849,375.869 149.947,375.869 151.045,375.869 152.143,375.869 
  153.241,375.869 154.339,375.869 155.437,375.869 156.535,375.869 157.632,375.869 158.73,375.869 159.828,375.869 160.926,375.869 162.024,375.869 163.122,375.869 
  164.22,375.869 165.318,375.869 166.415,375.869 167.513,375.869 168.611,375.869 169.709,375.869 170.807,375.869 171.905,375.869 173.003,375.869 174.101,375.869 
  175.198,375.869 176.296,375.869 177.394,375.869 178.492,375.869 179.59,375.869 180.688,375.869 181.786,375.869 182.884,375.869 183.981,375.869 185.079,375.869 
  186.177,375.869 187.275,375.869 188.373,375.869 189.471,375.869 190.569,375.869 191.667,375.869 192.764,375.869 193.862,375.869 194.96,375.869 196.058,375.869 
  197.156,375.869 198.254,375.869 199.352,375.869 200.45,375.869 201.548,375.869 202.645,375.869 203.743,375.869 204.841,375.869 205.939,375.869 207.037,375.869 
  208.135,375.869 209.233,375.869 210.331,375.869 211.428,375.869 212.526,375.869 213.624,375.869 214.722,375.869 215.82,375.869 216.918,375.869 218.016,375.869 
  219.114,375.869 220.211,375.869 221.309,375.869 222.407,375.869 223.505,375.869 224.603,375.869 225.701,375.869 226.799,375.869 227.897,375.869 228.994,375.869 
  230.092,375.869 231.19,375.869 232.288,375.869 233.386,375.869 234.484,375.869 235.582,375.869 236.68,375.869 237.777,375.869 238.875,375.869 239.973,375.869 
  241.071,375.869 242.169,375.869 243.267,375.869 244.365,375.869 245.463,375.869 246.56,375.869 247.658,375.869 248.756,375.869 249.854,375.869 250.952,375.869 
  252.05,375.869 253.148,375.869 254.246,375.869 255.343,375.869 256.441,375.869 257.539,375.869 258.637,375.869 259.735,375.869 260.833,375.869 261.931,375.869 
  263.029,375.869 264.126,375.869 265.224,375.869 266.322,375.869 267.42,375.869 268.518,375.869 269.616,375.869 270.714,375.869 271.812,375.869 272.909,11.811 
  274.007,11.811 275.105,11.811 276.203,11.811 277.301,11.811 278.399,11.811 279.497,11.811 280.595,11.811 281.693,11.811 282.79,11.811 283.888,11.811 
  284.986,11.811 286.084,11.811 287.182,11.811 288.28,11.811 289.378,11.811 290.476,11.811 291.573,11.811 292.671,11.811 293.769,11.811 294.867,11.811 
  295.965,11.811 297.063,11.811 298.161,11.811 299.259,11.811 300.356,11.811 301.454,11.811 302.552,11.811 303.65,11.811 304.748,11.811 305.846,11.811 
  306.944,11.811 308.042,11.811 309.139,11.811 310.237,11.811 311.335,11.811 312.433,11.811 313.531,11.811 314.629,11.811 315.727,11.811 316.825,11.811 
  317.922,11.811 319.02,11.811 320.118,11.811 321.216,11.811 322.314,11.811 323.412,11.811 324.51,11.811 325.608,11.811 326.705,11.811 327.803,11.811 
  328.901,11.811 329.999,11.811 331.097,11.811 332.195,11.811 333.293,11.811 334.391,11.811 335.488,11.811 336.586,11.811 337.684,11.811 338.782,11.811 
  339.88,11.811 340.978,375.869 342.076,375.869 343.174,375.869 344.271,375.869 345.369,375.869 346.467,375.869 347.565,375.869 348.663,375.869 349.761,375.869 
  350.859,375.869 351.957,375.869 353.054,375.869 354.152,375.869 355.25,375.869 356.348,375.869 357.446,375.869 358.544,375.869 359.642,375.869 360.74,375.869 
  361.837,375.869 362.935,375.869 364.033,375.869 365.131,375.869 366.229,375.869 367.327,375.869 368.425,375.869 369.523,375.869 370.621,375.869 371.718,375.869 
  372.816,375.869 373.914,375.869 375.012,375.869 376.11,375.869 377.208,375.869 378.306,375.869 379.404,375.869 380.501,375.869 381.599,375.869 382.697,375.869 
  383.795,375.869 384.893,375.869 385.991,375.869 387.089,375.869 388.187,375.869 389.284,375.869 390.382,375.869 391.48,375.869 392.578,375.869 393.676,375.869 
  394.774,375.869 395.872,375.869 396.97,375.869 398.067,375.869 399.165,375.869 400.263,375.869 401.361,375.869 402.459,375.869 403.557,375.869 404.655,375.869 
  405.753,375.869 406.85,375.869 407.948,375.869 409.046,375.869 410.144,375.869 411.242,375.869 412.34,375.869 413.438,375.869 414.536,375.869 415.633,375.869 
  416.731,375.869 417.829,375.869 418.927,375.869 420.025,375.869 421.123,375.869 422.221,375.869 423.319,375.869 424.416,375.869 425.514,375.869 426.612,375.869 
  427.71,375.869 428.808,375.869 429.906,375.869 431.004,375.869 432.102,375.869 433.199,375.869 434.297,375.869 435.395,375.869 436.493,375.869 437.591,375.869 
  438.689,375.869 439.787,375.869 440.885,375.869 441.982,375.869 443.08,375.869 444.178,375.869 445.276,375.869 446.374,375.869 447.472,375.869 448.57,375.869 
  449.668,375.869 450.766,375.869 451.863,375.869 452.961,375.869 454.059,375.869 455.157,375.869 456.255,375.869 457.353,375.869 458.451,375.869 459.549,375.869 
  460.646,375.869 461.744,375.869 462.842,375.869 463.94,375.869 465.038,375.869 466.136,375.869 467.234,375.869 468.332,375.869 469.429,375.869 470.527,375.869 
  471.625,375.869 472.723,375.869 473.821,375.869 474.919,375.869 476.017,375.869 477.115,375.869 478.212,375.869 479.31,375.869 480.408,375.869 481.506,375.869 
  482.604,375.869 483.702,375.869 484.8,375.869 485.898,375.869 486.995,375.869 488.093,375.869 489.191,375.869 490.289,375.869 491.387,375.869 492.485,375.869 
  493.583,375.869 494.681,375.869 495.778,375.869 496.876,375.869 497.974,375.869 499.072,375.869 500.17,375.869 501.268,375.869 502.366,375.869 503.464,375.869 
  504.561,375.869 505.659,375.869 506.757,375.869 507.855,375.869 508.953,375.869 510.051,375.869 511.149,375.869 512.247,375.869 513.344,375.869 514.442,375.869 
  515.54,375.869 516.638,375.869 517.736,375.869 518.834,375.869 519.932,375.869 521.03,375.869 522.127,375.869 523.225,375.869 524.323,375.869 525.421,375.869 
  526.519,375.869 527.617,375.869 528.715,375.869 529.813,375.869 530.911,375.869 532.008,375.869 533.106,375.869 534.204,375.869 535.302,375.869 536.4,375.869 
  537.498,375.869 538.596,375.869 539.694,375.869 540.791,375.869 541.889,375.869 542.987,375.869 544.085,375.869 545.183,375.869 546.281,11.811 547.379,11.811 
  548.477,11.811 549.574,11.811 550.672,11.811 551.77,11.811 552.868,11.811 553.966,11.811 555.064,11.811 556.162,11.811 557.26,11.811 558.357,11.811 
  559.455,11.811 560.553,11.811 561.651,11.811 562.749,11.811 563.847,11.811 564.945,11.811 566.043,11.811 567.14,11.811 568.238,11.811 569.336,11.811 
  570.434,11.811 571.532,11.811 572.63,11.811 573.728,11.811 574.826,11.811 575.923,11.811 577.021,11.811 578.119,11.811 579.217,11.811 580.315,11.811 
  
  "/>
<polyline clip-path="url(#clip5302)" style="stroke:#e26f46; stroke-width:1; stroke-opacity:1; fill:none" points="
  32.4745,11.811 33.5724,17.6476 34.6702,23.4842 35.7681,29.3208 36.866,35.1574 37.9639,40.994 39.0618,46.8306 40.1596,52.6672 41.2575,58.5038 42.3554,64.3404 
  43.4533,70.177 44.5511,76.0136 45.649,81.8502 46.7469,87.6868 47.8448,93.5234 48.9426,99.36 50.0405,105.197 51.1384,111.033 52.2363,116.87 53.3342,122.706 
  54.432,128.543 55.5299,134.38 56.6278,140.216 57.7257,146.053 58.8235,151.889 59.9214,157.726 61.0193,163.563 62.1172,169.399 63.215,175.236 64.3129,181.072 
  65.4108,186.909 66.5087,192.745 67.6065,198.582 68.7044,204.419 69.8023,210.255 70.9002,216.092 71.9981,221.928 73.0959,227.765 74.1938,233.602 75.2917,239.438 
  76.3896,245.275 77.4874,251.111 78.5853,256.948 79.6832,262.785 80.7811,268.621 81.8789,274.458 82.9768,280.294 84.0747,286.131 85.1726,291.968 86.2705,297.804 
  87.3683,303.641 88.4662,309.477 89.5641,315.314 90.662,321.151 91.7598,326.987 92.8577,332.824 93.9556,338.66 95.0535,344.497 96.1513,350.334 97.2492,356.17 
  98.3471,362.007 99.445,367.843 100.543,373.68 101.641,375.869 102.739,375.869 103.836,375.869 104.934,375.869 106.032,375.869 107.13,375.869 108.228,375.869 
  109.326,375.869 110.424,375.869 111.522,375.869 112.619,375.869 113.717,375.869 114.815,375.869 115.913,375.869 117.011,375.869 118.109,375.869 119.207,375.869 
  120.305,375.869 121.403,375.869 122.5,375.869 123.598,375.869 124.696,375.869 125.794,375.869 126.892,375.869 127.99,375.869 129.088,375.869 130.186,375.869 
  131.283,375.869 132.381,375.869 133.479,375.869 134.577,375.869 135.675,375.869 136.773,375.869 137.871,375.869 138.969,375.869 140.066,375.869 141.164,375.869 
  142.262,375.869 143.36,375.869 144.458,375.869 145.556,375.869 146.654,375.869 147.752,375.869 148.849,375.869 149.947,375.869 151.045,375.869 152.143,375.869 
  153.241,375.869 154.339,375.869 155.437,375.869 156.535,375.869 157.632,375.869 158.73,375.869 159.828,375.869 160.926,375.869 162.024,375.869 163.122,375.869 
  164.22,375.869 165.318,375.869 166.415,375.869 167.513,375.869 168.611,375.869 169.709,375.869 170.807,375.869 171.905,375.869 173.003,375.869 174.101,375.869 
  175.198,375.869 176.296,375.869 177.394,375.869 178.492,375.869 179.59,375.869 180.688,375.869 181.786,375.869 182.884,375.869 183.981,375.869 185.079,375.869 
  186.177,375.869 187.275,375.869 188.373,375.869 189.471,375.869 190.569,375.869 191.667,375.869 192.764,375.869 193.862,375.869 194.96,375.869 196.058,375.869 
  197.156,375.869 198.254,375.869 199.352,375.869 200.45,375.869 201.548,375.869 202.645,375.869 203.743,375.869 204.841,375.869 205.939,375.869 207.037,375.869 
  208.135,375.869 209.233,375.869 210.331,375.869 211.428,375.869 212.526,375.869 213.624,375.869 214.722,375.869 215.82,375.869 216.918,375.869 218.016,375.869 
  219.114,375.869 220.211,375.869 221.309,375.869 222.407,375.869 223.505,375.869 224.603,375.869 225.701,375.869 226.799,375.869 227.897,375.869 228.994,375.869 
  230.092,375.869 231.19,375.869 232.288,375.869 233.386,375.869 234.484,375.869 235.582,375.869 236.68,375.869 237.777,375.869 238.875,370.762 239.973,364.925 
  241.071,359.088 242.169,353.252 243.267,347.415 244.365,341.579 245.463,335.742 246.56,329.905 247.658,324.069 248.756,318.232 249.854,312.396 250.952,306.559 
  252.05,300.723 253.148,294.886 254.246,289.049 255.343,283.213 256.441,277.376 257.539,271.54 258.637,265.703 259.735,259.866 260.833,254.03 261.931,248.193 
  263.029,242.357 264.126,236.52 265.224,230.683 266.322,224.847 267.42,219.01 268.518,213.174 269.616,207.337 270.714,201.5 271.812,195.664 272.909,189.827 
  274.007,183.991 275.105,178.154 276.203,172.317 277.301,166.481 278.399,160.644 279.497,154.808 280.595,148.971 281.693,143.134 282.79,137.298 283.888,131.461 
  284.986,125.625 286.084,119.788 287.182,113.951 288.28,108.115 289.378,102.278 290.476,96.4417 291.573,90.6051 292.671,84.7685 293.769,78.9319 294.867,73.0953 
  295.965,67.2587 297.063,61.4221 298.161,55.5855 299.259,49.7489 300.356,43.9123 301.454,38.0757 302.552,32.2391 303.65,26.4025 304.748,20.5659 305.846,14.7293 
  306.944,14.7293 308.042,20.5659 309.139,26.4025 310.237,32.2391 311.335,38.0757 312.433,43.9123 313.531,49.7489 314.629,55.5855 315.727,61.4221 316.825,67.2587 
  317.922,73.0953 319.02,78.9319 320.118,84.7685 321.216,90.6051 322.314,96.4417 323.412,102.278 324.51,108.115 325.608,113.951 326.705,119.788 327.803,125.625 
  328.901,131.461 329.999,137.298 331.097,143.134 332.195,148.971 333.293,154.808 334.391,160.644 335.488,166.481 336.586,172.317 337.684,178.154 338.782,183.991 
  339.88,189.827 340.978,195.664 342.076,201.5 343.174,207.337 344.271,213.174 345.369,219.01 346.467,224.847 347.565,230.683 348.663,236.52 349.761,242.357 
  350.859,248.193 351.957,254.03 353.054,259.866 354.152,265.703 355.25,271.54 356.348,277.376 357.446,283.213 358.544,289.049 359.642,294.886 360.74,300.723 
  361.837,306.559 362.935,312.396 364.033,318.232 365.131,324.069 366.229,329.905 367.327,335.742 368.425,341.579 369.523,347.415 370.621,353.252 371.718,359.088 
  372.816,364.925 373.914,370.762 375.012,375.869 376.11,375.869 377.208,375.869 378.306,375.869 379.404,375.869 380.501,375.869 381.599,375.869 382.697,375.869 
  383.795,375.869 384.893,375.869 385.991,375.869 387.089,375.869 388.187,375.869 389.284,375.869 390.382,375.869 391.48,375.869 392.578,375.869 393.676,375.869 
  394.774,375.869 395.872,375.869 396.97,375.869 398.067,375.869 399.165,375.869 400.263,375.869 401.361,375.869 402.459,375.869 403.557,375.869 404.655,375.869 
  405.753,375.869 406.85,375.869 407.948,375.869 409.046,375.869 410.144,375.869 411.242,375.869 412.34,375.869 413.438,375.869 414.536,375.869 415.633,375.869 
  416.731,375.869 417.829,375.869 418.927,375.869 420.025,375.869 421.123,375.869 422.221,375.869 423.319,375.869 424.416,375.869 425.514,375.869 426.612,375.869 
  427.71,375.869 428.808,375.869 429.906,375.869 431.004,375.869 432.102,375.869 433.199,375.869 434.297,375.869 435.395,375.869 436.493,375.869 437.591,375.869 
  438.689,375.869 439.787,375.869 440.885,375.869 441.982,375.869 443.08,375.869 444.178,375.869 445.276,375.869 446.374,375.869 447.472,375.869 448.57,375.869 
  449.668,375.869 450.766,375.869 451.863,375.869 452.961,375.869 454.059,375.869 455.157,375.869 456.255,375.869 457.353,375.869 458.451,375.869 459.549,375.869 
  460.646,375.869 461.744,375.869 462.842,375.869 463.94,375.869 465.038,375.869 466.136,375.869 467.234,375.869 468.332,375.869 469.429,375.869 470.527,375.869 
  471.625,375.869 472.723,375.869 473.821,375.869 474.919,375.869 476.017,375.869 477.115,375.869 478.212,375.869 479.31,375.869 480.408,375.869 481.506,375.869 
  482.604,375.869 483.702,375.869 484.8,375.869 485.898,375.869 486.995,375.869 488.093,375.869 489.191,375.869 490.289,375.869 491.387,375.869 492.485,375.869 
  493.583,375.869 494.681,375.869 495.778,375.869 496.876,375.869 497.974,375.869 499.072,375.869 500.17,375.869 501.268,375.869 502.366,375.869 503.464,375.869 
  504.561,375.869 505.659,375.869 506.757,375.869 507.855,375.869 508.953,375.869 510.051,375.869 511.149,375.869 512.247,373.68 513.344,367.843 514.442,362.007 
  515.54,356.17 516.638,350.334 517.736,344.497 518.834,338.66 519.932,332.824 521.03,326.987 522.127,321.151 523.225,315.314 524.323,309.477 525.421,303.641 
  526.519,297.804 527.617,291.968 528.715,286.131 529.813,280.294 530.911,274.458 532.008,268.621 533.106,262.785 534.204,256.948 535.302,251.111 536.4,245.275 
  537.498,239.438 538.596,233.602 539.694,227.765 540.791,221.928 541.889,216.092 542.987,210.255 544.085,204.419 545.183,198.582 546.281,192.745 547.379,186.909 
  548.477,181.072 549.574,175.236 550.672,169.399 551.77,163.563 552.868,157.726 553.966,151.889 555.064,146.053 556.162,140.216 557.26,134.38 558.357,128.543 
  559.455,122.706 560.553,116.87 561.651,111.033 562.749,105.197 563.847,99.36 564.945,93.5234 566.043,87.6868 567.14,81.8502 568.238,76.0136 569.336,70.177 
  570.434,64.3404 571.532,58.5038 572.63,52.6672 573.728,46.8306 574.826,40.994 575.923,35.1574 577.021,29.3208 578.119,23.4842 579.217,17.6476 580.315,11.811 
  
  "/>
<polyline clip-path="url(#clip5302)" style="stroke:#3da44d; stroke-width:1; stroke-opacity:1; fill:none" points="
  32.4745,102.825 33.5724,102.919 34.6702,103.2 35.7681,103.668 36.866,104.323 37.9639,105.165 39.0618,106.194 40.1596,107.41 41.2575,108.814 42.3554,110.405 
  43.4533,112.183 44.5511,114.148 45.649,116.3 46.7469,118.639 47.8448,121.166 48.9426,123.879 50.0405,126.78 51.1384,129.868 52.2363,133.143 53.3342,136.605 
  54.432,140.255 55.5299,144.091 56.6278,148.115 57.7257,152.325 58.8235,156.723 59.9214,161.308 61.0193,166.081 62.1172,171.04 63.215,176.186 64.3129,181.52 
  65.4108,187.041 66.5087,192.749 67.6065,198.551 68.7044,204.265 69.8023,209.885 70.9002,215.412 71.9981,220.845 73.0959,226.184 74.1938,231.43 75.2917,236.583 
  76.3896,241.641 77.4874,246.607 78.5853,251.478 79.6832,256.256 80.7811,260.941 81.8789,265.532 82.9768,270.029 84.0747,274.433 85.1726,278.743 86.2705,282.96 
  87.3683,287.083 88.4662,291.112 89.5641,295.048 90.662,298.89 91.7598,302.639 92.8577,306.294 93.9556,309.856 95.0535,313.324 96.1513,316.698 97.2492,319.979 
  98.3471,323.167 99.445,326.26 100.543,329.261 101.641,332.167 102.739,334.98 103.836,337.7 104.934,340.326 106.032,342.858 107.13,345.297 108.228,347.642 
  109.326,349.893 110.424,352.051 111.522,354.116 112.619,356.087 113.717,357.964 114.815,359.748 115.913,361.438 117.011,363.034 118.109,364.537 119.207,365.947 
  120.305,367.263 121.403,368.485 122.5,369.614 123.598,370.649 124.696,371.59 125.794,372.438 126.892,373.193 127.99,373.854 129.088,374.421 130.186,374.895 
  131.283,375.275 132.381,375.561 133.479,375.754 134.577,375.854 135.675,375.869 136.773,375.869 137.871,375.869 138.969,375.869 140.066,375.869 141.164,375.869 
  142.262,375.869 143.36,375.869 144.458,375.869 145.556,375.869 146.654,375.869 147.752,375.869 148.849,375.869 149.947,375.869 151.045,375.869 152.143,375.869 
  153.241,375.869 154.339,375.869 155.437,375.869 156.535,375.869 157.632,375.869 158.73,375.869 159.828,375.869 160.926,375.869 162.024,375.869 163.122,375.869 
  164.22,375.869 165.318,375.869 166.415,375.869 167.513,375.869 168.611,375.869 169.709,375.869 170.807,375.869 171.905,375.869 173.003,375.869 174.101,375.869 
  175.198,375.869 176.296,375.869 177.394,375.869 178.492,375.869 179.59,375.869 180.688,375.869 181.786,375.869 182.884,375.869 183.981,375.869 185.079,375.869 
  186.177,375.869 187.275,375.869 188.373,375.869 189.471,375.869 190.569,375.869 191.667,375.869 192.764,375.869 193.862,375.869 194.96,375.869 196.058,375.869 
  197.156,375.869 198.254,375.869 199.352,375.869 200.45,375.869 201.548,375.869 202.645,375.869 203.743,375.868 204.841,375.816 205.939,375.67 207.037,375.43 
  208.135,375.097 209.233,374.67 210.331,374.149 211.428,373.535 212.526,372.827 213.624,372.026 214.722,371.131 215.82,370.143 216.918,369.061 218.016,367.886 
  219.114,366.617 220.211,365.254 221.309,363.798 222.407,362.248 223.505,360.604 224.603,358.868 225.701,357.037 226.799,355.113 227.897,353.095 228.994,350.984 
  230.092,348.779 231.19,346.481 232.288,344.089 233.386,341.603 234.484,339.024 235.582,336.352 236.68,333.585 237.777,330.726 238.875,327.772 239.973,324.725 
  241.071,321.585 242.169,318.351 243.267,315.023 244.365,311.602 245.463,308.087 246.56,304.478 247.658,300.776 248.756,296.981 249.854,293.092 250.952,289.109 
  252.05,285.033 253.148,280.863 254.246,276.6 255.343,272.243 256.441,267.792 257.539,263.248 258.637,258.61 259.735,253.879 260.833,249.054 261.931,244.136 
  263.029,239.124 264.126,234.018 265.224,228.819 266.322,223.526 267.42,218.14 268.518,212.66 269.616,207.087 270.714,201.42 271.812,195.659 272.909,189.871 
  274.007,184.257 275.105,178.83 276.203,173.59 277.301,168.537 278.399,163.671 279.497,158.992 280.595,154.501 281.693,150.197 282.79,146.079 283.888,142.149 
  284.986,138.406 286.084,134.851 287.182,131.482 288.28,128.301 289.378,125.306 290.476,122.499 291.573,119.879 292.671,117.446 293.769,115.2 294.867,113.142 
  295.965,111.27 297.063,109.586 298.161,108.089 299.259,106.779 300.356,105.656 301.454,104.72 302.552,103.972 303.65,103.41 304.748,103.036 305.846,102.849 
  306.944,102.849 308.042,103.036 309.139,103.41 310.237,103.972 311.335,104.72 312.433,105.656 313.531,106.779 314.629,108.089 315.727,109.586 316.825,111.27 
  317.922,113.142 319.02,115.2 320.118,117.446 321.216,119.879 322.314,122.499 323.412,125.306 324.51,128.301 325.608,131.482 326.705,134.851 327.803,138.406 
  328.901,142.149 329.999,146.079 331.097,150.197 332.195,154.501 333.293,158.992 334.391,163.671 335.488,168.537 336.586,173.59 337.684,178.83 338.782,184.257 
  339.88,189.871 340.978,195.659 342.076,201.42 343.174,207.087 344.271,212.66 345.369,218.14 346.467,223.526 347.565,228.819 348.663,234.018 349.761,239.124 
  350.859,244.136 351.957,249.054 353.054,253.879 354.152,258.61 355.25,263.248 356.348,267.792 357.446,272.243 358.544,276.6 359.642,280.863 360.74,285.033 
  361.837,289.109 362.935,293.092 364.033,296.981 365.131,300.776 366.229,304.478 367.327,308.087 368.425,311.602 369.523,315.023 370.621,318.351 371.718,321.585 
  372.816,324.725 373.914,327.772 375.012,330.726 376.11,333.585 377.208,336.352 378.306,339.024 379.404,341.603 380.501,344.089 381.599,346.481 382.697,348.779 
  383.795,350.984 384.893,353.095 385.991,355.113 387.089,357.037 388.187,358.868 389.284,360.604 390.382,362.248 391.48,363.798 392.578,365.254 393.676,366.617 
  394.774,367.886 395.872,369.061 396.97,370.143 398.067,371.131 399.165,372.026 400.263,372.827 401.361,373.535 402.459,374.149 403.557,374.67 404.655,375.097 
  405.753,375.43 406.85,375.67 407.948,375.816 409.046,375.868 410.144,375.869 411.242,375.869 412.34,375.869 413.438,375.869 414.536,375.869 415.633,375.869 
  416.731,375.869 417.829,375.869 418.927,375.869 420.025,375.869 421.123,375.869 422.221,375.869 423.319,375.869 424.416,375.869 425.514,375.869 426.612,375.869 
  427.71,375.869 428.808,375.869 429.906,375.869 431.004,375.869 432.102,375.869 433.199,375.869 434.297,375.869 435.395,375.869 436.493,375.869 437.591,375.869 
  438.689,375.869 439.787,375.869 440.885,375.869 441.982,375.869 443.08,375.869 444.178,375.869 445.276,375.869 446.374,375.869 447.472,375.869 448.57,375.869 
  449.668,375.869 450.766,375.869 451.863,375.869 452.961,375.869 454.059,375.869 455.157,375.869 456.255,375.869 457.353,375.869 458.451,375.869 459.549,375.869 
  460.646,375.869 461.744,375.869 462.842,375.869 463.94,375.869 465.038,375.869 466.136,375.869 467.234,375.869 468.332,375.869 469.429,375.869 470.527,375.869 
  471.625,375.869 472.723,375.869 473.821,375.869 474.919,375.869 476.017,375.869 477.115,375.869 478.212,375.854 479.31,375.754 480.408,375.561 481.506,375.275 
  482.604,374.895 483.702,374.421 484.8,373.854 485.898,373.193 486.995,372.438 488.093,371.59 489.191,370.649 490.289,369.614 491.387,368.485 492.485,367.263 
  493.583,365.947 494.681,364.537 495.778,363.034 496.876,361.438 497.974,359.748 499.072,357.964 500.17,356.087 501.268,354.116 502.366,352.051 503.464,349.893 
  504.561,347.642 505.659,345.297 506.757,342.858 507.855,340.326 508.953,337.7 510.051,334.98 511.149,332.167 512.247,329.261 513.344,326.26 514.442,323.167 
  515.54,319.979 516.638,316.698 517.736,313.324 518.834,309.856 519.932,306.294 521.03,302.639 522.127,298.89 523.225,295.048 524.323,291.112 525.421,287.083 
  526.519,282.96 527.617,278.743 528.715,274.433 529.813,270.029 530.911,265.532 532.008,260.941 533.106,256.256 534.204,251.478 535.302,246.607 536.4,241.641 
  537.498,236.583 538.596,231.43 539.694,226.184 540.791,220.845 541.889,215.412 542.987,209.885 544.085,204.265 545.183,198.551 546.281,192.749 547.379,187.041 
  548.477,181.52 549.574,176.186 550.672,171.04 551.77,166.081 552.868,161.308 553.966,156.723 555.064,152.325 556.162,148.115 557.26,144.091 558.357,140.255 
  559.455,136.605 560.553,133.143 561.651,129.868 562.749,126.78 563.847,123.879 564.945,121.166 566.043,118.639 567.14,116.3 568.238,114.148 569.336,112.183 
  570.434,110.405 571.532,108.814 572.63,107.41 573.728,106.194 574.826,105.165 575.923,104.323 577.021,103.668 578.119,103.2 579.217,102.919 580.315,102.825 
  
  "/>
<polyline clip-path="url(#clip5302)" style="stroke:#c271d2; stroke-width:1; stroke-opacity:1; fill:none" points="
  32.4745,133.164 33.5724,133.256 34.6702,133.532 35.7681,133.985 36.866,134.613 37.9639,135.409 39.0618,136.37 40.1596,137.491 41.2575,138.768 42.3554,140.196 
  43.4533,141.771 44.5511,143.488 45.649,145.342 46.7469,147.329 47.8448,149.446 48.9426,151.686 50.0405,154.046 51.1384,156.521 52.2363,159.107 53.3342,161.799 
  54.432,164.592 55.5299,167.483 56.6278,170.466 57.7257,173.537 58.8235,176.692 59.9214,179.926 61.0193,183.235 62.1172,186.614 63.215,190.059 64.3129,193.564 
  65.4108,197.127 66.5087,200.741 67.6065,204.403 68.7044,208.109 69.8023,211.852 70.9002,215.63 71.9981,219.438 73.0959,223.271 74.1938,227.124 75.2917,230.994 
  76.3896,234.875 77.4874,238.763 78.5853,242.654 79.6832,246.543 80.7811,250.425 81.8789,254.297 82.9768,258.153 84.0747,261.99 85.1726,265.802 86.2705,269.585 
  87.3683,273.335 88.4662,277.047 89.5641,280.717 90.662,284.339 91.7598,287.911 92.8577,291.426 93.9556,294.881 95.0535,298.271 96.1513,301.592 97.2492,304.839 
  98.3471,308.008 99.445,311.093 100.543,314.092 101.641,316.998 102.739,319.812 103.836,322.535 104.934,325.168 106.032,327.713 107.13,330.172 108.228,332.545 
  109.326,334.835 110.424,337.043 111.522,339.17 112.619,341.217 113.717,343.188 114.815,345.082 115.913,346.901 117.011,348.647 118.109,350.322 119.207,351.927 
  120.305,353.463 121.403,354.931 122.5,356.334 123.598,357.673 124.696,358.95 125.794,360.165 126.892,361.321 127.99,362.418 129.088,363.459 130.186,364.445 
  131.283,365.377 132.381,366.257 133.479,367.086 134.577,367.866 135.675,368.599 136.773,369.285 137.871,369.927 138.969,370.526 140.066,371.083 141.164,371.6 
  142.262,372.078 143.36,372.519 144.458,372.925 145.556,373.296 146.654,373.635 147.752,373.943 148.849,374.221 149.947,374.47 151.045,374.694 152.143,374.892 
  153.241,375.066 154.339,375.219 155.437,375.35 156.535,375.463 157.632,375.558 158.73,375.637 159.828,375.701 160.926,375.752 162.024,375.792 163.122,375.821 
  164.22,375.842 165.318,375.855 166.415,375.863 167.513,375.867 168.611,375.869 169.709,375.869 170.807,375.868 171.905,375.866 173.003,375.86 174.101,375.849 
  175.198,375.833 176.296,375.808 177.394,375.773 178.492,375.728 179.59,375.671 180.688,375.599 181.786,375.513 182.884,375.409 183.981,375.287 185.079,375.145 
  186.177,374.982 187.275,374.796 188.373,374.585 189.471,374.349 190.569,374.085 191.667,373.793 192.764,373.469 193.862,373.115 194.96,372.726 196.058,372.303 
  197.156,371.844 198.254,371.346 199.352,370.809 200.45,370.232 201.548,369.612 202.645,368.948 203.743,368.238 204.841,367.482 205.939,366.678 207.037,365.823 
  208.135,364.917 209.233,363.959 210.331,362.946 211.428,361.877 212.526,360.75 213.624,359.565 214.722,358.319 215.82,357.012 216.918,355.641 218.016,354.205 
  219.114,352.703 220.211,351.133 221.309,349.494 222.407,347.783 223.505,346.001 224.603,344.144 225.701,342.212 226.799,340.203 227.897,338.116 228.994,335.949 
  230.092,333.701 231.19,331.369 232.288,328.953 233.386,326.452 234.484,323.863 235.582,321.185 236.68,318.417 237.777,315.556 238.875,312.604 239.973,309.561 
  241.071,306.433 242.169,303.225 243.267,299.941 244.365,296.585 245.463,293.161 246.56,289.676 247.658,286.132 248.756,282.534 249.854,278.887 250.952,275.196 
  252.05,271.465 253.148,267.698 254.246,263.899 255.343,260.074 256.441,256.227 257.539,252.363 258.637,248.485 259.735,244.599 260.833,240.708 261.931,236.818 
  263.029,232.933 264.126,229.057 265.224,225.195 266.322,221.351 267.42,217.531 268.518,213.737 269.616,209.976 270.714,206.251 271.812,202.567 272.909,198.928 
  274.007,195.339 275.105,191.804 276.203,188.329 277.301,184.916 278.399,181.572 279.497,178.3 280.595,175.105 281.693,171.991 282.79,168.963 283.888,166.025 
  284.986,163.183 286.084,160.44 287.182,157.8 288.28,155.269 289.378,152.851 290.476,150.551 291.573,148.372 292.671,146.319 293.769,144.398 294.867,142.612 
  295.965,140.965 297.063,139.464 298.161,138.111 299.259,136.911 300.356,135.869 301.454,134.99 302.552,134.278 303.65,133.737 304.748,133.372 305.846,133.187 
  306.944,133.187 308.042,133.372 309.139,133.737 310.237,134.278 311.335,134.99 312.433,135.869 313.531,136.911 314.629,138.111 315.727,139.464 316.825,140.965 
  317.922,142.612 319.02,144.398 320.118,146.319 321.216,148.372 322.314,150.551 323.412,152.851 324.51,155.269 325.608,157.8 326.705,160.44 327.803,163.183 
  328.901,166.025 329.999,168.963 331.097,171.991 332.195,175.105 333.293,178.3 334.391,181.572 335.488,184.916 336.586,188.329 337.684,191.804 338.782,195.339 
  339.88,198.928 340.978,202.567 342.076,206.251 343.174,209.976 344.271,213.737 345.369,217.531 346.467,221.351 347.565,225.195 348.663,229.057 349.761,232.933 
  350.859,236.818 351.957,240.708 353.054,244.599 354.152,248.485 355.25,252.363 356.348,256.227 357.446,260.074 358.544,263.899 359.642,267.698 360.74,271.465 
  361.837,275.196 362.935,278.887 364.033,282.534 365.131,286.132 366.229,289.676 367.327,293.161 368.425,296.585 369.523,299.941 370.621,303.225 371.718,306.433 
  372.816,309.561 373.914,312.604 375.012,315.556 376.11,318.417 377.208,321.185 378.306,323.863 379.404,326.452 380.501,328.953 381.599,331.369 382.697,333.701 
  383.795,335.949 384.893,338.116 385.991,340.203 387.089,342.212 388.187,344.144 389.284,346.001 390.382,347.783 391.48,349.494 392.578,351.133 393.676,352.703 
  394.774,354.205 395.872,355.641 396.97,357.012 398.067,358.319 399.165,359.565 400.263,360.75 401.361,361.877 402.459,362.946 403.557,363.959 404.655,364.917 
  405.753,365.823 406.85,366.678 407.948,367.482 409.046,368.238 410.144,368.948 411.242,369.612 412.34,370.232 413.438,370.809 414.536,371.346 415.633,371.844 
  416.731,372.303 417.829,372.726 418.927,373.115 420.025,373.469 421.123,373.793 422.221,374.085 423.319,374.349 424.416,374.585 425.514,374.796 426.612,374.982 
  427.71,375.145 428.808,375.287 429.906,375.409 431.004,375.513 432.102,375.599 433.199,375.671 434.297,375.728 435.395,375.773 436.493,375.808 437.591,375.833 
  438.689,375.849 439.787,375.86 440.885,375.866 441.982,375.868 443.08,375.869 444.178,375.869 445.276,375.867 446.374,375.863 447.472,375.855 448.57,375.842 
  449.668,375.821 450.766,375.792 451.863,375.752 452.961,375.701 454.059,375.637 455.157,375.558 456.255,375.463 457.353,375.35 458.451,375.219 459.549,375.066 
  460.646,374.892 461.744,374.694 462.842,374.47 463.94,374.221 465.038,373.943 466.136,373.635 467.234,373.296 468.332,372.925 469.429,372.519 470.527,372.078 
  471.625,371.6 472.723,371.083 473.821,370.526 474.919,369.927 476.017,369.285 477.115,368.599 478.212,367.866 479.31,367.086 480.408,366.257 481.506,365.377 
  482.604,364.445 483.702,363.459 484.8,362.418 485.898,361.321 486.995,360.165 488.093,358.95 489.191,357.673 490.289,356.334 491.387,354.931 492.485,353.463 
  493.583,351.927 494.681,350.322 495.778,348.647 496.876,346.901 497.974,345.082 499.072,343.188 500.17,341.217 501.268,339.17 502.366,337.043 503.464,334.835 
  504.561,332.545 505.659,330.172 506.757,327.713 507.855,325.168 508.953,322.535 510.051,319.812 511.149,316.998 512.247,314.092 513.344,311.093 514.442,308.008 
  515.54,304.839 516.638,301.592 517.736,298.271 518.834,294.881 519.932,291.426 521.03,287.911 522.127,284.339 523.225,280.717 524.323,277.047 525.421,273.335 
  526.519,269.585 527.617,265.802 528.715,261.99 529.813,258.153 530.911,254.297 532.008,250.425 533.106,246.543 534.204,242.654 535.302,238.763 536.4,234.875 
  537.498,230.994 538.596,227.124 539.694,223.271 540.791,219.438 541.889,215.63 542.987,211.852 544.085,208.109 545.183,204.403 546.281,200.741 547.379,197.127 
  548.477,193.564 549.574,190.059 550.672,186.614 551.77,183.235 552.868,179.926 553.966,176.692 555.064,173.537 556.162,170.466 557.26,167.483 558.357,164.592 
  559.455,161.799 560.553,159.107 561.651,156.521 562.749,154.046 563.847,151.686 564.945,149.446 566.043,147.329 567.14,145.342 568.238,143.488 569.336,141.771 
  570.434,140.196 571.532,138.768 572.63,137.491 573.728,136.37 574.826,135.409 575.923,134.613 577.021,133.985 578.119,133.532 579.217,133.256 580.315,133.164 
  
  "/>
<polyline clip-path="url(#clip5302)" style="stroke:#ac8d18; stroke-width:1; stroke-opacity:1; fill:none" points="
  32.4745,157.813 33.5724,157.872 34.6702,158.047 35.7681,158.339 36.866,158.748 37.9639,159.272 39.0618,159.911 40.1596,160.665 41.2575,161.532 42.3554,162.511 
  43.4533,163.601 44.5511,164.802 45.649,166.11 46.7469,167.525 47.8448,169.045 48.9426,170.668 50.0405,172.391 51.1384,174.213 52.2363,176.131 53.3342,178.142 
  54.432,180.244 55.5299,182.435 56.6278,184.711 57.7257,187.068 58.8235,189.505 59.9214,192.016 61.0193,194.6 62.1172,197.252 63.215,199.968 64.3129,202.745 
  65.4108,205.578 66.5087,208.463 67.6065,211.395 68.7044,214.371 69.8023,217.385 70.9002,220.434 71.9981,223.514 73.0959,226.619 74.1938,229.747 75.2917,232.893 
  76.3896,236.054 77.4874,239.226 78.5853,242.405 79.6832,245.587 80.7811,248.77 81.8789,251.95 82.9768,255.124 84.0747,258.289 85.1726,261.441 86.2705,264.578 
  87.3683,267.697 88.4662,270.795 89.5641,273.869 90.662,276.917 91.7598,279.937 92.8577,282.926 93.9556,285.882 95.0535,288.803 96.1513,291.687 97.2492,294.531 
  98.3471,297.334 99.445,300.094 100.543,302.809 101.641,305.478 102.739,308.1 103.836,310.672 104.934,313.194 106.032,315.665 107.13,318.082 108.228,320.446 
  109.326,322.756 110.424,325.01 111.522,327.208 112.619,329.349 113.717,331.433 114.815,333.459 115.913,335.427 117.011,337.337 118.109,339.188 119.207,340.981 
  120.305,342.715 121.403,344.392 122.5,346.01 123.598,347.57 124.696,349.073 125.794,350.52 126.892,351.91 127.99,353.245 129.088,354.526 130.186,355.752 
  131.283,356.927 132.381,358.049 133.479,359.122 134.577,360.145 135.675,361.121 136.773,362.05 137.871,362.935 138.969,363.777 140.066,364.577 141.164,365.336 
  142.262,366.056 143.36,366.737 144.458,367.382 145.556,367.991 146.654,368.565 147.752,369.105 148.849,369.613 149.947,370.088 151.045,370.533 152.143,370.948 
  153.241,371.333 154.339,371.69 155.437,372.018 156.535,372.319 157.632,372.594 158.73,372.843 159.828,373.065 160.926,373.263 162.024,373.435 163.122,373.584 
  164.22,373.708 165.318,373.808 166.415,373.884 167.513,373.937 168.611,373.966 169.709,373.972 170.807,373.954 171.905,373.913 173.003,373.849 174.101,373.761 
  175.198,373.649 176.296,373.513 177.394,373.352 178.492,373.167 179.59,372.957 180.688,372.722 181.786,372.46 182.884,372.172 183.981,371.857 185.079,371.515 
  186.177,371.144 187.275,370.744 188.373,370.315 189.471,369.855 190.569,369.363 191.667,368.839 192.764,368.282 193.862,367.691 194.96,367.064 196.058,366.401 
  197.156,365.701 198.254,364.961 199.352,364.182 200.45,363.361 201.548,362.498 202.645,361.591 203.743,360.639 204.841,359.639 205.939,358.592 207.037,357.494 
  208.135,356.346 209.233,355.146 210.331,353.892 211.428,352.585 212.526,351.222 213.624,349.804 214.722,348.329 215.82,346.797 216.918,345.208 218.016,343.561 
  219.114,341.855 220.211,340.092 221.309,338.27 222.407,336.389 223.505,334.45 224.603,332.453 225.701,330.398 226.799,328.285 227.897,326.116 228.994,323.89 
  230.092,321.608 231.19,319.271 232.288,316.88 233.386,314.436 234.484,311.94 235.582,309.392 236.68,306.795 237.777,304.15 238.875,301.457 239.973,298.719 
  241.071,295.938 242.169,293.114 243.267,290.25 244.365,287.347 245.463,284.409 246.56,281.436 247.658,278.431 248.756,275.397 249.854,272.335 250.952,269.248 
  252.05,266.14 253.148,263.011 254.246,259.866 255.343,256.708 256.441,253.538 257.539,250.361 258.637,247.179 259.735,243.996 260.833,240.814 261.931,237.639 
  263.029,234.472 264.126,231.318 265.224,228.181 266.322,225.063 267.42,221.97 268.518,218.906 269.616,215.873 270.714,212.878 271.812,209.923 272.909,207.014 
  274.007,204.154 275.105,201.349 276.203,198.602 277.301,195.918 278.399,193.3 279.497,190.751 280.595,188.277 281.693,185.879 282.79,183.562 283.888,181.329 
  284.986,179.182 286.084,177.125 287.182,175.16 288.28,173.29 289.378,171.517 290.476,169.844 291.573,168.272 292.671,166.804 293.769,165.443 294.867,164.188 
  295.965,163.042 297.063,162.007 298.161,161.084 299.259,160.273 300.356,159.577 301.454,158.995 302.552,158.529 303.65,158.179 304.748,157.945 305.846,157.828 
  306.944,157.828 308.042,157.945 309.139,158.179 310.237,158.529 311.335,158.995 312.433,159.577 313.531,160.273 314.629,161.084 315.727,162.007 316.825,163.042 
  317.922,164.188 319.02,165.443 320.118,166.804 321.216,168.272 322.314,169.844 323.412,171.517 324.51,173.29 325.608,175.16 326.705,177.125 327.803,179.182 
  328.901,181.329 329.999,183.562 331.097,185.879 332.195,188.277 333.293,190.751 334.391,193.3 335.488,195.918 336.586,198.602 337.684,201.349 338.782,204.154 
  339.88,207.014 340.978,209.923 342.076,212.878 343.174,215.873 344.271,218.906 345.369,221.97 346.467,225.063 347.565,228.181 348.663,231.318 349.761,234.472 
  350.859,237.639 351.957,240.814 353.054,243.996 354.152,247.179 355.25,250.361 356.348,253.538 357.446,256.708 358.544,259.866 359.642,263.011 360.74,266.14 
  361.837,269.248 362.935,272.335 364.033,275.397 365.131,278.431 366.229,281.436 367.327,284.409 368.425,287.347 369.523,290.25 370.621,293.114 371.718,295.938 
  372.816,298.719 373.914,301.457 375.012,304.15 376.11,306.795 377.208,309.392 378.306,311.94 379.404,314.436 380.501,316.88 381.599,319.271 382.697,321.608 
  383.795,323.89 384.893,326.116 385.991,328.285 387.089,330.398 388.187,332.453 389.284,334.45 390.382,336.389 391.48,338.27 392.578,340.092 393.676,341.855 
  394.774,343.561 395.872,345.208 396.97,346.797 398.067,348.329 399.165,349.804 400.263,351.222 401.361,352.585 402.459,353.892 403.557,355.146 404.655,356.346 
  405.753,357.494 406.85,358.592 407.948,359.639 409.046,360.639 410.144,361.591 411.242,362.498 412.34,363.361 413.438,364.182 414.536,364.961 415.633,365.701 
  416.731,366.401 417.829,367.064 418.927,367.691 420.025,368.282 421.123,368.839 422.221,369.363 423.319,369.855 424.416,370.315 425.514,370.744 426.612,371.144 
  427.71,371.515 428.808,371.857 429.906,372.172 431.004,372.46 432.102,372.722 433.199,372.957 434.297,373.167 435.395,373.352 436.493,373.513 437.591,373.649 
  438.689,373.761 439.787,373.849 440.885,373.913 441.982,373.954 443.08,373.972 444.178,373.966 445.276,373.937 446.374,373.884 447.472,373.808 448.57,373.708 
  449.668,373.584 450.766,373.435 451.863,373.263 452.961,373.065 454.059,372.843 455.157,372.594 456.255,372.319 457.353,372.018 458.451,371.69 459.549,371.333 
  460.646,370.948 461.744,370.533 462.842,370.088 463.94,369.613 465.038,369.105 466.136,368.565 467.234,367.991 468.332,367.382 469.429,366.737 470.527,366.056 
  471.625,365.336 472.723,364.577 473.821,363.777 474.919,362.935 476.017,362.05 477.115,361.121 478.212,360.145 479.31,359.122 480.408,358.049 481.506,356.927 
  482.604,355.752 483.702,354.526 484.8,353.245 485.898,351.91 486.995,350.52 488.093,349.073 489.191,347.57 490.289,346.01 491.387,344.392 492.485,342.715 
  493.583,340.981 494.681,339.188 495.778,337.337 496.876,335.427 497.974,333.459 499.072,331.433 500.17,329.349 501.268,327.208 502.366,325.01 503.464,322.756 
  504.561,320.446 505.659,318.082 506.757,315.665 507.855,313.194 508.953,310.672 510.051,308.1 511.149,305.478 512.247,302.809 513.344,300.094 514.442,297.334 
  515.54,294.531 516.638,291.687 517.736,288.803 518.834,285.882 519.932,282.926 521.03,279.937 522.127,276.917 523.225,273.869 524.323,270.795 525.421,267.697 
  526.519,264.578 527.617,261.441 528.715,258.289 529.813,255.124 530.911,251.95 532.008,248.77 533.106,245.587 534.204,242.405 535.302,239.226 536.4,236.054 
  537.498,232.893 538.596,229.747 539.694,226.619 540.791,223.514 541.889,220.434 542.987,217.385 544.085,214.371 545.183,211.395 546.281,208.463 547.379,205.578 
  548.477,202.745 549.574,199.968 550.672,197.252 551.77,194.6 552.868,192.016 553.966,189.505 555.064,187.068 556.162,184.711 557.26,182.435 558.357,180.244 
  559.455,178.142 560.553,176.131 561.651,174.213 562.749,172.391 563.847,170.668 564.945,169.045 566.043,167.525 567.14,166.11 568.238,164.802 569.336,163.601 
  570.434,162.511 571.532,161.532 572.63,160.665 573.728,159.911 574.826,159.272 575.923,158.748 577.021,158.339 578.119,158.047 579.217,157.872 580.315,157.813 
  
  "/>
<polyline clip-path="url(#clip5302)" style="stroke:#00a9ad; stroke-width:1; stroke-opacity:1; fill:none" points="
  32.4745,175.637 33.5724,175.684 34.6702,175.824 35.7681,176.058 36.866,176.384 37.9639,176.803 39.0618,177.314 40.1596,177.916 41.2575,178.608 42.3554,179.389 
  43.4533,180.259 44.5511,181.215 45.649,182.258 46.7469,183.384 47.8448,184.593 48.9426,185.884 50.0405,187.254 51.1384,188.702 52.2363,190.225 53.3342,191.823 
  54.432,193.492 55.5299,195.232 56.6278,197.039 57.7257,198.911 58.8235,200.847 59.9214,202.844 61.0193,204.899 62.1172,207.01 63.215,209.175 64.3129,211.391 
  65.4108,213.655 66.5087,215.966 67.6065,218.32 68.7044,220.714 69.8023,223.147 70.9002,225.615 71.9981,228.116 73.0959,230.647 74.1938,233.205 75.2917,235.788 
  76.3896,238.393 77.4874,241.017 78.5853,243.658 79.6832,246.312 80.7811,248.978 81.8789,251.653 82.9768,254.333 84.0747,257.017 85.1726,259.702 86.2705,262.386 
  87.3683,265.065 88.4662,267.738 89.5641,270.402 90.662,273.054 91.7598,275.694 92.8577,278.317 93.9556,280.923 95.0535,283.509 96.1513,286.074 97.2492,288.614 
  98.3471,291.129 99.445,293.617 100.543,296.075 101.641,298.503 102.739,300.899 103.836,303.262 104.934,305.589 106.032,307.881 107.13,310.135 108.228,312.351 
  109.326,314.528 110.424,316.665 111.522,318.762 112.619,320.817 113.717,322.829 114.815,324.799 115.913,326.726 117.011,328.609 118.109,330.448 119.207,332.243 
  120.305,333.993 121.403,335.698 122.5,337.358 123.598,338.973 124.696,340.544 125.794,342.069 126.892,343.549 127.99,344.984 129.088,346.375 130.186,347.721 
  131.283,349.023 132.381,350.281 133.479,351.495 134.577,352.665 135.675,353.793 136.773,354.877 137.871,355.92 138.969,356.92 140.066,357.879 141.164,358.797 
  142.262,359.675 143.36,360.512 144.458,361.31 145.556,362.069 146.654,362.789 147.752,363.471 148.849,364.115 149.947,364.723 151.045,365.293 152.143,365.828 
  153.241,366.327 154.339,366.79 155.437,367.219 156.535,367.614 157.632,367.975 158.73,368.302 159.828,368.596 160.926,368.858 162.024,369.087 163.122,369.283 
  164.22,369.448 165.318,369.581 166.415,369.683 167.513,369.753 168.611,369.792 169.709,369.8 170.807,369.777 171.905,369.722 173.003,369.636 174.101,369.519 
  175.198,369.37 176.296,369.189 177.394,368.976 178.492,368.731 179.59,368.453 180.688,368.143 181.786,367.799 182.884,367.421 183.981,367.009 185.079,366.563 
  186.177,366.082 187.275,365.565 188.373,365.012 189.471,364.423 190.569,363.798 191.667,363.135 192.764,362.434 193.862,361.694 194.96,360.916 196.058,360.099 
  197.156,359.241 198.254,358.343 199.352,357.405 200.45,356.425 201.548,355.404 202.645,354.34 203.743,353.234 204.841,352.085 205.939,350.893 207.037,349.657 
  208.135,348.378 209.233,347.054 210.331,345.685 211.428,344.272 212.526,342.815 213.624,341.312 214.722,339.764 215.82,338.171 216.918,336.534 218.016,334.851 
  219.114,333.123 220.211,331.351 221.309,329.534 222.407,327.673 223.505,325.768 224.603,323.82 225.701,321.828 226.799,319.794 227.897,317.719 228.994,315.602 
  230.092,313.445 231.19,311.248 232.288,309.013 233.386,306.739 234.484,304.43 235.582,302.085 236.68,299.705 237.777,297.293 238.875,294.85 239.973,292.377 
  241.071,289.875 242.169,287.347 243.267,284.794 244.365,282.219 245.463,279.623 246.56,277.008 247.658,274.376 248.756,271.729 249.854,269.071 250.952,266.402 
  252.05,263.726 253.148,261.044 254.246,258.36 255.343,255.675 256.441,252.992 257.539,250.315 258.637,247.644 259.735,244.984 260.833,242.336 261.931,239.703 
  263.029,237.088 264.126,234.494 265.224,231.923 266.322,229.378 267.42,226.862 268.518,224.377 269.616,221.926 270.714,219.512 271.812,217.137 272.909,214.805 
  274.007,212.517 275.105,210.276 276.203,208.086 277.301,205.947 278.399,203.864 279.497,201.838 280.595,199.871 281.693,197.967 282.79,196.127 283.888,194.353 
  284.986,192.649 286.084,191.015 287.182,189.454 288.28,187.968 289.378,186.559 290.476,185.229 291.573,183.978 292.671,182.81 293.769,181.726 294.867,180.726 
  295.965,179.813 297.063,178.987 298.161,178.25 299.259,177.603 300.356,177.047 301.454,176.582 302.552,176.209 303.65,175.929 304.748,175.742 305.846,175.649 
  306.944,175.649 308.042,175.742 309.139,175.929 310.237,176.209 311.335,176.582 312.433,177.047 313.531,177.603 314.629,178.25 315.727,178.987 316.825,179.813 
  317.922,180.726 319.02,181.726 320.118,182.81 321.216,183.978 322.314,185.229 323.412,186.559 324.51,187.968 325.608,189.454 326.705,191.015 327.803,192.649 
  328.901,194.353 329.999,196.127 331.097,197.967 332.195,199.871 333.293,201.838 334.391,203.864 335.488,205.947 336.586,208.086 337.684,210.276 338.782,212.517 
  339.88,214.805 340.978,217.137 342.076,219.512 343.174,221.926 344.271,224.377 345.369,226.862 346.467,229.378 347.565,231.923 348.663,234.494 349.761,237.088 
  350.859,239.703 351.957,242.336 353.054,244.984 354.152,247.644 355.25,250.315 356.348,252.992 357.446,255.675 358.544,258.36 359.642,261.044 360.74,263.726 
  361.837,266.402 362.935,269.071 364.033,271.729 365.131,274.376 366.229,277.008 367.327,279.623 368.425,282.219 369.523,284.794 370.621,287.347 371.718,289.875 
  372.816,292.377 373.914,294.85 375.012,297.293 376.11,299.705 377.208,302.085 378.306,304.43 379.404,306.739 380.501,309.013 381.599,311.248 382.697,313.445 
  383.795,315.602 384.893,317.719 385.991,319.794 387.089,321.828 388.187,323.82 389.284,325.768 390.382,327.673 391.48,329.534 392.578,331.351 393.676,333.123 
  394.774,334.851 395.872,336.534 396.97,338.171 398.067,339.764 399.165,341.312 400.263,342.815 401.361,344.272 402.459,345.685 403.557,347.054 404.655,348.378 
  405.753,349.657 406.85,350.893 407.948,352.085 409.046,353.234 410.144,354.34 411.242,355.404 412.34,356.425 413.438,357.405 414.536,358.343 415.633,359.241 
  416.731,360.099 417.829,360.916 418.927,361.694 420.025,362.434 421.123,363.135 422.221,363.798 423.319,364.423 424.416,365.012 425.514,365.565 426.612,366.082 
  427.71,366.563 428.808,367.009 429.906,367.421 431.004,367.799 432.102,368.143 433.199,368.453 434.297,368.731 435.395,368.976 436.493,369.189 437.591,369.37 
  438.689,369.519 439.787,369.636 440.885,369.722 441.982,369.777 443.08,369.8 444.178,369.792 445.276,369.753 446.374,369.683 447.472,369.581 448.57,369.448 
  449.668,369.283 450.766,369.087 451.863,368.858 452.961,368.596 454.059,368.302 455.157,367.975 456.255,367.614 457.353,367.219 458.451,366.79 459.549,366.327 
  460.646,365.828 461.744,365.293 462.842,364.723 463.94,364.115 465.038,363.471 466.136,362.789 467.234,362.069 468.332,361.31 469.429,360.512 470.527,359.675 
  471.625,358.797 472.723,357.879 473.821,356.92 474.919,355.92 476.017,354.877 477.115,353.793 478.212,352.665 479.31,351.495 480.408,350.281 481.506,349.023 
  482.604,347.721 483.702,346.375 484.8,344.984 485.898,343.549 486.995,342.069 488.093,340.544 489.191,338.973 490.289,337.358 491.387,335.698 492.485,333.993 
  493.583,332.243 494.681,330.448 495.778,328.609 496.876,326.726 497.974,324.799 499.072,322.829 500.17,320.817 501.268,318.762 502.366,316.665 503.464,314.528 
  504.561,312.351 505.659,310.135 506.757,307.881 507.855,305.589 508.953,303.262 510.051,300.899 511.149,298.503 512.247,296.075 513.344,293.617 514.442,291.129 
  515.54,288.614 516.638,286.074 517.736,283.509 518.834,280.923 519.932,278.317 521.03,275.694 522.127,273.054 523.225,270.402 524.323,267.738 525.421,265.065 
  526.519,262.386 527.617,259.702 528.715,257.017 529.813,254.333 530.911,251.653 532.008,248.978 533.106,246.312 534.204,243.658 535.302,241.017 536.4,238.393 
  537.498,235.788 538.596,233.205 539.694,230.647 540.791,228.116 541.889,225.615 542.987,223.147 544.085,220.714 545.183,218.32 546.281,215.966 547.379,213.655 
  548.477,211.391 549.574,209.175 550.672,207.01 551.77,204.899 552.868,202.844 553.966,200.847 555.064,198.911 556.162,197.039 557.26,195.232 558.357,193.492 
  559.455,191.823 560.553,190.225 561.651,188.702 562.749,187.254 563.847,185.884 564.945,184.593 566.043,183.384 567.14,182.258 568.238,181.215 569.336,180.259 
  570.434,179.389 571.532,178.608 572.63,177.916 573.728,177.314 574.826,176.803 575.923,176.384 577.021,176.058 578.119,175.824 579.217,175.684 580.315,175.637 
  
  "/>
<polyline clip-path="url(#clip5302)" style="stroke:#ed5d92; stroke-width:1; stroke-opacity:1; fill:none" points="
  32.4745,189.826 33.5724,189.864 34.6702,189.976 35.7681,190.164 36.866,190.426 37.9639,190.762 39.0618,191.173 40.1596,191.657 41.2575,192.214 42.3554,192.843 
  43.4533,193.544 44.5511,194.316 45.649,195.158 46.7469,196.069 47.8448,197.048 48.9426,198.094 50.0405,199.206 51.1384,200.383 52.2363,201.623 53.3342,202.924 
  54.432,204.287 55.5299,205.708 56.6278,207.187 57.7257,208.722 58.8235,210.311 59.9214,211.952 61.0193,213.645 62.1172,215.386 63.215,217.174 64.3129,219.008 
  65.4108,220.884 66.5087,222.803 67.6065,224.76 68.7044,226.755 69.8023,228.785 70.9002,230.849 71.9981,232.943 73.0959,235.067 74.1938,237.218 75.2917,239.394 
  76.3896,241.593 77.4874,243.813 78.5853,246.051 79.6832,248.306 80.7811,250.576 81.8789,252.859 82.9768,255.152 84.0747,257.454 85.1726,259.762 86.2705,262.075 
  87.3683,264.391 88.4662,266.707 89.5641,269.023 90.662,271.336 91.7598,273.644 92.8577,275.946 93.9556,278.24 95.0535,280.524 96.1513,282.796 97.2492,285.056 
  98.3471,287.301 99.445,289.53 100.543,291.741 101.641,293.933 102.739,296.105 103.836,298.255 104.934,300.383 106.032,302.486 107.13,304.564 108.228,306.615 
  109.326,308.639 110.424,310.635 111.522,312.6 112.619,314.536 113.717,316.44 114.815,318.312 115.913,320.151 117.011,321.957 118.109,323.728 119.207,325.465 
  120.305,327.166 121.403,328.831 122.5,330.46 123.598,332.052 124.696,333.607 125.794,335.124 126.892,336.603 127.99,338.044 129.088,339.446 130.186,340.811 
  131.283,342.136 132.381,343.423 133.479,344.67 134.577,345.879 135.675,347.049 136.773,348.18 137.871,349.271 138.969,350.324 140.066,351.338 141.164,352.314 
  142.262,353.25 143.36,354.148 144.458,355.008 145.556,355.829 146.654,356.612 147.752,357.356 148.849,358.063 149.947,358.732 151.045,359.364 152.143,359.958 
  153.241,360.514 154.339,361.034 155.437,361.516 156.535,361.961 157.632,362.37 158.73,362.742 159.828,363.077 160.926,363.375 162.024,363.638 163.122,363.864 
  164.22,364.053 165.318,364.207 166.415,364.324 167.513,364.405 168.611,364.45 169.709,364.459 170.807,364.432 171.905,364.369 173.003,364.27 174.101,364.134 
  175.198,363.963 176.296,363.755 177.394,363.511 178.492,363.231 179.59,362.914 180.688,362.56 181.786,362.17 182.884,361.743 183.981,361.28 185.079,360.779 
  186.177,360.241 187.275,359.666 188.373,359.053 189.471,358.403 190.569,357.715 191.667,356.989 192.764,356.225 193.862,355.423 194.96,354.583 196.058,353.704 
  197.156,352.787 198.254,351.831 199.352,350.836 200.45,349.803 201.548,348.73 202.645,347.619 203.743,346.469 204.841,345.28 205.939,344.051 207.037,342.784 
  208.135,341.478 209.233,340.133 210.331,338.75 211.428,337.328 212.526,335.868 213.624,334.37 214.722,332.834 215.82,331.261 216.918,329.65 218.016,328.003 
  219.114,326.32 220.211,324.601 221.309,322.847 222.407,321.059 223.505,319.236 224.603,317.38 225.701,315.492 226.799,313.572 227.897,311.621 228.994,309.641 
  230.092,307.631 231.19,305.593 232.288,303.528 233.386,301.437 234.484,299.322 235.582,297.183 236.68,295.022 237.777,292.839 238.875,290.637 239.973,288.417 
  241.071,286.18 242.169,283.928 243.267,281.662 244.365,279.383 245.463,277.094 246.56,274.796 247.658,272.491 248.756,270.18 249.854,267.866 250.952,265.549 
  252.05,263.233 253.148,260.918 254.246,258.607 255.343,256.302 256.441,254.004 257.539,251.716 258.637,249.44 259.735,247.177 260.833,244.93 261.931,242.7 
  263.029,240.491 264.126,238.303 265.224,236.14 266.322,234.002 267.42,231.892 268.518,229.813 269.616,227.766 270.714,225.753 271.812,223.777 272.909,221.838 
  274.007,219.941 275.105,218.085 276.203,216.274 277.301,214.509 278.399,212.792 279.497,211.125 280.595,209.51 281.693,207.948 282.79,206.441 283.888,204.99 
  284.986,203.598 286.084,202.266 287.182,200.995 288.28,199.786 289.378,198.642 290.476,197.563 291.573,196.55 292.671,195.605 293.769,194.728 294.867,193.921 
  295.965,193.185 297.063,192.519 298.161,191.926 299.259,191.406 300.356,190.958 301.454,190.585 302.552,190.286 303.65,190.061 304.748,189.911 305.846,189.836 
  306.944,189.836 308.042,189.911 309.139,190.061 310.237,190.286 311.335,190.585 312.433,190.958 313.531,191.406 314.629,191.926 315.727,192.519 316.825,193.185 
  317.922,193.921 319.02,194.728 320.118,195.605 321.216,196.55 322.314,197.563 323.412,198.642 324.51,199.786 325.608,200.995 326.705,202.266 327.803,203.598 
  328.901,204.99 329.999,206.441 331.097,207.948 332.195,209.51 333.293,211.125 334.391,212.792 335.488,214.509 336.586,216.274 337.684,218.085 338.782,219.941 
  339.88,221.838 340.978,223.777 342.076,225.753 343.174,227.766 344.271,229.813 345.369,231.892 346.467,234.002 347.565,236.14 348.663,238.303 349.761,240.491 
  350.859,242.7 351.957,244.93 353.054,247.177 354.152,249.44 355.25,251.716 356.348,254.004 357.446,256.302 358.544,258.607 359.642,260.918 360.74,263.233 
  361.837,265.549 362.935,267.866 364.033,270.18 365.131,272.491 366.229,274.796 367.327,277.094 368.425,279.383 369.523,281.662 370.621,283.928 371.718,286.18 
  372.816,288.417 373.914,290.637 375.012,292.839 376.11,295.022 377.208,297.183 378.306,299.322 379.404,301.437 380.501,303.528 381.599,305.593 382.697,307.631 
  383.795,309.641 384.893,311.621 385.991,313.572 387.089,315.492 388.187,317.38 389.284,319.236 390.382,321.059 391.48,322.847 392.578,324.601 393.676,326.32 
  394.774,328.003 395.872,329.65 396.97,331.261 398.067,332.834 399.165,334.37 400.263,335.868 401.361,337.328 402.459,338.75 403.557,340.133 404.655,341.478 
  405.753,342.784 406.85,344.051 407.948,345.28 409.046,346.469 410.144,347.619 411.242,348.73 412.34,349.803 413.438,350.836 414.536,351.831 415.633,352.787 
  416.731,353.704 417.829,354.583 418.927,355.423 420.025,356.225 421.123,356.989 422.221,357.715 423.319,358.403 424.416,359.053 425.514,359.666 426.612,360.241 
  427.71,360.779 428.808,361.28 429.906,361.743 431.004,362.17 432.102,362.56 433.199,362.914 434.297,363.231 435.395,363.511 436.493,363.755 437.591,363.963 
  438.689,364.134 439.787,364.27 440.885,364.369 441.982,364.432 443.08,364.459 444.178,364.45 445.276,364.405 446.374,364.324 447.472,364.207 448.57,364.053 
  449.668,363.864 450.766,363.638 451.863,363.375 452.961,363.077 454.059,362.742 455.157,362.37 456.255,361.961 457.353,361.516 458.451,361.034 459.549,360.514 
  460.646,359.958 461.744,359.364 462.842,358.732 463.94,358.063 465.038,357.356 466.136,356.612 467.234,355.829 468.332,355.008 469.429,354.148 470.527,353.25 
  471.625,352.314 472.723,351.338 473.821,350.324 474.919,349.271 476.017,348.18 477.115,347.049 478.212,345.879 479.31,344.67 480.408,343.423 481.506,342.136 
  482.604,340.811 483.702,339.446 484.8,338.044 485.898,336.603 486.995,335.124 488.093,333.607 489.191,332.052 490.289,330.46 491.387,328.831 492.485,327.166 
  493.583,325.465 494.681,323.728 495.778,321.957 496.876,320.151 497.974,318.312 499.072,316.44 500.17,314.536 501.268,312.6 502.366,310.635 503.464,308.639 
  504.561,306.615 505.659,304.564 506.757,302.486 507.855,300.383 508.953,298.255 510.051,296.105 511.149,293.933 512.247,291.741 513.344,289.53 514.442,287.301 
  515.54,285.056 516.638,282.796 517.736,280.524 518.834,278.24 519.932,275.946 521.03,273.644 522.127,271.336 523.225,269.023 524.323,266.707 525.421,264.391 
  526.519,262.075 527.617,259.762 528.715,257.454 529.813,255.152 530.911,252.859 532.008,250.576 533.106,248.306 534.204,246.051 535.302,243.813 536.4,241.593 
  537.498,239.394 538.596,237.218 539.694,235.067 540.791,232.943 541.889,230.849 542.987,228.785 544.085,226.755 545.183,224.76 546.281,222.803 547.379,220.884 
  548.477,219.008 549.574,217.174 550.672,215.386 551.77,213.645 552.868,211.952 553.966,210.311 555.064,208.722 556.162,207.187 557.26,205.708 558.357,204.287 
  559.455,202.924 560.553,201.623 561.651,200.383 562.749,199.206 563.847,198.094 564.945,197.048 566.043,196.069 567.14,195.158 568.238,194.316 569.336,193.544 
  570.434,192.843 571.532,192.214 572.63,191.657 573.728,191.173 574.826,190.762 575.923,190.426 577.021,190.164 578.119,189.976 579.217,189.864 580.315,189.826 
  
  "/>
</svg>
