<?xml version="1.0" encoding="utf-8"?>
<svg xmlns="http://www.w3.org/2000/svg" xmlns:xlink="http://www.w3.org/1999/xlink" width="600" height="400" viewBox="0 0 2400 1600">
<defs>
  <clipPath id="clip3800">
    <rect x="0" y="0" width="2400" height="1600"/>
  </clipPath>
</defs>
<polygon clip-path="url(#clip3800)" points="
0,1600 2400,1600 2400,0 0,0 
  " fill="#ffffff" fill-rule="evenodd" fill-opacity="1"/>
<defs>
  <clipPath id="clip3801">
    <rect x="480" y="0" width="1681" height="1600"/>
  </clipPath>
</defs>
<polygon clip-path="url(#clip3800)" points="
188.156,1503.47 2321.26,1503.47 2321.26,47.2441 188.156,47.2441 
  " fill="#ffffff" fill-rule="evenodd" fill-opacity="1"/>
<defs>
  <clipPath id="clip3802">
    <rect x="188" y="47" width="2134" height="1457"/>
  </clipPath>
</defs>
<polyline clip-path="url(#clip3802)" style="stroke:#000000; stroke-width:2; stroke-opacity:0.1; fill:none" points="
  416.224,1503.47 416.224,47.2441 
  "/>
<polyline clip-path="url(#clip3802)" style="stroke:#000000; stroke-width:2; stroke-opacity:0.1; fill:none" points="
  835.466,1503.47 835.466,47.2441 
  "/>
<polyline clip-path="url(#clip3802)" style="stroke:#000000; stroke-width:2; stroke-opacity:0.1; fill:none" points="
  1254.71,1503.47 1254.71,47.2441 
  "/>
<polyline clip-path="url(#clip3802)" style="stroke:#000000; stroke-width:2; stroke-opacity:0.1; fill:none" points="
  1673.95,1503.47 1673.95,47.2441 
  "/>
<polyline clip-path="url(#clip3802)" style="stroke:#000000; stroke-width:2; stroke-opacity:0.1; fill:none" points="
  2093.19,1503.47 2093.19,47.2441 
  "/>
<polyline clip-path="url(#clip3802)" style="stroke:#000000; stroke-width:2; stroke-opacity:0.1; fill:none" points="
  188.156,1462.26 2321.26,1462.26 
  "/>
<polyline clip-path="url(#clip3802)" style="stroke:#000000; stroke-width:2; stroke-opacity:0.1; fill:none" points="
  188.156,1118.81 2321.26,1118.81 
  "/>
<polyline clip-path="url(#clip3802)" style="stroke:#000000; stroke-width:2; stroke-opacity:0.1; fill:none" points="
  188.156,775.359 2321.26,775.359 
  "/>
<polyline clip-path="url(#clip3802)" style="stroke:#000000; stroke-width:2; stroke-opacity:0.1; fill:none" points="
  188.156,431.909 2321.26,431.909 
  "/>
<polyline clip-path="url(#clip3802)" style="stroke:#000000; stroke-width:2; stroke-opacity:0.1; fill:none" points="
  188.156,88.4582 2321.26,88.4582 
  "/>
<polyline clip-path="url(#clip3800)" style="stroke:#000000; stroke-width:4; stroke-opacity:1; fill:none" points="
  188.156,1503.47 2321.26,1503.47 
  "/>
<polyline clip-path="url(#clip3800)" style="stroke:#000000; stroke-width:4; stroke-opacity:1; fill:none" points="
  188.156,1503.47 188.156,47.2441 
  "/>
<polyline clip-path="url(#clip3800)" style="stroke:#000000; stroke-width:4; stroke-opacity:1; fill:none" points="
  416.224,1503.47 416.224,1481.63 
  "/>
<polyline clip-path="url(#clip3800)" style="stroke:#000000; stroke-width:4; stroke-opacity:1; fill:none" points="
  835.466,1503.47 835.466,1481.63 
  "/>
<polyline clip-path="url(#clip3800)" style="stroke:#000000; stroke-width:4; stroke-opacity:1; fill:none" points="
  1254.71,1503.47 1254.71,1481.63 
  "/>
<polyline clip-path="url(#clip3800)" style="stroke:#000000; stroke-width:4; stroke-opacity:1; fill:none" points="
  1673.95,1503.47 1673.95,1481.63 
  "/>
<polyline clip-path="url(#clip3800)" style="stroke:#000000; stroke-width:4; stroke-opacity:1; fill:none" points="
  2093.19,1503.47 2093.19,1481.63 
  "/>
<polyline clip-path="url(#clip3800)" style="stroke:#000000; stroke-width:4; stroke-opacity:1; fill:none" points="
  188.156,1462.26 220.153,1462.26 
  "/>
<polyline clip-path="url(#clip3800)" style="stroke:#000000; stroke-width:4; stroke-opacity:1; fill:none" points="
  188.156,1118.81 220.153,1118.81 
  "/>
<polyline clip-path="url(#clip3800)" style="stroke:#000000; stroke-width:4; stroke-opacity:1; fill:none" points="
  188.156,775.359 220.153,775.359 
  "/>
<polyline clip-path="url(#clip3800)" style="stroke:#000000; stroke-width:4; stroke-opacity:1; fill:none" points="
  188.156,431.909 220.153,431.909 
  "/>
<polyline clip-path="url(#clip3800)" style="stroke:#000000; stroke-width:4; stroke-opacity:1; fill:none" points="
  188.156,88.4582 220.153,88.4582 
  "/>
<g clip-path="url(#clip3800)">
<text style="fill:#000000; fill-opacity:1; font-family:Arial,Helvetica Neue,Helvetica,sans-serif; font-size:48px; text-anchor:middle;" transform="rotate(0, 416.224, 1557.47)" x="416.224" y="1557.47">0.0</text>
</g>
<g clip-path="url(#clip3800)">
<text style="fill:#000000; fill-opacity:1; font-family:Arial,Helvetica Neue,Helvetica,sans-serif; font-size:48px; text-anchor:middle;" transform="rotate(0, 835.466, 1557.47)" x="835.466" y="1557.47">2.5</text>
</g>
<g clip-path="url(#clip3800)">
<text style="fill:#000000; fill-opacity:1; font-family:Arial,Helvetica Neue,Helvetica,sans-serif; font-size:48px; text-anchor:middle;" transform="rotate(0, 1254.71, 1557.47)" x="1254.71" y="1557.47">5.0</text>
</g>
<g clip-path="url(#clip3800)">
<text style="fill:#000000; fill-opacity:1; font-family:Arial,Helvetica Neue,Helvetica,sans-serif; font-size:48px; text-anchor:middle;" transform="rotate(0, 1673.95, 1557.47)" x="1673.95" y="1557.47">7.5</text>
</g>
<g clip-path="url(#clip3800)">
<text style="fill:#000000; fill-opacity:1; font-family:Arial,Helvetica Neue,Helvetica,sans-serif; font-size:48px; text-anchor:middle;" transform="rotate(0, 2093.19, 1557.47)" x="2093.19" y="1557.47">10.0</text>
</g>
<g clip-path="url(#clip3800)">
<text style="fill:#000000; fill-opacity:1; font-family:Arial,Helvetica Neue,Helvetica,sans-serif; font-size:48px; text-anchor:end;" transform="rotate(0, 164.156, 1479.76)" x="164.156" y="1479.76">0.00</text>
</g>
<g clip-path="url(#clip3800)">
<text style="fill:#000000; fill-opacity:1; font-family:Arial,Helvetica Neue,Helvetica,sans-serif; font-size:48px; text-anchor:end;" transform="rotate(0, 164.156, 1136.31)" x="164.156" y="1136.31">0.25</text>
</g>
<g clip-path="url(#clip3800)">
<text style="fill:#000000; fill-opacity:1; font-family:Arial,Helvetica Neue,Helvetica,sans-serif; font-size:48px; text-anchor:end;" transform="rotate(0, 164.156, 792.859)" x="164.156" y="792.859">0.50</text>
</g>
<g clip-path="url(#clip3800)">
<text style="fill:#000000; fill-opacity:1; font-family:Arial,Helvetica Neue,Helvetica,sans-serif; font-size:48px; text-anchor:end;" transform="rotate(0, 164.156, 449.409)" x="164.156" y="449.409">0.75</text>
</g>
<g clip-path="url(#clip3800)">
<text style="fill:#000000; fill-opacity:1; font-family:Arial,Helvetica Neue,Helvetica,sans-serif; font-size:48px; text-anchor:end;" transform="rotate(0, 164.156, 105.958)" x="164.156" y="105.958">1.00</text>
</g>
<polyline clip-path="url(#clip3802)" style="stroke:#009af9; stroke-width:4; stroke-opacity:1; fill:none" points="
  248.527,1462.26 252.56,1462.26 256.593,1462.26 260.626,1462.26 264.658,1462.26 268.691,1462.26 272.724,1462.26 276.757,1462.26 280.79,1462.26 284.822,1462.26 
  288.855,1462.26 292.888,1462.26 296.921,1462.26 300.953,1462.26 304.986,1462.26 309.019,1462.26 313.052,1462.26 317.085,1462.26 321.117,1462.26 325.15,1462.26 
  329.183,1462.26 333.216,1462.26 337.249,1462.26 341.281,1462.26 345.314,1462.26 349.347,1462.26 353.38,1462.26 357.413,1462.26 361.445,1462.26 365.478,1462.26 
  369.511,1462.26 373.544,1462.26 377.576,1462.26 381.609,1462.26 385.642,1462.26 389.675,1462.26 393.708,1462.26 397.74,1462.26 401.773,1462.26 405.806,1462.26 
  409.839,1462.26 413.872,1462.26 417.904,88.4582 421.937,88.4582 425.97,88.4582 430.003,88.4582 434.036,88.4582 438.068,88.4582 442.101,88.4582 446.134,88.4582 
  450.167,88.4582 454.199,88.4582 458.232,88.4582 462.265,88.4582 466.298,88.4582 470.331,88.4582 474.363,88.4582 478.396,88.4582 482.429,88.4582 486.462,88.4582 
  490.495,88.4582 494.527,88.4582 498.56,88.4582 502.593,88.4582 506.626,88.4582 510.659,88.4582 514.691,88.4582 518.724,88.4582 522.757,88.4582 526.79,88.4582 
  530.822,88.4582 534.855,88.4582 538.888,88.4582 542.921,88.4582 546.954,88.4582 550.986,88.4582 555.019,88.4582 559.052,88.4582 563.085,88.4582 567.118,88.4582 
  571.15,88.4582 575.183,88.4582 579.216,88.4582 583.249,88.4582 587.282,1462.26 591.314,1462.26 595.347,1462.26 599.38,1462.26 603.413,1462.26 607.445,1462.26 
  611.478,1462.26 615.511,1462.26 619.544,1462.26 623.577,1462.26 627.609,1462.26 631.642,1462.26 635.675,1462.26 639.708,1462.26 643.741,1462.26 647.773,1462.26 
  651.806,1462.26 655.839,1462.26 659.872,1462.26 663.905,1462.26 667.937,1462.26 671.97,1462.26 676.003,1462.26 680.036,1462.26 684.068,1462.26 688.101,1462.26 
  692.134,1462.26 696.167,1462.26 700.2,1462.26 704.232,1462.26 708.265,1462.26 712.298,1462.26 716.331,1462.26 720.364,1462.26 724.396,1462.26 728.429,1462.26 
  732.462,1462.26 736.495,1462.26 740.528,1462.26 744.56,1462.26 748.593,1462.26 752.626,1462.26 756.659,1462.26 760.691,1462.26 764.724,1462.26 768.757,1462.26 
  772.79,1462.26 776.823,1462.26 780.855,1462.26 784.888,1462.26 788.921,1462.26 792.954,1462.26 796.987,1462.26 801.019,1462.26 805.052,1462.26 809.085,1462.26 
  813.118,1462.26 817.15,1462.26 821.183,1462.26 825.216,1462.26 829.249,1462.26 833.282,1462.26 837.314,1462.26 841.347,1462.26 845.38,1462.26 849.413,1462.26 
  853.446,1462.26 857.478,1462.26 861.511,1462.26 865.544,1462.26 869.577,1462.26 873.61,1462.26 877.642,1462.26 881.675,1462.26 885.708,1462.26 889.741,1462.26 
  893.773,1462.26 897.806,1462.26 901.839,1462.26 905.872,1462.26 909.905,1462.26 913.937,1462.26 917.97,1462.26 922.003,1462.26 926.036,1462.26 930.069,1462.26 
  934.101,1462.26 938.134,1462.26 942.167,1462.26 946.2,1462.26 950.233,1462.26 954.265,1462.26 958.298,1462.26 962.331,1462.26 966.364,1462.26 970.396,1462.26 
  974.429,1462.26 978.462,1462.26 982.495,1462.26 986.528,1462.26 990.56,1462.26 994.593,1462.26 998.626,1462.26 1002.66,1462.26 1006.69,1462.26 1010.72,1462.26 
  1014.76,1462.26 1018.79,1462.26 1022.82,1462.26 1026.86,1462.26 1030.89,1462.26 1034.92,1462.26 1038.95,1462.26 1042.99,1462.26 1047.02,1462.26 1051.05,1462.26 
  1055.09,1462.26 1059.12,1462.26 1063.15,1462.26 1067.18,1462.26 1071.22,1462.26 1075.25,1462.26 1079.28,1462.26 1083.31,1462.26 1087.35,1462.26 1091.38,1462.26 
  1095.41,1462.26 1099.45,1462.26 1103.48,1462.26 1107.51,1462.26 1111.54,1462.26 1115.58,1462.26 1119.61,1462.26 1123.64,1462.26 1127.68,1462.26 1131.71,1462.26 
  1135.74,1462.26 1139.77,1462.26 1143.81,1462.26 1147.84,1462.26 1151.87,1462.26 1155.9,1462.26 1159.94,1462.26 1163.97,1462.26 1168,1462.26 1172.04,1462.26 
  1176.07,1462.26 1180.1,1462.26 1184.13,1462.26 1188.17,1462.26 1192.2,1462.26 1196.23,1462.26 1200.27,1462.26 1204.3,1462.26 1208.33,1462.26 1212.36,1462.26 
  1216.4,1462.26 1220.43,1462.26 1224.46,1462.26 1228.49,1462.26 1232.53,1462.26 1236.56,1462.26 1240.59,1462.26 1244.63,1462.26 1248.66,1462.26 1252.69,1462.26 
  1256.72,1462.26 1260.76,1462.26 1264.79,1462.26 1268.82,1462.26 1272.86,1462.26 1276.89,1462.26 1280.92,1462.26 1284.95,1462.26 1288.99,1462.26 1293.02,1462.26 
  1297.05,1462.26 1301.09,1462.26 1305.12,1462.26 1309.15,1462.26 1313.18,1462.26 1317.22,1462.26 1321.25,1462.26 1325.28,1462.26 1329.31,1462.26 1333.35,1462.26 
  1337.38,1462.26 1341.41,1462.26 1345.45,1462.26 1349.48,1462.26 1353.51,1462.26 1357.54,1462.26 1361.58,1462.26 1365.61,1462.26 1369.64,1462.26 1373.68,1462.26 
  1377.71,1462.26 1381.74,1462.26 1385.77,1462.26 1389.81,1462.26 1393.84,1462.26 1397.87,1462.26 1401.9,1462.26 1405.94,1462.26 1409.97,1462.26 1414,1462.26 
  1418.04,1462.26 1422.07,1462.26 1426.1,1462.26 1430.13,1462.26 1434.17,1462.26 1438.2,1462.26 1442.23,1462.26 1446.27,1462.26 1450.3,1462.26 1454.33,1462.26 
  1458.36,1462.26 1462.4,1462.26 1466.43,1462.26 1470.46,1462.26 1474.5,1462.26 1478.53,1462.26 1482.56,1462.26 1486.59,1462.26 1490.63,1462.26 1494.66,1462.26 
  1498.69,1462.26 1502.72,1462.26 1506.76,1462.26 1510.79,1462.26 1514.82,1462.26 1518.86,1462.26 1522.89,1462.26 1526.92,1462.26 1530.95,1462.26 1534.99,1462.26 
  1539.02,1462.26 1543.05,1462.26 1547.09,1462.26 1551.12,1462.26 1555.15,1462.26 1559.18,1462.26 1563.22,1462.26 1567.25,1462.26 1571.28,1462.26 1575.31,1462.26 
  1579.35,1462.26 1583.38,1462.26 1587.41,1462.26 1591.45,1462.26 1595.48,1462.26 1599.51,1462.26 1603.54,1462.26 1607.58,1462.26 1611.61,1462.26 1615.64,1462.26 
  1619.68,1462.26 1623.71,1462.26 1627.74,1462.26 1631.77,1462.26 1635.81,1462.26 1639.84,1462.26 1643.87,1462.26 1647.91,1462.26 1651.94,1462.26 1655.97,1462.26 
  1660,1462.26 1664.04,1462.26 1668.07,1462.26 1672.1,1462.26 1676.13,1462.26 1680.17,1462.26 1684.2,1462.26 1688.23,1462.26 1692.27,1462.26 1696.3,1462.26 
  1700.33,1462.26 1704.36,1462.26 1708.4,1462.26 1712.43,1462.26 1716.46,1462.26 1720.5,1462.26 1724.53,1462.26 1728.56,1462.26 1732.59,1462.26 1736.63,1462.26 
  1740.66,1462.26 1744.69,1462.26 1748.72,1462.26 1752.76,1462.26 1756.79,1462.26 1760.82,1462.26 1764.86,1462.26 1768.89,1462.26 1772.92,1462.26 1776.95,1462.26 
  1780.99,1462.26 1785.02,1462.26 1789.05,1462.26 1793.09,1462.26 1797.12,1462.26 1801.15,1462.26 1805.18,1462.26 1809.22,1462.26 1813.25,1462.26 1817.28,1462.26 
  1821.31,1462.26 1825.35,1462.26 1829.38,1462.26 1833.41,1462.26 1837.45,1462.26 1841.48,1462.26 1845.51,1462.26 1849.54,1462.26 1853.58,1462.26 1857.61,1462.26 
  1861.64,1462.26 1865.68,1462.26 1869.71,1462.26 1873.74,1462.26 1877.77,1462.26 1881.81,1462.26 1885.84,1462.26 1889.87,1462.26 1893.91,1462.26 1897.94,1462.26 
  1901.97,1462.26 1906,1462.26 1910.04,1462.26 1914.07,1462.26 1918.1,1462.26 1922.13,1462.26 1926.17,1462.26 1930.2,1462.26 1934.23,1462.26 1938.27,1462.26 
  1942.3,1462.26 1946.33,1462.26 1950.36,1462.26 1954.4,1462.26 1958.43,1462.26 1962.46,1462.26 1966.5,1462.26 1970.53,1462.26 1974.56,1462.26 1978.59,1462.26 
  1982.63,1462.26 1986.66,1462.26 1990.69,1462.26 1994.72,1462.26 1998.76,1462.26 2002.79,1462.26 2006.82,1462.26 2010.86,1462.26 2014.89,1462.26 2018.92,1462.26 
  2022.95,1462.26 2026.99,1462.26 2031.02,1462.26 2035.05,1462.26 2039.09,1462.26 2043.12,1462.26 2047.15,1462.26 2051.18,1462.26 2055.22,1462.26 2059.25,1462.26 
  2063.28,1462.26 2067.32,1462.26 2071.35,1462.26 2075.38,1462.26 2079.41,1462.26 2083.45,1462.26 2087.48,1462.26 2091.51,1462.26 2095.54,1462.26 2099.58,1462.26 
  2103.61,1462.26 2107.64,1462.26 2111.68,1462.26 2115.71,1462.26 2119.74,1462.26 2123.77,1462.26 2127.81,1462.26 2131.84,1462.26 2135.87,1462.26 2139.91,1462.26 
  2143.94,1462.26 2147.97,1462.26 2152,1462.26 2156.04,1462.26 2160.07,1462.26 2164.1,1462.26 2168.13,1462.26 2172.17,1462.26 2176.2,1462.26 2180.23,1462.26 
  2184.27,1462.26 2188.3,1462.26 2192.33,1462.26 2196.36,1462.26 2200.4,1462.26 2204.43,1462.26 2208.46,1462.26 2212.5,1462.26 2216.53,1462.26 2220.56,1462.26 
  2224.59,1462.26 2228.63,1462.26 2232.66,1462.26 2236.69,1462.26 2240.73,1462.26 2244.76,1462.26 2248.79,1462.26 2252.82,1462.26 2256.86,1462.26 2260.89,1462.26 
  
  "/>
<polyline clip-path="url(#clip3802)" style="stroke:#e26f46; stroke-width:4; stroke-opacity:1; fill:none" points="
  248.527,1462.26 252.56,1462.26 256.593,1462.26 260.626,1462.26 264.658,1462.26 268.691,1462.26 272.724,1462.26 276.757,1462.26 280.79,1462.26 284.822,1462.26 
  288.855,1462.26 292.888,1462.26 296.921,1462.26 300.953,1462.26 304.986,1462.26 309.019,1462.26 313.052,1462.26 317.085,1462.26 321.117,1462.26 325.15,1462.26 
  329.183,1462.26 333.216,1462.26 337.249,1462.26 341.281,1462.26 345.314,1462.26 349.347,1462.26 353.38,1462.26 357.413,1462.26 361.445,1462.26 365.478,1462.26 
  369.511,1462.26 373.544,1462.26 377.576,1462.26 381.609,1462.26 385.642,1462.26 389.675,1462.26 393.708,1462.26 397.74,1462.26 401.773,1462.26 405.806,1462.26 
  409.839,1462.26 413.872,1462.26 417.904,1448.5 421.937,1415.46 425.97,1382.42 430.003,1349.38 434.036,1316.35 438.068,1283.31 442.101,1250.27 446.134,1217.23 
  450.167,1184.2 454.199,1151.16 458.232,1118.12 462.265,1085.08 466.298,1052.05 470.331,1019.01 474.363,985.972 478.396,952.935 482.429,919.898 486.462,886.86 
  490.495,853.823 494.527,820.786 498.56,787.748 502.593,754.711 506.626,721.674 510.659,688.636 514.691,655.599 518.724,622.562 522.757,589.524 526.79,556.487 
  530.822,523.45 534.855,490.412 538.888,457.375 542.921,424.338 546.954,391.3 550.986,358.263 555.019,325.226 559.052,292.188 563.085,259.151 567.118,226.114 
  571.15,193.076 575.183,160.039 579.216,127.002 583.249,93.9644 587.282,115.989 591.314,149.027 595.347,182.064 599.38,215.101 603.413,248.139 607.445,281.176 
  611.478,314.213 615.511,347.251 619.544,380.288 623.577,413.325 627.609,446.363 631.642,479.4 635.675,512.437 639.708,545.475 643.741,578.512 647.773,611.549 
  651.806,644.587 655.839,677.624 659.872,710.661 663.905,743.699 667.937,776.736 671.97,809.773 676.003,842.811 680.036,875.848 684.068,908.885 688.101,941.923 
  692.134,974.96 696.167,1008 700.2,1041.03 704.232,1074.07 708.265,1107.11 712.298,1140.15 716.331,1173.18 720.364,1206.22 724.396,1239.26 728.429,1272.3 
  732.462,1305.33 736.495,1338.37 740.528,1371.41 744.56,1404.45 748.593,1437.48 752.626,1462.26 756.659,1462.26 760.691,1462.26 764.724,1462.26 768.757,1462.26 
  772.79,1462.26 776.823,1462.26 780.855,1462.26 784.888,1462.26 788.921,1462.26 792.954,1462.26 796.987,1462.26 801.019,1462.26 805.052,1462.26 809.085,1462.26 
  813.118,1462.26 817.15,1462.26 821.183,1462.26 825.216,1462.26 829.249,1462.26 833.282,1462.26 837.314,1462.26 841.347,1462.26 845.38,1462.26 849.413,1462.26 
  853.446,1462.26 857.478,1462.26 861.511,1462.26 865.544,1462.26 869.577,1462.26 873.61,1462.26 877.642,1462.26 881.675,1462.26 885.708,1462.26 889.741,1462.26 
  893.773,1462.26 897.806,1462.26 901.839,1462.26 905.872,1462.26 909.905,1462.26 913.937,1462.26 917.97,1462.26 922.003,1462.26 926.036,1462.26 930.069,1462.26 
  934.101,1462.26 938.134,1462.26 942.167,1462.26 946.2,1462.26 950.233,1462.26 954.265,1462.26 958.298,1462.26 962.331,1462.26 966.364,1462.26 970.396,1462.26 
  974.429,1462.26 978.462,1462.26 982.495,1462.26 986.528,1462.26 990.56,1462.26 994.593,1462.26 998.626,1462.26 1002.66,1462.26 1006.69,1462.26 1010.72,1462.26 
  1014.76,1462.26 1018.79,1462.26 1022.82,1462.26 1026.86,1462.26 1030.89,1462.26 1034.92,1462.26 1038.95,1462.26 1042.99,1462.26 1047.02,1462.26 1051.05,1462.26 
  1055.09,1462.26 1059.12,1462.26 1063.15,1462.26 1067.18,1462.26 1071.22,1462.26 1075.25,1462.26 1079.28,1462.26 1083.31,1462.26 1087.35,1462.26 1091.38,1462.26 
  1095.41,1462.26 1099.45,1462.26 1103.48,1462.26 1107.51,1462.26 1111.54,1462.26 1115.58,1462.26 1119.61,1462.26 1123.64,1462.26 1127.68,1462.26 1131.71,1462.26 
  1135.74,1462.26 1139.77,1462.26 1143.81,1462.26 1147.84,1462.26 1151.87,1462.26 1155.9,1462.26 1159.94,1462.26 1163.97,1462.26 1168,1462.26 1172.04,1462.26 
  1176.07,1462.26 1180.1,1462.26 1184.13,1462.26 1188.17,1462.26 1192.2,1462.26 1196.23,1462.26 1200.27,1462.26 1204.3,1462.26 1208.33,1462.26 1212.36,1462.26 
  1216.4,1462.26 1220.43,1462.26 1224.46,1462.26 1228.49,1462.26 1232.53,1462.26 1236.56,1462.26 1240.59,1462.26 1244.63,1462.26 1248.66,1462.26 1252.69,1462.26 
  1256.72,1462.26 1260.76,1462.26 1264.79,1462.26 1268.82,1462.26 1272.86,1462.26 1276.89,1462.26 1280.92,1462.26 1284.95,1462.26 1288.99,1462.26 1293.02,1462.26 
  1297.05,1462.26 1301.09,1462.26 1305.12,1462.26 1309.15,1462.26 1313.18,1462.26 1317.22,1462.26 1321.25,1462.26 1325.28,1462.26 1329.31,1462.26 1333.35,1462.26 
  1337.38,1462.26 1341.41,1462.26 1345.45,1462.26 1349.48,1462.26 1353.51,1462.26 1357.54,1462.26 1361.58,1462.26 1365.61,1462.26 1369.64,1462.26 1373.68,1462.26 
  1377.71,1462.26 1381.74,1462.26 1385.77,1462.26 1389.81,1462.26 1393.84,1462.26 1397.87,1462.26 1401.9,1462.26 1405.94,1462.26 1409.97,1462.26 1414,1462.26 
  1418.04,1462.26 1422.07,1462.26 1426.1,1462.26 1430.13,1462.26 1434.17,1462.26 1438.2,1462.26 1442.23,1462.26 1446.27,1462.26 1450.3,1462.26 1454.33,1462.26 
  1458.36,1462.26 1462.4,1462.26 1466.43,1462.26 1470.46,1462.26 1474.5,1462.26 1478.53,1462.26 1482.56,1462.26 1486.59,1462.26 1490.63,1462.26 1494.66,1462.26 
  1498.69,1462.26 1502.72,1462.26 1506.76,1462.26 1510.79,1462.26 1514.82,1462.26 1518.86,1462.26 1522.89,1462.26 1526.92,1462.26 1530.95,1462.26 1534.99,1462.26 
  1539.02,1462.26 1543.05,1462.26 1547.09,1462.26 1551.12,1462.26 1555.15,1462.26 1559.18,1462.26 1563.22,1462.26 1567.25,1462.26 1571.28,1462.26 1575.31,1462.26 
  1579.35,1462.26 1583.38,1462.26 1587.41,1462.26 1591.45,1462.26 1595.48,1462.26 1599.51,1462.26 1603.54,1462.26 1607.58,1462.26 1611.61,1462.26 1615.64,1462.26 
  1619.68,1462.26 1623.71,1462.26 1627.74,1462.26 1631.77,1462.26 1635.81,1462.26 1639.84,1462.26 1643.87,1462.26 1647.91,1462.26 1651.94,1462.26 1655.97,1462.26 
  1660,1462.26 1664.04,1462.26 1668.07,1462.26 1672.1,1462.26 1676.13,1462.26 1680.17,1462.26 1684.2,1462.26 1688.23,1462.26 1692.27,1462.26 1696.3,1462.26 
  1700.33,1462.26 1704.36,1462.26 1708.4,1462.26 1712.43,1462.26 1716.46,1462.26 1720.5,1462.26 1724.53,1462.26 1728.56,1462.26 1732.59,1462.26 1736.63,1462.26 
  1740.66,1462.26 1744.69,1462.26 1748.72,1462.26 1752.76,1462.26 1756.79,1462.26 1760.82,1462.26 1764.86,1462.26 1768.89,1462.26 1772.92,1462.26 1776.95,1462.26 
  1780.99,1462.26 1785.02,1462.26 1789.05,1462.26 1793.09,1462.26 1797.12,1462.26 1801.15,1462.26 1805.18,1462.26 1809.22,1462.26 1813.25,1462.26 1817.28,1462.26 
  1821.31,1462.26 1825.35,1462.26 1829.38,1462.26 1833.41,1462.26 1837.45,1462.26 1841.48,1462.26 1845.51,1462.26 1849.54,1462.26 1853.58,1462.26 1857.61,1462.26 
  1861.64,1462.26 1865.68,1462.26 1869.71,1462.26 1873.74,1462.26 1877.77,1462.26 1881.81,1462.26 1885.84,1462.26 1889.87,1462.26 1893.91,1462.26 1897.94,1462.26 
  1901.97,1462.26 1906,1462.26 1910.04,1462.26 1914.07,1462.26 1918.1,1462.26 1922.13,1462.26 1926.17,1462.26 1930.2,1462.26 1934.23,1462.26 1938.27,1462.26 
  1942.3,1462.26 1946.33,1462.26 1950.36,1462.26 1954.4,1462.26 1958.43,1462.26 1962.46,1462.26 1966.5,1462.26 1970.53,1462.26 1974.56,1462.26 1978.59,1462.26 
  1982.63,1462.26 1986.66,1462.26 1990.69,1462.26 1994.72,1462.26 1998.76,1462.26 2002.79,1462.26 2006.82,1462.26 2010.86,1462.26 2014.89,1462.26 2018.92,1462.26 
  2022.95,1462.26 2026.99,1462.26 2031.02,1462.26 2035.05,1462.26 2039.09,1462.26 2043.12,1462.26 2047.15,1462.26 2051.18,1462.26 2055.22,1462.26 2059.25,1462.26 
  2063.28,1462.26 2067.32,1462.26 2071.35,1462.26 2075.38,1462.26 2079.41,1462.26 2083.45,1462.26 2087.48,1462.26 2091.51,1462.26 2095.54,1462.26 2099.58,1462.26 
  2103.61,1462.26 2107.64,1462.26 2111.68,1462.26 2115.71,1462.26 2119.74,1462.26 2123.77,1462.26 2127.81,1462.26 2131.84,1462.26 2135.87,1462.26 2139.91,1462.26 
  2143.94,1462.26 2147.97,1462.26 2152,1462.26 2156.04,1462.26 2160.07,1462.26 2164.1,1462.26 2168.13,1462.26 2172.17,1462.26 2176.2,1462.26 2180.23,1462.26 
  2184.27,1462.26 2188.3,1462.26 2192.33,1462.26 2196.36,1462.26 2200.4,1462.26 2204.43,1462.26 2208.46,1462.26 2212.5,1462.26 2216.53,1462.26 2220.56,1462.26 
  2224.59,1462.26 2228.63,1462.26 2232.66,1462.26 2236.69,1462.26 2240.73,1462.26 2244.76,1462.26 2248.79,1462.26 2252.82,1462.26 2256.86,1462.26 2260.89,1462.26 
  
  "/>
<polyline clip-path="url(#clip3802)" style="stroke:#3da44d; stroke-width:4; stroke-opacity:1; fill:none" points="
  248.527,1462.26 252.56,1462.26 256.593,1462.26 260.626,1462.26 264.658,1462.26 268.691,1462.26 272.724,1462.26 276.757,1462.26 280.79,1462.26 284.822,1462.26 
  288.855,1462.26 292.888,1462.26 296.921,1462.26 300.953,1462.26 304.986,1462.26 309.019,1462.26 313.052,1462.26 317.085,1462.26 321.117,1462.26 325.15,1462.26 
  329.183,1462.26 333.216,1462.26 337.249,1462.26 341.281,1462.26 345.314,1462.26 349.347,1462.26 353.38,1462.26 357.413,1462.26 361.445,1462.26 365.478,1462.26 
  369.511,1462.26 373.544,1462.26 377.576,1462.26 381.609,1462.26 385.642,1462.26 389.675,1462.26 393.708,1462.26 397.74,1462.26 401.773,1462.26 405.806,1462.26 
  409.839,1462.26 413.872,1462.26 417.904,1462.19 421.937,1461.46 425.97,1459.94 430.003,1457.62 434.036,1454.51 438.068,1450.61 442.101,1445.9 446.134,1440.41 
  450.167,1434.12 454.199,1427.04 458.232,1419.16 462.265,1410.48 466.298,1401.02 470.331,1390.75 474.363,1379.7 478.396,1367.85 482.429,1355.2 486.462,1341.76 
  490.495,1327.53 494.527,1312.5 498.56,1296.67 502.593,1280.06 506.626,1262.64 510.659,1244.44 514.691,1225.44 518.724,1205.64 522.757,1185.05 526.79,1163.66 
  530.822,1141.48 534.855,1118.51 538.888,1094.74 542.921,1070.18 546.954,1044.82 550.986,1018.67 555.019,991.724 559.052,963.983 563.085,935.448 567.118,906.118 
  571.15,875.994 575.183,845.075 579.216,813.362 583.249,780.855 587.282,748.38 591.314,717.461 595.347,688.132 599.38,660.391 603.413,634.239 607.445,609.676 
  611.478,586.702 615.511,565.317 619.544,545.522 623.577,527.315 627.609,510.697 631.642,495.668 635.675,482.228 639.708,470.376 643.741,460.114 647.773,451.441 
  651.806,444.357 655.839,438.862 659.872,434.956 663.905,432.638 667.937,431.91 671.97,432.771 676.003,435.221 680.036,439.259 684.068,444.887 688.101,452.103 
  692.134,460.909 696.167,471.303 700.2,483.287 704.232,496.859 708.265,512.021 712.298,528.771 716.331,547.11 720.364,567.039 724.396,588.556 728.429,611.662 
  732.462,636.358 736.495,662.642 740.528,690.515 744.56,719.977 748.593,751.028 752.626,783.594 756.659,816.035 760.691,847.682 764.724,878.535 768.757,908.593 
  772.79,937.856 776.823,966.325 780.855,994 784.888,1020.88 788.921,1046.97 792.954,1072.26 796.987,1096.75 801.019,1120.46 805.052,1143.36 809.085,1165.48 
  813.118,1186.8 817.15,1207.32 821.183,1227.05 825.216,1245.98 829.249,1264.12 833.282,1281.47 837.314,1298.02 841.347,1313.78 845.38,1328.74 849.413,1342.91 
  853.446,1356.29 857.478,1368.86 861.511,1380.65 865.544,1391.64 869.577,1401.84 873.61,1411.24 877.642,1419.84 881.675,1427.66 885.708,1434.67 889.741,1440.9 
  893.773,1446.33 897.806,1450.96 901.839,1454.8 905.872,1457.85 909.905,1460.1 913.937,1461.55 917.97,1462.22 922.003,1462.26 926.036,1462.26 930.069,1462.26 
  934.101,1462.26 938.134,1462.26 942.167,1462.26 946.2,1462.26 950.233,1462.26 954.265,1462.26 958.298,1462.26 962.331,1462.26 966.364,1462.26 970.396,1462.26 
  974.429,1462.26 978.462,1462.26 982.495,1462.26 986.528,1462.26 990.56,1462.26 994.593,1462.26 998.626,1462.26 1002.66,1462.26 1006.69,1462.26 1010.72,1462.26 
  1014.76,1462.26 1018.79,1462.26 1022.82,1462.26 1026.86,1462.26 1030.89,1462.26 1034.92,1462.26 1038.95,1462.26 1042.99,1462.26 1047.02,1462.26 1051.05,1462.26 
  1055.09,1462.26 1059.12,1462.26 1063.15,1462.26 1067.18,1462.26 1071.22,1462.26 1075.25,1462.26 1079.28,1462.26 1083.31,1462.26 1087.35,1462.26 1091.38,1462.26 
  1095.41,1462.26 1099.45,1462.26 1103.48,1462.26 1107.51,1462.26 1111.54,1462.26 1115.58,1462.26 1119.61,1462.26 1123.64,1462.26 1127.68,1462.26 1131.71,1462.26 
  1135.74,1462.26 1139.77,1462.26 1143.81,1462.26 1147.84,1462.26 1151.87,1462.26 1155.9,1462.26 1159.94,1462.26 1163.97,1462.26 1168,1462.26 1172.04,1462.26 
  1176.07,1462.26 1180.1,1462.26 1184.13,1462.26 1188.17,1462.26 1192.2,1462.26 1196.23,1462.26 1200.27,1462.26 1204.3,1462.26 1208.33,1462.26 1212.36,1462.26 
  1216.4,1462.26 1220.43,1462.26 1224.46,1462.26 1228.49,1462.26 1232.53,1462.26 1236.56,1462.26 1240.59,1462.26 1244.63,1462.26 1248.66,1462.26 1252.69,1462.26 
  1256.72,1462.26 1260.76,1462.26 1264.79,1462.26 1268.82,1462.26 1272.86,1462.26 1276.89,1462.26 1280.92,1462.26 1284.95,1462.26 1288.99,1462.26 1293.02,1462.26 
  1297.05,1462.26 1301.09,1462.26 1305.12,1462.26 1309.15,1462.26 1313.18,1462.26 1317.22,1462.26 1321.25,1462.26 1325.28,1462.26 1329.31,1462.26 1333.35,1462.26 
  1337.38,1462.26 1341.41,1462.26 1345.45,1462.26 1349.48,1462.26 1353.51,1462.26 1357.54,1462.26 1361.58,1462.26 1365.61,1462.26 1369.64,1462.26 1373.68,1462.26 
  1377.71,1462.26 1381.74,1462.26 1385.77,1462.26 1389.81,1462.26 1393.84,1462.26 1397.87,1462.26 1401.9,1462.26 1405.94,1462.26 1409.97,1462.26 1414,1462.26 
  1418.04,1462.26 1422.07,1462.26 1426.1,1462.26 1430.13,1462.26 1434.17,1462.26 1438.2,1462.26 1442.23,1462.26 1446.27,1462.26 1450.3,1462.26 1454.33,1462.26 
  1458.36,1462.26 1462.4,1462.26 1466.43,1462.26 1470.46,1462.26 1474.5,1462.26 1478.53,1462.26 1482.56,1462.26 1486.59,1462.26 1490.63,1462.26 1494.66,1462.26 
  1498.69,1462.26 1502.72,1462.26 1506.76,1462.26 1510.79,1462.26 1514.82,1462.26 1518.86,1462.26 1522.89,1462.26 1526.92,1462.26 1530.95,1462.26 1534.99,1462.26 
  1539.02,1462.26 1543.05,1462.26 1547.09,1462.26 1551.12,1462.26 1555.15,1462.26 1559.18,1462.26 1563.22,1462.26 1567.25,1462.26 1571.28,1462.26 1575.31,1462.26 
  1579.35,1462.26 1583.38,1462.26 1587.41,1462.26 1591.45,1462.26 1595.48,1462.26 1599.51,1462.26 1603.54,1462.26 1607.58,1462.26 1611.61,1462.26 1615.64,1462.26 
  1619.68,1462.26 1623.71,1462.26 1627.74,1462.26 1631.77,1462.26 1635.81,1462.26 1639.84,1462.26 1643.87,1462.26 1647.91,1462.26 1651.94,1462.26 1655.97,1462.26 
  1660,1462.26 1664.04,1462.26 1668.07,1462.26 1672.1,1462.26 1676.13,1462.26 1680.17,1462.26 1684.2,1462.26 1688.23,1462.26 1692.27,1462.26 1696.3,1462.26 
  1700.33,1462.26 1704.36,1462.26 1708.4,1462.26 1712.43,1462.26 1716.46,1462.26 1720.5,1462.26 1724.53,1462.26 1728.56,1462.26 1732.59,1462.26 1736.63,1462.26 
  1740.66,1462.26 1744.69,1462.26 1748.72,1462.26 1752.76,1462.26 1756.79,1462.26 1760.82,1462.26 1764.86,1462.26 1768.89,1462.26 1772.92,1462.26 1776.95,1462.26 
  1780.99,1462.26 1785.02,1462.26 1789.05,1462.26 1793.09,1462.26 1797.12,1462.26 1801.15,1462.26 1805.18,1462.26 1809.22,1462.26 1813.25,1462.26 1817.28,1462.26 
  1821.31,1462.26 1825.35,1462.26 1829.38,1462.26 1833.41,1462.26 1837.45,1462.26 1841.48,1462.26 1845.51,1462.26 1849.54,1462.26 1853.58,1462.26 1857.61,1462.26 
  1861.64,1462.26 1865.68,1462.26 1869.71,1462.26 1873.74,1462.26 1877.77,1462.26 1881.81,1462.26 1885.84,1462.26 1889.87,1462.26 1893.91,1462.26 1897.94,1462.26 
  1901.97,1462.26 1906,1462.26 1910.04,1462.26 1914.07,1462.26 1918.1,1462.26 1922.13,1462.26 1926.17,1462.26 1930.2,1462.26 1934.23,1462.26 1938.27,1462.26 
  1942.3,1462.26 1946.33,1462.26 1950.36,1462.26 1954.4,1462.26 1958.43,1462.26 1962.46,1462.26 1966.5,1462.26 1970.53,1462.26 1974.56,1462.26 1978.59,1462.26 
  1982.63,1462.26 1986.66,1462.26 1990.69,1462.26 1994.72,1462.26 1998.76,1462.26 2002.79,1462.26 2006.82,1462.26 2010.86,1462.26 2014.89,1462.26 2018.92,1462.26 
  2022.95,1462.26 2026.99,1462.26 2031.02,1462.26 2035.05,1462.26 2039.09,1462.26 2043.12,1462.26 2047.15,1462.26 2051.18,1462.26 2055.22,1462.26 2059.25,1462.26 
  2063.28,1462.26 2067.32,1462.26 2071.35,1462.26 2075.38,1462.26 2079.41,1462.26 2083.45,1462.26 2087.48,1462.26 2091.51,1462.26 2095.54,1462.26 2099.58,1462.26 
  2103.61,1462.26 2107.64,1462.26 2111.68,1462.26 2115.71,1462.26 2119.74,1462.26 2123.77,1462.26 2127.81,1462.26 2131.84,1462.26 2135.87,1462.26 2139.91,1462.26 
  2143.94,1462.26 2147.97,1462.26 2152,1462.26 2156.04,1462.26 2160.07,1462.26 2164.1,1462.26 2168.13,1462.26 2172.17,1462.26 2176.2,1462.26 2180.23,1462.26 
  2184.27,1462.26 2188.3,1462.26 2192.33,1462.26 2196.36,1462.26 2200.4,1462.26 2204.43,1462.26 2208.46,1462.26 2212.5,1462.26 2216.53,1462.26 2220.56,1462.26 
  2224.59,1462.26 2228.63,1462.26 2232.66,1462.26 2236.69,1462.26 2240.73,1462.26 2244.76,1462.26 2248.79,1462.26 2252.82,1462.26 2256.86,1462.26 2260.89,1462.26 
  
  "/>
<polyline clip-path="url(#clip3802)" style="stroke:#c271d2; stroke-width:4; stroke-opacity:1; fill:none" points="
  248.527,1462.26 252.56,1462.26 256.593,1462.26 260.626,1462.26 264.658,1462.26 268.691,1462.26 272.724,1462.26 276.757,1462.26 280.79,1462.26 284.822,1462.26 
  288.855,1462.26 292.888,1462.26 296.921,1462.26 300.953,1462.26 304.986,1462.26 309.019,1462.26 313.052,1462.26 317.085,1462.26 321.117,1462.26 325.15,1462.26 
  329.183,1462.26 333.216,1462.26 337.249,1462.26 341.281,1462.26 345.314,1462.26 349.347,1462.26 353.38,1462.26 357.413,1462.26 361.445,1462.26 365.478,1462.26 
  369.511,1462.26 373.544,1462.26 377.576,1462.26 381.609,1462.26 385.642,1462.26 389.675,1462.26 393.708,1462.26 397.74,1462.26 401.773,1462.26 405.806,1462.26 
  409.839,1462.26 413.872,1462.26 417.904,1462.26 421.937,1462.25 425.97,1462.22 430.003,1462.13 434.036,1461.99 438.068,1461.75 442.101,1461.42 446.134,1460.96 
  450.167,1460.36 454.199,1459.6 458.232,1458.66 462.265,1457.52 466.298,1456.16 470.331,1454.57 474.363,1452.72 478.396,1450.59 482.429,1448.17 486.462,1445.44 
  490.495,1442.37 494.527,1438.95 498.56,1435.16 502.593,1430.98 506.626,1426.39 510.659,1421.37 514.691,1415.91 518.724,1409.98 522.757,1403.56 526.79,1396.64 
  530.822,1389.19 534.855,1381.2 538.888,1372.65 542.921,1363.52 546.954,1353.79 550.986,1343.44 555.019,1332.45 559.052,1320.8 563.085,1308.48 567.118,1295.46 
  571.15,1281.72 575.183,1267.25 579.216,1252.03 583.249,1236.04 587.282,1219.26 591.314,1201.73 595.347,1183.52 599.38,1164.67 603.413,1145.25 607.445,1125.31 
  611.478,1104.92 615.511,1084.11 619.544,1062.97 623.577,1041.53 627.609,1019.87 631.642,998.027 635.675,976.071 639.708,954.057 643.741,932.041 647.773,910.08 
  651.806,888.233 655.839,866.556 659.872,845.107 663.905,823.942 667.937,803.12 671.97,782.698 676.003,762.733 680.036,743.281 684.068,724.402 688.101,706.151 
  692.134,688.587 696.167,671.766 700.2,655.746 704.232,640.584 708.265,626.337 712.298,613.064 716.331,600.82 720.364,589.664 724.396,579.653 728.429,570.844 
  732.462,563.294 736.495,557.061 740.528,552.202 744.56,548.774 748.593,546.835 752.626,546.442 756.659,547.615 760.691,550.306 764.724,554.456 768.757,560.009 
  772.79,566.908 776.823,575.095 780.855,584.512 784.888,595.103 788.921,606.81 792.954,619.575 796.987,633.343 801.019,648.054 805.052,663.652 809.085,680.08 
  813.118,697.28 817.15,715.194 821.183,733.767 825.216,752.939 829.249,772.655 833.282,792.856 837.314,813.485 841.347,834.485 845.38,855.799 849.413,877.37 
  853.446,899.139 857.478,921.05 861.511,943.045 865.544,965.068 869.577,987.06 873.61,1008.96 877.642,1030.72 881.675,1052.28 885.708,1073.58 889.741,1094.56 
  893.773,1115.17 897.806,1135.34 901.839,1155.03 905.872,1174.17 909.905,1192.71 913.937,1210.59 917.97,1227.74 922.003,1244.13 926.036,1259.74 930.069,1274.58 
  934.101,1288.68 938.134,1302.05 942.167,1314.72 946.2,1326.71 950.233,1338.02 954.265,1348.69 958.298,1358.73 962.331,1368.16 966.364,1377 970.396,1385.27 
  974.429,1392.98 978.462,1400.16 982.495,1406.83 986.528,1413 990.56,1418.7 994.593,1423.94 998.626,1428.74 1002.66,1433.12 1006.69,1437.1 1010.72,1440.71 
  1014.76,1443.95 1018.79,1446.85 1022.82,1449.42 1026.86,1451.69 1030.89,1453.68 1034.92,1455.4 1038.95,1456.87 1042.99,1458.12 1047.02,1459.16 1051.05,1460 
  1055.09,1460.68 1059.12,1461.21 1063.15,1461.6 1067.18,1461.88 1071.22,1462.07 1075.25,1462.18 1079.28,1462.24 1083.31,1462.26 1087.35,1462.26 1091.38,1462.26 
  1095.41,1462.26 1099.45,1462.26 1103.48,1462.26 1107.51,1462.26 1111.54,1462.26 1115.58,1462.26 1119.61,1462.26 1123.64,1462.26 1127.68,1462.26 1131.71,1462.26 
  1135.74,1462.26 1139.77,1462.26 1143.81,1462.26 1147.84,1462.26 1151.87,1462.26 1155.9,1462.26 1159.94,1462.26 1163.97,1462.26 1168,1462.26 1172.04,1462.26 
  1176.07,1462.26 1180.1,1462.26 1184.13,1462.26 1188.17,1462.26 1192.2,1462.26 1196.23,1462.26 1200.27,1462.26 1204.3,1462.26 1208.33,1462.26 1212.36,1462.26 
  1216.4,1462.26 1220.43,1462.26 1224.46,1462.26 1228.49,1462.26 1232.53,1462.26 1236.56,1462.26 1240.59,1462.26 1244.63,1462.26 1248.66,1462.26 1252.69,1462.26 
  1256.72,1462.26 1260.76,1462.26 1264.79,1462.26 1268.82,1462.26 1272.86,1462.26 1276.89,1462.26 1280.92,1462.26 1284.95,1462.26 1288.99,1462.26 1293.02,1462.26 
  1297.05,1462.26 1301.09,1462.26 1305.12,1462.26 1309.15,1462.26 1313.18,1462.26 1317.22,1462.26 1321.25,1462.26 1325.28,1462.26 1329.31,1462.26 1333.35,1462.26 
  1337.38,1462.26 1341.41,1462.26 1345.45,1462.26 1349.48,1462.26 1353.51,1462.26 1357.54,1462.26 1361.58,1462.26 1365.61,1462.26 1369.64,1462.26 1373.68,1462.26 
  1377.71,1462.26 1381.74,1462.26 1385.77,1462.26 1389.81,1462.26 1393.84,1462.26 1397.87,1462.26 1401.9,1462.26 1405.94,1462.26 1409.97,1462.26 1414,1462.26 
  1418.04,1462.26 1422.07,1462.26 1426.1,1462.26 1430.13,1462.26 1434.17,1462.26 1438.2,1462.26 1442.23,1462.26 1446.27,1462.26 1450.3,1462.26 1454.33,1462.26 
  1458.36,1462.26 1462.4,1462.26 1466.43,1462.26 1470.46,1462.26 1474.5,1462.26 1478.53,1462.26 1482.56,1462.26 1486.59,1462.26 1490.63,1462.26 1494.66,1462.26 
  1498.69,1462.26 1502.72,1462.26 1506.76,1462.26 1510.79,1462.26 1514.82,1462.26 1518.86,1462.26 1522.89,1462.26 1526.92,1462.26 1530.95,1462.26 1534.99,1462.26 
  1539.02,1462.26 1543.05,1462.26 1547.09,1462.26 1551.12,1462.26 1555.15,1462.26 1559.18,1462.26 1563.22,1462.26 1567.25,1462.26 1571.28,1462.26 1575.31,1462.26 
  1579.35,1462.26 1583.38,1462.26 1587.41,1462.26 1591.45,1462.26 1595.48,1462.26 1599.51,1462.26 1603.54,1462.26 1607.58,1462.26 1611.61,1462.26 1615.64,1462.26 
  1619.68,1462.26 1623.71,1462.26 1627.74,1462.26 1631.77,1462.26 1635.81,1462.26 1639.84,1462.26 1643.87,1462.26 1647.91,1462.26 1651.94,1462.26 1655.97,1462.26 
  1660,1462.26 1664.04,1462.26 1668.07,1462.26 1672.1,1462.26 1676.13,1462.26 1680.17,1462.26 1684.2,1462.26 1688.23,1462.26 1692.27,1462.26 1696.3,1462.26 
  1700.33,1462.26 1704.36,1462.26 1708.4,1462.26 1712.43,1462.26 1716.46,1462.26 1720.5,1462.26 1724.53,1462.26 1728.56,1462.26 1732.59,1462.26 1736.63,1462.26 
  1740.66,1462.26 1744.69,1462.26 1748.72,1462.26 1752.76,1462.26 1756.79,1462.26 1760.82,1462.26 1764.86,1462.26 1768.89,1462.26 1772.92,1462.26 1776.95,1462.26 
  1780.99,1462.26 1785.02,1462.26 1789.05,1462.26 1793.09,1462.26 1797.12,1462.26 1801.15,1462.26 1805.18,1462.26 1809.22,1462.26 1813.25,1462.26 1817.28,1462.26 
  1821.31,1462.26 1825.35,1462.26 1829.38,1462.26 1833.41,1462.26 1837.45,1462.26 1841.48,1462.26 1845.51,1462.26 1849.54,1462.26 1853.58,1462.26 1857.61,1462.26 
  1861.64,1462.26 1865.68,1462.26 1869.71,1462.26 1873.74,1462.26 1877.77,1462.26 1881.81,1462.26 1885.84,1462.26 1889.87,1462.26 1893.91,1462.26 1897.94,1462.26 
  1901.97,1462.26 1906,1462.26 1910.04,1462.26 1914.07,1462.26 1918.1,1462.26 1922.13,1462.26 1926.17,1462.26 1930.2,1462.26 1934.23,1462.26 1938.27,1462.26 
  1942.3,1462.26 1946.33,1462.26 1950.36,1462.26 1954.4,1462.26 1958.43,1462.26 1962.46,1462.26 1966.5,1462.26 1970.53,1462.26 1974.56,1462.26 1978.59,1462.26 
  1982.63,1462.26 1986.66,1462.26 1990.69,1462.26 1994.72,1462.26 1998.76,1462.26 2002.79,1462.26 2006.82,1462.26 2010.86,1462.26 2014.89,1462.26 2018.92,1462.26 
  2022.95,1462.26 2026.99,1462.26 2031.02,1462.26 2035.05,1462.26 2039.09,1462.26 2043.12,1462.26 2047.15,1462.26 2051.18,1462.26 2055.22,1462.26 2059.25,1462.26 
  2063.28,1462.26 2067.32,1462.26 2071.35,1462.26 2075.38,1462.26 2079.41,1462.26 2083.45,1462.26 2087.48,1462.26 2091.51,1462.26 2095.54,1462.26 2099.58,1462.26 
  2103.61,1462.26 2107.64,1462.26 2111.68,1462.26 2115.71,1462.26 2119.74,1462.26 2123.77,1462.26 2127.81,1462.26 2131.84,1462.26 2135.87,1462.26 2139.91,1462.26 
  2143.94,1462.26 2147.97,1462.26 2152,1462.26 2156.04,1462.26 2160.07,1462.26 2164.1,1462.26 2168.13,1462.26 2172.17,1462.26 2176.2,1462.26 2180.23,1462.26 
  2184.27,1462.26 2188.3,1462.26 2192.33,1462.26 2196.36,1462.26 2200.4,1462.26 2204.43,1462.26 2208.46,1462.26 2212.5,1462.26 2216.53,1462.26 2220.56,1462.26 
  2224.59,1462.26 2228.63,1462.26 2232.66,1462.26 2236.69,1462.26 2240.73,1462.26 2244.76,1462.26 2248.79,1462.26 2252.82,1462.26 2256.86,1462.26 2260.89,1462.26 
  
  "/>
<polyline clip-path="url(#clip3802)" style="stroke:#ac8d18; stroke-width:4; stroke-opacity:1; fill:none" points="
  248.527,1462.26 252.56,1462.26 256.593,1462.26 260.626,1462.26 264.658,1462.26 268.691,1462.26 272.724,1462.26 276.757,1462.26 280.79,1462.26 284.822,1462.26 
  288.855,1462.26 292.888,1462.26 296.921,1462.26 300.953,1462.26 304.986,1462.26 309.019,1462.26 313.052,1462.26 317.085,1462.26 321.117,1462.26 325.15,1462.26 
  329.183,1462.26 333.216,1462.26 337.249,1462.26 341.281,1462.26 345.314,1462.26 349.347,1462.26 353.38,1462.26 357.413,1462.26 361.445,1462.26 365.478,1462.26 
  369.511,1462.26 373.544,1462.26 377.576,1462.26 381.609,1462.26 385.642,1462.26 389.675,1462.26 393.708,1462.26 397.74,1462.26 401.773,1462.26 405.806,1462.26 
  409.839,1462.26 413.872,1462.26 417.904,1462.26 421.937,1462.26 425.97,1462.26 430.003,1462.26 434.036,1462.25 438.068,1462.24 442.101,1462.23 446.134,1462.2 
  450.167,1462.16 454.199,1462.11 458.232,1462.04 462.265,1461.94 466.298,1461.81 470.331,1461.64 474.363,1461.43 478.396,1461.18 482.429,1460.87 486.462,1460.5 
  490.495,1460.06 494.527,1459.54 498.56,1458.93 502.593,1458.23 506.626,1457.43 510.659,1456.5 514.691,1455.46 518.724,1454.27 522.757,1452.94 526.79,1451.44 
  530.822,1449.78 534.855,1447.93 538.888,1445.87 542.921,1443.61 546.954,1441.12 550.986,1438.39 555.019,1435.4 559.052,1432.14 563.085,1428.59 567.118,1424.74 
  571.15,1420.56 575.183,1416.05 579.216,1411.18 583.249,1405.93 587.282,1400.29 591.314,1394.24 595.347,1387.76 599.38,1380.83 603.413,1373.45 607.445,1365.6 
  611.478,1357.27 615.511,1348.46 619.544,1339.15 623.577,1329.36 627.609,1319.06 631.642,1308.27 635.675,1296.99 639.708,1285.22 643.741,1272.96 647.773,1260.22 
  651.806,1247.01 655.839,1233.34 659.872,1219.23 663.905,1204.69 667.937,1189.73 671.97,1174.38 676.003,1158.65 680.036,1142.56 684.068,1126.15 688.101,1109.43 
  692.134,1092.43 696.167,1075.19 700.2,1057.73 704.232,1040.08 708.265,1022.29 712.298,1004.38 716.331,986.396 720.364,968.38 724.396,950.373 728.429,932.418 
  732.462,914.561 736.495,896.851 740.528,879.335 744.56,862.067 748.593,845.098 752.626,828.484 756.659,812.282 760.691,796.546 764.724,781.329 768.757,766.68 
  772.79,752.648 776.823,739.275 780.855,726.604 784.888,714.673 788.921,703.518 792.954,693.172 796.987,683.666 801.019,675.027 805.052,667.281 809.085,660.449 
  813.118,654.551 817.15,649.604 821.183,645.621 825.216,642.613 829.249,640.59 833.282,639.556 837.314,639.515 841.347,640.466 845.38,642.407 849.413,645.333 
  853.446,649.235 857.478,654.102 861.511,659.922 865.544,666.676 869.577,674.347 873.61,682.913 877.642,692.347 881.675,702.624 885.708,713.713 889.741,725.581 
  893.773,738.192 897.806,751.508 901.839,765.487 905.872,780.085 909.905,795.257 913.937,810.952 917.97,827.117 922.003,843.699 926.036,860.64 930.069,877.886 
  934.101,895.383 938.134,913.079 942.167,930.926 946.2,948.874 950.233,966.879 954.265,984.895 958.298,1002.88 962.331,1020.8 966.364,1038.6 970.396,1056.26 
  974.429,1073.74 978.462,1091 982.495,1108.02 986.528,1124.77 990.56,1141.21 994.593,1157.32 998.626,1173.08 1002.66,1188.47 1006.69,1203.46 1010.72,1218.04 
  1014.76,1232.18 1018.79,1245.89 1022.82,1259.13 1026.86,1271.91 1030.89,1284.21 1034.92,1296.03 1038.95,1307.35 1042.99,1318.18 1047.02,1328.52 1051.05,1338.36 
  1055.09,1347.7 1059.12,1356.55 1063.15,1364.92 1067.18,1372.81 1071.22,1380.23 1075.25,1387.2 1079.28,1393.71 1083.31,1399.8 1087.35,1405.48 1091.38,1410.75 
  1095.41,1415.66 1099.45,1420.2 1103.48,1424.4 1107.51,1428.28 1111.54,1431.86 1115.58,1435.14 1119.61,1438.15 1123.64,1440.9 1127.68,1443.41 1131.71,1445.69 
  1135.74,1447.76 1139.77,1449.63 1143.81,1451.31 1147.84,1452.82 1151.87,1454.17 1155.9,1455.36 1159.94,1456.42 1163.97,1457.35 1168,1458.17 1172.04,1458.88 
  1176.07,1459.49 1180.1,1460.02 1184.13,1460.47 1188.17,1460.84 1192.2,1461.16 1196.23,1461.41 1200.27,1461.62 1204.3,1461.79 1208.33,1461.93 1212.36,1462.03 
  1216.4,1462.1 1220.43,1462.16 1224.46,1462.2 1228.49,1462.23 1232.53,1462.24 1236.56,1462.25 1240.59,1462.26 1244.63,1462.26 1248.66,1462.26 1252.69,1462.26 
  1256.72,1462.26 1260.76,1462.26 1264.79,1462.26 1268.82,1462.26 1272.86,1462.26 1276.89,1462.26 1280.92,1462.26 1284.95,1462.26 1288.99,1462.26 1293.02,1462.26 
  1297.05,1462.26 1301.09,1462.26 1305.12,1462.26 1309.15,1462.26 1313.18,1462.26 1317.22,1462.26 1321.25,1462.26 1325.28,1462.26 1329.31,1462.26 1333.35,1462.26 
  1337.38,1462.26 1341.41,1462.26 1345.45,1462.26 1349.48,1462.26 1353.51,1462.26 1357.54,1462.26 1361.58,1462.26 1365.61,1462.26 1369.64,1462.26 1373.68,1462.26 
  1377.71,1462.26 1381.74,1462.26 1385.77,1462.26 1389.81,1462.26 1393.84,1462.26 1397.87,1462.26 1401.9,1462.26 1405.94,1462.26 1409.97,1462.26 1414,1462.26 
  1418.04,1462.26 1422.07,1462.26 1426.1,1462.26 1430.13,1462.26 1434.17,1462.26 1438.2,1462.26 1442.23,1462.26 1446.27,1462.26 1450.3,1462.26 1454.33,1462.26 
  1458.36,1462.26 1462.4,1462.26 1466.43,1462.26 1470.46,1462.26 1474.5,1462.26 1478.53,1462.26 1482.56,1462.26 1486.59,1462.26 1490.63,1462.26 1494.66,1462.26 
  1498.69,1462.26 1502.72,1462.26 1506.76,1462.26 1510.79,1462.26 1514.82,1462.26 1518.86,1462.26 1522.89,1462.26 1526.92,1462.26 1530.95,1462.26 1534.99,1462.26 
  1539.02,1462.26 1543.05,1462.26 1547.09,1462.26 1551.12,1462.26 1555.15,1462.26 1559.18,1462.26 1563.22,1462.26 1567.25,1462.26 1571.28,1462.26 1575.31,1462.26 
  1579.35,1462.26 1583.38,1462.26 1587.41,1462.26 1591.45,1462.26 1595.48,1462.26 1599.51,1462.26 1603.54,1462.26 1607.58,1462.26 1611.61,1462.26 1615.64,1462.26 
  1619.68,1462.26 1623.71,1462.26 1627.74,1462.26 1631.77,1462.26 1635.81,1462.26 1639.84,1462.26 1643.87,1462.26 1647.91,1462.26 1651.94,1462.26 1655.97,1462.26 
  1660,1462.26 1664.04,1462.26 1668.07,1462.26 1672.1,1462.26 1676.13,1462.26 1680.17,1462.26 1684.2,1462.26 1688.23,1462.26 1692.27,1462.26 1696.3,1462.26 
  1700.33,1462.26 1704.36,1462.26 1708.4,1462.26 1712.43,1462.26 1716.46,1462.26 1720.5,1462.26 1724.53,1462.26 1728.56,1462.26 1732.59,1462.26 1736.63,1462.26 
  1740.66,1462.26 1744.69,1462.26 1748.72,1462.26 1752.76,1462.26 1756.79,1462.26 1760.82,1462.26 1764.86,1462.26 1768.89,1462.26 1772.92,1462.26 1776.95,1462.26 
  1780.99,1462.26 1785.02,1462.26 1789.05,1462.26 1793.09,1462.26 1797.12,1462.26 1801.15,1462.26 1805.18,1462.26 1809.22,1462.26 1813.25,1462.26 1817.28,1462.26 
  1821.31,1462.26 1825.35,1462.26 1829.38,1462.26 1833.41,1462.26 1837.45,1462.26 1841.48,1462.26 1845.51,1462.26 1849.54,1462.26 1853.58,1462.26 1857.61,1462.26 
  1861.64,1462.26 1865.68,1462.26 1869.71,1462.26 1873.74,1462.26 1877.77,1462.26 1881.81,1462.26 1885.84,1462.26 1889.87,1462.26 1893.91,1462.26 1897.94,1462.26 
  1901.97,1462.26 1906,1462.26 1910.04,1462.26 1914.07,1462.26 1918.1,1462.26 1922.13,1462.26 1926.17,1462.26 1930.2,1462.26 1934.23,1462.26 1938.27,1462.26 
  1942.3,1462.26 1946.33,1462.26 1950.36,1462.26 1954.4,1462.26 1958.43,1462.26 1962.46,1462.26 1966.5,1462.26 1970.53,1462.26 1974.56,1462.26 1978.59,1462.26 
  1982.63,1462.26 1986.66,1462.26 1990.69,1462.26 1994.72,1462.26 1998.76,1462.26 2002.79,1462.26 2006.82,1462.26 2010.86,1462.26 2014.89,1462.26 2018.92,1462.26 
  2022.95,1462.26 2026.99,1462.26 2031.02,1462.26 2035.05,1462.26 2039.09,1462.26 2043.12,1462.26 2047.15,1462.26 2051.18,1462.26 2055.22,1462.26 2059.25,1462.26 
  2063.28,1462.26 2067.32,1462.26 2071.35,1462.26 2075.38,1462.26 2079.41,1462.26 2083.45,1462.26 2087.48,1462.26 2091.51,1462.26 2095.54,1462.26 2099.58,1462.26 
  2103.61,1462.26 2107.64,1462.26 2111.68,1462.26 2115.71,1462.26 2119.74,1462.26 2123.77,1462.26 2127.81,1462.26 2131.84,1462.26 2135.87,1462.26 2139.91,1462.26 
  2143.94,1462.26 2147.97,1462.26 2152,1462.26 2156.04,1462.26 2160.07,1462.26 2164.1,1462.26 2168.13,1462.26 2172.17,1462.26 2176.2,1462.26 2180.23,1462.26 
  2184.27,1462.26 2188.3,1462.26 2192.33,1462.26 2196.36,1462.26 2200.4,1462.26 2204.43,1462.26 2208.46,1462.26 2212.5,1462.26 2216.53,1462.26 2220.56,1462.26 
  2224.59,1462.26 2228.63,1462.26 2232.66,1462.26 2236.69,1462.26 2240.73,1462.26 2244.76,1462.26 2248.79,1462.26 2252.82,1462.26 2256.86,1462.26 2260.89,1462.26 
  
  "/>
<polyline clip-path="url(#clip3802)" style="stroke:#00a9ad; stroke-width:4; stroke-opacity:1; fill:none" points="
  248.527,1462.26 252.56,1462.26 256.593,1462.26 260.626,1462.26 264.658,1462.26 268.691,1462.26 272.724,1462.26 276.757,1462.26 280.79,1462.26 284.822,1462.26 
  288.855,1462.26 292.888,1462.26 296.921,1462.26 300.953,1462.26 304.986,1462.26 309.019,1462.26 313.052,1462.26 317.085,1462.26 321.117,1462.26 325.15,1462.26 
  329.183,1462.26 333.216,1462.26 337.249,1462.26 341.281,1462.26 345.314,1462.26 349.347,1462.26 353.38,1462.26 357.413,1462.26 361.445,1462.26 365.478,1462.26 
  369.511,1462.26 373.544,1462.26 377.576,1462.26 381.609,1462.26 385.642,1462.26 389.675,1462.26 393.708,1462.26 397.74,1462.26 401.773,1462.26 405.806,1462.26 
  409.839,1462.26 413.872,1462.26 417.904,1462.26 421.937,1462.26 425.97,1462.26 430.003,1462.26 434.036,1462.26 438.068,1462.26 442.101,1462.26 446.134,1462.26 
  450.167,1462.26 454.199,1462.25 458.232,1462.25 462.265,1462.24 466.298,1462.23 470.331,1462.22 474.363,1462.2 478.396,1462.18 482.429,1462.15 486.462,1462.11 
  490.495,1462.07 494.527,1462.01 498.56,1461.93 502.593,1461.85 506.626,1461.74 510.659,1461.61 514.691,1461.46 518.724,1461.28 522.757,1461.08 526.79,1460.83 
  530.822,1460.55 534.855,1460.23 538.888,1459.86 542.921,1459.44 546.954,1458.96 550.986,1458.42 555.019,1457.81 559.052,1457.13 563.085,1456.36 567.118,1455.51 
  571.15,1454.56 575.183,1453.5 579.216,1452.33 583.249,1451.04 587.282,1449.62 591.314,1448.06 595.347,1446.34 599.38,1444.47 603.413,1442.42 607.445,1440.19 
  611.478,1437.77 615.511,1435.14 619.544,1432.3 623.577,1429.22 627.609,1425.91 631.642,1422.35 635.675,1418.52 639.708,1414.42 643.741,1410.03 647.773,1405.35 
  651.806,1400.37 655.839,1395.07 659.872,1389.45 663.905,1383.5 667.937,1377.2 671.97,1370.56 676.003,1363.56 680.036,1356.21 684.068,1348.48 688.101,1340.39 
  692.134,1331.92 696.167,1323.08 700.2,1313.86 704.232,1304.26 708.265,1294.28 712.298,1283.93 716.331,1273.21 720.364,1262.11 724.396,1250.66 728.429,1238.85 
  732.462,1226.7 736.495,1214.21 740.528,1201.4 744.56,1188.27 748.593,1174.85 752.626,1161.15 756.659,1147.2 760.691,1133 764.724,1118.58 768.757,1103.98 
  772.79,1089.2 776.823,1074.28 780.855,1059.25 784.888,1044.13 788.921,1028.96 792.954,1013.76 796.987,998.577 801.019,983.429 805.052,968.354 809.085,953.387 
  813.118,938.56 817.15,923.908 821.183,909.465 825.216,895.266 829.249,881.345 833.282,867.736 837.314,854.473 841.347,841.589 845.38,829.118 849.413,817.091 
  853.446,805.54 857.478,794.496 861.511,783.989 865.544,774.048 869.577,764.699 873.61,755.97 877.642,747.885 881.675,740.467 885.708,733.739 889.741,727.719 
  893.773,722.428 897.806,717.88 901.839,714.09 905.872,711.069 909.905,708.829 913.937,707.375 917.97,706.713 922.003,706.846 926.036,707.772 930.069,709.488 
  934.101,711.99 938.134,715.268 942.167,719.312 946.2,724.11 950.233,729.646 954.265,735.904 958.298,742.864 962.331,750.507 966.364,758.809 970.396,767.748 
  974.429,777.297 978.462,787.43 982.495,798.119 986.528,809.336 990.56,821.048 994.593,833.227 998.626,845.839 1002.66,858.853 1006.69,872.235 1010.72,885.952 
  1014.76,899.97 1018.79,914.254 1022.82,928.77 1026.86,943.484 1030.89,958.362 1034.92,973.369 1038.95,988.472 1042.99,1003.64 1047.02,1018.83 1051.05,1034.02 
  1055.09,1049.18 1059.12,1064.27 1063.15,1079.27 1067.18,1094.14 1071.22,1108.87 1075.25,1123.41 1079.28,1137.76 1083.31,1151.88 1087.35,1165.75 1091.38,1179.36 
  1095.41,1192.68 1099.45,1205.7 1103.48,1218.41 1107.51,1230.79 1111.54,1242.83 1115.58,1254.52 1119.61,1265.85 1123.64,1276.82 1127.68,1287.42 1131.71,1297.65 
  1135.74,1307.5 1139.77,1316.97 1143.81,1326.07 1147.84,1334.79 1151.87,1343.13 1155.9,1351.1 1159.94,1358.7 1163.97,1365.94 1168,1372.81 1172.04,1379.34 
  1176.07,1385.52 1180.1,1391.36 1184.13,1396.87 1188.17,1402.07 1192.2,1406.95 1196.23,1411.53 1200.27,1415.82 1204.3,1419.82 1208.33,1423.56 1212.36,1427.04 
  1216.4,1430.27 1220.43,1433.27 1224.46,1436.04 1228.49,1438.6 1232.53,1440.96 1236.56,1443.13 1240.59,1445.11 1244.63,1446.93 1248.66,1448.59 1252.69,1450.11 
  1256.72,1451.48 1260.76,1452.73 1264.79,1453.86 1268.82,1454.88 1272.86,1455.8 1276.89,1456.63 1280.92,1457.37 1284.95,1458.03 1288.99,1458.61 1293.02,1459.13 
  1297.05,1459.59 1301.09,1459.99 1305.12,1460.34 1309.15,1460.65 1313.18,1460.92 1317.22,1461.15 1321.25,1461.35 1325.28,1461.51 1329.31,1461.66 1333.35,1461.78 
  1337.38,1461.88 1341.41,1461.96 1345.45,1462.03 1349.48,1462.08 1353.51,1462.13 1357.54,1462.16 1361.58,1462.19 1365.61,1462.21 1369.64,1462.23 1373.68,1462.24 
  1377.71,1462.25 1381.74,1462.25 1385.77,1462.25 1389.81,1462.26 1393.84,1462.26 1397.87,1462.26 1401.9,1462.26 1405.94,1462.26 1409.97,1462.26 1414,1462.26 
  1418.04,1462.26 1422.07,1462.26 1426.1,1462.26 1430.13,1462.26 1434.17,1462.26 1438.2,1462.26 1442.23,1462.26 1446.27,1462.26 1450.3,1462.26 1454.33,1462.26 
  1458.36,1462.26 1462.4,1462.26 1466.43,1462.26 1470.46,1462.26 1474.5,1462.26 1478.53,1462.26 1482.56,1462.26 1486.59,1462.26 1490.63,1462.26 1494.66,1462.26 
  1498.69,1462.26 1502.72,1462.26 1506.76,1462.26 1510.79,1462.26 1514.82,1462.26 1518.86,1462.26 1522.89,1462.26 1526.92,1462.26 1530.95,1462.26 1534.99,1462.26 
  1539.02,1462.26 1543.05,1462.26 1547.09,1462.26 1551.12,1462.26 1555.15,1462.26 1559.18,1462.26 1563.22,1462.26 1567.25,1462.26 1571.28,1462.26 1575.31,1462.26 
  1579.35,1462.26 1583.38,1462.26 1587.41,1462.26 1591.45,1462.26 1595.48,1462.26 1599.51,1462.26 1603.54,1462.26 1607.58,1462.26 1611.61,1462.26 1615.64,1462.26 
  1619.68,1462.26 1623.71,1462.26 1627.74,1462.26 1631.77,1462.26 1635.81,1462.26 1639.84,1462.26 1643.87,1462.26 1647.91,1462.26 1651.94,1462.26 1655.97,1462.26 
  1660,1462.26 1664.04,1462.26 1668.07,1462.26 1672.1,1462.26 1676.13,1462.26 1680.17,1462.26 1684.2,1462.26 1688.23,1462.26 1692.27,1462.26 1696.3,1462.26 
  1700.33,1462.26 1704.36,1462.26 1708.4,1462.26 1712.43,1462.26 1716.46,1462.26 1720.5,1462.26 1724.53,1462.26 1728.56,1462.26 1732.59,1462.26 1736.63,1462.26 
  1740.66,1462.26 1744.69,1462.26 1748.72,1462.26 1752.76,1462.26 1756.79,1462.26 1760.82,1462.26 1764.86,1462.26 1768.89,1462.26 1772.92,1462.26 1776.95,1462.26 
  1780.99,1462.26 1785.02,1462.26 1789.05,1462.26 1793.09,1462.26 1797.12,1462.26 1801.15,1462.26 1805.18,1462.26 1809.22,1462.26 1813.25,1462.26 1817.28,1462.26 
  1821.31,1462.26 1825.35,1462.26 1829.38,1462.26 1833.41,1462.26 1837.45,1462.26 1841.48,1462.26 1845.51,1462.26 1849.54,1462.26 1853.58,1462.26 1857.61,1462.26 
  1861.64,1462.26 1865.68,1462.26 1869.71,1462.26 1873.74,1462.26 1877.77,1462.26 1881.81,1462.26 1885.84,1462.26 1889.87,1462.26 1893.91,1462.26 1897.94,1462.26 
  1901.97,1462.26 1906,1462.26 1910.04,1462.26 1914.07,1462.26 1918.1,1462.26 1922.13,1462.26 1926.17,1462.26 1930.2,1462.26 1934.23,1462.26 1938.27,1462.26 
  1942.3,1462.26 1946.33,1462.26 1950.36,1462.26 1954.4,1462.26 1958.43,1462.26 1962.46,1462.26 1966.5,1462.26 1970.53,1462.26 1974.56,1462.26 1978.59,1462.26 
  1982.63,1462.26 1986.66,1462.26 1990.69,1462.26 1994.72,1462.26 1998.76,1462.26 2002.79,1462.26 2006.82,1462.26 2010.86,1462.26 2014.89,1462.26 2018.92,1462.26 
  2022.95,1462.26 2026.99,1462.26 2031.02,1462.26 2035.05,1462.26 2039.09,1462.26 2043.12,1462.26 2047.15,1462.26 2051.18,1462.26 2055.22,1462.26 2059.25,1462.26 
  2063.28,1462.26 2067.32,1462.26 2071.35,1462.26 2075.38,1462.26 2079.41,1462.26 2083.45,1462.26 2087.48,1462.26 2091.51,1462.26 2095.54,1462.26 2099.58,1462.26 
  2103.61,1462.26 2107.64,1462.26 2111.68,1462.26 2115.71,1462.26 2119.74,1462.26 2123.77,1462.26 2127.81,1462.26 2131.84,1462.26 2135.87,1462.26 2139.91,1462.26 
  2143.94,1462.26 2147.97,1462.26 2152,1462.26 2156.04,1462.26 2160.07,1462.26 2164.1,1462.26 2168.13,1462.26 2172.17,1462.26 2176.2,1462.26 2180.23,1462.26 
  2184.27,1462.26 2188.3,1462.26 2192.33,1462.26 2196.36,1462.26 2200.4,1462.26 2204.43,1462.26 2208.46,1462.26 2212.5,1462.26 2216.53,1462.26 2220.56,1462.26 
  2224.59,1462.26 2228.63,1462.26 2232.66,1462.26 2236.69,1462.26 2240.73,1462.26 2244.76,1462.26 2248.79,1462.26 2252.82,1462.26 2256.86,1462.26 2260.89,1462.26 
  
  "/>
<polyline clip-path="url(#clip3802)" style="stroke:#ed5d92; stroke-width:4; stroke-opacity:1; fill:none" points="
  248.527,1462.26 252.56,1462.26 256.593,1462.26 260.626,1462.26 264.658,1462.26 268.691,1462.26 272.724,1462.26 276.757,1462.26 280.79,1462.26 284.822,1462.26 
  288.855,1462.26 292.888,1462.26 296.921,1462.26 300.953,1462.26 304.986,1462.26 309.019,1462.26 313.052,1462.26 317.085,1462.26 321.117,1462.26 325.15,1462.26 
  329.183,1462.26 333.216,1462.26 337.249,1462.26 341.281,1462.26 345.314,1462.26 349.347,1462.26 353.38,1462.26 357.413,1462.26 361.445,1462.26 365.478,1462.26 
  369.511,1462.26 373.544,1462.26 377.576,1462.26 381.609,1462.26 385.642,1462.26 389.675,1462.26 393.708,1462.26 397.74,1462.26 401.773,1462.26 405.806,1462.26 
  409.839,1462.26 413.872,1462.26 417.904,1462.26 421.937,1462.26 425.97,1462.26 430.003,1462.26 434.036,1462.26 438.068,1462.26 442.101,1462.26 446.134,1462.26 
  450.167,1462.26 454.199,1462.26 458.232,1462.26 462.265,1462.26 466.298,1462.26 470.331,1462.26 474.363,1462.26 478.396,1462.26 482.429,1462.25 486.462,1462.25 
  490.495,1462.25 494.527,1462.24 498.56,1462.23 502.593,1462.23 506.626,1462.21 510.659,1462.2 514.691,1462.18 518.724,1462.16 522.757,1462.14 526.79,1462.1 
  530.822,1462.07 534.855,1462.02 538.888,1461.97 542.921,1461.91 546.954,1461.83 550.986,1461.75 555.019,1461.65 559.052,1461.53 563.085,1461.4 567.118,1461.25 
  571.15,1461.07 575.183,1460.88 579.216,1460.65 583.249,1460.4 587.282,1460.11 591.314,1459.79 595.347,1459.43 599.38,1459.02 603.413,1458.57 607.445,1458.07 
  611.478,1457.51 615.511,1456.89 619.544,1456.2 623.577,1455.44 627.609,1454.61 631.642,1453.69 635.675,1452.69 639.708,1451.59 643.741,1450.39 647.773,1449.08 
  651.806,1447.65 655.839,1446.11 659.872,1444.43 663.905,1442.61 667.937,1440.65 671.97,1438.54 676.003,1436.26 680.036,1433.81 684.068,1431.19 688.101,1428.38 
  692.134,1425.38 696.167,1422.17 700.2,1418.75 704.232,1415.12 708.265,1411.26 712.298,1407.16 716.331,1402.82 720.364,1398.23 724.396,1393.39 728.429,1388.28 
  732.462,1382.9 736.495,1377.25 740.528,1371.31 744.56,1365.09 748.593,1358.58 752.626,1351.77 756.659,1344.66 760.691,1337.26 764.724,1329.54 768.757,1321.53 
  772.79,1313.21 776.823,1304.58 780.855,1295.66 784.888,1286.43 788.921,1276.91 792.954,1267.09 796.987,1256.99 801.019,1246.61 805.052,1235.96 809.085,1225.04 
  813.118,1213.88 817.15,1202.46 821.183,1190.82 825.216,1178.96 829.249,1166.9 833.282,1154.65 837.314,1142.22 841.347,1129.64 845.38,1116.93 849.413,1104.09 
  853.446,1091.16 857.478,1078.14 861.511,1065.08 865.544,1051.97 869.577,1038.86 873.61,1025.76 877.642,1012.69 881.675,999.692 885.708,986.777 889.741,973.975 
  893.773,961.311 897.806,948.812 901.839,936.505 905.872,924.415 909.905,912.569 913.937,900.994 917.97,889.716 922.003,878.76 926.036,868.152 930.069,857.917 
  934.101,848.078 938.134,838.66 942.167,829.686 946.2,821.176 950.233,813.151 954.265,805.632 958.298,798.636 962.331,792.182 966.364,786.284 970.396,780.958 
  974.429,776.218 978.462,772.074 982.495,768.537 986.528,765.616 990.56,763.319 994.593,761.652 998.626,760.617 1002.66,760.219 1006.69,760.458 1010.72,761.334 
  1014.76,762.843 1018.79,764.983 1022.82,767.749 1026.86,771.132 1030.89,775.125 1034.92,779.718 1038.95,784.899 1042.99,790.654 1047.02,796.971 1051.05,803.833 
  1055.09,811.223 1059.12,819.123 1063.15,827.514 1067.18,836.374 1071.22,845.684 1075.25,855.419 1079.28,865.557 1083.31,876.074 1087.35,886.946 1091.38,898.146 
  1095.41,909.649 1099.45,921.43 1103.48,933.461 1107.51,945.716 1111.54,958.17 1115.58,970.795 1119.61,983.565 1123.64,996.454 1127.68,1009.44 1131.71,1022.49 
  1135.74,1035.58 1139.77,1048.69 1143.81,1061.8 1147.84,1074.88 1151.87,1087.91 1155.9,1100.86 1159.94,1113.73 1163.97,1126.48 1168,1139.09 1172.04,1151.56 
  1176.07,1163.85 1180.1,1175.97 1184.13,1187.88 1188.17,1199.58 1192.2,1211.05 1196.23,1222.28 1200.27,1233.26 1204.3,1243.97 1208.33,1254.42 1212.36,1264.59 
  1216.4,1274.48 1220.43,1284.08 1224.46,1293.38 1228.49,1302.38 1232.53,1311.08 1236.56,1319.48 1240.59,1327.57 1244.63,1335.36 1248.66,1342.84 1252.69,1350.02 
  1256.72,1356.91 1260.76,1363.49 1264.79,1369.79 1268.82,1375.79 1272.86,1381.52 1276.89,1386.96 1280.92,1392.14 1284.95,1397.05 1288.99,1401.7 1293.02,1406.1 
  1297.05,1410.25 1301.09,1414.17 1305.12,1417.87 1309.15,1421.34 1313.18,1424.59 1317.22,1427.65 1321.25,1430.51 1325.28,1433.17 1329.31,1435.66 1333.35,1437.98 
  1337.38,1440.14 1341.41,1442.14 1345.45,1443.99 1349.48,1445.7 1353.51,1447.28 1357.54,1448.73 1361.58,1450.07 1365.61,1451.3 1369.64,1452.42 1373.68,1453.45 
  1377.71,1454.39 1381.74,1455.24 1385.77,1456.02 1389.81,1456.72 1393.84,1457.36 1397.87,1457.93 1401.9,1458.45 1405.94,1458.91 1409.97,1459.33 1414,1459.7 
  1418.04,1460.03 1422.07,1460.33 1426.1,1460.59 1430.13,1460.82 1434.17,1461.03 1438.2,1461.21 1442.23,1461.36 1446.27,1461.5 1450.3,1461.62 1454.33,1461.72 
  1458.36,1461.81 1462.4,1461.89 1466.43,1461.95 1470.46,1462.01 1474.5,1462.06 1478.53,1462.1 1482.56,1462.13 1486.59,1462.16 1490.63,1462.18 1494.66,1462.2 
  1498.69,1462.21 1502.72,1462.22 1506.76,1462.23 1510.79,1462.24 1514.82,1462.25 1518.86,1462.25 1522.89,1462.25 1526.92,1462.26 1530.95,1462.26 1534.99,1462.26 
  1539.02,1462.26 1543.05,1462.26 1547.09,1462.26 1551.12,1462.26 1555.15,1462.26 1559.18,1462.26 1563.22,1462.26 1567.25,1462.26 1571.28,1462.26 1575.31,1462.26 
  1579.35,1462.26 1583.38,1462.26 1587.41,1462.26 1591.45,1462.26 1595.48,1462.26 1599.51,1462.26 1603.54,1462.26 1607.58,1462.26 1611.61,1462.26 1615.64,1462.26 
  1619.68,1462.26 1623.71,1462.26 1627.74,1462.26 1631.77,1462.26 1635.81,1462.26 1639.84,1462.26 1643.87,1462.26 1647.91,1462.26 1651.94,1462.26 1655.97,1462.26 
  1660,1462.26 1664.04,1462.26 1668.07,1462.26 1672.1,1462.26 1676.13,1462.26 1680.17,1462.26 1684.2,1462.26 1688.23,1462.26 1692.27,1462.26 1696.3,1462.26 
  1700.33,1462.26 1704.36,1462.26 1708.4,1462.26 1712.43,1462.26 1716.46,1462.26 1720.5,1462.26 1724.53,1462.26 1728.56,1462.26 1732.59,1462.26 1736.63,1462.26 
  1740.66,1462.26 1744.69,1462.26 1748.72,1462.26 1752.76,1462.26 1756.79,1462.26 1760.82,1462.26 1764.86,1462.26 1768.89,1462.26 1772.92,1462.26 1776.95,1462.26 
  1780.99,1462.26 1785.02,1462.26 1789.05,1462.26 1793.09,1462.26 1797.12,1462.26 1801.15,1462.26 1805.18,1462.26 1809.22,1462.26 1813.25,1462.26 1817.28,1462.26 
  1821.31,1462.26 1825.35,1462.26 1829.38,1462.26 1833.41,1462.26 1837.45,1462.26 1841.48,1462.26 1845.51,1462.26 1849.54,1462.26 1853.58,1462.26 1857.61,1462.26 
  1861.64,1462.26 1865.68,1462.26 1869.71,1462.26 1873.74,1462.26 1877.77,1462.26 1881.81,1462.26 1885.84,1462.26 1889.87,1462.26 1893.91,1462.26 1897.94,1462.26 
  1901.97,1462.26 1906,1462.26 1910.04,1462.26 1914.07,1462.26 1918.1,1462.26 1922.13,1462.26 1926.17,1462.26 1930.2,1462.26 1934.23,1462.26 1938.27,1462.26 
  1942.3,1462.26 1946.33,1462.26 1950.36,1462.26 1954.4,1462.26 1958.43,1462.26 1962.46,1462.26 1966.5,1462.26 1970.53,1462.26 1974.56,1462.26 1978.59,1462.26 
  1982.63,1462.26 1986.66,1462.26 1990.69,1462.26 1994.72,1462.26 1998.76,1462.26 2002.79,1462.26 2006.82,1462.26 2010.86,1462.26 2014.89,1462.26 2018.92,1462.26 
  2022.95,1462.26 2026.99,1462.26 2031.02,1462.26 2035.05,1462.26 2039.09,1462.26 2043.12,1462.26 2047.15,1462.26 2051.18,1462.26 2055.22,1462.26 2059.25,1462.26 
  2063.28,1462.26 2067.32,1462.26 2071.35,1462.26 2075.38,1462.26 2079.41,1462.26 2083.45,1462.26 2087.48,1462.26 2091.51,1462.26 2095.54,1462.26 2099.58,1462.26 
  2103.61,1462.26 2107.64,1462.26 2111.68,1462.26 2115.71,1462.26 2119.74,1462.26 2123.77,1462.26 2127.81,1462.26 2131.84,1462.26 2135.87,1462.26 2139.91,1462.26 
  2143.94,1462.26 2147.97,1462.26 2152,1462.26 2156.04,1462.26 2160.07,1462.26 2164.1,1462.26 2168.13,1462.26 2172.17,1462.26 2176.2,1462.26 2180.23,1462.26 
  2184.27,1462.26 2188.3,1462.26 2192.33,1462.26 2196.36,1462.26 2200.4,1462.26 2204.43,1462.26 2208.46,1462.26 2212.5,1462.26 2216.53,1462.26 2220.56,1462.26 
  2224.59,1462.26 2228.63,1462.26 2232.66,1462.26 2236.69,1462.26 2240.73,1462.26 2244.76,1462.26 2248.79,1462.26 2252.82,1462.26 2256.86,1462.26 2260.89,1462.26 
  
  "/>
<polyline clip-path="url(#clip3802)" style="stroke:#c68125; stroke-width:4; stroke-opacity:1; fill:none" points="
  248.527,1462.26 252.56,1462.26 256.593,1462.26 260.626,1462.26 264.658,1462.26 268.691,1462.26 272.724,1462.26 276.757,1462.26 280.79,1462.26 284.822,1462.26 
  288.855,1462.26 292.888,1462.26 296.921,1462.26 300.953,1462.26 304.986,1462.26 309.019,1462.26 313.052,1462.26 317.085,1462.26 321.117,1462.26 325.15,1462.26 
  329.183,1462.26 333.216,1462.26 337.249,1462.26 341.281,1462.26 345.314,1462.26 349.347,1462.26 353.38,1462.26 357.413,1462.26 361.445,1462.26 365.478,1462.26 
  369.511,1462.26 373.544,1462.26 377.576,1462.26 381.609,1462.26 385.642,1462.26 389.675,1462.26 393.708,1462.26 397.74,1462.26 401.773,1462.26 405.806,1462.26 
  409.839,1462.26 413.872,1462.26 417.904,1462.26 421.937,1462.26 425.97,1462.26 430.003,1462.26 434.036,1462.26 438.068,1462.26 442.101,1462.26 446.134,1462.26 
  450.167,1462.26 454.199,1462.26 458.232,1462.26 462.265,1462.26 466.298,1462.26 470.331,1462.26 474.363,1462.26 478.396,1462.26 482.429,1462.26 486.462,1462.26 
  490.495,1462.26 494.527,1462.26 498.56,1462.26 502.593,1462.26 506.626,1462.26 510.659,1462.26 514.691,1462.25 518.724,1462.25 522.757,1462.25 526.79,1462.25 
  530.822,1462.24 534.855,1462.24 538.888,1462.23 542.921,1462.22 546.954,1462.21 550.986,1462.2 555.019,1462.19 559.052,1462.17 563.085,1462.15 567.118,1462.13 
  571.15,1462.1 575.183,1462.07 579.216,1462.04 583.249,1462 587.282,1461.95 591.314,1461.89 595.347,1461.83 599.38,1461.76 603.413,1461.67 607.445,1461.58 
  611.478,1461.47 615.511,1461.35 619.544,1461.21 623.577,1461.06 627.609,1460.88 631.642,1460.69 635.675,1460.47 639.708,1460.23 643.741,1459.96 647.773,1459.66 
  651.806,1459.32 655.839,1458.95 659.872,1458.54 663.905,1458.09 667.937,1457.6 671.97,1457.05 676.003,1456.46 680.036,1455.81 684.068,1455.09 688.101,1454.31 
  692.134,1453.47 696.167,1452.54 700.2,1451.54 704.232,1450.46 708.265,1449.29 712.298,1448.02 716.331,1446.65 720.364,1445.18 724.396,1443.6 728.429,1441.9 
  732.462,1440.08 736.495,1438.13 740.528,1436.04 744.56,1433.81 748.593,1431.43 752.626,1428.9 756.659,1426.21 760.691,1423.36 764.724,1420.32 768.757,1417.11 
  772.79,1413.72 776.823,1410.13 780.855,1406.35 784.888,1402.36 788.921,1398.16 792.954,1393.75 796.987,1389.11 801.019,1384.26 805.052,1379.17 809.085,1373.85 
  813.118,1368.3 817.15,1362.5 821.183,1356.46 825.216,1350.18 829.249,1343.65 833.282,1336.87 837.314,1329.84 841.347,1322.56 845.38,1315.02 849.413,1307.24 
  853.446,1299.22 857.478,1290.95 861.511,1282.43 865.544,1273.68 869.577,1264.7 873.61,1255.48 877.642,1246.05 881.675,1236.4 885.708,1226.54 889.741,1216.48 
  893.773,1206.23 897.806,1195.8 901.839,1185.21 905.872,1174.45 909.905,1163.55 913.937,1152.51 917.97,1141.36 922.003,1130.1 926.036,1118.76 930.069,1107.34 
  934.101,1095.86 938.134,1084.34 942.167,1072.81 946.2,1061.27 950.233,1049.74 954.265,1038.25 958.298,1026.81 962.331,1015.45 966.364,1004.18 970.396,993.021 
  974.429,982 978.462,971.133 982.495,960.443 986.528,949.948 990.56,939.671 994.593,929.63 998.626,919.847 1002.66,910.341 1006.69,901.131 1010.72,892.237 
  1014.76,883.677 1018.79,875.469 1022.82,867.631 1026.86,860.18 1030.89,853.132 1034.92,846.502 1038.95,840.305 1042.99,834.555 1047.02,829.264 1051.05,824.444 
  1055.09,820.107 1059.12,816.261 1063.15,812.916 1067.18,810.08 1071.22,807.758 1075.25,805.957 1079.28,804.68 1083.31,803.93 1087.35,803.71 1091.38,804.018 
  1095.41,804.856 1099.45,806.221 1103.48,808.109 1107.51,810.517 1111.54,813.439 1115.58,816.867 1119.61,820.796 1123.64,825.214 1127.68,830.113 1131.71,835.482 
  1135.74,841.307 1139.77,847.578 1143.81,854.278 1147.84,861.395 1151.87,868.911 1155.9,876.812 1159.94,885.079 1163.97,893.696 1168,902.644 1172.04,911.905 
  1176.07,921.459 1180.1,931.286 1184.13,941.368 1188.17,951.683 1192.2,962.211 1196.23,972.933 1200.27,983.826 1204.3,994.871 1208.33,1006.05 1212.36,1017.34 
  1216.4,1028.71 1220.43,1040.16 1224.46,1051.66 1228.49,1063.19 1232.53,1074.73 1236.56,1086.27 1240.59,1097.78 1244.63,1109.24 1248.66,1120.65 1252.69,1131.99 
  1256.72,1143.23 1260.76,1154.36 1264.79,1165.37 1268.82,1176.25 1272.86,1186.98 1276.89,1197.55 1280.92,1207.95 1284.95,1218.17 1288.99,1228.2 1293.02,1238.02 
  1297.05,1247.64 1301.09,1257.04 1305.12,1266.21 1309.15,1275.16 1313.18,1283.87 1317.22,1292.34 1321.25,1300.57 1325.28,1308.56 1329.31,1316.3 1333.35,1323.79 
  1337.38,1331.03 1341.41,1338.01 1345.45,1344.75 1349.48,1351.24 1353.51,1357.49 1357.54,1363.49 1361.58,1369.24 1365.61,1374.76 1369.64,1380.04 1373.68,1385.08 
  1377.71,1389.9 1381.74,1394.5 1385.77,1398.87 1389.81,1403.04 1393.84,1406.99 1397.87,1410.74 1401.9,1414.3 1405.94,1417.66 1409.97,1420.84 1414,1423.84 
  1418.04,1426.67 1422.07,1429.34 1426.1,1431.84 1430.13,1434.19 1434.17,1436.4 1438.2,1438.46 1442.23,1440.39 1446.27,1442.19 1450.3,1443.87 1454.33,1445.44 
  1458.36,1446.89 1462.4,1448.24 1466.43,1449.49 1470.46,1450.65 1474.5,1451.72 1478.53,1452.7 1482.56,1453.61 1486.59,1454.45 1490.63,1455.22 1494.66,1455.92 
  1498.69,1456.56 1502.72,1457.15 1506.76,1457.68 1510.79,1458.17 1514.82,1458.61 1518.86,1459.02 1522.89,1459.38 1526.92,1459.71 1530.95,1460 1534.99,1460.27 
  1539.02,1460.51 1543.05,1460.72 1547.09,1460.91 1551.12,1461.08 1555.15,1461.24 1559.18,1461.37 1563.22,1461.49 1567.25,1461.59 1571.28,1461.69 1575.31,1461.77 
  1579.35,1461.84 1583.38,1461.9 1587.41,1461.96 1591.45,1462 1595.48,1462.04 1599.51,1462.08 1603.54,1462.11 1607.58,1462.13 1611.61,1462.16 1615.64,1462.17 
  1619.68,1462.19 1623.71,1462.2 1627.74,1462.21 1631.77,1462.22 1635.81,1462.23 1639.84,1462.24 1643.87,1462.24 1647.91,1462.25 1651.94,1462.25 1655.97,1462.25 
  1660,1462.25 1664.04,1462.26 1668.07,1462.26 1672.1,1462.26 1676.13,1462.26 1680.17,1462.26 1684.2,1462.26 1688.23,1462.26 1692.27,1462.26 1696.3,1462.26 
  1700.33,1462.26 1704.36,1462.26 1708.4,1462.26 1712.43,1462.26 1716.46,1462.26 1720.5,1462.26 1724.53,1462.26 1728.56,1462.26 1732.59,1462.26 1736.63,1462.26 
  1740.66,1462.26 1744.69,1462.26 1748.72,1462.26 1752.76,1462.26 1756.79,1462.26 1760.82,1462.26 1764.86,1462.26 1768.89,1462.26 1772.92,1462.26 1776.95,1462.26 
  1780.99,1462.26 1785.02,1462.26 1789.05,1462.26 1793.09,1462.26 1797.12,1462.26 1801.15,1462.26 1805.18,1462.26 1809.22,1462.26 1813.25,1462.26 1817.28,1462.26 
  1821.31,1462.26 1825.35,1462.26 1829.38,1462.26 1833.41,1462.26 1837.45,1462.26 1841.48,1462.26 1845.51,1462.26 1849.54,1462.26 1853.58,1462.26 1857.61,1462.26 
  1861.64,1462.26 1865.68,1462.26 1869.71,1462.26 1873.74,1462.26 1877.77,1462.26 1881.81,1462.26 1885.84,1462.26 1889.87,1462.26 1893.91,1462.26 1897.94,1462.26 
  1901.97,1462.26 1906,1462.26 1910.04,1462.26 1914.07,1462.26 1918.1,1462.26 1922.13,1462.26 1926.17,1462.26 1930.2,1462.26 1934.23,1462.26 1938.27,1462.26 
  1942.3,1462.26 1946.33,1462.26 1950.36,1462.26 1954.4,1462.26 1958.43,1462.26 1962.46,1462.26 1966.5,1462.26 1970.53,1462.26 1974.56,1462.26 1978.59,1462.26 
  1982.63,1462.26 1986.66,1462.26 1990.69,1462.26 1994.72,1462.26 1998.76,1462.26 2002.79,1462.26 2006.82,1462.26 2010.86,1462.26 2014.89,1462.26 2018.92,1462.26 
  2022.95,1462.26 2026.99,1462.26 2031.02,1462.26 2035.05,1462.26 2039.09,1462.26 2043.12,1462.26 2047.15,1462.26 2051.18,1462.26 2055.22,1462.26 2059.25,1462.26 
  2063.28,1462.26 2067.32,1462.26 2071.35,1462.26 2075.38,1462.26 2079.41,1462.26 2083.45,1462.26 2087.48,1462.26 2091.51,1462.26 2095.54,1462.26 2099.58,1462.26 
  2103.61,1462.26 2107.64,1462.26 2111.68,1462.26 2115.71,1462.26 2119.74,1462.26 2123.77,1462.26 2127.81,1462.26 2131.84,1462.26 2135.87,1462.26 2139.91,1462.26 
  2143.94,1462.26 2147.97,1462.26 2152,1462.26 2156.04,1462.26 2160.07,1462.26 2164.1,1462.26 2168.13,1462.26 2172.17,1462.26 2176.2,1462.26 2180.23,1462.26 
  2184.27,1462.26 2188.3,1462.26 2192.33,1462.26 2196.36,1462.26 2200.4,1462.26 2204.43,1462.26 2208.46,1462.26 2212.5,1462.26 2216.53,1462.26 2220.56,1462.26 
  2224.59,1462.26 2228.63,1462.26 2232.66,1462.26 2236.69,1462.26 2240.73,1462.26 2244.76,1462.26 2248.79,1462.26 2252.82,1462.26 2256.86,1462.26 2260.89,1462.26 
  
  "/>
<polyline clip-path="url(#clip3802)" style="stroke:#00a98d; stroke-width:4; stroke-opacity:1; fill:none" points="
  248.527,1462.26 252.56,1462.26 256.593,1462.26 260.626,1462.26 264.658,1462.26 268.691,1462.26 272.724,1462.26 276.757,1462.26 280.79,1462.26 284.822,1462.26 
  288.855,1462.26 292.888,1462.26 296.921,1462.26 300.953,1462.26 304.986,1462.26 309.019,1462.26 313.052,1462.26 317.085,1462.26 321.117,1462.26 325.15,1462.26 
  329.183,1462.26 333.216,1462.26 337.249,1462.26 341.281,1462.26 345.314,1462.26 349.347,1462.26 353.38,1462.26 357.413,1462.26 361.445,1462.26 365.478,1462.26 
  369.511,1462.26 373.544,1462.26 377.576,1462.26 381.609,1462.26 385.642,1462.26 389.675,1462.26 393.708,1462.26 397.74,1462.26 401.773,1462.26 405.806,1462.26 
  409.839,1462.26 413.872,1462.26 417.904,1462.26 421.937,1462.26 425.97,1462.26 430.003,1462.26 434.036,1462.26 438.068,1462.26 442.101,1462.26 446.134,1462.26 
  450.167,1462.26 454.199,1462.26 458.232,1462.26 462.265,1462.26 466.298,1462.26 470.331,1462.26 474.363,1462.26 478.396,1462.26 482.429,1462.26 486.462,1462.26 
  490.495,1462.26 494.527,1462.26 498.56,1462.26 502.593,1462.26 506.626,1462.26 510.659,1462.26 514.691,1462.26 518.724,1462.26 522.757,1462.26 526.79,1462.26 
  530.822,1462.26 534.855,1462.26 538.888,1462.26 542.921,1462.26 546.954,1462.26 550.986,1462.25 555.019,1462.25 559.052,1462.25 563.085,1462.25 567.118,1462.25 
  571.15,1462.24 575.183,1462.24 579.216,1462.23 583.249,1462.23 587.282,1462.22 591.314,1462.21 595.347,1462.2 599.38,1462.19 603.413,1462.18 607.445,1462.16 
  611.478,1462.15 615.511,1462.13 619.544,1462.1 623.577,1462.07 627.609,1462.04 631.642,1462.01 635.675,1461.97 639.708,1461.92 643.741,1461.87 647.773,1461.81 
  651.806,1461.74 655.839,1461.67 659.872,1461.58 663.905,1461.49 667.937,1461.38 671.97,1461.27 676.003,1461.13 680.036,1460.99 684.068,1460.82 688.101,1460.64 
  692.134,1460.44 696.167,1460.22 700.2,1459.97 704.232,1459.7 708.265,1459.41 712.298,1459.08 716.331,1458.72 720.364,1458.33 724.396,1457.9 728.429,1457.44 
  732.462,1456.93 736.495,1456.37 740.528,1455.77 744.56,1455.12 748.593,1454.41 752.626,1453.65 756.659,1452.82 760.691,1451.93 764.724,1450.97 768.757,1449.93 
  772.79,1448.82 776.823,1447.63 780.855,1446.35 784.888,1444.98 788.921,1443.51 792.954,1441.95 796.987,1440.28 801.019,1438.5 805.052,1436.6 809.085,1434.59 
  813.118,1432.45 817.15,1430.18 821.183,1427.78 825.216,1425.24 829.249,1422.56 833.282,1419.72 837.314,1416.74 841.347,1413.59 845.38,1410.28 849.413,1406.8 
  853.446,1403.14 857.478,1399.31 861.511,1395.3 865.544,1391.1 869.577,1386.72 873.61,1382.14 877.642,1377.36 881.675,1372.39 885.708,1367.21 889.741,1361.83 
  893.773,1356.24 897.806,1350.44 901.839,1344.44 905.872,1338.22 909.905,1331.8 913.937,1325.16 917.97,1318.32 922.003,1311.26 926.036,1304 930.069,1296.53 
  934.101,1288.86 938.134,1280.99 942.167,1272.92 946.2,1264.67 950.233,1256.22 954.265,1247.59 958.298,1238.79 962.331,1229.82 966.364,1220.69 970.396,1211.41 
  974.429,1201.98 978.462,1192.41 982.495,1182.72 986.528,1172.92 990.56,1163 994.593,1153 998.626,1142.91 1002.66,1132.75 1006.69,1122.54 1010.72,1112.28 
  1014.76,1102 1018.79,1091.7 1022.82,1081.4 1026.86,1071.11 1030.89,1060.85 1034.92,1050.64 1038.95,1040.49 1042.99,1030.42 1047.02,1020.44 1051.05,1010.57 
  1055.09,1000.83 1059.12,991.227 1063.15,981.787 1067.18,972.523 1071.22,963.452 1075.25,954.589 1079.28,945.952 1083.31,937.555 1087.35,929.414 1091.38,921.545 
  1095.41,913.963 1099.45,906.681 1103.48,899.715 1107.51,893.076 1111.54,886.78 1115.58,880.837 1119.61,875.26 1123.64,870.06 1127.68,865.247 1131.71,860.831 
  1135.74,856.821 1139.77,853.224 1143.81,850.049 1147.84,847.302 1151.87,844.988 1155.9,843.113 1159.94,841.679 1163.97,840.691 1168,840.149 1172.04,840.056 
  1176.07,840.411 1180.1,841.213 1184.13,842.462 1188.17,844.153 1192.2,846.285 1196.23,848.852 1200.27,851.85 1204.3,855.271 1208.33,859.11 1212.36,863.358 
  1216.4,868.007 1220.43,873.047 1224.46,878.468 1228.49,884.26 1232.53,890.411 1236.56,896.908 1240.59,903.739 1244.63,910.891 1248.66,918.35 1252.69,926.102 
  1256.72,934.131 1260.76,942.423 1264.79,950.962 1268.82,959.733 1272.86,968.719 1276.89,977.905 1280.92,987.273 1284.95,996.808 1288.99,1006.49 1293.02,1016.31 
  1297.05,1026.25 1301.09,1036.28 1305.12,1046.4 1309.15,1056.59 1313.18,1066.83 1317.22,1077.11 1321.25,1087.4 1325.28,1097.71 1329.31,1108 1333.35,1118.27 
  1337.38,1128.5 1341.41,1138.69 1345.45,1148.8 1349.48,1158.85 1353.51,1168.8 1357.54,1178.65 1361.58,1188.39 1365.61,1198.01 1369.64,1207.5 1373.68,1216.84 
  1377.71,1226.04 1381.74,1235.08 1385.77,1243.95 1389.81,1252.65 1393.84,1261.17 1397.87,1269.51 1401.9,1277.65 1405.94,1285.6 1409.97,1293.36 1414,1300.91 
  1418.04,1308.26 1422.07,1315.4 1426.1,1322.34 1430.13,1329.06 1434.17,1335.57 1438.2,1341.88 1442.23,1347.97 1446.27,1353.85 1450.3,1359.52 1454.33,1364.99 
  1458.36,1370.25 1462.4,1375.31 1466.43,1380.17 1470.46,1384.83 1474.5,1389.3 1478.53,1393.58 1482.56,1397.66 1486.59,1401.57 1490.63,1405.3 1494.66,1408.85 
  1498.69,1412.23 1502.72,1415.44 1506.76,1418.5 1510.79,1421.4 1514.82,1424.14 1518.86,1426.74 1522.89,1429.2 1526.92,1431.52 1530.95,1433.71 1534.99,1435.78 
  1539.02,1437.72 1543.05,1439.55 1547.09,1441.26 1551.12,1442.87 1555.15,1444.38 1559.18,1445.79 1563.22,1447.1 1567.25,1448.33 1571.28,1449.48 1575.31,1450.55 
  1579.35,1451.54 1583.38,1452.46 1587.41,1453.31 1591.45,1454.1 1595.48,1454.83 1599.51,1455.51 1603.54,1456.13 1607.58,1456.7 1611.61,1457.23 1615.64,1457.71 
  1619.68,1458.16 1623.71,1458.56 1627.74,1458.94 1631.77,1459.27 1635.81,1459.58 1639.84,1459.86 1643.87,1460.12 1647.91,1460.35 1651.94,1460.56 1655.97,1460.75 
  1660,1460.92 1664.04,1461.07 1668.07,1461.21 1672.1,1461.34 1676.13,1461.45 1680.17,1461.55 1684.2,1461.64 1688.23,1461.71 1692.27,1461.78 1696.3,1461.85 
  1700.33,1461.9 1704.36,1461.95 1708.4,1461.99 1712.43,1462.03 1716.46,1462.06 1720.5,1462.09 1724.53,1462.12 1728.56,1462.14 1732.59,1462.16 1736.63,1462.17 
  1740.66,1462.19 1744.69,1462.2 1748.72,1462.21 1752.76,1462.22 1756.79,1462.22 1760.82,1462.23 1764.86,1462.24 1768.89,1462.24 1772.92,1462.24 1776.95,1462.25 
  1780.99,1462.25 1785.02,1462.25 1789.05,1462.25 1793.09,1462.26 1797.12,1462.26 1801.15,1462.26 1805.18,1462.26 1809.22,1462.26 1813.25,1462.26 1817.28,1462.26 
  1821.31,1462.26 1825.35,1462.26 1829.38,1462.26 1833.41,1462.26 1837.45,1462.26 1841.48,1462.26 1845.51,1462.26 1849.54,1462.26 1853.58,1462.26 1857.61,1462.26 
  1861.64,1462.26 1865.68,1462.26 1869.71,1462.26 1873.74,1462.26 1877.77,1462.26 1881.81,1462.26 1885.84,1462.26 1889.87,1462.26 1893.91,1462.26 1897.94,1462.26 
  1901.97,1462.26 1906,1462.26 1910.04,1462.26 1914.07,1462.26 1918.1,1462.26 1922.13,1462.26 1926.17,1462.26 1930.2,1462.26 1934.23,1462.26 1938.27,1462.26 
  1942.3,1462.26 1946.33,1462.26 1950.36,1462.26 1954.4,1462.26 1958.43,1462.26 1962.46,1462.26 1966.5,1462.26 1970.53,1462.26 1974.56,1462.26 1978.59,1462.26 
  1982.63,1462.26 1986.66,1462.26 1990.69,1462.26 1994.72,1462.26 1998.76,1462.26 2002.79,1462.26 2006.82,1462.26 2010.86,1462.26 2014.89,1462.26 2018.92,1462.26 
  2022.95,1462.26 2026.99,1462.26 2031.02,1462.26 2035.05,1462.26 2039.09,1462.26 2043.12,1462.26 2047.15,1462.26 2051.18,1462.26 2055.22,1462.26 2059.25,1462.26 
  2063.28,1462.26 2067.32,1462.26 2071.35,1462.26 2075.38,1462.26 2079.41,1462.26 2083.45,1462.26 2087.48,1462.26 2091.51,1462.26 2095.54,1462.26 2099.58,1462.26 
  2103.61,1462.26 2107.64,1462.26 2111.68,1462.26 2115.71,1462.26 2119.74,1462.26 2123.77,1462.26 2127.81,1462.26 2131.84,1462.26 2135.87,1462.26 2139.91,1462.26 
  2143.94,1462.26 2147.97,1462.26 2152,1462.26 2156.04,1462.26 2160.07,1462.26 2164.1,1462.26 2168.13,1462.26 2172.17,1462.26 2176.2,1462.26 2180.23,1462.26 
  2184.27,1462.26 2188.3,1462.26 2192.33,1462.26 2196.36,1462.26 2200.4,1462.26 2204.43,1462.26 2208.46,1462.26 2212.5,1462.26 2216.53,1462.26 2220.56,1462.26 
  2224.59,1462.26 2228.63,1462.26 2232.66,1462.26 2236.69,1462.26 2240.73,1462.26 2244.76,1462.26 2248.79,1462.26 2252.82,1462.26 2256.86,1462.26 2260.89,1462.26 
  
  "/>
<polyline clip-path="url(#clip3802)" style="stroke:#8e971d; stroke-width:4; stroke-opacity:1; fill:none" points="
  248.527,1462.26 252.56,1462.26 256.593,1462.26 260.626,1462.26 264.658,1462.26 268.691,1462.26 272.724,1462.26 276.757,1462.26 280.79,1462.26 284.822,1462.26 
  288.855,1462.26 292.888,1462.26 296.921,1462.26 300.953,1462.26 304.986,1462.26 309.019,1462.26 313.052,1462.26 317.085,1462.26 321.117,1462.26 325.15,1462.26 
  329.183,1462.26 333.216,1462.26 337.249,1462.26 341.281,1462.26 345.314,1462.26 349.347,1462.26 353.38,1462.26 357.413,1462.26 361.445,1462.26 365.478,1462.26 
  369.511,1462.26 373.544,1462.26 377.576,1462.26 381.609,1462.26 385.642,1462.26 389.675,1462.26 393.708,1462.26 397.74,1462.26 401.773,1462.26 405.806,1462.26 
  409.839,1462.26 413.872,1462.26 417.904,1462.26 421.937,1462.26 425.97,1462.26 430.003,1462.26 434.036,1462.26 438.068,1462.26 442.101,1462.26 446.134,1462.26 
  450.167,1462.26 454.199,1462.26 458.232,1462.26 462.265,1462.26 466.298,1462.26 470.331,1462.26 474.363,1462.26 478.396,1462.26 482.429,1462.26 486.462,1462.26 
  490.495,1462.26 494.527,1462.26 498.56,1462.26 502.593,1462.26 506.626,1462.26 510.659,1462.26 514.691,1462.26 518.724,1462.26 522.757,1462.26 526.79,1462.26 
  530.822,1462.26 534.855,1462.26 538.888,1462.26 542.921,1462.26 546.954,1462.26 550.986,1462.26 555.019,1462.26 559.052,1462.26 563.085,1462.26 567.118,1462.26 
  571.15,1462.26 575.183,1462.26 579.216,1462.26 583.249,1462.26 587.282,1462.26 591.314,1462.26 595.347,1462.25 599.38,1462.25 603.413,1462.25 607.445,1462.25 
  611.478,1462.25 615.511,1462.24 619.544,1462.24 623.577,1462.24 627.609,1462.23 631.642,1462.22 635.675,1462.22 639.708,1462.21 643.741,1462.2 647.773,1462.19 
  651.806,1462.18 655.839,1462.17 659.872,1462.15 663.905,1462.13 667.937,1462.11 671.97,1462.09 676.003,1462.07 680.036,1462.04 684.068,1462 688.101,1461.97 
  692.134,1461.93 696.167,1461.88 700.2,1461.83 704.232,1461.77 708.265,1461.71 712.298,1461.63 716.331,1461.55 720.364,1461.46 724.396,1461.36 728.429,1461.25 
  732.462,1461.13 736.495,1461 740.528,1460.85 744.56,1460.69 748.593,1460.51 752.626,1460.31 756.659,1460.09 760.691,1459.86 764.724,1459.6 768.757,1459.32 
  772.79,1459.01 776.823,1458.67 780.855,1458.31 784.888,1457.91 788.921,1457.48 792.954,1457.02 796.987,1456.52 801.019,1455.97 805.052,1455.38 809.085,1454.75 
  813.118,1454.07 817.15,1453.34 821.183,1452.55 825.216,1451.7 829.249,1450.8 833.282,1449.83 837.314,1448.79 841.347,1447.68 845.38,1446.5 849.413,1445.24 
  853.446,1443.89 857.478,1442.46 861.511,1440.95 865.544,1439.33 869.577,1437.63 873.61,1435.82 877.642,1433.9 881.675,1431.87 885.708,1429.74 889.741,1427.48 
  893.773,1425.1 897.806,1422.6 901.839,1419.96 905.872,1417.2 909.905,1414.29 913.937,1411.25 917.97,1408.05 922.003,1404.71 926.036,1401.22 930.069,1397.57 
  934.101,1393.76 938.134,1389.79 942.167,1385.66 946.2,1381.36 950.233,1376.88 954.265,1372.24 958.298,1367.42 962.331,1362.42 966.364,1357.25 970.396,1351.9 
  974.429,1346.36 978.462,1340.65 982.495,1334.76 986.528,1328.69 990.56,1322.43 994.593,1316 998.626,1309.39 1002.66,1302.61 1006.69,1295.65 1010.72,1288.52 
  1014.76,1281.22 1018.79,1273.76 1022.82,1266.14 1026.86,1258.37 1030.89,1250.44 1034.92,1242.37 1038.95,1234.15 1042.99,1225.81 1047.02,1217.33 1051.05,1208.74 
  1055.09,1200.04 1059.12,1191.23 1063.15,1182.33 1067.18,1173.34 1071.22,1164.27 1075.25,1155.14 1079.28,1145.95 1083.31,1136.72 1087.35,1127.45 1091.38,1118.16 
  1095.41,1108.85 1099.45,1099.55 1103.48,1090.26 1107.51,1080.99 1111.54,1071.77 1115.58,1062.59 1119.61,1053.48 1123.64,1044.44 1127.68,1035.5 1131.71,1026.66 
  1135.74,1017.94 1139.77,1009.35 1143.81,1000.91 1147.84,992.619 1151.87,984.505 1155.9,976.576 1159.94,968.845 1163.97,961.325 1168,954.03 1172.04,946.971 
  1176.07,940.161 1180.1,933.611 1184.13,927.333 1188.17,921.338 1192.2,915.637 1196.23,910.24 1200.27,905.156 1204.3,900.396 1208.33,895.967 1212.36,891.877 
  1216.4,888.135 1220.43,884.746 1224.46,881.718 1228.49,879.056 1232.53,876.765 1236.56,874.85 1240.59,873.313 1244.63,872.157 1248.66,871.386 1252.69,871 
  1256.72,871 1260.76,871.386 1264.79,872.157 1268.82,873.313 1272.86,874.85 1276.89,876.765 1280.92,879.056 1284.95,881.718 1288.99,884.746 1293.02,888.135 
  1297.05,891.877 1301.09,895.967 1305.12,900.396 1309.15,905.156 1313.18,910.24 1317.22,915.637 1321.25,921.338 1325.28,927.333 1329.31,933.611 1333.35,940.161 
  1337.38,946.971 1341.41,954.03 1345.45,961.325 1349.48,968.845 1353.51,976.576 1357.54,984.505 1361.58,992.619 1365.61,1000.91 1369.64,1009.35 1373.68,1017.94 
  1377.71,1026.66 1381.74,1035.5 1385.77,1044.44 1389.81,1053.48 1393.84,1062.59 1397.87,1071.77 1401.9,1080.99 1405.94,1090.26 1409.97,1099.55 1414,1108.85 
  1418.04,1118.16 1422.07,1127.45 1426.1,1136.72 1430.13,1145.95 1434.17,1155.14 1438.2,1164.27 1442.23,1173.34 1446.27,1182.33 1450.3,1191.23 1454.33,1200.04 
  1458.36,1208.74 1462.4,1217.33 1466.43,1225.81 1470.46,1234.15 1474.5,1242.37 1478.53,1250.44 1482.56,1258.37 1486.59,1266.14 1490.63,1273.76 1494.66,1281.22 
  1498.69,1288.52 1502.72,1295.65 1506.76,1302.61 1510.79,1309.39 1514.82,1316 1518.86,1322.43 1522.89,1328.69 1526.92,1334.76 1530.95,1340.65 1534.99,1346.36 
  1539.02,1351.9 1543.05,1357.25 1547.09,1362.42 1551.12,1367.42 1555.15,1372.24 1559.18,1376.88 1563.22,1381.36 1567.25,1385.66 1571.28,1389.79 1575.31,1393.76 
  1579.35,1397.57 1583.38,1401.22 1587.41,1404.71 1591.45,1408.05 1595.48,1411.25 1599.51,1414.29 1603.54,1417.2 1607.58,1419.96 1611.61,1422.6 1615.64,1425.1 
  1619.68,1427.48 1623.71,1429.74 1627.74,1431.87 1631.77,1433.9 1635.81,1435.82 1639.84,1437.63 1643.87,1439.33 1647.91,1440.95 1651.94,1442.46 1655.97,1443.89 
  1660,1445.24 1664.04,1446.5 1668.07,1447.68 1672.1,1448.79 1676.13,1449.83 1680.17,1450.8 1684.2,1451.7 1688.23,1452.55 1692.27,1453.34 1696.3,1454.07 
  1700.33,1454.75 1704.36,1455.38 1708.4,1455.97 1712.43,1456.52 1716.46,1457.02 1720.5,1457.48 1724.53,1457.91 1728.56,1458.31 1732.59,1458.67 1736.63,1459.01 
  1740.66,1459.32 1744.69,1459.6 1748.72,1459.86 1752.76,1460.09 1756.79,1460.31 1760.82,1460.51 1764.86,1460.69 1768.89,1460.85 1772.92,1461 1776.95,1461.13 
  1780.99,1461.25 1785.02,1461.36 1789.05,1461.46 1793.09,1461.55 1797.12,1461.63 1801.15,1461.71 1805.18,1461.77 1809.22,1461.83 1813.25,1461.88 1817.28,1461.93 
  1821.31,1461.97 1825.35,1462 1829.38,1462.04 1833.41,1462.07 1837.45,1462.09 1841.48,1462.11 1845.51,1462.13 1849.54,1462.15 1853.58,1462.17 1857.61,1462.18 
  1861.64,1462.19 1865.68,1462.2 1869.71,1462.21 1873.74,1462.22 1877.77,1462.22 1881.81,1462.23 1885.84,1462.24 1889.87,1462.24 1893.91,1462.24 1897.94,1462.25 
  1901.97,1462.25 1906,1462.25 1910.04,1462.25 1914.07,1462.25 1918.1,1462.26 1922.13,1462.26 1926.17,1462.26 1930.2,1462.26 1934.23,1462.26 1938.27,1462.26 
  1942.3,1462.26 1946.33,1462.26 1950.36,1462.26 1954.4,1462.26 1958.43,1462.26 1962.46,1462.26 1966.5,1462.26 1970.53,1462.26 1974.56,1462.26 1978.59,1462.26 
  1982.63,1462.26 1986.66,1462.26 1990.69,1462.26 1994.72,1462.26 1998.76,1462.26 2002.79,1462.26 2006.82,1462.26 2010.86,1462.26 2014.89,1462.26 2018.92,1462.26 
  2022.95,1462.26 2026.99,1462.26 2031.02,1462.26 2035.05,1462.26 2039.09,1462.26 2043.12,1462.26 2047.15,1462.26 2051.18,1462.26 2055.22,1462.26 2059.25,1462.26 
  2063.28,1462.26 2067.32,1462.26 2071.35,1462.26 2075.38,1462.26 2079.41,1462.26 2083.45,1462.26 2087.48,1462.26 2091.51,1462.26 2095.54,1462.26 2099.58,1462.26 
  2103.61,1462.26 2107.64,1462.26 2111.68,1462.26 2115.71,1462.26 2119.74,1462.26 2123.77,1462.26 2127.81,1462.26 2131.84,1462.26 2135.87,1462.26 2139.91,1462.26 
  2143.94,1462.26 2147.97,1462.26 2152,1462.26 2156.04,1462.26 2160.07,1462.26 2164.1,1462.26 2168.13,1462.26 2172.17,1462.26 2176.2,1462.26 2180.23,1462.26 
  2184.27,1462.26 2188.3,1462.26 2192.33,1462.26 2196.36,1462.26 2200.4,1462.26 2204.43,1462.26 2208.46,1462.26 2212.5,1462.26 2216.53,1462.26 2220.56,1462.26 
  2224.59,1462.26 2228.63,1462.26 2232.66,1462.26 2236.69,1462.26 2240.73,1462.26 2244.76,1462.26 2248.79,1462.26 2252.82,1462.26 2256.86,1462.26 2260.89,1462.26 
  
  "/>
<polyline clip-path="url(#clip3802)" style="stroke:#00a8cb; stroke-width:4; stroke-opacity:1; fill:none" points="
  248.527,1462.26 252.56,1462.26 256.593,1462.26 260.626,1462.26 264.658,1462.26 268.691,1462.26 272.724,1462.26 276.757,1462.26 280.79,1462.26 284.822,1462.26 
  288.855,1462.26 292.888,1462.26 296.921,1462.26 300.953,1462.26 304.986,1462.26 309.019,1462.26 313.052,1462.26 317.085,1462.26 321.117,1462.26 325.15,1462.26 
  329.183,1462.26 333.216,1462.26 337.249,1462.26 341.281,1462.26 345.314,1462.26 349.347,1462.26 353.38,1462.26 357.413,1462.26 361.445,1462.26 365.478,1462.26 
  369.511,1462.26 373.544,1462.26 377.576,1462.26 381.609,1462.26 385.642,1462.26 389.675,1462.26 393.708,1462.26 397.74,1462.26 401.773,1462.26 405.806,1462.26 
  409.839,1462.26 413.872,1462.26 417.904,1462.26 421.937,1462.26 425.97,1462.26 430.003,1462.26 434.036,1462.26 438.068,1462.26 442.101,1462.26 446.134,1462.26 
  450.167,1462.26 454.199,1462.26 458.232,1462.26 462.265,1462.26 466.298,1462.26 470.331,1462.26 474.363,1462.26 478.396,1462.26 482.429,1462.26 486.462,1462.26 
  490.495,1462.26 494.527,1462.26 498.56,1462.26 502.593,1462.26 506.626,1462.26 510.659,1462.26 514.691,1462.26 518.724,1462.26 522.757,1462.26 526.79,1462.26 
  530.822,1462.26 534.855,1462.26 538.888,1462.26 542.921,1462.26 546.954,1462.26 550.986,1462.26 555.019,1462.26 559.052,1462.26 563.085,1462.26 567.118,1462.26 
  571.15,1462.26 575.183,1462.26 579.216,1462.26 583.249,1462.26 587.282,1462.26 591.314,1462.26 595.347,1462.26 599.38,1462.26 603.413,1462.26 607.445,1462.26 
  611.478,1462.26 615.511,1462.26 619.544,1462.26 623.577,1462.26 627.609,1462.26 631.642,1462.26 635.675,1462.26 639.708,1462.25 643.741,1462.25 647.773,1462.25 
  651.806,1462.25 655.839,1462.25 659.872,1462.24 663.905,1462.24 667.937,1462.24 671.97,1462.23 676.003,1462.23 680.036,1462.23 684.068,1462.22 688.101,1462.21 
  692.134,1462.21 696.167,1462.2 700.2,1462.19 704.232,1462.18 708.265,1462.16 712.298,1462.15 716.331,1462.13 720.364,1462.12 724.396,1462.1 728.429,1462.07 
  732.462,1462.05 736.495,1462.02 740.528,1461.99 744.56,1461.95 748.593,1461.91 752.626,1461.87 756.659,1461.82 760.691,1461.76 764.724,1461.7 768.757,1461.63 
  772.79,1461.56 776.823,1461.48 780.855,1461.39 784.888,1461.29 788.921,1461.18 792.954,1461.06 796.987,1460.93 801.019,1460.78 805.052,1460.63 809.085,1460.46 
  813.118,1460.27 817.15,1460.06 821.183,1459.84 825.216,1459.6 829.249,1459.34 833.282,1459.05 837.314,1458.75 841.347,1458.41 845.38,1458.05 849.413,1457.66 
  853.446,1457.24 857.478,1456.79 861.511,1456.31 865.544,1455.78 869.577,1455.22 873.61,1454.62 877.642,1453.98 881.675,1453.28 885.708,1452.54 889.741,1451.75 
  893.773,1450.91 897.806,1450.01 901.839,1449.05 905.872,1448.03 909.905,1446.95 913.937,1445.8 917.97,1444.57 922.003,1443.28 926.036,1441.9 930.069,1440.45 
  934.101,1438.91 938.134,1437.29 942.167,1435.57 946.2,1433.76 950.233,1431.86 954.265,1429.85 958.298,1427.75 962.331,1425.53 966.364,1423.21 970.396,1420.77 
  974.429,1418.21 978.462,1415.53 982.495,1412.73 986.528,1409.81 990.56,1406.75 994.593,1403.57 998.626,1400.24 1002.66,1396.78 1006.69,1393.18 1010.72,1389.44 
  1014.76,1385.55 1018.79,1381.51 1022.82,1377.33 1026.86,1372.99 1030.89,1368.5 1034.92,1363.86 1038.95,1359.06 1042.99,1354.11 1047.02,1349 1051.05,1343.73 
  1055.09,1338.31 1059.12,1332.73 1063.15,1327 1067.18,1321.1 1071.22,1315.06 1075.25,1308.86 1079.28,1302.51 1083.31,1296.02 1087.35,1289.37 1091.38,1282.59 
  1095.41,1275.66 1099.45,1268.6 1103.48,1261.4 1107.51,1254.08 1111.54,1246.64 1115.58,1239.07 1119.61,1231.39 1123.64,1223.61 1127.68,1215.73 1131.71,1207.75 
  1135.74,1199.68 1139.77,1191.54 1143.81,1183.32 1147.84,1175.04 1151.87,1166.7 1155.9,1158.32 1159.94,1149.89 1163.97,1141.44 1168,1132.97 1172.04,1124.49 
  1176.07,1116.01 1180.1,1107.54 1184.13,1099.09 1188.17,1090.67 1192.2,1082.29 1196.23,1073.97 1200.27,1065.71 1204.3,1057.53 1208.33,1049.43 1212.36,1041.43 
  1216.4,1033.54 1220.43,1025.77 1224.46,1018.14 1228.49,1010.64 1232.53,1003.3 1236.56,996.129 1240.59,989.131 1244.63,982.321 1248.66,975.708 1252.69,969.304 
  1256.72,963.117 1260.76,957.159 1264.79,951.438 1268.82,945.964 1272.86,940.746 1276.89,935.793 1280.92,931.112 1284.95,926.711 1288.99,922.598 1293.02,918.779 
  1297.05,915.262 1301.09,912.051 1305.12,909.153 1309.15,906.572 1313.18,904.313 1317.22,902.38 1321.25,900.775 1325.28,899.503 1329.31,898.564 1333.35,897.96 
  1337.38,897.693 1341.41,897.764 1345.45,898.171 1349.48,898.914 1353.51,899.992 1357.54,901.404 1361.58,903.146 1365.61,905.215 1369.64,907.609 1373.68,910.322 
  1377.71,913.351 1381.74,916.69 1385.77,920.334 1389.81,924.276 1393.84,928.51 1397.87,933.028 1401.9,937.824 1405.94,942.889 1409.97,948.215 1414,953.792 
  1418.04,959.613 1422.07,965.668 1426.1,971.946 1430.13,978.439 1434.17,985.135 1438.2,992.025 1442.23,999.097 1446.27,1006.34 1450.3,1013.75 1454.33,1021.3 
  1458.36,1028.99 1462.4,1036.81 1466.43,1044.75 1470.46,1052.79 1474.5,1060.93 1478.53,1069.14 1482.56,1077.43 1486.59,1085.77 1490.63,1094.17 1494.66,1102.6 
  1498.69,1111.06 1502.72,1119.54 1506.76,1128.02 1510.79,1136.5 1514.82,1144.97 1518.86,1153.41 1522.89,1161.82 1526.92,1170.18 1530.95,1178.5 1534.99,1186.75 
  1539.02,1194.94 1543.05,1203.05 1547.09,1211.08 1551.12,1219.02 1555.15,1226.87 1559.18,1234.61 1563.22,1242.24 1567.25,1249.75 1571.28,1257.15 1575.31,1264.42 
  1579.35,1271.56 1583.38,1278.56 1587.41,1285.43 1591.45,1292.16 1595.48,1298.74 1599.51,1305.18 1603.54,1311.46 1607.58,1317.6 1611.61,1323.58 1615.64,1329.4 
  1619.68,1335.08 1623.71,1340.59 1627.74,1345.95 1631.77,1351.15 1635.81,1356.19 1639.84,1361.08 1643.87,1365.81 1647.91,1370.39 1651.94,1374.82 1655.97,1379.09 
  1660,1383.21 1664.04,1387.19 1668.07,1391.02 1672.1,1394.7 1676.13,1398.24 1680.17,1401.64 1684.2,1404.91 1688.23,1408.04 1692.27,1411.04 1696.3,1413.92 
  1700.33,1416.66 1704.36,1419.29 1708.4,1421.8 1712.43,1424.19 1716.46,1426.47 1720.5,1428.64 1724.53,1430.7 1728.56,1432.66 1732.59,1434.53 1736.63,1436.3 
  1740.66,1437.97 1744.69,1439.56 1748.72,1441.06 1752.76,1442.48 1756.79,1443.83 1760.82,1445.09 1764.86,1446.28 1768.89,1447.41 1772.92,1448.47 1776.95,1449.46 
  1780.99,1450.39 1785.02,1451.27 1789.05,1452.09 1793.09,1452.86 1797.12,1453.58 1801.15,1454.25 1805.18,1454.88 1809.22,1455.46 1813.25,1456.01 1817.28,1456.51 
  1821.31,1456.99 1825.35,1457.42 1829.38,1457.83 1833.41,1458.21 1837.45,1458.56 1841.48,1458.88 1845.51,1459.18 1849.54,1459.45 1853.58,1459.7 1857.61,1459.94 
  1861.64,1460.15 1865.68,1460.35 1869.71,1460.53 1873.74,1460.69 1877.77,1460.85 1881.81,1460.98 1885.84,1461.11 1889.87,1461.23 1893.91,1461.33 1897.94,1461.43 
  1901.97,1461.51 1906,1461.59 1910.04,1461.66 1914.07,1461.73 1918.1,1461.78 1922.13,1461.84 1926.17,1461.88 1930.2,1461.93 1934.23,1461.97 1938.27,1462 
  1942.3,1462.03 1946.33,1462.06 1950.36,1462.08 1954.4,1462.1 1958.43,1462.12 1962.46,1462.14 1966.5,1462.16 1970.53,1462.17 1974.56,1462.18 1978.59,1462.19 
  1982.63,1462.2 1986.66,1462.21 1990.69,1462.22 1994.72,1462.22 1998.76,1462.23 2002.79,1462.23 2006.82,1462.24 2010.86,1462.24 2014.89,1462.24 2018.92,1462.25 
  2022.95,1462.25 2026.99,1462.25 2031.02,1462.25 2035.05,1462.25 2039.09,1462.25 2043.12,1462.26 2047.15,1462.26 2051.18,1462.26 2055.22,1462.26 2059.25,1462.26 
  2063.28,1462.26 2067.32,1462.26 2071.35,1462.26 2075.38,1462.26 2079.41,1462.26 2083.45,1462.26 2087.48,1462.26 2091.51,1462.26 2095.54,1462.26 2099.58,1462.26 
  2103.61,1462.26 2107.64,1462.26 2111.68,1462.26 2115.71,1462.26 2119.74,1462.26 2123.77,1462.26 2127.81,1462.26 2131.84,1462.26 2135.87,1462.26 2139.91,1462.26 
  2143.94,1462.26 2147.97,1462.26 2152,1462.26 2156.04,1462.26 2160.07,1462.26 2164.1,1462.26 2168.13,1462.26 2172.17,1462.26 2176.2,1462.26 2180.23,1462.26 
  2184.27,1462.26 2188.3,1462.26 2192.33,1462.26 2196.36,1462.26 2200.4,1462.26 2204.43,1462.26 2208.46,1462.26 2212.5,1462.26 2216.53,1462.26 2220.56,1462.26 
  2224.59,1462.26 2228.63,1462.26 2232.66,1462.26 2236.69,1462.26 2240.73,1462.26 2244.76,1462.26 2248.79,1462.26 2252.82,1462.26 2256.86,1462.26 2260.89,1462.26 
  
  "/>
</svg>
